<svg version="1.1" xmlns="http://www.w3.org/2000/svg" xmlns:xlink="http://www.w3.org/1999/xlink" width="947.630859375" height="396"><defs/><g><text fill="#eeeeee" stroke="none" font-family="Arial" font-size="24px" font-style="normal" font-weight="normal" text-decoration="none" x="0" y="0">UNREGISTERED</text><text fill="#eeeeee" stroke="none" font-family="Arial" font-size="24px" font-style="normal" font-weight="normal" text-decoration="none" x="0" y="30">UNREGISTERED</text><text fill="#eeeeee" stroke="none" font-family="Arial" font-size="24px" font-style="normal" font-weight="normal" text-decoration="none" x="0" y="60">UNREGISTERED</text><text fill="#eeeeee" stroke="none" font-family="Arial" font-size="24px" font-style="normal" font-weight="normal" text-decoration="none" x="0" y="90">UNREGISTERED</text><text fill="#eeeeee" stroke="none" font-family="Arial" font-size="24px" font-style="normal" font-weight="normal" text-decoration="none" x="0" y="120">UNREGISTERED</text><text fill="#eeeeee" stroke="none" font-family="Arial" font-size="24px" font-style="normal" font-weight="normal" text-decoration="none" x="0" y="150">UNREGISTERED</text><text fill="#eeeeee" stroke="none" font-family="Arial" font-size="24px" font-style="normal" font-weight="normal" text-decoration="none" x="0" y="180">UNREGISTERED</text><text fill="#eeeeee" stroke="none" font-family="Arial" font-size="24px" font-style="normal" font-weight="normal" text-decoration="none" x="0" y="210">UNREGISTERED</text><text fill="#eeeeee" stroke="none" font-family="Arial" font-size="24px" font-style="normal" font-weight="normal" text-decoration="none" x="0" y="240">UNREGISTERED</text><text fill="#eeeeee" stroke="none" font-family="Arial" font-size="24px" font-style="normal" font-weight="normal" text-decoration="none" x="0" y="270">UNREGISTERED</text><text fill="#eeeeee" stroke="none" font-family="Arial" font-size="24px" font-style="normal" font-weight="normal" text-decoration="none" x="0" y="300">UNREGISTERED</text><text fill="#eeeeee" stroke="none" font-family="Arial" font-size="24px" font-style="normal" font-weight="normal" text-decoration="none" x="0" y="330">UNREGISTERED</text><text fill="#eeeeee" stroke="none" font-family="Arial" font-size="24px" font-style="normal" font-weight="normal" text-decoration="none" x="0" y="360">UNREGISTERED</text><text fill="#eeeeee" stroke="none" font-family="Arial" font-size="24px" font-style="normal" font-weight="normal" text-decoration="none" x="0" y="390">UNREGISTERED</text><text fill="#eeeeee" stroke="none" font-family="Arial" font-size="24px" font-style="normal" font-weight="normal" text-decoration="none" x="200" y="0">UNREGISTERED</text><text fill="#eeeeee" stroke="none" font-family="Arial" font-size="24px" font-style="normal" font-weight="normal" text-decoration="none" x="200" y="30">UNREGISTERED</text><text fill="#eeeeee" stroke="none" font-family="Arial" font-size="24px" font-style="normal" font-weight="normal" text-decoration="none" x="200" y="60">UNREGISTERED</text><text fill="#eeeeee" stroke="none" font-family="Arial" font-size="24px" font-style="normal" font-weight="normal" text-decoration="none" x="200" y="90">UNREGISTERED</text><text fill="#eeeeee" stroke="none" font-family="Arial" font-size="24px" font-style="normal" font-weight="normal" text-decoration="none" x="200" y="120">UNREGISTERED</text><text fill="#eeeeee" stroke="none" font-family="Arial" font-size="24px" font-style="normal" font-weight="normal" text-decoration="none" x="200" y="150">UNREGISTERED</text><text fill="#eeeeee" stroke="none" font-family="Arial" font-size="24px" font-style="normal" font-weight="normal" text-decoration="none" x="200" y="180">UNREGISTERED</text><text fill="#eeeeee" stroke="none" font-family="Arial" font-size="24px" font-style="normal" font-weight="normal" text-decoration="none" x="200" y="210">UNREGISTERED</text><text fill="#eeeeee" stroke="none" font-family="Arial" font-size="24px" font-style="normal" font-weight="normal" text-decoration="none" x="200" y="240">UNREGISTERED</text><text fill="#eeeeee" stroke="none" font-family="Arial" font-size="24px" font-style="normal" font-weight="normal" text-decoration="none" x="200" y="270">UNREGISTERED</text><text fill="#eeeeee" stroke="none" font-family="Arial" font-size="24px" font-style="normal" font-weight="normal" text-decoration="none" x="200" y="300">UNREGISTERED</text><text fill="#eeeeee" stroke="none" font-family="Arial" font-size="24px" font-style="normal" font-weight="normal" text-decoration="none" x="200" y="330">UNREGISTERED</text><text fill="#eeeeee" stroke="none" font-family="Arial" font-size="24px" font-style="normal" font-weight="normal" text-decoration="none" x="200" y="360">UNREGISTERED</text><text fill="#eeeeee" stroke="none" font-family="Arial" font-size="24px" font-style="normal" font-weight="normal" text-decoration="none" x="200" y="390">UNREGISTERED</text><text fill="#eeeeee" stroke="none" font-family="Arial" font-size="24px" font-style="normal" font-weight="normal" text-decoration="none" x="400" y="0">UNREGISTERED</text><text fill="#eeeeee" stroke="none" font-family="Arial" font-size="24px" font-style="normal" font-weight="normal" text-decoration="none" x="400" y="30">UNREGISTERED</text><text fill="#eeeeee" stroke="none" font-family="Arial" font-size="24px" font-style="normal" font-weight="normal" text-decoration="none" x="400" y="60">UNREGISTERED</text><text fill="#eeeeee" stroke="none" font-family="Arial" font-size="24px" font-style="normal" font-weight="normal" text-decoration="none" x="400" y="90">UNREGISTERED</text><text fill="#eeeeee" stroke="none" font-family="Arial" font-size="24px" font-style="normal" font-weight="normal" text-decoration="none" x="400" y="120">UNREGISTERED</text><text fill="#eeeeee" stroke="none" font-family="Arial" font-size="24px" font-style="normal" font-weight="normal" text-decoration="none" x="400" y="150">UNREGISTERED</text><text fill="#eeeeee" stroke="none" font-family="Arial" font-size="24px" font-style="normal" font-weight="normal" text-decoration="none" x="400" y="180">UNREGISTERED</text><text fill="#eeeeee" stroke="none" font-family="Arial" font-size="24px" font-style="normal" font-weight="normal" text-decoration="none" x="400" y="210">UNREGISTERED</text><text fill="#eeeeee" stroke="none" font-family="Arial" font-size="24px" font-style="normal" font-weight="normal" text-decoration="none" x="400" y="240">UNREGISTERED</text><text fill="#eeeeee" stroke="none" font-family="Arial" font-size="24px" font-style="normal" font-weight="normal" text-decoration="none" x="400" y="270">UNREGISTERED</text><text fill="#eeeeee" stroke="none" font-family="Arial" font-size="24px" font-style="normal" font-weight="normal" text-decoration="none" x="400" y="300">UNREGISTERED</text><text fill="#eeeeee" stroke="none" font-family="Arial" font-size="24px" font-style="normal" font-weight="normal" text-decoration="none" x="400" y="330">UNREGISTERED</text><text fill="#eeeeee" stroke="none" font-family="Arial" font-size="24px" font-style="normal" font-weight="normal" text-decoration="none" x="400" y="360">UNREGISTERED</text><text fill="#eeeeee" stroke="none" font-family="Arial" font-size="24px" font-style="normal" font-weight="normal" text-decoration="none" x="400" y="390">UNREGISTERED</text><text fill="#eeeeee" stroke="none" font-family="Arial" font-size="24px" font-style="normal" font-weight="normal" text-decoration="none" x="600" y="0">UNREGISTERED</text><text fill="#eeeeee" stroke="none" font-family="Arial" font-size="24px" font-style="normal" font-weight="normal" text-decoration="none" x="600" y="30">UNREGISTERED</text><text fill="#eeeeee" stroke="none" font-family="Arial" font-size="24px" font-style="normal" font-weight="normal" text-decoration="none" x="600" y="60">UNREGISTERED</text><text fill="#eeeeee" stroke="none" font-family="Arial" font-size="24px" font-style="normal" font-weight="normal" text-decoration="none" x="600" y="90">UNREGISTERED</text><text fill="#eeeeee" stroke="none" font-family="Arial" font-size="24px" font-style="normal" font-weight="normal" text-decoration="none" x="600" y="120">UNREGISTERED</text><text fill="#eeeeee" stroke="none" font-family="Arial" font-size="24px" font-style="normal" font-weight="normal" text-decoration="none" x="600" y="150">UNREGISTERED</text><text fill="#eeeeee" stroke="none" font-family="Arial" font-size="24px" font-style="normal" font-weight="normal" text-decoration="none" x="600" y="180">UNREGISTERED</text><text fill="#eeeeee" stroke="none" font-family="Arial" font-size="24px" font-style="normal" font-weight="normal" text-decoration="none" x="600" y="210">UNREGISTERED</text><text fill="#eeeeee" stroke="none" font-family="Arial" font-size="24px" font-style="normal" font-weight="normal" text-decoration="none" x="600" y="240">UNREGISTERED</text><text fill="#eeeeee" stroke="none" font-family="Arial" font-size="24px" font-style="normal" font-weight="normal" text-decoration="none" x="600" y="270">UNREGISTERED</text><text fill="#eeeeee" stroke="none" font-family="Arial" font-size="24px" font-style="normal" font-weight="normal" text-decoration="none" x="600" y="300">UNREGISTERED</text><text fill="#eeeeee" stroke="none" font-family="Arial" font-size="24px" font-style="normal" font-weight="normal" text-decoration="none" x="600" y="330">UNREGISTERED</text><text fill="#eeeeee" stroke="none" font-family="Arial" font-size="24px" font-style="normal" font-weight="normal" text-decoration="none" x="600" y="360">UNREGISTERED</text><text fill="#eeeeee" stroke="none" font-family="Arial" font-size="24px" font-style="normal" font-weight="normal" text-decoration="none" x="600" y="390">UNREGISTERED</text><text fill="#eeeeee" stroke="none" font-family="Arial" font-size="24px" font-style="normal" font-weight="normal" text-decoration="none" x="800" y="0">UNREGISTERED</text><text fill="#eeeeee" stroke="none" font-family="Arial" font-size="24px" font-style="normal" font-weight="normal" text-decoration="none" x="800" y="30">UNREGISTERED</text><text fill="#eeeeee" stroke="none" font-family="Arial" font-size="24px" font-style="normal" font-weight="normal" text-decoration="none" x="800" y="60">UNREGISTERED</text><text fill="#eeeeee" stroke="none" font-family="Arial" font-size="24px" font-style="normal" font-weight="normal" text-decoration="none" x="800" y="90">UNREGISTERED</text><text fill="#eeeeee" stroke="none" font-family="Arial" font-size="24px" font-style="normal" font-weight="normal" text-decoration="none" x="800" y="120">UNREGISTERED</text><text fill="#eeeeee" stroke="none" font-family="Arial" font-size="24px" font-style="normal" font-weight="normal" text-decoration="none" x="800" y="150">UNREGISTERED</text><text fill="#eeeeee" stroke="none" font-family="Arial" font-size="24px" font-style="normal" font-weight="normal" text-decoration="none" x="800" y="180">UNREGISTERED</text><text fill="#eeeeee" stroke="none" font-family="Arial" font-size="24px" font-style="normal" font-weight="normal" text-decoration="none" x="800" y="210">UNREGISTERED</text><text fill="#eeeeee" stroke="none" font-family="Arial" font-size="24px" font-style="normal" font-weight="normal" text-decoration="none" x="800" y="240">UNREGISTERED</text><text fill="#eeeeee" stroke="none" font-family="Arial" font-size="24px" font-style="normal" font-weight="normal" text-decoration="none" x="800" y="270">UNREGISTERED</text><text fill="#eeeeee" stroke="none" font-family="Arial" font-size="24px" font-style="normal" font-weight="normal" text-decoration="none" x="800" y="300">UNREGISTERED</text><text fill="#eeeeee" stroke="none" font-family="Arial" font-size="24px" font-style="normal" font-weight="normal" text-decoration="none" x="800" y="330">UNREGISTERED</text><text fill="#eeeeee" stroke="none" font-family="Arial" font-size="24px" font-style="normal" font-weight="normal" text-decoration="none" x="800" y="360">UNREGISTERED</text><text fill="#eeeeee" stroke="none" font-family="Arial" font-size="24px" font-style="normal" font-weight="normal" text-decoration="none" x="800" y="390">UNREGISTERED</text><g transform="translate(-80,-30) scale(1,1)"><path fill="#ffffff" stroke="none" d="M 131.3143172940341 47.3 C 131.3143172940341 43.82060576 134.1927190162159 41 137.743408203125 41 C 141.2940973900341 41 144.17249911221592 43.82060576 144.17249911221592 47.3 C 144.17249911221592 50.779394239999995 141.2940973900341 53.6 137.743408203125 53.6 C 134.1927190162159 53.6 131.3143172940341 50.779394239999995 131.3143172940341 47.3 Z"/></g><g transform="translate(-80,-30) scale(1,1)"><path fill="none" stroke="#000000" d="M 131.3143172940341 47.3 C 131.3143172940341 43.82060576 134.1927190162159 41 137.743408203125 41 C 141.2940973900341 41 144.17249911221592 43.82060576 144.17249911221592 47.3 C 144.17249911221592 50.779394239999995 141.2940973900341 53.6 137.743408203125 53.6 C 134.1927190162159 53.6 131.3143172940341 50.779394239999995 131.3143172940341 47.3 Z" stroke-miterlimit="10"/></g><g transform="translate(-80,-30) scale(1,1)"><path fill="none" stroke="#000000" d="M 137.743408203125 53.6 L 137.743408203125 66.4" stroke-miterlimit="10"/></g><g transform="translate(-80,-30) scale(1,1)"><path fill="none" stroke="#000000" d="M 130.9361354758523 58.4 L 144.55068093039773 58.4" stroke-miterlimit="10"/></g><g transform="translate(-80,-30) scale(1,1)"><path fill="none" stroke="#000000" d="M 137.743408203125 66.4 L 128.28886274857956 79" stroke-miterlimit="10"/></g><g transform="translate(-80,-30) scale(1,1)"><path fill="none" stroke="#000000" d="M 137.743408203125 66.4 L 147.19795365767047 79" stroke-miterlimit="10"/></g><g transform="translate(-80,-30) scale(1,1)"><g><path fill="none" stroke="none"/><text fill="#000000" stroke="none" font-family="Arial" font-size="13px" font-style="normal" font-weight="bold" text-decoration="none" x="123.727783203125" y="99.5">: بیمار</text></g></g><g transform="translate(-80,-30) scale(1,1)"><path fill="none" stroke="#000000" d="M 138.5 105 L 138.5 416" stroke-miterlimit="10" stroke-dasharray="3"/></g><g transform="translate(-80,-30) scale(1,1)"><rect fill="#C0C0C0" stroke="none" x="239" y="47" width="193.7763671875" height="39" opacity="0.2"/></g><g transform="translate(-80,-30) scale(1,1)"><rect fill="#ffffff" stroke="none" x="232" y="40" width="193.7763671875" height="39"/></g><g transform="translate(-80,-30) scale(1,1)"><path fill="none" stroke="#000000" d="M 232 40 L 425.7763671875 40 L 425.7763671875 79 L 232 79 L 232 40 Z Z" stroke-miterlimit="10"/></g><g transform="translate(-80,-30) scale(1,1)"><g><path fill="none" stroke="none"/><text fill="#000000" stroke="none" font-family="Arial" font-size="13px" font-style="normal" font-weight="bold" text-decoration="none" x="249.396484375" y="59.5">AllocatePhlebotomistButton</text></g></g><g transform="translate(-80,-30) scale(1,1)"><path fill="none" stroke="#000000" d="M 329.5 80 L 329.5 168" stroke-miterlimit="10" stroke-dasharray="3"/></g><g transform="translate(-80,-30) scale(1,1)"><rect fill="#C0C0C0" stroke="none" x="471" y="107" width="198.1181640625" height="39" opacity="0.2"/></g><g transform="translate(-80,-30) scale(1,1)"><rect fill="#ffffff" stroke="none" x="464" y="100" width="198.1181640625" height="39"/></g><g transform="translate(-80,-30) scale(1,1)"><path fill="none" stroke="#000000" d="M 464 100 L 662.1181640625 100 L 662.1181640625 139 L 464 139 L 464 100 Z Z" stroke-miterlimit="10"/></g><g transform="translate(-80,-30) scale(1,1)"><g><path fill="none" stroke="none"/><text fill="#000000" stroke="none" font-family="Arial" font-size="13px" font-style="normal" font-weight="bold" text-decoration="none" x="481.406005859375" y="119.5">AllocatePhlebotomistControl</text></g></g><g transform="translate(-80,-30) scale(1,1)"><path fill="none" stroke="#000000" d="M 564.5 140 L 564.5 400" stroke-miterlimit="10" stroke-dasharray="3"/></g><g transform="translate(-80,-30) scale(1,1)"><path fill="#ffffff" stroke="none" d="M 781.577256747159 47.3 C 781.577256747159 43.82060576 784.455658469341 41 788.00634765625 41 C 791.557036843159 41 794.4354385653409 43.82060576 794.4354385653409 47.3 C 794.4354385653409 50.779394239999995 791.557036843159 53.6 788.00634765625 53.6 C 784.455658469341 53.6 781.577256747159 50.779394239999995 781.577256747159 47.3 Z"/></g><g transform="translate(-80,-30) scale(1,1)"><path fill="none" stroke="#000000" d="M 781.577256747159 47.3 C 781.577256747159 43.82060576 784.455658469341 41 788.00634765625 41 C 791.557036843159 41 794.4354385653409 43.82060576 794.4354385653409 47.3 C 794.4354385653409 50.779394239999995 791.557036843159 53.6 788.00634765625 53.6 C 784.455658469341 53.6 781.577256747159 50.779394239999995 781.577256747159 47.3 Z" stroke-miterlimit="10"/></g><g transform="translate(-80,-30) scale(1,1)"><path fill="none" stroke="#000000" d="M 788.00634765625 53.6 L 788.00634765625 66.4" stroke-miterlimit="10"/></g><g transform="translate(-80,-30) scale(1,1)"><path fill="none" stroke="#000000" d="M 781.1990749289772 58.4 L 794.8136203835227 58.4" stroke-miterlimit="10"/></g><g transform="translate(-80,-30) scale(1,1)"><path fill="none" stroke="#000000" d="M 788.00634765625 66.4 L 778.5518022017045 79" stroke-miterlimit="10"/></g><g transform="translate(-80,-30) scale(1,1)"><path fill="none" stroke="#000000" d="M 788.00634765625 66.4 L 797.4608931107954 79" stroke-miterlimit="10"/></g><g transform="translate(-80,-30) scale(1,1)"><g><path fill="none" stroke="none"/><text fill="#000000" stroke="none" font-family="Arial" font-size="13px" font-style="normal" font-weight="bold" text-decoration="none" x="746.819580078125" y="99.5">: Phlebotomist</text></g></g><g transform="translate(-80,-30) scale(1,1)"><path fill="none" stroke="#000000" d="M 789.5 105 L 789.5 296" stroke-miterlimit="10" stroke-dasharray="3"/></g><g transform="translate(-80,-30) scale(1,1)"><rect fill="#C0C0C0" stroke="none" x="911" y="291" width="113.630859375" height="39" opacity="0.2"/></g><g transform="translate(-80,-30) scale(1,1)"><rect fill="#ffffff" stroke="none" x="904" y="284" width="113.630859375" height="39"/></g><g transform="translate(-80,-30) scale(1,1)"><path fill="none" stroke="#000000" d="M 904 284 L 1017.630859375 284 L 1017.630859375 323 L 904 323 L 904 284 Z Z" stroke-miterlimit="10"/></g><g transform="translate(-80,-30) scale(1,1)"><g><path fill="none" stroke="none"/><text fill="#000000" stroke="none" font-family="Arial" font-size="13px" font-style="normal" font-weight="bold" text-decoration="none" x="916.3818359375" y="303.5">ResponseForm</text></g></g><g transform="translate(-80,-30) scale(1,1)"><path fill="none" stroke="#000000" d="M 961.5 324 L 961.5 416" stroke-miterlimit="10" stroke-dasharray="3"/></g><g transform="translate(-80,-30) scale(1,1)"><path fill="none" stroke="#000000" d="M 138 115 L 322 115" stroke-miterlimit="10"/></g><g transform="translate(-80,-30) scale(1,1)"><path fill="#000000" stroke="none" d="M 311.83732514237585 119.20951775601598 L 322 115 L 311.83732514237585 110.79048224398402"/></g><g transform="translate(-80,-30) scale(1,1)"><path fill="none" stroke="#000000" d="M 311.83732514237585 119.20951775601598 L 322 115 L 311.83732514237585 110.79048224398402 L 311.83732514237585 119.20951775601598" stroke-miterlimit="10"/></g><g transform="translate(-80,-30) scale(1,1)"><g><path fill="none" stroke="none"/><text fill="#000000" stroke="none" font-family="Arial" font-size="13px" font-style="normal" font-weight="normal" text-decoration="none" x="210.265869140625" y="111.5">press()</text></g></g><g transform="translate(-80,-30) scale(1,1)"><rect fill="#ffffff" stroke="none" x="322" y="115" width="13" height="28"/></g><g transform="translate(-80,-30) scale(1,1)"><path fill="none" stroke="#000000" d="M 322 115 L 335 115 L 335 143 L 322 143 L 322 115 Z Z" stroke-miterlimit="10"/></g><g transform="translate(-80,-30) scale(1,1)"><path fill="none" stroke="#000000" d="M 335 120 L 464 120" stroke-miterlimit="10" stroke-dasharray="3"/></g><g transform="translate(-80,-30) scale(1,1)"><path fill="none" stroke="#000000" d="M 453.83732514237585 124.20951775601598 L 464 120 L 453.83732514237585 115.79048224398402" stroke-miterlimit="10"/></g><g transform="translate(-80,-30) scale(1,1)"><g><path fill="none" stroke="none"/><text fill="#000000" stroke="none" font-family="Arial" font-size="13px" font-style="normal" font-weight="normal" text-decoration="none" x="372.5" y="115.5">«create»</text></g></g><g transform="translate(-80,-30) scale(1,1)"><path fill="none" stroke="#000000" d="M 564 160 L 594 160 L 594 180 L 570 180" stroke-miterlimit="10"/></g><g transform="translate(-80,-30) scale(1,1)"><path fill="#000000" stroke="none" d="M 580.1626748576241 175.790482243984 L 570 180 L 580.1626748576241 184.209517756016"/></g><g transform="translate(-80,-30) scale(1,1)"><path fill="none" stroke="#000000" d="M 580.1626748576241 175.790482243984 L 570 180 L 580.1626748576241 184.209517756016 L 580.1626748576241 175.790482243984" stroke-miterlimit="10"/></g><g transform="translate(-80,-30) scale(1,1)"><g><path fill="none" stroke="none"/><text fill="#000000" stroke="none" font-family="Arial" font-size="13px" font-style="normal" font-weight="normal" text-decoration="none" x="598.5" y="175.5">phID = selectPhlebotomist()</text></g></g><g transform="translate(-80,-30) scale(1,1)"><rect fill="#ffffff" stroke="none" x="557" y="180" width="13" height="28"/></g><g transform="translate(-80,-30) scale(1,1)"><path fill="none" stroke="#000000" d="M 557 180 L 570 180 L 570 208 L 557 208 L 557 180 Z Z" stroke-miterlimit="10"/></g><g transform="translate(-80,-30) scale(1,1)"><path fill="none" stroke="#000000" d="M 564 224 L 782 224" stroke-miterlimit="10"/></g><g transform="translate(-80,-30) scale(1,1)"><path fill="#000000" stroke="none" d="M 771.8373251423759 228.209517756016 L 782 224 L 771.8373251423758 219.790482243984"/></g><g transform="translate(-80,-30) scale(1,1)"><path fill="none" stroke="#000000" d="M 771.8373251423759 228.209517756016 L 782 224 L 771.8373251423758 219.790482243984 L 771.8373251423759 228.209517756016" stroke-miterlimit="10"/></g><g transform="translate(-80,-30) scale(1,1)"><g><path fill="none" stroke="none"/><text fill="#000000" stroke="none" font-family="Arial" font-size="13px" font-style="normal" font-weight="normal" text-decoration="none" x="603.5" y="219.5">isAvailable(date, time)</text></g></g><g transform="translate(-80,-30) scale(1,1)"><rect fill="#ffffff" stroke="none" x="782" y="224" width="13" height="40"/></g><g transform="translate(-80,-30) scale(1,1)"><path fill="none" stroke="#000000" d="M 782 224 L 795 224 L 795 264 L 782 264 L 782 224 Z Z" stroke-miterlimit="10"/></g><g transform="translate(-80,-30) scale(1,1)"><path fill="none" stroke="#000000" d="M 789 264 L 564 264" stroke-miterlimit="10" stroke-dasharray="3"/></g><g transform="translate(-80,-30) scale(1,1)"><path fill="none" stroke="#000000" d="M 574.1626748576241 259.790482243984 L 564 264 L 574.1626748576241 268.209517756016" stroke-miterlimit="10"/></g><g transform="translate(-80,-30) scale(1,1)"><g><path fill="none" stroke="none"/><text fill="#000000" stroke="none" font-family="Arial" font-size="13px" font-style="normal" font-weight="normal" text-decoration="none" x="663.5" y="259.5">OK</text></g></g><g transform="translate(-80,-30) scale(1,1)"><path fill="none" stroke="#000000" d="M 564 304 L 904 304" stroke-miterlimit="10" stroke-dasharray="3"/></g><g transform="translate(-80,-30) scale(1,1)"><path fill="none" stroke="#000000" d="M 893.8373251423759 308.209517756016 L 904 304 L 893.8373251423758 299.790482243984" stroke-miterlimit="10"/></g><g transform="translate(-80,-30) scale(1,1)"><g><path fill="none" stroke="none"/><text fill="#000000" stroke="none" font-family="Arial" font-size="13px" font-style="normal" font-weight="normal" text-decoration="none" x="814.5" y="300.5">«create»</text></g></g><g transform="translate(-80,-30) scale(1,1)"><path fill="none" stroke="#000000" d="M 564 344 L 954 344" stroke-miterlimit="10"/></g><g transform="translate(-80,-30) scale(1,1)"><path fill="#000000" stroke="none" d="M 943.8373251423759 348.209517756016 L 954 344 L 943.8373251423758 339.790482243984"/></g><g transform="translate(-80,-30) scale(1,1)"><path fill="none" stroke="#000000" d="M 943.8373251423759 348.209517756016 L 954 344 L 943.8373251423758 339.790482243984 L 943.8373251423759 348.209517756016" stroke-miterlimit="10"/></g><g transform="translate(-80,-30) scale(1,1)"><g><path fill="none" stroke="none"/><text fill="#000000" stroke="none" font-family="Arial" font-size="13px" font-style="normal" font-weight="normal" text-decoration="none" x="606.5" y="340.5">showMessage("Phlebotomist successfully allocated")</text></g></g><g transform="translate(-80,-30) scale(1,1)"><rect fill="#ffffff" stroke="none" x="954" y="344" width="13" height="28"/></g><g transform="translate(-80,-30) scale(1,1)"><path fill="none" stroke="#000000" d="M 954 344 L 967 344 L 967 372 L 954 372 L 954 344 Z Z" stroke-miterlimit="10"/></g></g></svg>