<svg version="1.1" xmlns="http://www.w3.org/2000/svg" xmlns:xlink="http://www.w3.org/1999/xlink" width="940" height="636"><defs/><g><text fill="#eeeeee" stroke="none" font-family="Arial" font-size="24px" font-style="normal" font-weight="normal" text-decoration="none" x="0" y="0">UNREGISTERED</text><text fill="#eeeeee" stroke="none" font-family="Arial" font-size="24px" font-style="normal" font-weight="normal" text-decoration="none" x="0" y="30">UNREGISTERED</text><text fill="#eeeeee" stroke="none" font-family="Arial" font-size="24px" font-style="normal" font-weight="normal" text-decoration="none" x="0" y="60">UNREGISTERED</text><text fill="#eeeeee" stroke="none" font-family="Arial" font-size="24px" font-style="normal" font-weight="normal" text-decoration="none" x="0" y="90">UNREGISTERED</text><text fill="#eeeeee" stroke="none" font-family="Arial" font-size="24px" font-style="normal" font-weight="normal" text-decoration="none" x="0" y="120">UNREGISTERED</text><text fill="#eeeeee" stroke="none" font-family="Arial" font-size="24px" font-style="normal" font-weight="normal" text-decoration="none" x="0" y="150">UNREGISTERED</text><text fill="#eeeeee" stroke="none" font-family="Arial" font-size="24px" font-style="normal" font-weight="normal" text-decoration="none" x="0" y="180">UNREGISTERED</text><text fill="#eeeeee" stroke="none" font-family="Arial" font-size="24px" font-style="normal" font-weight="normal" text-decoration="none" x="0" y="210">UNREGISTERED</text><text fill="#eeeeee" stroke="none" font-family="Arial" font-size="24px" font-style="normal" font-weight="normal" text-decoration="none" x="0" y="240">UNREGISTERED</text><text fill="#eeeeee" stroke="none" font-family="Arial" font-size="24px" font-style="normal" font-weight="normal" text-decoration="none" x="0" y="270">UNREGISTERED</text><text fill="#eeeeee" stroke="none" font-family="Arial" font-size="24px" font-style="normal" font-weight="normal" text-decoration="none" x="0" y="300">UNREGISTERED</text><text fill="#eeeeee" stroke="none" font-family="Arial" font-size="24px" font-style="normal" font-weight="normal" text-decoration="none" x="0" y="330">UNREGISTERED</text><text fill="#eeeeee" stroke="none" font-family="Arial" font-size="24px" font-style="normal" font-weight="normal" text-decoration="none" x="0" y="360">UNREGISTERED</text><text fill="#eeeeee" stroke="none" font-family="Arial" font-size="24px" font-style="normal" font-weight="normal" text-decoration="none" x="0" y="390">UNREGISTERED</text><text fill="#eeeeee" stroke="none" font-family="Arial" font-size="24px" font-style="normal" font-weight="normal" text-decoration="none" x="0" y="420">UNREGISTERED</text><text fill="#eeeeee" stroke="none" font-family="Arial" font-size="24px" font-style="normal" font-weight="normal" text-decoration="none" x="0" y="450">UNREGISTERED</text><text fill="#eeeeee" stroke="none" font-family="Arial" font-size="24px" font-style="normal" font-weight="normal" text-decoration="none" x="0" y="480">UNREGISTERED</text><text fill="#eeeeee" stroke="none" font-family="Arial" font-size="24px" font-style="normal" font-weight="normal" text-decoration="none" x="0" y="510">UNREGISTERED</text><text fill="#eeeeee" stroke="none" font-family="Arial" font-size="24px" font-style="normal" font-weight="normal" text-decoration="none" x="0" y="540">UNREGISTERED</text><text fill="#eeeeee" stroke="none" font-family="Arial" font-size="24px" font-style="normal" font-weight="normal" text-decoration="none" x="0" y="570">UNREGISTERED</text><text fill="#eeeeee" stroke="none" font-family="Arial" font-size="24px" font-style="normal" font-weight="normal" text-decoration="none" x="0" y="600">UNREGISTERED</text><text fill="#eeeeee" stroke="none" font-family="Arial" font-size="24px" font-style="normal" font-weight="normal" text-decoration="none" x="0" y="630">UNREGISTERED</text><text fill="#eeeeee" stroke="none" font-family="Arial" font-size="24px" font-style="normal" font-weight="normal" text-decoration="none" x="200" y="0">UNREGISTERED</text><text fill="#eeeeee" stroke="none" font-family="Arial" font-size="24px" font-style="normal" font-weight="normal" text-decoration="none" x="200" y="30">UNREGISTERED</text><text fill="#eeeeee" stroke="none" font-family="Arial" font-size="24px" font-style="normal" font-weight="normal" text-decoration="none" x="200" y="60">UNREGISTERED</text><text fill="#eeeeee" stroke="none" font-family="Arial" font-size="24px" font-style="normal" font-weight="normal" text-decoration="none" x="200" y="90">UNREGISTERED</text><text fill="#eeeeee" stroke="none" font-family="Arial" font-size="24px" font-style="normal" font-weight="normal" text-decoration="none" x="200" y="120">UNREGISTERED</text><text fill="#eeeeee" stroke="none" font-family="Arial" font-size="24px" font-style="normal" font-weight="normal" text-decoration="none" x="200" y="150">UNREGISTERED</text><text fill="#eeeeee" stroke="none" font-family="Arial" font-size="24px" font-style="normal" font-weight="normal" text-decoration="none" x="200" y="180">UNREGISTERED</text><text fill="#eeeeee" stroke="none" font-family="Arial" font-size="24px" font-style="normal" font-weight="normal" text-decoration="none" x="200" y="210">UNREGISTERED</text><text fill="#eeeeee" stroke="none" font-family="Arial" font-size="24px" font-style="normal" font-weight="normal" text-decoration="none" x="200" y="240">UNREGISTERED</text><text fill="#eeeeee" stroke="none" font-family="Arial" font-size="24px" font-style="normal" font-weight="normal" text-decoration="none" x="200" y="270">UNREGISTERED</text><text fill="#eeeeee" stroke="none" font-family="Arial" font-size="24px" font-style="normal" font-weight="normal" text-decoration="none" x="200" y="300">UNREGISTERED</text><text fill="#eeeeee" stroke="none" font-family="Arial" font-size="24px" font-style="normal" font-weight="normal" text-decoration="none" x="200" y="330">UNREGISTERED</text><text fill="#eeeeee" stroke="none" font-family="Arial" font-size="24px" font-style="normal" font-weight="normal" text-decoration="none" x="200" y="360">UNREGISTERED</text><text fill="#eeeeee" stroke="none" font-family="Arial" font-size="24px" font-style="normal" font-weight="normal" text-decoration="none" x="200" y="390">UNREGISTERED</text><text fill="#eeeeee" stroke="none" font-family="Arial" font-size="24px" font-style="normal" font-weight="normal" text-decoration="none" x="200" y="420">UNREGISTERED</text><text fill="#eeeeee" stroke="none" font-family="Arial" font-size="24px" font-style="normal" font-weight="normal" text-decoration="none" x="200" y="450">UNREGISTERED</text><text fill="#eeeeee" stroke="none" font-family="Arial" font-size="24px" font-style="normal" font-weight="normal" text-decoration="none" x="200" y="480">UNREGISTERED</text><text fill="#eeeeee" stroke="none" font-family="Arial" font-size="24px" font-style="normal" font-weight="normal" text-decoration="none" x="200" y="510">UNREGISTERED</text><text fill="#eeeeee" stroke="none" font-family="Arial" font-size="24px" font-style="normal" font-weight="normal" text-decoration="none" x="200" y="540">UNREGISTERED</text><text fill="#eeeeee" stroke="none" font-family="Arial" font-size="24px" font-style="normal" font-weight="normal" text-decoration="none" x="200" y="570">UNREGISTERED</text><text fill="#eeeeee" stroke="none" font-family="Arial" font-size="24px" font-style="normal" font-weight="normal" text-decoration="none" x="200" y="600">UNREGISTERED</text><text fill="#eeeeee" stroke="none" font-family="Arial" font-size="24px" font-style="normal" font-weight="normal" text-decoration="none" x="200" y="630">UNREGISTERED</text><text fill="#eeeeee" stroke="none" font-family="Arial" font-size="24px" font-style="normal" font-weight="normal" text-decoration="none" x="400" y="0">UNREGISTERED</text><text fill="#eeeeee" stroke="none" font-family="Arial" font-size="24px" font-style="normal" font-weight="normal" text-decoration="none" x="400" y="30">UNREGISTERED</text><text fill="#eeeeee" stroke="none" font-family="Arial" font-size="24px" font-style="normal" font-weight="normal" text-decoration="none" x="400" y="60">UNREGISTERED</text><text fill="#eeeeee" stroke="none" font-family="Arial" font-size="24px" font-style="normal" font-weight="normal" text-decoration="none" x="400" y="90">UNREGISTERED</text><text fill="#eeeeee" stroke="none" font-family="Arial" font-size="24px" font-style="normal" font-weight="normal" text-decoration="none" x="400" y="120">UNREGISTERED</text><text fill="#eeeeee" stroke="none" font-family="Arial" font-size="24px" font-style="normal" font-weight="normal" text-decoration="none" x="400" y="150">UNREGISTERED</text><text fill="#eeeeee" stroke="none" font-family="Arial" font-size="24px" font-style="normal" font-weight="normal" text-decoration="none" x="400" y="180">UNREGISTERED</text><text fill="#eeeeee" stroke="none" font-family="Arial" font-size="24px" font-style="normal" font-weight="normal" text-decoration="none" x="400" y="210">UNREGISTERED</text><text fill="#eeeeee" stroke="none" font-family="Arial" font-size="24px" font-style="normal" font-weight="normal" text-decoration="none" x="400" y="240">UNREGISTERED</text><text fill="#eeeeee" stroke="none" font-family="Arial" font-size="24px" font-style="normal" font-weight="normal" text-decoration="none" x="400" y="270">UNREGISTERED</text><text fill="#eeeeee" stroke="none" font-family="Arial" font-size="24px" font-style="normal" font-weight="normal" text-decoration="none" x="400" y="300">UNREGISTERED</text><text fill="#eeeeee" stroke="none" font-family="Arial" font-size="24px" font-style="normal" font-weight="normal" text-decoration="none" x="400" y="330">UNREGISTERED</text><text fill="#eeeeee" stroke="none" font-family="Arial" font-size="24px" font-style="normal" font-weight="normal" text-decoration="none" x="400" y="360">UNREGISTERED</text><text fill="#eeeeee" stroke="none" font-family="Arial" font-size="24px" font-style="normal" font-weight="normal" text-decoration="none" x="400" y="390">UNREGISTERED</text><text fill="#eeeeee" stroke="none" font-family="Arial" font-size="24px" font-style="normal" font-weight="normal" text-decoration="none" x="400" y="420">UNREGISTERED</text><text fill="#eeeeee" stroke="none" font-family="Arial" font-size="24px" font-style="normal" font-weight="normal" text-decoration="none" x="400" y="450">UNREGISTERED</text><text fill="#eeeeee" stroke="none" font-family="Arial" font-size="24px" font-style="normal" font-weight="normal" text-decoration="none" x="400" y="480">UNREGISTERED</text><text fill="#eeeeee" stroke="none" font-family="Arial" font-size="24px" font-style="normal" font-weight="normal" text-decoration="none" x="400" y="510">UNREGISTERED</text><text fill="#eeeeee" stroke="none" font-family="Arial" font-size="24px" font-style="normal" font-weight="normal" text-decoration="none" x="400" y="540">UNREGISTERED</text><text fill="#eeeeee" stroke="none" font-family="Arial" font-size="24px" font-style="normal" font-weight="normal" text-decoration="none" x="400" y="570">UNREGISTERED</text><text fill="#eeeeee" stroke="none" font-family="Arial" font-size="24px" font-style="normal" font-weight="normal" text-decoration="none" x="400" y="600">UNREGISTERED</text><text fill="#eeeeee" stroke="none" font-family="Arial" font-size="24px" font-style="normal" font-weight="normal" text-decoration="none" x="400" y="630">UNREGISTERED</text><text fill="#eeeeee" stroke="none" font-family="Arial" font-size="24px" font-style="normal" font-weight="normal" text-decoration="none" x="600" y="0">UNREGISTERED</text><text fill="#eeeeee" stroke="none" font-family="Arial" font-size="24px" font-style="normal" font-weight="normal" text-decoration="none" x="600" y="30">UNREGISTERED</text><text fill="#eeeeee" stroke="none" font-family="Arial" font-size="24px" font-style="normal" font-weight="normal" text-decoration="none" x="600" y="60">UNREGISTERED</text><text fill="#eeeeee" stroke="none" font-family="Arial" font-size="24px" font-style="normal" font-weight="normal" text-decoration="none" x="600" y="90">UNREGISTERED</text><text fill="#eeeeee" stroke="none" font-family="Arial" font-size="24px" font-style="normal" font-weight="normal" text-decoration="none" x="600" y="120">UNREGISTERED</text><text fill="#eeeeee" stroke="none" font-family="Arial" font-size="24px" font-style="normal" font-weight="normal" text-decoration="none" x="600" y="150">UNREGISTERED</text><text fill="#eeeeee" stroke="none" font-family="Arial" font-size="24px" font-style="normal" font-weight="normal" text-decoration="none" x="600" y="180">UNREGISTERED</text><text fill="#eeeeee" stroke="none" font-family="Arial" font-size="24px" font-style="normal" font-weight="normal" text-decoration="none" x="600" y="210">UNREGISTERED</text><text fill="#eeeeee" stroke="none" font-family="Arial" font-size="24px" font-style="normal" font-weight="normal" text-decoration="none" x="600" y="240">UNREGISTERED</text><text fill="#eeeeee" stroke="none" font-family="Arial" font-size="24px" font-style="normal" font-weight="normal" text-decoration="none" x="600" y="270">UNREGISTERED</text><text fill="#eeeeee" stroke="none" font-family="Arial" font-size="24px" font-style="normal" font-weight="normal" text-decoration="none" x="600" y="300">UNREGISTERED</text><text fill="#eeeeee" stroke="none" font-family="Arial" font-size="24px" font-style="normal" font-weight="normal" text-decoration="none" x="600" y="330">UNREGISTERED</text><text fill="#eeeeee" stroke="none" font-family="Arial" font-size="24px" font-style="normal" font-weight="normal" text-decoration="none" x="600" y="360">UNREGISTERED</text><text fill="#eeeeee" stroke="none" font-family="Arial" font-size="24px" font-style="normal" font-weight="normal" text-decoration="none" x="600" y="390">UNREGISTERED</text><text fill="#eeeeee" stroke="none" font-family="Arial" font-size="24px" font-style="normal" font-weight="normal" text-decoration="none" x="600" y="420">UNREGISTERED</text><text fill="#eeeeee" stroke="none" font-family="Arial" font-size="24px" font-style="normal" font-weight="normal" text-decoration="none" x="600" y="450">UNREGISTERED</text><text fill="#eeeeee" stroke="none" font-family="Arial" font-size="24px" font-style="normal" font-weight="normal" text-decoration="none" x="600" y="480">UNREGISTERED</text><text fill="#eeeeee" stroke="none" font-family="Arial" font-size="24px" font-style="normal" font-weight="normal" text-decoration="none" x="600" y="510">UNREGISTERED</text><text fill="#eeeeee" stroke="none" font-family="Arial" font-size="24px" font-style="normal" font-weight="normal" text-decoration="none" x="600" y="540">UNREGISTERED</text><text fill="#eeeeee" stroke="none" font-family="Arial" font-size="24px" font-style="normal" font-weight="normal" text-decoration="none" x="600" y="570">UNREGISTERED</text><text fill="#eeeeee" stroke="none" font-family="Arial" font-size="24px" font-style="normal" font-weight="normal" text-decoration="none" x="600" y="600">UNREGISTERED</text><text fill="#eeeeee" stroke="none" font-family="Arial" font-size="24px" font-style="normal" font-weight="normal" text-decoration="none" x="600" y="630">UNREGISTERED</text><text fill="#eeeeee" stroke="none" font-family="Arial" font-size="24px" font-style="normal" font-weight="normal" text-decoration="none" x="800" y="0">UNREGISTERED</text><text fill="#eeeeee" stroke="none" font-family="Arial" font-size="24px" font-style="normal" font-weight="normal" text-decoration="none" x="800" y="30">UNREGISTERED</text><text fill="#eeeeee" stroke="none" font-family="Arial" font-size="24px" font-style="normal" font-weight="normal" text-decoration="none" x="800" y="60">UNREGISTERED</text><text fill="#eeeeee" stroke="none" font-family="Arial" font-size="24px" font-style="normal" font-weight="normal" text-decoration="none" x="800" y="90">UNREGISTERED</text><text fill="#eeeeee" stroke="none" font-family="Arial" font-size="24px" font-style="normal" font-weight="normal" text-decoration="none" x="800" y="120">UNREGISTERED</text><text fill="#eeeeee" stroke="none" font-family="Arial" font-size="24px" font-style="normal" font-weight="normal" text-decoration="none" x="800" y="150">UNREGISTERED</text><text fill="#eeeeee" stroke="none" font-family="Arial" font-size="24px" font-style="normal" font-weight="normal" text-decoration="none" x="800" y="180">UNREGISTERED</text><text fill="#eeeeee" stroke="none" font-family="Arial" font-size="24px" font-style="normal" font-weight="normal" text-decoration="none" x="800" y="210">UNREGISTERED</text><text fill="#eeeeee" stroke="none" font-family="Arial" font-size="24px" font-style="normal" font-weight="normal" text-decoration="none" x="800" y="240">UNREGISTERED</text><text fill="#eeeeee" stroke="none" font-family="Arial" font-size="24px" font-style="normal" font-weight="normal" text-decoration="none" x="800" y="270">UNREGISTERED</text><text fill="#eeeeee" stroke="none" font-family="Arial" font-size="24px" font-style="normal" font-weight="normal" text-decoration="none" x="800" y="300">UNREGISTERED</text><text fill="#eeeeee" stroke="none" font-family="Arial" font-size="24px" font-style="normal" font-weight="normal" text-decoration="none" x="800" y="330">UNREGISTERED</text><text fill="#eeeeee" stroke="none" font-family="Arial" font-size="24px" font-style="normal" font-weight="normal" text-decoration="none" x="800" y="360">UNREGISTERED</text><text fill="#eeeeee" stroke="none" font-family="Arial" font-size="24px" font-style="normal" font-weight="normal" text-decoration="none" x="800" y="390">UNREGISTERED</text><text fill="#eeeeee" stroke="none" font-family="Arial" font-size="24px" font-style="normal" font-weight="normal" text-decoration="none" x="800" y="420">UNREGISTERED</text><text fill="#eeeeee" stroke="none" font-family="Arial" font-size="24px" font-style="normal" font-weight="normal" text-decoration="none" x="800" y="450">UNREGISTERED</text><text fill="#eeeeee" stroke="none" font-family="Arial" font-size="24px" font-style="normal" font-weight="normal" text-decoration="none" x="800" y="480">UNREGISTERED</text><text fill="#eeeeee" stroke="none" font-family="Arial" font-size="24px" font-style="normal" font-weight="normal" text-decoration="none" x="800" y="510">UNREGISTERED</text><text fill="#eeeeee" stroke="none" font-family="Arial" font-size="24px" font-style="normal" font-weight="normal" text-decoration="none" x="800" y="540">UNREGISTERED</text><text fill="#eeeeee" stroke="none" font-family="Arial" font-size="24px" font-style="normal" font-weight="normal" text-decoration="none" x="800" y="570">UNREGISTERED</text><text fill="#eeeeee" stroke="none" font-family="Arial" font-size="24px" font-style="normal" font-weight="normal" text-decoration="none" x="800" y="600">UNREGISTERED</text><text fill="#eeeeee" stroke="none" font-family="Arial" font-size="24px" font-style="normal" font-weight="normal" text-decoration="none" x="800" y="630">UNREGISTERED</text><g transform="translate(-86,2) scale(1,1)"><path fill="#ffffff" stroke="none" d="M 182.1080184659091 47.3 C 182.1080184659091 43.82060576 184.9864201880909 41 188.537109375 41 C 192.0877985619091 41 194.96620028409092 43.82060576 194.96620028409092 47.3 C 194.96620028409092 50.779394239999995 192.0877985619091 53.6 188.537109375 53.6 C 184.9864201880909 53.6 182.1080184659091 50.779394239999995 182.1080184659091 47.3 Z"/></g><g transform="translate(-86,2) scale(1,1)"><path fill="none" stroke="#000000" d="M 182.1080184659091 47.3 C 182.1080184659091 43.82060576 184.9864201880909 41 188.537109375 41 C 192.0877985619091 41 194.96620028409092 43.82060576 194.96620028409092 47.3 C 194.96620028409092 50.779394239999995 192.0877985619091 53.6 188.537109375 53.6 C 184.9864201880909 53.6 182.1080184659091 50.779394239999995 182.1080184659091 47.3 Z" stroke-miterlimit="10"/></g><g transform="translate(-86,2) scale(1,1)"><path fill="none" stroke="#000000" d="M 188.537109375 53.6 L 188.537109375 66.4" stroke-miterlimit="10"/></g><g transform="translate(-86,2) scale(1,1)"><path fill="none" stroke="#000000" d="M 181.7298366477273 58.4 L 195.34438210227273 58.4" stroke-miterlimit="10"/></g><g transform="translate(-86,2) scale(1,1)"><path fill="none" stroke="#000000" d="M 188.537109375 66.4 L 179.08256392045456 79" stroke-miterlimit="10"/></g><g transform="translate(-86,2) scale(1,1)"><path fill="none" stroke="#000000" d="M 188.537109375 66.4 L 197.99165482954547 79" stroke-miterlimit="10"/></g><g transform="translate(-86,2) scale(1,1)"><g><path fill="none" stroke="none"/><text fill="#000000" stroke="none" font-family="Arial" font-size="13px" font-style="normal" font-weight="bold" text-decoration="none" x="147.350341796875" y="99.5">: Phlebotomist</text></g></g><g transform="translate(-86,2) scale(1,1)"><path fill="none" stroke="#000000" d="M 189.5 105 L 189.5 512" stroke-miterlimit="10" stroke-dasharray="3"/></g><g transform="translate(-86,2) scale(1,1)"><path fill="#ffffff" stroke="none" d="M 96 124.5 C 96 120.6340064 99.1340064 117.5 103 117.5 C 106.8659936 117.5 110 120.6340064 110 124.5 C 110 128.3659936 106.8659936 131.5 103 131.5 C 99.1340064 131.5 96 128.3659936 96 124.5 Z"/></g><g transform="translate(-86,2) scale(1,1)"><rect fill="#C0C0C0" stroke="none" x="423" y="47" width="180.08447265625" height="39" opacity="0.2"/></g><g transform="translate(-86,2) scale(1,1)"><rect fill="#ffffff" stroke="none" x="416" y="40" width="180.08447265625" height="39"/></g><g transform="translate(-86,2) scale(1,1)"><path fill="none" stroke="#000000" d="M 416 40 L 596.08447265625 40 L 596.08447265625 79 L 416 79 L 416 40 Z Z" stroke-miterlimit="10"/></g><g transform="translate(-86,2) scale(1,1)"><g><path fill="none" stroke="none"/><text fill="#000000" stroke="none" font-family="Arial" font-size="13px" font-style="normal" font-weight="bold" text-decoration="none" x="432.345947265625" y="59.5">CheckPrescriptionControl</text></g></g><g transform="translate(-86,2) scale(1,1)"><path fill="none" stroke="#000000" d="M 507.5 80 L 507.5 624" stroke-miterlimit="10" stroke-dasharray="3"/></g><g transform="translate(-86,2) scale(1,1)"><rect fill="#C0C0C0" stroke="none" x="719" y="47" width="194.55712890625" height="39" opacity="0.2"/></g><g transform="translate(-86,2) scale(1,1)"><rect fill="#ffffff" stroke="none" x="712" y="40" width="194.55712890625" height="39"/></g><g transform="translate(-86,2) scale(1,1)"><path fill="none" stroke="#000000" d="M 712 40 L 906.55712890625 40 L 906.55712890625 79 L 712 79 L 712 40 Z Z" stroke-miterlimit="10"/></g><g transform="translate(-86,2) scale(1,1)"><g><path fill="none" stroke="none"/><text fill="#000000" stroke="none" font-family="Arial" font-size="13px" font-style="normal" font-weight="bold" text-decoration="none" x="729.075927734375" y="59.5">UncheckedPrescriptionsList</text></g></g><g transform="translate(-86,2) scale(1,1)"><path fill="none" stroke="#000000" d="M 810.5 80 L 810.5 306" stroke-miterlimit="10" stroke-dasharray="3"/></g><g transform="translate(-86,2) scale(1,1)"><rect fill="#C0C0C0" stroke="none" x="895" y="403" width="110.51416015625" height="39" opacity="0.2"/></g><g transform="translate(-86,2) scale(1,1)"><rect fill="#ffffff" stroke="none" x="888" y="396" width="110.51416015625" height="39"/></g><g transform="translate(-86,2) scale(1,1)"><path fill="none" stroke="#000000" d="M 888 396 L 998.51416015625 396 L 998.51416015625 435 L 888 435 L 888 396 Z Z" stroke-miterlimit="10"/></g><g transform="translate(-86,2) scale(1,1)"><g><path fill="none" stroke="none"/><text fill="#000000" stroke="none" font-family="Arial" font-size="13px" font-style="normal" font-weight="bold" text-decoration="none" x="900.632568359375" y="415.5">TestNamesList</text></g></g><g transform="translate(-86,2) scale(1,1)"><path fill="none" stroke="#000000" d="M 944.5 436 L 944.5 485" stroke-miterlimit="10" stroke-dasharray="3"/></g><g transform="translate(-86,2) scale(1,1)"><g><path fill="none" stroke="none"/><text fill="#ad00ad" stroke="none" font-family="Arial" font-size="13px" font-style="normal" font-weight="normal" text-decoration="none" x="149" y="26">checkPrescription Sequence Diagram</text></g></g><g transform="translate(-86,2) scale(1,1)"><path fill="none" stroke="#000000" d="M 110 125 L 182 125" stroke-miterlimit="10"/></g><g transform="translate(-86,2) scale(1,1)"><path fill="#000000" stroke="none" d="M 171.83732514237585 129.209517756016 L 182 125 L 171.83732514237585 120.79048224398402"/></g><g transform="translate(-86,2) scale(1,1)"><path fill="none" stroke="#000000" d="M 171.83732514237585 129.209517756016 L 182 125 L 171.83732514237585 120.79048224398402 L 171.83732514237585 129.209517756016" stroke-miterlimit="10"/></g><g transform="translate(-86,2) scale(1,1)"><g><path fill="none" stroke="none"/><text fill="#000000" stroke="none" font-family="Arial" font-size="13px" font-style="normal" font-weight="normal" text-decoration="none" x="127.4599609375" y="121.5">login()</text></g></g><g transform="translate(-86,2) scale(1,1)"><rect fill="#ffffff" stroke="none" x="182" y="125" width="13" height="28"/></g><g transform="translate(-86,2) scale(1,1)"><path fill="none" stroke="#000000" d="M 182 125 L 195 125 L 195 153 L 182 153 L 182 125 Z Z" stroke-miterlimit="10"/></g><g transform="translate(-86,2) scale(1,1)"><path fill="none" stroke="#000000" d="M 195 136 L 500 136" stroke-miterlimit="10"/></g><g transform="translate(-86,2) scale(1,1)"><path fill="#000000" stroke="none" d="M 489.83732514237585 140.209517756016 L 500 136 L 489.83732514237585 131.790482243984"/></g><g transform="translate(-86,2) scale(1,1)"><path fill="none" stroke="#000000" d="M 489.83732514237585 140.209517756016 L 500 136 L 489.83732514237585 131.790482243984 L 489.83732514237585 140.209517756016" stroke-miterlimit="10"/></g><g transform="translate(-86,2) scale(1,1)"><g><path fill="none" stroke="none"/><text fill="#000000" stroke="none" font-family="Arial" font-size="13px" font-style="normal" font-weight="normal" text-decoration="none" x="291.5" y="132.5">checkPrescription()</text></g></g><g transform="translate(-86,2) scale(1,1)"><rect fill="#ffffff" stroke="none" x="500" y="136" width="13" height="28"/></g><g transform="translate(-86,2) scale(1,1)"><path fill="none" stroke="#000000" d="M 500 136 L 513 136 L 513 164 L 500 164 L 500 136 Z Z" stroke-miterlimit="10"/></g><g transform="translate(-86,2) scale(1,1)"><path fill="none" stroke="#000000" d="M 189 264 L 803 264" stroke-miterlimit="10"/></g><g transform="translate(-86,2) scale(1,1)"><path fill="#000000" stroke="none" d="M 792.8373251423759 268.209517756016 L 803 264 L 792.8373251423758 259.790482243984"/></g><g transform="translate(-86,2) scale(1,1)"><path fill="none" stroke="#000000" d="M 792.8373251423759 268.209517756016 L 803 264 L 792.8373251423758 259.790482243984 L 792.8373251423759 268.209517756016" stroke-miterlimit="10"/></g><g transform="translate(-86,2) scale(1,1)"><g><path fill="none" stroke="none"/><text fill="#000000" stroke="none" font-family="Arial" font-size="13px" font-style="normal" font-weight="normal" text-decoration="none" x="533.5" y="260.5">preID = selectUncheckedPrescription()</text></g></g><g transform="translate(-86,2) scale(1,1)"><rect fill="#ffffff" stroke="none" x="803" y="264" width="13" height="28"/></g><g transform="translate(-86,2) scale(1,1)"><path fill="none" stroke="#000000" d="M 803 264 L 816 264 L 816 292 L 803 292 L 803 264 Z Z" stroke-miterlimit="10"/></g><g transform="translate(-86,2) scale(1,1)"><path fill="none" stroke="#000000" d="M 189 320 L 219 320 L 219 340 L 195 340" stroke-miterlimit="10"/></g><g transform="translate(-86,2) scale(1,1)"><path fill="#000000" stroke="none" d="M 205.16267485762415 335.790482243984 L 195 340 L 205.16267485762415 344.209517756016"/></g><g transform="translate(-86,2) scale(1,1)"><path fill="none" stroke="#000000" d="M 205.16267485762415 335.790482243984 L 195 340 L 205.16267485762415 344.209517756016 L 205.16267485762415 335.790482243984" stroke-miterlimit="10"/></g><g transform="translate(-86,2) scale(1,1)"><g><path fill="none" stroke="none"/><text fill="#000000" stroke="none" font-family="Arial" font-size="13px" font-style="normal" font-weight="normal" text-decoration="none" x="231.5" y="332.5">checkPrescription(preID)</text></g></g><g transform="translate(-86,2) scale(1,1)"><rect fill="#ffffff" stroke="none" x="182" y="340" width="13" height="28"/></g><g transform="translate(-86,2) scale(1,1)"><path fill="none" stroke="#000000" d="M 182 340 L 195 340 L 195 368 L 182 368 L 182 340 Z Z" stroke-miterlimit="10"/></g><g transform="translate(-86,2) scale(1,1)"><path fill="none" stroke="#000000" d="M 189 392 L 500 392" stroke-miterlimit="10"/></g><g transform="translate(-86,2) scale(1,1)"><path fill="#000000" stroke="none" d="M 489.83732514237585 396.209517756016 L 500 392 L 489.83732514237585 387.790482243984"/></g><g transform="translate(-86,2) scale(1,1)"><path fill="none" stroke="#000000" d="M 489.83732514237585 396.209517756016 L 500 392 L 489.83732514237585 387.790482243984 L 489.83732514237585 396.209517756016" stroke-miterlimit="10"/></g><g transform="translate(-86,2) scale(1,1)"><g><path fill="none" stroke="none"/><text fill="#000000" stroke="none" font-family="Arial" font-size="13px" font-style="normal" font-weight="normal" text-decoration="none" x="256.89453125" y="388.5">submitTestNames(testNames)</text></g></g><g transform="translate(-86,2) scale(1,1)"><rect fill="#ffffff" stroke="none" x="500" y="392" width="13" height="28"/></g><g transform="translate(-86,2) scale(1,1)"><path fill="none" stroke="#000000" d="M 500 392 L 513 392 L 513 420 L 500 420 L 500 392 Z Z" stroke-miterlimit="10"/></g><g transform="translate(-86,2) scale(1,1)"><path fill="none" stroke="#000000" d="M 513 416 L 888 416" stroke-miterlimit="10" stroke-dasharray="3"/></g><g transform="translate(-86,2) scale(1,1)"><path fill="none" stroke="#000000" d="M 877.8373251423759 420.209517756016 L 888 416 L 877.8373251423758 411.790482243984" stroke-miterlimit="10"/></g><g transform="translate(-86,2) scale(1,1)"><g><path fill="none" stroke="none"/><text fill="#000000" stroke="none" font-family="Arial" font-size="13px" font-style="normal" font-weight="normal" text-decoration="none" x="702.5" y="412.5">«create»</text></g></g><g transform="translate(-86,2) scale(1,1)"><path fill="none" stroke="#000000" d="M 507 488 L 537 488 L 537 508 L 513 508" stroke-miterlimit="10"/></g><g transform="translate(-86,2) scale(1,1)"><path fill="#000000" stroke="none" d="M 523.1626748576241 503.790482243984 L 513 508 L 523.1626748576241 512.209517756016"/></g><g transform="translate(-86,2) scale(1,1)"><path fill="none" stroke="#000000" d="M 523.1626748576241 503.790482243984 L 513 508 L 523.1626748576241 512.209517756016 L 523.1626748576241 503.790482243984" stroke-miterlimit="10"/></g><g transform="translate(-86,2) scale(1,1)"><g><path fill="none" stroke="none"/><text fill="#000000" stroke="none" font-family="Arial" font-size="13px" font-style="normal" font-weight="normal" text-decoration="none" x="550.5" y="503.5">submitTestNamesToPatient()</text></g></g><g transform="translate(-86,2) scale(1,1)"><rect fill="#ffffff" stroke="none" x="500" y="508" width="13" height="28"/></g><g transform="translate(-86,2) scale(1,1)"><path fill="none" stroke="#000000" d="M 500 508 L 513 508 L 513 536 L 500 536 L 500 508 Z Z" stroke-miterlimit="10"/></g><g transform="translate(-86,2) scale(1,1)"><path fill="none" stroke="#000000" d="M 144 192 L 1016 192 L 1016 624 L 144 624 L 144 192" stroke-miterlimit="10"/></g><g transform="translate(-86,2) scale(1,1)"><path fill="#ffffff" stroke="none" d="M 144 192 L 144 214 L 532.88037109375 214 L 543.88037109375 203 L 543.88037109375 192 L 144 192"/></g><g transform="translate(-86,2) scale(1,1)"><path fill="none" stroke="#000000" d="M 144 192 L 144 214 L 532.88037109375 214 L 543.88037109375 203 L 543.88037109375 192 L 144 192 L 144 192" stroke-miterlimit="10"/></g><g transform="translate(-86,2) scale(1,1)"><g><path fill="none" stroke="none"/><text fill="#000000" stroke="none" font-family="Arial" font-size="13px" font-style="normal" font-weight="normal" text-decoration="none" x="179.578125" y="209.5">[The time for looking over prescription has not been finished]</text></g></g><g transform="translate(-86,2) scale(1,1)"><g><path fill="none" stroke="none"/><text fill="#000000" stroke="none" font-family="Arial" font-size="13px" font-style="normal" font-weight="bold" text-decoration="none" x="149" y="209.5">loop</text></g></g></g></svg>