<svg version="1.1" xmlns="http://www.w3.org/2000/svg" xmlns:xlink="http://www.w3.org/1999/xlink" width="2300" height="1228"><defs/><g><g transform="translate(-38,-54) scale(1,1)"><rect fill="#C0C0C0" stroke="none" x="127" y="231" width="120" height="104" opacity="0.2"/></g><g transform="translate(-38,-54) scale(1,1)"><rect fill="#ebd8ff" stroke="none" x="120" y="224" width="120" height="104"/></g><g transform="translate(-38,-54) scale(1,1)"><path fill="none" stroke="#000000" d="M 120 224 L 240 224 L 240 328 L 120 328 L 120 224 Z Z" stroke-miterlimit="10"/></g><g transform="translate(-38,-54) scale(1,1)"><path fill="none" stroke="#000000" d="M 120 249 L 240 249" stroke-miterlimit="10"/></g><g transform="translate(-38,-54) scale(1,1)"><path fill="none" stroke="#000000" d="M 120 287 L 240 287" stroke-miterlimit="10"/></g><g transform="translate(-38,-54) scale(1,1)"><g><path fill="none" stroke="none"/><text fill="#000000" stroke="none" font-family="Arial" font-size="13px" font-style="normal" font-weight="bold" text-decoration="none" x="159.887451171875" y="243.5">نمونه گیر</text></g></g><g transform="translate(-38,-54) scale(1,1)"><g><path fill="none" stroke="none"/><text fill="#000000" stroke="none" font-family="Arial" font-size="13px" font-style="normal" font-weight="normal" text-decoration="none" x="125" y="266.5">-شماره شناسایی</text></g></g><g transform="translate(-38,-54) scale(1,1)"><g><path fill="none" stroke="none"/><text fill="#000000" stroke="none" font-family="Arial" font-size="13px" font-style="normal" font-weight="normal" text-decoration="none" x="125" y="281.5">-وضعیت</text></g></g><g transform="translate(-38,-54) scale(1,1)"><rect fill="#C0C0C0" stroke="none" x="391" y="495" width="112" height="104" opacity="0.2"/></g><g transform="translate(-38,-54) scale(1,1)"><rect fill="#ebd8ff" stroke="none" x="384" y="488" width="112" height="104"/></g><g transform="translate(-38,-54) scale(1,1)"><path fill="none" stroke="#000000" d="M 384 488 L 496 488 L 496 592 L 384 592 L 384 488 Z Z" stroke-miterlimit="10"/></g><g transform="translate(-38,-54) scale(1,1)"><path fill="none" stroke="#000000" d="M 384 513 L 496 513" stroke-miterlimit="10"/></g><g transform="translate(-38,-54) scale(1,1)"><path fill="none" stroke="#000000" d="M 384 536 L 496 536" stroke-miterlimit="10"/></g><g transform="translate(-38,-54) scale(1,1)"><g><path fill="none" stroke="none"/><text fill="#000000" stroke="none" font-family="Arial" font-size="13px" font-style="normal" font-weight="bold" text-decoration="none" x="429.0185546875" y="507.5">نمونه</text></g></g><g transform="translate(-38,-54) scale(1,1)"><g><path fill="none" stroke="none"/><text fill="#000000" stroke="none" font-family="Arial" font-size="13px" font-style="normal" font-weight="normal" text-decoration="none" x="389" y="530.5">+نوع نمونه</text></g></g><g transform="translate(-38,-54) scale(1,1)"><rect fill="#C0C0C0" stroke="none" x="1471" y="223" width="120" height="104" opacity="0.2"/></g><g transform="translate(-38,-54) scale(1,1)"><rect fill="#ebd8ff" stroke="none" x="1464" y="216" width="120" height="104"/></g><g transform="translate(-38,-54) scale(1,1)"><path fill="none" stroke="#000000" d="M 1464 216 L 1584 216 L 1584 320 L 1464 320 L 1464 216 Z Z" stroke-miterlimit="10"/></g><g transform="translate(-38,-54) scale(1,1)"><path fill="none" stroke="#000000" d="M 1464 241 L 1584 241" stroke-miterlimit="10"/></g><g transform="translate(-38,-54) scale(1,1)"><path fill="none" stroke="#000000" d="M 1464 294 L 1584 294" stroke-miterlimit="10"/></g><g transform="translate(-38,-54) scale(1,1)"><g><path fill="none" stroke="none"/><text fill="#000000" stroke="none" font-family="Arial" font-size="13px" font-style="normal" font-weight="bold" text-decoration="none" x="1485.637939453125" y="235.5">درخواست آزمایش</text></g></g><g transform="translate(-38,-54) scale(1,1)"><g><path fill="none" stroke="none"/><text fill="#000000" stroke="none" font-family="Arial" font-size="13px" font-style="normal" font-weight="normal" text-decoration="none" x="1469" y="258.5">+هزینه</text></g></g><g transform="translate(-38,-54) scale(1,1)"><g><path fill="none" stroke="none"/><text fill="#000000" stroke="none" font-family="Arial" font-size="13px" font-style="normal" font-weight="normal" text-decoration="none" x="1469" y="273.5">+وضعیت</text></g></g><g transform="translate(-38,-54) scale(1,1)"><g><path fill="none" stroke="none"/><text fill="#000000" stroke="none" font-family="Arial" font-size="13px" font-style="normal" font-weight="normal" text-decoration="none" x="1469" y="288.5">+کد رهگیری</text></g></g><g transform="translate(-38,-54) scale(1,1)"><rect fill="#C0C0C0" stroke="none" x="1791" y="223" width="120" height="104" opacity="0.2"/></g><g transform="translate(-38,-54) scale(1,1)"><rect fill="#ebd8ff" stroke="none" x="1784" y="216" width="120" height="104"/></g><g transform="translate(-38,-54) scale(1,1)"><path fill="none" stroke="#000000" d="M 1784 216 L 1904 216 L 1904 320 L 1784 320 L 1784 216 Z Z" stroke-miterlimit="10"/></g><g transform="translate(-38,-54) scale(1,1)"><path fill="none" stroke="#000000" d="M 1784 241 L 1904 241" stroke-miterlimit="10"/></g><g transform="translate(-38,-54) scale(1,1)"><path fill="none" stroke="#000000" d="M 1784 311 L 1904 311" stroke-miterlimit="10"/></g><g transform="translate(-38,-54) scale(1,1)"><g><path fill="none" stroke="none"/><text fill="#000000" stroke="none" font-family="Arial" font-size="13px" font-style="normal" font-weight="bold" text-decoration="none" x="1833.59619140625" y="235.5">بیمار</text></g></g><g transform="translate(-38,-54) scale(1,1)"><g><path fill="none" stroke="none"/><text fill="#000000" stroke="none" font-family="Arial" font-size="13px" font-style="normal" font-weight="normal" text-decoration="none" x="1789" y="260.5">+شماره ملی</text></g></g><g transform="translate(-38,-54) scale(1,1)"><g><path fill="none" stroke="none"/><text fill="#000000" stroke="none" font-family="Arial" font-size="13px" font-style="normal" font-weight="normal" text-decoration="none" x="1789" y="275.5">+شماره همراه</text></g></g><g transform="translate(-38,-54) scale(1,1)"><g><path fill="none" stroke="none"/><text fill="#000000" stroke="none" font-family="Arial" font-size="13px" font-style="normal" font-weight="normal" text-decoration="none" x="1789" y="290.5">+تاریخ تولد</text></g></g><g transform="translate(-38,-54) scale(1,1)"><g><path fill="none" stroke="none"/><text fill="#000000" stroke="none" font-family="Arial" font-size="13px" font-style="normal" font-weight="normal" text-decoration="none" x="1789" y="305.5">+/سن {readOnly}</text></g></g><g transform="translate(-38,-54) scale(1,1)"><rect fill="#C0C0C0" stroke="none" x="1991" y="439" width="128" height="104" opacity="0.2"/></g><g transform="translate(-38,-54) scale(1,1)"><rect fill="#ebd8ff" stroke="none" x="1984" y="432" width="128" height="104"/></g><g transform="translate(-38,-54) scale(1,1)"><path fill="none" stroke="#000000" d="M 1984 432 L 2112 432 L 2112 536 L 1984 536 L 1984 432 Z Z" stroke-miterlimit="10"/></g><g transform="translate(-38,-54) scale(1,1)"><path fill="none" stroke="#000000" d="M 1984 457 L 2112 457" stroke-miterlimit="10"/></g><g transform="translate(-38,-54) scale(1,1)"><path fill="none" stroke="#000000" d="M 1984 480 L 2112 480" stroke-miterlimit="10"/></g><g transform="translate(-38,-54) scale(1,1)"><g><path fill="none" stroke="none"/><text fill="#000000" stroke="none" font-family="Arial" font-size="13px" font-style="normal" font-weight="bold" text-decoration="none" x="2037.08203125" y="451.5">نسخه</text></g></g><g transform="translate(-38,-54) scale(1,1)"><g><path fill="none" stroke="none"/><text fill="#000000" stroke="none" font-family="Arial" font-size="13px" font-style="normal" font-weight="normal" text-decoration="none" x="1989" y="474.5">+وضعیت</text></g></g><g transform="translate(-38,-54) scale(1,1)"><rect fill="#C0C0C0" stroke="none" x="2215" y="439" width="120" height="104" opacity="0.2"/></g><g transform="translate(-38,-54) scale(1,1)"><rect fill="#ebd8ff" stroke="none" x="2208" y="432" width="120" height="104"/></g><g transform="translate(-38,-54) scale(1,1)"><path fill="none" stroke="#000000" d="M 2208 432 L 2328 432 L 2328 536 L 2208 536 L 2208 432 Z Z" stroke-miterlimit="10"/></g><g transform="translate(-38,-54) scale(1,1)"><path fill="none" stroke="#000000" d="M 2208 457 L 2328 457" stroke-miterlimit="10"/></g><g transform="translate(-38,-54) scale(1,1)"><path fill="none" stroke="#000000" d="M 2208 495 L 2328 495" stroke-miterlimit="10"/></g><g transform="translate(-38,-54) scale(1,1)"><g><path fill="none" stroke="none"/><text fill="#000000" stroke="none" font-family="Arial" font-size="13px" font-style="normal" font-weight="bold" text-decoration="none" x="2244.259765625" y="451.5">نسخه خوان</text></g></g><g transform="translate(-38,-54) scale(1,1)"><g><path fill="none" stroke="none"/><text fill="#000000" stroke="none" font-family="Arial" font-size="13px" font-style="normal" font-weight="normal" text-decoration="none" x="2213" y="474.5">-شماره شناسایی</text></g></g><g transform="translate(-38,-54) scale(1,1)"><g><path fill="none" stroke="none"/><text fill="#000000" stroke="none" font-family="Arial" font-size="13px" font-style="normal" font-weight="normal" text-decoration="none" x="2213" y="489.5">-وضعیت</text></g></g><g transform="translate(-38,-54) scale(1,1)"><rect fill="#C0C0C0" stroke="none" x="311" y="759" width="120" height="96" opacity="0.2"/></g><g transform="translate(-38,-54) scale(1,1)"><rect fill="#ebd8ff" stroke="none" x="304" y="752" width="120" height="96"/></g><g transform="translate(-38,-54) scale(1,1)"><path fill="none" stroke="#000000" d="M 304 752 L 424 752 L 424 848 L 304 848 L 304 752 Z Z" stroke-miterlimit="10"/></g><g transform="translate(-38,-54) scale(1,1)"><path fill="none" stroke="#000000" d="M 304 777 L 424 777" stroke-miterlimit="10"/></g><g transform="translate(-38,-54) scale(1,1)"><path fill="none" stroke="#000000" d="M 304 787 L 424 787" stroke-miterlimit="10"/></g><g transform="translate(-38,-54) scale(1,1)"><g><path fill="none" stroke="none"/><text fill="#000000" stroke="none" font-family="Arial" font-size="13px" font-style="normal" font-weight="bold" text-decoration="none" x="322.333984375" y="771.5">گزارش نمونه گیری</text></g></g><g transform="translate(-38,-54) scale(1,1)"><rect fill="#C0C0C0" stroke="none" x="1759" y="511" width="119" height="104" opacity="0.2"/></g><g transform="translate(-38,-54) scale(1,1)"><rect fill="#ebd8ff" stroke="none" x="1752" y="504" width="119" height="104"/></g><g transform="translate(-38,-54) scale(1,1)"><path fill="none" stroke="#000000" d="M 1752 504 L 1871 504 L 1871 608 L 1752 608 L 1752 504 Z Z" stroke-miterlimit="10"/></g><g transform="translate(-38,-54) scale(1,1)"><path fill="none" stroke="#000000" d="M 1752 529 L 1871 529" stroke-miterlimit="10"/></g><g transform="translate(-38,-54) scale(1,1)"><path fill="none" stroke="#000000" d="M 1752 582 L 1871 582" stroke-miterlimit="10"/></g><g transform="translate(-38,-54) scale(1,1)"><g><path fill="none" stroke="none"/><text fill="#000000" stroke="none" font-family="Arial" font-size="13px" font-style="normal" font-weight="bold" text-decoration="none" x="1803.327392578125" y="523.5">بیمه</text></g></g><g transform="translate(-38,-54) scale(1,1)"><g><path fill="none" stroke="none"/><text fill="#000000" stroke="none" font-family="Arial" font-size="13px" font-style="normal" font-weight="normal" text-decoration="none" x="1757" y="546.5">+IID</text></g></g><g transform="translate(-38,-54) scale(1,1)"><g><path fill="none" stroke="none"/><text fill="#000000" stroke="none" font-family="Arial" font-size="13px" font-style="normal" font-weight="normal" text-decoration="none" x="1757" y="561.5">+نام</text></g></g><g transform="translate(-38,-54) scale(1,1)"><g><path fill="none" stroke="none"/><text fill="#000000" stroke="none" font-family="Arial" font-size="13px" font-style="normal" font-weight="normal" text-decoration="none" x="1757" y="576.5">+فرانشیز</text></g></g><g transform="translate(-38,-54) scale(1,1)"><path fill="none" stroke="#000000" d="M 199 329 L 347 751" stroke-miterlimit="10"/></g><g transform="translate(-38,-54) scale(1,1)"><g><path fill="none" stroke="none"/><text fill="#000000" stroke="none" font-family="Arial" font-size="13px" font-style="normal" font-weight="normal" text-decoration="none" x="190.5" y="359.5">1</text></g></g><g transform="translate(-38,-54) scale(1,1)"><g><path fill="none" stroke="none"/><text fill="#000000" stroke="none" font-family="Arial" font-size="13px" font-style="normal" font-weight="normal" text-decoration="none" x="325.220458984375" y="740.5">*</text></g></g><g transform="translate(-38,-54) scale(1,1)"><path fill="none" stroke="#000000" d="M 1577 321 L 1758 503" stroke-miterlimit="10"/></g><g transform="translate(-38,-54) scale(1,1)"><g><path fill="none" stroke="none"/><text fill="#000000" stroke="none" font-family="Arial" font-size="13px" font-style="normal" font-weight="normal" text-decoration="none" x="1580.220458984375" y="351.5">*</text></g></g><g transform="translate(-38,-54) scale(1,1)"><g><path fill="none" stroke="none"/><text fill="#000000" stroke="none" font-family="Arial" font-size="13px" font-style="normal" font-weight="normal" text-decoration="none" x="1723.5" y="502.5">1/0</text></g></g><g transform="translate(-38,-54) scale(1,1)"><path fill="none" stroke="#000000" d="M 2113 484 L 2207 484" stroke-miterlimit="10"/></g><g transform="translate(-38,-54) scale(1,1)"><g><path fill="none" stroke="none"/><text fill="#000000" stroke="none" font-family="Arial" font-size="13px" font-style="normal" font-weight="normal" text-decoration="none" x="2131.220458984375" y="502.5">*</text></g></g><g transform="translate(-38,-54) scale(1,1)"><g><path fill="none" stroke="none"/><text fill="#000000" stroke="none" font-family="Arial" font-size="13px" font-style="normal" font-weight="normal" text-decoration="none" x="2181.5" y="502.5">1</text></g></g><g transform="translate(-38,-54) scale(1,1)"><path fill="none" stroke="#000000" d="M 1585 293 L 1983 457" stroke-miterlimit="10"/></g><g transform="translate(-38,-54) scale(1,1)"><g><path fill="none" stroke="none"/><text fill="#000000" stroke="none" font-family="Arial" font-size="13px" font-style="normal" font-weight="normal" text-decoration="none" x="1596.5" y="318.5">1</text></g></g><g transform="translate(-38,-54) scale(1,1)"><g><path fill="none" stroke="none"/><text fill="#000000" stroke="none" font-family="Arial" font-size="13px" font-style="normal" font-weight="normal" text-decoration="none" x="1948.5" y="466.5">1/0</text></g></g><g transform="translate(-38,-54) scale(1,1)"><rect fill="#C0C0C0" stroke="none" x="767" y="71" width="118.68212890625" height="102" opacity="0.2"/></g><g transform="translate(-38,-54) scale(1,1)"><rect fill="#ebd8ff" stroke="none" x="760" y="64" width="118.68212890625" height="102"/></g><g transform="translate(-38,-54) scale(1,1)"><path fill="none" stroke="#000000" d="M 760 64 L 878.68212890625 64 L 878.68212890625 166 L 760 166 L 760 64 Z Z" stroke-miterlimit="10"/></g><g transform="translate(-38,-54) scale(1,1)"><path fill="none" stroke="#000000" d="M 760 89 L 878.68212890625 89" stroke-miterlimit="10"/></g><g transform="translate(-38,-54) scale(1,1)"><path fill="none" stroke="#000000" d="M 760 157 L 878.68212890625 157" stroke-miterlimit="10"/></g><g transform="translate(-38,-54) scale(1,1)"><g><path fill="none" stroke="none"/><text fill="#000000" stroke="none" font-family="Arial" font-size="13px" font-style="normal" font-weight="bold" text-decoration="none" x="793.271240234375" y="83.5">کاربر سیستم</text></g></g><g transform="translate(-38,-54) scale(1,1)"><g><path fill="none" stroke="none"/><text fill="#000000" stroke="none" font-family="Arial" font-size="13px" font-style="normal" font-weight="normal" text-decoration="none" x="765" y="106.5">-شناسه کاربری</text></g></g><g transform="translate(-38,-54) scale(1,1)"><g><path fill="none" stroke="none"/><text fill="#000000" stroke="none" font-family="Arial" font-size="13px" font-style="normal" font-weight="normal" text-decoration="none" x="765" y="121.5">-رمز عبور</text></g></g><g transform="translate(-38,-54) scale(1,1)"><g><path fill="none" stroke="none"/><text fill="#000000" stroke="none" font-family="Arial" font-size="13px" font-style="normal" font-weight="normal" text-decoration="none" x="765" y="136.5">+نام</text></g></g><g transform="translate(-38,-54) scale(1,1)"><g><path fill="none" stroke="none"/><text fill="#000000" stroke="none" font-family="Arial" font-size="13px" font-style="normal" font-weight="normal" text-decoration="none" x="765" y="151.5">+نام خانوادگی</text></g></g><g transform="translate(-38,-54) scale(1,1)"><path fill="none" stroke="#000000" d="M 241 249 L 544 112 L 759 114" stroke-miterlimit="10"/></g><g transform="translate(-38,-54) scale(1,1)"><path fill="#FFFFFF" stroke="none" d="M 738.5972164159421 122.22960643178604 L 759 114 L 738.7538428582187 105.39226388704337"/></g><g transform="translate(-38,-54) scale(1,1)"><path fill="none" stroke="#000000" d="M 738.5972164159421 122.22960643178604 L 759 114 L 738.7538428582187 105.39226388704337 L 738.5972164159421 122.22960643178604" stroke-miterlimit="10"/></g><g transform="translate(-38,-54) scale(1,1)"><path fill="none" stroke="#000000" d="M 1844 216 L 1844 112 L 879 112" stroke-miterlimit="10"/></g><g transform="translate(-38,-54) scale(1,1)"><path fill="#FFFFFF" stroke="none" d="M 899.3253497152483 103.58096448796803 L 879 112 L 899.3253497152483 120.41903551203197"/></g><g transform="translate(-38,-54) scale(1,1)"><path fill="none" stroke="#000000" d="M 899.3253497152483 103.58096448796803 L 879 112 L 899.3253497152483 120.41903551203197 L 899.3253497152483 103.58096448796803" stroke-miterlimit="10"/></g><g transform="translate(-38,-54) scale(1,1)"><path fill="none" stroke="#000000" d="M 2264 432 L 2264 97 L 879 97" stroke-miterlimit="10"/></g><g transform="translate(-38,-54) scale(1,1)"><path fill="#FFFFFF" stroke="none" d="M 899.3253497152483 88.58096448796803 L 879 97 L 899.3253497152483 105.41903551203197"/></g><g transform="translate(-38,-54) scale(1,1)"><path fill="none" stroke="#000000" d="M 899.3253497152483 88.58096448796803 L 879 97 L 899.3253497152483 105.41903551203197 L 899.3253497152483 88.58096448796803" stroke-miterlimit="10"/></g><g transform="translate(-38,-54) scale(1,1)"><rect fill="#C0C0C0" stroke="none" x="927" y="919" width="120" height="96" opacity="0.2"/></g><g transform="translate(-38,-54) scale(1,1)"><rect fill="#ebd8ff" stroke="none" x="920" y="912" width="120" height="96"/></g><g transform="translate(-38,-54) scale(1,1)"><path fill="none" stroke="#000000" d="M 920 912 L 1040 912 L 1040 1008 L 920 1008 L 920 912 Z Z" stroke-miterlimit="10"/></g><g transform="translate(-38,-54) scale(1,1)"><path fill="none" stroke="#000000" d="M 920 937 L 1040 937" stroke-miterlimit="10"/></g><g transform="translate(-38,-54) scale(1,1)"><path fill="none" stroke="#000000" d="M 920 947 L 1040 947" stroke-miterlimit="10"/></g><g transform="translate(-38,-54) scale(1,1)"><g><path fill="none" stroke="none"/><text fill="#000000" stroke="none" font-family="Arial" font-size="13px" font-style="normal" font-weight="bold" text-decoration="none" x="930.123291015625" y="931.5">برنامه نمونه گیری روز</text></g></g><g transform="translate(-38,-54) scale(1,1)"><path fill="none" stroke="#000000" d="M 184 328 L 184 976 L 920 976" stroke-miterlimit="10"/></g><g transform="translate(-38,-54) scale(1,1)"><g><path fill="none" stroke="none"/><text fill="#000000" stroke="none" font-family="Arial" font-size="13px" font-style="normal" font-weight="normal" text-decoration="none" x="167.5" y="355.5">1</text></g></g><g transform="translate(-38,-54) scale(1,1)"><g><path fill="none" stroke="none"/><text fill="#000000" stroke="none" font-family="Arial" font-size="13px" font-style="normal" font-weight="normal" text-decoration="none" x="894.5" y="994.5">1</text></g></g><g transform="translate(-38,-54) scale(1,1)"><rect fill="#C0C0C0" stroke="none" x="1239" y="1191" width="120" height="88" opacity="0.2"/></g><g transform="translate(-38,-54) scale(1,1)"><rect fill="#ebd8ff" stroke="none" x="1232" y="1184" width="120" height="88"/></g><g transform="translate(-38,-54) scale(1,1)"><path fill="none" stroke="#000000" d="M 1232 1184 L 1352 1184 L 1352 1272 L 1232 1272 L 1232 1184 Z Z" stroke-miterlimit="10"/></g><g transform="translate(-38,-54) scale(1,1)"><path fill="none" stroke="#000000" d="M 1232 1209 L 1352 1209" stroke-miterlimit="10"/></g><g transform="translate(-38,-54) scale(1,1)"><path fill="none" stroke="#000000" d="M 1232 1219 L 1352 1219" stroke-miterlimit="10"/></g><g transform="translate(-38,-54) scale(1,1)"><g><path fill="none" stroke="none"/><text fill="#000000" stroke="none" font-family="Arial" font-size="13px" font-style="normal" font-weight="bold" text-decoration="none" x="1257.148193359375" y="1203.5">کیت نمونه گیری</text></g></g><g transform="translate(-38,-54) scale(1,1)"><path fill="none" stroke="#000000" d="M 120 276 L 48 276 L 48 1228 L 1232 1228" stroke-miterlimit="10"/></g><g transform="translate(-38,-54) scale(1,1)"><g><path fill="none" stroke="none"/><text fill="#000000" stroke="none" font-family="Arial" font-size="13px" font-style="normal" font-weight="normal" text-decoration="none" x="94.5" y="269.5">1</text></g></g><g transform="translate(-38,-54) scale(1,1)"><g><path fill="none" stroke="none"/><text fill="#000000" stroke="none" font-family="Arial" font-size="13px" font-style="normal" font-weight="normal" text-decoration="none" x="1207.197265625" y="1246.5">*</text></g></g><g transform="translate(-38,-54) scale(1,1)"><path fill="none" stroke="#000000" d="M 1585 268 L 1783 268" stroke-miterlimit="10"/></g><g transform="translate(-38,-54) scale(1,1)"><g><path fill="none" stroke="none"/><text fill="#000000" stroke="none" font-family="Arial" font-size="13px" font-style="normal" font-weight="normal" text-decoration="none" x="1603.220458984375" y="286.5">*</text></g></g><g transform="translate(-38,-54) scale(1,1)"><g><path fill="none" stroke="none"/><text fill="#000000" stroke="none" font-family="Arial" font-size="13px" font-style="normal" font-weight="normal" text-decoration="none" x="1757.5" y="286.5">1</text></g></g><g transform="translate(-38,-54) scale(1,1)"><rect fill="#C0C0C0" stroke="none" x="1047" y="223" width="120" height="104" opacity="0.2"/></g><g transform="translate(-38,-54) scale(1,1)"><rect fill="#ebd8ff" stroke="none" x="1040" y="216" width="120" height="104"/></g><g transform="translate(-38,-54) scale(1,1)"><path fill="none" stroke="#000000" d="M 1040 216 L 1160 216 L 1160 320 L 1040 320 L 1040 216 Z Z" stroke-miterlimit="10"/></g><g transform="translate(-38,-54) scale(1,1)"><path fill="none" stroke="#000000" d="M 1040 241 L 1160 241" stroke-miterlimit="10"/></g><g transform="translate(-38,-54) scale(1,1)"><path fill="none" stroke="#000000" d="M 1040 251 L 1160 251" stroke-miterlimit="10"/></g><g transform="translate(-38,-54) scale(1,1)"><g><path fill="none" stroke="none"/><text fill="#000000" stroke="none" font-family="Arial" font-size="13px" font-style="normal" font-weight="bold" text-decoration="none" x="1075.7392578125" y="235.5">نمونه گیری</text></g></g><g transform="translate(-38,-54) scale(1,1)"><path fill="none" stroke="#000000" d="M 1161 268 L 1463 268" stroke-miterlimit="10"/></g><g transform="translate(-38,-54) scale(1,1)"><g><path fill="none" stroke="none"/><text fill="#000000" stroke="none" font-family="Arial" font-size="13px" font-style="normal" font-weight="normal" text-decoration="none" x="1178.11181640625" y="286.5">1</text></g></g><g transform="translate(-38,-54) scale(1,1)"><g><path fill="none" stroke="none"/><text fill="#000000" stroke="none" font-family="Arial" font-size="13px" font-style="normal" font-weight="normal" text-decoration="none" x="1437.5" y="286.5">1</text></g></g><g transform="translate(-38,-54) scale(1,1)"><rect fill="#C0C0C0" stroke="none" x="1335" y="671" width="128" height="104" opacity="0.2"/></g><g transform="translate(-38,-54) scale(1,1)"><rect fill="#ebd8ff" stroke="none" x="1328" y="664" width="128" height="104"/></g><g transform="translate(-38,-54) scale(1,1)"><path fill="none" stroke="#000000" d="M 1328 664 L 1456 664 L 1456 768 L 1328 768 L 1328 664 Z Z" stroke-miterlimit="10"/></g><g transform="translate(-38,-54) scale(1,1)"><path fill="none" stroke="#000000" d="M 1328 689 L 1456 689" stroke-miterlimit="10"/></g><g transform="translate(-38,-54) scale(1,1)"><path fill="none" stroke="#000000" d="M 1328 727 L 1456 727" stroke-miterlimit="10"/></g><g transform="translate(-38,-54) scale(1,1)"><g><path fill="none" stroke="none"/><text fill="#000000" stroke="none" font-family="Arial" font-size="13px" font-style="normal" font-weight="bold" text-decoration="none" x="1381.38037109375" y="683.5">نوبت</text></g></g><g transform="translate(-38,-54) scale(1,1)"><g><path fill="none" stroke="none"/><text fill="#000000" stroke="none" font-family="Arial" font-size="13px" font-style="normal" font-weight="normal" text-decoration="none" x="1333" y="706.5">+ساعت</text></g></g><g transform="translate(-38,-54) scale(1,1)"><g><path fill="none" stroke="none"/><text fill="#000000" stroke="none" font-family="Arial" font-size="13px" font-style="normal" font-weight="normal" text-decoration="none" x="1333" y="721.5">+تاریخ</text></g></g><g transform="translate(-38,-54) scale(1,1)"><path fill="none" stroke="#000000" d="M 1508 321 L 1408 663" stroke-miterlimit="10"/></g><g transform="translate(-38,-54) scale(1,1)"><g><path fill="none" stroke="none"/><text fill="#000000" stroke="none" font-family="Arial" font-size="13px" font-style="normal" font-weight="normal" text-decoration="none" x="1485.5" y="344.5">1</text></g></g><g transform="translate(-38,-54) scale(1,1)"><g><path fill="none" stroke="none"/><text fill="#000000" stroke="none" font-family="Arial" font-size="13px" font-style="normal" font-weight="normal" text-decoration="none" x="1398.5" y="644.5">1</text></g></g><g transform="translate(-38,-54) scale(1,1)"><path fill="none" stroke="#000000" d="M 241 275 L 1039 269" stroke-miterlimit="10"/></g><g transform="translate(-38,-54) scale(1,1)"><g><path fill="none" stroke="none"/><text fill="#000000" stroke="none" font-family="Arial" font-size="13px" font-style="normal" font-weight="normal" text-decoration="none" x="258.5" y="293.5">1</text></g></g><g transform="translate(-38,-54) scale(1,1)"><g><path fill="none" stroke="none"/><text fill="#000000" stroke="none" font-family="Arial" font-size="13px" font-style="normal" font-weight="normal" text-decoration="none" x="1014.220458984375" y="287.5">*</text></g></g><g transform="translate(-38,-54) scale(1,1)"><path fill="none" stroke="#000000" d="M 1091 321 L 988 911" stroke-miterlimit="10"/></g><g transform="translate(-38,-54) scale(1,1)"><path fill="#FFFFFF" stroke="none" d="M 985.6009278573459 900.2648030826472 L 988 911 L 993.8945303570067 901.7126692817405 L 991.7834567076633 889.3277722570743"/></g><g transform="translate(-38,-54) scale(1,1)"><path fill="none" stroke="#000000" d="M 985.6009278573459 900.2648030826472 L 988 911 L 993.8945303570067 901.7126692817405 L 991.7834567076633 889.3277722570743 L 985.6009278573459 900.2648030826472" stroke-miterlimit="10"/></g><g transform="translate(-38,-54) scale(1,1)"><g><path fill="none" stroke="none"/><text fill="#000000" stroke="none" font-family="Arial" font-size="13px" font-style="normal" font-weight="normal" text-decoration="none" x="1071.197265625" y="346.5">*</text></g></g><g transform="translate(-38,-54) scale(1,1)"><path fill="none" stroke="#000000" d="M 232 329 L 388 487" stroke-miterlimit="10"/></g><g transform="translate(-38,-54) scale(1,1)"><g><path fill="none" stroke="none"/><text fill="#000000" stroke="none" font-family="Arial" font-size="13px" font-style="normal" font-weight="normal" text-decoration="none" x="234.5" y="359.5">1</text></g></g><g transform="translate(-38,-54) scale(1,1)"><g><path fill="none" stroke="none"/><text fill="#000000" stroke="none" font-family="Arial" font-size="13px" font-style="normal" font-weight="normal" text-decoration="none" x="360.220458984375" y="486.5">*</text></g></g><g transform="translate(-38,-54) scale(1,1)"><path fill="none" stroke="#000000" d="M 1111 321 L 1283 1183" stroke-miterlimit="10"/></g><g transform="translate(-38,-54) scale(1,1)"><g><path fill="none" stroke="none"/><text fill="#000000" stroke="none" font-family="Arial" font-size="13px" font-style="normal" font-weight="normal" text-decoration="none" x="1098.5" y="350.5">1</text></g></g><g transform="translate(-38,-54) scale(1,1)"><g><path fill="none" stroke="none"/><text fill="#000000" stroke="none" font-family="Arial" font-size="13px" font-style="normal" font-weight="normal" text-decoration="none" x="1262.11181640625" y="1170.5">1</text></g></g><g transform="translate(-38,-54) scale(1,1)"><rect fill="#C0C0C0" stroke="none" x="1799" y="791" width="128" height="104" opacity="0.2"/></g><g transform="translate(-38,-54) scale(1,1)"><rect fill="#ebd8ff" stroke="none" x="1792" y="784" width="128" height="104"/></g><g transform="translate(-38,-54) scale(1,1)"><path fill="none" stroke="#000000" d="M 1792 784 L 1920 784 L 1920 888 L 1792 888 L 1792 784 Z Z" stroke-miterlimit="10"/></g><g transform="translate(-38,-54) scale(1,1)"><path fill="none" stroke="#000000" d="M 1792 809 L 1920 809" stroke-miterlimit="10"/></g><g transform="translate(-38,-54) scale(1,1)"><path fill="none" stroke="#000000" d="M 1792 832 L 1920 832" stroke-miterlimit="10"/></g><g transform="translate(-38,-54) scale(1,1)"><g><path fill="none" stroke="none"/><text fill="#000000" stroke="none" font-family="Arial" font-size="13px" font-style="normal" font-weight="bold" text-decoration="none" x="1835.716064453125" y="803.5">آزمایشگاه</text></g></g><g transform="translate(-38,-54) scale(1,1)"><g><path fill="none" stroke="none"/><text fill="#000000" stroke="none" font-family="Arial" font-size="13px" font-style="normal" font-weight="normal" text-decoration="none" x="1797" y="826.5">+نام</text></g></g><g transform="translate(-38,-54) scale(1,1)"><path fill="none" stroke="#000000" d="M 1555 321 L 1825 783" stroke-miterlimit="10"/></g><g transform="translate(-38,-54) scale(1,1)"><g><path fill="none" stroke="none"/><text fill="#000000" stroke="none" font-family="Arial" font-size="13px" font-style="normal" font-weight="normal" text-decoration="none" x="1552.220458984375" y="351.5">*</text></g></g><g transform="translate(-38,-54) scale(1,1)"><g><path fill="none" stroke="none"/><text fill="#000000" stroke="none" font-family="Arial" font-size="13px" font-style="normal" font-weight="normal" text-decoration="none" x="1799.5" y="776.5">1</text></g></g><g transform="translate(-38,-54) scale(1,1)"><path fill="none" stroke="#000000" d="M 1353 1186 L 1791 881" stroke-miterlimit="10"/></g><g transform="translate(-38,-54) scale(1,1)"><g><path fill="none" stroke="none"/><text fill="#000000" stroke="none" font-family="Arial" font-size="13px" font-style="normal" font-weight="normal" text-decoration="none" x="1374.220458984375" y="1189.5">*</text></g></g><g transform="translate(-38,-54) scale(1,1)"><g><path fill="none" stroke="none"/><text fill="#000000" stroke="none" font-family="Arial" font-size="13px" font-style="normal" font-weight="normal" text-decoration="none" x="1776.5" y="909.5">1</text></g></g><g transform="translate(-38,-54) scale(1,1)"><rect fill="#C0C0C0" stroke="none" x="1359" y="919" width="120" height="104" opacity="0.2"/></g><g transform="translate(-38,-54) scale(1,1)"><rect fill="#ebd8ff" stroke="none" x="1352" y="912" width="120" height="104"/></g><g transform="translate(-38,-54) scale(1,1)"><path fill="none" stroke="#000000" d="M 1352 912 L 1472 912 L 1472 1016 L 1352 1016 L 1352 912 Z Z" stroke-miterlimit="10"/></g><g transform="translate(-38,-54) scale(1,1)"><path fill="none" stroke="#000000" d="M 1352 937 L 1472 937" stroke-miterlimit="10"/></g><g transform="translate(-38,-54) scale(1,1)"><path fill="none" stroke="#000000" d="M 1352 947 L 1472 947" stroke-miterlimit="10"/></g><g transform="translate(-38,-54) scale(1,1)"><g><path fill="none" stroke="none"/><text fill="#000000" stroke="none" font-family="Arial" font-size="13px" font-style="normal" font-weight="bold" text-decoration="none" x="1384.05126953125" y="931.5">نتیجه آزمایش</text></g></g><g transform="translate(-38,-54) scale(1,1)"><rect fill="#C0C0C0" stroke="none" x="1239" y="423" width="128" height="104" opacity="0.2"/></g><g transform="translate(-38,-54) scale(1,1)"><rect fill="#ebd8ff" stroke="none" x="1232" y="416" width="128" height="104"/></g><g transform="translate(-38,-54) scale(1,1)"><path fill="none" stroke="#000000" d="M 1232 416 L 1360 416 L 1360 520 L 1232 520 L 1232 416 Z Z" stroke-miterlimit="10"/></g><g transform="translate(-38,-54) scale(1,1)"><path fill="none" stroke="#000000" d="M 1232 441 L 1360 441" stroke-miterlimit="10"/></g><g transform="translate(-38,-54) scale(1,1)"><path fill="none" stroke="#000000" d="M 1232 479 L 1360 479" stroke-miterlimit="10"/></g><g transform="translate(-38,-54) scale(1,1)"><g><path fill="none" stroke="none"/><text fill="#000000" stroke="none" font-family="Arial" font-size="13px" font-style="normal" font-weight="bold" text-decoration="none" x="1285.18359375" y="435.5">مکان</text></g></g><g transform="translate(-38,-54) scale(1,1)"><g><path fill="none" stroke="none"/><text fill="#000000" stroke="none" font-family="Arial" font-size="13px" font-style="normal" font-weight="normal" text-decoration="none" x="1237" y="458.5">+آدرس</text></g></g><g transform="translate(-38,-54) scale(1,1)"><g><path fill="none" stroke="none"/><text fill="#000000" stroke="none" font-family="Arial" font-size="13px" font-style="normal" font-weight="normal" text-decoration="none" x="1237" y="473.5">+GPS</text></g></g><g transform="translate(-38,-54) scale(1,1)"><path fill="none" stroke="#000000" d="M 241 298 L 1327 692" stroke-miterlimit="10"/></g><g transform="translate(-38,-54) scale(1,1)"><g><path fill="none" stroke="none"/><text fill="#000000" stroke="none" font-family="Arial" font-size="13px" font-style="normal" font-weight="normal" text-decoration="none" x="253.5" y="323.5">1</text></g></g><g transform="translate(-38,-54) scale(1,1)"><g><path fill="none" stroke="none"/><text fill="#000000" stroke="none" font-family="Arial" font-size="13px" font-style="normal" font-weight="normal" text-decoration="none" x="1299.220458984375" y="702.5">*</text></g></g><g transform="translate(-38,-54) scale(1,1)"><path fill="none" stroke="#000000" d="M 425 756 L 1039 312" stroke-miterlimit="10"/></g><g transform="translate(-38,-54) scale(1,1)"><g><path fill="none" stroke="none"/><text fill="#000000" stroke="none" font-family="Arial" font-size="13px" font-style="normal" font-weight="normal" text-decoration="none" x="445.5" y="759.5">1</text></g></g><g transform="translate(-38,-54) scale(1,1)"><g><path fill="none" stroke="none"/><text fill="#000000" stroke="none" font-family="Arial" font-size="13px" font-style="normal" font-weight="normal" text-decoration="none" x="1024.5" y="340.5">1</text></g></g><g transform="translate(-38,-54) scale(1,1)"><rect fill="#C0C0C0" stroke="none" x="607" y="759" width="128" height="96" opacity="0.2"/></g><g transform="translate(-38,-54) scale(1,1)"><rect fill="#ebd8ff" stroke="none" x="600" y="752" width="128" height="96"/></g><g transform="translate(-38,-54) scale(1,1)"><path fill="none" stroke="#000000" d="M 600 752 L 728 752 L 728 848 L 600 848 L 600 752 Z Z" stroke-miterlimit="10"/></g><g transform="translate(-38,-54) scale(1,1)"><path fill="none" stroke="#000000" d="M 600 777 L 728 777" stroke-miterlimit="10"/></g><g transform="translate(-38,-54) scale(1,1)"><path fill="none" stroke="#000000" d="M 600 800 L 728 800" stroke-miterlimit="10"/></g><g transform="translate(-38,-54) scale(1,1)"><g><path fill="none" stroke="none"/><text fill="#000000" stroke="none" font-family="Arial" font-size="13px" font-style="normal" font-weight="bold" text-decoration="none" x="637.90478515625" y="771.5">رسید پذیرش</text></g></g><g transform="translate(-38,-54) scale(1,1)"><g><path fill="none" stroke="none"/><text fill="#000000" stroke="none" font-family="Arial" font-size="13px" font-style="normal" font-weight="normal" text-decoration="none" x="605" y="794.5">+شماره پذیرش</text></g></g><g transform="translate(-38,-54) scale(1,1)"><path fill="none" stroke="#000000" d="M 704 751 L 1057 321" stroke-miterlimit="10"/></g><g transform="translate(-38,-54) scale(1,1)"><g><path fill="none" stroke="none"/><text fill="#000000" stroke="none" font-family="Arial" font-size="13px" font-style="normal" font-weight="normal" text-decoration="none" x="723.5" y="748.5">1</text></g></g><g transform="translate(-38,-54) scale(1,1)"><g><path fill="none" stroke="none"/><text fill="#000000" stroke="none" font-family="Arial" font-size="13px" font-style="normal" font-weight="normal" text-decoration="none" x="1048.5" y="351.5">1</text></g></g><g transform="translate(-38,-54) scale(1,1)"><path fill="none" stroke="#000000" d="M 1152 321 L 1244 415" stroke-miterlimit="10"/></g><g transform="translate(-38,-54) scale(1,1)"><g><path fill="none" stroke="none"/><text fill="#000000" stroke="none" font-family="Arial" font-size="13px" font-style="normal" font-weight="normal" text-decoration="none" x="1155.220458984375" y="351.5">*</text></g></g><g transform="translate(-38,-54) scale(1,1)"><g><path fill="none" stroke="none"/><text fill="#000000" stroke="none" font-family="Arial" font-size="13px" font-style="normal" font-weight="normal" text-decoration="none" x="1215.5" y="414.5">1</text></g></g><g transform="translate(-38,-54) scale(1,1)"><path fill="none" stroke="#000000" d="M 1791 793 L 1361 511" stroke-miterlimit="10"/></g><g transform="translate(-38,-54) scale(1,1)"><path fill="#FFFFFF" stroke="none" d="M 1382.613377037653 515.1063284121284 L 1361 511 L 1373.379352801671 529.186578133661"/></g><g transform="translate(-38,-54) scale(1,1)"><path fill="none" stroke="#000000" d="M 1382.613377037653 515.1063284121284 L 1361 511 L 1373.379352801671 529.186578133661 L 1382.613377037653 515.1063284121284" stroke-miterlimit="10"/></g><g transform="translate(-38,-54) scale(1,1)"><path fill="none" stroke="#000000" d="M 729 802 L 1791 834" stroke-miterlimit="10"/></g><g transform="translate(-38,-54) scale(1,1)"><g><path fill="none" stroke="none"/><text fill="#000000" stroke="none" font-family="Arial" font-size="13px" font-style="normal" font-weight="normal" text-decoration="none" x="747.220458984375" y="821.5">*</text></g></g><g transform="translate(-38,-54) scale(1,1)"><g><path fill="none" stroke="none"/><text fill="#000000" stroke="none" font-family="Arial" font-size="13px" font-style="normal" font-weight="normal" text-decoration="none" x="1764.5" y="851.5">1</text></g></g><g transform="translate(-38,-54) scale(1,1)"><path fill="none" stroke="#000000" d="M 729 814 L 1351 951" stroke-miterlimit="10"/></g><g transform="translate(-38,-54) scale(1,1)"><g><path fill="none" stroke="none"/><text fill="#000000" stroke="none" font-family="Arial" font-size="13px" font-style="normal" font-weight="normal" text-decoration="none" x="743.5" y="836.5">1</text></g></g><g transform="translate(-38,-54) scale(1,1)"><g><path fill="none" stroke="none"/><text fill="#000000" stroke="none" font-family="Arial" font-size="13px" font-style="normal" font-weight="normal" text-decoration="none" x="1323.5" y="964.5">1</text></g></g><g transform="translate(-38,-54) scale(1,1)"><path fill="none" stroke="#000000" d="M 1445 911 L 1811 321" stroke-miterlimit="10"/></g><g transform="translate(-38,-54) scale(1,1)"><g><path fill="none" stroke="none"/><text fill="#000000" stroke="none" font-family="Arial" font-size="13px" font-style="normal" font-weight="normal" text-decoration="none" x="1464.58544921875" y="905.5">*</text></g></g><g transform="translate(-38,-54) scale(1,1)"><g><path fill="none" stroke="none"/><text fill="#000000" stroke="none" font-family="Arial" font-size="13px" font-style="normal" font-weight="normal" text-decoration="none" x="1806.5" y="351.5">1</text></g></g><g transform="translate(-38,-54) scale(1,1)"><path fill="none" stroke="#000000" d="M 1820 609 L 1847 783" stroke-miterlimit="10"/></g><g transform="translate(-38,-54) scale(1,1)"><g><path fill="none" stroke="none"/><text fill="#000000" stroke="none" font-family="Arial" font-size="13px" font-style="normal" font-weight="normal" text-decoration="none" x="1807.220458984375" y="638.5">*</text></g></g><g transform="translate(-38,-54) scale(1,1)"><g><path fill="none" stroke="none"/><text fill="#000000" stroke="none" font-family="Arial" font-size="13px" font-style="normal" font-weight="normal" text-decoration="none" x="1828.220458984375" y="769.5">*</text></g></g><g transform="translate(-38,-54) scale(1,1)"><rect fill="#C0C0C0" stroke="none" x="711" y="359" width="112" height="104" opacity="0.2"/></g><g transform="translate(-38,-54) scale(1,1)"><rect fill="#ebd8ff" stroke="none" x="704" y="352" width="112" height="104"/></g><g transform="translate(-38,-54) scale(1,1)"><path fill="none" stroke="#000000" d="M 704 352 L 816 352 L 816 456 L 704 456 L 704 352 Z Z" stroke-miterlimit="10"/></g><g transform="translate(-38,-54) scale(1,1)"><path fill="none" stroke="#000000" d="M 704 377 L 816 377" stroke-miterlimit="10"/></g><g transform="translate(-38,-54) scale(1,1)"><path fill="none" stroke="#000000" d="M 704 415 L 816 415" stroke-miterlimit="10"/></g><g transform="translate(-38,-54) scale(1,1)"><g><path fill="none" stroke="none"/><text fill="#000000" stroke="none" font-family="Arial" font-size="13px" font-style="normal" font-weight="bold" text-decoration="none" x="744.4990234375" y="371.5">آزمایش</text></g></g><g transform="translate(-38,-54) scale(1,1)"><g><path fill="none" stroke="none"/><text fill="#000000" stroke="none" font-family="Arial" font-size="13px" font-style="normal" font-weight="normal" text-decoration="none" x="709" y="394.5">+نوع آزمایش</text></g></g><g transform="translate(-38,-54) scale(1,1)"><g><path fill="none" stroke="none"/><text fill="#000000" stroke="none" font-family="Arial" font-size="13px" font-style="normal" font-weight="normal" text-decoration="none" x="709" y="409.5">+هزینه پایه</text></g></g><g transform="translate(-38,-54) scale(1,1)"><path fill="none" stroke="#000000" d="M 1039 292 L 817 381" stroke-miterlimit="10"/></g><g transform="translate(-38,-54) scale(1,1)"><g><path fill="none" stroke="none"/><text fill="#000000" stroke="none" font-family="Arial" font-size="13px" font-style="normal" font-weight="normal" text-decoration="none" x="1010.5" y="294.5">1</text></g></g><g transform="translate(-38,-54) scale(1,1)"><g><path fill="none" stroke="none"/><text fill="#000000" stroke="none" font-family="Arial" font-size="13px" font-style="normal" font-weight="normal" text-decoration="none" x="824.5" y="367.5">1..</text></g></g><g transform="translate(-38,-54) scale(1,1)"><path fill="none" stroke="#000000" d="M 703 428 L 497 516" stroke-miterlimit="10"/></g><g transform="translate(-38,-54) scale(1,1)"><g><path fill="none" stroke="none"/><text fill="#000000" stroke="none" font-family="Arial" font-size="13px" font-style="normal" font-weight="normal" text-decoration="none" x="674.5" y="431.5">1</text></g></g><g transform="translate(-38,-54) scale(1,1)"><g><path fill="none" stroke="none"/><text fill="#000000" stroke="none" font-family="Arial" font-size="13px" font-style="normal" font-weight="normal" text-decoration="none" x="507.5" y="501.5">1</text></g></g></g></svg>