<svg version="1.1" xmlns="http://www.w3.org/2000/svg" xmlns:xlink="http://www.w3.org/1999/xlink" width="2324.9326171875" height="1180"><defs/><g><g transform="translate(-110,-294) scale(1,1)"><rect fill="#C0C0C0" stroke="none" x="127" y="471" width="130.25927734375" height="104" opacity="0.2"/></g><g transform="translate(-110,-294) scale(1,1)"><rect fill="#ebd8ff" stroke="none" x="120" y="464" width="130.25927734375" height="104"/></g><g transform="translate(-110,-294) scale(1,1)"><path fill="none" stroke="#000000" d="M 120 464 L 250.25927734375 464 L 250.25927734375 568 L 120 568 L 120 464 Z Z" stroke-miterlimit="10"/></g><g transform="translate(-110,-294) scale(1,1)"><path fill="none" stroke="#000000" d="M 120 489 L 250.25927734375 489" stroke-miterlimit="10"/></g><g transform="translate(-110,-294) scale(1,1)"><path fill="none" stroke="#000000" d="M 120 512 L 250.25927734375 512" stroke-miterlimit="10"/></g><g transform="translate(-110,-294) scale(1,1)"><g><path fill="none" stroke="none"/><text fill="#000000" stroke="none" font-family="Arial" font-size="13px" font-style="normal" font-weight="bold" text-decoration="none" x="147.5546875" y="483.5">Phlebotomist</text></g></g><g transform="translate(-110,-294) scale(1,1)"><g><path fill="none" stroke="none"/><text fill="#000000" stroke="none" font-family="Arial" font-size="13px" font-style="normal" font-weight="normal" text-decoration="none" x="125" y="506.5">+ID</text></g></g><g transform="translate(-110,-294) scale(1,1)"><rect fill="#C0C0C0" stroke="none" x="391" y="735" width="112" height="104" opacity="0.2"/></g><g transform="translate(-110,-294) scale(1,1)"><rect fill="#ebd8ff" stroke="none" x="384" y="728" width="112" height="104"/></g><g transform="translate(-110,-294) scale(1,1)"><path fill="none" stroke="#000000" d="M 384 728 L 496 728 L 496 832 L 384 832 L 384 728 Z Z" stroke-miterlimit="10"/></g><g transform="translate(-110,-294) scale(1,1)"><path fill="none" stroke="#000000" d="M 384 753 L 496 753" stroke-miterlimit="10"/></g><g transform="translate(-110,-294) scale(1,1)"><path fill="none" stroke="#000000" d="M 384 776 L 496 776" stroke-miterlimit="10"/></g><g transform="translate(-110,-294) scale(1,1)"><g><path fill="none" stroke="none"/><text fill="#000000" stroke="none" font-family="Arial" font-size="13px" font-style="normal" font-weight="bold" text-decoration="none" x="417.9609375" y="747.5">Sample</text></g></g><g transform="translate(-110,-294) scale(1,1)"><g><path fill="none" stroke="none"/><text fill="#000000" stroke="none" font-family="Arial" font-size="13px" font-style="normal" font-weight="normal" text-decoration="none" x="389" y="770.5">+type</text></g></g><g transform="translate(-110,-294) scale(1,1)"><rect fill="#C0C0C0" stroke="none" x="1471" y="463" width="120" height="120" opacity="0.2"/></g><g transform="translate(-110,-294) scale(1,1)"><rect fill="#ebd8ff" stroke="none" x="1464" y="456" width="120" height="120"/></g><g transform="translate(-110,-294) scale(1,1)"><path fill="none" stroke="#000000" d="M 1464 456 L 1584 456 L 1584 576 L 1464 576 L 1464 456 Z Z" stroke-miterlimit="10"/></g><g transform="translate(-110,-294) scale(1,1)"><path fill="none" stroke="#000000" d="M 1464 481 L 1584 481" stroke-miterlimit="10"/></g><g transform="translate(-110,-294) scale(1,1)"><path fill="none" stroke="#000000" d="M 1464 519 L 1584 519" stroke-miterlimit="10"/></g><g transform="translate(-110,-294) scale(1,1)"><g><path fill="none" stroke="none"/><text fill="#000000" stroke="none" font-family="Arial" font-size="13px" font-style="normal" font-weight="bold" text-decoration="none" x="1487.869140625" y="475.5">TestRequest</text></g></g><g transform="translate(-110,-294) scale(1,1)"><g><path fill="none" stroke="none"/><text fill="#000000" stroke="none" font-family="Arial" font-size="13px" font-style="normal" font-weight="normal" text-decoration="none" x="1469" y="498.5">+/totalPrice</text></g></g><g transform="translate(-110,-294) scale(1,1)"><g><path fill="none" stroke="none"/><text fill="#000000" stroke="none" font-family="Arial" font-size="13px" font-style="normal" font-weight="normal" text-decoration="none" x="1469" y="513.5">+ID</text></g></g><g transform="translate(-110,-294) scale(1,1)"><rect fill="#C0C0C0" stroke="none" x="1799" y="455" width="120" height="119" opacity="0.2"/></g><g transform="translate(-110,-294) scale(1,1)"><rect fill="#ebd8ff" stroke="none" x="1792" y="448" width="120" height="119"/></g><g transform="translate(-110,-294) scale(1,1)"><path fill="none" stroke="#000000" d="M 1792 448 L 1912 448 L 1912 567 L 1792 567 L 1792 448 Z Z" stroke-miterlimit="10"/></g><g transform="translate(-110,-294) scale(1,1)"><path fill="none" stroke="#000000" d="M 1792 473 L 1912 473" stroke-miterlimit="10"/></g><g transform="translate(-110,-294) scale(1,1)"><path fill="none" stroke="#000000" d="M 1792 528 L 1912 528" stroke-miterlimit="10"/></g><g transform="translate(-110,-294) scale(1,1)"><g><path fill="none" stroke="none"/><text fill="#000000" stroke="none" font-family="Arial" font-size="13px" font-style="normal" font-weight="bold" text-decoration="none" x="1831.763671875" y="467.5">Patient</text></g></g><g transform="translate(-110,-294) scale(1,1)"><g><path fill="none" stroke="none"/><text fill="#000000" stroke="none" font-family="Arial" font-size="13px" font-style="normal" font-weight="normal" text-decoration="none" x="1797" y="492.5">+NID</text></g></g><g transform="translate(-110,-294) scale(1,1)"><g><path fill="none" stroke="none"/><text fill="#000000" stroke="none" font-family="Arial" font-size="13px" font-style="normal" font-weight="normal" text-decoration="none" x="1797" y="507.5">+age</text></g></g><g transform="translate(-110,-294) scale(1,1)"><g><path fill="none" stroke="none"/><text fill="#000000" stroke="none" font-family="Arial" font-size="13px" font-style="normal" font-weight="normal" text-decoration="none" x="1797" y="522.5">+diseases</text></g></g><g transform="translate(-110,-294) scale(1,1)"><rect fill="#C0C0C0" stroke="none" x="1983" y="679" width="128" height="104" opacity="0.2"/></g><g transform="translate(-110,-294) scale(1,1)"><rect fill="#ebd8ff" stroke="none" x="1976" y="672" width="128" height="104"/></g><g transform="translate(-110,-294) scale(1,1)"><path fill="none" stroke="#000000" d="M 1976 672 L 2104 672 L 2104 776 L 1976 776 L 1976 672 Z Z" stroke-miterlimit="10"/></g><g transform="translate(-110,-294) scale(1,1)"><path fill="none" stroke="#000000" d="M 1976 697 L 2104 697" stroke-miterlimit="10"/></g><g transform="translate(-110,-294) scale(1,1)"><path fill="none" stroke="#000000" d="M 1976 750 L 2104 750" stroke-miterlimit="10"/></g><g transform="translate(-110,-294) scale(1,1)"><g><path fill="none" stroke="none"/><text fill="#000000" stroke="none" font-family="Arial" font-size="13px" font-style="normal" font-weight="bold" text-decoration="none" x="2005.681396484375" y="691.5">Prescription</text></g></g><g transform="translate(-110,-294) scale(1,1)"><g><path fill="none" stroke="none"/><text fill="#000000" stroke="none" font-family="Arial" font-size="13px" font-style="normal" font-weight="normal" text-decoration="none" x="1981" y="714.5">+status</text></g></g><g transform="translate(-110,-294) scale(1,1)"><g><path fill="none" stroke="none"/><text fill="#000000" stroke="none" font-family="Arial" font-size="13px" font-style="normal" font-weight="normal" text-decoration="none" x="1981" y="729.5">+ID</text></g></g><g transform="translate(-110,-294) scale(1,1)"><g><path fill="none" stroke="none"/><text fill="#000000" stroke="none" font-family="Arial" font-size="13px" font-style="normal" font-weight="normal" text-decoration="none" x="1981" y="744.5">+image</text></g></g><g transform="translate(-110,-294) scale(1,1)"><rect fill="#C0C0C0" stroke="none" x="2303" y="679" width="128.9326171875" height="104" opacity="0.2"/></g><g transform="translate(-110,-294) scale(1,1)"><rect fill="#ebd8ff" stroke="none" x="2296" y="672" width="128.9326171875" height="104"/></g><g transform="translate(-110,-294) scale(1,1)"><path fill="none" stroke="#000000" d="M 2296 672 L 2424.9326171875 672 L 2424.9326171875 776 L 2296 776 L 2296 672 Z Z" stroke-miterlimit="10"/></g><g transform="translate(-110,-294) scale(1,1)"><path fill="none" stroke="#000000" d="M 2296 697 L 2424.9326171875 697" stroke-miterlimit="10"/></g><g transform="translate(-110,-294) scale(1,1)"><path fill="none" stroke="#000000" d="M 2296 707 L 2424.9326171875 707" stroke-miterlimit="10"/></g><g transform="translate(-110,-294) scale(1,1)"><g><path fill="none" stroke="none"/><text fill="#000000" stroke="none" font-family="Arial" font-size="13px" font-style="normal" font-weight="bold" text-decoration="none" x="2304.8291015625" y="691.5">PrescriptionReader</text></g></g><g transform="translate(-110,-294) scale(1,1)"><rect fill="#C0C0C0" stroke="none" x="311" y="999" width="120" height="96" opacity="0.2"/></g><g transform="translate(-110,-294) scale(1,1)"><rect fill="#ebd8ff" stroke="none" x="304" y="992" width="120" height="96"/></g><g transform="translate(-110,-294) scale(1,1)"><path fill="none" stroke="#000000" d="M 304 992 L 424 992 L 424 1088 L 304 1088 L 304 992 Z Z" stroke-miterlimit="10"/></g><g transform="translate(-110,-294) scale(1,1)"><path fill="none" stroke="#000000" d="M 304 1017 L 424 1017" stroke-miterlimit="10"/></g><g transform="translate(-110,-294) scale(1,1)"><path fill="none" stroke="#000000" d="M 304 1027 L 424 1027" stroke-miterlimit="10"/></g><g transform="translate(-110,-294) scale(1,1)"><g><path fill="none" stroke="none"/><text fill="#000000" stroke="none" font-family="Arial" font-size="13px" font-style="normal" font-weight="bold" text-decoration="none" x="317.392333984375" y="1011.5">SamplingReport</text></g></g><g transform="translate(-110,-294) scale(1,1)"><rect fill="#C0C0C0" stroke="none" x="1759" y="751" width="119" height="104" opacity="0.2"/></g><g transform="translate(-110,-294) scale(1,1)"><rect fill="#ebd8ff" stroke="none" x="1752" y="744" width="119" height="104"/></g><g transform="translate(-110,-294) scale(1,1)"><path fill="none" stroke="#000000" d="M 1752 744 L 1871 744 L 1871 848 L 1752 848 L 1752 744 Z Z" stroke-miterlimit="10"/></g><g transform="translate(-110,-294) scale(1,1)"><path fill="none" stroke="#000000" d="M 1752 769 L 1871 769" stroke-miterlimit="10"/></g><g transform="translate(-110,-294) scale(1,1)"><path fill="none" stroke="#000000" d="M 1752 837 L 1871 837" stroke-miterlimit="10"/></g><g transform="translate(-110,-294) scale(1,1)"><g><path fill="none" stroke="none"/><text fill="#000000" stroke="none" font-family="Arial" font-size="13px" font-style="normal" font-weight="bold" text-decoration="none" x="1782.95458984375" y="763.5">Insurance</text></g></g><g transform="translate(-110,-294) scale(1,1)"><g><path fill="none" stroke="none"/><text fill="#000000" stroke="none" font-family="Arial" font-size="13px" font-style="normal" font-weight="normal" text-decoration="none" x="1757" y="786.5">+IID</text></g></g><g transform="translate(-110,-294) scale(1,1)"><g><path fill="none" stroke="none"/><text fill="#000000" stroke="none" font-family="Arial" font-size="13px" font-style="normal" font-weight="normal" text-decoration="none" x="1757" y="801.5">+name</text></g></g><g transform="translate(-110,-294) scale(1,1)"><g><path fill="none" stroke="none"/><text fill="#000000" stroke="none" font-family="Arial" font-size="13px" font-style="normal" font-weight="normal" text-decoration="none" x="1757" y="816.5">+franchise</text></g></g><g transform="translate(-110,-294) scale(1,1)"><g><path fill="none" stroke="none"/><text fill="#000000" stroke="none" font-family="Arial" font-size="13px" font-style="normal" font-weight="normal" text-decoration="none" x="1757" y="831.5">+isEnabled</text></g></g><g transform="translate(-110,-294) scale(1,1)"><path fill="none" stroke="#000000" d="M 203 569 L 347 991" stroke-miterlimit="10"/></g><g transform="translate(-110,-294) scale(1,1)"><g><path fill="none" stroke="none"/><text fill="#000000" stroke="none" font-family="Arial" font-size="13px" font-style="normal" font-weight="normal" text-decoration="none" x="263.051025390625" y="724.5">submits</text></g></g><g transform="translate(-110,-294) scale(1,1)"><g><path fill="none" stroke="none"/><text fill="#000000" stroke="none" font-family="Arial" font-size="13px" font-style="normal" font-weight="normal" text-decoration="none" x="194.5" y="599.5">1</text></g></g><g transform="translate(-110,-294) scale(1,1)"><g><path fill="none" stroke="none"/><text fill="#000000" stroke="none" font-family="Arial" font-size="13px" font-style="normal" font-weight="normal" text-decoration="none" x="325.220458984375" y="980.5">*</text></g></g><g transform="translate(-110,-294) scale(1,1)"><path fill="none" stroke="#000000" d="M 1585 576 L 1757 743" stroke-miterlimit="10"/></g><g transform="translate(-110,-294) scale(1,1)"><g><path fill="none" stroke="none"/><text fill="#000000" stroke="none" font-family="Arial" font-size="13px" font-style="normal" font-weight="normal" text-decoration="none" x="1743" y="729.5">submitted in</text></g></g><g transform="translate(-110,-294) scale(1,1)"><g><path fill="none" stroke="none"/><text fill="#000000" stroke="none" font-family="Arial" font-size="13px" font-style="normal" font-weight="normal" text-decoration="none" x="1588.220458984375" y="606.5">*</text></g></g><g transform="translate(-110,-294) scale(1,1)"><g><path fill="none" stroke="none"/><text fill="#000000" stroke="none" font-family="Arial" font-size="13px" font-style="normal" font-weight="normal" text-decoration="none" x="1721.5" y="742.5">0..1</text></g></g><g transform="translate(-110,-294) scale(1,1)"><path fill="none" stroke="#000000" d="M 2105 724 L 2295 724" stroke-miterlimit="10"/></g><g transform="translate(-110,-294) scale(1,1)"><g><path fill="none" stroke="none"/><text fill="#000000" stroke="none" font-family="Arial" font-size="13px" font-style="normal" font-weight="normal" text-decoration="none" x="2180.162353515625" y="715.5">checks</text></g></g><g transform="translate(-110,-294) scale(1,1)"><g><path fill="none" stroke="none"/><text fill="#000000" stroke="none" font-family="Arial" font-size="13px" font-style="normal" font-weight="normal" text-decoration="none" x="2123.220458984375" y="742.5">*</text></g></g><g transform="translate(-110,-294) scale(1,1)"><g><path fill="none" stroke="none"/><text fill="#000000" stroke="none" font-family="Arial" font-size="13px" font-style="normal" font-weight="normal" text-decoration="none" x="2269.5" y="742.5">1</text></g></g><g transform="translate(-110,-294) scale(1,1)"><path fill="none" stroke="#000000" d="M 1585 541 L 1975 698" stroke-miterlimit="10"/></g><g transform="translate(-110,-294) scale(1,1)"><g><path fill="none" stroke="none"/><text fill="#000000" stroke="none" font-family="Arial" font-size="13px" font-style="normal" font-weight="normal" text-decoration="none" x="1863" y="695.5">submitted in</text></g></g><g transform="translate(-110,-294) scale(1,1)"><g><path fill="none" stroke="none"/><text fill="#000000" stroke="none" font-family="Arial" font-size="13px" font-style="normal" font-weight="normal" text-decoration="none" x="1596.5" y="566.5">1</text></g></g><g transform="translate(-110,-294) scale(1,1)"><g><path fill="none" stroke="none"/><text fill="#000000" stroke="none" font-family="Arial" font-size="13px" font-style="normal" font-weight="normal" text-decoration="none" x="1939.5" y="707.5">0..1</text></g></g><g transform="translate(-110,-294) scale(1,1)"><rect fill="#C0C0C0" stroke="none" x="767" y="311" width="118.68212890625" height="102" opacity="0.2"/></g><g transform="translate(-110,-294) scale(1,1)"><rect fill="#ebd8ff" stroke="none" x="760" y="304" width="118.68212890625" height="102"/></g><g transform="translate(-110,-294) scale(1,1)"><path fill="none" stroke="#000000" d="M 760 304 L 878.68212890625 304 L 878.68212890625 406 L 760 406 L 760 304 Z Z" stroke-miterlimit="10"/></g><g transform="translate(-110,-294) scale(1,1)"><path fill="none" stroke="#000000" d="M 760 329 L 878.68212890625 329" stroke-miterlimit="10"/></g><g transform="translate(-110,-294) scale(1,1)"><path fill="none" stroke="#000000" d="M 760 397 L 878.68212890625 397" stroke-miterlimit="10"/></g><g transform="translate(-110,-294) scale(1,1)"><g><path fill="none" stroke="none"/><text fill="#000000" stroke="none" font-family="Arial" font-size="13px" font-style="normal" font-weight="bold" text-decoration="none" x="805.617431640625" y="323.5">User</text></g></g><g transform="translate(-110,-294) scale(1,1)"><g><path fill="none" stroke="none"/><text fill="#000000" stroke="none" font-family="Arial" font-size="13px" font-style="normal" font-weight="normal" text-decoration="none" x="765" y="346.5">-userName</text></g></g><g transform="translate(-110,-294) scale(1,1)"><g><path fill="none" stroke="none"/><text fill="#000000" stroke="none" font-family="Arial" font-size="13px" font-style="normal" font-weight="normal" text-decoration="none" x="765" y="361.5">-password</text></g></g><g transform="translate(-110,-294) scale(1,1)"><g><path fill="none" stroke="none"/><text fill="#000000" stroke="none" font-family="Arial" font-size="13px" font-style="normal" font-weight="normal" text-decoration="none" x="765" y="376.5">+firstName</text></g></g><g transform="translate(-110,-294) scale(1,1)"><g><path fill="none" stroke="none"/><text fill="#000000" stroke="none" font-family="Arial" font-size="13px" font-style="normal" font-weight="normal" text-decoration="none" x="765" y="391.5">+lastName</text></g></g><g transform="translate(-110,-294) scale(1,1)"><path fill="none" stroke="#000000" d="M 251 486 L 544 352 L 759 354" stroke-miterlimit="10"/></g><g transform="translate(-110,-294) scale(1,1)"><path fill="#FFFFFF" stroke="none" d="M 738.5972164159421 362.22960643178607 L 759 354 L 738.7538428582187 345.3922638870434"/></g><g transform="translate(-110,-294) scale(1,1)"><path fill="none" stroke="#000000" d="M 738.5972164159421 362.22960643178607 L 759 354 L 738.7538428582187 345.3922638870434 L 738.5972164159421 362.22960643178607" stroke-miterlimit="10"/></g><g transform="translate(-110,-294) scale(1,1)"><g><path fill="none" stroke="none"/><text fill="#000000" stroke="none" font-family="Arial" font-size="13px" font-style="normal" font-weight="normal" text-decoration="none" x="533.613525390625" y="343.5">is a</text></g></g><g transform="translate(-110,-294) scale(1,1)"><path fill="none" stroke="#000000" d="M 1844 448 L 1844 352 L 879 352" stroke-miterlimit="10"/></g><g transform="translate(-110,-294) scale(1,1)"><path fill="#FFFFFF" stroke="none" d="M 899.3253497152483 343.580964487968 L 879 352 L 899.3253497152483 360.419035512032"/></g><g transform="translate(-110,-294) scale(1,1)"><path fill="none" stroke="#000000" d="M 899.3253497152483 343.580964487968 L 879 352 L 899.3253497152483 360.419035512032 L 899.3253497152483 343.580964487968" stroke-miterlimit="10"/></g><g transform="translate(-110,-294) scale(1,1)"><g><path fill="none" stroke="none"/><text fill="#000000" stroke="none" font-family="Arial" font-size="13px" font-style="normal" font-weight="normal" text-decoration="none" x="1849.613525390625" y="403.5">is a</text></g></g><g transform="translate(-110,-294) scale(1,1)"><path fill="none" stroke="#000000" d="M 2340 672 L 2340 337 L 879 337" stroke-miterlimit="10"/></g><g transform="translate(-110,-294) scale(1,1)"><path fill="#FFFFFF" stroke="none" d="M 899.3253497152483 328.580964487968 L 879 337 L 899.3253497152483 345.419035512032"/></g><g transform="translate(-110,-294) scale(1,1)"><path fill="none" stroke="#000000" d="M 899.3253497152483 328.580964487968 L 879 337 L 899.3253497152483 345.419035512032 L 899.3253497152483 328.580964487968" stroke-miterlimit="10"/></g><g transform="translate(-110,-294) scale(1,1)"><g><path fill="none" stroke="none"/><text fill="#000000" stroke="none" font-family="Arial" font-size="13px" font-style="normal" font-weight="normal" text-decoration="none" x="2345.613525390625" y="419.5">is a</text></g></g><g transform="translate(-110,-294) scale(1,1)"><rect fill="#C0C0C0" stroke="none" x="1175" y="1383" width="120" height="88" opacity="0.2"/></g><g transform="translate(-110,-294) scale(1,1)"><rect fill="#ebd8ff" stroke="none" x="1168" y="1376" width="120" height="88"/></g><g transform="translate(-110,-294) scale(1,1)"><path fill="none" stroke="#000000" d="M 1168 1376 L 1288 1376 L 1288 1464 L 1168 1464 L 1168 1376 Z Z" stroke-miterlimit="10"/></g><g transform="translate(-110,-294) scale(1,1)"><path fill="none" stroke="#000000" d="M 1168 1401 L 1288 1401" stroke-miterlimit="10"/></g><g transform="translate(-110,-294) scale(1,1)"><path fill="none" stroke="#000000" d="M 1168 1411 L 1288 1411" stroke-miterlimit="10"/></g><g transform="translate(-110,-294) scale(1,1)"><g><path fill="none" stroke="none"/><text fill="#000000" stroke="none" font-family="Arial" font-size="13px" font-style="normal" font-weight="bold" text-decoration="none" x="1193.31640625" y="1395.5">SamplingKit</text></g></g><g transform="translate(-110,-294) scale(1,1)"><rect fill="#C0C0C0" stroke="none" x="1047" y="463" width="120" height="104" opacity="0.2"/></g><g transform="translate(-110,-294) scale(1,1)"><rect fill="#ebd8ff" stroke="none" x="1040" y="456" width="120" height="104"/></g><g transform="translate(-110,-294) scale(1,1)"><path fill="none" stroke="#000000" d="M 1040 456 L 1160 456 L 1160 560 L 1040 560 L 1040 456 Z Z" stroke-miterlimit="10"/></g><g transform="translate(-110,-294) scale(1,1)"><path fill="none" stroke="#000000" d="M 1040 481 L 1160 481" stroke-miterlimit="10"/></g><g transform="translate(-110,-294) scale(1,1)"><path fill="none" stroke="#000000" d="M 1040 491 L 1160 491" stroke-miterlimit="10"/></g><g transform="translate(-110,-294) scale(1,1)"><g><path fill="none" stroke="none"/><text fill="#000000" stroke="none" font-family="Arial" font-size="13px" font-style="normal" font-weight="bold" text-decoration="none" x="1072.90185546875" y="475.5">Sampling</text></g></g><g transform="translate(-110,-294) scale(1,1)"><path fill="none" stroke="#000000" d="M 1161 509 L 1463 515" stroke-miterlimit="10"/></g><g transform="translate(-110,-294) scale(1,1)"><g><path fill="none" stroke="none"/><text fill="#000000" stroke="none" font-family="Arial" font-size="13px" font-style="normal" font-weight="normal" text-decoration="none" x="1215.177490234375" y="502.5">related to</text></g></g><g transform="translate(-110,-294) scale(1,1)"><g><path fill="none" stroke="none"/><text fill="#000000" stroke="none" font-family="Arial" font-size="13px" font-style="normal" font-weight="normal" text-decoration="none" x="1178.11181640625" y="527.5">1</text></g></g><g transform="translate(-110,-294) scale(1,1)"><g><path fill="none" stroke="none"/><text fill="#000000" stroke="none" font-family="Arial" font-size="13px" font-style="normal" font-weight="normal" text-decoration="none" x="1437.5" y="533.5">1</text></g></g><g transform="translate(-110,-294) scale(1,1)"><rect fill="#C0C0C0" stroke="none" x="1287" y="903" width="128" height="104" opacity="0.2"/></g><g transform="translate(-110,-294) scale(1,1)"><rect fill="#ebd8ff" stroke="none" x="1280" y="896" width="128" height="104"/></g><g transform="translate(-110,-294) scale(1,1)"><path fill="none" stroke="#000000" d="M 1280 896 L 1408 896 L 1408 1000 L 1280 1000 L 1280 896 Z Z" stroke-miterlimit="10"/></g><g transform="translate(-110,-294) scale(1,1)"><path fill="none" stroke="#000000" d="M 1280 921 L 1408 921" stroke-miterlimit="10"/></g><g transform="translate(-110,-294) scale(1,1)"><path fill="none" stroke="#000000" d="M 1280 959 L 1408 959" stroke-miterlimit="10"/></g><g transform="translate(-110,-294) scale(1,1)"><g><path fill="none" stroke="none"/><text fill="#000000" stroke="none" font-family="Arial" font-size="13px" font-style="normal" font-weight="bold" text-decoration="none" x="1307.504150390625" y="915.5">Appointment</text></g></g><g transform="translate(-110,-294) scale(1,1)"><g><path fill="none" stroke="none"/><text fill="#000000" stroke="none" font-family="Arial" font-size="13px" font-style="normal" font-weight="normal" text-decoration="none" x="1285" y="938.5">+date</text></g></g><g transform="translate(-110,-294) scale(1,1)"><g><path fill="none" stroke="none"/><text fill="#000000" stroke="none" font-family="Arial" font-size="13px" font-style="normal" font-weight="normal" text-decoration="none" x="1285" y="953.5">+time</text></g></g><g transform="translate(-110,-294) scale(1,1)"><path fill="none" stroke="#000000" d="M 1499 577 L 1366 895" stroke-miterlimit="10"/></g><g transform="translate(-110,-294) scale(1,1)"><g><path fill="none" stroke="none"/><text fill="#000000" stroke="none" font-family="Arial" font-size="13px" font-style="normal" font-weight="normal" text-decoration="none" x="1470.49609375" y="669.5">performed in</text></g></g><g transform="translate(-110,-294) scale(1,1)"><g><path fill="none" stroke="none"/><text fill="#000000" stroke="none" font-family="Arial" font-size="13px" font-style="normal" font-weight="normal" text-decoration="none" x="1475.5" y="598.5">1</text></g></g><g transform="translate(-110,-294) scale(1,1)"><g><path fill="none" stroke="none"/><text fill="#000000" stroke="none" font-family="Arial" font-size="13px" font-style="normal" font-weight="normal" text-decoration="none" x="1358.5" y="876.5">1</text></g></g><g transform="translate(-110,-294) scale(1,1)"><path fill="none" stroke="#000000" d="M 236 569 L 389 727" stroke-miterlimit="10"/></g><g transform="translate(-110,-294) scale(1,1)"><g><path fill="none" stroke="none"/><text fill="#000000" stroke="none" font-family="Arial" font-size="13px" font-style="normal" font-weight="normal" text-decoration="none" x="306.469970703125" y="643.5">takes</text></g></g><g transform="translate(-110,-294) scale(1,1)"><g><path fill="none" stroke="none"/><text fill="#000000" stroke="none" font-family="Arial" font-size="13px" font-style="normal" font-weight="normal" text-decoration="none" x="238.5" y="599.5">1</text></g></g><g transform="translate(-110,-294) scale(1,1)"><g><path fill="none" stroke="none"/><text fill="#000000" stroke="none" font-family="Arial" font-size="13px" font-style="normal" font-weight="normal" text-decoration="none" x="361.220458984375" y="726.5">*</text></g></g><g transform="translate(-110,-294) scale(1,1)"><path fill="none" stroke="#000000" d="M 1107 561 L 1222 1375" stroke-miterlimit="10"/></g><g transform="translate(-110,-294) scale(1,1)"><g><path fill="none" stroke="none"/><text fill="#000000" stroke="none" font-family="Arial" font-size="13px" font-style="normal" font-weight="normal" text-decoration="none" x="1153.177490234375" y="1341.5">related to</text></g></g><g transform="translate(-110,-294) scale(1,1)"><g><path fill="none" stroke="none"/><text fill="#000000" stroke="none" font-family="Arial" font-size="13px" font-style="normal" font-weight="normal" text-decoration="none" x="1093.5" y="590.5">1</text></g></g><g transform="translate(-110,-294) scale(1,1)"><g><path fill="none" stroke="none"/><text fill="#000000" stroke="none" font-family="Arial" font-size="13px" font-style="normal" font-weight="normal" text-decoration="none" x="1202.11181640625" y="1361.5">1</text></g></g><g transform="translate(-110,-294) scale(1,1)"><rect fill="#C0C0C0" stroke="none" x="1799" y="1031" width="151.7333984375" height="104" opacity="0.2"/></g><g transform="translate(-110,-294) scale(1,1)"><rect fill="#ebd8ff" stroke="none" x="1792" y="1024" width="151.7333984375" height="104"/></g><g transform="translate(-110,-294) scale(1,1)"><path fill="none" stroke="#000000" d="M 1792 1024 L 1943.7333984375 1024 L 1943.7333984375 1128 L 1792 1128 L 1792 1024 Z Z" stroke-miterlimit="10"/></g><g transform="translate(-110,-294) scale(1,1)"><path fill="none" stroke="#000000" d="M 1792 1049 L 1943.7333984375 1049" stroke-miterlimit="10"/></g><g transform="translate(-110,-294) scale(1,1)"><path fill="none" stroke="#000000" d="M 1792 1087 L 1943.7333984375 1087" stroke-miterlimit="10"/></g><g transform="translate(-110,-294) scale(1,1)"><g><path fill="none" stroke="none"/><text fill="#000000" stroke="none" font-family="Arial" font-size="13px" font-style="normal" font-weight="bold" text-decoration="none" x="1836.791748046875" y="1043.5">Laboratory</text></g></g><g transform="translate(-110,-294) scale(1,1)"><g><path fill="none" stroke="none"/><text fill="#000000" stroke="none" font-family="Arial" font-size="13px" font-style="normal" font-weight="normal" text-decoration="none" x="1797" y="1066.5">+name</text></g></g><g transform="translate(-110,-294) scale(1,1)"><g><path fill="none" stroke="none"/><text fill="#000000" stroke="none" font-family="Arial" font-size="13px" font-style="normal" font-weight="normal" text-decoration="none" x="1797" y="1081.5">+ID</text></g></g><g transform="translate(-110,-294) scale(1,1)"><path fill="none" stroke="#000000" d="M 1289 1387 L 1791 1117" stroke-miterlimit="10"/></g><g transform="translate(-110,-294) scale(1,1)"><g><path fill="none" stroke="none"/><text fill="#000000" stroke="none" font-family="Arial" font-size="13px" font-style="normal" font-weight="normal" text-decoration="none" x="1427.463623046875" y="1334.5">prepared in</text></g></g><g transform="translate(-110,-294) scale(1,1)"><g><path fill="none" stroke="none"/><text fill="#000000" stroke="none" font-family="Arial" font-size="13px" font-style="normal" font-weight="normal" text-decoration="none" x="1310.220458984375" y="1393.5">*</text></g></g><g transform="translate(-110,-294) scale(1,1)"><g><path fill="none" stroke="none"/><text fill="#000000" stroke="none" font-family="Arial" font-size="13px" font-style="normal" font-weight="normal" text-decoration="none" x="1773.5" y="1144.5">1</text></g></g><g transform="translate(-110,-294) scale(1,1)"><rect fill="#C0C0C0" stroke="none" x="1319" y="1151" width="120" height="104" opacity="0.2"/></g><g transform="translate(-110,-294) scale(1,1)"><rect fill="#ebd8ff" stroke="none" x="1312" y="1144" width="120" height="104"/></g><g transform="translate(-110,-294) scale(1,1)"><path fill="none" stroke="#000000" d="M 1312 1144 L 1432 1144 L 1432 1248 L 1312 1248 L 1312 1144 Z Z" stroke-miterlimit="10"/></g><g transform="translate(-110,-294) scale(1,1)"><path fill="none" stroke="#000000" d="M 1312 1169 L 1432 1169" stroke-miterlimit="10"/></g><g transform="translate(-110,-294) scale(1,1)"><path fill="none" stroke="#000000" d="M 1312 1179 L 1432 1179" stroke-miterlimit="10"/></g><g transform="translate(-110,-294) scale(1,1)"><g><path fill="none" stroke="none"/><text fill="#000000" stroke="none" font-family="Arial" font-size="13px" font-style="normal" font-weight="bold" text-decoration="none" x="1341.655029296875" y="1163.5">TestResult</text></g></g><g transform="translate(-110,-294) scale(1,1)"><rect fill="#C0C0C0" stroke="none" x="1239" y="663" width="128" height="104" opacity="0.2"/></g><g transform="translate(-110,-294) scale(1,1)"><rect fill="#ebd8ff" stroke="none" x="1232" y="656" width="128" height="104"/></g><g transform="translate(-110,-294) scale(1,1)"><path fill="none" stroke="#000000" d="M 1232 656 L 1360 656 L 1360 760 L 1232 760 L 1232 656 Z Z" stroke-miterlimit="10"/></g><g transform="translate(-110,-294) scale(1,1)"><path fill="none" stroke="#000000" d="M 1232 681 L 1360 681" stroke-miterlimit="10"/></g><g transform="translate(-110,-294) scale(1,1)"><path fill="none" stroke="#000000" d="M 1232 704 L 1360 704" stroke-miterlimit="10"/></g><g transform="translate(-110,-294) scale(1,1)"><g><path fill="none" stroke="none"/><text fill="#000000" stroke="none" font-family="Arial" font-size="13px" font-style="normal" font-weight="bold" text-decoration="none" x="1279.740478515625" y="675.5">Place</text></g></g><g transform="translate(-110,-294) scale(1,1)"><g><path fill="none" stroke="none"/><text fill="#000000" stroke="none" font-family="Arial" font-size="13px" font-style="normal" font-weight="normal" text-decoration="none" x="1237" y="698.5">+address</text></g></g><g transform="translate(-110,-294) scale(1,1)"><path fill="none" stroke="#000000" d="M 425 996 L 1039 552" stroke-miterlimit="10"/></g><g transform="translate(-110,-294) scale(1,1)"><g><path fill="none" stroke="none"/><text fill="#000000" stroke="none" font-family="Arial" font-size="13px" font-style="normal" font-weight="normal" text-decoration="none" x="536.305419921875" y="932.5">related to</text></g></g><g transform="translate(-110,-294) scale(1,1)"><g><path fill="none" stroke="none"/><text fill="#000000" stroke="none" font-family="Arial" font-size="13px" font-style="normal" font-weight="normal" text-decoration="none" x="445.5" y="999.5">1</text></g></g><g transform="translate(-110,-294) scale(1,1)"><g><path fill="none" stroke="none"/><text fill="#000000" stroke="none" font-family="Arial" font-size="13px" font-style="normal" font-weight="normal" text-decoration="none" x="1024.5" y="580.5">1</text></g></g><g transform="translate(-110,-294) scale(1,1)"><rect fill="#C0C0C0" stroke="none" x="583" y="999" width="129.31982421875" height="96" opacity="0.2"/></g><g transform="translate(-110,-294) scale(1,1)"><rect fill="#ebd8ff" stroke="none" x="576" y="992" width="129.31982421875" height="96"/></g><g transform="translate(-110,-294) scale(1,1)"><path fill="none" stroke="#000000" d="M 576 992 L 705.31982421875 992 L 705.31982421875 1088 L 576 1088 L 576 992 Z Z" stroke-miterlimit="10"/></g><g transform="translate(-110,-294) scale(1,1)"><path fill="none" stroke="#000000" d="M 576 1017 L 705.31982421875 1017" stroke-miterlimit="10"/></g><g transform="translate(-110,-294) scale(1,1)"><path fill="none" stroke="#000000" d="M 576 1040 L 705.31982421875 1040" stroke-miterlimit="10"/></g><g transform="translate(-110,-294) scale(1,1)"><g><path fill="none" stroke="none"/><text fill="#000000" stroke="none" font-family="Arial" font-size="13px" font-style="normal" font-weight="bold" text-decoration="none" x="588.26953125" y="1011.5">AcceptanceRecipt</text></g></g><g transform="translate(-110,-294) scale(1,1)"><g><path fill="none" stroke="none"/><text fill="#000000" stroke="none" font-family="Arial" font-size="13px" font-style="normal" font-weight="normal" text-decoration="none" x="581" y="1034.5">+acceptanceNumber</text></g></g><g transform="translate(-110,-294) scale(1,1)"><path fill="none" stroke="#000000" d="M 682 991 L 1054 561" stroke-miterlimit="10"/></g><g transform="translate(-110,-294) scale(1,1)"><g><path fill="none" stroke="none"/><text fill="#000000" stroke="none" font-family="Arial" font-size="13px" font-style="normal" font-weight="normal" text-decoration="none" x="767.177490234375" y="924.5">related to</text></g></g><g transform="translate(-110,-294) scale(1,1)"><g><path fill="none" stroke="none"/><text fill="#000000" stroke="none" font-family="Arial" font-size="13px" font-style="normal" font-weight="normal" text-decoration="none" x="701.5" y="988.5">1</text></g></g><g transform="translate(-110,-294) scale(1,1)"><g><path fill="none" stroke="none"/><text fill="#000000" stroke="none" font-family="Arial" font-size="13px" font-style="normal" font-weight="normal" text-decoration="none" x="1045.5" y="591.5">1</text></g></g><g transform="translate(-110,-294) scale(1,1)"><path fill="none" stroke="#000000" d="M 1152 561 L 1244 655" stroke-miterlimit="10"/></g><g transform="translate(-110,-294) scale(1,1)"><g><path fill="none" stroke="none"/><text fill="#000000" stroke="none" font-family="Arial" font-size="13px" font-style="normal" font-weight="normal" text-decoration="none" x="1206.084716796875" y="588.5">has a</text></g></g><g transform="translate(-110,-294) scale(1,1)"><g><path fill="none" stroke="none"/><text fill="#000000" stroke="none" font-family="Arial" font-size="13px" font-style="normal" font-weight="normal" text-decoration="none" x="1155.220458984375" y="591.5">*</text></g></g><g transform="translate(-110,-294) scale(1,1)"><g><path fill="none" stroke="none"/><text fill="#000000" stroke="none" font-family="Arial" font-size="13px" font-style="normal" font-weight="normal" text-decoration="none" x="1215.5" y="654.5">1</text></g></g><g transform="translate(-110,-294) scale(1,1)"><path fill="none" stroke="#000000" d="M 706 1042 L 1791 1074" stroke-miterlimit="10"/></g><g transform="translate(-110,-294) scale(1,1)"><g><path fill="none" stroke="none"/><text fill="#000000" stroke="none" font-family="Arial" font-size="13px" font-style="normal" font-weight="normal" text-decoration="none" x="776.557861328125" y="1043.5">accepted in</text></g></g><g transform="translate(-110,-294) scale(1,1)"><g><path fill="none" stroke="none"/><text fill="#000000" stroke="none" font-family="Arial" font-size="13px" font-style="normal" font-weight="normal" text-decoration="none" x="724.220458984375" y="1061.5">*</text></g></g><g transform="translate(-110,-294) scale(1,1)"><g><path fill="none" stroke="none"/><text fill="#000000" stroke="none" font-family="Arial" font-size="13px" font-style="normal" font-weight="normal" text-decoration="none" x="1764.5" y="1091.5">1</text></g></g><g transform="translate(-110,-294) scale(1,1)"><path fill="none" stroke="#000000" d="M 706 1054 L 1311 1183" stroke-miterlimit="10"/></g><g transform="translate(-110,-294) scale(1,1)"><g><path fill="none" stroke="none"/><text fill="#000000" stroke="none" font-family="Arial" font-size="13px" font-style="normal" font-weight="normal" text-decoration="none" x="1242.177490234375" y="1168.5">related to</text></g></g><g transform="translate(-110,-294) scale(1,1)"><g><path fill="none" stroke="none"/><text fill="#000000" stroke="none" font-family="Arial" font-size="13px" font-style="normal" font-weight="normal" text-decoration="none" x="720.5" y="1076.5">1</text></g></g><g transform="translate(-110,-294) scale(1,1)"><g><path fill="none" stroke="none"/><text fill="#000000" stroke="none" font-family="Arial" font-size="13px" font-style="normal" font-weight="normal" text-decoration="none" x="1283.5" y="1196.5">1</text></g></g><g transform="translate(-110,-294) scale(1,1)"><path fill="none" stroke="#000000" d="M 1409 1143 L 1810 568" stroke-miterlimit="10"/></g><g transform="translate(-110,-294) scale(1,1)"><g><path fill="none" stroke="none"/><text fill="#000000" stroke="none" font-family="Arial" font-size="13px" font-style="normal" font-weight="normal" text-decoration="none" x="1458.2041015625" y="1116.5">belongs to</text></g></g><g transform="translate(-110,-294) scale(1,1)"><g><path fill="none" stroke="none"/><text fill="#000000" stroke="none" font-family="Arial" font-size="13px" font-style="normal" font-weight="normal" text-decoration="none" x="1428.58544921875" y="1138.5">*</text></g></g><g transform="translate(-110,-294) scale(1,1)"><g><path fill="none" stroke="none"/><text fill="#000000" stroke="none" font-family="Arial" font-size="13px" font-style="normal" font-weight="normal" text-decoration="none" x="1803.5" y="598.5">1</text></g></g><g transform="translate(-110,-294) scale(1,1)"><rect fill="#C0C0C0" stroke="none" x="695" y="559" width="112" height="104" opacity="0.2"/></g><g transform="translate(-110,-294) scale(1,1)"><rect fill="#ebd8ff" stroke="none" x="688" y="552" width="112" height="104"/></g><g transform="translate(-110,-294) scale(1,1)"><path fill="none" stroke="#000000" d="M 688 552 L 800 552 L 800 656 L 688 656 L 688 552 Z Z" stroke-miterlimit="10"/></g><g transform="translate(-110,-294) scale(1,1)"><path fill="none" stroke="#000000" d="M 688 577 L 800 577" stroke-miterlimit="10"/></g><g transform="translate(-110,-294) scale(1,1)"><path fill="none" stroke="#000000" d="M 688 615 L 800 615" stroke-miterlimit="10"/></g><g transform="translate(-110,-294) scale(1,1)"><g><path fill="none" stroke="none"/><text fill="#000000" stroke="none" font-family="Arial" font-size="13px" font-style="normal" font-weight="bold" text-decoration="none" x="732.0791015625" y="571.5">Test</text></g></g><g transform="translate(-110,-294) scale(1,1)"><g><path fill="none" stroke="none"/><text fill="#000000" stroke="none" font-family="Arial" font-size="13px" font-style="normal" font-weight="normal" text-decoration="none" x="693" y="594.5">+name</text></g></g><g transform="translate(-110,-294) scale(1,1)"><g><path fill="none" stroke="none"/><text fill="#000000" stroke="none" font-family="Arial" font-size="13px" font-style="normal" font-weight="normal" text-decoration="none" x="693" y="609.5">+price</text></g></g><g transform="translate(-110,-294) scale(1,1)"><path fill="none" stroke="#000000" d="M 1039 524 L 801 589" stroke-miterlimit="10"/></g><g transform="translate(-110,-294) scale(1,1)"><g><path fill="none" stroke="none"/><text fill="#000000" stroke="none" font-family="Arial" font-size="13px" font-style="normal" font-weight="normal" text-decoration="none" x="920.5" y="538.5">includes</text></g></g><g transform="translate(-110,-294) scale(1,1)"><g><path fill="none" stroke="none"/><text fill="#000000" stroke="none" font-family="Arial" font-size="13px" font-style="normal" font-weight="normal" text-decoration="none" x="1010.5" y="523.5">1</text></g></g><g transform="translate(-110,-294) scale(1,1)"><g><path fill="none" stroke="none"/><text fill="#000000" stroke="none" font-family="Arial" font-size="13px" font-style="normal" font-weight="normal" text-decoration="none" x="810.5" y="577.5">1..</text></g></g><g transform="translate(-110,-294) scale(1,1)"><path fill="none" stroke="#000000" d="M 687 637 L 497 747" stroke-miterlimit="10"/></g><g transform="translate(-110,-294) scale(1,1)"><g><path fill="none" stroke="none"/><text fill="#000000" stroke="none" font-family="Arial" font-size="13px" font-style="normal" font-weight="normal" text-decoration="none" x="539.177490234375" y="739.5">related to</text></g></g><g transform="translate(-110,-294) scale(1,1)"><g><path fill="none" stroke="none"/><text fill="#000000" stroke="none" font-family="Arial" font-size="13px" font-style="normal" font-weight="normal" text-decoration="none" x="658.5" y="643.5">1</text></g></g><g transform="translate(-110,-294) scale(1,1)"><g><path fill="none" stroke="none"/><text fill="#000000" stroke="none" font-family="Arial" font-size="13px" font-style="normal" font-weight="normal" text-decoration="none" x="505.5" y="731.5">1</text></g></g><g transform="translate(-110,-294) scale(1,1)"><path fill="none" stroke="#000000" d="M 1791 1027 L 1361 750" stroke-miterlimit="10"/></g><g transform="translate(-110,-294) scale(1,1)"><g><path fill="none" stroke="none"/><text fill="#000000" stroke="none" font-family="Arial" font-size="13px" font-style="normal" font-weight="normal" text-decoration="none" x="1515.2958984375" y="843.5">has a</text></g></g><g transform="translate(-110,-294) scale(1,1)"><g><path fill="none" stroke="none"/><text fill="#000000" stroke="none" font-family="Arial" font-size="13px" font-style="normal" font-weight="normal" text-decoration="none" x="1775.5" y="1010.5">1</text></g></g><g transform="translate(-110,-294) scale(1,1)"><g><path fill="none" stroke="none"/><text fill="#000000" stroke="none" font-family="Arial" font-size="13px" font-style="normal" font-weight="normal" text-decoration="none" x="1381.5" y="757.5">1</text></g></g><g transform="translate(-110,-294) scale(1,1)"><path fill="none" stroke="#000000" d="M 1791 509 L 1585 514" stroke-miterlimit="10"/></g><g transform="translate(-110,-294) scale(1,1)"><g><path fill="none" stroke="none"/><text fill="#000000" stroke="none" font-family="Arial" font-size="13px" font-style="normal" font-weight="normal" text-decoration="none" x="1659.2958984375" y="507.5">requests</text></g></g><g transform="translate(-110,-294) scale(1,1)"><g><path fill="none" stroke="none"/><text fill="#000000" stroke="none" font-family="Arial" font-size="13px" font-style="normal" font-weight="normal" text-decoration="none" x="1765.5" y="503.5">1</text></g></g><g transform="translate(-110,-294) scale(1,1)"><g><path fill="none" stroke="none"/><text fill="#000000" stroke="none" font-family="Arial" font-size="13px" font-style="normal" font-weight="normal" text-decoration="none" x="1603.220458984375" y="506.5">*</text></g></g><g transform="translate(-110,-294) scale(1,1)"><path fill="none" stroke="#000000" d="M 1561 577 L 1835 1023" stroke-miterlimit="10"/></g><g transform="translate(-110,-294) scale(1,1)"><g><path fill="none" stroke="none"/><text fill="#000000" stroke="none" font-family="Arial" font-size="13px" font-style="normal" font-weight="normal" text-decoration="none" x="1675.2958984375" y="867.5">related to</text></g></g><g transform="translate(-110,-294) scale(1,1)"><g><path fill="none" stroke="none"/><text fill="#000000" stroke="none" font-family="Arial" font-size="13px" font-style="normal" font-weight="normal" text-decoration="none" x="1558.220458984375" y="607.5">*</text></g></g><g transform="translate(-110,-294) scale(1,1)"><g><path fill="none" stroke="none"/><text fill="#000000" stroke="none" font-family="Arial" font-size="13px" font-style="normal" font-weight="normal" text-decoration="none" x="1809.5" y="1017.5">1</text></g></g><g transform="translate(-110,-294) scale(1,1)"><path fill="none" stroke="#000000" d="M 1856 1023 L 1822 849" stroke-miterlimit="10"/></g><g transform="translate(-110,-294) scale(1,1)"><g><path fill="none" stroke="none"/><text fill="#000000" stroke="none" font-family="Arial" font-size="13px" font-style="normal" font-weight="normal" text-decoration="none" x="1853.46044921875" y="943.5">supports</text></g></g><g transform="translate(-110,-294) scale(1,1)"><g><path fill="none" stroke="none"/><text fill="#000000" stroke="none" font-family="Arial" font-size="13px" font-style="normal" font-weight="normal" text-decoration="none" x="1861.58544921875" y="1005.5">*</text></g></g><g transform="translate(-110,-294) scale(1,1)"><g><path fill="none" stroke="none"/><text fill="#000000" stroke="none" font-family="Arial" font-size="13px" font-style="normal" font-weight="normal" text-decoration="none" x="1835.220458984375" y="873.5">*</text></g></g><g transform="translate(-110,-294) scale(1,1)"><path fill="none" stroke="#000000" d="M 1791 1057 L 1409 964" stroke-miterlimit="10"/></g><g transform="translate(-110,-294) scale(1,1)"><g><path fill="none" stroke="none"/><text fill="#000000" stroke="none" font-family="Arial" font-size="13px" font-style="normal" font-weight="normal" text-decoration="none" x="1586.2958984375" y="1003.5">has</text></g></g><g transform="translate(-110,-294) scale(1,1)"><g><path fill="none" stroke="none"/><text fill="#000000" stroke="none" font-family="Arial" font-size="13px" font-style="normal" font-weight="normal" text-decoration="none" x="1768.5" y="1045.5">1</text></g></g><g transform="translate(-110,-294) scale(1,1)"><g><path fill="none" stroke="none"/><text fill="#000000" stroke="none" font-family="Arial" font-size="13px" font-style="normal" font-weight="normal" text-decoration="none" x="1429.220458984375" y="962.5">*</text></g></g><g transform="translate(-110,-294) scale(1,1)"><path fill="none" stroke="#000000" d="M 251 541 L 1279 924" stroke-miterlimit="10"/></g><g transform="translate(-110,-294) scale(1,1)"><g><path fill="none" stroke="none"/><text fill="#000000" stroke="none" font-family="Arial" font-size="13px" font-style="normal" font-weight="normal" text-decoration="none" x="411.2958984375" y="587.5">presents at</text></g></g><g transform="translate(-110,-294) scale(1,1)"><g><path fill="none" stroke="none"/><text fill="#000000" stroke="none" font-family="Arial" font-size="13px" font-style="normal" font-weight="normal" text-decoration="none" x="262.726806640625" y="566.5">1</text></g></g><g transform="translate(-110,-294) scale(1,1)"><g><path fill="none" stroke="none"/><text fill="#000000" stroke="none" font-family="Arial" font-size="13px" font-style="normal" font-weight="normal" text-decoration="none" x="1251.220458984375" y="934.5">*</text></g></g><g transform="translate(-110,-294) scale(1,1)"><path fill="none" stroke="#000000" d="M 251 509 L 616 472 L 1039 503" stroke-miterlimit="10"/></g><g transform="translate(-110,-294) scale(1,1)"><g><path fill="none" stroke="none"/><text fill="#000000" stroke="none" font-family="Arial" font-size="13px" font-style="normal" font-weight="normal" text-decoration="none" x="578.5" y="463.5">performed by</text></g></g><g transform="translate(-110,-294) scale(1,1)"><g><path fill="none" stroke="none"/><text fill="#000000" stroke="none" font-family="Arial" font-size="13px" font-style="normal" font-weight="normal" text-decoration="none" x="269.5" y="500.5">1</text></g></g><g transform="translate(-110,-294) scale(1,1)"><g><path fill="none" stroke="none"/><text fill="#000000" stroke="none" font-family="Arial" font-size="13px" font-style="normal" font-weight="normal" text-decoration="none" x="1013.220458984375" y="491.5">*</text></g></g></g></svg>