<svg version="1.1" xmlns="http://www.w3.org/2000/svg" xmlns:xlink="http://www.w3.org/1999/xlink" width="1788" height="924"><defs/><g><g transform="translate(-38,-54) scale(1,1)"><rect fill="#C0C0C0" stroke="none" x="135" y="231" width="120" height="104" opacity="0.2"/></g><g transform="translate(-38,-54) scale(1,1)"><rect fill="#ffffff" stroke="none" x="128" y="224" width="120" height="104"/></g><g transform="translate(-38,-54) scale(1,1)"><path fill="none" stroke="#000000" d="M 128 224 L 248 224 L 248 328 L 128 328 L 128 224 Z Z" stroke-miterlimit="10"/></g><g transform="translate(-38,-54) scale(1,1)"><path fill="none" stroke="#000000" d="M 128 249 L 248 249" stroke-miterlimit="10"/></g><g transform="translate(-38,-54) scale(1,1)"><path fill="none" stroke="#000000" d="M 128 259 L 248 259" stroke-miterlimit="10"/></g><g transform="translate(-38,-54) scale(1,1)"><g><path fill="none" stroke="none"/><text fill="#000000" stroke="none" font-family="Arial" font-size="13px" font-style="normal" font-weight="bold" text-decoration="none" x="167.887451171875" y="243.5">نمونه گیر</text></g></g><g transform="translate(-38,-54) scale(1,1)"><rect fill="#C0C0C0" stroke="none" x="519" y="351" width="112" height="104" opacity="0.2"/></g><g transform="translate(-38,-54) scale(1,1)"><rect fill="#ffffff" stroke="none" x="512" y="344" width="112" height="104"/></g><g transform="translate(-38,-54) scale(1,1)"><path fill="none" stroke="#000000" d="M 512 344 L 624 344 L 624 448 L 512 448 L 512 344 Z Z" stroke-miterlimit="10"/></g><g transform="translate(-38,-54) scale(1,1)"><path fill="none" stroke="#000000" d="M 512 369 L 624 369" stroke-miterlimit="10"/></g><g transform="translate(-38,-54) scale(1,1)"><path fill="none" stroke="#000000" d="M 512 379 L 624 379" stroke-miterlimit="10"/></g><g transform="translate(-38,-54) scale(1,1)"><g><path fill="none" stroke="none"/><text fill="#000000" stroke="none" font-family="Arial" font-size="13px" font-style="normal" font-weight="bold" text-decoration="none" x="557.0185546875" y="363.5">نمونه</text></g></g><g transform="translate(-38,-54) scale(1,1)"><rect fill="#C0C0C0" stroke="none" x="1287" y="207" width="120" height="104" opacity="0.2"/></g><g transform="translate(-38,-54) scale(1,1)"><rect fill="#ffffff" stroke="none" x="1280" y="200" width="120" height="104"/></g><g transform="translate(-38,-54) scale(1,1)"><path fill="none" stroke="#000000" d="M 1280 200 L 1400 200 L 1400 304 L 1280 304 L 1280 200 Z Z" stroke-miterlimit="10"/></g><g transform="translate(-38,-54) scale(1,1)"><path fill="none" stroke="#000000" d="M 1280 225 L 1400 225" stroke-miterlimit="10"/></g><g transform="translate(-38,-54) scale(1,1)"><path fill="none" stroke="#000000" d="M 1280 235 L 1400 235" stroke-miterlimit="10"/></g><g transform="translate(-38,-54) scale(1,1)"><g><path fill="none" stroke="none"/><text fill="#000000" stroke="none" font-family="Arial" font-size="13px" font-style="normal" font-weight="bold" text-decoration="none" x="1301.637939453125" y="219.5">درخواست آزمایش</text></g></g><g transform="translate(-38,-54) scale(1,1)"><rect fill="#C0C0C0" stroke="none" x="1575" y="207" width="120" height="104" opacity="0.2"/></g><g transform="translate(-38,-54) scale(1,1)"><rect fill="#ffffff" stroke="none" x="1568" y="200" width="120" height="104"/></g><g transform="translate(-38,-54) scale(1,1)"><path fill="none" stroke="#000000" d="M 1568 200 L 1688 200 L 1688 304 L 1568 304 L 1568 200 Z Z" stroke-miterlimit="10"/></g><g transform="translate(-38,-54) scale(1,1)"><path fill="none" stroke="#000000" d="M 1568 225 L 1688 225" stroke-miterlimit="10"/></g><g transform="translate(-38,-54) scale(1,1)"><path fill="none" stroke="#000000" d="M 1568 235 L 1688 235" stroke-miterlimit="10"/></g><g transform="translate(-38,-54) scale(1,1)"><g><path fill="none" stroke="none"/><text fill="#000000" stroke="none" font-family="Arial" font-size="13px" font-style="normal" font-weight="bold" text-decoration="none" x="1617.59619140625" y="219.5">بیمار</text></g></g><g transform="translate(-38,-54) scale(1,1)"><rect fill="#C0C0C0" stroke="none" x="1415" y="407" width="128" height="104" opacity="0.2"/></g><g transform="translate(-38,-54) scale(1,1)"><rect fill="#ffffff" stroke="none" x="1408" y="400" width="128" height="104"/></g><g transform="translate(-38,-54) scale(1,1)"><path fill="none" stroke="#000000" d="M 1408 400 L 1536 400 L 1536 504 L 1408 504 L 1408 400 Z Z" stroke-miterlimit="10"/></g><g transform="translate(-38,-54) scale(1,1)"><path fill="none" stroke="#000000" d="M 1408 425 L 1536 425" stroke-miterlimit="10"/></g><g transform="translate(-38,-54) scale(1,1)"><path fill="none" stroke="#000000" d="M 1408 435 L 1536 435" stroke-miterlimit="10"/></g><g transform="translate(-38,-54) scale(1,1)"><g><path fill="none" stroke="none"/><text fill="#000000" stroke="none" font-family="Arial" font-size="13px" font-style="normal" font-weight="bold" text-decoration="none" x="1461.08203125" y="419.5">نسخه</text></g></g><g transform="translate(-38,-54) scale(1,1)"><rect fill="#C0C0C0" stroke="none" x="1703" y="407" width="120" height="96" opacity="0.2"/></g><g transform="translate(-38,-54) scale(1,1)"><rect fill="#ffffff" stroke="none" x="1696" y="400" width="120" height="96"/></g><g transform="translate(-38,-54) scale(1,1)"><path fill="none" stroke="#000000" d="M 1696 400 L 1816 400 L 1816 496 L 1696 496 L 1696 400 Z Z" stroke-miterlimit="10"/></g><g transform="translate(-38,-54) scale(1,1)"><path fill="none" stroke="#000000" d="M 1696 425 L 1816 425" stroke-miterlimit="10"/></g><g transform="translate(-38,-54) scale(1,1)"><path fill="none" stroke="#000000" d="M 1696 435 L 1816 435" stroke-miterlimit="10"/></g><g transform="translate(-38,-54) scale(1,1)"><g><path fill="none" stroke="none"/><text fill="#000000" stroke="none" font-family="Arial" font-size="13px" font-style="normal" font-weight="bold" text-decoration="none" x="1732.259765625" y="419.5">نسخه خوان</text></g></g><g transform="translate(-38,-54) scale(1,1)"><rect fill="#C0C0C0" stroke="none" x="271" y="463" width="120" height="96" opacity="0.2"/></g><g transform="translate(-38,-54) scale(1,1)"><rect fill="#ffffff" stroke="none" x="264" y="456" width="120" height="96"/></g><g transform="translate(-38,-54) scale(1,1)"><path fill="none" stroke="#000000" d="M 264 456 L 384 456 L 384 552 L 264 552 L 264 456 Z Z" stroke-miterlimit="10"/></g><g transform="translate(-38,-54) scale(1,1)"><path fill="none" stroke="#000000" d="M 264 481 L 384 481" stroke-miterlimit="10"/></g><g transform="translate(-38,-54) scale(1,1)"><path fill="none" stroke="#000000" d="M 264 491 L 384 491" stroke-miterlimit="10"/></g><g transform="translate(-38,-54) scale(1,1)"><g><path fill="none" stroke="none"/><text fill="#000000" stroke="none" font-family="Arial" font-size="13px" font-style="normal" font-weight="bold" text-decoration="none" x="282.333984375" y="475.5">گزارش نمونه گیری</text></g></g><g transform="translate(-38,-54) scale(1,1)"><rect fill="#C0C0C0" stroke="none" x="967" y="431" width="119" height="104" opacity="0.2"/></g><g transform="translate(-38,-54) scale(1,1)"><rect fill="#ffffff" stroke="none" x="960" y="424" width="119" height="104"/></g><g transform="translate(-38,-54) scale(1,1)"><path fill="none" stroke="#000000" d="M 960 424 L 1079 424 L 1079 528 L 960 528 L 960 424 Z Z" stroke-miterlimit="10"/></g><g transform="translate(-38,-54) scale(1,1)"><path fill="none" stroke="#000000" d="M 960 449 L 1079 449" stroke-miterlimit="10"/></g><g transform="translate(-38,-54) scale(1,1)"><path fill="none" stroke="#000000" d="M 960 459 L 1079 459" stroke-miterlimit="10"/></g><g transform="translate(-38,-54) scale(1,1)"><g><path fill="none" stroke="none"/><text fill="#000000" stroke="none" font-family="Arial" font-size="13px" font-style="normal" font-weight="bold" text-decoration="none" x="1011.327392578125" y="443.5">بیمه</text></g></g><g transform="translate(-38,-54) scale(1,1)"><path fill="none" stroke="#000000" d="M 220 329 L 295 455" stroke-miterlimit="10"/></g><g transform="translate(-38,-54) scale(1,1)"><g><path fill="none" stroke="none"/><text fill="#000000" stroke="none" font-family="Arial" font-size="13px" font-style="normal" font-weight="normal" text-decoration="none" x="216.5" y="359.5">1</text></g></g><g transform="translate(-38,-54) scale(1,1)"><g><path fill="none" stroke="none"/><text fill="#000000" stroke="none" font-family="Arial" font-size="13px" font-style="normal" font-weight="normal" text-decoration="none" x="270.5" y="448.5">*</text></g></g><g transform="translate(-38,-54) scale(1,1)"><path fill="none" stroke="#000000" d="M 1279 295 L 1080 433" stroke-miterlimit="10"/></g><g transform="translate(-38,-54) scale(1,1)"><g><path fill="none" stroke="none"/><text fill="#000000" stroke="none" font-family="Arial" font-size="13px" font-style="normal" font-weight="normal" text-decoration="none" x="1251.5" y="303.5">*</text></g></g><g transform="translate(-38,-54) scale(1,1)"><g><path fill="none" stroke="none"/><text fill="#000000" stroke="none" font-family="Arial" font-size="13px" font-style="normal" font-weight="normal" text-decoration="none" x="1080.5" y="416.5">1/0</text></g></g><g transform="translate(-38,-54) scale(1,1)"><path fill="none" stroke="#000000" d="M 1537 451 L 1695 449" stroke-miterlimit="10"/></g><g transform="translate(-38,-54) scale(1,1)"><g><path fill="none" stroke="none"/><text fill="#000000" stroke="none" font-family="Arial" font-size="13px" font-style="normal" font-weight="normal" text-decoration="none" x="1555.5" y="469.5">*</text></g></g><g transform="translate(-38,-54) scale(1,1)"><g><path fill="none" stroke="none"/><text fill="#000000" stroke="none" font-family="Arial" font-size="13px" font-style="normal" font-weight="normal" text-decoration="none" x="1669.5" y="467.5">1</text></g></g><g transform="translate(-38,-54) scale(1,1)"><path fill="none" stroke="#000000" d="M 1375 305 L 1437 399" stroke-miterlimit="10"/></g><g transform="translate(-38,-54) scale(1,1)"><g><path fill="none" stroke="none"/><text fill="#000000" stroke="none" font-family="Arial" font-size="13px" font-style="normal" font-weight="normal" text-decoration="none" x="1372.5" y="335.5">1</text></g></g><g transform="translate(-38,-54) scale(1,1)"><g><path fill="none" stroke="none"/><text fill="#000000" stroke="none" font-family="Arial" font-size="13px" font-style="normal" font-weight="normal" text-decoration="none" x="1411.5" y="393.5">*</text></g></g><g transform="translate(-38,-54) scale(1,1)"><rect fill="#C0C0C0" stroke="none" x="767" y="71" width="118.68212890625" height="88" opacity="0.2"/></g><g transform="translate(-38,-54) scale(1,1)"><rect fill="#ffffff" stroke="none" x="760" y="64" width="118.68212890625" height="88"/></g><g transform="translate(-38,-54) scale(1,1)"><path fill="none" stroke="#000000" d="M 760 64 L 878.68212890625 64 L 878.68212890625 152 L 760 152 L 760 64 Z Z" stroke-miterlimit="10"/></g><g transform="translate(-38,-54) scale(1,1)"><path fill="none" stroke="#000000" d="M 760 89 L 878.68212890625 89" stroke-miterlimit="10"/></g><g transform="translate(-38,-54) scale(1,1)"><path fill="none" stroke="#000000" d="M 760 99 L 878.68212890625 99" stroke-miterlimit="10"/></g><g transform="translate(-38,-54) scale(1,1)"><g><path fill="none" stroke="none"/><text fill="#000000" stroke="none" font-family="Arial" font-size="13px" font-style="normal" font-weight="bold" text-decoration="none" x="793.271240234375" y="83.5">کاربر سیستم</text></g></g><g transform="translate(-38,-54) scale(1,1)"><path fill="none" stroke="#000000" d="M 249 248 L 544 112 L 759 109" stroke-miterlimit="10"/></g><g transform="translate(-38,-54) scale(1,1)"><path fill="#FFFFFF" stroke="none" d="M 738.794092146627 117.70179796484597 L 759 109 L 738.5591651873915 100.86536588630727"/></g><g transform="translate(-38,-54) scale(1,1)"><path fill="none" stroke="#000000" d="M 738.794092146627 117.70179796484597 L 759 109 L 738.5591651873915 100.86536588630727 L 738.794092146627 117.70179796484597" stroke-miterlimit="10"/></g><g transform="translate(-38,-54) scale(1,1)"><path fill="none" stroke="#000000" d="M 1628 200 L 1628 112 L 879 112" stroke-miterlimit="10"/></g><g transform="translate(-38,-54) scale(1,1)"><path fill="#FFFFFF" stroke="none" d="M 899.3253497152483 103.58096448796803 L 879 112 L 899.3253497152483 120.41903551203197"/></g><g transform="translate(-38,-54) scale(1,1)"><path fill="none" stroke="#000000" d="M 899.3253497152483 103.58096448796803 L 879 112 L 899.3253497152483 120.41903551203197 L 899.3253497152483 103.58096448796803" stroke-miterlimit="10"/></g><g transform="translate(-38,-54) scale(1,1)"><path fill="none" stroke="#000000" d="M 1756 400 L 1756 97 L 879 97" stroke-miterlimit="10"/></g><g transform="translate(-38,-54) scale(1,1)"><path fill="#FFFFFF" stroke="none" d="M 899.3253497152483 88.58096448796803 L 879 97 L 899.3253497152483 105.41903551203197"/></g><g transform="translate(-38,-54) scale(1,1)"><path fill="none" stroke="#000000" d="M 899.3253497152483 88.58096448796803 L 879 97 L 899.3253497152483 105.41903551203197 L 899.3253497152483 88.58096448796803" stroke-miterlimit="10"/></g><g transform="translate(-38,-54) scale(1,1)"><rect fill="#C0C0C0" stroke="none" x="511" y="695" width="120" height="96" opacity="0.2"/></g><g transform="translate(-38,-54) scale(1,1)"><rect fill="#ffffff" stroke="none" x="504" y="688" width="120" height="96"/></g><g transform="translate(-38,-54) scale(1,1)"><path fill="none" stroke="#000000" d="M 504 688 L 624 688 L 624 784 L 504 784 L 504 688 Z Z" stroke-miterlimit="10"/></g><g transform="translate(-38,-54) scale(1,1)"><path fill="none" stroke="#000000" d="M 504 713 L 624 713" stroke-miterlimit="10"/></g><g transform="translate(-38,-54) scale(1,1)"><path fill="none" stroke="#000000" d="M 504 723 L 624 723" stroke-miterlimit="10"/></g><g transform="translate(-38,-54) scale(1,1)"><g><path fill="none" stroke="none"/><text fill="#000000" stroke="none" font-family="Arial" font-size="13px" font-style="normal" font-weight="bold" text-decoration="none" x="514.123291015625" y="707.5">برنامه نمونه گیری روز</text></g></g><g transform="translate(-38,-54) scale(1,1)"><path fill="none" stroke="#000000" d="M 184 328 L 184 744 L 504 744" stroke-miterlimit="10"/></g><g transform="translate(-38,-54) scale(1,1)"><g><path fill="none" stroke="none"/><text fill="#000000" stroke="none" font-family="Arial" font-size="13px" font-style="normal" font-weight="normal" text-decoration="none" x="167.5" y="355.5">1</text></g></g><g transform="translate(-38,-54) scale(1,1)"><g><path fill="none" stroke="none"/><text fill="#000000" stroke="none" font-family="Arial" font-size="13px" font-style="normal" font-weight="normal" text-decoration="none" x="478.5" y="762.5">1</text></g></g><g transform="translate(-38,-54) scale(1,1)"><path fill="none" stroke="#000000" d="M 375 553 L 513 687" stroke-miterlimit="10"/></g><g transform="translate(-38,-54) scale(1,1)"><g><path fill="none" stroke="none"/><text fill="#000000" stroke="none" font-family="Arial" font-size="13px" font-style="normal" font-weight="normal" text-decoration="none" x="377.5" y="583.5">1</text></g></g><g transform="translate(-38,-54) scale(1,1)"><g><path fill="none" stroke="none"/><text fill="#000000" stroke="none" font-family="Arial" font-size="13px" font-style="normal" font-weight="normal" text-decoration="none" x="484.5" y="686.5">1</text></g></g><g transform="translate(-38,-54) scale(1,1)"><rect fill="#C0C0C0" stroke="none" x="615" y="887" width="120" height="88" opacity="0.2"/></g><g transform="translate(-38,-54) scale(1,1)"><rect fill="#ffffff" stroke="none" x="608" y="880" width="120" height="88"/></g><g transform="translate(-38,-54) scale(1,1)"><path fill="none" stroke="#000000" d="M 608 880 L 728 880 L 728 968 L 608 968 L 608 880 Z Z" stroke-miterlimit="10"/></g><g transform="translate(-38,-54) scale(1,1)"><path fill="none" stroke="#000000" d="M 608 905 L 728 905" stroke-miterlimit="10"/></g><g transform="translate(-38,-54) scale(1,1)"><path fill="none" stroke="#000000" d="M 608 915 L 728 915" stroke-miterlimit="10"/></g><g transform="translate(-38,-54) scale(1,1)"><g><path fill="none" stroke="none"/><text fill="#000000" stroke="none" font-family="Arial" font-size="13px" font-style="normal" font-weight="bold" text-decoration="none" x="633.148193359375" y="899.5">کیت نمونه گیری</text></g></g><g transform="translate(-38,-54) scale(1,1)"><path fill="none" stroke="#000000" d="M 128 280 L 48 280 L 48 920 L 608 920" stroke-miterlimit="10"/></g><g transform="translate(-38,-54) scale(1,1)"><g><path fill="none" stroke="none"/><text fill="#000000" stroke="none" font-family="Arial" font-size="13px" font-style="normal" font-weight="normal" text-decoration="none" x="102.5" y="273.5">1</text></g></g><g transform="translate(-38,-54) scale(1,1)"><g><path fill="none" stroke="none"/><text fill="#000000" stroke="none" font-family="Arial" font-size="13px" font-style="normal" font-weight="normal" text-decoration="none" x="583.197265625" y="938.5">*</text></g></g><g transform="translate(-38,-54) scale(1,1)"><path fill="none" stroke="#000000" d="M 1401 252 L 1567 252" stroke-miterlimit="10"/></g><g transform="translate(-38,-54) scale(1,1)"><g><path fill="none" stroke="none"/><text fill="#000000" stroke="none" font-family="Arial" font-size="13px" font-style="normal" font-weight="normal" text-decoration="none" x="1419.5" y="270.5">*</text></g></g><g transform="translate(-38,-54) scale(1,1)"><g><path fill="none" stroke="none"/><text fill="#000000" stroke="none" font-family="Arial" font-size="13px" font-style="normal" font-weight="normal" text-decoration="none" x="1541.5" y="270.5">1</text></g></g><g transform="translate(-38,-54) scale(1,1)"><rect fill="#C0C0C0" stroke="none" x="767" y="215" width="120" height="104" opacity="0.2"/></g><g transform="translate(-38,-54) scale(1,1)"><rect fill="#ffffff" stroke="none" x="760" y="208" width="120" height="104"/></g><g transform="translate(-38,-54) scale(1,1)"><path fill="none" stroke="#000000" d="M 760 208 L 880 208 L 880 312 L 760 312 L 760 208 Z Z" stroke-miterlimit="10"/></g><g transform="translate(-38,-54) scale(1,1)"><path fill="none" stroke="#000000" d="M 760 233 L 880 233" stroke-miterlimit="10"/></g><g transform="translate(-38,-54) scale(1,1)"><path fill="none" stroke="#000000" d="M 760 243 L 880 243" stroke-miterlimit="10"/></g><g transform="translate(-38,-54) scale(1,1)"><g><path fill="none" stroke="none"/><text fill="#000000" stroke="none" font-family="Arial" font-size="13px" font-style="normal" font-weight="bold" text-decoration="none" x="795.7392578125" y="227.5">نمونه گیری</text></g></g><g transform="translate(-38,-54) scale(1,1)"><path fill="none" stroke="#000000" d="M 881 259 L 1279 253" stroke-miterlimit="10"/></g><g transform="translate(-38,-54) scale(1,1)"><g><path fill="none" stroke="none"/><text fill="#000000" stroke="none" font-family="Arial" font-size="13px" font-style="normal" font-weight="normal" text-decoration="none" x="894.5" y="277.5">1..</text></g></g><g transform="translate(-38,-54) scale(1,1)"><g><path fill="none" stroke="none"/><text fill="#000000" stroke="none" font-family="Arial" font-size="13px" font-style="normal" font-weight="normal" text-decoration="none" x="1253.5" y="271.5">1</text></g></g><g transform="translate(-38,-54) scale(1,1)"><path fill="none" stroke="#000000" d="M 625 365 L 759 293" stroke-miterlimit="10"/></g><g transform="translate(-38,-54) scale(1,1)"><g><path fill="none" stroke="none"/><text fill="#000000" stroke="none" font-family="Arial" font-size="13px" font-style="normal" font-weight="normal" text-decoration="none" x="641.5" y="371.5">1..</text></g></g><g transform="translate(-38,-54) scale(1,1)"><g><path fill="none" stroke="none"/><text fill="#000000" stroke="none" font-family="Arial" font-size="13px" font-style="normal" font-weight="normal" text-decoration="none" x="741.5" y="320.5">1</text></g></g><g transform="translate(-38,-54) scale(1,1)"><rect fill="#C0C0C0" stroke="none" x="1127" y="463" width="128" height="104" opacity="0.2"/></g><g transform="translate(-38,-54) scale(1,1)"><rect fill="#ffffff" stroke="none" x="1120" y="456" width="128" height="104"/></g><g transform="translate(-38,-54) scale(1,1)"><path fill="none" stroke="#000000" d="M 1120 456 L 1248 456 L 1248 560 L 1120 560 L 1120 456 Z Z" stroke-miterlimit="10"/></g><g transform="translate(-38,-54) scale(1,1)"><path fill="none" stroke="#000000" d="M 1120 481 L 1248 481" stroke-miterlimit="10"/></g><g transform="translate(-38,-54) scale(1,1)"><path fill="none" stroke="#000000" d="M 1120 491 L 1248 491" stroke-miterlimit="10"/></g><g transform="translate(-38,-54) scale(1,1)"><g><path fill="none" stroke="none"/><text fill="#000000" stroke="none" font-family="Arial" font-size="13px" font-style="normal" font-weight="bold" text-decoration="none" x="1162.630615234375" y="475.5">نوبت دهی</text></g></g><g transform="translate(-38,-54) scale(1,1)"><path fill="none" stroke="#000000" d="M 1308 305 L 1216 455" stroke-miterlimit="10"/></g><g transform="translate(-38,-54) scale(1,1)"><g><path fill="none" stroke="none"/><text fill="#000000" stroke="none" font-family="Arial" font-size="13px" font-style="normal" font-weight="normal" text-decoration="none" x="1282.5" y="322.5">1</text></g></g><g transform="translate(-38,-54) scale(1,1)"><g><path fill="none" stroke="none"/><text fill="#000000" stroke="none" font-family="Arial" font-size="13px" font-style="normal" font-weight="normal" text-decoration="none" x="1212.5" y="436.5">1</text></g></g><g transform="translate(-38,-54) scale(1,1)"><path fill="none" stroke="#000000" d="M 249 274 L 759 262" stroke-miterlimit="10"/></g><g transform="translate(-38,-54) scale(1,1)"><g><path fill="none" stroke="none"/><text fill="#000000" stroke="none" font-family="Arial" font-size="13px" font-style="normal" font-weight="normal" text-decoration="none" x="266.5" y="291.5">1</text></g></g><g transform="translate(-38,-54) scale(1,1)"><g><path fill="none" stroke="none"/><text fill="#000000" stroke="none" font-family="Arial" font-size="13px" font-style="normal" font-weight="normal" text-decoration="none" x="734.5" y="281.5">*</text></g></g><g transform="translate(-38,-54) scale(1,1)"><path fill="none" stroke="#000000" d="M 791 313 L 590 687" stroke-miterlimit="10"/></g><g transform="translate(-38,-54) scale(1,1)"><path fill="#FFFFFF" stroke="none" d="M 591.103034867788 676.055443632543 L 590 687 L 598.5189334594054 680.0409934103908 L 600.4147434688145 667.6213230978277"/></g><g transform="translate(-38,-54) scale(1,1)"><path fill="none" stroke="#000000" d="M 591.103034867788 676.055443632543 L 590 687 L 598.5189334594054 680.0409934103908 L 600.4147434688145 667.6213230978277 L 591.103034867788 676.055443632543" stroke-miterlimit="10"/></g><g transform="translate(-38,-54) scale(1,1)"><g><path fill="none" stroke="none"/><text fill="#000000" stroke="none" font-family="Arial" font-size="13px" font-style="normal" font-weight="normal" text-decoration="none" x="766.197265625" y="332.5">*</text></g></g><g transform="translate(-38,-54) scale(1,1)"><path fill="none" stroke="#000000" d="M 249 295 L 511 378" stroke-miterlimit="10"/></g><g transform="translate(-38,-54) scale(1,1)"><g><path fill="none" stroke="none"/><text fill="#000000" stroke="none" font-family="Arial" font-size="13px" font-style="normal" font-weight="normal" text-decoration="none" x="261.5" y="319.5">1</text></g></g><g transform="translate(-38,-54) scale(1,1)"><g><path fill="none" stroke="none"/><text fill="#000000" stroke="none" font-family="Arial" font-size="13px" font-style="normal" font-weight="normal" text-decoration="none" x="483.5" y="389.5">*</text></g></g><g transform="translate(-38,-54) scale(1,1)"><path fill="none" stroke="#000000" d="M 808 313 L 678 879" stroke-miterlimit="10"/></g><g transform="translate(-38,-54) scale(1,1)"><g><path fill="none" stroke="none"/><text fill="#000000" stroke="none" font-family="Arial" font-size="13px" font-style="normal" font-weight="normal" text-decoration="none" x="786.5" y="337.5">1</text></g></g><g transform="translate(-38,-54) scale(1,1)"><g><path fill="none" stroke="none"/><text fill="#000000" stroke="none" font-family="Arial" font-size="13px" font-style="normal" font-weight="normal" text-decoration="none" x="662.5" y="861.5">1..</text></g></g><g transform="translate(-38,-54) scale(1,1)"><rect fill="#C0C0C0" stroke="none" x="1199" y="775" width="128" height="104" opacity="0.2"/></g><g transform="translate(-38,-54) scale(1,1)"><rect fill="#ffffff" stroke="none" x="1192" y="768" width="128" height="104"/></g><g transform="translate(-38,-54) scale(1,1)"><path fill="none" stroke="#000000" d="M 1192 768 L 1320 768 L 1320 872 L 1192 872 L 1192 768 Z Z" stroke-miterlimit="10"/></g><g transform="translate(-38,-54) scale(1,1)"><path fill="none" stroke="#000000" d="M 1192 793 L 1320 793" stroke-miterlimit="10"/></g><g transform="translate(-38,-54) scale(1,1)"><path fill="none" stroke="#000000" d="M 1192 803 L 1320 803" stroke-miterlimit="10"/></g><g transform="translate(-38,-54) scale(1,1)"><g><path fill="none" stroke="none"/><text fill="#000000" stroke="none" font-family="Arial" font-size="13px" font-style="normal" font-weight="bold" text-decoration="none" x="1235.716064453125" y="787.5">آزمایشگاه</text></g></g><g transform="translate(-38,-54) scale(1,1)"><path fill="none" stroke="#000000" d="M 1332 305 L 1264 767" stroke-miterlimit="10"/></g><g transform="translate(-38,-54) scale(1,1)"><g><path fill="none" stroke="none"/><text fill="#000000" stroke="none" font-family="Arial" font-size="13px" font-style="normal" font-weight="normal" text-decoration="none" x="1313.5" y="330.5">*</text></g></g><g transform="translate(-38,-54) scale(1,1)"><g><path fill="none" stroke="none"/><text fill="#000000" stroke="none" font-family="Arial" font-size="13px" font-style="normal" font-weight="normal" text-decoration="none" x="1250.5" y="749.5">1</text></g></g><g transform="translate(-38,-54) scale(1,1)"><path fill="none" stroke="#000000" d="M 729 913 L 1191 831" stroke-miterlimit="10"/></g><g transform="translate(-38,-54) scale(1,1)"><g><path fill="none" stroke="none"/><text fill="#000000" stroke="none" font-family="Arial" font-size="13px" font-style="normal" font-weight="normal" text-decoration="none" x="749.5" y="927.5">*</text></g></g><g transform="translate(-38,-54) scale(1,1)"><g><path fill="none" stroke="none"/><text fill="#000000" stroke="none" font-family="Arial" font-size="13px" font-style="normal" font-weight="normal" text-decoration="none" x="1167.5" y="853.5">1</text></g></g><g transform="translate(-38,-54) scale(1,1)"><rect fill="#C0C0C0" stroke="none" x="815" y="543" width="120" height="104" opacity="0.2"/></g><g transform="translate(-38,-54) scale(1,1)"><rect fill="#ffffff" stroke="none" x="808" y="536" width="120" height="104"/></g><g transform="translate(-38,-54) scale(1,1)"><path fill="none" stroke="#000000" d="M 808 536 L 928 536 L 928 640 L 808 640 L 808 536 Z Z" stroke-miterlimit="10"/></g><g transform="translate(-38,-54) scale(1,1)"><path fill="none" stroke="#000000" d="M 808 561 L 928 561" stroke-miterlimit="10"/></g><g transform="translate(-38,-54) scale(1,1)"><path fill="none" stroke="#000000" d="M 808 571 L 928 571" stroke-miterlimit="10"/></g><g transform="translate(-38,-54) scale(1,1)"><g><path fill="none" stroke="none"/><text fill="#000000" stroke="none" font-family="Arial" font-size="13px" font-style="normal" font-weight="bold" text-decoration="none" x="840.05126953125" y="555.5">نتیجه آزمایش</text></g></g><g transform="translate(-38,-54) scale(1,1)"><path fill="none" stroke="#000000" d="M 828 313 L 860 535" stroke-miterlimit="10"/></g><g transform="translate(-38,-54) scale(1,1)"><g><path fill="none" stroke="none"/><text fill="#000000" stroke="none" font-family="Arial" font-size="13px" font-style="normal" font-weight="normal" text-decoration="none" x="814.5" y="342.5">1</text></g></g><g transform="translate(-38,-54) scale(1,1)"><g><path fill="none" stroke="none"/><text fill="#000000" stroke="none" font-family="Arial" font-size="13px" font-style="normal" font-weight="normal" text-decoration="none" x="840.5" y="521.5">1</text></g></g><g transform="translate(-38,-54) scale(1,1)"><path fill="none" stroke="#000000" d="M 929 624 L 1191 781" stroke-miterlimit="10"/></g><g transform="translate(-38,-54) scale(1,1)"><g><path fill="none" stroke="none"/><text fill="#000000" stroke="none" font-family="Arial" font-size="13px" font-style="normal" font-weight="normal" text-decoration="none" x="938.5" y="651.5">*</text></g></g><g transform="translate(-38,-54) scale(1,1)"><g><path fill="none" stroke="none"/><text fill="#000000" stroke="none" font-family="Arial" font-size="13px" font-style="normal" font-weight="normal" text-decoration="none" x="1162.5" y="786.5">1</text></g></g></g></svg>