<svg version="1.1" xmlns="http://www.w3.org/2000/svg" xmlns:xlink="http://www.w3.org/1999/xlink" width="1165" height="532"><defs/><g><g transform="translate(-6,-46) scale(1,1)"><rect fill="#C0C0C0" stroke="none" x="255" y="183" width="120" height="104" opacity="0.2"/></g><g transform="translate(-6,-46) scale(1,1)"><rect fill="#ffffff" stroke="none" x="248" y="176" width="120" height="104"/></g><g transform="translate(-6,-46) scale(1,1)"><path fill="none" stroke="#000000" d="M 248 176 L 368 176 L 368 280 L 248 280 L 248 176 Z Z" stroke-miterlimit="10"/></g><g transform="translate(-6,-46) scale(1,1)"><path fill="none" stroke="#000000" d="M 248 201 L 368 201" stroke-miterlimit="10"/></g><g transform="translate(-6,-46) scale(1,1)"><path fill="none" stroke="#000000" d="M 248 211 L 368 211" stroke-miterlimit="10"/></g><g transform="translate(-6,-46) scale(1,1)"><g><path fill="none" stroke="none"/><text fill="#000000" stroke="none" font-family="Arial" font-size="13px" font-style="normal" font-weight="bold" text-decoration="none" x="287.887451171875" y="195.5">نمونه گیر</text></g></g><g transform="translate(-6,-46) scale(1,1)"><rect fill="#C0C0C0" stroke="none" x="423" y="183" width="112" height="104" opacity="0.2"/></g><g transform="translate(-6,-46) scale(1,1)"><rect fill="#ffffff" stroke="none" x="416" y="176" width="112" height="104"/></g><g transform="translate(-6,-46) scale(1,1)"><path fill="none" stroke="#000000" d="M 416 176 L 528 176 L 528 280 L 416 280 L 416 176 Z Z" stroke-miterlimit="10"/></g><g transform="translate(-6,-46) scale(1,1)"><path fill="none" stroke="#000000" d="M 416 201 L 528 201" stroke-miterlimit="10"/></g><g transform="translate(-6,-46) scale(1,1)"><path fill="none" stroke="#000000" d="M 416 211 L 528 211" stroke-miterlimit="10"/></g><g transform="translate(-6,-46) scale(1,1)"><g><path fill="none" stroke="none"/><text fill="#000000" stroke="none" font-family="Arial" font-size="13px" font-style="normal" font-weight="bold" text-decoration="none" x="461.0185546875" y="195.5">نمونه</text></g></g><g transform="translate(-6,-46) scale(1,1)"><rect fill="#C0C0C0" stroke="none" x="583" y="183" width="120" height="104" opacity="0.2"/></g><g transform="translate(-6,-46) scale(1,1)"><rect fill="#ffffff" stroke="none" x="576" y="176" width="120" height="104"/></g><g transform="translate(-6,-46) scale(1,1)"><path fill="none" stroke="#000000" d="M 576 176 L 696 176 L 696 280 L 576 280 L 576 176 Z Z" stroke-miterlimit="10"/></g><g transform="translate(-6,-46) scale(1,1)"><path fill="none" stroke="#000000" d="M 576 201 L 696 201" stroke-miterlimit="10"/></g><g transform="translate(-6,-46) scale(1,1)"><path fill="none" stroke="#000000" d="M 576 211 L 696 211" stroke-miterlimit="10"/></g><g transform="translate(-6,-46) scale(1,1)"><g><path fill="none" stroke="none"/><text fill="#000000" stroke="none" font-family="Arial" font-size="13px" font-style="normal" font-weight="bold" text-decoration="none" x="597.637939453125" y="195.5">درخواست آزمایش</text></g></g><g transform="translate(-6,-46) scale(1,1)"><rect fill="#C0C0C0" stroke="none" x="935" y="183" width="120" height="104" opacity="0.2"/></g><g transform="translate(-6,-46) scale(1,1)"><rect fill="#ffffff" stroke="none" x="928" y="176" width="120" height="104"/></g><g transform="translate(-6,-46) scale(1,1)"><path fill="none" stroke="#000000" d="M 928 176 L 1048 176 L 1048 280 L 928 280 L 928 176 Z Z" stroke-miterlimit="10"/></g><g transform="translate(-6,-46) scale(1,1)"><path fill="none" stroke="#000000" d="M 928 201 L 1048 201" stroke-miterlimit="10"/></g><g transform="translate(-6,-46) scale(1,1)"><path fill="none" stroke="#000000" d="M 928 211 L 1048 211" stroke-miterlimit="10"/></g><g transform="translate(-6,-46) scale(1,1)"><g><path fill="none" stroke="none"/><text fill="#000000" stroke="none" font-family="Arial" font-size="13px" font-style="normal" font-weight="bold" text-decoration="none" x="977.59619140625" y="195.5">بیمار</text></g></g><g transform="translate(-6,-46) scale(1,1)"><rect fill="#C0C0C0" stroke="none" x="759" y="183" width="128" height="104" opacity="0.2"/></g><g transform="translate(-6,-46) scale(1,1)"><rect fill="#ffffff" stroke="none" x="752" y="176" width="128" height="104"/></g><g transform="translate(-6,-46) scale(1,1)"><path fill="none" stroke="#000000" d="M 752 176 L 880 176 L 880 280 L 752 280 L 752 176 Z Z" stroke-miterlimit="10"/></g><g transform="translate(-6,-46) scale(1,1)"><path fill="none" stroke="#000000" d="M 752 201 L 880 201" stroke-miterlimit="10"/></g><g transform="translate(-6,-46) scale(1,1)"><path fill="none" stroke="#000000" d="M 752 211 L 880 211" stroke-miterlimit="10"/></g><g transform="translate(-6,-46) scale(1,1)"><g><path fill="none" stroke="none"/><text fill="#000000" stroke="none" font-family="Arial" font-size="13px" font-style="normal" font-weight="bold" text-decoration="none" x="805.08203125" y="195.5">نسخه</text></g></g><g transform="translate(-6,-46) scale(1,1)"><rect fill="#C0C0C0" stroke="none" x="767" y="351" width="120" height="96" opacity="0.2"/></g><g transform="translate(-6,-46) scale(1,1)"><rect fill="#ffffff" stroke="none" x="760" y="344" width="120" height="96"/></g><g transform="translate(-6,-46) scale(1,1)"><path fill="none" stroke="#000000" d="M 760 344 L 880 344 L 880 440 L 760 440 L 760 344 Z Z" stroke-miterlimit="10"/></g><g transform="translate(-6,-46) scale(1,1)"><path fill="none" stroke="#000000" d="M 760 369 L 880 369" stroke-miterlimit="10"/></g><g transform="translate(-6,-46) scale(1,1)"><path fill="none" stroke="#000000" d="M 760 379 L 880 379" stroke-miterlimit="10"/></g><g transform="translate(-6,-46) scale(1,1)"><g><path fill="none" stroke="none"/><text fill="#000000" stroke="none" font-family="Arial" font-size="13px" font-style="normal" font-weight="bold" text-decoration="none" x="796.259765625" y="363.5">نسخه خوان</text></g></g><g transform="translate(-6,-46) scale(1,1)"><rect fill="#C0C0C0" stroke="none" x="255" y="351" width="120" height="96" opacity="0.2"/></g><g transform="translate(-6,-46) scale(1,1)"><rect fill="#ffffff" stroke="none" x="248" y="344" width="120" height="96"/></g><g transform="translate(-6,-46) scale(1,1)"><path fill="none" stroke="#000000" d="M 248 344 L 368 344 L 368 440 L 248 440 L 248 344 Z Z" stroke-miterlimit="10"/></g><g transform="translate(-6,-46) scale(1,1)"><path fill="none" stroke="#000000" d="M 248 369 L 368 369" stroke-miterlimit="10"/></g><g transform="translate(-6,-46) scale(1,1)"><path fill="none" stroke="#000000" d="M 248 379 L 368 379" stroke-miterlimit="10"/></g><g transform="translate(-6,-46) scale(1,1)"><g><path fill="none" stroke="none"/><text fill="#000000" stroke="none" font-family="Arial" font-size="13px" font-style="normal" font-weight="bold" text-decoration="none" x="266.333984375" y="363.5">گزارش نمونه گیری</text></g></g><g transform="translate(-6,-46) scale(1,1)"><rect fill="#C0C0C0" stroke="none" x="591" y="351" width="119" height="95" opacity="0.2"/></g><g transform="translate(-6,-46) scale(1,1)"><rect fill="#ffffff" stroke="none" x="584" y="344" width="119" height="95"/></g><g transform="translate(-6,-46) scale(1,1)"><path fill="none" stroke="#000000" d="M 584 344 L 703 344 L 703 439 L 584 439 L 584 344 Z Z" stroke-miterlimit="10"/></g><g transform="translate(-6,-46) scale(1,1)"><path fill="none" stroke="#000000" d="M 584 369 L 703 369" stroke-miterlimit="10"/></g><g transform="translate(-6,-46) scale(1,1)"><path fill="none" stroke="#000000" d="M 584 379 L 703 379" stroke-miterlimit="10"/></g><g transform="translate(-6,-46) scale(1,1)"><g><path fill="none" stroke="none"/><text fill="#000000" stroke="none" font-family="Arial" font-size="13px" font-style="normal" font-weight="bold" text-decoration="none" x="635.327392578125" y="363.5">بیمه</text></g></g><g transform="translate(-6,-46) scale(1,1)"><path fill="none" stroke="#000000" d="M 529 228 L 575 228" stroke-miterlimit="10"/></g><g transform="translate(-6,-46) scale(1,1)"><path fill="none" stroke="#000000" d="M 308 281 L 308 343" stroke-miterlimit="10"/></g><g transform="translate(-6,-46) scale(1,1)"><path fill="none" stroke="#000000" d="M 638 281 L 641 343" stroke-miterlimit="10"/></g><g transform="translate(-6,-46) scale(1,1)"><path fill="none" stroke="#000000" d="M 817 281 L 819 343" stroke-miterlimit="10"/></g><g transform="translate(-6,-46) scale(1,1)"><path fill="none" stroke="#000000" d="M 697 228 L 751 228" stroke-miterlimit="10"/></g><g transform="translate(-6,-46) scale(1,1)"><path fill="none" stroke="#000000" d="M 881 228 L 927 228" stroke-miterlimit="10"/></g><g transform="translate(-6,-46) scale(1,1)"><rect fill="#C0C0C0" stroke="none" x="591" y="63" width="118.68212890625" height="88" opacity="0.2"/></g><g transform="translate(-6,-46) scale(1,1)"><rect fill="#ffffff" stroke="none" x="584" y="56" width="118.68212890625" height="88"/></g><g transform="translate(-6,-46) scale(1,1)"><path fill="none" stroke="#000000" d="M 584 56 L 702.68212890625 56 L 702.68212890625 144 L 584 144 L 584 56 Z Z" stroke-miterlimit="10"/></g><g transform="translate(-6,-46) scale(1,1)"><path fill="none" stroke="#000000" d="M 584 81 L 702.68212890625 81" stroke-miterlimit="10"/></g><g transform="translate(-6,-46) scale(1,1)"><path fill="none" stroke="#000000" d="M 584 91 L 702.68212890625 91" stroke-miterlimit="10"/></g><g transform="translate(-6,-46) scale(1,1)"><g><path fill="none" stroke="none"/><text fill="#000000" stroke="none" font-family="Arial" font-size="13px" font-style="normal" font-weight="bold" text-decoration="none" x="617.271240234375" y="75.5">کاربر سیستم</text></g></g><g transform="translate(-6,-46) scale(1,1)"><path fill="none" stroke="#000000" d="M 334 175 L 368 104 L 583 101" stroke-miterlimit="10"/></g><g transform="translate(-6,-46) scale(1,1)"><path fill="#FFFFFF" stroke="none" d="M 562.794092146627 109.70179796484597 L 583 101 L 562.5591651873915 92.86536588630727"/></g><g transform="translate(-6,-46) scale(1,1)"><path fill="none" stroke="#000000" d="M 562.794092146627 109.70179796484597 L 583 101 L 562.5591651873915 92.86536588630727 L 562.794092146627 109.70179796484597" stroke-miterlimit="10"/></g><g transform="translate(-6,-46) scale(1,1)"><path fill="none" stroke="#000000" d="M 984 176 L 984 104 L 703 104" stroke-miterlimit="10"/></g><g transform="translate(-6,-46) scale(1,1)"><path fill="#FFFFFF" stroke="none" d="M 723.3253497152483 95.58096448796803 L 703 104 L 723.3253497152483 112.41903551203197"/></g><g transform="translate(-6,-46) scale(1,1)"><path fill="none" stroke="#000000" d="M 723.3253497152483 95.58096448796803 L 703 104 L 723.3253497152483 112.41903551203197 L 723.3253497152483 95.58096448796803" stroke-miterlimit="10"/></g><g transform="translate(-6,-46) scale(1,1)"><path fill="none" stroke="#000000" d="M 820 440 L 820 480 L 1160 480 L 1160 89 L 703 89" stroke-miterlimit="10"/></g><g transform="translate(-6,-46) scale(1,1)"><path fill="#FFFFFF" stroke="none" d="M 723.3253497152483 80.58096448796803 L 703 89 L 723.3253497152483 97.41903551203197"/></g><g transform="translate(-6,-46) scale(1,1)"><path fill="none" stroke="#000000" d="M 723.3253497152483 80.58096448796803 L 703 89 L 723.3253497152483 97.41903551203197 L 723.3253497152483 80.58096448796803" stroke-miterlimit="10"/></g><g transform="translate(-6,-46) scale(1,1)"><rect fill="#C0C0C0" stroke="none" x="415" y="351" width="120" height="96" opacity="0.2"/></g><g transform="translate(-6,-46) scale(1,1)"><rect fill="#ffffff" stroke="none" x="408" y="344" width="120" height="96"/></g><g transform="translate(-6,-46) scale(1,1)"><path fill="none" stroke="#000000" d="M 408 344 L 528 344 L 528 440 L 408 440 L 408 344 Z Z" stroke-miterlimit="10"/></g><g transform="translate(-6,-46) scale(1,1)"><path fill="none" stroke="#000000" d="M 408 369 L 528 369" stroke-miterlimit="10"/></g><g transform="translate(-6,-46) scale(1,1)"><path fill="none" stroke="#000000" d="M 408 379 L 528 379" stroke-miterlimit="10"/></g><g transform="translate(-6,-46) scale(1,1)"><g><path fill="none" stroke="none"/><text fill="#000000" stroke="none" font-family="Arial" font-size="13px" font-style="normal" font-weight="bold" text-decoration="none" x="418.123291015625" y="363.5">برنامه نمونه گیری روز</text></g></g><g transform="translate(-6,-46) scale(1,1)"><path fill="none" stroke="#000000" d="M 360 281 L 420 343" stroke-miterlimit="10"/></g><g transform="translate(-6,-46) scale(1,1)"><path fill="none" stroke="#000000" d="M 369 392 L 407 392" stroke-miterlimit="10"/></g><g transform="translate(-6,-46) scale(1,1)"><path fill="none" stroke="#000000" d="M 471 281 L 469 343" stroke-miterlimit="10"/></g><g transform="translate(-6,-46) scale(1,1)"><path fill="#FFFFFF" stroke="none" d="M 465.1203284999246 332.70688827168857 L 469 343 L 473.5349870761203 332.9783288709207 L 469.7093084682411 321.0114374845266"/></g><g transform="translate(-6,-46) scale(1,1)"><path fill="none" stroke="#000000" d="M 465.1203284999246 332.70688827168857 L 469 343 L 473.5349870761203 332.9783288709207 L 469.7093084682411 321.0114374845266 L 465.1203284999246 332.70688827168857" stroke-miterlimit="10"/></g><g transform="translate(-6,-46) scale(1,1)"><rect fill="#C0C0C0" stroke="none" x="567" y="487" width="120" height="88" opacity="0.2"/></g><g transform="translate(-6,-46) scale(1,1)"><rect fill="#ffffff" stroke="none" x="560" y="480" width="120" height="88"/></g><g transform="translate(-6,-46) scale(1,1)"><path fill="none" stroke="#000000" d="M 560 480 L 680 480 L 680 568 L 560 568 L 560 480 Z Z" stroke-miterlimit="10"/></g><g transform="translate(-6,-46) scale(1,1)"><path fill="none" stroke="#000000" d="M 560 505 L 680 505" stroke-miterlimit="10"/></g><g transform="translate(-6,-46) scale(1,1)"><path fill="none" stroke="#000000" d="M 560 515 L 680 515" stroke-miterlimit="10"/></g><g transform="translate(-6,-46) scale(1,1)"><g><path fill="none" stroke="none"/><text fill="#000000" stroke="none" font-family="Arial" font-size="13px" font-style="normal" font-weight="bold" text-decoration="none" x="585.148193359375" y="499.5">کیت نمونه گیری</text></g></g><g transform="translate(-6,-46) scale(1,1)"><path fill="none" stroke="#000000" d="M 598 479 L 499 281" stroke-miterlimit="10"/></g><g transform="translate(-6,-46) scale(1,1)"><path fill="none" stroke="#000000" d="M 252 281 Q 16 504 559 522" stroke-miterlimit="10"/></g></g></svg>