<svg version="1.1" xmlns="http://www.w3.org/2000/svg" xmlns:xlink="http://www.w3.org/1999/xlink" width="671.34814453125" height="628"><defs/><g><text fill="#eeeeee" stroke="none" font-family="Arial" font-size="24px" font-style="normal" font-weight="normal" text-decoration="none" x="0" y="0">UNREGISTERED</text><text fill="#eeeeee" stroke="none" font-family="Arial" font-size="24px" font-style="normal" font-weight="normal" text-decoration="none" x="0" y="30">UNREGISTERED</text><text fill="#eeeeee" stroke="none" font-family="Arial" font-size="24px" font-style="normal" font-weight="normal" text-decoration="none" x="0" y="60">UNREGISTERED</text><text fill="#eeeeee" stroke="none" font-family="Arial" font-size="24px" font-style="normal" font-weight="normal" text-decoration="none" x="0" y="90">UNREGISTERED</text><text fill="#eeeeee" stroke="none" font-family="Arial" font-size="24px" font-style="normal" font-weight="normal" text-decoration="none" x="0" y="120">UNREGISTERED</text><text fill="#eeeeee" stroke="none" font-family="Arial" font-size="24px" font-style="normal" font-weight="normal" text-decoration="none" x="0" y="150">UNREGISTERED</text><text fill="#eeeeee" stroke="none" font-family="Arial" font-size="24px" font-style="normal" font-weight="normal" text-decoration="none" x="0" y="180">UNREGISTERED</text><text fill="#eeeeee" stroke="none" font-family="Arial" font-size="24px" font-style="normal" font-weight="normal" text-decoration="none" x="0" y="210">UNREGISTERED</text><text fill="#eeeeee" stroke="none" font-family="Arial" font-size="24px" font-style="normal" font-weight="normal" text-decoration="none" x="0" y="240">UNREGISTERED</text><text fill="#eeeeee" stroke="none" font-family="Arial" font-size="24px" font-style="normal" font-weight="normal" text-decoration="none" x="0" y="270">UNREGISTERED</text><text fill="#eeeeee" stroke="none" font-family="Arial" font-size="24px" font-style="normal" font-weight="normal" text-decoration="none" x="0" y="300">UNREGISTERED</text><text fill="#eeeeee" stroke="none" font-family="Arial" font-size="24px" font-style="normal" font-weight="normal" text-decoration="none" x="0" y="330">UNREGISTERED</text><text fill="#eeeeee" stroke="none" font-family="Arial" font-size="24px" font-style="normal" font-weight="normal" text-decoration="none" x="0" y="360">UNREGISTERED</text><text fill="#eeeeee" stroke="none" font-family="Arial" font-size="24px" font-style="normal" font-weight="normal" text-decoration="none" x="0" y="390">UNREGISTERED</text><text fill="#eeeeee" stroke="none" font-family="Arial" font-size="24px" font-style="normal" font-weight="normal" text-decoration="none" x="0" y="420">UNREGISTERED</text><text fill="#eeeeee" stroke="none" font-family="Arial" font-size="24px" font-style="normal" font-weight="normal" text-decoration="none" x="0" y="450">UNREGISTERED</text><text fill="#eeeeee" stroke="none" font-family="Arial" font-size="24px" font-style="normal" font-weight="normal" text-decoration="none" x="0" y="480">UNREGISTERED</text><text fill="#eeeeee" stroke="none" font-family="Arial" font-size="24px" font-style="normal" font-weight="normal" text-decoration="none" x="0" y="510">UNREGISTERED</text><text fill="#eeeeee" stroke="none" font-family="Arial" font-size="24px" font-style="normal" font-weight="normal" text-decoration="none" x="0" y="540">UNREGISTERED</text><text fill="#eeeeee" stroke="none" font-family="Arial" font-size="24px" font-style="normal" font-weight="normal" text-decoration="none" x="0" y="570">UNREGISTERED</text><text fill="#eeeeee" stroke="none" font-family="Arial" font-size="24px" font-style="normal" font-weight="normal" text-decoration="none" x="0" y="600">UNREGISTERED</text><text fill="#eeeeee" stroke="none" font-family="Arial" font-size="24px" font-style="normal" font-weight="normal" text-decoration="none" x="200" y="0">UNREGISTERED</text><text fill="#eeeeee" stroke="none" font-family="Arial" font-size="24px" font-style="normal" font-weight="normal" text-decoration="none" x="200" y="30">UNREGISTERED</text><text fill="#eeeeee" stroke="none" font-family="Arial" font-size="24px" font-style="normal" font-weight="normal" text-decoration="none" x="200" y="60">UNREGISTERED</text><text fill="#eeeeee" stroke="none" font-family="Arial" font-size="24px" font-style="normal" font-weight="normal" text-decoration="none" x="200" y="90">UNREGISTERED</text><text fill="#eeeeee" stroke="none" font-family="Arial" font-size="24px" font-style="normal" font-weight="normal" text-decoration="none" x="200" y="120">UNREGISTERED</text><text fill="#eeeeee" stroke="none" font-family="Arial" font-size="24px" font-style="normal" font-weight="normal" text-decoration="none" x="200" y="150">UNREGISTERED</text><text fill="#eeeeee" stroke="none" font-family="Arial" font-size="24px" font-style="normal" font-weight="normal" text-decoration="none" x="200" y="180">UNREGISTERED</text><text fill="#eeeeee" stroke="none" font-family="Arial" font-size="24px" font-style="normal" font-weight="normal" text-decoration="none" x="200" y="210">UNREGISTERED</text><text fill="#eeeeee" stroke="none" font-family="Arial" font-size="24px" font-style="normal" font-weight="normal" text-decoration="none" x="200" y="240">UNREGISTERED</text><text fill="#eeeeee" stroke="none" font-family="Arial" font-size="24px" font-style="normal" font-weight="normal" text-decoration="none" x="200" y="270">UNREGISTERED</text><text fill="#eeeeee" stroke="none" font-family="Arial" font-size="24px" font-style="normal" font-weight="normal" text-decoration="none" x="200" y="300">UNREGISTERED</text><text fill="#eeeeee" stroke="none" font-family="Arial" font-size="24px" font-style="normal" font-weight="normal" text-decoration="none" x="200" y="330">UNREGISTERED</text><text fill="#eeeeee" stroke="none" font-family="Arial" font-size="24px" font-style="normal" font-weight="normal" text-decoration="none" x="200" y="360">UNREGISTERED</text><text fill="#eeeeee" stroke="none" font-family="Arial" font-size="24px" font-style="normal" font-weight="normal" text-decoration="none" x="200" y="390">UNREGISTERED</text><text fill="#eeeeee" stroke="none" font-family="Arial" font-size="24px" font-style="normal" font-weight="normal" text-decoration="none" x="200" y="420">UNREGISTERED</text><text fill="#eeeeee" stroke="none" font-family="Arial" font-size="24px" font-style="normal" font-weight="normal" text-decoration="none" x="200" y="450">UNREGISTERED</text><text fill="#eeeeee" stroke="none" font-family="Arial" font-size="24px" font-style="normal" font-weight="normal" text-decoration="none" x="200" y="480">UNREGISTERED</text><text fill="#eeeeee" stroke="none" font-family="Arial" font-size="24px" font-style="normal" font-weight="normal" text-decoration="none" x="200" y="510">UNREGISTERED</text><text fill="#eeeeee" stroke="none" font-family="Arial" font-size="24px" font-style="normal" font-weight="normal" text-decoration="none" x="200" y="540">UNREGISTERED</text><text fill="#eeeeee" stroke="none" font-family="Arial" font-size="24px" font-style="normal" font-weight="normal" text-decoration="none" x="200" y="570">UNREGISTERED</text><text fill="#eeeeee" stroke="none" font-family="Arial" font-size="24px" font-style="normal" font-weight="normal" text-decoration="none" x="200" y="600">UNREGISTERED</text><text fill="#eeeeee" stroke="none" font-family="Arial" font-size="24px" font-style="normal" font-weight="normal" text-decoration="none" x="400" y="0">UNREGISTERED</text><text fill="#eeeeee" stroke="none" font-family="Arial" font-size="24px" font-style="normal" font-weight="normal" text-decoration="none" x="400" y="30">UNREGISTERED</text><text fill="#eeeeee" stroke="none" font-family="Arial" font-size="24px" font-style="normal" font-weight="normal" text-decoration="none" x="400" y="60">UNREGISTERED</text><text fill="#eeeeee" stroke="none" font-family="Arial" font-size="24px" font-style="normal" font-weight="normal" text-decoration="none" x="400" y="90">UNREGISTERED</text><text fill="#eeeeee" stroke="none" font-family="Arial" font-size="24px" font-style="normal" font-weight="normal" text-decoration="none" x="400" y="120">UNREGISTERED</text><text fill="#eeeeee" stroke="none" font-family="Arial" font-size="24px" font-style="normal" font-weight="normal" text-decoration="none" x="400" y="150">UNREGISTERED</text><text fill="#eeeeee" stroke="none" font-family="Arial" font-size="24px" font-style="normal" font-weight="normal" text-decoration="none" x="400" y="180">UNREGISTERED</text><text fill="#eeeeee" stroke="none" font-family="Arial" font-size="24px" font-style="normal" font-weight="normal" text-decoration="none" x="400" y="210">UNREGISTERED</text><text fill="#eeeeee" stroke="none" font-family="Arial" font-size="24px" font-style="normal" font-weight="normal" text-decoration="none" x="400" y="240">UNREGISTERED</text><text fill="#eeeeee" stroke="none" font-family="Arial" font-size="24px" font-style="normal" font-weight="normal" text-decoration="none" x="400" y="270">UNREGISTERED</text><text fill="#eeeeee" stroke="none" font-family="Arial" font-size="24px" font-style="normal" font-weight="normal" text-decoration="none" x="400" y="300">UNREGISTERED</text><text fill="#eeeeee" stroke="none" font-family="Arial" font-size="24px" font-style="normal" font-weight="normal" text-decoration="none" x="400" y="330">UNREGISTERED</text><text fill="#eeeeee" stroke="none" font-family="Arial" font-size="24px" font-style="normal" font-weight="normal" text-decoration="none" x="400" y="360">UNREGISTERED</text><text fill="#eeeeee" stroke="none" font-family="Arial" font-size="24px" font-style="normal" font-weight="normal" text-decoration="none" x="400" y="390">UNREGISTERED</text><text fill="#eeeeee" stroke="none" font-family="Arial" font-size="24px" font-style="normal" font-weight="normal" text-decoration="none" x="400" y="420">UNREGISTERED</text><text fill="#eeeeee" stroke="none" font-family="Arial" font-size="24px" font-style="normal" font-weight="normal" text-decoration="none" x="400" y="450">UNREGISTERED</text><text fill="#eeeeee" stroke="none" font-family="Arial" font-size="24px" font-style="normal" font-weight="normal" text-decoration="none" x="400" y="480">UNREGISTERED</text><text fill="#eeeeee" stroke="none" font-family="Arial" font-size="24px" font-style="normal" font-weight="normal" text-decoration="none" x="400" y="510">UNREGISTERED</text><text fill="#eeeeee" stroke="none" font-family="Arial" font-size="24px" font-style="normal" font-weight="normal" text-decoration="none" x="400" y="540">UNREGISTERED</text><text fill="#eeeeee" stroke="none" font-family="Arial" font-size="24px" font-style="normal" font-weight="normal" text-decoration="none" x="400" y="570">UNREGISTERED</text><text fill="#eeeeee" stroke="none" font-family="Arial" font-size="24px" font-style="normal" font-weight="normal" text-decoration="none" x="400" y="600">UNREGISTERED</text><text fill="#eeeeee" stroke="none" font-family="Arial" font-size="24px" font-style="normal" font-weight="normal" text-decoration="none" x="600" y="0">UNREGISTERED</text><text fill="#eeeeee" stroke="none" font-family="Arial" font-size="24px" font-style="normal" font-weight="normal" text-decoration="none" x="600" y="30">UNREGISTERED</text><text fill="#eeeeee" stroke="none" font-family="Arial" font-size="24px" font-style="normal" font-weight="normal" text-decoration="none" x="600" y="60">UNREGISTERED</text><text fill="#eeeeee" stroke="none" font-family="Arial" font-size="24px" font-style="normal" font-weight="normal" text-decoration="none" x="600" y="90">UNREGISTERED</text><text fill="#eeeeee" stroke="none" font-family="Arial" font-size="24px" font-style="normal" font-weight="normal" text-decoration="none" x="600" y="120">UNREGISTERED</text><text fill="#eeeeee" stroke="none" font-family="Arial" font-size="24px" font-style="normal" font-weight="normal" text-decoration="none" x="600" y="150">UNREGISTERED</text><text fill="#eeeeee" stroke="none" font-family="Arial" font-size="24px" font-style="normal" font-weight="normal" text-decoration="none" x="600" y="180">UNREGISTERED</text><text fill="#eeeeee" stroke="none" font-family="Arial" font-size="24px" font-style="normal" font-weight="normal" text-decoration="none" x="600" y="210">UNREGISTERED</text><text fill="#eeeeee" stroke="none" font-family="Arial" font-size="24px" font-style="normal" font-weight="normal" text-decoration="none" x="600" y="240">UNREGISTERED</text><text fill="#eeeeee" stroke="none" font-family="Arial" font-size="24px" font-style="normal" font-weight="normal" text-decoration="none" x="600" y="270">UNREGISTERED</text><text fill="#eeeeee" stroke="none" font-family="Arial" font-size="24px" font-style="normal" font-weight="normal" text-decoration="none" x="600" y="300">UNREGISTERED</text><text fill="#eeeeee" stroke="none" font-family="Arial" font-size="24px" font-style="normal" font-weight="normal" text-decoration="none" x="600" y="330">UNREGISTERED</text><text fill="#eeeeee" stroke="none" font-family="Arial" font-size="24px" font-style="normal" font-weight="normal" text-decoration="none" x="600" y="360">UNREGISTERED</text><text fill="#eeeeee" stroke="none" font-family="Arial" font-size="24px" font-style="normal" font-weight="normal" text-decoration="none" x="600" y="390">UNREGISTERED</text><text fill="#eeeeee" stroke="none" font-family="Arial" font-size="24px" font-style="normal" font-weight="normal" text-decoration="none" x="600" y="420">UNREGISTERED</text><text fill="#eeeeee" stroke="none" font-family="Arial" font-size="24px" font-style="normal" font-weight="normal" text-decoration="none" x="600" y="450">UNREGISTERED</text><text fill="#eeeeee" stroke="none" font-family="Arial" font-size="24px" font-style="normal" font-weight="normal" text-decoration="none" x="600" y="480">UNREGISTERED</text><text fill="#eeeeee" stroke="none" font-family="Arial" font-size="24px" font-style="normal" font-weight="normal" text-decoration="none" x="600" y="510">UNREGISTERED</text><text fill="#eeeeee" stroke="none" font-family="Arial" font-size="24px" font-style="normal" font-weight="normal" text-decoration="none" x="600" y="540">UNREGISTERED</text><text fill="#eeeeee" stroke="none" font-family="Arial" font-size="24px" font-style="normal" font-weight="normal" text-decoration="none" x="600" y="570">UNREGISTERED</text><text fill="#eeeeee" stroke="none" font-family="Arial" font-size="24px" font-style="normal" font-weight="normal" text-decoration="none" x="600" y="600">UNREGISTERED</text><g transform="translate(-158,2) scale(1,1)"><path fill="#ffffff" stroke="none" d="M 209.3143172940341 47.3 C 209.3143172940341 43.82060576 212.1927190162159 41 215.743408203125 41 C 219.2940973900341 41 222.17249911221592 43.82060576 222.17249911221592 47.3 C 222.17249911221592 50.779394239999995 219.2940973900341 53.6 215.743408203125 53.6 C 212.1927190162159 53.6 209.3143172940341 50.779394239999995 209.3143172940341 47.3 Z"/></g><g transform="translate(-158,2) scale(1,1)"><path fill="none" stroke="#000000" d="M 209.3143172940341 47.3 C 209.3143172940341 43.82060576 212.1927190162159 41 215.743408203125 41 C 219.2940973900341 41 222.17249911221592 43.82060576 222.17249911221592 47.3 C 222.17249911221592 50.779394239999995 219.2940973900341 53.6 215.743408203125 53.6 C 212.1927190162159 53.6 209.3143172940341 50.779394239999995 209.3143172940341 47.3 Z" stroke-miterlimit="10"/></g><g transform="translate(-158,2) scale(1,1)"><path fill="none" stroke="#000000" d="M 215.743408203125 53.6 L 215.743408203125 66.4" stroke-miterlimit="10"/></g><g transform="translate(-158,2) scale(1,1)"><path fill="none" stroke="#000000" d="M 208.9361354758523 58.4 L 222.55068093039773 58.4" stroke-miterlimit="10"/></g><g transform="translate(-158,2) scale(1,1)"><path fill="none" stroke="#000000" d="M 215.743408203125 66.4 L 206.28886274857956 79" stroke-miterlimit="10"/></g><g transform="translate(-158,2) scale(1,1)"><path fill="none" stroke="#000000" d="M 215.743408203125 66.4 L 225.19795365767047 79" stroke-miterlimit="10"/></g><g transform="translate(-158,2) scale(1,1)"><g><path fill="none" stroke="none"/><text fill="#000000" stroke="none" font-family="Arial" font-size="13px" font-style="normal" font-weight="bold" text-decoration="none" x="191.895263671875" y="99.5">: Patient</text></g></g><g transform="translate(-158,2) scale(1,1)"><path fill="none" stroke="#000000" d="M 216.5 105 L 216.5 528" stroke-miterlimit="10" stroke-dasharray="3"/></g><g transform="translate(-158,2) scale(1,1)"><rect fill="#C0C0C0" stroke="none" x="319" y="47" width="142.26513671875" height="39" opacity="0.2"/></g><g transform="translate(-158,2) scale(1,1)"><rect fill="#ffffff" stroke="none" x="312" y="40" width="142.26513671875" height="39"/></g><g transform="translate(-158,2) scale(1,1)"><path fill="none" stroke="#000000" d="M 312 40 L 454.26513671875 40 L 454.26513671875 79 L 312 79 L 312 40 Z Z" stroke-miterlimit="10"/></g><g transform="translate(-158,2) scale(1,1)"><g><path fill="none" stroke="none"/><text fill="#000000" stroke="none" font-family="Arial" font-size="13px" font-style="normal" font-weight="bold" text-decoration="none" x="326.048095703125" y="59.5">RequestTestControl</text></g></g><g transform="translate(-158,2) scale(1,1)"><path fill="none" stroke="#000000" d="M 384.5 80 L 384.5 610" stroke-miterlimit="10" stroke-dasharray="3"/></g><g transform="translate(-158,2) scale(1,1)"><rect fill="#C0C0C0" stroke="none" x="487" y="163" width="201.7109375" height="39" opacity="0.2"/></g><g transform="translate(-158,2) scale(1,1)"><rect fill="#ffffff" stroke="none" x="480" y="156" width="201.7109375" height="39"/></g><g transform="translate(-158,2) scale(1,1)"><path fill="none" stroke="#000000" d="M 480 156 L 681.7109375 156 L 681.7109375 195 L 480 195 L 480 156 Z Z" stroke-miterlimit="10"/></g><g transform="translate(-158,2) scale(1,1)"><g><path fill="none" stroke="none"/><text fill="#000000" stroke="none" font-family="Arial" font-size="13px" font-style="normal" font-weight="bold" text-decoration="none" x="497.39013671875" y="175.5">SupportingLabs:LabListForm</text></g></g><g transform="translate(-158,2) scale(1,1)"><path fill="none" stroke="#000000" d="M 581.5 196 L 581.5 330" stroke-miterlimit="10" stroke-dasharray="3"/></g><g transform="translate(-158,2) scale(1,1)"><rect fill="#C0C0C0" stroke="none" x="647" y="347" width="179.34814453125" height="39" opacity="0.2"/></g><g transform="translate(-158,2) scale(1,1)"><rect fill="#ffffff" stroke="none" x="640" y="340" width="179.34814453125" height="39"/></g><g transform="translate(-158,2) scale(1,1)"><path fill="none" stroke="#000000" d="M 640 340 L 819.34814453125 340 L 819.34814453125 379 L 640 379 L 640 340 Z Z" stroke-miterlimit="10"/></g><g transform="translate(-158,2) scale(1,1)"><g><path fill="none" stroke="none"/><text fill="#000000" stroke="none" font-family="Arial" font-size="13px" font-style="normal" font-weight="bold" text-decoration="none" x="655.974609375" y="359.5">FilteredLabs:LabListForm</text></g></g><g transform="translate(-158,2) scale(1,1)"><path fill="none" stroke="#000000" d="M 730.5 380 L 730.5 616" stroke-miterlimit="10" stroke-dasharray="3"/></g><g transform="translate(-158,2) scale(1,1)"><g><path fill="none" stroke="none"/><text fill="#59b200" stroke="none" font-family="Arial" font-size="13px" font-style="normal" font-weight="normal" text-decoration="none" x="213" y="26">getLabList Sequence Diagram</text></g></g><g transform="translate(-158,2) scale(1,1)"><path fill="none" stroke="#000000" d="M 216 120 L 377 120" stroke-miterlimit="10"/></g><g transform="translate(-158,2) scale(1,1)"><path fill="#000000" stroke="none" d="M 366.83732514237585 124.20951775601598 L 377 120 L 366.83732514237585 115.79048224398402"/></g><g transform="translate(-158,2) scale(1,1)"><path fill="none" stroke="#000000" d="M 366.83732514237585 124.20951775601598 L 377 120 L 366.83732514237585 115.79048224398402 L 366.83732514237585 124.20951775601598" stroke-miterlimit="10"/></g><g transform="translate(-158,2) scale(1,1)"><g><path fill="none" stroke="none"/><text fill="#000000" stroke="none" font-family="Arial" font-size="13px" font-style="normal" font-weight="normal" text-decoration="none" x="261.5" y="116.5">getLabList()</text></g></g><g transform="translate(-158,2) scale(1,1)"><rect fill="#ffffff" stroke="none" x="377" y="120" width="13" height="28"/></g><g transform="translate(-158,2) scale(1,1)"><path fill="none" stroke="#000000" d="M 377 120 L 390 120 L 390 148 L 377 148 L 377 120 Z Z" stroke-miterlimit="10"/></g><g transform="translate(-158,2) scale(1,1)"><path fill="none" stroke="#000000" d="M 384 176 L 480 176" stroke-miterlimit="10" stroke-dasharray="3"/></g><g transform="translate(-158,2) scale(1,1)"><path fill="none" stroke="#000000" d="M 469.83732514237585 180.209517756016 L 480 176 L 469.83732514237585 171.790482243984" stroke-miterlimit="10"/></g><g transform="translate(-158,2) scale(1,1)"><g><path fill="none" stroke="none"/><text fill="#000000" stroke="none" font-family="Arial" font-size="13px" font-style="normal" font-weight="normal" text-decoration="none" x="409.5" y="171.5">«create»</text></g></g><g transform="translate(-158,2) scale(1,1)"><path fill="none" stroke="#000000" d="M 216 221 L 574 221" stroke-miterlimit="10"/></g><g transform="translate(-158,2) scale(1,1)"><path fill="#000000" stroke="none" d="M 563.8373251423759 225.209517756016 L 574 221 L 563.8373251423758 216.790482243984"/></g><g transform="translate(-158,2) scale(1,1)"><path fill="none" stroke="#000000" d="M 563.8373251423759 225.209517756016 L 574 221 L 563.8373251423758 216.790482243984 L 563.8373251423759 225.209517756016" stroke-miterlimit="10"/></g><g transform="translate(-158,2) scale(1,1)"><g><path fill="none" stroke="none"/><text fill="#000000" stroke="none" font-family="Arial" font-size="13px" font-style="normal" font-weight="normal" text-decoration="none" x="243.5" y="215.5">sendFilter(filterparams)</text></g></g><g transform="translate(-158,2) scale(1,1)"><rect fill="#ffffff" stroke="none" x="574" y="221" width="13" height="28"/></g><g transform="translate(-158,2) scale(1,1)"><path fill="none" stroke="#000000" d="M 574 221 L 587 221 L 587 249 L 574 249 L 574 221 Z Z" stroke-miterlimit="10"/></g><g transform="translate(-158,2) scale(1,1)"><path fill="none" stroke="#000000" d="M 581 256 L 390 256" stroke-miterlimit="10"/></g><g transform="translate(-158,2) scale(1,1)"><path fill="#000000" stroke="none" d="M 400.16267485762415 251.790482243984 L 390 256 L 400.16267485762415 260.209517756016"/></g><g transform="translate(-158,2) scale(1,1)"><path fill="none" stroke="#000000" d="M 400.16267485762415 251.790482243984 L 390 256 L 400.16267485762415 260.209517756016 L 400.16267485762415 251.790482243984" stroke-miterlimit="10"/></g><g transform="translate(-158,2) scale(1,1)"><g><path fill="none" stroke="none"/><text fill="#000000" stroke="none" font-family="Arial" font-size="13px" font-style="normal" font-weight="normal" text-decoration="none" x="417.5" y="251.5">sendFilter(filterparams)</text></g></g><g transform="translate(-158,2) scale(1,1)"><rect fill="#ffffff" stroke="none" x="377" y="256" width="13" height="28"/></g><g transform="translate(-158,2) scale(1,1)"><path fill="none" stroke="#000000" d="M 377 256 L 390 256 L 390 284 L 377 284 L 377 256 Z Z" stroke-miterlimit="10"/></g><g transform="translate(-158,2) scale(1,1)"><path fill="none" stroke="#000000" d="M 384 288 L 574 288" stroke-miterlimit="10"/></g><g transform="translate(-158,2) scale(1,1)"><path fill="#000000" stroke="none" d="M 563.8373251423759 292.209517756016 L 574 288 L 563.8373251423758 283.790482243984"/></g><g transform="translate(-158,2) scale(1,1)"><path fill="none" stroke="#000000" d="M 563.8373251423759 292.209517756016 L 574 288 L 563.8373251423758 283.790482243984 L 563.8373251423759 292.209517756016" stroke-miterlimit="10"/></g><g transform="translate(-158,2) scale(1,1)"><path fill="none" stroke="#000000" d="M 571 320 L 591 340" stroke-miterlimit="10"/></g><g transform="translate(-158,2) scale(1,1)"><path fill="none" stroke="#000000" d="M 591 320 L 571 340" stroke-miterlimit="10"/></g><g transform="translate(-158,2) scale(1,1)"><g><path fill="none" stroke="none"/><text fill="#000000" stroke="none" font-family="Arial" font-size="13px" font-style="normal" font-weight="normal" text-decoration="none" x="450.5" y="284.5">«destroy»</text></g></g><g transform="translate(-158,2) scale(1,1)"><rect fill="#ffffff" stroke="none" x="574" y="288" width="13" height="28"/></g><g transform="translate(-158,2) scale(1,1)"><path fill="none" stroke="#000000" d="M 574 288 L 587 288 L 587 316 L 574 316 L 574 288 Z Z" stroke-miterlimit="10"/></g><g transform="translate(-158,2) scale(1,1)"><path fill="none" stroke="#000000" d="M 384 360 L 640 360" stroke-miterlimit="10" stroke-dasharray="3"/></g><g transform="translate(-158,2) scale(1,1)"><path fill="none" stroke="#000000" d="M 629.8373251423759 364.209517756016 L 640 360 L 629.8373251423758 355.790482243984" stroke-miterlimit="10"/></g><g transform="translate(-158,2) scale(1,1)"><g><path fill="none" stroke="none"/><text fill="#000000" stroke="none" font-family="Arial" font-size="13px" font-style="normal" font-weight="normal" text-decoration="none" x="489.5" y="356.5">«create»</text></g></g><g transform="translate(-158,2) scale(1,1)"><path fill="none" stroke="#000000" d="M 216 424 L 723 424" stroke-miterlimit="10"/></g><g transform="translate(-158,2) scale(1,1)"><path fill="#000000" stroke="none" d="M 712.8373251423759 428.209517756016 L 723 424 L 712.8373251423758 419.790482243984"/></g><g transform="translate(-158,2) scale(1,1)"><path fill="none" stroke="#000000" d="M 712.8373251423759 428.209517756016 L 723 424 L 712.8373251423758 419.790482243984 L 712.8373251423759 428.209517756016" stroke-miterlimit="10"/></g><g transform="translate(-158,2) scale(1,1)"><g><path fill="none" stroke="none"/><text fill="#000000" stroke="none" font-family="Arial" font-size="13px" font-style="normal" font-weight="normal" text-decoration="none" x="502.5" y="412.5">selectLab(LID)</text></g></g><g transform="translate(-158,2) scale(1,1)"><rect fill="#ffffff" stroke="none" x="723" y="424" width="13" height="28"/></g><g transform="translate(-158,2) scale(1,1)"><path fill="none" stroke="#000000" d="M 723 424 L 736 424 L 736 452 L 723 452 L 723 424 Z Z" stroke-miterlimit="10"/></g><g transform="translate(-158,2) scale(1,1)"><path fill="none" stroke="#000000" d="M 216 482 L 723 482" stroke-miterlimit="10"/></g><g transform="translate(-158,2) scale(1,1)"><path fill="#000000" stroke="none" d="M 712.8373251423759 486.209517756016 L 723 482 L 712.8373251423758 477.790482243984"/></g><g transform="translate(-158,2) scale(1,1)"><path fill="none" stroke="#000000" d="M 712.8373251423759 486.209517756016 L 723 482 L 712.8373251423758 477.790482243984 L 712.8373251423759 486.209517756016" stroke-miterlimit="10"/></g><g transform="translate(-158,2) scale(1,1)"><g><path fill="none" stroke="none"/><text fill="#000000" stroke="none" font-family="Arial" font-size="13px" font-style="normal" font-weight="normal" text-decoration="none" x="526.015869140625" y="476.5">submit()</text></g></g><g transform="translate(-158,2) scale(1,1)"><rect fill="#ffffff" stroke="none" x="723" y="482" width="13" height="28"/></g><g transform="translate(-158,2) scale(1,1)"><path fill="none" stroke="#000000" d="M 723 482 L 736 482 L 736 510 L 723 510 L 723 482 Z Z" stroke-miterlimit="10"/></g><g transform="translate(-158,2) scale(1,1)"><path fill="none" stroke="#000000" d="M 730 520 L 390 520" stroke-miterlimit="10"/></g><g transform="translate(-158,2) scale(1,1)"><path fill="#000000" stroke="none" d="M 400.16267485762415 515.790482243984 L 390 520 L 400.16267485762415 524.209517756016"/></g><g transform="translate(-158,2) scale(1,1)"><path fill="none" stroke="#000000" d="M 400.16267485762415 515.790482243984 L 390 520 L 400.16267485762415 524.209517756016 L 400.16267485762415 515.790482243984" stroke-miterlimit="10"/></g><g transform="translate(-158,2) scale(1,1)"><g><path fill="none" stroke="none"/><text fill="#000000" stroke="none" font-family="Arial" font-size="13px" font-style="normal" font-weight="normal" text-decoration="none" x="505.5" y="515.5">submitLab(LID)</text></g></g><g transform="translate(-158,2) scale(1,1)"><rect fill="#ffffff" stroke="none" x="377" y="520" width="13" height="28"/></g><g transform="translate(-158,2) scale(1,1)"><path fill="none" stroke="#000000" d="M 377 520 L 390 520 L 390 548 L 377 548 L 377 520 Z Z" stroke-miterlimit="10"/></g><g transform="translate(-158,2) scale(1,1)"><path fill="none" stroke="#000000" d="M 384 566 L 723 566" stroke-miterlimit="10"/></g><g transform="translate(-158,2) scale(1,1)"><path fill="#000000" stroke="none" d="M 712.8373251423759 570.209517756016 L 723 566 L 712.8373251423758 561.790482243984"/></g><g transform="translate(-158,2) scale(1,1)"><path fill="none" stroke="#000000" d="M 712.8373251423759 570.209517756016 L 723 566 L 712.8373251423758 561.790482243984 L 712.8373251423759 570.209517756016" stroke-miterlimit="10"/></g><g transform="translate(-158,2) scale(1,1)"><path fill="none" stroke="#000000" d="M 720 606 L 740 626" stroke-miterlimit="10"/></g><g transform="translate(-158,2) scale(1,1)"><path fill="none" stroke="#000000" d="M 740 606 L 720 626" stroke-miterlimit="10"/></g><g transform="translate(-158,2) scale(1,1)"><g><path fill="none" stroke="none"/><text fill="#000000" stroke="none" font-family="Arial" font-size="13px" font-style="normal" font-weight="normal" text-decoration="none" x="529.5" y="562.5">«destroy»</text></g></g><g transform="translate(-158,2) scale(1,1)"><rect fill="#ffffff" stroke="none" x="723" y="566" width="13" height="28"/></g><g transform="translate(-158,2) scale(1,1)"><path fill="none" stroke="#000000" d="M 723 566 L 736 566 L 736 594 L 723 594 L 723 566 Z Z" stroke-miterlimit="10"/></g></g></svg>