<svg version="1.1" xmlns="http://www.w3.org/2000/svg" xmlns:xlink="http://www.w3.org/1999/xlink" width="1127.47412109375" height="510"><defs/><g><text fill="#eeeeee" stroke="none" font-family="Arial" font-size="24px" font-style="normal" font-weight="normal" text-decoration="none" x="0" y="0">UNREGISTERED</text><text fill="#eeeeee" stroke="none" font-family="Arial" font-size="24px" font-style="normal" font-weight="normal" text-decoration="none" x="0" y="30">UNREGISTERED</text><text fill="#eeeeee" stroke="none" font-family="Arial" font-size="24px" font-style="normal" font-weight="normal" text-decoration="none" x="0" y="60">UNREGISTERED</text><text fill="#eeeeee" stroke="none" font-family="Arial" font-size="24px" font-style="normal" font-weight="normal" text-decoration="none" x="0" y="90">UNREGISTERED</text><text fill="#eeeeee" stroke="none" font-family="Arial" font-size="24px" font-style="normal" font-weight="normal" text-decoration="none" x="0" y="120">UNREGISTERED</text><text fill="#eeeeee" stroke="none" font-family="Arial" font-size="24px" font-style="normal" font-weight="normal" text-decoration="none" x="0" y="150">UNREGISTERED</text><text fill="#eeeeee" stroke="none" font-family="Arial" font-size="24px" font-style="normal" font-weight="normal" text-decoration="none" x="0" y="180">UNREGISTERED</text><text fill="#eeeeee" stroke="none" font-family="Arial" font-size="24px" font-style="normal" font-weight="normal" text-decoration="none" x="0" y="210">UNREGISTERED</text><text fill="#eeeeee" stroke="none" font-family="Arial" font-size="24px" font-style="normal" font-weight="normal" text-decoration="none" x="0" y="240">UNREGISTERED</text><text fill="#eeeeee" stroke="none" font-family="Arial" font-size="24px" font-style="normal" font-weight="normal" text-decoration="none" x="0" y="270">UNREGISTERED</text><text fill="#eeeeee" stroke="none" font-family="Arial" font-size="24px" font-style="normal" font-weight="normal" text-decoration="none" x="0" y="300">UNREGISTERED</text><text fill="#eeeeee" stroke="none" font-family="Arial" font-size="24px" font-style="normal" font-weight="normal" text-decoration="none" x="0" y="330">UNREGISTERED</text><text fill="#eeeeee" stroke="none" font-family="Arial" font-size="24px" font-style="normal" font-weight="normal" text-decoration="none" x="0" y="360">UNREGISTERED</text><text fill="#eeeeee" stroke="none" font-family="Arial" font-size="24px" font-style="normal" font-weight="normal" text-decoration="none" x="0" y="390">UNREGISTERED</text><text fill="#eeeeee" stroke="none" font-family="Arial" font-size="24px" font-style="normal" font-weight="normal" text-decoration="none" x="0" y="420">UNREGISTERED</text><text fill="#eeeeee" stroke="none" font-family="Arial" font-size="24px" font-style="normal" font-weight="normal" text-decoration="none" x="0" y="450">UNREGISTERED</text><text fill="#eeeeee" stroke="none" font-family="Arial" font-size="24px" font-style="normal" font-weight="normal" text-decoration="none" x="0" y="480">UNREGISTERED</text><text fill="#eeeeee" stroke="none" font-family="Arial" font-size="24px" font-style="normal" font-weight="normal" text-decoration="none" x="200" y="0">UNREGISTERED</text><text fill="#eeeeee" stroke="none" font-family="Arial" font-size="24px" font-style="normal" font-weight="normal" text-decoration="none" x="200" y="30">UNREGISTERED</text><text fill="#eeeeee" stroke="none" font-family="Arial" font-size="24px" font-style="normal" font-weight="normal" text-decoration="none" x="200" y="60">UNREGISTERED</text><text fill="#eeeeee" stroke="none" font-family="Arial" font-size="24px" font-style="normal" font-weight="normal" text-decoration="none" x="200" y="90">UNREGISTERED</text><text fill="#eeeeee" stroke="none" font-family="Arial" font-size="24px" font-style="normal" font-weight="normal" text-decoration="none" x="200" y="120">UNREGISTERED</text><text fill="#eeeeee" stroke="none" font-family="Arial" font-size="24px" font-style="normal" font-weight="normal" text-decoration="none" x="200" y="150">UNREGISTERED</text><text fill="#eeeeee" stroke="none" font-family="Arial" font-size="24px" font-style="normal" font-weight="normal" text-decoration="none" x="200" y="180">UNREGISTERED</text><text fill="#eeeeee" stroke="none" font-family="Arial" font-size="24px" font-style="normal" font-weight="normal" text-decoration="none" x="200" y="210">UNREGISTERED</text><text fill="#eeeeee" stroke="none" font-family="Arial" font-size="24px" font-style="normal" font-weight="normal" text-decoration="none" x="200" y="240">UNREGISTERED</text><text fill="#eeeeee" stroke="none" font-family="Arial" font-size="24px" font-style="normal" font-weight="normal" text-decoration="none" x="200" y="270">UNREGISTERED</text><text fill="#eeeeee" stroke="none" font-family="Arial" font-size="24px" font-style="normal" font-weight="normal" text-decoration="none" x="200" y="300">UNREGISTERED</text><text fill="#eeeeee" stroke="none" font-family="Arial" font-size="24px" font-style="normal" font-weight="normal" text-decoration="none" x="200" y="330">UNREGISTERED</text><text fill="#eeeeee" stroke="none" font-family="Arial" font-size="24px" font-style="normal" font-weight="normal" text-decoration="none" x="200" y="360">UNREGISTERED</text><text fill="#eeeeee" stroke="none" font-family="Arial" font-size="24px" font-style="normal" font-weight="normal" text-decoration="none" x="200" y="390">UNREGISTERED</text><text fill="#eeeeee" stroke="none" font-family="Arial" font-size="24px" font-style="normal" font-weight="normal" text-decoration="none" x="200" y="420">UNREGISTERED</text><text fill="#eeeeee" stroke="none" font-family="Arial" font-size="24px" font-style="normal" font-weight="normal" text-decoration="none" x="200" y="450">UNREGISTERED</text><text fill="#eeeeee" stroke="none" font-family="Arial" font-size="24px" font-style="normal" font-weight="normal" text-decoration="none" x="200" y="480">UNREGISTERED</text><text fill="#eeeeee" stroke="none" font-family="Arial" font-size="24px" font-style="normal" font-weight="normal" text-decoration="none" x="400" y="0">UNREGISTERED</text><text fill="#eeeeee" stroke="none" font-family="Arial" font-size="24px" font-style="normal" font-weight="normal" text-decoration="none" x="400" y="30">UNREGISTERED</text><text fill="#eeeeee" stroke="none" font-family="Arial" font-size="24px" font-style="normal" font-weight="normal" text-decoration="none" x="400" y="60">UNREGISTERED</text><text fill="#eeeeee" stroke="none" font-family="Arial" font-size="24px" font-style="normal" font-weight="normal" text-decoration="none" x="400" y="90">UNREGISTERED</text><text fill="#eeeeee" stroke="none" font-family="Arial" font-size="24px" font-style="normal" font-weight="normal" text-decoration="none" x="400" y="120">UNREGISTERED</text><text fill="#eeeeee" stroke="none" font-family="Arial" font-size="24px" font-style="normal" font-weight="normal" text-decoration="none" x="400" y="150">UNREGISTERED</text><text fill="#eeeeee" stroke="none" font-family="Arial" font-size="24px" font-style="normal" font-weight="normal" text-decoration="none" x="400" y="180">UNREGISTERED</text><text fill="#eeeeee" stroke="none" font-family="Arial" font-size="24px" font-style="normal" font-weight="normal" text-decoration="none" x="400" y="210">UNREGISTERED</text><text fill="#eeeeee" stroke="none" font-family="Arial" font-size="24px" font-style="normal" font-weight="normal" text-decoration="none" x="400" y="240">UNREGISTERED</text><text fill="#eeeeee" stroke="none" font-family="Arial" font-size="24px" font-style="normal" font-weight="normal" text-decoration="none" x="400" y="270">UNREGISTERED</text><text fill="#eeeeee" stroke="none" font-family="Arial" font-size="24px" font-style="normal" font-weight="normal" text-decoration="none" x="400" y="300">UNREGISTERED</text><text fill="#eeeeee" stroke="none" font-family="Arial" font-size="24px" font-style="normal" font-weight="normal" text-decoration="none" x="400" y="330">UNREGISTERED</text><text fill="#eeeeee" stroke="none" font-family="Arial" font-size="24px" font-style="normal" font-weight="normal" text-decoration="none" x="400" y="360">UNREGISTERED</text><text fill="#eeeeee" stroke="none" font-family="Arial" font-size="24px" font-style="normal" font-weight="normal" text-decoration="none" x="400" y="390">UNREGISTERED</text><text fill="#eeeeee" stroke="none" font-family="Arial" font-size="24px" font-style="normal" font-weight="normal" text-decoration="none" x="400" y="420">UNREGISTERED</text><text fill="#eeeeee" stroke="none" font-family="Arial" font-size="24px" font-style="normal" font-weight="normal" text-decoration="none" x="400" y="450">UNREGISTERED</text><text fill="#eeeeee" stroke="none" font-family="Arial" font-size="24px" font-style="normal" font-weight="normal" text-decoration="none" x="400" y="480">UNREGISTERED</text><text fill="#eeeeee" stroke="none" font-family="Arial" font-size="24px" font-style="normal" font-weight="normal" text-decoration="none" x="600" y="0">UNREGISTERED</text><text fill="#eeeeee" stroke="none" font-family="Arial" font-size="24px" font-style="normal" font-weight="normal" text-decoration="none" x="600" y="30">UNREGISTERED</text><text fill="#eeeeee" stroke="none" font-family="Arial" font-size="24px" font-style="normal" font-weight="normal" text-decoration="none" x="600" y="60">UNREGISTERED</text><text fill="#eeeeee" stroke="none" font-family="Arial" font-size="24px" font-style="normal" font-weight="normal" text-decoration="none" x="600" y="90">UNREGISTERED</text><text fill="#eeeeee" stroke="none" font-family="Arial" font-size="24px" font-style="normal" font-weight="normal" text-decoration="none" x="600" y="120">UNREGISTERED</text><text fill="#eeeeee" stroke="none" font-family="Arial" font-size="24px" font-style="normal" font-weight="normal" text-decoration="none" x="600" y="150">UNREGISTERED</text><text fill="#eeeeee" stroke="none" font-family="Arial" font-size="24px" font-style="normal" font-weight="normal" text-decoration="none" x="600" y="180">UNREGISTERED</text><text fill="#eeeeee" stroke="none" font-family="Arial" font-size="24px" font-style="normal" font-weight="normal" text-decoration="none" x="600" y="210">UNREGISTERED</text><text fill="#eeeeee" stroke="none" font-family="Arial" font-size="24px" font-style="normal" font-weight="normal" text-decoration="none" x="600" y="240">UNREGISTERED</text><text fill="#eeeeee" stroke="none" font-family="Arial" font-size="24px" font-style="normal" font-weight="normal" text-decoration="none" x="600" y="270">UNREGISTERED</text><text fill="#eeeeee" stroke="none" font-family="Arial" font-size="24px" font-style="normal" font-weight="normal" text-decoration="none" x="600" y="300">UNREGISTERED</text><text fill="#eeeeee" stroke="none" font-family="Arial" font-size="24px" font-style="normal" font-weight="normal" text-decoration="none" x="600" y="330">UNREGISTERED</text><text fill="#eeeeee" stroke="none" font-family="Arial" font-size="24px" font-style="normal" font-weight="normal" text-decoration="none" x="600" y="360">UNREGISTERED</text><text fill="#eeeeee" stroke="none" font-family="Arial" font-size="24px" font-style="normal" font-weight="normal" text-decoration="none" x="600" y="390">UNREGISTERED</text><text fill="#eeeeee" stroke="none" font-family="Arial" font-size="24px" font-style="normal" font-weight="normal" text-decoration="none" x="600" y="420">UNREGISTERED</text><text fill="#eeeeee" stroke="none" font-family="Arial" font-size="24px" font-style="normal" font-weight="normal" text-decoration="none" x="600" y="450">UNREGISTERED</text><text fill="#eeeeee" stroke="none" font-family="Arial" font-size="24px" font-style="normal" font-weight="normal" text-decoration="none" x="600" y="480">UNREGISTERED</text><text fill="#eeeeee" stroke="none" font-family="Arial" font-size="24px" font-style="normal" font-weight="normal" text-decoration="none" x="800" y="0">UNREGISTERED</text><text fill="#eeeeee" stroke="none" font-family="Arial" font-size="24px" font-style="normal" font-weight="normal" text-decoration="none" x="800" y="30">UNREGISTERED</text><text fill="#eeeeee" stroke="none" font-family="Arial" font-size="24px" font-style="normal" font-weight="normal" text-decoration="none" x="800" y="60">UNREGISTERED</text><text fill="#eeeeee" stroke="none" font-family="Arial" font-size="24px" font-style="normal" font-weight="normal" text-decoration="none" x="800" y="90">UNREGISTERED</text><text fill="#eeeeee" stroke="none" font-family="Arial" font-size="24px" font-style="normal" font-weight="normal" text-decoration="none" x="800" y="120">UNREGISTERED</text><text fill="#eeeeee" stroke="none" font-family="Arial" font-size="24px" font-style="normal" font-weight="normal" text-decoration="none" x="800" y="150">UNREGISTERED</text><text fill="#eeeeee" stroke="none" font-family="Arial" font-size="24px" font-style="normal" font-weight="normal" text-decoration="none" x="800" y="180">UNREGISTERED</text><text fill="#eeeeee" stroke="none" font-family="Arial" font-size="24px" font-style="normal" font-weight="normal" text-decoration="none" x="800" y="210">UNREGISTERED</text><text fill="#eeeeee" stroke="none" font-family="Arial" font-size="24px" font-style="normal" font-weight="normal" text-decoration="none" x="800" y="240">UNREGISTERED</text><text fill="#eeeeee" stroke="none" font-family="Arial" font-size="24px" font-style="normal" font-weight="normal" text-decoration="none" x="800" y="270">UNREGISTERED</text><text fill="#eeeeee" stroke="none" font-family="Arial" font-size="24px" font-style="normal" font-weight="normal" text-decoration="none" x="800" y="300">UNREGISTERED</text><text fill="#eeeeee" stroke="none" font-family="Arial" font-size="24px" font-style="normal" font-weight="normal" text-decoration="none" x="800" y="330">UNREGISTERED</text><text fill="#eeeeee" stroke="none" font-family="Arial" font-size="24px" font-style="normal" font-weight="normal" text-decoration="none" x="800" y="360">UNREGISTERED</text><text fill="#eeeeee" stroke="none" font-family="Arial" font-size="24px" font-style="normal" font-weight="normal" text-decoration="none" x="800" y="390">UNREGISTERED</text><text fill="#eeeeee" stroke="none" font-family="Arial" font-size="24px" font-style="normal" font-weight="normal" text-decoration="none" x="800" y="420">UNREGISTERED</text><text fill="#eeeeee" stroke="none" font-family="Arial" font-size="24px" font-style="normal" font-weight="normal" text-decoration="none" x="800" y="450">UNREGISTERED</text><text fill="#eeeeee" stroke="none" font-family="Arial" font-size="24px" font-style="normal" font-weight="normal" text-decoration="none" x="800" y="480">UNREGISTERED</text><text fill="#eeeeee" stroke="none" font-family="Arial" font-size="24px" font-style="normal" font-weight="normal" text-decoration="none" x="1000" y="0">UNREGISTERED</text><text fill="#eeeeee" stroke="none" font-family="Arial" font-size="24px" font-style="normal" font-weight="normal" text-decoration="none" x="1000" y="30">UNREGISTERED</text><text fill="#eeeeee" stroke="none" font-family="Arial" font-size="24px" font-style="normal" font-weight="normal" text-decoration="none" x="1000" y="60">UNREGISTERED</text><text fill="#eeeeee" stroke="none" font-family="Arial" font-size="24px" font-style="normal" font-weight="normal" text-decoration="none" x="1000" y="90">UNREGISTERED</text><text fill="#eeeeee" stroke="none" font-family="Arial" font-size="24px" font-style="normal" font-weight="normal" text-decoration="none" x="1000" y="120">UNREGISTERED</text><text fill="#eeeeee" stroke="none" font-family="Arial" font-size="24px" font-style="normal" font-weight="normal" text-decoration="none" x="1000" y="150">UNREGISTERED</text><text fill="#eeeeee" stroke="none" font-family="Arial" font-size="24px" font-style="normal" font-weight="normal" text-decoration="none" x="1000" y="180">UNREGISTERED</text><text fill="#eeeeee" stroke="none" font-family="Arial" font-size="24px" font-style="normal" font-weight="normal" text-decoration="none" x="1000" y="210">UNREGISTERED</text><text fill="#eeeeee" stroke="none" font-family="Arial" font-size="24px" font-style="normal" font-weight="normal" text-decoration="none" x="1000" y="240">UNREGISTERED</text><text fill="#eeeeee" stroke="none" font-family="Arial" font-size="24px" font-style="normal" font-weight="normal" text-decoration="none" x="1000" y="270">UNREGISTERED</text><text fill="#eeeeee" stroke="none" font-family="Arial" font-size="24px" font-style="normal" font-weight="normal" text-decoration="none" x="1000" y="300">UNREGISTERED</text><text fill="#eeeeee" stroke="none" font-family="Arial" font-size="24px" font-style="normal" font-weight="normal" text-decoration="none" x="1000" y="330">UNREGISTERED</text><text fill="#eeeeee" stroke="none" font-family="Arial" font-size="24px" font-style="normal" font-weight="normal" text-decoration="none" x="1000" y="360">UNREGISTERED</text><text fill="#eeeeee" stroke="none" font-family="Arial" font-size="24px" font-style="normal" font-weight="normal" text-decoration="none" x="1000" y="390">UNREGISTERED</text><text fill="#eeeeee" stroke="none" font-family="Arial" font-size="24px" font-style="normal" font-weight="normal" text-decoration="none" x="1000" y="420">UNREGISTERED</text><text fill="#eeeeee" stroke="none" font-family="Arial" font-size="24px" font-style="normal" font-weight="normal" text-decoration="none" x="1000" y="450">UNREGISTERED</text><text fill="#eeeeee" stroke="none" font-family="Arial" font-size="24px" font-style="normal" font-weight="normal" text-decoration="none" x="1000" y="480">UNREGISTERED</text><g transform="translate(-112,2) scale(1,1)"><path fill="#ffffff" stroke="none" d="M 163.3143172940341 47.3 C 163.3143172940341 43.82060576 166.1927190162159 41 169.743408203125 41 C 173.2940973900341 41 176.17249911221592 43.82060576 176.17249911221592 47.3 C 176.17249911221592 50.779394239999995 173.2940973900341 53.6 169.743408203125 53.6 C 166.1927190162159 53.6 163.3143172940341 50.779394239999995 163.3143172940341 47.3 Z"/></g><g transform="translate(-112,2) scale(1,1)"><path fill="none" stroke="#000000" d="M 163.3143172940341 47.3 C 163.3143172940341 43.82060576 166.1927190162159 41 169.743408203125 41 C 173.2940973900341 41 176.17249911221592 43.82060576 176.17249911221592 47.3 C 176.17249911221592 50.779394239999995 173.2940973900341 53.6 169.743408203125 53.6 C 166.1927190162159 53.6 163.3143172940341 50.779394239999995 163.3143172940341 47.3 Z" stroke-miterlimit="10"/></g><g transform="translate(-112,2) scale(1,1)"><path fill="none" stroke="#000000" d="M 169.743408203125 53.6 L 169.743408203125 66.4" stroke-miterlimit="10"/></g><g transform="translate(-112,2) scale(1,1)"><path fill="none" stroke="#000000" d="M 162.9361354758523 58.4 L 176.55068093039773 58.4" stroke-miterlimit="10"/></g><g transform="translate(-112,2) scale(1,1)"><path fill="none" stroke="#000000" d="M 169.743408203125 66.4 L 160.28886274857956 79" stroke-miterlimit="10"/></g><g transform="translate(-112,2) scale(1,1)"><path fill="none" stroke="#000000" d="M 169.743408203125 66.4 L 179.19795365767047 79" stroke-miterlimit="10"/></g><g transform="translate(-112,2) scale(1,1)"><g><path fill="none" stroke="none"/><text fill="#000000" stroke="none" font-family="Arial" font-size="13px" font-style="normal" font-weight="bold" text-decoration="none" x="145.895263671875" y="99.5">: Patient</text></g></g><g transform="translate(-112,2) scale(1,1)"><path fill="none" stroke="#000000" d="M 170.5 105 L 170.5 320" stroke-miterlimit="10" stroke-dasharray="3"/></g><g transform="translate(-112,2) scale(1,1)"><rect fill="#C0C0C0" stroke="none" x="271" y="47" width="150.9423828125" height="39" opacity="0.2"/></g><g transform="translate(-112,2) scale(1,1)"><rect fill="#ffffff" stroke="none" x="264" y="40" width="150.9423828125" height="39"/></g><g transform="translate(-112,2) scale(1,1)"><path fill="none" stroke="#000000" d="M 264 40 L 414.9423828125 40 L 414.9423828125 79 L 264 79 L 264 40 Z Z" stroke-miterlimit="10"/></g><g transform="translate(-112,2) scale(1,1)"><g><path fill="none" stroke="none"/><text fill="#000000" stroke="none" font-family="Arial" font-size="13px" font-style="normal" font-weight="bold" text-decoration="none" x="277.692626953125" y="59.5">GetTestNamesButton</text></g></g><g transform="translate(-112,2) scale(1,1)"><path fill="none" stroke="#000000" d="M 340.5 80 L 340.5 239" stroke-miterlimit="10" stroke-dasharray="3"/></g><g transform="translate(-112,2) scale(1,1)"><rect fill="#C0C0C0" stroke="none" x="447" y="123" width="155.2841796875" height="39" opacity="0.2"/></g><g transform="translate(-112,2) scale(1,1)"><rect fill="#ffffff" stroke="none" x="440" y="116" width="155.2841796875" height="39"/></g><g transform="translate(-112,2) scale(1,1)"><path fill="none" stroke="#000000" d="M 440 116 L 595.2841796875 116 L 595.2841796875 155 L 440 155 L 440 116 Z Z" stroke-miterlimit="10"/></g><g transform="translate(-112,2) scale(1,1)"><g><path fill="none" stroke="none"/><text fill="#000000" stroke="none" font-family="Arial" font-size="13px" font-style="normal" font-weight="bold" text-decoration="none" x="453.7021484375" y="135.5">GetTestNamesControl</text></g></g><g transform="translate(-112,2) scale(1,1)"><path fill="none" stroke="#000000" d="M 518.5 156 L 518.5 498" stroke-miterlimit="10" stroke-dasharray="3"/></g><g transform="translate(-112,2) scale(1,1)"><rect fill="#C0C0C0" stroke="none" x="631" y="179" width="164.92626953125" height="39" opacity="0.2"/></g><g transform="translate(-112,2) scale(1,1)"><rect fill="#ffffff" stroke="none" x="624" y="172" width="164.92626953125" height="39"/></g><g transform="translate(-112,2) scale(1,1)"><path fill="none" stroke="#000000" d="M 624 172 L 788.92626953125 172 L 788.92626953125 211 L 624 211 L 624 172 Z Z" stroke-miterlimit="10"/></g><g transform="translate(-112,2) scale(1,1)"><g><path fill="none" stroke="none"/><text fill="#000000" stroke="none" font-family="Arial" font-size="13px" font-style="normal" font-weight="bold" text-decoration="none" x="638.91455078125" y="191.5">PrescriptionImageForm</text></g></g><g transform="translate(-112,2) scale(1,1)"><path fill="none" stroke="#000000" d="M 707.5 212 L 707.5 498" stroke-miterlimit="10" stroke-dasharray="3"/></g><g transform="translate(-112,2) scale(1,1)"><rect fill="#C0C0C0" stroke="none" x="831" y="363" width="94.8544921875" height="39" opacity="0.2"/></g><g transform="translate(-112,2) scale(1,1)"><rect fill="#ffffff" stroke="none" x="824" y="356" width="94.8544921875" height="39"/></g><g transform="translate(-112,2) scale(1,1)"><path fill="none" stroke="#000000" d="M 824 356 L 918.8544921875 356 L 918.8544921875 395 L 824 395 L 824 356 Z Z" stroke-miterlimit="10"/></g><g transform="translate(-112,2) scale(1,1)"><g><path fill="none" stroke="none"/><text fill="#000000" stroke="none" font-family="Arial" font-size="13px" font-style="normal" font-weight="bold" text-decoration="none" x="837.108642578125" y="375.5">Prescription</text></g></g><g transform="translate(-112,2) scale(1,1)"><path fill="none" stroke="#000000" d="M 872.5 396 L 872.5 445" stroke-miterlimit="10" stroke-dasharray="3"/></g><g transform="translate(-112,2) scale(1,1)"><rect fill="#C0C0C0" stroke="none" x="1079" y="47" width="157.47412109375" height="39" opacity="0.2"/></g><g transform="translate(-112,2) scale(1,1)"><rect fill="#ffffff" stroke="none" x="1072" y="40" width="157.47412109375" height="39"/></g><g transform="translate(-112,2) scale(1,1)"><path fill="none" stroke="#000000" d="M 1072 40 L 1229.47412109375 40 L 1229.47412109375 79 L 1072 79 L 1072 40 Z Z" stroke-miterlimit="10"/></g><g transform="translate(-112,2) scale(1,1)"><g><path fill="none" stroke="none"/><text fill="#000000" stroke="none" font-family="Arial" font-size="13px" font-style="normal" font-weight="bold" text-decoration="none" x="1084.26123046875" y="59.5">ManageGetTestNames</text></g></g><g transform="translate(-112,2) scale(1,1)"><path fill="none" stroke="#000000" d="M 1151.5 80 L 1151.5 474" stroke-miterlimit="10" stroke-dasharray="3"/></g><g transform="translate(-112,2) scale(1,1)"><g><path fill="none" stroke="none"/><text fill="#ff82c0" stroke="none" font-family="Arial" font-size="13px" font-style="normal" font-weight="normal" text-decoration="none" x="165" y="26">getTestNames Sequence Diagram</text></g></g><g transform="translate(-112,2) scale(1,1)"><path fill="none" stroke="#000000" d="M 170 120 L 333 120" stroke-miterlimit="10"/></g><g transform="translate(-112,2) scale(1,1)"><path fill="#000000" stroke="none" d="M 322.83732514237585 124.20951775601598 L 333 120 L 322.83732514237585 115.79048224398402"/></g><g transform="translate(-112,2) scale(1,1)"><path fill="none" stroke="#000000" d="M 322.83732514237585 124.20951775601598 L 333 120 L 322.83732514237585 115.79048224398402 L 322.83732514237585 124.20951775601598" stroke-miterlimit="10"/></g><g transform="translate(-112,2) scale(1,1)"><g><path fill="none" stroke="none"/><text fill="#000000" stroke="none" font-family="Arial" font-size="13px" font-style="normal" font-weight="normal" text-decoration="none" x="231.265869140625" y="116.5">press()</text></g></g><g transform="translate(-112,2) scale(1,1)"><rect fill="#ffffff" stroke="none" x="333" y="120" width="13" height="28"/></g><g transform="translate(-112,2) scale(1,1)"><path fill="none" stroke="#000000" d="M 333 120 L 346 120 L 346 148 L 333 148 L 333 120 Z Z" stroke-miterlimit="10"/></g><g transform="translate(-112,2) scale(1,1)"><path fill="none" stroke="#000000" d="M 346 136 L 440 136" stroke-miterlimit="10" stroke-dasharray="3"/></g><g transform="translate(-112,2) scale(1,1)"><path fill="none" stroke="#000000" d="M 429.83732514237585 140.209517756016 L 440 136 L 429.83732514237585 131.790482243984" stroke-miterlimit="10"/></g><g transform="translate(-112,2) scale(1,1)"><g><path fill="none" stroke="none"/><text fill="#000000" stroke="none" font-family="Arial" font-size="13px" font-style="normal" font-weight="normal" text-decoration="none" x="366.5" y="131.5">«create»</text></g></g><g transform="translate(-112,2) scale(1,1)"><path fill="none" stroke="#000000" d="M 518 192 L 624 192" stroke-miterlimit="10" stroke-dasharray="3"/></g><g transform="translate(-112,2) scale(1,1)"><path fill="none" stroke="#000000" d="M 613.8373251423759 196.209517756016 L 624 192 L 613.8373251423758 187.790482243984" stroke-miterlimit="10"/></g><g transform="translate(-112,2) scale(1,1)"><g><path fill="none" stroke="none"/><text fill="#000000" stroke="none" font-family="Arial" font-size="13px" font-style="normal" font-weight="normal" text-decoration="none" x="544.5" y="187.5">«create»</text></g></g><g transform="translate(-112,2) scale(1,1)"><path fill="none" stroke="#000000" d="M 170 225 L 700 225" stroke-miterlimit="10"/></g><g transform="translate(-112,2) scale(1,1)"><path fill="#000000" stroke="none" d="M 689.8373251423759 229.209517756016 L 700 225 L 689.8373251423758 220.790482243984"/></g><g transform="translate(-112,2) scale(1,1)"><path fill="none" stroke="#000000" d="M 689.8373251423759 229.209517756016 L 700 225 L 689.8373251423758 220.790482243984 L 689.8373251423759 229.209517756016" stroke-miterlimit="10"/></g><g transform="translate(-112,2) scale(1,1)"><g><path fill="none" stroke="none"/><text fill="#000000" stroke="none" font-family="Arial" font-size="13px" font-style="normal" font-weight="normal" text-decoration="none" x="358.5" y="221.5">uploadPrescriptionImage()</text></g></g><g transform="translate(-112,2) scale(1,1)"><rect fill="#ffffff" stroke="none" x="700" y="225" width="13" height="28"/></g><g transform="translate(-112,2) scale(1,1)"><path fill="none" stroke="#000000" d="M 700 225 L 713 225 L 713 253 L 700 253 L 700 225 Z Z" stroke-miterlimit="10"/></g><g transform="translate(-112,2) scale(1,1)"><path fill="none" stroke="#000000" d="M 170 278 L 700 278" stroke-miterlimit="10"/></g><g transform="translate(-112,2) scale(1,1)"><path fill="#000000" stroke="none" d="M 689.8373251423759 282.209517756016 L 700 278 L 689.8373251423758 273.790482243984"/></g><g transform="translate(-112,2) scale(1,1)"><path fill="none" stroke="#000000" d="M 689.8373251423759 282.209517756016 L 700 278 L 689.8373251423758 273.790482243984 L 689.8373251423759 282.209517756016" stroke-miterlimit="10"/></g><g transform="translate(-112,2) scale(1,1)"><g><path fill="none" stroke="none"/><text fill="#000000" stroke="none" font-family="Arial" font-size="13px" font-style="normal" font-weight="normal" text-decoration="none" x="412.015869140625" y="274.5">submit()</text></g></g><g transform="translate(-112,2) scale(1,1)"><rect fill="#ffffff" stroke="none" x="700" y="278" width="13" height="28"/></g><g transform="translate(-112,2) scale(1,1)"><path fill="none" stroke="#000000" d="M 700 278 L 713 278 L 713 306 L 700 306 L 700 278 Z Z" stroke-miterlimit="10"/></g><g transform="translate(-112,2) scale(1,1)"><path fill="none" stroke="#000000" d="M 707 320 L 524 320" stroke-miterlimit="10"/></g><g transform="translate(-112,2) scale(1,1)"><path fill="#000000" stroke="none" d="M 534.1626748576241 315.790482243984 L 524 320 L 534.1626748576241 324.209517756016"/></g><g transform="translate(-112,2) scale(1,1)"><path fill="none" stroke="#000000" d="M 534.1626748576241 315.790482243984 L 524 320 L 534.1626748576241 324.209517756016 L 534.1626748576241 315.790482243984" stroke-miterlimit="10"/></g><g transform="translate(-112,2) scale(1,1)"><g><path fill="none" stroke="none"/><text fill="#000000" stroke="none" font-family="Arial" font-size="13px" font-style="normal" font-weight="normal" text-decoration="none" x="575.5" y="316.5">submitImage()</text></g></g><g transform="translate(-112,2) scale(1,1)"><rect fill="#ffffff" stroke="none" x="511" y="320" width="13" height="28"/></g><g transform="translate(-112,2) scale(1,1)"><path fill="none" stroke="#000000" d="M 511 320 L 524 320 L 524 348 L 511 348 L 511 320 Z Z" stroke-miterlimit="10"/></g><g transform="translate(-112,2) scale(1,1)"><path fill="none" stroke="#000000" d="M 518 376 L 824 376" stroke-miterlimit="10" stroke-dasharray="3"/></g><g transform="translate(-112,2) scale(1,1)"><path fill="none" stroke="#000000" d="M 813.8373251423759 380.209517756016 L 824 376 L 813.8373251423758 371.790482243984" stroke-miterlimit="10"/></g><g transform="translate(-112,2) scale(1,1)"><g><path fill="none" stroke="none"/><text fill="#000000" stroke="none" font-family="Arial" font-size="13px" font-style="normal" font-weight="normal" text-decoration="none" x="742.5" y="372.5">«create»</text></g></g><g transform="translate(-112,2) scale(1,1)"><path fill="none" stroke="#000000" d="M 518 432 L 1144 432" stroke-miterlimit="10"/></g><g transform="translate(-112,2) scale(1,1)"><path fill="#000000" stroke="none" d="M 1133.837325142376 436.209517756016 L 1144 432 L 1133.837325142376 427.790482243984"/></g><g transform="translate(-112,2) scale(1,1)"><path fill="none" stroke="#000000" d="M 1133.837325142376 436.209517756016 L 1144 432 L 1133.837325142376 427.790482243984 L 1133.837325142376 436.209517756016" stroke-miterlimit="10"/></g><g transform="translate(-112,2) scale(1,1)"><g><path fill="none" stroke="none"/><text fill="#000000" stroke="none" font-family="Arial" font-size="13px" font-style="normal" font-weight="normal" text-decoration="none" x="903.5" y="428.5">addToUncheckedPrescription(preID)</text></g></g><g transform="translate(-112,2) scale(1,1)"><rect fill="#ffffff" stroke="none" x="1144" y="432" width="13" height="28"/></g><g transform="translate(-112,2) scale(1,1)"><path fill="none" stroke="#000000" d="M 1144 432 L 1157 432 L 1157 460 L 1144 460 L 1144 432 Z Z" stroke-miterlimit="10"/></g><g transform="translate(-112,2) scale(1,1)"><path fill="none" stroke="#000000" d="M 518 456 L 700 456" stroke-miterlimit="10"/></g><g transform="translate(-112,2) scale(1,1)"><path fill="#000000" stroke="none" d="M 689.8373251423759 460.209517756016 L 700 456 L 689.8373251423758 451.790482243984"/></g><g transform="translate(-112,2) scale(1,1)"><path fill="none" stroke="#000000" d="M 689.8373251423759 460.209517756016 L 700 456 L 689.8373251423758 451.790482243984 L 689.8373251423759 460.209517756016" stroke-miterlimit="10"/></g><g transform="translate(-112,2) scale(1,1)"><path fill="none" stroke="#000000" d="M 697 488 L 717 508" stroke-miterlimit="10"/></g><g transform="translate(-112,2) scale(1,1)"><path fill="none" stroke="#000000" d="M 717 488 L 697 508" stroke-miterlimit="10"/></g><g transform="translate(-112,2) scale(1,1)"><g><path fill="none" stroke="none"/><text fill="#000000" stroke="none" font-family="Arial" font-size="13px" font-style="normal" font-weight="normal" text-decoration="none" x="583.5" y="452.5">«destroy»</text></g></g><g transform="translate(-112,2) scale(1,1)"><rect fill="#ffffff" stroke="none" x="700" y="456" width="13" height="28"/></g><g transform="translate(-112,2) scale(1,1)"><path fill="none" stroke="#000000" d="M 700 456 L 713 456 L 713 484 L 700 484 L 700 456 Z Z" stroke-miterlimit="10"/></g></g></svg>