<svg version="1.1" xmlns="http://www.w3.org/2000/svg" xmlns:xlink="http://www.w3.org/1999/xlink" width="913.47412109375" height="510"><defs/><g><text fill="#eeeeee" stroke="none" font-family="Arial" font-size="24px" font-style="normal" font-weight="normal" text-decoration="none" x="0" y="0">UNREGISTERED</text><text fill="#eeeeee" stroke="none" font-family="Arial" font-size="24px" font-style="normal" font-weight="normal" text-decoration="none" x="0" y="30">UNREGISTERED</text><text fill="#eeeeee" stroke="none" font-family="Arial" font-size="24px" font-style="normal" font-weight="normal" text-decoration="none" x="0" y="60">UNREGISTERED</text><text fill="#eeeeee" stroke="none" font-family="Arial" font-size="24px" font-style="normal" font-weight="normal" text-decoration="none" x="0" y="90">UNREGISTERED</text><text fill="#eeeeee" stroke="none" font-family="Arial" font-size="24px" font-style="normal" font-weight="normal" text-decoration="none" x="0" y="120">UNREGISTERED</text><text fill="#eeeeee" stroke="none" font-family="Arial" font-size="24px" font-style="normal" font-weight="normal" text-decoration="none" x="0" y="150">UNREGISTERED</text><text fill="#eeeeee" stroke="none" font-family="Arial" font-size="24px" font-style="normal" font-weight="normal" text-decoration="none" x="0" y="180">UNREGISTERED</text><text fill="#eeeeee" stroke="none" font-family="Arial" font-size="24px" font-style="normal" font-weight="normal" text-decoration="none" x="0" y="210">UNREGISTERED</text><text fill="#eeeeee" stroke="none" font-family="Arial" font-size="24px" font-style="normal" font-weight="normal" text-decoration="none" x="0" y="240">UNREGISTERED</text><text fill="#eeeeee" stroke="none" font-family="Arial" font-size="24px" font-style="normal" font-weight="normal" text-decoration="none" x="0" y="270">UNREGISTERED</text><text fill="#eeeeee" stroke="none" font-family="Arial" font-size="24px" font-style="normal" font-weight="normal" text-decoration="none" x="0" y="300">UNREGISTERED</text><text fill="#eeeeee" stroke="none" font-family="Arial" font-size="24px" font-style="normal" font-weight="normal" text-decoration="none" x="0" y="330">UNREGISTERED</text><text fill="#eeeeee" stroke="none" font-family="Arial" font-size="24px" font-style="normal" font-weight="normal" text-decoration="none" x="0" y="360">UNREGISTERED</text><text fill="#eeeeee" stroke="none" font-family="Arial" font-size="24px" font-style="normal" font-weight="normal" text-decoration="none" x="0" y="390">UNREGISTERED</text><text fill="#eeeeee" stroke="none" font-family="Arial" font-size="24px" font-style="normal" font-weight="normal" text-decoration="none" x="0" y="420">UNREGISTERED</text><text fill="#eeeeee" stroke="none" font-family="Arial" font-size="24px" font-style="normal" font-weight="normal" text-decoration="none" x="0" y="450">UNREGISTERED</text><text fill="#eeeeee" stroke="none" font-family="Arial" font-size="24px" font-style="normal" font-weight="normal" text-decoration="none" x="0" y="480">UNREGISTERED</text><text fill="#eeeeee" stroke="none" font-family="Arial" font-size="24px" font-style="normal" font-weight="normal" text-decoration="none" x="200" y="0">UNREGISTERED</text><text fill="#eeeeee" stroke="none" font-family="Arial" font-size="24px" font-style="normal" font-weight="normal" text-decoration="none" x="200" y="30">UNREGISTERED</text><text fill="#eeeeee" stroke="none" font-family="Arial" font-size="24px" font-style="normal" font-weight="normal" text-decoration="none" x="200" y="60">UNREGISTERED</text><text fill="#eeeeee" stroke="none" font-family="Arial" font-size="24px" font-style="normal" font-weight="normal" text-decoration="none" x="200" y="90">UNREGISTERED</text><text fill="#eeeeee" stroke="none" font-family="Arial" font-size="24px" font-style="normal" font-weight="normal" text-decoration="none" x="200" y="120">UNREGISTERED</text><text fill="#eeeeee" stroke="none" font-family="Arial" font-size="24px" font-style="normal" font-weight="normal" text-decoration="none" x="200" y="150">UNREGISTERED</text><text fill="#eeeeee" stroke="none" font-family="Arial" font-size="24px" font-style="normal" font-weight="normal" text-decoration="none" x="200" y="180">UNREGISTERED</text><text fill="#eeeeee" stroke="none" font-family="Arial" font-size="24px" font-style="normal" font-weight="normal" text-decoration="none" x="200" y="210">UNREGISTERED</text><text fill="#eeeeee" stroke="none" font-family="Arial" font-size="24px" font-style="normal" font-weight="normal" text-decoration="none" x="200" y="240">UNREGISTERED</text><text fill="#eeeeee" stroke="none" font-family="Arial" font-size="24px" font-style="normal" font-weight="normal" text-decoration="none" x="200" y="270">UNREGISTERED</text><text fill="#eeeeee" stroke="none" font-family="Arial" font-size="24px" font-style="normal" font-weight="normal" text-decoration="none" x="200" y="300">UNREGISTERED</text><text fill="#eeeeee" stroke="none" font-family="Arial" font-size="24px" font-style="normal" font-weight="normal" text-decoration="none" x="200" y="330">UNREGISTERED</text><text fill="#eeeeee" stroke="none" font-family="Arial" font-size="24px" font-style="normal" font-weight="normal" text-decoration="none" x="200" y="360">UNREGISTERED</text><text fill="#eeeeee" stroke="none" font-family="Arial" font-size="24px" font-style="normal" font-weight="normal" text-decoration="none" x="200" y="390">UNREGISTERED</text><text fill="#eeeeee" stroke="none" font-family="Arial" font-size="24px" font-style="normal" font-weight="normal" text-decoration="none" x="200" y="420">UNREGISTERED</text><text fill="#eeeeee" stroke="none" font-family="Arial" font-size="24px" font-style="normal" font-weight="normal" text-decoration="none" x="200" y="450">UNREGISTERED</text><text fill="#eeeeee" stroke="none" font-family="Arial" font-size="24px" font-style="normal" font-weight="normal" text-decoration="none" x="200" y="480">UNREGISTERED</text><text fill="#eeeeee" stroke="none" font-family="Arial" font-size="24px" font-style="normal" font-weight="normal" text-decoration="none" x="400" y="0">UNREGISTERED</text><text fill="#eeeeee" stroke="none" font-family="Arial" font-size="24px" font-style="normal" font-weight="normal" text-decoration="none" x="400" y="30">UNREGISTERED</text><text fill="#eeeeee" stroke="none" font-family="Arial" font-size="24px" font-style="normal" font-weight="normal" text-decoration="none" x="400" y="60">UNREGISTERED</text><text fill="#eeeeee" stroke="none" font-family="Arial" font-size="24px" font-style="normal" font-weight="normal" text-decoration="none" x="400" y="90">UNREGISTERED</text><text fill="#eeeeee" stroke="none" font-family="Arial" font-size="24px" font-style="normal" font-weight="normal" text-decoration="none" x="400" y="120">UNREGISTERED</text><text fill="#eeeeee" stroke="none" font-family="Arial" font-size="24px" font-style="normal" font-weight="normal" text-decoration="none" x="400" y="150">UNREGISTERED</text><text fill="#eeeeee" stroke="none" font-family="Arial" font-size="24px" font-style="normal" font-weight="normal" text-decoration="none" x="400" y="180">UNREGISTERED</text><text fill="#eeeeee" stroke="none" font-family="Arial" font-size="24px" font-style="normal" font-weight="normal" text-decoration="none" x="400" y="210">UNREGISTERED</text><text fill="#eeeeee" stroke="none" font-family="Arial" font-size="24px" font-style="normal" font-weight="normal" text-decoration="none" x="400" y="240">UNREGISTERED</text><text fill="#eeeeee" stroke="none" font-family="Arial" font-size="24px" font-style="normal" font-weight="normal" text-decoration="none" x="400" y="270">UNREGISTERED</text><text fill="#eeeeee" stroke="none" font-family="Arial" font-size="24px" font-style="normal" font-weight="normal" text-decoration="none" x="400" y="300">UNREGISTERED</text><text fill="#eeeeee" stroke="none" font-family="Arial" font-size="24px" font-style="normal" font-weight="normal" text-decoration="none" x="400" y="330">UNREGISTERED</text><text fill="#eeeeee" stroke="none" font-family="Arial" font-size="24px" font-style="normal" font-weight="normal" text-decoration="none" x="400" y="360">UNREGISTERED</text><text fill="#eeeeee" stroke="none" font-family="Arial" font-size="24px" font-style="normal" font-weight="normal" text-decoration="none" x="400" y="390">UNREGISTERED</text><text fill="#eeeeee" stroke="none" font-family="Arial" font-size="24px" font-style="normal" font-weight="normal" text-decoration="none" x="400" y="420">UNREGISTERED</text><text fill="#eeeeee" stroke="none" font-family="Arial" font-size="24px" font-style="normal" font-weight="normal" text-decoration="none" x="400" y="450">UNREGISTERED</text><text fill="#eeeeee" stroke="none" font-family="Arial" font-size="24px" font-style="normal" font-weight="normal" text-decoration="none" x="400" y="480">UNREGISTERED</text><text fill="#eeeeee" stroke="none" font-family="Arial" font-size="24px" font-style="normal" font-weight="normal" text-decoration="none" x="600" y="0">UNREGISTERED</text><text fill="#eeeeee" stroke="none" font-family="Arial" font-size="24px" font-style="normal" font-weight="normal" text-decoration="none" x="600" y="30">UNREGISTERED</text><text fill="#eeeeee" stroke="none" font-family="Arial" font-size="24px" font-style="normal" font-weight="normal" text-decoration="none" x="600" y="60">UNREGISTERED</text><text fill="#eeeeee" stroke="none" font-family="Arial" font-size="24px" font-style="normal" font-weight="normal" text-decoration="none" x="600" y="90">UNREGISTERED</text><text fill="#eeeeee" stroke="none" font-family="Arial" font-size="24px" font-style="normal" font-weight="normal" text-decoration="none" x="600" y="120">UNREGISTERED</text><text fill="#eeeeee" stroke="none" font-family="Arial" font-size="24px" font-style="normal" font-weight="normal" text-decoration="none" x="600" y="150">UNREGISTERED</text><text fill="#eeeeee" stroke="none" font-family="Arial" font-size="24px" font-style="normal" font-weight="normal" text-decoration="none" x="600" y="180">UNREGISTERED</text><text fill="#eeeeee" stroke="none" font-family="Arial" font-size="24px" font-style="normal" font-weight="normal" text-decoration="none" x="600" y="210">UNREGISTERED</text><text fill="#eeeeee" stroke="none" font-family="Arial" font-size="24px" font-style="normal" font-weight="normal" text-decoration="none" x="600" y="240">UNREGISTERED</text><text fill="#eeeeee" stroke="none" font-family="Arial" font-size="24px" font-style="normal" font-weight="normal" text-decoration="none" x="600" y="270">UNREGISTERED</text><text fill="#eeeeee" stroke="none" font-family="Arial" font-size="24px" font-style="normal" font-weight="normal" text-decoration="none" x="600" y="300">UNREGISTERED</text><text fill="#eeeeee" stroke="none" font-family="Arial" font-size="24px" font-style="normal" font-weight="normal" text-decoration="none" x="600" y="330">UNREGISTERED</text><text fill="#eeeeee" stroke="none" font-family="Arial" font-size="24px" font-style="normal" font-weight="normal" text-decoration="none" x="600" y="360">UNREGISTERED</text><text fill="#eeeeee" stroke="none" font-family="Arial" font-size="24px" font-style="normal" font-weight="normal" text-decoration="none" x="600" y="390">UNREGISTERED</text><text fill="#eeeeee" stroke="none" font-family="Arial" font-size="24px" font-style="normal" font-weight="normal" text-decoration="none" x="600" y="420">UNREGISTERED</text><text fill="#eeeeee" stroke="none" font-family="Arial" font-size="24px" font-style="normal" font-weight="normal" text-decoration="none" x="600" y="450">UNREGISTERED</text><text fill="#eeeeee" stroke="none" font-family="Arial" font-size="24px" font-style="normal" font-weight="normal" text-decoration="none" x="600" y="480">UNREGISTERED</text><text fill="#eeeeee" stroke="none" font-family="Arial" font-size="24px" font-style="normal" font-weight="normal" text-decoration="none" x="800" y="0">UNREGISTERED</text><text fill="#eeeeee" stroke="none" font-family="Arial" font-size="24px" font-style="normal" font-weight="normal" text-decoration="none" x="800" y="30">UNREGISTERED</text><text fill="#eeeeee" stroke="none" font-family="Arial" font-size="24px" font-style="normal" font-weight="normal" text-decoration="none" x="800" y="60">UNREGISTERED</text><text fill="#eeeeee" stroke="none" font-family="Arial" font-size="24px" font-style="normal" font-weight="normal" text-decoration="none" x="800" y="90">UNREGISTERED</text><text fill="#eeeeee" stroke="none" font-family="Arial" font-size="24px" font-style="normal" font-weight="normal" text-decoration="none" x="800" y="120">UNREGISTERED</text><text fill="#eeeeee" stroke="none" font-family="Arial" font-size="24px" font-style="normal" font-weight="normal" text-decoration="none" x="800" y="150">UNREGISTERED</text><text fill="#eeeeee" stroke="none" font-family="Arial" font-size="24px" font-style="normal" font-weight="normal" text-decoration="none" x="800" y="180">UNREGISTERED</text><text fill="#eeeeee" stroke="none" font-family="Arial" font-size="24px" font-style="normal" font-weight="normal" text-decoration="none" x="800" y="210">UNREGISTERED</text><text fill="#eeeeee" stroke="none" font-family="Arial" font-size="24px" font-style="normal" font-weight="normal" text-decoration="none" x="800" y="240">UNREGISTERED</text><text fill="#eeeeee" stroke="none" font-family="Arial" font-size="24px" font-style="normal" font-weight="normal" text-decoration="none" x="800" y="270">UNREGISTERED</text><text fill="#eeeeee" stroke="none" font-family="Arial" font-size="24px" font-style="normal" font-weight="normal" text-decoration="none" x="800" y="300">UNREGISTERED</text><text fill="#eeeeee" stroke="none" font-family="Arial" font-size="24px" font-style="normal" font-weight="normal" text-decoration="none" x="800" y="330">UNREGISTERED</text><text fill="#eeeeee" stroke="none" font-family="Arial" font-size="24px" font-style="normal" font-weight="normal" text-decoration="none" x="800" y="360">UNREGISTERED</text><text fill="#eeeeee" stroke="none" font-family="Arial" font-size="24px" font-style="normal" font-weight="normal" text-decoration="none" x="800" y="390">UNREGISTERED</text><text fill="#eeeeee" stroke="none" font-family="Arial" font-size="24px" font-style="normal" font-weight="normal" text-decoration="none" x="800" y="420">UNREGISTERED</text><text fill="#eeeeee" stroke="none" font-family="Arial" font-size="24px" font-style="normal" font-weight="normal" text-decoration="none" x="800" y="450">UNREGISTERED</text><text fill="#eeeeee" stroke="none" font-family="Arial" font-size="24px" font-style="normal" font-weight="normal" text-decoration="none" x="800" y="480">UNREGISTERED</text><g transform="translate(-278,2) scale(1,1)"><path fill="#ffffff" stroke="none" d="M 329.3143172940341 47.3 C 329.3143172940341 43.82060576 332.1927190162159 41 335.743408203125 41 C 339.2940973900341 41 342.172499112216 43.82060576 342.172499112216 47.3 C 342.172499112216 50.779394239999995 339.2940973900341 53.6 335.743408203125 53.6 C 332.1927190162159 53.6 329.3143172940341 50.779394239999995 329.3143172940341 47.3 Z"/></g><g transform="translate(-278,2) scale(1,1)"><path fill="none" stroke="#000000" d="M 329.3143172940341 47.3 C 329.3143172940341 43.82060576 332.1927190162159 41 335.743408203125 41 C 339.2940973900341 41 342.172499112216 43.82060576 342.172499112216 47.3 C 342.172499112216 50.779394239999995 339.2940973900341 53.6 335.743408203125 53.6 C 332.1927190162159 53.6 329.3143172940341 50.779394239999995 329.3143172940341 47.3 Z" stroke-miterlimit="10"/></g><g transform="translate(-278,2) scale(1,1)"><path fill="none" stroke="#000000" d="M 335.743408203125 53.6 L 335.743408203125 66.4" stroke-miterlimit="10"/></g><g transform="translate(-278,2) scale(1,1)"><path fill="none" stroke="#000000" d="M 328.93613547585227 58.4 L 342.5506809303978 58.4" stroke-miterlimit="10"/></g><g transform="translate(-278,2) scale(1,1)"><path fill="none" stroke="#000000" d="M 335.743408203125 66.4 L 326.28886274857956 79" stroke-miterlimit="10"/></g><g transform="translate(-278,2) scale(1,1)"><path fill="none" stroke="#000000" d="M 335.743408203125 66.4 L 345.1979536576705 79" stroke-miterlimit="10"/></g><g transform="translate(-278,2) scale(1,1)"><g><path fill="none" stroke="none"/><text fill="#000000" stroke="none" font-family="Arial" font-size="13px" font-style="normal" font-weight="bold" text-decoration="none" x="311.895263671875" y="99.5">: Patient</text></g></g><g transform="translate(-278,2) scale(1,1)"><path fill="none" stroke="#000000" d="M 336.5 105 L 336.5 320" stroke-miterlimit="10" stroke-dasharray="3"/></g><g transform="translate(-278,2) scale(1,1)"><rect fill="#C0C0C0" stroke="none" x="447" y="47" width="155.2841796875" height="39" opacity="0.2"/></g><g transform="translate(-278,2) scale(1,1)"><rect fill="#ffffff" stroke="none" x="440" y="40" width="155.2841796875" height="39"/></g><g transform="translate(-278,2) scale(1,1)"><path fill="none" stroke="#000000" d="M 440 40 L 595.2841796875 40 L 595.2841796875 79 L 440 79 L 440 40 Z Z" stroke-miterlimit="10"/></g><g transform="translate(-278,2) scale(1,1)"><g><path fill="none" stroke="none"/><text fill="#000000" stroke="none" font-family="Arial" font-size="13px" font-style="normal" font-weight="bold" text-decoration="none" x="460.5576171875" y="59.5">RequestTestControl</text></g></g><g transform="translate(-278,2) scale(1,1)"><path fill="none" stroke="#000000" d="M 518.5 80 L 518.5 498" stroke-miterlimit="10" stroke-dasharray="3"/></g><g transform="translate(-278,2) scale(1,1)"><rect fill="#C0C0C0" stroke="none" x="631" y="179" width="164.92626953125" height="39" opacity="0.2"/></g><g transform="translate(-278,2) scale(1,1)"><rect fill="#ffffff" stroke="none" x="624" y="172" width="164.92626953125" height="39"/></g><g transform="translate(-278,2) scale(1,1)"><path fill="none" stroke="#000000" d="M 624 172 L 788.92626953125 172 L 788.92626953125 211 L 624 211 L 624 172 Z Z" stroke-miterlimit="10"/></g><g transform="translate(-278,2) scale(1,1)"><g><path fill="none" stroke="none"/><text fill="#000000" stroke="none" font-family="Arial" font-size="13px" font-style="normal" font-weight="bold" text-decoration="none" x="638.91455078125" y="191.5">PrescriptionImageForm</text></g></g><g transform="translate(-278,2) scale(1,1)"><path fill="none" stroke="#000000" d="M 707.5 212 L 707.5 498" stroke-miterlimit="10" stroke-dasharray="3"/></g><g transform="translate(-278,2) scale(1,1)"><rect fill="#C0C0C0" stroke="none" x="831" y="363" width="94.8544921875" height="39" opacity="0.2"/></g><g transform="translate(-278,2) scale(1,1)"><rect fill="#ffffff" stroke="none" x="824" y="356" width="94.8544921875" height="39"/></g><g transform="translate(-278,2) scale(1,1)"><path fill="none" stroke="#000000" d="M 824 356 L 918.8544921875 356 L 918.8544921875 395 L 824 395 L 824 356 Z Z" stroke-miterlimit="10"/></g><g transform="translate(-278,2) scale(1,1)"><g><path fill="none" stroke="none"/><text fill="#000000" stroke="none" font-family="Arial" font-size="13px" font-style="normal" font-weight="bold" text-decoration="none" x="837.108642578125" y="375.5">Prescription</text></g></g><g transform="translate(-278,2) scale(1,1)"><path fill="none" stroke="#000000" d="M 872.5 396 L 872.5 445" stroke-miterlimit="10" stroke-dasharray="3"/></g><g transform="translate(-278,2) scale(1,1)"><rect fill="#C0C0C0" stroke="none" x="1031" y="47" width="157.47412109375" height="39" opacity="0.2"/></g><g transform="translate(-278,2) scale(1,1)"><rect fill="#ffffff" stroke="none" x="1024" y="40" width="157.47412109375" height="39"/></g><g transform="translate(-278,2) scale(1,1)"><path fill="none" stroke="#000000" d="M 1024 40 L 1181.47412109375 40 L 1181.47412109375 79 L 1024 79 L 1024 40 Z Z" stroke-miterlimit="10"/></g><g transform="translate(-278,2) scale(1,1)"><g><path fill="none" stroke="none"/><text fill="#000000" stroke="none" font-family="Arial" font-size="13px" font-style="normal" font-weight="bold" text-decoration="none" x="1036.26123046875" y="59.5">ManageGetTestNames</text></g></g><g transform="translate(-278,2) scale(1,1)"><path fill="none" stroke="#000000" d="M 1103.5 80 L 1103.5 482" stroke-miterlimit="10" stroke-dasharray="3"/></g><g transform="translate(-278,2) scale(1,1)"><g><path fill="none" stroke="none"/><text fill="#ff82c0" stroke="none" font-family="Arial" font-size="13px" font-style="normal" font-weight="normal" text-decoration="none" x="325" y="26">getTestNames Sequence Diagram</text></g></g><g transform="translate(-278,2) scale(1,1)"><path fill="none" stroke="#000000" d="M 336 136 L 511 136" stroke-miterlimit="10"/></g><g transform="translate(-278,2) scale(1,1)"><path fill="#000000" stroke="none" d="M 500.83732514237585 140.209517756016 L 511 136 L 500.83732514237585 131.790482243984"/></g><g transform="translate(-278,2) scale(1,1)"><path fill="none" stroke="#000000" d="M 500.83732514237585 140.209517756016 L 511 136 L 500.83732514237585 131.790482243984 L 500.83732514237585 140.209517756016" stroke-miterlimit="10"/></g><g transform="translate(-278,2) scale(1,1)"><g><path fill="none" stroke="none"/><text fill="#000000" stroke="none" font-family="Arial" font-size="13px" font-style="normal" font-weight="normal" text-decoration="none" x="377.5" y="132.5">getTestNames()</text></g></g><g transform="translate(-278,2) scale(1,1)"><rect fill="#ffffff" stroke="none" x="511" y="136" width="13" height="28"/></g><g transform="translate(-278,2) scale(1,1)"><path fill="none" stroke="#000000" d="M 511 136 L 524 136 L 524 164 L 511 164 L 511 136 Z Z" stroke-miterlimit="10"/></g><g transform="translate(-278,2) scale(1,1)"><path fill="none" stroke="#000000" d="M 518 192 L 624 192" stroke-miterlimit="10" stroke-dasharray="3"/></g><g transform="translate(-278,2) scale(1,1)"><path fill="none" stroke="#000000" d="M 613.8373251423759 196.209517756016 L 624 192 L 613.8373251423758 187.790482243984" stroke-miterlimit="10"/></g><g transform="translate(-278,2) scale(1,1)"><g><path fill="none" stroke="none"/><text fill="#000000" stroke="none" font-family="Arial" font-size="13px" font-style="normal" font-weight="normal" text-decoration="none" x="544.5" y="187.5">«create»</text></g></g><g transform="translate(-278,2) scale(1,1)"><path fill="none" stroke="#000000" d="M 336 225 L 700 225" stroke-miterlimit="10"/></g><g transform="translate(-278,2) scale(1,1)"><path fill="#000000" stroke="none" d="M 689.8373251423759 229.209517756016 L 700 225 L 689.8373251423758 220.790482243984"/></g><g transform="translate(-278,2) scale(1,1)"><path fill="none" stroke="#000000" d="M 689.8373251423759 229.209517756016 L 700 225 L 689.8373251423758 220.790482243984 L 689.8373251423759 229.209517756016" stroke-miterlimit="10"/></g><g transform="translate(-278,2) scale(1,1)"><g><path fill="none" stroke="none"/><text fill="#000000" stroke="none" font-family="Arial" font-size="13px" font-style="normal" font-weight="normal" text-decoration="none" x="350.5" y="220.5">uploadPrescriptionImage()</text></g></g><g transform="translate(-278,2) scale(1,1)"><rect fill="#ffffff" stroke="none" x="700" y="225" width="13" height="28"/></g><g transform="translate(-278,2) scale(1,1)"><path fill="none" stroke="#000000" d="M 700 225 L 713 225 L 713 253 L 700 253 L 700 225 Z Z" stroke-miterlimit="10"/></g><g transform="translate(-278,2) scale(1,1)"><path fill="none" stroke="#000000" d="M 336 278 L 700 278" stroke-miterlimit="10"/></g><g transform="translate(-278,2) scale(1,1)"><path fill="#000000" stroke="none" d="M 689.8373251423759 282.209517756016 L 700 278 L 689.8373251423758 273.790482243984"/></g><g transform="translate(-278,2) scale(1,1)"><path fill="none" stroke="#000000" d="M 689.8373251423759 282.209517756016 L 700 278 L 689.8373251423758 273.790482243984 L 689.8373251423759 282.209517756016" stroke-miterlimit="10"/></g><g transform="translate(-278,2) scale(1,1)"><g><path fill="none" stroke="none"/><text fill="#000000" stroke="none" font-family="Arial" font-size="13px" font-style="normal" font-weight="normal" text-decoration="none" x="398.015869140625" y="272.5">submit()</text></g></g><g transform="translate(-278,2) scale(1,1)"><rect fill="#ffffff" stroke="none" x="700" y="278" width="13" height="28"/></g><g transform="translate(-278,2) scale(1,1)"><path fill="none" stroke="#000000" d="M 700 278 L 713 278 L 713 306 L 700 306 L 700 278 Z Z" stroke-miterlimit="10"/></g><g transform="translate(-278,2) scale(1,1)"><path fill="none" stroke="#000000" d="M 707 320 L 524 320" stroke-miterlimit="10"/></g><g transform="translate(-278,2) scale(1,1)"><path fill="#000000" stroke="none" d="M 534.1626748576241 315.790482243984 L 524 320 L 534.1626748576241 324.209517756016"/></g><g transform="translate(-278,2) scale(1,1)"><path fill="none" stroke="#000000" d="M 534.1626748576241 315.790482243984 L 524 320 L 534.1626748576241 324.209517756016 L 534.1626748576241 315.790482243984" stroke-miterlimit="10"/></g><g transform="translate(-278,2) scale(1,1)"><g><path fill="none" stroke="none"/><text fill="#000000" stroke="none" font-family="Arial" font-size="13px" font-style="normal" font-weight="normal" text-decoration="none" x="575.5" y="316.5">submitImage()</text></g></g><g transform="translate(-278,2) scale(1,1)"><rect fill="#ffffff" stroke="none" x="511" y="320" width="13" height="28"/></g><g transform="translate(-278,2) scale(1,1)"><path fill="none" stroke="#000000" d="M 511 320 L 524 320 L 524 348 L 511 348 L 511 320 Z Z" stroke-miterlimit="10"/></g><g transform="translate(-278,2) scale(1,1)"><path fill="none" stroke="#000000" d="M 518 376 L 824 376" stroke-miterlimit="10" stroke-dasharray="3"/></g><g transform="translate(-278,2) scale(1,1)"><path fill="none" stroke="#000000" d="M 813.8373251423759 380.209517756016 L 824 376 L 813.8373251423758 371.790482243984" stroke-miterlimit="10"/></g><g transform="translate(-278,2) scale(1,1)"><g><path fill="none" stroke="none"/><text fill="#000000" stroke="none" font-family="Arial" font-size="13px" font-style="normal" font-weight="normal" text-decoration="none" x="742.5" y="372.5">«create»</text></g></g><g transform="translate(-278,2) scale(1,1)"><path fill="none" stroke="#000000" d="M 518 422 L 1096 422" stroke-miterlimit="10"/></g><g transform="translate(-278,2) scale(1,1)"><path fill="#000000" stroke="none" d="M 1085.837325142376 426.209517756016 L 1096 422 L 1085.837325142376 417.790482243984"/></g><g transform="translate(-278,2) scale(1,1)"><path fill="none" stroke="#000000" d="M 1085.837325142376 426.209517756016 L 1096 422 L 1085.837325142376 417.790482243984 L 1085.837325142376 426.209517756016" stroke-miterlimit="10"/></g><g transform="translate(-278,2) scale(1,1)"><g><path fill="none" stroke="none"/><text fill="#000000" stroke="none" font-family="Arial" font-size="13px" font-style="normal" font-weight="normal" text-decoration="none" x="879.5" y="418.5">addToUncheckedPrescription(preID)</text></g></g><g transform="translate(-278,2) scale(1,1)"><rect fill="#ffffff" stroke="none" x="1096" y="422" width="13" height="28"/></g><g transform="translate(-278,2) scale(1,1)"><path fill="none" stroke="#000000" d="M 1096 422 L 1109 422 L 1109 450 L 1096 450 L 1096 422 Z Z" stroke-miterlimit="10"/></g><g transform="translate(-278,2) scale(1,1)"><path fill="none" stroke="#000000" d="M 518 456 L 700 456" stroke-miterlimit="10"/></g><g transform="translate(-278,2) scale(1,1)"><path fill="#000000" stroke="none" d="M 689.8373251423759 460.209517756016 L 700 456 L 689.8373251423758 451.790482243984"/></g><g transform="translate(-278,2) scale(1,1)"><path fill="none" stroke="#000000" d="M 689.8373251423759 460.209517756016 L 700 456 L 689.8373251423758 451.790482243984 L 689.8373251423759 460.209517756016" stroke-miterlimit="10"/></g><g transform="translate(-278,2) scale(1,1)"><path fill="none" stroke="#000000" d="M 697 488 L 717 508" stroke-miterlimit="10"/></g><g transform="translate(-278,2) scale(1,1)"><path fill="none" stroke="#000000" d="M 717 488 L 697 508" stroke-miterlimit="10"/></g><g transform="translate(-278,2) scale(1,1)"><g><path fill="none" stroke="none"/><text fill="#000000" stroke="none" font-family="Arial" font-size="13px" font-style="normal" font-weight="normal" text-decoration="none" x="583.5" y="452.5">«destroy»</text></g></g><g transform="translate(-278,2) scale(1,1)"><rect fill="#ffffff" stroke="none" x="700" y="456" width="13" height="28"/></g><g transform="translate(-278,2) scale(1,1)"><path fill="none" stroke="#000000" d="M 700 456 L 713 456 L 713 484 L 700 484 L 700 456 Z Z" stroke-miterlimit="10"/></g></g></svg>