<svg version="1.1" xmlns="http://www.w3.org/2000/svg" xmlns:xlink="http://www.w3.org/1999/xlink" width="933.50634765625" height="612"><defs/><g><text fill="#eeeeee" stroke="none" font-family="Arial" font-size="24px" font-style="normal" font-weight="normal" text-decoration="none" x="0" y="0">UNREGISTERED</text><text fill="#eeeeee" stroke="none" font-family="Arial" font-size="24px" font-style="normal" font-weight="normal" text-decoration="none" x="0" y="30">UNREGISTERED</text><text fill="#eeeeee" stroke="none" font-family="Arial" font-size="24px" font-style="normal" font-weight="normal" text-decoration="none" x="0" y="60">UNREGISTERED</text><text fill="#eeeeee" stroke="none" font-family="Arial" font-size="24px" font-style="normal" font-weight="normal" text-decoration="none" x="0" y="90">UNREGISTERED</text><text fill="#eeeeee" stroke="none" font-family="Arial" font-size="24px" font-style="normal" font-weight="normal" text-decoration="none" x="0" y="120">UNREGISTERED</text><text fill="#eeeeee" stroke="none" font-family="Arial" font-size="24px" font-style="normal" font-weight="normal" text-decoration="none" x="0" y="150">UNREGISTERED</text><text fill="#eeeeee" stroke="none" font-family="Arial" font-size="24px" font-style="normal" font-weight="normal" text-decoration="none" x="0" y="180">UNREGISTERED</text><text fill="#eeeeee" stroke="none" font-family="Arial" font-size="24px" font-style="normal" font-weight="normal" text-decoration="none" x="0" y="210">UNREGISTERED</text><text fill="#eeeeee" stroke="none" font-family="Arial" font-size="24px" font-style="normal" font-weight="normal" text-decoration="none" x="0" y="240">UNREGISTERED</text><text fill="#eeeeee" stroke="none" font-family="Arial" font-size="24px" font-style="normal" font-weight="normal" text-decoration="none" x="0" y="270">UNREGISTERED</text><text fill="#eeeeee" stroke="none" font-family="Arial" font-size="24px" font-style="normal" font-weight="normal" text-decoration="none" x="0" y="300">UNREGISTERED</text><text fill="#eeeeee" stroke="none" font-family="Arial" font-size="24px" font-style="normal" font-weight="normal" text-decoration="none" x="0" y="330">UNREGISTERED</text><text fill="#eeeeee" stroke="none" font-family="Arial" font-size="24px" font-style="normal" font-weight="normal" text-decoration="none" x="0" y="360">UNREGISTERED</text><text fill="#eeeeee" stroke="none" font-family="Arial" font-size="24px" font-style="normal" font-weight="normal" text-decoration="none" x="0" y="390">UNREGISTERED</text><text fill="#eeeeee" stroke="none" font-family="Arial" font-size="24px" font-style="normal" font-weight="normal" text-decoration="none" x="0" y="420">UNREGISTERED</text><text fill="#eeeeee" stroke="none" font-family="Arial" font-size="24px" font-style="normal" font-weight="normal" text-decoration="none" x="0" y="450">UNREGISTERED</text><text fill="#eeeeee" stroke="none" font-family="Arial" font-size="24px" font-style="normal" font-weight="normal" text-decoration="none" x="0" y="480">UNREGISTERED</text><text fill="#eeeeee" stroke="none" font-family="Arial" font-size="24px" font-style="normal" font-weight="normal" text-decoration="none" x="0" y="510">UNREGISTERED</text><text fill="#eeeeee" stroke="none" font-family="Arial" font-size="24px" font-style="normal" font-weight="normal" text-decoration="none" x="0" y="540">UNREGISTERED</text><text fill="#eeeeee" stroke="none" font-family="Arial" font-size="24px" font-style="normal" font-weight="normal" text-decoration="none" x="0" y="570">UNREGISTERED</text><text fill="#eeeeee" stroke="none" font-family="Arial" font-size="24px" font-style="normal" font-weight="normal" text-decoration="none" x="0" y="600">UNREGISTERED</text><text fill="#eeeeee" stroke="none" font-family="Arial" font-size="24px" font-style="normal" font-weight="normal" text-decoration="none" x="200" y="0">UNREGISTERED</text><text fill="#eeeeee" stroke="none" font-family="Arial" font-size="24px" font-style="normal" font-weight="normal" text-decoration="none" x="200" y="30">UNREGISTERED</text><text fill="#eeeeee" stroke="none" font-family="Arial" font-size="24px" font-style="normal" font-weight="normal" text-decoration="none" x="200" y="60">UNREGISTERED</text><text fill="#eeeeee" stroke="none" font-family="Arial" font-size="24px" font-style="normal" font-weight="normal" text-decoration="none" x="200" y="90">UNREGISTERED</text><text fill="#eeeeee" stroke="none" font-family="Arial" font-size="24px" font-style="normal" font-weight="normal" text-decoration="none" x="200" y="120">UNREGISTERED</text><text fill="#eeeeee" stroke="none" font-family="Arial" font-size="24px" font-style="normal" font-weight="normal" text-decoration="none" x="200" y="150">UNREGISTERED</text><text fill="#eeeeee" stroke="none" font-family="Arial" font-size="24px" font-style="normal" font-weight="normal" text-decoration="none" x="200" y="180">UNREGISTERED</text><text fill="#eeeeee" stroke="none" font-family="Arial" font-size="24px" font-style="normal" font-weight="normal" text-decoration="none" x="200" y="210">UNREGISTERED</text><text fill="#eeeeee" stroke="none" font-family="Arial" font-size="24px" font-style="normal" font-weight="normal" text-decoration="none" x="200" y="240">UNREGISTERED</text><text fill="#eeeeee" stroke="none" font-family="Arial" font-size="24px" font-style="normal" font-weight="normal" text-decoration="none" x="200" y="270">UNREGISTERED</text><text fill="#eeeeee" stroke="none" font-family="Arial" font-size="24px" font-style="normal" font-weight="normal" text-decoration="none" x="200" y="300">UNREGISTERED</text><text fill="#eeeeee" stroke="none" font-family="Arial" font-size="24px" font-style="normal" font-weight="normal" text-decoration="none" x="200" y="330">UNREGISTERED</text><text fill="#eeeeee" stroke="none" font-family="Arial" font-size="24px" font-style="normal" font-weight="normal" text-decoration="none" x="200" y="360">UNREGISTERED</text><text fill="#eeeeee" stroke="none" font-family="Arial" font-size="24px" font-style="normal" font-weight="normal" text-decoration="none" x="200" y="390">UNREGISTERED</text><text fill="#eeeeee" stroke="none" font-family="Arial" font-size="24px" font-style="normal" font-weight="normal" text-decoration="none" x="200" y="420">UNREGISTERED</text><text fill="#eeeeee" stroke="none" font-family="Arial" font-size="24px" font-style="normal" font-weight="normal" text-decoration="none" x="200" y="450">UNREGISTERED</text><text fill="#eeeeee" stroke="none" font-family="Arial" font-size="24px" font-style="normal" font-weight="normal" text-decoration="none" x="200" y="480">UNREGISTERED</text><text fill="#eeeeee" stroke="none" font-family="Arial" font-size="24px" font-style="normal" font-weight="normal" text-decoration="none" x="200" y="510">UNREGISTERED</text><text fill="#eeeeee" stroke="none" font-family="Arial" font-size="24px" font-style="normal" font-weight="normal" text-decoration="none" x="200" y="540">UNREGISTERED</text><text fill="#eeeeee" stroke="none" font-family="Arial" font-size="24px" font-style="normal" font-weight="normal" text-decoration="none" x="200" y="570">UNREGISTERED</text><text fill="#eeeeee" stroke="none" font-family="Arial" font-size="24px" font-style="normal" font-weight="normal" text-decoration="none" x="200" y="600">UNREGISTERED</text><text fill="#eeeeee" stroke="none" font-family="Arial" font-size="24px" font-style="normal" font-weight="normal" text-decoration="none" x="400" y="0">UNREGISTERED</text><text fill="#eeeeee" stroke="none" font-family="Arial" font-size="24px" font-style="normal" font-weight="normal" text-decoration="none" x="400" y="30">UNREGISTERED</text><text fill="#eeeeee" stroke="none" font-family="Arial" font-size="24px" font-style="normal" font-weight="normal" text-decoration="none" x="400" y="60">UNREGISTERED</text><text fill="#eeeeee" stroke="none" font-family="Arial" font-size="24px" font-style="normal" font-weight="normal" text-decoration="none" x="400" y="90">UNREGISTERED</text><text fill="#eeeeee" stroke="none" font-family="Arial" font-size="24px" font-style="normal" font-weight="normal" text-decoration="none" x="400" y="120">UNREGISTERED</text><text fill="#eeeeee" stroke="none" font-family="Arial" font-size="24px" font-style="normal" font-weight="normal" text-decoration="none" x="400" y="150">UNREGISTERED</text><text fill="#eeeeee" stroke="none" font-family="Arial" font-size="24px" font-style="normal" font-weight="normal" text-decoration="none" x="400" y="180">UNREGISTERED</text><text fill="#eeeeee" stroke="none" font-family="Arial" font-size="24px" font-style="normal" font-weight="normal" text-decoration="none" x="400" y="210">UNREGISTERED</text><text fill="#eeeeee" stroke="none" font-family="Arial" font-size="24px" font-style="normal" font-weight="normal" text-decoration="none" x="400" y="240">UNREGISTERED</text><text fill="#eeeeee" stroke="none" font-family="Arial" font-size="24px" font-style="normal" font-weight="normal" text-decoration="none" x="400" y="270">UNREGISTERED</text><text fill="#eeeeee" stroke="none" font-family="Arial" font-size="24px" font-style="normal" font-weight="normal" text-decoration="none" x="400" y="300">UNREGISTERED</text><text fill="#eeeeee" stroke="none" font-family="Arial" font-size="24px" font-style="normal" font-weight="normal" text-decoration="none" x="400" y="330">UNREGISTERED</text><text fill="#eeeeee" stroke="none" font-family="Arial" font-size="24px" font-style="normal" font-weight="normal" text-decoration="none" x="400" y="360">UNREGISTERED</text><text fill="#eeeeee" stroke="none" font-family="Arial" font-size="24px" font-style="normal" font-weight="normal" text-decoration="none" x="400" y="390">UNREGISTERED</text><text fill="#eeeeee" stroke="none" font-family="Arial" font-size="24px" font-style="normal" font-weight="normal" text-decoration="none" x="400" y="420">UNREGISTERED</text><text fill="#eeeeee" stroke="none" font-family="Arial" font-size="24px" font-style="normal" font-weight="normal" text-decoration="none" x="400" y="450">UNREGISTERED</text><text fill="#eeeeee" stroke="none" font-family="Arial" font-size="24px" font-style="normal" font-weight="normal" text-decoration="none" x="400" y="480">UNREGISTERED</text><text fill="#eeeeee" stroke="none" font-family="Arial" font-size="24px" font-style="normal" font-weight="normal" text-decoration="none" x="400" y="510">UNREGISTERED</text><text fill="#eeeeee" stroke="none" font-family="Arial" font-size="24px" font-style="normal" font-weight="normal" text-decoration="none" x="400" y="540">UNREGISTERED</text><text fill="#eeeeee" stroke="none" font-family="Arial" font-size="24px" font-style="normal" font-weight="normal" text-decoration="none" x="400" y="570">UNREGISTERED</text><text fill="#eeeeee" stroke="none" font-family="Arial" font-size="24px" font-style="normal" font-weight="normal" text-decoration="none" x="400" y="600">UNREGISTERED</text><text fill="#eeeeee" stroke="none" font-family="Arial" font-size="24px" font-style="normal" font-weight="normal" text-decoration="none" x="600" y="0">UNREGISTERED</text><text fill="#eeeeee" stroke="none" font-family="Arial" font-size="24px" font-style="normal" font-weight="normal" text-decoration="none" x="600" y="30">UNREGISTERED</text><text fill="#eeeeee" stroke="none" font-family="Arial" font-size="24px" font-style="normal" font-weight="normal" text-decoration="none" x="600" y="60">UNREGISTERED</text><text fill="#eeeeee" stroke="none" font-family="Arial" font-size="24px" font-style="normal" font-weight="normal" text-decoration="none" x="600" y="90">UNREGISTERED</text><text fill="#eeeeee" stroke="none" font-family="Arial" font-size="24px" font-style="normal" font-weight="normal" text-decoration="none" x="600" y="120">UNREGISTERED</text><text fill="#eeeeee" stroke="none" font-family="Arial" font-size="24px" font-style="normal" font-weight="normal" text-decoration="none" x="600" y="150">UNREGISTERED</text><text fill="#eeeeee" stroke="none" font-family="Arial" font-size="24px" font-style="normal" font-weight="normal" text-decoration="none" x="600" y="180">UNREGISTERED</text><text fill="#eeeeee" stroke="none" font-family="Arial" font-size="24px" font-style="normal" font-weight="normal" text-decoration="none" x="600" y="210">UNREGISTERED</text><text fill="#eeeeee" stroke="none" font-family="Arial" font-size="24px" font-style="normal" font-weight="normal" text-decoration="none" x="600" y="240">UNREGISTERED</text><text fill="#eeeeee" stroke="none" font-family="Arial" font-size="24px" font-style="normal" font-weight="normal" text-decoration="none" x="600" y="270">UNREGISTERED</text><text fill="#eeeeee" stroke="none" font-family="Arial" font-size="24px" font-style="normal" font-weight="normal" text-decoration="none" x="600" y="300">UNREGISTERED</text><text fill="#eeeeee" stroke="none" font-family="Arial" font-size="24px" font-style="normal" font-weight="normal" text-decoration="none" x="600" y="330">UNREGISTERED</text><text fill="#eeeeee" stroke="none" font-family="Arial" font-size="24px" font-style="normal" font-weight="normal" text-decoration="none" x="600" y="360">UNREGISTERED</text><text fill="#eeeeee" stroke="none" font-family="Arial" font-size="24px" font-style="normal" font-weight="normal" text-decoration="none" x="600" y="390">UNREGISTERED</text><text fill="#eeeeee" stroke="none" font-family="Arial" font-size="24px" font-style="normal" font-weight="normal" text-decoration="none" x="600" y="420">UNREGISTERED</text><text fill="#eeeeee" stroke="none" font-family="Arial" font-size="24px" font-style="normal" font-weight="normal" text-decoration="none" x="600" y="450">UNREGISTERED</text><text fill="#eeeeee" stroke="none" font-family="Arial" font-size="24px" font-style="normal" font-weight="normal" text-decoration="none" x="600" y="480">UNREGISTERED</text><text fill="#eeeeee" stroke="none" font-family="Arial" font-size="24px" font-style="normal" font-weight="normal" text-decoration="none" x="600" y="510">UNREGISTERED</text><text fill="#eeeeee" stroke="none" font-family="Arial" font-size="24px" font-style="normal" font-weight="normal" text-decoration="none" x="600" y="540">UNREGISTERED</text><text fill="#eeeeee" stroke="none" font-family="Arial" font-size="24px" font-style="normal" font-weight="normal" text-decoration="none" x="600" y="570">UNREGISTERED</text><text fill="#eeeeee" stroke="none" font-family="Arial" font-size="24px" font-style="normal" font-weight="normal" text-decoration="none" x="600" y="600">UNREGISTERED</text><text fill="#eeeeee" stroke="none" font-family="Arial" font-size="24px" font-style="normal" font-weight="normal" text-decoration="none" x="800" y="0">UNREGISTERED</text><text fill="#eeeeee" stroke="none" font-family="Arial" font-size="24px" font-style="normal" font-weight="normal" text-decoration="none" x="800" y="30">UNREGISTERED</text><text fill="#eeeeee" stroke="none" font-family="Arial" font-size="24px" font-style="normal" font-weight="normal" text-decoration="none" x="800" y="60">UNREGISTERED</text><text fill="#eeeeee" stroke="none" font-family="Arial" font-size="24px" font-style="normal" font-weight="normal" text-decoration="none" x="800" y="90">UNREGISTERED</text><text fill="#eeeeee" stroke="none" font-family="Arial" font-size="24px" font-style="normal" font-weight="normal" text-decoration="none" x="800" y="120">UNREGISTERED</text><text fill="#eeeeee" stroke="none" font-family="Arial" font-size="24px" font-style="normal" font-weight="normal" text-decoration="none" x="800" y="150">UNREGISTERED</text><text fill="#eeeeee" stroke="none" font-family="Arial" font-size="24px" font-style="normal" font-weight="normal" text-decoration="none" x="800" y="180">UNREGISTERED</text><text fill="#eeeeee" stroke="none" font-family="Arial" font-size="24px" font-style="normal" font-weight="normal" text-decoration="none" x="800" y="210">UNREGISTERED</text><text fill="#eeeeee" stroke="none" font-family="Arial" font-size="24px" font-style="normal" font-weight="normal" text-decoration="none" x="800" y="240">UNREGISTERED</text><text fill="#eeeeee" stroke="none" font-family="Arial" font-size="24px" font-style="normal" font-weight="normal" text-decoration="none" x="800" y="270">UNREGISTERED</text><text fill="#eeeeee" stroke="none" font-family="Arial" font-size="24px" font-style="normal" font-weight="normal" text-decoration="none" x="800" y="300">UNREGISTERED</text><text fill="#eeeeee" stroke="none" font-family="Arial" font-size="24px" font-style="normal" font-weight="normal" text-decoration="none" x="800" y="330">UNREGISTERED</text><text fill="#eeeeee" stroke="none" font-family="Arial" font-size="24px" font-style="normal" font-weight="normal" text-decoration="none" x="800" y="360">UNREGISTERED</text><text fill="#eeeeee" stroke="none" font-family="Arial" font-size="24px" font-style="normal" font-weight="normal" text-decoration="none" x="800" y="390">UNREGISTERED</text><text fill="#eeeeee" stroke="none" font-family="Arial" font-size="24px" font-style="normal" font-weight="normal" text-decoration="none" x="800" y="420">UNREGISTERED</text><text fill="#eeeeee" stroke="none" font-family="Arial" font-size="24px" font-style="normal" font-weight="normal" text-decoration="none" x="800" y="450">UNREGISTERED</text><text fill="#eeeeee" stroke="none" font-family="Arial" font-size="24px" font-style="normal" font-weight="normal" text-decoration="none" x="800" y="480">UNREGISTERED</text><text fill="#eeeeee" stroke="none" font-family="Arial" font-size="24px" font-style="normal" font-weight="normal" text-decoration="none" x="800" y="510">UNREGISTERED</text><text fill="#eeeeee" stroke="none" font-family="Arial" font-size="24px" font-style="normal" font-weight="normal" text-decoration="none" x="800" y="540">UNREGISTERED</text><text fill="#eeeeee" stroke="none" font-family="Arial" font-size="24px" font-style="normal" font-weight="normal" text-decoration="none" x="800" y="570">UNREGISTERED</text><text fill="#eeeeee" stroke="none" font-family="Arial" font-size="24px" font-style="normal" font-weight="normal" text-decoration="none" x="800" y="600">UNREGISTERED</text><g transform="translate(-74,2) scale(1,1)"><path fill="#ffffff" stroke="none" d="M 125.3143172940341 47.3 C 125.3143172940341 43.82060576 128.1927190162159 41 131.743408203125 41 C 135.2940973900341 41 138.17249911221592 43.82060576 138.17249911221592 47.3 C 138.17249911221592 50.779394239999995 135.2940973900341 53.6 131.743408203125 53.6 C 128.1927190162159 53.6 125.3143172940341 50.779394239999995 125.3143172940341 47.3 Z"/></g><g transform="translate(-74,2) scale(1,1)"><path fill="none" stroke="#000000" d="M 125.3143172940341 47.3 C 125.3143172940341 43.82060576 128.1927190162159 41 131.743408203125 41 C 135.2940973900341 41 138.17249911221592 43.82060576 138.17249911221592 47.3 C 138.17249911221592 50.779394239999995 135.2940973900341 53.6 131.743408203125 53.6 C 128.1927190162159 53.6 125.3143172940341 50.779394239999995 125.3143172940341 47.3 Z" stroke-miterlimit="10"/></g><g transform="translate(-74,2) scale(1,1)"><path fill="none" stroke="#000000" d="M 131.743408203125 53.6 L 131.743408203125 66.4" stroke-miterlimit="10"/></g><g transform="translate(-74,2) scale(1,1)"><path fill="none" stroke="#000000" d="M 124.93613547585228 58.4 L 138.55068093039773 58.4" stroke-miterlimit="10"/></g><g transform="translate(-74,2) scale(1,1)"><path fill="none" stroke="#000000" d="M 131.743408203125 66.4 L 122.28886274857955 79" stroke-miterlimit="10"/></g><g transform="translate(-74,2) scale(1,1)"><path fill="none" stroke="#000000" d="M 131.743408203125 66.4 L 141.19795365767047 79" stroke-miterlimit="10"/></g><g transform="translate(-74,2) scale(1,1)"><g><path fill="none" stroke="none"/><text fill="#000000" stroke="none" font-family="Arial" font-size="13px" font-style="normal" font-weight="bold" text-decoration="none" x="117.727783203125" y="99.5">: بیمار</text></g></g><g transform="translate(-74,2) scale(1,1)"><path fill="none" stroke="#000000" d="M 132.5 105 L 132.5 368" stroke-miterlimit="10" stroke-dasharray="3"/></g><g transform="translate(-74,2) scale(1,1)"><rect fill="#C0C0C0" stroke="none" x="183" y="47" width="166.34814453125" height="39" opacity="0.2"/></g><g transform="translate(-74,2) scale(1,1)"><rect fill="#ffffff" stroke="none" x="176" y="40" width="166.34814453125" height="39"/></g><g transform="translate(-74,2) scale(1,1)"><path fill="none" stroke="#000000" d="M 176 40 L 342.34814453125 40 L 342.34814453125 79 L 176 79 L 176 40 Z Z" stroke-miterlimit="10"/></g><g transform="translate(-74,2) scale(1,1)"><g><path fill="none" stroke="none"/><text fill="#000000" stroke="none" font-family="Arial" font-size="13px" font-style="normal" font-weight="bold" text-decoration="none" x="190.52099609375" y="59.5">RequestPaymentButton</text></g></g><g transform="translate(-74,2) scale(1,1)"><path fill="none" stroke="#000000" d="M 260.5 80 L 260.5 208" stroke-miterlimit="10" stroke-dasharray="3"/></g><g transform="translate(-74,2) scale(1,1)"><rect fill="#C0C0C0" stroke="none" x="359" y="131" width="170.68994140625" height="39" opacity="0.2"/></g><g transform="translate(-74,2) scale(1,1)"><rect fill="#ffffff" stroke="none" x="352" y="124" width="170.68994140625" height="39"/></g><g transform="translate(-74,2) scale(1,1)"><path fill="none" stroke="#000000" d="M 352 124 L 522.68994140625 124 L 522.68994140625 163 L 352 163 L 352 124 Z Z" stroke-miterlimit="10"/></g><g transform="translate(-74,2) scale(1,1)"><g><path fill="none" stroke="none"/><text fill="#000000" stroke="none" font-family="Arial" font-size="13px" font-style="normal" font-weight="bold" text-decoration="none" x="366.530517578125" y="143.5">RequestPaymentControl</text></g></g><g transform="translate(-74,2) scale(1,1)"><path fill="none" stroke="#000000" d="M 438.5 164 L 438.5 600" stroke-miterlimit="10" stroke-dasharray="3"/></g><g transform="translate(-74,2) scale(1,1)"><path fill="#ffffff" stroke="none" d="M 616.770860262784 47.3 C 616.770860262784 43.82060576 619.649261984966 41 623.199951171875 41 C 626.750640358784 41 629.6290420809659 43.82060576 629.6290420809659 47.3 C 629.6290420809659 50.779394239999995 626.750640358784 53.6 623.199951171875 53.6 C 619.649261984966 53.6 616.770860262784 50.779394239999995 616.770860262784 47.3 Z"/></g><g transform="translate(-74,2) scale(1,1)"><path fill="none" stroke="#000000" d="M 616.770860262784 47.3 C 616.770860262784 43.82060576 619.649261984966 41 623.199951171875 41 C 626.750640358784 41 629.6290420809659 43.82060576 629.6290420809659 47.3 C 629.6290420809659 50.779394239999995 626.750640358784 53.6 623.199951171875 53.6 C 619.649261984966 53.6 616.770860262784 50.779394239999995 616.770860262784 47.3 Z" stroke-miterlimit="10"/></g><g transform="translate(-74,2) scale(1,1)"><path fill="none" stroke="#000000" d="M 623.199951171875 53.6 L 623.199951171875 66.4" stroke-miterlimit="10"/></g><g transform="translate(-74,2) scale(1,1)"><path fill="none" stroke="#000000" d="M 616.3926784446022 58.4 L 630.0072238991477 58.4" stroke-miterlimit="10"/></g><g transform="translate(-74,2) scale(1,1)"><path fill="none" stroke="#000000" d="M 623.199951171875 66.4 L 613.7454057173295 79" stroke-miterlimit="10"/></g><g transform="translate(-74,2) scale(1,1)"><path fill="none" stroke="#000000" d="M 623.199951171875 66.4 L 632.6544966264204 79" stroke-miterlimit="10"/></g><g transform="translate(-74,2) scale(1,1)"><g><path fill="none" stroke="none"/><text fill="#000000" stroke="none" font-family="Arial" font-size="13px" font-style="normal" font-weight="bold" text-decoration="none" x="592.883544921875" y="99.5">: درگاه بانکی </text></g></g><g transform="translate(-74,2) scale(1,1)"><path fill="none" stroke="#000000" d="M 624.5 105 L 624.5 576" stroke-miterlimit="10" stroke-dasharray="3"/></g><g transform="translate(-74,2) scale(1,1)"><rect fill="#C0C0C0" stroke="none" x="743" y="203" width="152.64990234375" height="39" opacity="0.2"/></g><g transform="translate(-74,2) scale(1,1)"><rect fill="#ffffff" stroke="none" x="736" y="196" width="152.64990234375" height="39"/></g><g transform="translate(-74,2) scale(1,1)"><path fill="none" stroke="#000000" d="M 736 196 L 888.64990234375 196 L 888.64990234375 235 L 736 235 L 736 196 Z Z" stroke-miterlimit="10"/></g><g transform="translate(-74,2) scale(1,1)"><g><path fill="none" stroke="none"/><text fill="#000000" stroke="none" font-family="Arial" font-size="13px" font-style="normal" font-weight="bold" text-decoration="none" x="749.10546875" y="215.5">RequestPaymenForm</text></g></g><g transform="translate(-74,2) scale(1,1)"><path fill="none" stroke="#000000" d="M 813.5 236 L 813.5 466" stroke-miterlimit="10" stroke-dasharray="3"/></g><g transform="translate(-74,2) scale(1,1)"><rect fill="#C0C0C0" stroke="none" x="927" y="499" width="77.50634765625" height="39" opacity="0.2"/></g><g transform="translate(-74,2) scale(1,1)"><rect fill="#ffffff" stroke="none" x="920" y="492" width="77.50634765625" height="39"/></g><g transform="translate(-74,2) scale(1,1)"><path fill="none" stroke="#000000" d="M 920 492 L 997.50634765625 492 L 997.50634765625 531 L 920 531 L 920 492 Z Z" stroke-miterlimit="10"/></g><g transform="translate(-74,2) scale(1,1)"><g><path fill="none" stroke="none"/><text fill="#000000" stroke="none" font-family="Arial" font-size="13px" font-style="normal" font-weight="bold" text-decoration="none" x="931.655029296875" y="511.5">Sampling</text></g></g><g transform="translate(-74,2) scale(1,1)"><path fill="none" stroke="#000000" d="M 959.5 532 L 959.5 592" stroke-miterlimit="10" stroke-dasharray="3"/></g><g transform="translate(-74,2) scale(1,1)"><g><path fill="none" stroke="none"/><text fill="#99004c" stroke="none" font-family="Arial" font-size="13px" font-style="normal" font-weight="normal" text-decoration="none" x="117" y="26">requestPament Sequence Diagram</text></g></g><g transform="translate(-74,2) scale(1,1)"><path fill="none" stroke="#000000" d="M 266 144 L 352 144" stroke-miterlimit="10" stroke-dasharray="3"/></g><g transform="translate(-74,2) scale(1,1)"><path fill="none" stroke="#000000" d="M 341.83732514237585 148.209517756016 L 352 144 L 341.83732514237585 139.790482243984" stroke-miterlimit="10"/></g><g transform="translate(-74,2) scale(1,1)"><g><path fill="none" stroke="none"/><text fill="#000000" stroke="none" font-family="Arial" font-size="13px" font-style="normal" font-weight="normal" text-decoration="none" x="282.5" y="139.5">«create»</text></g></g><g transform="translate(-74,2) scale(1,1)"><path fill="none" stroke="#000000" d="M 132 128 L 253 128" stroke-miterlimit="10"/></g><g transform="translate(-74,2) scale(1,1)"><path fill="#000000" stroke="none" d="M 242.83732514237585 132.209517756016 L 253 128 L 242.83732514237585 123.79048224398402"/></g><g transform="translate(-74,2) scale(1,1)"><path fill="none" stroke="#000000" d="M 242.83732514237585 132.209517756016 L 253 128 L 242.83732514237585 123.79048224398402 L 242.83732514237585 132.209517756016" stroke-miterlimit="10"/></g><g transform="translate(-74,2) scale(1,1)"><g><path fill="none" stroke="none"/><text fill="#000000" stroke="none" font-family="Arial" font-size="13px" font-style="normal" font-weight="normal" text-decoration="none" x="171.298583984375" y="124.5">press()</text></g></g><g transform="translate(-74,2) scale(1,1)"><rect fill="#ffffff" stroke="none" x="253" y="128" width="13" height="28"/></g><g transform="translate(-74,2) scale(1,1)"><path fill="none" stroke="#000000" d="M 253 128 L 266 128 L 266 156 L 253 156 L 253 128 Z Z" stroke-miterlimit="10"/></g><g transform="translate(-74,2) scale(1,1)"><path fill="none" stroke="#000000" d="M 438 202 L 617 202" stroke-miterlimit="10"/></g><g transform="translate(-74,2) scale(1,1)"><path fill="#000000" stroke="none" d="M 606.8373251423759 206.209517756016 L 617 202 L 606.8373251423758 197.790482243984"/></g><g transform="translate(-74,2) scale(1,1)"><path fill="none" stroke="#000000" d="M 606.8373251423759 206.209517756016 L 617 202 L 606.8373251423758 197.790482243984 L 606.8373251423759 206.209517756016" stroke-miterlimit="10"/></g><g transform="translate(-74,2) scale(1,1)"><g><path fill="none" stroke="none"/><text fill="#000000" stroke="none" font-family="Arial" font-size="13px" font-style="normal" font-weight="normal" text-decoration="none" x="451.5" y="198.5">sendTotalPrice(requestID)</text></g></g><g transform="translate(-74,2) scale(1,1)"><rect fill="#ffffff" stroke="none" x="617" y="202" width="13" height="28"/></g><g transform="translate(-74,2) scale(1,1)"><path fill="none" stroke="#000000" d="M 617 202 L 630 202 L 630 230 L 617 230 L 617 202 Z Z" stroke-miterlimit="10"/></g><g transform="translate(-74,2) scale(1,1)"><path fill="none" stroke="#000000" d="M 630 216 L 736 216" stroke-miterlimit="10" stroke-dasharray="3"/></g><g transform="translate(-74,2) scale(1,1)"><path fill="none" stroke="#000000" d="M 725.8373251423759 220.209517756016 L 736 216 L 725.8373251423758 211.790482243984" stroke-miterlimit="10"/></g><g transform="translate(-74,2) scale(1,1)"><g><path fill="none" stroke="none"/><text fill="#000000" stroke="none" font-family="Arial" font-size="13px" font-style="normal" font-weight="normal" text-decoration="none" x="658.5" y="212.5">«create»</text></g></g><g transform="translate(-74,2) scale(1,1)"><path fill="none" stroke="#000000" d="M 132 258 L 806 258" stroke-miterlimit="10"/></g><g transform="translate(-74,2) scale(1,1)"><path fill="#000000" stroke="none" d="M 795.8373251423759 262.209517756016 L 806 258 L 795.8373251423758 253.790482243984"/></g><g transform="translate(-74,2) scale(1,1)"><path fill="none" stroke="#000000" d="M 795.8373251423759 262.209517756016 L 806 258 L 795.8373251423758 253.790482243984 L 795.8373251423759 262.209517756016" stroke-miterlimit="10"/></g><g transform="translate(-74,2) scale(1,1)"><g><path fill="none" stroke="none"/><text fill="#000000" stroke="none" font-family="Arial" font-size="13px" font-style="normal" font-weight="normal" text-decoration="none" x="482.5" y="254.5">fillContents()</text></g></g><g transform="translate(-74,2) scale(1,1)"><rect fill="#ffffff" stroke="none" x="806" y="258" width="13" height="28"/></g><g transform="translate(-74,2) scale(1,1)"><path fill="none" stroke="#000000" d="M 806 258 L 819 258 L 819 286 L 806 286 L 806 258 Z Z" stroke-miterlimit="10"/></g><g transform="translate(-74,2) scale(1,1)"><path fill="none" stroke="#000000" d="M 132 304 L 806 304" stroke-miterlimit="10"/></g><g transform="translate(-74,2) scale(1,1)"><path fill="#000000" stroke="none" d="M 795.8373251423759 308.209517756016 L 806 304 L 795.8373251423758 299.790482243984"/></g><g transform="translate(-74,2) scale(1,1)"><path fill="none" stroke="#000000" d="M 795.8373251423759 308.209517756016 L 806 304 L 795.8373251423758 299.790482243984 L 795.8373251423759 308.209517756016" stroke-miterlimit="10"/></g><g transform="translate(-74,2) scale(1,1)"><g><path fill="none" stroke="none"/><text fill="#000000" stroke="none" font-family="Arial" font-size="13px" font-style="normal" font-weight="normal" text-decoration="none" x="506.015869140625" y="300.5">submit()</text></g></g><g transform="translate(-74,2) scale(1,1)"><rect fill="#ffffff" stroke="none" x="806" y="304" width="13" height="48"/></g><g transform="translate(-74,2) scale(1,1)"><path fill="none" stroke="#000000" d="M 806 304 L 819 304 L 819 352 L 806 352 L 806 304 Z Z" stroke-miterlimit="10"/></g><g transform="translate(-74,2) scale(1,1)"><path fill="none" stroke="#000000" d="M 806 344 L 630 344" stroke-miterlimit="10"/></g><g transform="translate(-74,2) scale(1,1)"><path fill="#000000" stroke="none" d="M 640.1626748576241 339.790482243984 L 630 344 L 640.1626748576241 348.209517756016"/></g><g transform="translate(-74,2) scale(1,1)"><path fill="none" stroke="#000000" d="M 640.1626748576241 339.790482243984 L 630 344 L 640.1626748576241 348.209517756016 L 640.1626748576241 339.790482243984" stroke-miterlimit="10"/></g><g transform="translate(-74,2) scale(1,1)"><g><path fill="none" stroke="none"/><text fill="#000000" stroke="none" font-family="Arial" font-size="13px" font-style="normal" font-weight="normal" text-decoration="none" x="665.5" y="339.5">submitRequest()</text></g></g><g transform="translate(-74,2) scale(1,1)"><rect fill="#ffffff" stroke="none" x="617" y="344" width="13" height="28"/></g><g transform="translate(-74,2) scale(1,1)"><path fill="none" stroke="#000000" d="M 617 344 L 630 344 L 630 372 L 617 372 L 617 344 Z Z" stroke-miterlimit="10"/></g><g transform="translate(-74,2) scale(1,1)"><path fill="none" stroke="#000000" d="M 630 360 L 660 360 L 660 380 L 630 380" stroke-miterlimit="10"/></g><g transform="translate(-74,2) scale(1,1)"><path fill="#000000" stroke="none" d="M 640.1626748576241 375.790482243984 L 630 380 L 640.1626748576241 384.209517756016"/></g><g transform="translate(-74,2) scale(1,1)"><path fill="none" stroke="#000000" d="M 640.1626748576241 375.790482243984 L 630 380 L 640.1626748576241 384.209517756016 L 640.1626748576241 375.790482243984" stroke-miterlimit="10"/></g><g transform="translate(-74,2) scale(1,1)"><g><path fill="none" stroke="none"/><text fill="#000000" stroke="none" font-family="Arial" font-size="13px" font-style="normal" font-weight="normal" text-decoration="none" x="678.5" y="375.5">validateUserInfo()</text></g></g><g transform="translate(-74,2) scale(1,1)"><rect fill="#ffffff" stroke="none" x="617" y="380" width="13" height="28"/></g><g transform="translate(-74,2) scale(1,1)"><path fill="none" stroke="#000000" d="M 617 380 L 630 380 L 630 408 L 617 408 L 617 380 Z Z" stroke-miterlimit="10"/></g><g transform="translate(-74,2) scale(1,1)"><path fill="none" stroke="#000000" d="M 617 392 L 438 392" stroke-miterlimit="10" stroke-dasharray="3"/></g><g transform="translate(-74,2) scale(1,1)"><path fill="none" stroke="#000000" d="M 448.16267485762415 387.790482243984 L 438 392 L 448.16267485762415 396.209517756016" stroke-miterlimit="10"/></g><g transform="translate(-74,2) scale(1,1)"><g><path fill="none" stroke="none"/><text fill="#000000" stroke="none" font-family="Arial" font-size="13px" font-style="normal" font-weight="normal" text-decoration="none" x="453.5" y="408.5">Payment was Successful</text></g></g><g transform="translate(-74,2) scale(1,1)"><path fill="none" stroke="#000000" d="M 624 424 L 806 424" stroke-miterlimit="10"/></g><g transform="translate(-74,2) scale(1,1)"><path fill="#000000" stroke="none" d="M 795.8373251423759 428.209517756016 L 806 424 L 795.8373251423758 419.790482243984"/></g><g transform="translate(-74,2) scale(1,1)"><path fill="none" stroke="#000000" d="M 795.8373251423759 428.209517756016 L 806 424 L 795.8373251423758 419.790482243984 L 795.8373251423759 428.209517756016" stroke-miterlimit="10"/></g><g transform="translate(-74,2) scale(1,1)"><path fill="none" stroke="#000000" d="M 803 456 L 823 476" stroke-miterlimit="10"/></g><g transform="translate(-74,2) scale(1,1)"><path fill="none" stroke="#000000" d="M 823 456 L 803 476" stroke-miterlimit="10"/></g><g transform="translate(-74,2) scale(1,1)"><g><path fill="none" stroke="none"/><text fill="#000000" stroke="none" font-family="Arial" font-size="13px" font-style="normal" font-weight="normal" text-decoration="none" x="691.5" y="420.5">«destroy»</text></g></g><g transform="translate(-74,2) scale(1,1)"><rect fill="#ffffff" stroke="none" x="806" y="424" width="13" height="28"/></g><g transform="translate(-74,2) scale(1,1)"><path fill="none" stroke="#000000" d="M 806 424 L 819 424 L 819 452 L 806 452 L 806 424 Z Z" stroke-miterlimit="10"/></g><g transform="translate(-74,2) scale(1,1)"><path fill="none" stroke="#000000" d="M 438 512 L 920 512" stroke-miterlimit="10" stroke-dasharray="3"/></g><g transform="translate(-74,2) scale(1,1)"><path fill="none" stroke="#000000" d="M 909.8373251423759 516.209517756016 L 920 512 L 909.8373251423758 507.790482243984" stroke-miterlimit="10"/></g><g transform="translate(-74,2) scale(1,1)"><g><path fill="none" stroke="none"/><text fill="#000000" stroke="none" font-family="Arial" font-size="13px" font-style="normal" font-weight="normal" text-decoration="none" x="654.5" y="508.5">«create»</text></g></g></g></svg>