<svg version="1.1" xmlns="http://www.w3.org/2000/svg" xmlns:xlink="http://www.w3.org/1999/xlink" width="672.05419921875" height="506"><defs/><g><text fill="#eeeeee" stroke="none" font-family="Arial" font-size="24px" font-style="normal" font-weight="normal" text-decoration="none" x="0" y="0">UNREGISTERED</text><text fill="#eeeeee" stroke="none" font-family="Arial" font-size="24px" font-style="normal" font-weight="normal" text-decoration="none" x="0" y="30">UNREGISTERED</text><text fill="#eeeeee" stroke="none" font-family="Arial" font-size="24px" font-style="normal" font-weight="normal" text-decoration="none" x="0" y="60">UNREGISTERED</text><text fill="#eeeeee" stroke="none" font-family="Arial" font-size="24px" font-style="normal" font-weight="normal" text-decoration="none" x="0" y="90">UNREGISTERED</text><text fill="#eeeeee" stroke="none" font-family="Arial" font-size="24px" font-style="normal" font-weight="normal" text-decoration="none" x="0" y="120">UNREGISTERED</text><text fill="#eeeeee" stroke="none" font-family="Arial" font-size="24px" font-style="normal" font-weight="normal" text-decoration="none" x="0" y="150">UNREGISTERED</text><text fill="#eeeeee" stroke="none" font-family="Arial" font-size="24px" font-style="normal" font-weight="normal" text-decoration="none" x="0" y="180">UNREGISTERED</text><text fill="#eeeeee" stroke="none" font-family="Arial" font-size="24px" font-style="normal" font-weight="normal" text-decoration="none" x="0" y="210">UNREGISTERED</text><text fill="#eeeeee" stroke="none" font-family="Arial" font-size="24px" font-style="normal" font-weight="normal" text-decoration="none" x="0" y="240">UNREGISTERED</text><text fill="#eeeeee" stroke="none" font-family="Arial" font-size="24px" font-style="normal" font-weight="normal" text-decoration="none" x="0" y="270">UNREGISTERED</text><text fill="#eeeeee" stroke="none" font-family="Arial" font-size="24px" font-style="normal" font-weight="normal" text-decoration="none" x="0" y="300">UNREGISTERED</text><text fill="#eeeeee" stroke="none" font-family="Arial" font-size="24px" font-style="normal" font-weight="normal" text-decoration="none" x="0" y="330">UNREGISTERED</text><text fill="#eeeeee" stroke="none" font-family="Arial" font-size="24px" font-style="normal" font-weight="normal" text-decoration="none" x="0" y="360">UNREGISTERED</text><text fill="#eeeeee" stroke="none" font-family="Arial" font-size="24px" font-style="normal" font-weight="normal" text-decoration="none" x="0" y="390">UNREGISTERED</text><text fill="#eeeeee" stroke="none" font-family="Arial" font-size="24px" font-style="normal" font-weight="normal" text-decoration="none" x="0" y="420">UNREGISTERED</text><text fill="#eeeeee" stroke="none" font-family="Arial" font-size="24px" font-style="normal" font-weight="normal" text-decoration="none" x="0" y="450">UNREGISTERED</text><text fill="#eeeeee" stroke="none" font-family="Arial" font-size="24px" font-style="normal" font-weight="normal" text-decoration="none" x="0" y="480">UNREGISTERED</text><text fill="#eeeeee" stroke="none" font-family="Arial" font-size="24px" font-style="normal" font-weight="normal" text-decoration="none" x="200" y="0">UNREGISTERED</text><text fill="#eeeeee" stroke="none" font-family="Arial" font-size="24px" font-style="normal" font-weight="normal" text-decoration="none" x="200" y="30">UNREGISTERED</text><text fill="#eeeeee" stroke="none" font-family="Arial" font-size="24px" font-style="normal" font-weight="normal" text-decoration="none" x="200" y="60">UNREGISTERED</text><text fill="#eeeeee" stroke="none" font-family="Arial" font-size="24px" font-style="normal" font-weight="normal" text-decoration="none" x="200" y="90">UNREGISTERED</text><text fill="#eeeeee" stroke="none" font-family="Arial" font-size="24px" font-style="normal" font-weight="normal" text-decoration="none" x="200" y="120">UNREGISTERED</text><text fill="#eeeeee" stroke="none" font-family="Arial" font-size="24px" font-style="normal" font-weight="normal" text-decoration="none" x="200" y="150">UNREGISTERED</text><text fill="#eeeeee" stroke="none" font-family="Arial" font-size="24px" font-style="normal" font-weight="normal" text-decoration="none" x="200" y="180">UNREGISTERED</text><text fill="#eeeeee" stroke="none" font-family="Arial" font-size="24px" font-style="normal" font-weight="normal" text-decoration="none" x="200" y="210">UNREGISTERED</text><text fill="#eeeeee" stroke="none" font-family="Arial" font-size="24px" font-style="normal" font-weight="normal" text-decoration="none" x="200" y="240">UNREGISTERED</text><text fill="#eeeeee" stroke="none" font-family="Arial" font-size="24px" font-style="normal" font-weight="normal" text-decoration="none" x="200" y="270">UNREGISTERED</text><text fill="#eeeeee" stroke="none" font-family="Arial" font-size="24px" font-style="normal" font-weight="normal" text-decoration="none" x="200" y="300">UNREGISTERED</text><text fill="#eeeeee" stroke="none" font-family="Arial" font-size="24px" font-style="normal" font-weight="normal" text-decoration="none" x="200" y="330">UNREGISTERED</text><text fill="#eeeeee" stroke="none" font-family="Arial" font-size="24px" font-style="normal" font-weight="normal" text-decoration="none" x="200" y="360">UNREGISTERED</text><text fill="#eeeeee" stroke="none" font-family="Arial" font-size="24px" font-style="normal" font-weight="normal" text-decoration="none" x="200" y="390">UNREGISTERED</text><text fill="#eeeeee" stroke="none" font-family="Arial" font-size="24px" font-style="normal" font-weight="normal" text-decoration="none" x="200" y="420">UNREGISTERED</text><text fill="#eeeeee" stroke="none" font-family="Arial" font-size="24px" font-style="normal" font-weight="normal" text-decoration="none" x="200" y="450">UNREGISTERED</text><text fill="#eeeeee" stroke="none" font-family="Arial" font-size="24px" font-style="normal" font-weight="normal" text-decoration="none" x="200" y="480">UNREGISTERED</text><text fill="#eeeeee" stroke="none" font-family="Arial" font-size="24px" font-style="normal" font-weight="normal" text-decoration="none" x="400" y="0">UNREGISTERED</text><text fill="#eeeeee" stroke="none" font-family="Arial" font-size="24px" font-style="normal" font-weight="normal" text-decoration="none" x="400" y="30">UNREGISTERED</text><text fill="#eeeeee" stroke="none" font-family="Arial" font-size="24px" font-style="normal" font-weight="normal" text-decoration="none" x="400" y="60">UNREGISTERED</text><text fill="#eeeeee" stroke="none" font-family="Arial" font-size="24px" font-style="normal" font-weight="normal" text-decoration="none" x="400" y="90">UNREGISTERED</text><text fill="#eeeeee" stroke="none" font-family="Arial" font-size="24px" font-style="normal" font-weight="normal" text-decoration="none" x="400" y="120">UNREGISTERED</text><text fill="#eeeeee" stroke="none" font-family="Arial" font-size="24px" font-style="normal" font-weight="normal" text-decoration="none" x="400" y="150">UNREGISTERED</text><text fill="#eeeeee" stroke="none" font-family="Arial" font-size="24px" font-style="normal" font-weight="normal" text-decoration="none" x="400" y="180">UNREGISTERED</text><text fill="#eeeeee" stroke="none" font-family="Arial" font-size="24px" font-style="normal" font-weight="normal" text-decoration="none" x="400" y="210">UNREGISTERED</text><text fill="#eeeeee" stroke="none" font-family="Arial" font-size="24px" font-style="normal" font-weight="normal" text-decoration="none" x="400" y="240">UNREGISTERED</text><text fill="#eeeeee" stroke="none" font-family="Arial" font-size="24px" font-style="normal" font-weight="normal" text-decoration="none" x="400" y="270">UNREGISTERED</text><text fill="#eeeeee" stroke="none" font-family="Arial" font-size="24px" font-style="normal" font-weight="normal" text-decoration="none" x="400" y="300">UNREGISTERED</text><text fill="#eeeeee" stroke="none" font-family="Arial" font-size="24px" font-style="normal" font-weight="normal" text-decoration="none" x="400" y="330">UNREGISTERED</text><text fill="#eeeeee" stroke="none" font-family="Arial" font-size="24px" font-style="normal" font-weight="normal" text-decoration="none" x="400" y="360">UNREGISTERED</text><text fill="#eeeeee" stroke="none" font-family="Arial" font-size="24px" font-style="normal" font-weight="normal" text-decoration="none" x="400" y="390">UNREGISTERED</text><text fill="#eeeeee" stroke="none" font-family="Arial" font-size="24px" font-style="normal" font-weight="normal" text-decoration="none" x="400" y="420">UNREGISTERED</text><text fill="#eeeeee" stroke="none" font-family="Arial" font-size="24px" font-style="normal" font-weight="normal" text-decoration="none" x="400" y="450">UNREGISTERED</text><text fill="#eeeeee" stroke="none" font-family="Arial" font-size="24px" font-style="normal" font-weight="normal" text-decoration="none" x="400" y="480">UNREGISTERED</text><text fill="#eeeeee" stroke="none" font-family="Arial" font-size="24px" font-style="normal" font-weight="normal" text-decoration="none" x="600" y="0">UNREGISTERED</text><text fill="#eeeeee" stroke="none" font-family="Arial" font-size="24px" font-style="normal" font-weight="normal" text-decoration="none" x="600" y="30">UNREGISTERED</text><text fill="#eeeeee" stroke="none" font-family="Arial" font-size="24px" font-style="normal" font-weight="normal" text-decoration="none" x="600" y="60">UNREGISTERED</text><text fill="#eeeeee" stroke="none" font-family="Arial" font-size="24px" font-style="normal" font-weight="normal" text-decoration="none" x="600" y="90">UNREGISTERED</text><text fill="#eeeeee" stroke="none" font-family="Arial" font-size="24px" font-style="normal" font-weight="normal" text-decoration="none" x="600" y="120">UNREGISTERED</text><text fill="#eeeeee" stroke="none" font-family="Arial" font-size="24px" font-style="normal" font-weight="normal" text-decoration="none" x="600" y="150">UNREGISTERED</text><text fill="#eeeeee" stroke="none" font-family="Arial" font-size="24px" font-style="normal" font-weight="normal" text-decoration="none" x="600" y="180">UNREGISTERED</text><text fill="#eeeeee" stroke="none" font-family="Arial" font-size="24px" font-style="normal" font-weight="normal" text-decoration="none" x="600" y="210">UNREGISTERED</text><text fill="#eeeeee" stroke="none" font-family="Arial" font-size="24px" font-style="normal" font-weight="normal" text-decoration="none" x="600" y="240">UNREGISTERED</text><text fill="#eeeeee" stroke="none" font-family="Arial" font-size="24px" font-style="normal" font-weight="normal" text-decoration="none" x="600" y="270">UNREGISTERED</text><text fill="#eeeeee" stroke="none" font-family="Arial" font-size="24px" font-style="normal" font-weight="normal" text-decoration="none" x="600" y="300">UNREGISTERED</text><text fill="#eeeeee" stroke="none" font-family="Arial" font-size="24px" font-style="normal" font-weight="normal" text-decoration="none" x="600" y="330">UNREGISTERED</text><text fill="#eeeeee" stroke="none" font-family="Arial" font-size="24px" font-style="normal" font-weight="normal" text-decoration="none" x="600" y="360">UNREGISTERED</text><text fill="#eeeeee" stroke="none" font-family="Arial" font-size="24px" font-style="normal" font-weight="normal" text-decoration="none" x="600" y="390">UNREGISTERED</text><text fill="#eeeeee" stroke="none" font-family="Arial" font-size="24px" font-style="normal" font-weight="normal" text-decoration="none" x="600" y="420">UNREGISTERED</text><text fill="#eeeeee" stroke="none" font-family="Arial" font-size="24px" font-style="normal" font-weight="normal" text-decoration="none" x="600" y="450">UNREGISTERED</text><text fill="#eeeeee" stroke="none" font-family="Arial" font-size="24px" font-style="normal" font-weight="normal" text-decoration="none" x="600" y="480">UNREGISTERED</text><g transform="translate(-66,2) scale(1,1)"><path fill="#ffffff" stroke="none" d="M 117.3143172940341 47.3 C 117.3143172940341 43.82060576 120.1927190162159 41 123.743408203125 41 C 127.2940973900341 41 130.17249911221592 43.82060576 130.17249911221592 47.3 C 130.17249911221592 50.779394239999995 127.2940973900341 53.6 123.743408203125 53.6 C 120.1927190162159 53.6 117.3143172940341 50.779394239999995 117.3143172940341 47.3 Z"/></g><g transform="translate(-66,2) scale(1,1)"><path fill="none" stroke="#000000" d="M 117.3143172940341 47.3 C 117.3143172940341 43.82060576 120.1927190162159 41 123.743408203125 41 C 127.2940973900341 41 130.17249911221592 43.82060576 130.17249911221592 47.3 C 130.17249911221592 50.779394239999995 127.2940973900341 53.6 123.743408203125 53.6 C 120.1927190162159 53.6 117.3143172940341 50.779394239999995 117.3143172940341 47.3 Z" stroke-miterlimit="10"/></g><g transform="translate(-66,2) scale(1,1)"><path fill="none" stroke="#000000" d="M 123.743408203125 53.6 L 123.743408203125 66.4" stroke-miterlimit="10"/></g><g transform="translate(-66,2) scale(1,1)"><path fill="none" stroke="#000000" d="M 116.93613547585228 58.4 L 130.55068093039773 58.4" stroke-miterlimit="10"/></g><g transform="translate(-66,2) scale(1,1)"><path fill="none" stroke="#000000" d="M 123.743408203125 66.4 L 114.28886274857955 79" stroke-miterlimit="10"/></g><g transform="translate(-66,2) scale(1,1)"><path fill="none" stroke="#000000" d="M 123.743408203125 66.4 L 133.19795365767047 79" stroke-miterlimit="10"/></g><g transform="translate(-66,2) scale(1,1)"><g><path fill="none" stroke="none"/><text fill="#000000" stroke="none" font-family="Arial" font-size="13px" font-style="normal" font-weight="bold" text-decoration="none" x="109.727783203125" y="99.5">: بیمار</text></g></g><g transform="translate(-66,2) scale(1,1)"><path fill="none" stroke="#000000" d="M 124.5 105 L 124.5 494" stroke-miterlimit="10" stroke-dasharray="3"/></g><g transform="translate(-66,2) scale(1,1)"><rect fill="#C0C0C0" stroke="none" x="207" y="47" width="137.92333984375" height="39" opacity="0.2"/></g><g transform="translate(-66,2) scale(1,1)"><rect fill="#ffffff" stroke="none" x="200" y="40" width="137.92333984375" height="39"/></g><g transform="translate(-66,2) scale(1,1)"><path fill="none" stroke="#000000" d="M 200 40 L 337.92333984375 40 L 337.92333984375 79 L 200 79 L 200 40 Z Z" stroke-miterlimit="10"/></g><g transform="translate(-66,2) scale(1,1)"><g><path fill="none" stroke="none"/><text fill="#000000" stroke="none" font-family="Arial" font-size="13px" font-style="normal" font-weight="bold" text-decoration="none" x="214.03857421875" y="59.5">RequestTestButton</text></g></g><g transform="translate(-66,2) scale(1,1)"><path fill="none" stroke="#000000" d="M 269.5 80 L 269.5 192" stroke-miterlimit="10" stroke-dasharray="3"/></g><g transform="translate(-66,2) scale(1,1)"><rect fill="#C0C0C0" stroke="none" x="351" y="117" width="142.26513671875" height="39" opacity="0.2"/></g><g transform="translate(-66,2) scale(1,1)"><rect fill="#ffffff" stroke="none" x="344" y="110" width="142.26513671875" height="39"/></g><g transform="translate(-66,2) scale(1,1)"><path fill="none" stroke="#000000" d="M 344 110 L 486.26513671875 110 L 486.26513671875 149 L 344 149 L 344 110 Z Z" stroke-miterlimit="10"/></g><g transform="translate(-66,2) scale(1,1)"><g><path fill="none" stroke="none"/><text fill="#000000" stroke="none" font-family="Arial" font-size="13px" font-style="normal" font-weight="bold" text-decoration="none" x="358.048095703125" y="129.5">RequestTestControl</text></g></g><g transform="translate(-66,2) scale(1,1)"><path fill="none" stroke="#000000" d="M 416.5 150 L 416.5 488" stroke-miterlimit="10" stroke-dasharray="3"/></g><g transform="translate(-66,2) scale(1,1)"><rect fill="#C0C0C0" stroke="none" x="495" y="171" width="128.55419921875" height="39" opacity="0.2"/></g><g transform="translate(-66,2) scale(1,1)"><rect fill="#ffffff" stroke="none" x="488" y="164" width="128.55419921875" height="39"/></g><g transform="translate(-66,2) scale(1,1)"><path fill="none" stroke="#000000" d="M 488 164 L 616.55419921875 164 L 616.55419921875 203 L 488 203 L 488 164 Z Z" stroke-miterlimit="10"/></g><g transform="translate(-66,2) scale(1,1)"><g><path fill="none" stroke="none"/><text fill="#000000" stroke="none" font-family="Arial" font-size="13px" font-style="normal" font-weight="bold" text-decoration="none" x="500.981689453125" y="183.5">RequestTestForm</text></g></g><g transform="translate(-66,2) scale(1,1)"><path fill="none" stroke="#000000" d="M 553.5 204 L 553.5 442" stroke-miterlimit="10" stroke-dasharray="3"/></g><g transform="translate(-66,2) scale(1,1)"><rect fill="#C0C0C0" stroke="none" x="639" y="331" width="96.05419921875" height="39" opacity="0.2"/></g><g transform="translate(-66,2) scale(1,1)"><rect fill="#ffffff" stroke="none" x="632" y="324" width="96.05419921875" height="39"/></g><g transform="translate(-66,2) scale(1,1)"><path fill="none" stroke="#000000" d="M 632 324 L 728.05419921875 324 L 728.05419921875 363 L 632 363 L 632 324 Z Z" stroke-miterlimit="10"/></g><g transform="translate(-66,2) scale(1,1)"><g><path fill="none" stroke="none"/><text fill="#000000" stroke="none" font-family="Arial" font-size="13px" font-style="normal" font-weight="bold" text-decoration="none" x="643.896240234375" y="343.5">TestRequest</text></g></g><g transform="translate(-66,2) scale(1,1)"><path fill="none" stroke="#000000" d="M 681.5 364 L 681.5 466" stroke-miterlimit="10" stroke-dasharray="3"/></g><g transform="translate(-66,2) scale(1,1)"><g><path fill="none" stroke="none"/><text fill="#4c0099" stroke="none" font-family="Arial" font-size="13px" font-style="normal" font-weight="normal" text-decoration="none" x="101" y="26">requestTest Sequence Diagram</text></g></g><g transform="translate(-66,2) scale(1,1)"><path fill="none" stroke="#000000" d="M 124 121 L 262 121" stroke-miterlimit="10"/></g><g transform="translate(-66,2) scale(1,1)"><path fill="#000000" stroke="none" d="M 251.83732514237585 125.20951775601598 L 262 121 L 251.83732514237585 116.79048224398402"/></g><g transform="translate(-66,2) scale(1,1)"><path fill="none" stroke="#000000" d="M 251.83732514237585 125.20951775601598 L 262 121 L 251.83732514237585 116.79048224398402 L 251.83732514237585 125.20951775601598" stroke-miterlimit="10"/></g><g transform="translate(-66,2) scale(1,1)"><g><path fill="none" stroke="none"/><text fill="#000000" stroke="none" font-family="Arial" font-size="13px" font-style="normal" font-weight="normal" text-decoration="none" x="172.298583984375" y="117.5">press()</text></g></g><g transform="translate(-66,2) scale(1,1)"><rect fill="#ffffff" stroke="none" x="262" y="121" width="13" height="28"/></g><g transform="translate(-66,2) scale(1,1)"><path fill="none" stroke="#000000" d="M 262 121 L 275 121 L 275 149 L 262 149 L 262 121 Z Z" stroke-miterlimit="10"/></g><g transform="translate(-66,2) scale(1,1)"><path fill="none" stroke="#000000" d="M 275 130 L 344 130" stroke-miterlimit="10" stroke-dasharray="3"/></g><g transform="translate(-66,2) scale(1,1)"><path fill="none" stroke="#000000" d="M 333.83732514237585 134.209517756016 L 344 130 L 333.83732514237585 125.79048224398402" stroke-miterlimit="10"/></g><g transform="translate(-66,2) scale(1,1)"><g><path fill="none" stroke="none"/><text fill="#000000" stroke="none" font-family="Arial" font-size="13px" font-style="normal" font-weight="normal" text-decoration="none" x="280.5" y="123.5">«create»</text></g></g><g transform="translate(-66,2) scale(1,1)"><path fill="none" stroke="#000000" d="M 416 184 L 488 184" stroke-miterlimit="10" stroke-dasharray="3"/></g><g transform="translate(-66,2) scale(1,1)"><path fill="none" stroke="#000000" d="M 477.83732514237585 188.209517756016 L 488 184 L 477.83732514237585 179.790482243984" stroke-miterlimit="10"/></g><g transform="translate(-66,2) scale(1,1)"><g><path fill="none" stroke="none"/><text fill="#000000" stroke="none" font-family="Arial" font-size="13px" font-style="normal" font-weight="normal" text-decoration="none" x="422.5" y="181.5">«create»</text></g></g><g transform="translate(-66,2) scale(1,1)"><path fill="none" stroke="#000000" d="M 124 240 L 546 240" stroke-miterlimit="10"/></g><g transform="translate(-66,2) scale(1,1)"><path fill="#000000" stroke="none" d="M 535.8373251423759 244.209517756016 L 546 240 L 535.8373251423758 235.790482243984"/></g><g transform="translate(-66,2) scale(1,1)"><path fill="none" stroke="#000000" d="M 535.8373251423759 244.209517756016 L 546 240 L 535.8373251423758 235.790482243984 L 535.8373251423759 244.209517756016" stroke-miterlimit="10"/></g><g transform="translate(-66,2) scale(1,1)"><g><path fill="none" stroke="none"/><text fill="#000000" stroke="none" font-family="Arial" font-size="13px" font-style="normal" font-weight="normal" text-decoration="none" x="298.5" y="236.5">fillContents()</text></g></g><g transform="translate(-66,2) scale(1,1)"><rect fill="#ffffff" stroke="none" x="546" y="240" width="13" height="28"/></g><g transform="translate(-66,2) scale(1,1)"><path fill="none" stroke="#000000" d="M 546 240 L 559 240 L 559 268 L 546 268 L 546 240 Z Z" stroke-miterlimit="10"/></g><g transform="translate(-66,2) scale(1,1)"><path fill="none" stroke="#000000" d="M 124 290 L 546 290" stroke-miterlimit="10"/></g><g transform="translate(-66,2) scale(1,1)"><path fill="#000000" stroke="none" d="M 535.8373251423759 294.209517756016 L 546 290 L 535.8373251423758 285.790482243984"/></g><g transform="translate(-66,2) scale(1,1)"><path fill="none" stroke="#000000" d="M 535.8373251423759 294.209517756016 L 546 290 L 535.8373251423758 285.790482243984 L 535.8373251423759 294.209517756016" stroke-miterlimit="10"/></g><g transform="translate(-66,2) scale(1,1)"><g><path fill="none" stroke="none"/><text fill="#000000" stroke="none" font-family="Arial" font-size="13px" font-style="normal" font-weight="normal" text-decoration="none" x="312.015869140625" y="286.5">submit()</text></g></g><g transform="translate(-66,2) scale(1,1)"><rect fill="#ffffff" stroke="none" x="546" y="290" width="13" height="94"/></g><g transform="translate(-66,2) scale(1,1)"><path fill="none" stroke="#000000" d="M 546 290 L 559 290 L 559 384 L 546 384 L 546 290 Z Z" stroke-miterlimit="10"/></g><g transform="translate(-66,2) scale(1,1)"><path fill="none" stroke="#000000" d="M 546 328 L 422 328" stroke-miterlimit="10"/></g><g transform="translate(-66,2) scale(1,1)"><path fill="#000000" stroke="none" d="M 432.16267485762415 323.790482243984 L 422 328 L 432.16267485762415 332.209517756016"/></g><g transform="translate(-66,2) scale(1,1)"><path fill="none" stroke="#000000" d="M 432.16267485762415 323.790482243984 L 422 328 L 432.16267485762415 332.209517756016 L 432.16267485762415 323.790482243984" stroke-miterlimit="10"/></g><g transform="translate(-66,2) scale(1,1)"><g><path fill="none" stroke="none"/><text fill="#000000" stroke="none" font-family="Arial" font-size="13px" font-style="normal" font-weight="normal" text-decoration="none" x="435.5" y="323.5">submitRequest()</text></g></g><g transform="translate(-66,2) scale(1,1)"><rect fill="#ffffff" stroke="none" x="409" y="328" width="13" height="80"/></g><g transform="translate(-66,2) scale(1,1)"><path fill="none" stroke="#000000" d="M 409 328 L 422 328 L 422 408 L 409 408 L 409 328 Z Z" stroke-miterlimit="10"/></g><g transform="translate(-66,2) scale(1,1)"><path fill="none" stroke="#000000" d="M 422 344 L 632 344" stroke-miterlimit="10" stroke-dasharray="3"/></g><g transform="translate(-66,2) scale(1,1)"><path fill="none" stroke="#000000" d="M 621.8373251423759 348.209517756016 L 632 344 L 621.8373251423758 339.790482243984" stroke-miterlimit="10"/></g><g transform="translate(-66,2) scale(1,1)"><g><path fill="none" stroke="none"/><text fill="#000000" stroke="none" font-family="Arial" font-size="13px" font-style="normal" font-weight="normal" text-decoration="none" x="566.5" y="340.5">«create»</text></g></g><g transform="translate(-66,2) scale(1,1)"><path fill="none" stroke="#000000" d="M 422 400 L 546 400" stroke-miterlimit="10"/></g><g transform="translate(-66,2) scale(1,1)"><path fill="#000000" stroke="none" d="M 535.8373251423759 404.209517756016 L 546 400 L 535.8373251423758 395.790482243984"/></g><g transform="translate(-66,2) scale(1,1)"><path fill="none" stroke="#000000" d="M 535.8373251423759 404.209517756016 L 546 400 L 535.8373251423758 395.790482243984 L 535.8373251423759 404.209517756016" stroke-miterlimit="10"/></g><g transform="translate(-66,2) scale(1,1)"><path fill="none" stroke="#000000" d="M 543 432 L 563 452" stroke-miterlimit="10"/></g><g transform="translate(-66,2) scale(1,1)"><path fill="none" stroke="#000000" d="M 563 432 L 543 452" stroke-miterlimit="10"/></g><g transform="translate(-66,2) scale(1,1)"><g><path fill="none" stroke="none"/><text fill="#000000" stroke="none" font-family="Arial" font-size="13px" font-style="normal" font-weight="normal" text-decoration="none" x="447.5" y="395.5">«destroy»</text></g></g><g transform="translate(-66,2) scale(1,1)"><rect fill="#ffffff" stroke="none" x="546" y="400" width="13" height="28"/></g><g transform="translate(-66,2) scale(1,1)"><path fill="none" stroke="#000000" d="M 546 400 L 559 400 L 559 428 L 546 428 L 546 400 Z Z" stroke-miterlimit="10"/></g></g></svg>