<svg version="1.1" xmlns="http://www.w3.org/2000/svg" xmlns:xlink="http://www.w3.org/1999/xlink" width="1244.41357421875" height="676"><defs/><g><text fill="#eeeeee" stroke="none" font-family="Arial" font-size="24px" font-style="normal" font-weight="normal" text-decoration="none" x="0" y="0">UNREGISTERED</text><text fill="#eeeeee" stroke="none" font-family="Arial" font-size="24px" font-style="normal" font-weight="normal" text-decoration="none" x="0" y="30">UNREGISTERED</text><text fill="#eeeeee" stroke="none" font-family="Arial" font-size="24px" font-style="normal" font-weight="normal" text-decoration="none" x="0" y="60">UNREGISTERED</text><text fill="#eeeeee" stroke="none" font-family="Arial" font-size="24px" font-style="normal" font-weight="normal" text-decoration="none" x="0" y="90">UNREGISTERED</text><text fill="#eeeeee" stroke="none" font-family="Arial" font-size="24px" font-style="normal" font-weight="normal" text-decoration="none" x="0" y="120">UNREGISTERED</text><text fill="#eeeeee" stroke="none" font-family="Arial" font-size="24px" font-style="normal" font-weight="normal" text-decoration="none" x="0" y="150">UNREGISTERED</text><text fill="#eeeeee" stroke="none" font-family="Arial" font-size="24px" font-style="normal" font-weight="normal" text-decoration="none" x="0" y="180">UNREGISTERED</text><text fill="#eeeeee" stroke="none" font-family="Arial" font-size="24px" font-style="normal" font-weight="normal" text-decoration="none" x="0" y="210">UNREGISTERED</text><text fill="#eeeeee" stroke="none" font-family="Arial" font-size="24px" font-style="normal" font-weight="normal" text-decoration="none" x="0" y="240">UNREGISTERED</text><text fill="#eeeeee" stroke="none" font-family="Arial" font-size="24px" font-style="normal" font-weight="normal" text-decoration="none" x="0" y="270">UNREGISTERED</text><text fill="#eeeeee" stroke="none" font-family="Arial" font-size="24px" font-style="normal" font-weight="normal" text-decoration="none" x="0" y="300">UNREGISTERED</text><text fill="#eeeeee" stroke="none" font-family="Arial" font-size="24px" font-style="normal" font-weight="normal" text-decoration="none" x="0" y="330">UNREGISTERED</text><text fill="#eeeeee" stroke="none" font-family="Arial" font-size="24px" font-style="normal" font-weight="normal" text-decoration="none" x="0" y="360">UNREGISTERED</text><text fill="#eeeeee" stroke="none" font-family="Arial" font-size="24px" font-style="normal" font-weight="normal" text-decoration="none" x="0" y="390">UNREGISTERED</text><text fill="#eeeeee" stroke="none" font-family="Arial" font-size="24px" font-style="normal" font-weight="normal" text-decoration="none" x="0" y="420">UNREGISTERED</text><text fill="#eeeeee" stroke="none" font-family="Arial" font-size="24px" font-style="normal" font-weight="normal" text-decoration="none" x="0" y="450">UNREGISTERED</text><text fill="#eeeeee" stroke="none" font-family="Arial" font-size="24px" font-style="normal" font-weight="normal" text-decoration="none" x="0" y="480">UNREGISTERED</text><text fill="#eeeeee" stroke="none" font-family="Arial" font-size="24px" font-style="normal" font-weight="normal" text-decoration="none" x="0" y="510">UNREGISTERED</text><text fill="#eeeeee" stroke="none" font-family="Arial" font-size="24px" font-style="normal" font-weight="normal" text-decoration="none" x="0" y="540">UNREGISTERED</text><text fill="#eeeeee" stroke="none" font-family="Arial" font-size="24px" font-style="normal" font-weight="normal" text-decoration="none" x="0" y="570">UNREGISTERED</text><text fill="#eeeeee" stroke="none" font-family="Arial" font-size="24px" font-style="normal" font-weight="normal" text-decoration="none" x="0" y="600">UNREGISTERED</text><text fill="#eeeeee" stroke="none" font-family="Arial" font-size="24px" font-style="normal" font-weight="normal" text-decoration="none" x="0" y="630">UNREGISTERED</text><text fill="#eeeeee" stroke="none" font-family="Arial" font-size="24px" font-style="normal" font-weight="normal" text-decoration="none" x="0" y="660">UNREGISTERED</text><text fill="#eeeeee" stroke="none" font-family="Arial" font-size="24px" font-style="normal" font-weight="normal" text-decoration="none" x="200" y="0">UNREGISTERED</text><text fill="#eeeeee" stroke="none" font-family="Arial" font-size="24px" font-style="normal" font-weight="normal" text-decoration="none" x="200" y="30">UNREGISTERED</text><text fill="#eeeeee" stroke="none" font-family="Arial" font-size="24px" font-style="normal" font-weight="normal" text-decoration="none" x="200" y="60">UNREGISTERED</text><text fill="#eeeeee" stroke="none" font-family="Arial" font-size="24px" font-style="normal" font-weight="normal" text-decoration="none" x="200" y="90">UNREGISTERED</text><text fill="#eeeeee" stroke="none" font-family="Arial" font-size="24px" font-style="normal" font-weight="normal" text-decoration="none" x="200" y="120">UNREGISTERED</text><text fill="#eeeeee" stroke="none" font-family="Arial" font-size="24px" font-style="normal" font-weight="normal" text-decoration="none" x="200" y="150">UNREGISTERED</text><text fill="#eeeeee" stroke="none" font-family="Arial" font-size="24px" font-style="normal" font-weight="normal" text-decoration="none" x="200" y="180">UNREGISTERED</text><text fill="#eeeeee" stroke="none" font-family="Arial" font-size="24px" font-style="normal" font-weight="normal" text-decoration="none" x="200" y="210">UNREGISTERED</text><text fill="#eeeeee" stroke="none" font-family="Arial" font-size="24px" font-style="normal" font-weight="normal" text-decoration="none" x="200" y="240">UNREGISTERED</text><text fill="#eeeeee" stroke="none" font-family="Arial" font-size="24px" font-style="normal" font-weight="normal" text-decoration="none" x="200" y="270">UNREGISTERED</text><text fill="#eeeeee" stroke="none" font-family="Arial" font-size="24px" font-style="normal" font-weight="normal" text-decoration="none" x="200" y="300">UNREGISTERED</text><text fill="#eeeeee" stroke="none" font-family="Arial" font-size="24px" font-style="normal" font-weight="normal" text-decoration="none" x="200" y="330">UNREGISTERED</text><text fill="#eeeeee" stroke="none" font-family="Arial" font-size="24px" font-style="normal" font-weight="normal" text-decoration="none" x="200" y="360">UNREGISTERED</text><text fill="#eeeeee" stroke="none" font-family="Arial" font-size="24px" font-style="normal" font-weight="normal" text-decoration="none" x="200" y="390">UNREGISTERED</text><text fill="#eeeeee" stroke="none" font-family="Arial" font-size="24px" font-style="normal" font-weight="normal" text-decoration="none" x="200" y="420">UNREGISTERED</text><text fill="#eeeeee" stroke="none" font-family="Arial" font-size="24px" font-style="normal" font-weight="normal" text-decoration="none" x="200" y="450">UNREGISTERED</text><text fill="#eeeeee" stroke="none" font-family="Arial" font-size="24px" font-style="normal" font-weight="normal" text-decoration="none" x="200" y="480">UNREGISTERED</text><text fill="#eeeeee" stroke="none" font-family="Arial" font-size="24px" font-style="normal" font-weight="normal" text-decoration="none" x="200" y="510">UNREGISTERED</text><text fill="#eeeeee" stroke="none" font-family="Arial" font-size="24px" font-style="normal" font-weight="normal" text-decoration="none" x="200" y="540">UNREGISTERED</text><text fill="#eeeeee" stroke="none" font-family="Arial" font-size="24px" font-style="normal" font-weight="normal" text-decoration="none" x="200" y="570">UNREGISTERED</text><text fill="#eeeeee" stroke="none" font-family="Arial" font-size="24px" font-style="normal" font-weight="normal" text-decoration="none" x="200" y="600">UNREGISTERED</text><text fill="#eeeeee" stroke="none" font-family="Arial" font-size="24px" font-style="normal" font-weight="normal" text-decoration="none" x="200" y="630">UNREGISTERED</text><text fill="#eeeeee" stroke="none" font-family="Arial" font-size="24px" font-style="normal" font-weight="normal" text-decoration="none" x="200" y="660">UNREGISTERED</text><text fill="#eeeeee" stroke="none" font-family="Arial" font-size="24px" font-style="normal" font-weight="normal" text-decoration="none" x="400" y="0">UNREGISTERED</text><text fill="#eeeeee" stroke="none" font-family="Arial" font-size="24px" font-style="normal" font-weight="normal" text-decoration="none" x="400" y="30">UNREGISTERED</text><text fill="#eeeeee" stroke="none" font-family="Arial" font-size="24px" font-style="normal" font-weight="normal" text-decoration="none" x="400" y="60">UNREGISTERED</text><text fill="#eeeeee" stroke="none" font-family="Arial" font-size="24px" font-style="normal" font-weight="normal" text-decoration="none" x="400" y="90">UNREGISTERED</text><text fill="#eeeeee" stroke="none" font-family="Arial" font-size="24px" font-style="normal" font-weight="normal" text-decoration="none" x="400" y="120">UNREGISTERED</text><text fill="#eeeeee" stroke="none" font-family="Arial" font-size="24px" font-style="normal" font-weight="normal" text-decoration="none" x="400" y="150">UNREGISTERED</text><text fill="#eeeeee" stroke="none" font-family="Arial" font-size="24px" font-style="normal" font-weight="normal" text-decoration="none" x="400" y="180">UNREGISTERED</text><text fill="#eeeeee" stroke="none" font-family="Arial" font-size="24px" font-style="normal" font-weight="normal" text-decoration="none" x="400" y="210">UNREGISTERED</text><text fill="#eeeeee" stroke="none" font-family="Arial" font-size="24px" font-style="normal" font-weight="normal" text-decoration="none" x="400" y="240">UNREGISTERED</text><text fill="#eeeeee" stroke="none" font-family="Arial" font-size="24px" font-style="normal" font-weight="normal" text-decoration="none" x="400" y="270">UNREGISTERED</text><text fill="#eeeeee" stroke="none" font-family="Arial" font-size="24px" font-style="normal" font-weight="normal" text-decoration="none" x="400" y="300">UNREGISTERED</text><text fill="#eeeeee" stroke="none" font-family="Arial" font-size="24px" font-style="normal" font-weight="normal" text-decoration="none" x="400" y="330">UNREGISTERED</text><text fill="#eeeeee" stroke="none" font-family="Arial" font-size="24px" font-style="normal" font-weight="normal" text-decoration="none" x="400" y="360">UNREGISTERED</text><text fill="#eeeeee" stroke="none" font-family="Arial" font-size="24px" font-style="normal" font-weight="normal" text-decoration="none" x="400" y="390">UNREGISTERED</text><text fill="#eeeeee" stroke="none" font-family="Arial" font-size="24px" font-style="normal" font-weight="normal" text-decoration="none" x="400" y="420">UNREGISTERED</text><text fill="#eeeeee" stroke="none" font-family="Arial" font-size="24px" font-style="normal" font-weight="normal" text-decoration="none" x="400" y="450">UNREGISTERED</text><text fill="#eeeeee" stroke="none" font-family="Arial" font-size="24px" font-style="normal" font-weight="normal" text-decoration="none" x="400" y="480">UNREGISTERED</text><text fill="#eeeeee" stroke="none" font-family="Arial" font-size="24px" font-style="normal" font-weight="normal" text-decoration="none" x="400" y="510">UNREGISTERED</text><text fill="#eeeeee" stroke="none" font-family="Arial" font-size="24px" font-style="normal" font-weight="normal" text-decoration="none" x="400" y="540">UNREGISTERED</text><text fill="#eeeeee" stroke="none" font-family="Arial" font-size="24px" font-style="normal" font-weight="normal" text-decoration="none" x="400" y="570">UNREGISTERED</text><text fill="#eeeeee" stroke="none" font-family="Arial" font-size="24px" font-style="normal" font-weight="normal" text-decoration="none" x="400" y="600">UNREGISTERED</text><text fill="#eeeeee" stroke="none" font-family="Arial" font-size="24px" font-style="normal" font-weight="normal" text-decoration="none" x="400" y="630">UNREGISTERED</text><text fill="#eeeeee" stroke="none" font-family="Arial" font-size="24px" font-style="normal" font-weight="normal" text-decoration="none" x="400" y="660">UNREGISTERED</text><text fill="#eeeeee" stroke="none" font-family="Arial" font-size="24px" font-style="normal" font-weight="normal" text-decoration="none" x="600" y="0">UNREGISTERED</text><text fill="#eeeeee" stroke="none" font-family="Arial" font-size="24px" font-style="normal" font-weight="normal" text-decoration="none" x="600" y="30">UNREGISTERED</text><text fill="#eeeeee" stroke="none" font-family="Arial" font-size="24px" font-style="normal" font-weight="normal" text-decoration="none" x="600" y="60">UNREGISTERED</text><text fill="#eeeeee" stroke="none" font-family="Arial" font-size="24px" font-style="normal" font-weight="normal" text-decoration="none" x="600" y="90">UNREGISTERED</text><text fill="#eeeeee" stroke="none" font-family="Arial" font-size="24px" font-style="normal" font-weight="normal" text-decoration="none" x="600" y="120">UNREGISTERED</text><text fill="#eeeeee" stroke="none" font-family="Arial" font-size="24px" font-style="normal" font-weight="normal" text-decoration="none" x="600" y="150">UNREGISTERED</text><text fill="#eeeeee" stroke="none" font-family="Arial" font-size="24px" font-style="normal" font-weight="normal" text-decoration="none" x="600" y="180">UNREGISTERED</text><text fill="#eeeeee" stroke="none" font-family="Arial" font-size="24px" font-style="normal" font-weight="normal" text-decoration="none" x="600" y="210">UNREGISTERED</text><text fill="#eeeeee" stroke="none" font-family="Arial" font-size="24px" font-style="normal" font-weight="normal" text-decoration="none" x="600" y="240">UNREGISTERED</text><text fill="#eeeeee" stroke="none" font-family="Arial" font-size="24px" font-style="normal" font-weight="normal" text-decoration="none" x="600" y="270">UNREGISTERED</text><text fill="#eeeeee" stroke="none" font-family="Arial" font-size="24px" font-style="normal" font-weight="normal" text-decoration="none" x="600" y="300">UNREGISTERED</text><text fill="#eeeeee" stroke="none" font-family="Arial" font-size="24px" font-style="normal" font-weight="normal" text-decoration="none" x="600" y="330">UNREGISTERED</text><text fill="#eeeeee" stroke="none" font-family="Arial" font-size="24px" font-style="normal" font-weight="normal" text-decoration="none" x="600" y="360">UNREGISTERED</text><text fill="#eeeeee" stroke="none" font-family="Arial" font-size="24px" font-style="normal" font-weight="normal" text-decoration="none" x="600" y="390">UNREGISTERED</text><text fill="#eeeeee" stroke="none" font-family="Arial" font-size="24px" font-style="normal" font-weight="normal" text-decoration="none" x="600" y="420">UNREGISTERED</text><text fill="#eeeeee" stroke="none" font-family="Arial" font-size="24px" font-style="normal" font-weight="normal" text-decoration="none" x="600" y="450">UNREGISTERED</text><text fill="#eeeeee" stroke="none" font-family="Arial" font-size="24px" font-style="normal" font-weight="normal" text-decoration="none" x="600" y="480">UNREGISTERED</text><text fill="#eeeeee" stroke="none" font-family="Arial" font-size="24px" font-style="normal" font-weight="normal" text-decoration="none" x="600" y="510">UNREGISTERED</text><text fill="#eeeeee" stroke="none" font-family="Arial" font-size="24px" font-style="normal" font-weight="normal" text-decoration="none" x="600" y="540">UNREGISTERED</text><text fill="#eeeeee" stroke="none" font-family="Arial" font-size="24px" font-style="normal" font-weight="normal" text-decoration="none" x="600" y="570">UNREGISTERED</text><text fill="#eeeeee" stroke="none" font-family="Arial" font-size="24px" font-style="normal" font-weight="normal" text-decoration="none" x="600" y="600">UNREGISTERED</text><text fill="#eeeeee" stroke="none" font-family="Arial" font-size="24px" font-style="normal" font-weight="normal" text-decoration="none" x="600" y="630">UNREGISTERED</text><text fill="#eeeeee" stroke="none" font-family="Arial" font-size="24px" font-style="normal" font-weight="normal" text-decoration="none" x="600" y="660">UNREGISTERED</text><text fill="#eeeeee" stroke="none" font-family="Arial" font-size="24px" font-style="normal" font-weight="normal" text-decoration="none" x="800" y="0">UNREGISTERED</text><text fill="#eeeeee" stroke="none" font-family="Arial" font-size="24px" font-style="normal" font-weight="normal" text-decoration="none" x="800" y="30">UNREGISTERED</text><text fill="#eeeeee" stroke="none" font-family="Arial" font-size="24px" font-style="normal" font-weight="normal" text-decoration="none" x="800" y="60">UNREGISTERED</text><text fill="#eeeeee" stroke="none" font-family="Arial" font-size="24px" font-style="normal" font-weight="normal" text-decoration="none" x="800" y="90">UNREGISTERED</text><text fill="#eeeeee" stroke="none" font-family="Arial" font-size="24px" font-style="normal" font-weight="normal" text-decoration="none" x="800" y="120">UNREGISTERED</text><text fill="#eeeeee" stroke="none" font-family="Arial" font-size="24px" font-style="normal" font-weight="normal" text-decoration="none" x="800" y="150">UNREGISTERED</text><text fill="#eeeeee" stroke="none" font-family="Arial" font-size="24px" font-style="normal" font-weight="normal" text-decoration="none" x="800" y="180">UNREGISTERED</text><text fill="#eeeeee" stroke="none" font-family="Arial" font-size="24px" font-style="normal" font-weight="normal" text-decoration="none" x="800" y="210">UNREGISTERED</text><text fill="#eeeeee" stroke="none" font-family="Arial" font-size="24px" font-style="normal" font-weight="normal" text-decoration="none" x="800" y="240">UNREGISTERED</text><text fill="#eeeeee" stroke="none" font-family="Arial" font-size="24px" font-style="normal" font-weight="normal" text-decoration="none" x="800" y="270">UNREGISTERED</text><text fill="#eeeeee" stroke="none" font-family="Arial" font-size="24px" font-style="normal" font-weight="normal" text-decoration="none" x="800" y="300">UNREGISTERED</text><text fill="#eeeeee" stroke="none" font-family="Arial" font-size="24px" font-style="normal" font-weight="normal" text-decoration="none" x="800" y="330">UNREGISTERED</text><text fill="#eeeeee" stroke="none" font-family="Arial" font-size="24px" font-style="normal" font-weight="normal" text-decoration="none" x="800" y="360">UNREGISTERED</text><text fill="#eeeeee" stroke="none" font-family="Arial" font-size="24px" font-style="normal" font-weight="normal" text-decoration="none" x="800" y="390">UNREGISTERED</text><text fill="#eeeeee" stroke="none" font-family="Arial" font-size="24px" font-style="normal" font-weight="normal" text-decoration="none" x="800" y="420">UNREGISTERED</text><text fill="#eeeeee" stroke="none" font-family="Arial" font-size="24px" font-style="normal" font-weight="normal" text-decoration="none" x="800" y="450">UNREGISTERED</text><text fill="#eeeeee" stroke="none" font-family="Arial" font-size="24px" font-style="normal" font-weight="normal" text-decoration="none" x="800" y="480">UNREGISTERED</text><text fill="#eeeeee" stroke="none" font-family="Arial" font-size="24px" font-style="normal" font-weight="normal" text-decoration="none" x="800" y="510">UNREGISTERED</text><text fill="#eeeeee" stroke="none" font-family="Arial" font-size="24px" font-style="normal" font-weight="normal" text-decoration="none" x="800" y="540">UNREGISTERED</text><text fill="#eeeeee" stroke="none" font-family="Arial" font-size="24px" font-style="normal" font-weight="normal" text-decoration="none" x="800" y="570">UNREGISTERED</text><text fill="#eeeeee" stroke="none" font-family="Arial" font-size="24px" font-style="normal" font-weight="normal" text-decoration="none" x="800" y="600">UNREGISTERED</text><text fill="#eeeeee" stroke="none" font-family="Arial" font-size="24px" font-style="normal" font-weight="normal" text-decoration="none" x="800" y="630">UNREGISTERED</text><text fill="#eeeeee" stroke="none" font-family="Arial" font-size="24px" font-style="normal" font-weight="normal" text-decoration="none" x="800" y="660">UNREGISTERED</text><text fill="#eeeeee" stroke="none" font-family="Arial" font-size="24px" font-style="normal" font-weight="normal" text-decoration="none" x="1000" y="0">UNREGISTERED</text><text fill="#eeeeee" stroke="none" font-family="Arial" font-size="24px" font-style="normal" font-weight="normal" text-decoration="none" x="1000" y="30">UNREGISTERED</text><text fill="#eeeeee" stroke="none" font-family="Arial" font-size="24px" font-style="normal" font-weight="normal" text-decoration="none" x="1000" y="60">UNREGISTERED</text><text fill="#eeeeee" stroke="none" font-family="Arial" font-size="24px" font-style="normal" font-weight="normal" text-decoration="none" x="1000" y="90">UNREGISTERED</text><text fill="#eeeeee" stroke="none" font-family="Arial" font-size="24px" font-style="normal" font-weight="normal" text-decoration="none" x="1000" y="120">UNREGISTERED</text><text fill="#eeeeee" stroke="none" font-family="Arial" font-size="24px" font-style="normal" font-weight="normal" text-decoration="none" x="1000" y="150">UNREGISTERED</text><text fill="#eeeeee" stroke="none" font-family="Arial" font-size="24px" font-style="normal" font-weight="normal" text-decoration="none" x="1000" y="180">UNREGISTERED</text><text fill="#eeeeee" stroke="none" font-family="Arial" font-size="24px" font-style="normal" font-weight="normal" text-decoration="none" x="1000" y="210">UNREGISTERED</text><text fill="#eeeeee" stroke="none" font-family="Arial" font-size="24px" font-style="normal" font-weight="normal" text-decoration="none" x="1000" y="240">UNREGISTERED</text><text fill="#eeeeee" stroke="none" font-family="Arial" font-size="24px" font-style="normal" font-weight="normal" text-decoration="none" x="1000" y="270">UNREGISTERED</text><text fill="#eeeeee" stroke="none" font-family="Arial" font-size="24px" font-style="normal" font-weight="normal" text-decoration="none" x="1000" y="300">UNREGISTERED</text><text fill="#eeeeee" stroke="none" font-family="Arial" font-size="24px" font-style="normal" font-weight="normal" text-decoration="none" x="1000" y="330">UNREGISTERED</text><text fill="#eeeeee" stroke="none" font-family="Arial" font-size="24px" font-style="normal" font-weight="normal" text-decoration="none" x="1000" y="360">UNREGISTERED</text><text fill="#eeeeee" stroke="none" font-family="Arial" font-size="24px" font-style="normal" font-weight="normal" text-decoration="none" x="1000" y="390">UNREGISTERED</text><text fill="#eeeeee" stroke="none" font-family="Arial" font-size="24px" font-style="normal" font-weight="normal" text-decoration="none" x="1000" y="420">UNREGISTERED</text><text fill="#eeeeee" stroke="none" font-family="Arial" font-size="24px" font-style="normal" font-weight="normal" text-decoration="none" x="1000" y="450">UNREGISTERED</text><text fill="#eeeeee" stroke="none" font-family="Arial" font-size="24px" font-style="normal" font-weight="normal" text-decoration="none" x="1000" y="480">UNREGISTERED</text><text fill="#eeeeee" stroke="none" font-family="Arial" font-size="24px" font-style="normal" font-weight="normal" text-decoration="none" x="1000" y="510">UNREGISTERED</text><text fill="#eeeeee" stroke="none" font-family="Arial" font-size="24px" font-style="normal" font-weight="normal" text-decoration="none" x="1000" y="540">UNREGISTERED</text><text fill="#eeeeee" stroke="none" font-family="Arial" font-size="24px" font-style="normal" font-weight="normal" text-decoration="none" x="1000" y="570">UNREGISTERED</text><text fill="#eeeeee" stroke="none" font-family="Arial" font-size="24px" font-style="normal" font-weight="normal" text-decoration="none" x="1000" y="600">UNREGISTERED</text><text fill="#eeeeee" stroke="none" font-family="Arial" font-size="24px" font-style="normal" font-weight="normal" text-decoration="none" x="1000" y="630">UNREGISTERED</text><text fill="#eeeeee" stroke="none" font-family="Arial" font-size="24px" font-style="normal" font-weight="normal" text-decoration="none" x="1000" y="660">UNREGISTERED</text><text fill="#eeeeee" stroke="none" font-family="Arial" font-size="24px" font-style="normal" font-weight="normal" text-decoration="none" x="1200" y="0">UNREGISTERED</text><text fill="#eeeeee" stroke="none" font-family="Arial" font-size="24px" font-style="normal" font-weight="normal" text-decoration="none" x="1200" y="30">UNREGISTERED</text><text fill="#eeeeee" stroke="none" font-family="Arial" font-size="24px" font-style="normal" font-weight="normal" text-decoration="none" x="1200" y="60">UNREGISTERED</text><text fill="#eeeeee" stroke="none" font-family="Arial" font-size="24px" font-style="normal" font-weight="normal" text-decoration="none" x="1200" y="90">UNREGISTERED</text><text fill="#eeeeee" stroke="none" font-family="Arial" font-size="24px" font-style="normal" font-weight="normal" text-decoration="none" x="1200" y="120">UNREGISTERED</text><text fill="#eeeeee" stroke="none" font-family="Arial" font-size="24px" font-style="normal" font-weight="normal" text-decoration="none" x="1200" y="150">UNREGISTERED</text><text fill="#eeeeee" stroke="none" font-family="Arial" font-size="24px" font-style="normal" font-weight="normal" text-decoration="none" x="1200" y="180">UNREGISTERED</text><text fill="#eeeeee" stroke="none" font-family="Arial" font-size="24px" font-style="normal" font-weight="normal" text-decoration="none" x="1200" y="210">UNREGISTERED</text><text fill="#eeeeee" stroke="none" font-family="Arial" font-size="24px" font-style="normal" font-weight="normal" text-decoration="none" x="1200" y="240">UNREGISTERED</text><text fill="#eeeeee" stroke="none" font-family="Arial" font-size="24px" font-style="normal" font-weight="normal" text-decoration="none" x="1200" y="270">UNREGISTERED</text><text fill="#eeeeee" stroke="none" font-family="Arial" font-size="24px" font-style="normal" font-weight="normal" text-decoration="none" x="1200" y="300">UNREGISTERED</text><text fill="#eeeeee" stroke="none" font-family="Arial" font-size="24px" font-style="normal" font-weight="normal" text-decoration="none" x="1200" y="330">UNREGISTERED</text><text fill="#eeeeee" stroke="none" font-family="Arial" font-size="24px" font-style="normal" font-weight="normal" text-decoration="none" x="1200" y="360">UNREGISTERED</text><text fill="#eeeeee" stroke="none" font-family="Arial" font-size="24px" font-style="normal" font-weight="normal" text-decoration="none" x="1200" y="390">UNREGISTERED</text><text fill="#eeeeee" stroke="none" font-family="Arial" font-size="24px" font-style="normal" font-weight="normal" text-decoration="none" x="1200" y="420">UNREGISTERED</text><text fill="#eeeeee" stroke="none" font-family="Arial" font-size="24px" font-style="normal" font-weight="normal" text-decoration="none" x="1200" y="450">UNREGISTERED</text><text fill="#eeeeee" stroke="none" font-family="Arial" font-size="24px" font-style="normal" font-weight="normal" text-decoration="none" x="1200" y="480">UNREGISTERED</text><text fill="#eeeeee" stroke="none" font-family="Arial" font-size="24px" font-style="normal" font-weight="normal" text-decoration="none" x="1200" y="510">UNREGISTERED</text><text fill="#eeeeee" stroke="none" font-family="Arial" font-size="24px" font-style="normal" font-weight="normal" text-decoration="none" x="1200" y="540">UNREGISTERED</text><text fill="#eeeeee" stroke="none" font-family="Arial" font-size="24px" font-style="normal" font-weight="normal" text-decoration="none" x="1200" y="570">UNREGISTERED</text><text fill="#eeeeee" stroke="none" font-family="Arial" font-size="24px" font-style="normal" font-weight="normal" text-decoration="none" x="1200" y="600">UNREGISTERED</text><text fill="#eeeeee" stroke="none" font-family="Arial" font-size="24px" font-style="normal" font-weight="normal" text-decoration="none" x="1200" y="630">UNREGISTERED</text><text fill="#eeeeee" stroke="none" font-family="Arial" font-size="24px" font-style="normal" font-weight="normal" text-decoration="none" x="1200" y="660">UNREGISTERED</text><g transform="translate(-198,10) scale(1,1)"><path fill="#ffffff" stroke="none" d="M 249.3143172940341 47.3 C 249.3143172940341 43.82060576 252.19271901621596 41 255.74340820312506 41 C 259.29409739003415 41 262.172499112216 43.82060576 262.172499112216 47.3 C 262.172499112216 50.779394239999995 259.29409739003415 53.6 255.74340820312506 53.6 C 252.19271901621596 53.6 249.3143172940341 50.779394239999995 249.3143172940341 47.3 Z"/></g><g transform="translate(-198,10) scale(1,1)"><path fill="none" stroke="#000000" d="M 249.3143172940341 47.3 C 249.3143172940341 43.82060576 252.19271901621596 41 255.74340820312506 41 C 259.29409739003415 41 262.172499112216 43.82060576 262.172499112216 47.3 C 262.172499112216 50.779394239999995 259.29409739003415 53.6 255.74340820312506 53.6 C 252.19271901621596 53.6 249.3143172940341 50.779394239999995 249.3143172940341 47.3 Z" stroke-miterlimit="10"/></g><g transform="translate(-198,10) scale(1,1)"><path fill="none" stroke="#000000" d="M 255.74340820312503 53.6 L 255.74340820312503 66.4" stroke-miterlimit="10"/></g><g transform="translate(-198,10) scale(1,1)"><path fill="none" stroke="#000000" d="M 248.9361354758523 58.4 L 262.5506809303978 58.4" stroke-miterlimit="10"/></g><g transform="translate(-198,10) scale(1,1)"><path fill="none" stroke="#000000" d="M 255.74340820312503 66.4 L 246.28886274857956 79" stroke-miterlimit="10"/></g><g transform="translate(-198,10) scale(1,1)"><path fill="none" stroke="#000000" d="M 255.74340820312503 66.4 L 265.1979536576705 79" stroke-miterlimit="10"/></g><g transform="translate(-198,10) scale(1,1)"><g><path fill="none" stroke="none"/><text fill="#000000" stroke="none" font-family="Arial" font-size="13px" font-style="normal" font-weight="bold" text-decoration="none" x="231.895263671875" y="99.5">: Patient</text></g></g><g transform="translate(-198,10) scale(1,1)"><path fill="none" stroke="#000000" d="M 256.5 105 L 256.5 376" stroke-miterlimit="10" stroke-dasharray="3"/></g><g transform="translate(-198,10) scale(1,1)"><rect fill="#C0C0C0" stroke="none" x="359" y="47" width="177.91357421875" height="39" opacity="0.2"/></g><g transform="translate(-198,10) scale(1,1)"><rect fill="#ffffff" stroke="none" x="352" y="40" width="177.91357421875" height="39"/></g><g transform="translate(-198,10) scale(1,1)"><path fill="none" stroke="#000000" d="M 352 40 L 529.91357421875 40 L 529.91357421875 79 L 352 79 L 352 40 Z Z" stroke-miterlimit="10"/></g><g transform="translate(-198,10) scale(1,1)"><g><path fill="none" stroke="none"/><text fill="#000000" stroke="none" font-family="Arial" font-size="13px" font-style="normal" font-weight="bold" text-decoration="none" x="367.247802734375" y="59.5">RequestInsuranceControl</text></g></g><g transform="translate(-198,10) scale(1,1)"><path fill="none" stroke="#000000" d="M 441.5 80 L 441.5 602" stroke-miterlimit="10" stroke-dasharray="3"/></g><g transform="translate(-198,10) scale(1,1)"><rect fill="#C0C0C0" stroke="none" x="535" y="179" width="164.20263671875" height="39" opacity="0.2"/></g><g transform="translate(-198,10) scale(1,1)"><rect fill="#ffffff" stroke="none" x="528" y="172" width="164.20263671875" height="39"/></g><g transform="translate(-198,10) scale(1,1)"><path fill="none" stroke="#000000" d="M 528 172 L 692.20263671875 172 L 692.20263671875 211 L 528 211 L 528 172 Z Z" stroke-miterlimit="10"/></g><g transform="translate(-198,10) scale(1,1)"><g><path fill="none" stroke="none"/><text fill="#000000" stroke="none" font-family="Arial" font-size="13px" font-style="normal" font-weight="bold" text-decoration="none" x="542.181396484375" y="191.5">RequestInsuranceForm</text></g></g><g transform="translate(-198,10) scale(1,1)"><path fill="none" stroke="#000000" d="M 611.5 212 L 611.5 466" stroke-miterlimit="10" stroke-dasharray="3"/></g><g transform="translate(-198,10) scale(1,1)"><rect fill="#C0C0C0" stroke="none" x="775" y="47" width="175.025390625" height="39" opacity="0.2"/></g><g transform="translate(-198,10) scale(1,1)"><rect fill="#ffffff" stroke="none" x="768" y="40" width="175.025390625" height="39"/></g><g transform="translate(-198,10) scale(1,1)"><path fill="none" stroke="#000000" d="M 768 40 L 943.025390625 40 L 943.025390625 79 L 768 79 L 768 40 Z Z" stroke-miterlimit="10"/></g><g transform="translate(-198,10) scale(1,1)"><g><path fill="none" stroke="none"/><text fill="#000000" stroke="none" font-family="Arial" font-size="13px" font-style="normal" font-weight="bold" text-decoration="none" x="782.524169921875" y="59.5">ManageInsuranceControl</text></g></g><g transform="translate(-198,10) scale(1,1)"><path fill="none" stroke="#000000" d="M 856.5 80 L 856.5 430" stroke-miterlimit="10" stroke-dasharray="3"/></g><g transform="translate(-198,10) scale(1,1)"><rect fill="#C0C0C0" stroke="none" x="1359" y="571" width="80.41357421875" height="39" opacity="0.2"/></g><g transform="translate(-198,10) scale(1,1)"><rect fill="#ffffff" stroke="none" x="1352" y="564" width="80.41357421875" height="39"/></g><g transform="translate(-198,10) scale(1,1)"><path fill="none" stroke="#000000" d="M 1352 564 L 1432.41357421875 564 L 1432.41357421875 603 L 1352 603 L 1352 564 Z Z" stroke-miterlimit="10"/></g><g transform="translate(-198,10) scale(1,1)"><g><path fill="none" stroke="none"/><text fill="#000000" stroke="none" font-family="Arial" font-size="13px" font-style="normal" font-weight="bold" text-decoration="none" x="1363.661376953125" y="583.5">Insurance</text></g></g><g transform="translate(-198,10) scale(1,1)"><path fill="none" stroke="#000000" d="M 1393.5 604 L 1393.5 653" stroke-miterlimit="10" stroke-dasharray="3"/></g><g transform="translate(-198,10) scale(1,1)"><path fill="#ffffff" stroke="none" d="M 1012.781358309659 47.3 C 1012.781358309659 43.82060576 1015.6597600318408 41 1019.21044921875 41 C 1022.7611384056592 41 1025.639540127841 43.82060576 1025.639540127841 47.3 C 1025.639540127841 50.779394239999995 1022.7611384056592 53.6 1019.21044921875 53.6 C 1015.6597600318408 53.6 1012.781358309659 50.779394239999995 1012.781358309659 47.3 Z"/></g><g transform="translate(-198,10) scale(1,1)"><path fill="none" stroke="#000000" d="M 1012.781358309659 47.3 C 1012.781358309659 43.82060576 1015.6597600318408 41 1019.21044921875 41 C 1022.7611384056592 41 1025.639540127841 43.82060576 1025.639540127841 47.3 C 1025.639540127841 50.779394239999995 1022.7611384056592 53.6 1019.21044921875 53.6 C 1015.6597600318408 53.6 1012.781358309659 50.779394239999995 1012.781358309659 47.3 Z" stroke-miterlimit="10"/></g><g transform="translate(-198,10) scale(1,1)"><path fill="none" stroke="#000000" d="M 1019.21044921875 53.6 L 1019.21044921875 66.4" stroke-miterlimit="10"/></g><g transform="translate(-198,10) scale(1,1)"><path fill="none" stroke="#000000" d="M 1012.4031764914772 58.4 L 1026.0177219460227 58.4" stroke-miterlimit="10"/></g><g transform="translate(-198,10) scale(1,1)"><path fill="none" stroke="#000000" d="M 1019.21044921875 66.4 L 1009.7559037642045 79" stroke-miterlimit="10"/></g><g transform="translate(-198,10) scale(1,1)"><path fill="none" stroke="#000000" d="M 1019.21044921875 66.4 L 1028.6649946732955 79" stroke-miterlimit="10"/></g><g transform="translate(-198,10) scale(1,1)"><g><path fill="none" stroke="none"/><text fill="#000000" stroke="none" font-family="Arial" font-size="13px" font-style="normal" font-weight="bold" text-decoration="none" x="976.576416015625" y="99.5">: InsuranceAPI</text></g></g><g transform="translate(-198,10) scale(1,1)"><path fill="none" stroke="#000000" d="M 1020.5 105 L 1020.5 408" stroke-miterlimit="10" stroke-dasharray="3"/></g><g transform="translate(-198,10) scale(1,1)"><g><path fill="none" stroke="none"/><text fill="#5b005b" stroke="none" font-family="Arial" font-size="13px" font-style="normal" font-weight="normal" text-decoration="none" x="261" y="18">requestInsurance Sequence Diagram</text></g></g><g transform="translate(-198,10) scale(1,1)"><rect fill="#C0C0C0" stroke="none" x="1215" y="475" width="113.630859375" height="39" opacity="0.2"/></g><g transform="translate(-198,10) scale(1,1)"><rect fill="#ffffff" stroke="none" x="1208" y="468" width="113.630859375" height="39"/></g><g transform="translate(-198,10) scale(1,1)"><path fill="none" stroke="#000000" d="M 1208 468 L 1321.630859375 468 L 1321.630859375 507 L 1208 507 L 1208 468 Z Z" stroke-miterlimit="10"/></g><g transform="translate(-198,10) scale(1,1)"><g><path fill="none" stroke="none"/><text fill="#000000" stroke="none" font-family="Arial" font-size="13px" font-style="normal" font-weight="bold" text-decoration="none" x="1220.3818359375" y="487.5">ResponseForm</text></g></g><g transform="translate(-198,10) scale(1,1)"><path fill="none" stroke="#000000" d="M 1265.5 508 L 1265.5 656" stroke-miterlimit="10" stroke-dasharray="3"/></g><g transform="translate(-198,10) scale(1,1)"><path fill="none" stroke="#000000" d="M 256 129 L 434 129" stroke-miterlimit="10"/></g><g transform="translate(-198,10) scale(1,1)"><path fill="#000000" stroke="none" d="M 423.83732514237585 133.209517756016 L 434 129 L 423.83732514237585 124.79048224398402"/></g><g transform="translate(-198,10) scale(1,1)"><path fill="none" stroke="#000000" d="M 423.83732514237585 133.209517756016 L 434 129 L 423.83732514237585 124.79048224398402 L 423.83732514237585 133.209517756016" stroke-miterlimit="10"/></g><g transform="translate(-198,10) scale(1,1)"><g><path fill="none" stroke="none"/><text fill="#000000" stroke="none" font-family="Arial" font-size="13px" font-style="normal" font-weight="normal" text-decoration="none" x="290.5" y="125.5">requestInsurance()</text></g></g><g transform="translate(-198,10) scale(1,1)"><rect fill="#ffffff" stroke="none" x="434" y="129" width="13" height="28"/></g><g transform="translate(-198,10) scale(1,1)"><path fill="none" stroke="#000000" d="M 434 129 L 447 129 L 447 157 L 434 157 L 434 129 Z Z" stroke-miterlimit="10"/></g><g transform="translate(-198,10) scale(1,1)"><path fill="none" stroke="#000000" d="M 441 192 L 528 192" stroke-miterlimit="10" stroke-dasharray="3"/></g><g transform="translate(-198,10) scale(1,1)"><path fill="none" stroke="#000000" d="M 517.8373251423759 196.209517756016 L 528 192 L 517.8373251423758 187.790482243984" stroke-miterlimit="10"/></g><g transform="translate(-198,10) scale(1,1)"><g><path fill="none" stroke="none"/><text fill="#000000" stroke="none" font-family="Arial" font-size="13px" font-style="normal" font-weight="normal" text-decoration="none" x="457.5" y="187.5">«create»</text></g></g><g transform="translate(-198,10) scale(1,1)"><path fill="none" stroke="#000000" d="M 256 225 L 604 225" stroke-miterlimit="10"/></g><g transform="translate(-198,10) scale(1,1)"><path fill="#000000" stroke="none" d="M 593.8373251423759 229.209517756016 L 604 225 L 593.8373251423758 220.790482243984"/></g><g transform="translate(-198,10) scale(1,1)"><path fill="none" stroke="#000000" d="M 593.8373251423759 229.209517756016 L 604 225 L 593.8373251423758 220.790482243984 L 593.8373251423759 229.209517756016" stroke-miterlimit="10"/></g><g transform="translate(-198,10) scale(1,1)"><g><path fill="none" stroke="none"/><text fill="#000000" stroke="none" font-family="Arial" font-size="13px" font-style="normal" font-weight="normal" text-decoration="none" x="310.5" y="220.5">fillContents()</text></g></g><g transform="translate(-198,10) scale(1,1)"><rect fill="#ffffff" stroke="none" x="604" y="225" width="13" height="28"/></g><g transform="translate(-198,10) scale(1,1)"><path fill="none" stroke="#000000" d="M 604 225 L 617 225 L 617 253 L 604 253 L 604 225 Z Z" stroke-miterlimit="10"/></g><g transform="translate(-198,10) scale(1,1)"><path fill="none" stroke="#000000" d="M 256 276 L 604 276" stroke-miterlimit="10"/></g><g transform="translate(-198,10) scale(1,1)"><path fill="#000000" stroke="none" d="M 593.8373251423759 280.209517756016 L 604 276 L 593.8373251423758 271.790482243984"/></g><g transform="translate(-198,10) scale(1,1)"><path fill="none" stroke="#000000" d="M 593.8373251423759 280.209517756016 L 604 276 L 593.8373251423758 271.790482243984 L 593.8373251423759 280.209517756016" stroke-miterlimit="10"/></g><g transform="translate(-198,10) scale(1,1)"><g><path fill="none" stroke="none"/><text fill="#000000" stroke="none" font-family="Arial" font-size="13px" font-style="normal" font-weight="normal" text-decoration="none" x="326.015869140625" y="271.5">submit()</text></g></g><g transform="translate(-198,10) scale(1,1)"><rect fill="#ffffff" stroke="none" x="604" y="276" width="13" height="84"/></g><g transform="translate(-198,10) scale(1,1)"><path fill="none" stroke="#000000" d="M 604 276 L 617 276 L 617 360 L 604 360 L 604 276 Z Z" stroke-miterlimit="10"/></g><g transform="translate(-198,10) scale(1,1)"><path fill="none" stroke="#000000" d="M 604 312 L 447 312" stroke-miterlimit="10"/></g><g transform="translate(-198,10) scale(1,1)"><path fill="#000000" stroke="none" d="M 457.16267485762415 307.790482243984 L 447 312 L 457.16267485762415 316.209517756016"/></g><g transform="translate(-198,10) scale(1,1)"><path fill="none" stroke="#000000" d="M 457.16267485762415 307.790482243984 L 447 312 L 457.16267485762415 316.209517756016 L 457.16267485762415 307.790482243984" stroke-miterlimit="10"/></g><g transform="translate(-198,10) scale(1,1)"><g><path fill="none" stroke="none"/><text fill="#000000" stroke="none" font-family="Arial" font-size="13px" font-style="normal" font-weight="normal" text-decoration="none" x="476.5" y="307.5">submitRequest()</text></g></g><g transform="translate(-198,10) scale(1,1)"><rect fill="#ffffff" stroke="none" x="434" y="312" width="13" height="104"/></g><g transform="translate(-198,10) scale(1,1)"><path fill="none" stroke="#000000" d="M 434 312 L 447 312 L 447 416 L 434 416 L 434 312 Z Z" stroke-miterlimit="10"/></g><g transform="translate(-198,10) scale(1,1)"><path fill="none" stroke="#000000" d="M 447 344 L 849 344" stroke-miterlimit="10"/></g><g transform="translate(-198,10) scale(1,1)"><path fill="#000000" stroke="none" d="M 838.8373251423759 348.209517756016 L 849 344 L 838.8373251423758 339.790482243984"/></g><g transform="translate(-198,10) scale(1,1)"><path fill="none" stroke="#000000" d="M 838.8373251423759 348.209517756016 L 849 344 L 838.8373251423758 339.790482243984 L 838.8373251423759 348.209517756016" stroke-miterlimit="10"/></g><g transform="translate(-198,10) scale(1,1)"><g><path fill="none" stroke="none"/><text fill="#000000" stroke="none" font-family="Arial" font-size="13px" font-style="normal" font-weight="normal" text-decoration="none" x="631.5" y="340.5">submitRequestToInsuranceAPI()</text></g></g><g transform="translate(-198,10) scale(1,1)"><rect fill="#ffffff" stroke="none" x="849" y="344" width="13" height="56"/></g><g transform="translate(-198,10) scale(1,1)"><path fill="none" stroke="#000000" d="M 849 344 L 862 344 L 862 400 L 849 400 L 849 344 Z Z" stroke-miterlimit="10"/></g><g transform="translate(-198,10) scale(1,1)"><path fill="none" stroke="#000000" d="M 862 352 L 1013 352" stroke-miterlimit="10"/></g><g transform="translate(-198,10) scale(1,1)"><path fill="#000000" stroke="none" d="M 1002.8373251423759 356.209517756016 L 1013 352 L 1002.8373251423758 347.790482243984"/></g><g transform="translate(-198,10) scale(1,1)"><path fill="none" stroke="#000000" d="M 1002.8373251423759 356.209517756016 L 1013 352 L 1002.8373251423758 347.790482243984 L 1002.8373251423759 356.209517756016" stroke-miterlimit="10"/></g><g transform="translate(-198,10) scale(1,1)"><g><path fill="none" stroke="none"/><text fill="#000000" stroke="none" font-family="Arial" font-size="13px" font-style="normal" font-weight="normal" text-decoration="none" x="914.015869140625" y="348.5">submit()</text></g></g><g transform="translate(-198,10) scale(1,1)"><rect fill="#ffffff" stroke="none" x="1013" y="352" width="13" height="28"/></g><g transform="translate(-198,10) scale(1,1)"><path fill="none" stroke="#000000" d="M 1013 352 L 1026 352 L 1026 380 L 1013 380 L 1013 352 Z Z" stroke-miterlimit="10"/></g><g transform="translate(-198,10) scale(1,1)"><path fill="none" stroke="#000000" d="M 1020 392 L 862 392" stroke-miterlimit="10" stroke-dasharray="3"/></g><g transform="translate(-198,10) scale(1,1)"><path fill="none" stroke="#000000" d="M 872.1626748576241 387.790482243984 L 862 392 L 872.1626748576241 396.209517756016" stroke-miterlimit="10"/></g><g transform="translate(-198,10) scale(1,1)"><g><path fill="none" stroke="none"/><text fill="#000000" stroke="none" font-family="Arial" font-size="13px" font-style="normal" font-weight="normal" text-decoration="none" x="893.5" y="387.5">insurance reply</text></g></g><g transform="translate(-198,10) scale(1,1)"><path fill="none" stroke="#000000" d="M 856 400 L 447 400" stroke-miterlimit="10" stroke-dasharray="3"/></g><g transform="translate(-198,10) scale(1,1)"><path fill="none" stroke="#000000" d="M 457.16267485762415 395.790482243984 L 447 400 L 457.16267485762415 404.209517756016" stroke-miterlimit="10"/></g><g transform="translate(-198,10) scale(1,1)"><g><path fill="none" stroke="none"/><text fill="#000000" stroke="none" font-family="Arial" font-size="13px" font-style="normal" font-weight="normal" text-decoration="none" x="686.5" y="396.5">insurance reply</text></g></g><g transform="translate(-198,10) scale(1,1)"><path fill="none" stroke="#000000" d="M 441 424 L 604 424" stroke-miterlimit="10"/></g><g transform="translate(-198,10) scale(1,1)"><path fill="#000000" stroke="none" d="M 593.8373251423759 428.209517756016 L 604 424 L 593.8373251423758 419.790482243984"/></g><g transform="translate(-198,10) scale(1,1)"><path fill="none" stroke="#000000" d="M 593.8373251423759 428.209517756016 L 604 424 L 593.8373251423758 419.790482243984 L 593.8373251423759 428.209517756016" stroke-miterlimit="10"/></g><g transform="translate(-198,10) scale(1,1)"><path fill="none" stroke="#000000" d="M 601 456 L 621 476" stroke-miterlimit="10"/></g><g transform="translate(-198,10) scale(1,1)"><path fill="none" stroke="#000000" d="M 621 456 L 601 476" stroke-miterlimit="10"/></g><g transform="translate(-198,10) scale(1,1)"><g><path fill="none" stroke="none"/><text fill="#000000" stroke="none" font-family="Arial" font-size="13px" font-style="normal" font-weight="normal" text-decoration="none" x="493.5" y="420.5">«destroy»</text></g></g><g transform="translate(-198,10) scale(1,1)"><rect fill="#ffffff" stroke="none" x="604" y="424" width="13" height="28"/></g><g transform="translate(-198,10) scale(1,1)"><path fill="none" stroke="#000000" d="M 604 424 L 617 424 L 617 452 L 604 452 L 604 424 Z Z" stroke-miterlimit="10"/></g><g transform="translate(-198,10) scale(1,1)"><path fill="none" stroke="#000000" d="M 441 488 L 1208 488" stroke-miterlimit="10" stroke-dasharray="3"/></g><g transform="translate(-198,10) scale(1,1)"><path fill="none" stroke="#000000" d="M 1197.837325142376 492.209517756016 L 1208 488 L 1197.837325142376 483.790482243984" stroke-miterlimit="10"/></g><g transform="translate(-198,10) scale(1,1)"><g><path fill="none" stroke="none"/><text fill="#000000" stroke="none" font-family="Arial" font-size="13px" font-style="normal" font-weight="normal" text-decoration="none" x="797.5" y="483.5">«create»</text></g></g><g transform="translate(-198,10) scale(1,1)"><path fill="none" stroke="#000000" d="M 441 531 L 1258 531" stroke-miterlimit="10"/></g><g transform="translate(-198,10) scale(1,1)"><path fill="#000000" stroke="none" d="M 1247.837325142376 535.209517756016 L 1258 531 L 1247.837325142376 526.790482243984"/></g><g transform="translate(-198,10) scale(1,1)"><path fill="none" stroke="#000000" d="M 1247.837325142376 535.209517756016 L 1258 531 L 1247.837325142376 526.790482243984 L 1247.837325142376 535.209517756016" stroke-miterlimit="10"/></g><g transform="translate(-198,10) scale(1,1)"><g><path fill="none" stroke="none"/><text fill="#000000" stroke="none" font-family="Arial" font-size="13px" font-style="normal" font-weight="normal" text-decoration="none" x="758.5" y="527.5">showMessage(insuranceReply)</text></g></g><g transform="translate(-198,10) scale(1,1)"><rect fill="#ffffff" stroke="none" x="1258" y="531" width="13" height="28"/></g><g transform="translate(-198,10) scale(1,1)"><path fill="none" stroke="#000000" d="M 1258 531 L 1271 531 L 1271 559 L 1258 559 L 1258 531 Z Z" stroke-miterlimit="10"/></g><g transform="translate(-198,10) scale(1,1)"><path fill="none" stroke="#000000" d="M 441 584 L 1352 584" stroke-miterlimit="10" stroke-dasharray="3"/></g><g transform="translate(-198,10) scale(1,1)"><path fill="none" stroke="#000000" d="M 1341.837325142376 588.209517756016 L 1352 584 L 1341.837325142376 579.790482243984" stroke-miterlimit="10"/></g><g transform="translate(-198,10) scale(1,1)"><g><path fill="none" stroke="none"/><text fill="#000000" stroke="none" font-family="Arial" font-size="13px" font-style="normal" font-weight="normal" text-decoration="none" x="870.5" y="580.5">«create»</text></g></g></g></svg>