<svg version="1.1" xmlns="http://www.w3.org/2000/svg" xmlns:xlink="http://www.w3.org/1999/xlink" width="741.50634765625" height="452"><defs/><g><text fill="#eeeeee" stroke="none" font-family="Arial" font-size="24px" font-style="normal" font-weight="normal" text-decoration="none" x="0" y="0">UNREGISTERED</text><text fill="#eeeeee" stroke="none" font-family="Arial" font-size="24px" font-style="normal" font-weight="normal" text-decoration="none" x="0" y="30">UNREGISTERED</text><text fill="#eeeeee" stroke="none" font-family="Arial" font-size="24px" font-style="normal" font-weight="normal" text-decoration="none" x="0" y="60">UNREGISTERED</text><text fill="#eeeeee" stroke="none" font-family="Arial" font-size="24px" font-style="normal" font-weight="normal" text-decoration="none" x="0" y="90">UNREGISTERED</text><text fill="#eeeeee" stroke="none" font-family="Arial" font-size="24px" font-style="normal" font-weight="normal" text-decoration="none" x="0" y="120">UNREGISTERED</text><text fill="#eeeeee" stroke="none" font-family="Arial" font-size="24px" font-style="normal" font-weight="normal" text-decoration="none" x="0" y="150">UNREGISTERED</text><text fill="#eeeeee" stroke="none" font-family="Arial" font-size="24px" font-style="normal" font-weight="normal" text-decoration="none" x="0" y="180">UNREGISTERED</text><text fill="#eeeeee" stroke="none" font-family="Arial" font-size="24px" font-style="normal" font-weight="normal" text-decoration="none" x="0" y="210">UNREGISTERED</text><text fill="#eeeeee" stroke="none" font-family="Arial" font-size="24px" font-style="normal" font-weight="normal" text-decoration="none" x="0" y="240">UNREGISTERED</text><text fill="#eeeeee" stroke="none" font-family="Arial" font-size="24px" font-style="normal" font-weight="normal" text-decoration="none" x="0" y="270">UNREGISTERED</text><text fill="#eeeeee" stroke="none" font-family="Arial" font-size="24px" font-style="normal" font-weight="normal" text-decoration="none" x="0" y="300">UNREGISTERED</text><text fill="#eeeeee" stroke="none" font-family="Arial" font-size="24px" font-style="normal" font-weight="normal" text-decoration="none" x="0" y="330">UNREGISTERED</text><text fill="#eeeeee" stroke="none" font-family="Arial" font-size="24px" font-style="normal" font-weight="normal" text-decoration="none" x="0" y="360">UNREGISTERED</text><text fill="#eeeeee" stroke="none" font-family="Arial" font-size="24px" font-style="normal" font-weight="normal" text-decoration="none" x="0" y="390">UNREGISTERED</text><text fill="#eeeeee" stroke="none" font-family="Arial" font-size="24px" font-style="normal" font-weight="normal" text-decoration="none" x="0" y="420">UNREGISTERED</text><text fill="#eeeeee" stroke="none" font-family="Arial" font-size="24px" font-style="normal" font-weight="normal" text-decoration="none" x="0" y="450">UNREGISTERED</text><text fill="#eeeeee" stroke="none" font-family="Arial" font-size="24px" font-style="normal" font-weight="normal" text-decoration="none" x="200" y="0">UNREGISTERED</text><text fill="#eeeeee" stroke="none" font-family="Arial" font-size="24px" font-style="normal" font-weight="normal" text-decoration="none" x="200" y="30">UNREGISTERED</text><text fill="#eeeeee" stroke="none" font-family="Arial" font-size="24px" font-style="normal" font-weight="normal" text-decoration="none" x="200" y="60">UNREGISTERED</text><text fill="#eeeeee" stroke="none" font-family="Arial" font-size="24px" font-style="normal" font-weight="normal" text-decoration="none" x="200" y="90">UNREGISTERED</text><text fill="#eeeeee" stroke="none" font-family="Arial" font-size="24px" font-style="normal" font-weight="normal" text-decoration="none" x="200" y="120">UNREGISTERED</text><text fill="#eeeeee" stroke="none" font-family="Arial" font-size="24px" font-style="normal" font-weight="normal" text-decoration="none" x="200" y="150">UNREGISTERED</text><text fill="#eeeeee" stroke="none" font-family="Arial" font-size="24px" font-style="normal" font-weight="normal" text-decoration="none" x="200" y="180">UNREGISTERED</text><text fill="#eeeeee" stroke="none" font-family="Arial" font-size="24px" font-style="normal" font-weight="normal" text-decoration="none" x="200" y="210">UNREGISTERED</text><text fill="#eeeeee" stroke="none" font-family="Arial" font-size="24px" font-style="normal" font-weight="normal" text-decoration="none" x="200" y="240">UNREGISTERED</text><text fill="#eeeeee" stroke="none" font-family="Arial" font-size="24px" font-style="normal" font-weight="normal" text-decoration="none" x="200" y="270">UNREGISTERED</text><text fill="#eeeeee" stroke="none" font-family="Arial" font-size="24px" font-style="normal" font-weight="normal" text-decoration="none" x="200" y="300">UNREGISTERED</text><text fill="#eeeeee" stroke="none" font-family="Arial" font-size="24px" font-style="normal" font-weight="normal" text-decoration="none" x="200" y="330">UNREGISTERED</text><text fill="#eeeeee" stroke="none" font-family="Arial" font-size="24px" font-style="normal" font-weight="normal" text-decoration="none" x="200" y="360">UNREGISTERED</text><text fill="#eeeeee" stroke="none" font-family="Arial" font-size="24px" font-style="normal" font-weight="normal" text-decoration="none" x="200" y="390">UNREGISTERED</text><text fill="#eeeeee" stroke="none" font-family="Arial" font-size="24px" font-style="normal" font-weight="normal" text-decoration="none" x="200" y="420">UNREGISTERED</text><text fill="#eeeeee" stroke="none" font-family="Arial" font-size="24px" font-style="normal" font-weight="normal" text-decoration="none" x="200" y="450">UNREGISTERED</text><text fill="#eeeeee" stroke="none" font-family="Arial" font-size="24px" font-style="normal" font-weight="normal" text-decoration="none" x="400" y="0">UNREGISTERED</text><text fill="#eeeeee" stroke="none" font-family="Arial" font-size="24px" font-style="normal" font-weight="normal" text-decoration="none" x="400" y="30">UNREGISTERED</text><text fill="#eeeeee" stroke="none" font-family="Arial" font-size="24px" font-style="normal" font-weight="normal" text-decoration="none" x="400" y="60">UNREGISTERED</text><text fill="#eeeeee" stroke="none" font-family="Arial" font-size="24px" font-style="normal" font-weight="normal" text-decoration="none" x="400" y="90">UNREGISTERED</text><text fill="#eeeeee" stroke="none" font-family="Arial" font-size="24px" font-style="normal" font-weight="normal" text-decoration="none" x="400" y="120">UNREGISTERED</text><text fill="#eeeeee" stroke="none" font-family="Arial" font-size="24px" font-style="normal" font-weight="normal" text-decoration="none" x="400" y="150">UNREGISTERED</text><text fill="#eeeeee" stroke="none" font-family="Arial" font-size="24px" font-style="normal" font-weight="normal" text-decoration="none" x="400" y="180">UNREGISTERED</text><text fill="#eeeeee" stroke="none" font-family="Arial" font-size="24px" font-style="normal" font-weight="normal" text-decoration="none" x="400" y="210">UNREGISTERED</text><text fill="#eeeeee" stroke="none" font-family="Arial" font-size="24px" font-style="normal" font-weight="normal" text-decoration="none" x="400" y="240">UNREGISTERED</text><text fill="#eeeeee" stroke="none" font-family="Arial" font-size="24px" font-style="normal" font-weight="normal" text-decoration="none" x="400" y="270">UNREGISTERED</text><text fill="#eeeeee" stroke="none" font-family="Arial" font-size="24px" font-style="normal" font-weight="normal" text-decoration="none" x="400" y="300">UNREGISTERED</text><text fill="#eeeeee" stroke="none" font-family="Arial" font-size="24px" font-style="normal" font-weight="normal" text-decoration="none" x="400" y="330">UNREGISTERED</text><text fill="#eeeeee" stroke="none" font-family="Arial" font-size="24px" font-style="normal" font-weight="normal" text-decoration="none" x="400" y="360">UNREGISTERED</text><text fill="#eeeeee" stroke="none" font-family="Arial" font-size="24px" font-style="normal" font-weight="normal" text-decoration="none" x="400" y="390">UNREGISTERED</text><text fill="#eeeeee" stroke="none" font-family="Arial" font-size="24px" font-style="normal" font-weight="normal" text-decoration="none" x="400" y="420">UNREGISTERED</text><text fill="#eeeeee" stroke="none" font-family="Arial" font-size="24px" font-style="normal" font-weight="normal" text-decoration="none" x="400" y="450">UNREGISTERED</text><text fill="#eeeeee" stroke="none" font-family="Arial" font-size="24px" font-style="normal" font-weight="normal" text-decoration="none" x="600" y="0">UNREGISTERED</text><text fill="#eeeeee" stroke="none" font-family="Arial" font-size="24px" font-style="normal" font-weight="normal" text-decoration="none" x="600" y="30">UNREGISTERED</text><text fill="#eeeeee" stroke="none" font-family="Arial" font-size="24px" font-style="normal" font-weight="normal" text-decoration="none" x="600" y="60">UNREGISTERED</text><text fill="#eeeeee" stroke="none" font-family="Arial" font-size="24px" font-style="normal" font-weight="normal" text-decoration="none" x="600" y="90">UNREGISTERED</text><text fill="#eeeeee" stroke="none" font-family="Arial" font-size="24px" font-style="normal" font-weight="normal" text-decoration="none" x="600" y="120">UNREGISTERED</text><text fill="#eeeeee" stroke="none" font-family="Arial" font-size="24px" font-style="normal" font-weight="normal" text-decoration="none" x="600" y="150">UNREGISTERED</text><text fill="#eeeeee" stroke="none" font-family="Arial" font-size="24px" font-style="normal" font-weight="normal" text-decoration="none" x="600" y="180">UNREGISTERED</text><text fill="#eeeeee" stroke="none" font-family="Arial" font-size="24px" font-style="normal" font-weight="normal" text-decoration="none" x="600" y="210">UNREGISTERED</text><text fill="#eeeeee" stroke="none" font-family="Arial" font-size="24px" font-style="normal" font-weight="normal" text-decoration="none" x="600" y="240">UNREGISTERED</text><text fill="#eeeeee" stroke="none" font-family="Arial" font-size="24px" font-style="normal" font-weight="normal" text-decoration="none" x="600" y="270">UNREGISTERED</text><text fill="#eeeeee" stroke="none" font-family="Arial" font-size="24px" font-style="normal" font-weight="normal" text-decoration="none" x="600" y="300">UNREGISTERED</text><text fill="#eeeeee" stroke="none" font-family="Arial" font-size="24px" font-style="normal" font-weight="normal" text-decoration="none" x="600" y="330">UNREGISTERED</text><text fill="#eeeeee" stroke="none" font-family="Arial" font-size="24px" font-style="normal" font-weight="normal" text-decoration="none" x="600" y="360">UNREGISTERED</text><text fill="#eeeeee" stroke="none" font-family="Arial" font-size="24px" font-style="normal" font-weight="normal" text-decoration="none" x="600" y="390">UNREGISTERED</text><text fill="#eeeeee" stroke="none" font-family="Arial" font-size="24px" font-style="normal" font-weight="normal" text-decoration="none" x="600" y="420">UNREGISTERED</text><text fill="#eeeeee" stroke="none" font-family="Arial" font-size="24px" font-style="normal" font-weight="normal" text-decoration="none" x="600" y="450">UNREGISTERED</text><g transform="translate(-74,2) scale(1,1)"><path fill="#ffffff" stroke="none" d="M 125.3143172940341 47.3 C 125.3143172940341 43.82060576 128.1927190162159 41 131.743408203125 41 C 135.2940973900341 41 138.17249911221592 43.82060576 138.17249911221592 47.3 C 138.17249911221592 50.779394239999995 135.2940973900341 53.6 131.743408203125 53.6 C 128.1927190162159 53.6 125.3143172940341 50.779394239999995 125.3143172940341 47.3 Z"/></g><g transform="translate(-74,2) scale(1,1)"><path fill="none" stroke="#000000" d="M 125.3143172940341 47.3 C 125.3143172940341 43.82060576 128.1927190162159 41 131.743408203125 41 C 135.2940973900341 41 138.17249911221592 43.82060576 138.17249911221592 47.3 C 138.17249911221592 50.779394239999995 135.2940973900341 53.6 131.743408203125 53.6 C 128.1927190162159 53.6 125.3143172940341 50.779394239999995 125.3143172940341 47.3 Z" stroke-miterlimit="10"/></g><g transform="translate(-74,2) scale(1,1)"><path fill="none" stroke="#000000" d="M 131.743408203125 53.6 L 131.743408203125 66.4" stroke-miterlimit="10"/></g><g transform="translate(-74,2) scale(1,1)"><path fill="none" stroke="#000000" d="M 124.93613547585228 58.4 L 138.55068093039773 58.4" stroke-miterlimit="10"/></g><g transform="translate(-74,2) scale(1,1)"><path fill="none" stroke="#000000" d="M 131.743408203125 66.4 L 122.28886274857955 79" stroke-miterlimit="10"/></g><g transform="translate(-74,2) scale(1,1)"><path fill="none" stroke="#000000" d="M 131.743408203125 66.4 L 141.19795365767047 79" stroke-miterlimit="10"/></g><g transform="translate(-74,2) scale(1,1)"><g><path fill="none" stroke="none"/><text fill="#000000" stroke="none" font-family="Arial" font-size="13px" font-style="normal" font-weight="bold" text-decoration="none" x="107.895263671875" y="99.5">: Patient</text></g></g><g transform="translate(-74,2) scale(1,1)"><path fill="none" stroke="#000000" d="M 132.5 105 L 132.5 368" stroke-miterlimit="10" stroke-dasharray="3"/></g><g transform="translate(-74,2) scale(1,1)"><rect fill="#C0C0C0" stroke="none" x="183" y="47" width="166.34814453125" height="39" opacity="0.2"/></g><g transform="translate(-74,2) scale(1,1)"><rect fill="#ffffff" stroke="none" x="176" y="40" width="166.34814453125" height="39"/></g><g transform="translate(-74,2) scale(1,1)"><path fill="none" stroke="#000000" d="M 176 40 L 342.34814453125 40 L 342.34814453125 79 L 176 79 L 176 40 Z Z" stroke-miterlimit="10"/></g><g transform="translate(-74,2) scale(1,1)"><g><path fill="none" stroke="none"/><text fill="#000000" stroke="none" font-family="Arial" font-size="13px" font-style="normal" font-weight="bold" text-decoration="none" x="190.52099609375" y="59.5">RequestPaymentButton</text></g></g><g transform="translate(-74,2) scale(1,1)"><path fill="none" stroke="#000000" d="M 260.5 80 L 260.5 208" stroke-miterlimit="10" stroke-dasharray="3"/></g><g transform="translate(-74,2) scale(1,1)"><rect fill="#C0C0C0" stroke="none" x="359" y="131" width="170.68994140625" height="39" opacity="0.2"/></g><g transform="translate(-74,2) scale(1,1)"><rect fill="#ffffff" stroke="none" x="352" y="124" width="170.68994140625" height="39"/></g><g transform="translate(-74,2) scale(1,1)"><path fill="none" stroke="#000000" d="M 352 124 L 522.68994140625 124 L 522.68994140625 163 L 352 163 L 352 124 Z Z" stroke-miterlimit="10"/></g><g transform="translate(-74,2) scale(1,1)"><g><path fill="none" stroke="none"/><text fill="#000000" stroke="none" font-family="Arial" font-size="13px" font-style="normal" font-weight="bold" text-decoration="none" x="366.530517578125" y="143.5">RequestPaymentControl</text></g></g><g transform="translate(-74,2) scale(1,1)"><path fill="none" stroke="#000000" d="M 438.5 164 L 438.5 440" stroke-miterlimit="10" stroke-dasharray="3"/></g><g transform="translate(-74,2) scale(1,1)"><path fill="#ffffff" stroke="none" d="M 616.770860262784 47.3 C 616.770860262784 43.82060576 619.649261984966 41 623.199951171875 41 C 626.750640358784 41 629.6290420809659 43.82060576 629.6290420809659 47.3 C 629.6290420809659 50.779394239999995 626.750640358784 53.6 623.199951171875 53.6 C 619.649261984966 53.6 616.770860262784 50.779394239999995 616.770860262784 47.3 Z"/></g><g transform="translate(-74,2) scale(1,1)"><path fill="none" stroke="#000000" d="M 616.770860262784 47.3 C 616.770860262784 43.82060576 619.649261984966 41 623.199951171875 41 C 626.750640358784 41 629.6290420809659 43.82060576 629.6290420809659 47.3 C 629.6290420809659 50.779394239999995 626.750640358784 53.6 623.199951171875 53.6 C 619.649261984966 53.6 616.770860262784 50.779394239999995 616.770860262784 47.3 Z" stroke-miterlimit="10"/></g><g transform="translate(-74,2) scale(1,1)"><path fill="none" stroke="#000000" d="M 623.199951171875 53.6 L 623.199951171875 66.4" stroke-miterlimit="10"/></g><g transform="translate(-74,2) scale(1,1)"><path fill="none" stroke="#000000" d="M 616.3926784446022 58.4 L 630.0072238991477 58.4" stroke-miterlimit="10"/></g><g transform="translate(-74,2) scale(1,1)"><path fill="none" stroke="#000000" d="M 623.199951171875 66.4 L 613.7454057173295 79" stroke-miterlimit="10"/></g><g transform="translate(-74,2) scale(1,1)"><path fill="none" stroke="#000000" d="M 623.199951171875 66.4 L 632.6544966264204 79" stroke-miterlimit="10"/></g><g transform="translate(-74,2) scale(1,1)"><g><path fill="none" stroke="none"/><text fill="#000000" stroke="none" font-family="Arial" font-size="13px" font-style="normal" font-weight="bold" text-decoration="none" x="574.056396484375" y="99.5">: InternetBanking</text></g></g><g transform="translate(-74,2) scale(1,1)"><path fill="none" stroke="#000000" d="M 624.5 105 L 624.5 440" stroke-miterlimit="10" stroke-dasharray="3"/></g><g transform="translate(-74,2) scale(1,1)"><rect fill="#C0C0C0" stroke="none" x="735" y="339" width="77.50634765625" height="39" opacity="0.2"/></g><g transform="translate(-74,2) scale(1,1)"><rect fill="#ffffff" stroke="none" x="728" y="332" width="77.50634765625" height="39"/></g><g transform="translate(-74,2) scale(1,1)"><path fill="none" stroke="#000000" d="M 728 332 L 805.50634765625 332 L 805.50634765625 371 L 728 371 L 728 332 Z Z" stroke-miterlimit="10"/></g><g transform="translate(-74,2) scale(1,1)"><g><path fill="none" stroke="none"/><text fill="#000000" stroke="none" font-family="Arial" font-size="13px" font-style="normal" font-weight="bold" text-decoration="none" x="739.655029296875" y="351.5">Sampling</text></g></g><g transform="translate(-74,2) scale(1,1)"><path fill="none" stroke="#000000" d="M 767.5 372 L 767.5 432" stroke-miterlimit="10" stroke-dasharray="3"/></g><g transform="translate(-74,2) scale(1,1)"><g><path fill="none" stroke="none"/><text fill="#99004c" stroke="none" font-family="Arial" font-size="13px" font-style="normal" font-weight="normal" text-decoration="none" x="117" y="26">requestPayment Sequence Diagram</text></g></g><g transform="translate(-74,2) scale(1,1)"><path fill="none" stroke="#000000" d="M 266 144 L 352 144" stroke-miterlimit="10" stroke-dasharray="3"/></g><g transform="translate(-74,2) scale(1,1)"><path fill="none" stroke="#000000" d="M 341.83732514237585 148.209517756016 L 352 144 L 341.83732514237585 139.790482243984" stroke-miterlimit="10"/></g><g transform="translate(-74,2) scale(1,1)"><g><path fill="none" stroke="none"/><text fill="#000000" stroke="none" font-family="Arial" font-size="13px" font-style="normal" font-weight="normal" text-decoration="none" x="282.5" y="139.5">«create»</text></g></g><g transform="translate(-74,2) scale(1,1)"><path fill="none" stroke="#000000" d="M 132 128 L 253 128" stroke-miterlimit="10"/></g><g transform="translate(-74,2) scale(1,1)"><path fill="#000000" stroke="none" d="M 242.83732514237585 132.209517756016 L 253 128 L 242.83732514237585 123.79048224398402"/></g><g transform="translate(-74,2) scale(1,1)"><path fill="none" stroke="#000000" d="M 242.83732514237585 132.209517756016 L 253 128 L 242.83732514237585 123.79048224398402 L 242.83732514237585 132.209517756016" stroke-miterlimit="10"/></g><g transform="translate(-74,2) scale(1,1)"><g><path fill="none" stroke="none"/><text fill="#000000" stroke="none" font-family="Arial" font-size="13px" font-style="normal" font-weight="normal" text-decoration="none" x="171.298583984375" y="124.5">press()</text></g></g><g transform="translate(-74,2) scale(1,1)"><rect fill="#ffffff" stroke="none" x="253" y="128" width="13" height="28"/></g><g transform="translate(-74,2) scale(1,1)"><path fill="none" stroke="#000000" d="M 253 128 L 266 128 L 266 156 L 253 156 L 253 128 Z Z" stroke-miterlimit="10"/></g><g transform="translate(-74,2) scale(1,1)"><path fill="none" stroke="#000000" d="M 438 202 L 617 202" stroke-miterlimit="10"/></g><g transform="translate(-74,2) scale(1,1)"><path fill="#000000" stroke="none" d="M 606.8373251423759 206.209517756016 L 617 202 L 606.8373251423758 197.790482243984"/></g><g transform="translate(-74,2) scale(1,1)"><path fill="none" stroke="#000000" d="M 606.8373251423759 206.209517756016 L 617 202 L 606.8373251423758 197.790482243984 L 606.8373251423759 206.209517756016" stroke-miterlimit="10"/></g><g transform="translate(-74,2) scale(1,1)"><g><path fill="none" stroke="none"/><text fill="#000000" stroke="none" font-family="Arial" font-size="13px" font-style="normal" font-weight="normal" text-decoration="none" x="451.5" y="198.5">sendTotalPrice(requestID)</text></g></g><g transform="translate(-74,2) scale(1,1)"><rect fill="#ffffff" stroke="none" x="617" y="202" width="13" height="28"/></g><g transform="translate(-74,2) scale(1,1)"><path fill="none" stroke="#000000" d="M 617 202 L 630 202 L 630 230 L 617 230 L 617 202 Z Z" stroke-miterlimit="10"/></g><g transform="translate(-74,2) scale(1,1)"><path fill="none" stroke="#000000" d="M 438 256 L 617 256" stroke-miterlimit="10"/></g><g transform="translate(-74,2) scale(1,1)"><path fill="#000000" stroke="none" d="M 606.8373251423759 260.209517756016 L 617 256 L 606.8373251423758 251.790482243984"/></g><g transform="translate(-74,2) scale(1,1)"><path fill="none" stroke="#000000" d="M 606.8373251423759 260.209517756016 L 617 256 L 606.8373251423758 251.790482243984 L 606.8373251423759 260.209517756016" stroke-miterlimit="10"/></g><g transform="translate(-74,2) scale(1,1)"><g><path fill="none" stroke="none"/><text fill="#000000" stroke="none" font-family="Arial" font-size="13px" font-style="normal" font-weight="normal" text-decoration="none" x="448.5" y="252.5">redirectToInternetBanking()</text></g></g><g transform="translate(-74,2) scale(1,1)"><rect fill="#ffffff" stroke="none" x="617" y="256" width="13" height="28"/></g><g transform="translate(-74,2) scale(1,1)"><path fill="none" stroke="#000000" d="M 617 256 L 630 256 L 630 284 L 617 284 L 617 256 Z Z" stroke-miterlimit="10"/></g><g transform="translate(-74,2) scale(1,1)"><path fill="none" stroke="#000000" d="M 624 312 L 438 312" stroke-miterlimit="10" stroke-dasharray="3"/></g><g transform="translate(-74,2) scale(1,1)"><path fill="none" stroke="#000000" d="M 448.16267485762415 307.790482243984 L 438 312 L 448.16267485762415 316.209517756016" stroke-miterlimit="10"/></g><g transform="translate(-74,2) scale(1,1)"><g><path fill="none" stroke="none"/><text fill="#000000" stroke="none" font-family="Arial" font-size="13px" font-style="normal" font-weight="normal" text-decoration="none" x="454.5" y="307.5">Payment was Successful</text></g></g><g transform="translate(-74,2) scale(1,1)"><path fill="none" stroke="#000000" d="M 438 352 L 728 352" stroke-miterlimit="10" stroke-dasharray="3"/></g><g transform="translate(-74,2) scale(1,1)"><path fill="none" stroke="#000000" d="M 717.8373251423759 356.209517756016 L 728 352 L 717.8373251423758 347.790482243984" stroke-miterlimit="10"/></g><g transform="translate(-74,2) scale(1,1)"><g><path fill="none" stroke="none"/><text fill="#000000" stroke="none" font-family="Arial" font-size="13px" font-style="normal" font-weight="normal" text-decoration="none" x="558.5" y="348.5">«create»</text></g></g></g></svg>