<svg version="1.1" xmlns="http://www.w3.org/2000/svg" xmlns:xlink="http://www.w3.org/1999/xlink" width="863.15185546875" height="558"><defs/><g><text fill="#eeeeee" stroke="none" font-family="Arial" font-size="24px" font-style="normal" font-weight="normal" text-decoration="none" x="0" y="0">UNREGISTERED</text><text fill="#eeeeee" stroke="none" font-family="Arial" font-size="24px" font-style="normal" font-weight="normal" text-decoration="none" x="0" y="30">UNREGISTERED</text><text fill="#eeeeee" stroke="none" font-family="Arial" font-size="24px" font-style="normal" font-weight="normal" text-decoration="none" x="0" y="60">UNREGISTERED</text><text fill="#eeeeee" stroke="none" font-family="Arial" font-size="24px" font-style="normal" font-weight="normal" text-decoration="none" x="0" y="90">UNREGISTERED</text><text fill="#eeeeee" stroke="none" font-family="Arial" font-size="24px" font-style="normal" font-weight="normal" text-decoration="none" x="0" y="120">UNREGISTERED</text><text fill="#eeeeee" stroke="none" font-family="Arial" font-size="24px" font-style="normal" font-weight="normal" text-decoration="none" x="0" y="150">UNREGISTERED</text><text fill="#eeeeee" stroke="none" font-family="Arial" font-size="24px" font-style="normal" font-weight="normal" text-decoration="none" x="0" y="180">UNREGISTERED</text><text fill="#eeeeee" stroke="none" font-family="Arial" font-size="24px" font-style="normal" font-weight="normal" text-decoration="none" x="0" y="210">UNREGISTERED</text><text fill="#eeeeee" stroke="none" font-family="Arial" font-size="24px" font-style="normal" font-weight="normal" text-decoration="none" x="0" y="240">UNREGISTERED</text><text fill="#eeeeee" stroke="none" font-family="Arial" font-size="24px" font-style="normal" font-weight="normal" text-decoration="none" x="0" y="270">UNREGISTERED</text><text fill="#eeeeee" stroke="none" font-family="Arial" font-size="24px" font-style="normal" font-weight="normal" text-decoration="none" x="0" y="300">UNREGISTERED</text><text fill="#eeeeee" stroke="none" font-family="Arial" font-size="24px" font-style="normal" font-weight="normal" text-decoration="none" x="0" y="330">UNREGISTERED</text><text fill="#eeeeee" stroke="none" font-family="Arial" font-size="24px" font-style="normal" font-weight="normal" text-decoration="none" x="0" y="360">UNREGISTERED</text><text fill="#eeeeee" stroke="none" font-family="Arial" font-size="24px" font-style="normal" font-weight="normal" text-decoration="none" x="0" y="390">UNREGISTERED</text><text fill="#eeeeee" stroke="none" font-family="Arial" font-size="24px" font-style="normal" font-weight="normal" text-decoration="none" x="0" y="420">UNREGISTERED</text><text fill="#eeeeee" stroke="none" font-family="Arial" font-size="24px" font-style="normal" font-weight="normal" text-decoration="none" x="0" y="450">UNREGISTERED</text><text fill="#eeeeee" stroke="none" font-family="Arial" font-size="24px" font-style="normal" font-weight="normal" text-decoration="none" x="0" y="480">UNREGISTERED</text><text fill="#eeeeee" stroke="none" font-family="Arial" font-size="24px" font-style="normal" font-weight="normal" text-decoration="none" x="0" y="510">UNREGISTERED</text><text fill="#eeeeee" stroke="none" font-family="Arial" font-size="24px" font-style="normal" font-weight="normal" text-decoration="none" x="0" y="540">UNREGISTERED</text><text fill="#eeeeee" stroke="none" font-family="Arial" font-size="24px" font-style="normal" font-weight="normal" text-decoration="none" x="200" y="0">UNREGISTERED</text><text fill="#eeeeee" stroke="none" font-family="Arial" font-size="24px" font-style="normal" font-weight="normal" text-decoration="none" x="200" y="30">UNREGISTERED</text><text fill="#eeeeee" stroke="none" font-family="Arial" font-size="24px" font-style="normal" font-weight="normal" text-decoration="none" x="200" y="60">UNREGISTERED</text><text fill="#eeeeee" stroke="none" font-family="Arial" font-size="24px" font-style="normal" font-weight="normal" text-decoration="none" x="200" y="90">UNREGISTERED</text><text fill="#eeeeee" stroke="none" font-family="Arial" font-size="24px" font-style="normal" font-weight="normal" text-decoration="none" x="200" y="120">UNREGISTERED</text><text fill="#eeeeee" stroke="none" font-family="Arial" font-size="24px" font-style="normal" font-weight="normal" text-decoration="none" x="200" y="150">UNREGISTERED</text><text fill="#eeeeee" stroke="none" font-family="Arial" font-size="24px" font-style="normal" font-weight="normal" text-decoration="none" x="200" y="180">UNREGISTERED</text><text fill="#eeeeee" stroke="none" font-family="Arial" font-size="24px" font-style="normal" font-weight="normal" text-decoration="none" x="200" y="210">UNREGISTERED</text><text fill="#eeeeee" stroke="none" font-family="Arial" font-size="24px" font-style="normal" font-weight="normal" text-decoration="none" x="200" y="240">UNREGISTERED</text><text fill="#eeeeee" stroke="none" font-family="Arial" font-size="24px" font-style="normal" font-weight="normal" text-decoration="none" x="200" y="270">UNREGISTERED</text><text fill="#eeeeee" stroke="none" font-family="Arial" font-size="24px" font-style="normal" font-weight="normal" text-decoration="none" x="200" y="300">UNREGISTERED</text><text fill="#eeeeee" stroke="none" font-family="Arial" font-size="24px" font-style="normal" font-weight="normal" text-decoration="none" x="200" y="330">UNREGISTERED</text><text fill="#eeeeee" stroke="none" font-family="Arial" font-size="24px" font-style="normal" font-weight="normal" text-decoration="none" x="200" y="360">UNREGISTERED</text><text fill="#eeeeee" stroke="none" font-family="Arial" font-size="24px" font-style="normal" font-weight="normal" text-decoration="none" x="200" y="390">UNREGISTERED</text><text fill="#eeeeee" stroke="none" font-family="Arial" font-size="24px" font-style="normal" font-weight="normal" text-decoration="none" x="200" y="420">UNREGISTERED</text><text fill="#eeeeee" stroke="none" font-family="Arial" font-size="24px" font-style="normal" font-weight="normal" text-decoration="none" x="200" y="450">UNREGISTERED</text><text fill="#eeeeee" stroke="none" font-family="Arial" font-size="24px" font-style="normal" font-weight="normal" text-decoration="none" x="200" y="480">UNREGISTERED</text><text fill="#eeeeee" stroke="none" font-family="Arial" font-size="24px" font-style="normal" font-weight="normal" text-decoration="none" x="200" y="510">UNREGISTERED</text><text fill="#eeeeee" stroke="none" font-family="Arial" font-size="24px" font-style="normal" font-weight="normal" text-decoration="none" x="200" y="540">UNREGISTERED</text><text fill="#eeeeee" stroke="none" font-family="Arial" font-size="24px" font-style="normal" font-weight="normal" text-decoration="none" x="400" y="0">UNREGISTERED</text><text fill="#eeeeee" stroke="none" font-family="Arial" font-size="24px" font-style="normal" font-weight="normal" text-decoration="none" x="400" y="30">UNREGISTERED</text><text fill="#eeeeee" stroke="none" font-family="Arial" font-size="24px" font-style="normal" font-weight="normal" text-decoration="none" x="400" y="60">UNREGISTERED</text><text fill="#eeeeee" stroke="none" font-family="Arial" font-size="24px" font-style="normal" font-weight="normal" text-decoration="none" x="400" y="90">UNREGISTERED</text><text fill="#eeeeee" stroke="none" font-family="Arial" font-size="24px" font-style="normal" font-weight="normal" text-decoration="none" x="400" y="120">UNREGISTERED</text><text fill="#eeeeee" stroke="none" font-family="Arial" font-size="24px" font-style="normal" font-weight="normal" text-decoration="none" x="400" y="150">UNREGISTERED</text><text fill="#eeeeee" stroke="none" font-family="Arial" font-size="24px" font-style="normal" font-weight="normal" text-decoration="none" x="400" y="180">UNREGISTERED</text><text fill="#eeeeee" stroke="none" font-family="Arial" font-size="24px" font-style="normal" font-weight="normal" text-decoration="none" x="400" y="210">UNREGISTERED</text><text fill="#eeeeee" stroke="none" font-family="Arial" font-size="24px" font-style="normal" font-weight="normal" text-decoration="none" x="400" y="240">UNREGISTERED</text><text fill="#eeeeee" stroke="none" font-family="Arial" font-size="24px" font-style="normal" font-weight="normal" text-decoration="none" x="400" y="270">UNREGISTERED</text><text fill="#eeeeee" stroke="none" font-family="Arial" font-size="24px" font-style="normal" font-weight="normal" text-decoration="none" x="400" y="300">UNREGISTERED</text><text fill="#eeeeee" stroke="none" font-family="Arial" font-size="24px" font-style="normal" font-weight="normal" text-decoration="none" x="400" y="330">UNREGISTERED</text><text fill="#eeeeee" stroke="none" font-family="Arial" font-size="24px" font-style="normal" font-weight="normal" text-decoration="none" x="400" y="360">UNREGISTERED</text><text fill="#eeeeee" stroke="none" font-family="Arial" font-size="24px" font-style="normal" font-weight="normal" text-decoration="none" x="400" y="390">UNREGISTERED</text><text fill="#eeeeee" stroke="none" font-family="Arial" font-size="24px" font-style="normal" font-weight="normal" text-decoration="none" x="400" y="420">UNREGISTERED</text><text fill="#eeeeee" stroke="none" font-family="Arial" font-size="24px" font-style="normal" font-weight="normal" text-decoration="none" x="400" y="450">UNREGISTERED</text><text fill="#eeeeee" stroke="none" font-family="Arial" font-size="24px" font-style="normal" font-weight="normal" text-decoration="none" x="400" y="480">UNREGISTERED</text><text fill="#eeeeee" stroke="none" font-family="Arial" font-size="24px" font-style="normal" font-weight="normal" text-decoration="none" x="400" y="510">UNREGISTERED</text><text fill="#eeeeee" stroke="none" font-family="Arial" font-size="24px" font-style="normal" font-weight="normal" text-decoration="none" x="400" y="540">UNREGISTERED</text><text fill="#eeeeee" stroke="none" font-family="Arial" font-size="24px" font-style="normal" font-weight="normal" text-decoration="none" x="600" y="0">UNREGISTERED</text><text fill="#eeeeee" stroke="none" font-family="Arial" font-size="24px" font-style="normal" font-weight="normal" text-decoration="none" x="600" y="30">UNREGISTERED</text><text fill="#eeeeee" stroke="none" font-family="Arial" font-size="24px" font-style="normal" font-weight="normal" text-decoration="none" x="600" y="60">UNREGISTERED</text><text fill="#eeeeee" stroke="none" font-family="Arial" font-size="24px" font-style="normal" font-weight="normal" text-decoration="none" x="600" y="90">UNREGISTERED</text><text fill="#eeeeee" stroke="none" font-family="Arial" font-size="24px" font-style="normal" font-weight="normal" text-decoration="none" x="600" y="120">UNREGISTERED</text><text fill="#eeeeee" stroke="none" font-family="Arial" font-size="24px" font-style="normal" font-weight="normal" text-decoration="none" x="600" y="150">UNREGISTERED</text><text fill="#eeeeee" stroke="none" font-family="Arial" font-size="24px" font-style="normal" font-weight="normal" text-decoration="none" x="600" y="180">UNREGISTERED</text><text fill="#eeeeee" stroke="none" font-family="Arial" font-size="24px" font-style="normal" font-weight="normal" text-decoration="none" x="600" y="210">UNREGISTERED</text><text fill="#eeeeee" stroke="none" font-family="Arial" font-size="24px" font-style="normal" font-weight="normal" text-decoration="none" x="600" y="240">UNREGISTERED</text><text fill="#eeeeee" stroke="none" font-family="Arial" font-size="24px" font-style="normal" font-weight="normal" text-decoration="none" x="600" y="270">UNREGISTERED</text><text fill="#eeeeee" stroke="none" font-family="Arial" font-size="24px" font-style="normal" font-weight="normal" text-decoration="none" x="600" y="300">UNREGISTERED</text><text fill="#eeeeee" stroke="none" font-family="Arial" font-size="24px" font-style="normal" font-weight="normal" text-decoration="none" x="600" y="330">UNREGISTERED</text><text fill="#eeeeee" stroke="none" font-family="Arial" font-size="24px" font-style="normal" font-weight="normal" text-decoration="none" x="600" y="360">UNREGISTERED</text><text fill="#eeeeee" stroke="none" font-family="Arial" font-size="24px" font-style="normal" font-weight="normal" text-decoration="none" x="600" y="390">UNREGISTERED</text><text fill="#eeeeee" stroke="none" font-family="Arial" font-size="24px" font-style="normal" font-weight="normal" text-decoration="none" x="600" y="420">UNREGISTERED</text><text fill="#eeeeee" stroke="none" font-family="Arial" font-size="24px" font-style="normal" font-weight="normal" text-decoration="none" x="600" y="450">UNREGISTERED</text><text fill="#eeeeee" stroke="none" font-family="Arial" font-size="24px" font-style="normal" font-weight="normal" text-decoration="none" x="600" y="480">UNREGISTERED</text><text fill="#eeeeee" stroke="none" font-family="Arial" font-size="24px" font-style="normal" font-weight="normal" text-decoration="none" x="600" y="510">UNREGISTERED</text><text fill="#eeeeee" stroke="none" font-family="Arial" font-size="24px" font-style="normal" font-weight="normal" text-decoration="none" x="600" y="540">UNREGISTERED</text><text fill="#eeeeee" stroke="none" font-family="Arial" font-size="24px" font-style="normal" font-weight="normal" text-decoration="none" x="800" y="0">UNREGISTERED</text><text fill="#eeeeee" stroke="none" font-family="Arial" font-size="24px" font-style="normal" font-weight="normal" text-decoration="none" x="800" y="30">UNREGISTERED</text><text fill="#eeeeee" stroke="none" font-family="Arial" font-size="24px" font-style="normal" font-weight="normal" text-decoration="none" x="800" y="60">UNREGISTERED</text><text fill="#eeeeee" stroke="none" font-family="Arial" font-size="24px" font-style="normal" font-weight="normal" text-decoration="none" x="800" y="90">UNREGISTERED</text><text fill="#eeeeee" stroke="none" font-family="Arial" font-size="24px" font-style="normal" font-weight="normal" text-decoration="none" x="800" y="120">UNREGISTERED</text><text fill="#eeeeee" stroke="none" font-family="Arial" font-size="24px" font-style="normal" font-weight="normal" text-decoration="none" x="800" y="150">UNREGISTERED</text><text fill="#eeeeee" stroke="none" font-family="Arial" font-size="24px" font-style="normal" font-weight="normal" text-decoration="none" x="800" y="180">UNREGISTERED</text><text fill="#eeeeee" stroke="none" font-family="Arial" font-size="24px" font-style="normal" font-weight="normal" text-decoration="none" x="800" y="210">UNREGISTERED</text><text fill="#eeeeee" stroke="none" font-family="Arial" font-size="24px" font-style="normal" font-weight="normal" text-decoration="none" x="800" y="240">UNREGISTERED</text><text fill="#eeeeee" stroke="none" font-family="Arial" font-size="24px" font-style="normal" font-weight="normal" text-decoration="none" x="800" y="270">UNREGISTERED</text><text fill="#eeeeee" stroke="none" font-family="Arial" font-size="24px" font-style="normal" font-weight="normal" text-decoration="none" x="800" y="300">UNREGISTERED</text><text fill="#eeeeee" stroke="none" font-family="Arial" font-size="24px" font-style="normal" font-weight="normal" text-decoration="none" x="800" y="330">UNREGISTERED</text><text fill="#eeeeee" stroke="none" font-family="Arial" font-size="24px" font-style="normal" font-weight="normal" text-decoration="none" x="800" y="360">UNREGISTERED</text><text fill="#eeeeee" stroke="none" font-family="Arial" font-size="24px" font-style="normal" font-weight="normal" text-decoration="none" x="800" y="390">UNREGISTERED</text><text fill="#eeeeee" stroke="none" font-family="Arial" font-size="24px" font-style="normal" font-weight="normal" text-decoration="none" x="800" y="420">UNREGISTERED</text><text fill="#eeeeee" stroke="none" font-family="Arial" font-size="24px" font-style="normal" font-weight="normal" text-decoration="none" x="800" y="450">UNREGISTERED</text><text fill="#eeeeee" stroke="none" font-family="Arial" font-size="24px" font-style="normal" font-weight="normal" text-decoration="none" x="800" y="480">UNREGISTERED</text><text fill="#eeeeee" stroke="none" font-family="Arial" font-size="24px" font-style="normal" font-weight="normal" text-decoration="none" x="800" y="510">UNREGISTERED</text><text fill="#eeeeee" stroke="none" font-family="Arial" font-size="24px" font-style="normal" font-weight="normal" text-decoration="none" x="800" y="540">UNREGISTERED</text><g transform="translate(-190,2) scale(1,1)"><path fill="#ffffff" stroke="none" d="M 241.3143172940341 47.3 C 241.3143172940341 43.82060576 244.19271901621593 41 247.74340820312503 41 C 251.29409739003412 41 254.17249911221595 43.82060576 254.17249911221595 47.3 C 254.17249911221595 50.779394239999995 251.29409739003412 53.6 247.74340820312503 53.6 C 244.19271901621593 53.6 241.3143172940341 50.779394239999995 241.3143172940341 47.3 Z"/></g><g transform="translate(-190,2) scale(1,1)"><path fill="none" stroke="#000000" d="M 241.3143172940341 47.3 C 241.3143172940341 43.82060576 244.19271901621593 41 247.74340820312503 41 C 251.29409739003412 41 254.17249911221595 43.82060576 254.17249911221595 47.3 C 254.17249911221595 50.779394239999995 251.29409739003412 53.6 247.74340820312503 53.6 C 244.19271901621593 53.6 241.3143172940341 50.779394239999995 241.3143172940341 47.3 Z" stroke-miterlimit="10"/></g><g transform="translate(-190,2) scale(1,1)"><path fill="none" stroke="#000000" d="M 247.74340820312503 53.6 L 247.74340820312503 66.4" stroke-miterlimit="10"/></g><g transform="translate(-190,2) scale(1,1)"><path fill="none" stroke="#000000" d="M 240.9361354758523 58.4 L 254.55068093039776 58.4" stroke-miterlimit="10"/></g><g transform="translate(-190,2) scale(1,1)"><path fill="none" stroke="#000000" d="M 247.74340820312503 66.4 L 238.28886274857956 79" stroke-miterlimit="10"/></g><g transform="translate(-190,2) scale(1,1)"><path fill="none" stroke="#000000" d="M 247.74340820312503 66.4 L 257.1979536576705 79" stroke-miterlimit="10"/></g><g transform="translate(-190,2) scale(1,1)"><g><path fill="none" stroke="none"/><text fill="#000000" stroke="none" font-family="Arial" font-size="13px" font-style="normal" font-weight="bold" text-decoration="none" x="223.895263671875" y="99.5">: Patient</text></g></g><g transform="translate(-190,2) scale(1,1)"><path fill="none" stroke="#000000" d="M 248.5 105 L 248.5 432" stroke-miterlimit="10" stroke-dasharray="3"/></g><g transform="translate(-190,2) scale(1,1)"><rect fill="#C0C0C0" stroke="none" x="367" y="47" width="158.17236328125" height="39" opacity="0.2"/></g><g transform="translate(-190,2) scale(1,1)"><rect fill="#ffffff" stroke="none" x="360" y="40" width="158.17236328125" height="39"/></g><g transform="translate(-190,2) scale(1,1)"><path fill="none" stroke="#000000" d="M 360 40 L 518.17236328125 40 L 518.17236328125 79 L 360 79 L 360 40 Z Z" stroke-miterlimit="10"/></g><g transform="translate(-190,2) scale(1,1)"><g><path fill="none" stroke="none"/><text fill="#000000" stroke="none" font-family="Arial" font-size="13px" font-style="normal" font-weight="bold" text-decoration="none" x="382.001708984375" y="59.5">RequestTestControl</text></g></g><g transform="translate(-190,2) scale(1,1)"><path fill="none" stroke="#000000" d="M 440.5 80 L 440.5 546" stroke-miterlimit="10" stroke-dasharray="3"/></g><g transform="translate(-190,2) scale(1,1)"><rect fill="#C0C0C0" stroke="none" x="759" y="251" width="129.271484375" height="39" opacity="0.2"/></g><g transform="translate(-190,2) scale(1,1)"><rect fill="#ffffff" stroke="none" x="752" y="244" width="129.271484375" height="39"/></g><g transform="translate(-190,2) scale(1,1)"><path fill="none" stroke="#000000" d="M 752 244 L 881.271484375 244 L 881.271484375 283 L 752 283 L 752 244 Z Z" stroke-miterlimit="10"/></g><g transform="translate(-190,2) scale(1,1)"><g><path fill="none" stroke="none"/><text fill="#000000" stroke="none" font-family="Arial" font-size="13px" font-style="normal" font-weight="bold" text-decoration="none" x="765.952880859375" y="263.5">TimeSlotListForm</text></g></g><g transform="translate(-190,2) scale(1,1)"><path fill="none" stroke="#000000" d="M 817.5 284 L 817.5 546" stroke-miterlimit="10" stroke-dasharray="3"/></g><g transform="translate(-190,2) scale(1,1)"><rect fill="#C0C0C0" stroke="none" x="951" y="459" width="99.15185546875" height="39" opacity="0.2"/></g><g transform="translate(-190,2) scale(1,1)"><rect fill="#ffffff" stroke="none" x="944" y="452" width="99.15185546875" height="39"/></g><g transform="translate(-190,2) scale(1,1)"><path fill="none" stroke="#000000" d="M 944 452 L 1043.15185546875 452 L 1043.15185546875 491 L 944 491 L 944 452 Z Z" stroke-miterlimit="10"/></g><g transform="translate(-190,2) scale(1,1)"><g><path fill="none" stroke="none"/><text fill="#000000" stroke="none" font-family="Arial" font-size="13px" font-style="normal" font-weight="bold" text-decoration="none" x="957.080078125" y="471.5">Appointment</text></g></g><g transform="translate(-190,2) scale(1,1)"><path fill="none" stroke="#000000" d="M 994.5 492 L 994.5 541" stroke-miterlimit="10" stroke-dasharray="3"/></g><g transform="translate(-190,2) scale(1,1)"><path fill="#ffffff" stroke="none" d="M 638.359971590909 47.3 C 638.359971590909 43.82060576 641.238373313091 41 644.7890625 41 C 648.339751686909 41 651.2181534090909 43.82060576 651.2181534090909 47.3 C 651.2181534090909 50.779394239999995 648.339751686909 53.6 644.7890625 53.6 C 641.238373313091 53.6 638.359971590909 50.779394239999995 638.359971590909 47.3 Z"/></g><g transform="translate(-190,2) scale(1,1)"><path fill="none" stroke="#000000" d="M 638.359971590909 47.3 C 638.359971590909 43.82060576 641.238373313091 41 644.7890625 41 C 648.339751686909 41 651.2181534090909 43.82060576 651.2181534090909 47.3 C 651.2181534090909 50.779394239999995 648.339751686909 53.6 644.7890625 53.6 C 641.238373313091 53.6 638.359971590909 50.779394239999995 638.359971590909 47.3 Z" stroke-miterlimit="10"/></g><g transform="translate(-190,2) scale(1,1)"><path fill="none" stroke="#000000" d="M 644.7890625 53.6 L 644.7890625 66.4" stroke-miterlimit="10"/></g><g transform="translate(-190,2) scale(1,1)"><path fill="none" stroke="#000000" d="M 637.9817897727272 58.4 L 651.5963352272727 58.4" stroke-miterlimit="10"/></g><g transform="translate(-190,2) scale(1,1)"><path fill="none" stroke="#000000" d="M 644.7890625 66.4 L 635.3345170454545 79" stroke-miterlimit="10"/></g><g transform="translate(-190,2) scale(1,1)"><path fill="none" stroke="#000000" d="M 644.7890625 66.4 L 654.2436079545454 79" stroke-miterlimit="10"/></g><g transform="translate(-190,2) scale(1,1)"><g><path fill="none" stroke="none"/><text fill="#000000" stroke="none" font-family="Arial" font-size="13px" font-style="normal" font-weight="bold" text-decoration="none" x="610.102294921875" y="99.5">: Laboratory</text></g></g><g transform="translate(-190,2) scale(1,1)"><path fill="none" stroke="#000000" d="M 645.5 105 L 645.5 248" stroke-miterlimit="10" stroke-dasharray="3"/></g><g transform="translate(-190,2) scale(1,1)"><g><path fill="none" stroke="none"/><text fill="#00b799" stroke="none" font-family="Arial" font-size="13px" font-style="normal" font-weight="normal" text-decoration="none" x="229" y="26">selectTimeSlot Sequence Diagram</text></g></g><g transform="translate(-190,2) scale(1,1)"><path fill="none" stroke="#000000" d="M 248 120 L 433 120" stroke-miterlimit="10"/></g><g transform="translate(-190,2) scale(1,1)"><path fill="#000000" stroke="none" d="M 422.83732514237585 124.20951775601598 L 433 120 L 422.83732514237585 115.79048224398402"/></g><g transform="translate(-190,2) scale(1,1)"><path fill="none" stroke="#000000" d="M 422.83732514237585 124.20951775601598 L 433 120 L 422.83732514237585 115.79048224398402 L 422.83732514237585 124.20951775601598" stroke-miterlimit="10"/></g><g transform="translate(-190,2) scale(1,1)"><g><path fill="none" stroke="none"/><text fill="#000000" stroke="none" font-family="Arial" font-size="13px" font-style="normal" font-weight="normal" text-decoration="none" x="293.5" y="116.5">selectTimeSlot()</text></g></g><g transform="translate(-190,2) scale(1,1)"><rect fill="#ffffff" stroke="none" x="433" y="120" width="13" height="28"/></g><g transform="translate(-190,2) scale(1,1)"><path fill="none" stroke="#000000" d="M 433 120 L 446 120 L 446 148 L 433 148 L 433 120 Z Z" stroke-miterlimit="10"/></g><g transform="translate(-190,2) scale(1,1)"><path fill="none" stroke="#000000" d="M 440 176 L 638 176" stroke-miterlimit="10"/></g><g transform="translate(-190,2) scale(1,1)"><path fill="#000000" stroke="none" d="M 627.8373251423759 180.209517756016 L 638 176 L 627.8373251423758 171.790482243984"/></g><g transform="translate(-190,2) scale(1,1)"><path fill="none" stroke="#000000" d="M 627.8373251423759 180.209517756016 L 638 176 L 627.8373251423758 171.790482243984 L 627.8373251423759 180.209517756016" stroke-miterlimit="10"/></g><g transform="translate(-190,2) scale(1,1)"><g><path fill="none" stroke="none"/><text fill="#000000" stroke="none" font-family="Arial" font-size="13px" font-style="normal" font-weight="normal" text-decoration="none" x="496.5" y="172.5">getTimeSlots()</text></g></g><g transform="translate(-190,2) scale(1,1)"><rect fill="#ffffff" stroke="none" x="638" y="176" width="13" height="28"/></g><g transform="translate(-190,2) scale(1,1)"><path fill="none" stroke="#000000" d="M 638 176 L 651 176 L 651 204 L 638 204 L 638 176 Z Z" stroke-miterlimit="10"/></g><g transform="translate(-190,2) scale(1,1)"><path fill="none" stroke="#000000" d="M 645 216 L 440 216" stroke-miterlimit="10" stroke-dasharray="3"/></g><g transform="translate(-190,2) scale(1,1)"><path fill="none" stroke="#000000" d="M 450.16267485762415 211.790482243984 L 440 216 L 450.16267485762415 220.209517756016" stroke-miterlimit="10"/></g><g transform="translate(-190,2) scale(1,1)"><g><path fill="none" stroke="none"/><text fill="#000000" stroke="none" font-family="Arial" font-size="13px" font-style="normal" font-weight="normal" text-decoration="none" x="491.5" y="211.5">List of Time Slots</text></g></g><g transform="translate(-190,2) scale(1,1)"><path fill="none" stroke="#000000" d="M 440 264 L 752 264" stroke-miterlimit="10" stroke-dasharray="3"/></g><g transform="translate(-190,2) scale(1,1)"><path fill="none" stroke="#000000" d="M 741.8373251423759 268.209517756016 L 752 264 L 741.8373251423758 259.790482243984" stroke-miterlimit="10"/></g><g transform="translate(-190,2) scale(1,1)"><g><path fill="none" stroke="none"/><text fill="#000000" stroke="none" font-family="Arial" font-size="13px" font-style="normal" font-weight="normal" text-decoration="none" x="502.5" y="259.5">«create»</text></g></g><g transform="translate(-190,2) scale(1,1)"><path fill="none" stroke="#000000" d="M 248 320 L 810 320" stroke-miterlimit="10"/></g><g transform="translate(-190,2) scale(1,1)"><path fill="#000000" stroke="none" d="M 799.8373251423759 324.209517756016 L 810 320 L 799.8373251423758 315.790482243984"/></g><g transform="translate(-190,2) scale(1,1)"><path fill="none" stroke="#000000" d="M 799.8373251423759 324.209517756016 L 810 320 L 799.8373251423758 315.790482243984 L 799.8373251423759 324.209517756016" stroke-miterlimit="10"/></g><g transform="translate(-190,2) scale(1,1)"><g><path fill="none" stroke="none"/><text fill="#000000" stroke="none" font-family="Arial" font-size="13px" font-style="normal" font-weight="normal" text-decoration="none" x="542.5" y="316.5">selectTimeSlot()</text></g></g><g transform="translate(-190,2) scale(1,1)"><rect fill="#ffffff" stroke="none" x="810" y="320" width="13" height="28"/></g><g transform="translate(-190,2) scale(1,1)"><path fill="none" stroke="#000000" d="M 810 320 L 823 320 L 823 348 L 810 348 L 810 320 Z Z" stroke-miterlimit="10"/></g><g transform="translate(-190,2) scale(1,1)"><path fill="none" stroke="#000000" d="M 248 368 L 810 368" stroke-miterlimit="10"/></g><g transform="translate(-190,2) scale(1,1)"><path fill="#000000" stroke="none" d="M 799.8373251423759 372.209517756016 L 810 368 L 799.8373251423758 363.790482243984"/></g><g transform="translate(-190,2) scale(1,1)"><path fill="none" stroke="#000000" d="M 799.8373251423759 372.209517756016 L 810 368 L 799.8373251423758 363.790482243984 L 799.8373251423759 372.209517756016" stroke-miterlimit="10"/></g><g transform="translate(-190,2) scale(1,1)"><g><path fill="none" stroke="none"/><text fill="#000000" stroke="none" font-family="Arial" font-size="13px" font-style="normal" font-weight="normal" text-decoration="none" x="565.015869140625" y="364.5">submit()</text></g></g><g transform="translate(-190,2) scale(1,1)"><rect fill="#ffffff" stroke="none" x="810" y="368" width="13" height="28"/></g><g transform="translate(-190,2) scale(1,1)"><path fill="none" stroke="#000000" d="M 810 368 L 823 368 L 823 396 L 810 396 L 810 368 Z Z" stroke-miterlimit="10"/></g><g transform="translate(-190,2) scale(1,1)"><path fill="none" stroke="#000000" d="M 817 427 L 446 427" stroke-miterlimit="10"/></g><g transform="translate(-190,2) scale(1,1)"><path fill="#000000" stroke="none" d="M 456.16267485762415 422.790482243984 L 446 427 L 456.16267485762415 431.209517756016"/></g><g transform="translate(-190,2) scale(1,1)"><path fill="none" stroke="#000000" d="M 456.16267485762415 422.790482243984 L 446 427 L 456.16267485762415 431.209517756016 L 456.16267485762415 422.790482243984" stroke-miterlimit="10"/></g><g transform="translate(-190,2) scale(1,1)"><g><path fill="none" stroke="none"/><text fill="#000000" stroke="none" font-family="Arial" font-size="13px" font-style="normal" font-weight="normal" text-decoration="none" x="575.5" y="419.5">submitTimeSlot()</text></g></g><g transform="translate(-190,2) scale(1,1)"><rect fill="#ffffff" stroke="none" x="433" y="427" width="13" height="28"/></g><g transform="translate(-190,2) scale(1,1)"><path fill="none" stroke="#000000" d="M 433 427 L 446 427 L 446 455 L 433 455 L 433 427 Z Z" stroke-miterlimit="10"/></g><g transform="translate(-190,2) scale(1,1)"><path fill="none" stroke="#000000" d="M 440 472 L 944 472" stroke-miterlimit="10" stroke-dasharray="3"/></g><g transform="translate(-190,2) scale(1,1)"><path fill="none" stroke="#000000" d="M 933.8373251423759 476.209517756016 L 944 472 L 933.8373251423758 467.790482243984" stroke-miterlimit="10"/></g><g transform="translate(-190,2) scale(1,1)"><g><path fill="none" stroke="none"/><text fill="#000000" stroke="none" font-family="Arial" font-size="13px" font-style="normal" font-weight="normal" text-decoration="none" x="846.5" y="468.5">«create»</text></g></g><g transform="translate(-190,2) scale(1,1)"><path fill="none" stroke="#000000" d="M 440 504 L 810 504" stroke-miterlimit="10"/></g><g transform="translate(-190,2) scale(1,1)"><path fill="#000000" stroke="none" d="M 799.8373251423759 508.209517756016 L 810 504 L 799.8373251423758 499.790482243984"/></g><g transform="translate(-190,2) scale(1,1)"><path fill="none" stroke="#000000" d="M 799.8373251423759 508.209517756016 L 810 504 L 799.8373251423758 499.790482243984 L 799.8373251423759 508.209517756016" stroke-miterlimit="10"/></g><g transform="translate(-190,2) scale(1,1)"><path fill="none" stroke="#000000" d="M 807 536 L 827 556" stroke-miterlimit="10"/></g><g transform="translate(-190,2) scale(1,1)"><path fill="none" stroke="#000000" d="M 827 536 L 807 556" stroke-miterlimit="10"/></g><g transform="translate(-190,2) scale(1,1)"><g><path fill="none" stroke="none"/><text fill="#000000" stroke="none" font-family="Arial" font-size="13px" font-style="normal" font-weight="normal" text-decoration="none" x="596.5" y="500.5">«destroy»</text></g></g><g transform="translate(-190,2) scale(1,1)"><rect fill="#ffffff" stroke="none" x="810" y="504" width="13" height="28"/></g><g transform="translate(-190,2) scale(1,1)"><path fill="none" stroke="#000000" d="M 810 504 L 823 504 L 823 532 L 810 532 L 810 504 Z Z" stroke-miterlimit="10"/></g></g></svg>