<svg version="1.1" xmlns="http://www.w3.org/2000/svg" xmlns:xlink="http://www.w3.org/1999/xlink" width="783.15185546875" height="412"><defs/><g><text fill="#eeeeee" stroke="none" font-family="Arial" font-size="24px" font-style="normal" font-weight="normal" text-decoration="none" x="0" y="0">UNREGISTERED</text><text fill="#eeeeee" stroke="none" font-family="Arial" font-size="24px" font-style="normal" font-weight="normal" text-decoration="none" x="0" y="30">UNREGISTERED</text><text fill="#eeeeee" stroke="none" font-family="Arial" font-size="24px" font-style="normal" font-weight="normal" text-decoration="none" x="0" y="60">UNREGISTERED</text><text fill="#eeeeee" stroke="none" font-family="Arial" font-size="24px" font-style="normal" font-weight="normal" text-decoration="none" x="0" y="90">UNREGISTERED</text><text fill="#eeeeee" stroke="none" font-family="Arial" font-size="24px" font-style="normal" font-weight="normal" text-decoration="none" x="0" y="120">UNREGISTERED</text><text fill="#eeeeee" stroke="none" font-family="Arial" font-size="24px" font-style="normal" font-weight="normal" text-decoration="none" x="0" y="150">UNREGISTERED</text><text fill="#eeeeee" stroke="none" font-family="Arial" font-size="24px" font-style="normal" font-weight="normal" text-decoration="none" x="0" y="180">UNREGISTERED</text><text fill="#eeeeee" stroke="none" font-family="Arial" font-size="24px" font-style="normal" font-weight="normal" text-decoration="none" x="0" y="210">UNREGISTERED</text><text fill="#eeeeee" stroke="none" font-family="Arial" font-size="24px" font-style="normal" font-weight="normal" text-decoration="none" x="0" y="240">UNREGISTERED</text><text fill="#eeeeee" stroke="none" font-family="Arial" font-size="24px" font-style="normal" font-weight="normal" text-decoration="none" x="0" y="270">UNREGISTERED</text><text fill="#eeeeee" stroke="none" font-family="Arial" font-size="24px" font-style="normal" font-weight="normal" text-decoration="none" x="0" y="300">UNREGISTERED</text><text fill="#eeeeee" stroke="none" font-family="Arial" font-size="24px" font-style="normal" font-weight="normal" text-decoration="none" x="0" y="330">UNREGISTERED</text><text fill="#eeeeee" stroke="none" font-family="Arial" font-size="24px" font-style="normal" font-weight="normal" text-decoration="none" x="0" y="360">UNREGISTERED</text><text fill="#eeeeee" stroke="none" font-family="Arial" font-size="24px" font-style="normal" font-weight="normal" text-decoration="none" x="0" y="390">UNREGISTERED</text><text fill="#eeeeee" stroke="none" font-family="Arial" font-size="24px" font-style="normal" font-weight="normal" text-decoration="none" x="200" y="0">UNREGISTERED</text><text fill="#eeeeee" stroke="none" font-family="Arial" font-size="24px" font-style="normal" font-weight="normal" text-decoration="none" x="200" y="30">UNREGISTERED</text><text fill="#eeeeee" stroke="none" font-family="Arial" font-size="24px" font-style="normal" font-weight="normal" text-decoration="none" x="200" y="60">UNREGISTERED</text><text fill="#eeeeee" stroke="none" font-family="Arial" font-size="24px" font-style="normal" font-weight="normal" text-decoration="none" x="200" y="90">UNREGISTERED</text><text fill="#eeeeee" stroke="none" font-family="Arial" font-size="24px" font-style="normal" font-weight="normal" text-decoration="none" x="200" y="120">UNREGISTERED</text><text fill="#eeeeee" stroke="none" font-family="Arial" font-size="24px" font-style="normal" font-weight="normal" text-decoration="none" x="200" y="150">UNREGISTERED</text><text fill="#eeeeee" stroke="none" font-family="Arial" font-size="24px" font-style="normal" font-weight="normal" text-decoration="none" x="200" y="180">UNREGISTERED</text><text fill="#eeeeee" stroke="none" font-family="Arial" font-size="24px" font-style="normal" font-weight="normal" text-decoration="none" x="200" y="210">UNREGISTERED</text><text fill="#eeeeee" stroke="none" font-family="Arial" font-size="24px" font-style="normal" font-weight="normal" text-decoration="none" x="200" y="240">UNREGISTERED</text><text fill="#eeeeee" stroke="none" font-family="Arial" font-size="24px" font-style="normal" font-weight="normal" text-decoration="none" x="200" y="270">UNREGISTERED</text><text fill="#eeeeee" stroke="none" font-family="Arial" font-size="24px" font-style="normal" font-weight="normal" text-decoration="none" x="200" y="300">UNREGISTERED</text><text fill="#eeeeee" stroke="none" font-family="Arial" font-size="24px" font-style="normal" font-weight="normal" text-decoration="none" x="200" y="330">UNREGISTERED</text><text fill="#eeeeee" stroke="none" font-family="Arial" font-size="24px" font-style="normal" font-weight="normal" text-decoration="none" x="200" y="360">UNREGISTERED</text><text fill="#eeeeee" stroke="none" font-family="Arial" font-size="24px" font-style="normal" font-weight="normal" text-decoration="none" x="200" y="390">UNREGISTERED</text><text fill="#eeeeee" stroke="none" font-family="Arial" font-size="24px" font-style="normal" font-weight="normal" text-decoration="none" x="400" y="0">UNREGISTERED</text><text fill="#eeeeee" stroke="none" font-family="Arial" font-size="24px" font-style="normal" font-weight="normal" text-decoration="none" x="400" y="30">UNREGISTERED</text><text fill="#eeeeee" stroke="none" font-family="Arial" font-size="24px" font-style="normal" font-weight="normal" text-decoration="none" x="400" y="60">UNREGISTERED</text><text fill="#eeeeee" stroke="none" font-family="Arial" font-size="24px" font-style="normal" font-weight="normal" text-decoration="none" x="400" y="90">UNREGISTERED</text><text fill="#eeeeee" stroke="none" font-family="Arial" font-size="24px" font-style="normal" font-weight="normal" text-decoration="none" x="400" y="120">UNREGISTERED</text><text fill="#eeeeee" stroke="none" font-family="Arial" font-size="24px" font-style="normal" font-weight="normal" text-decoration="none" x="400" y="150">UNREGISTERED</text><text fill="#eeeeee" stroke="none" font-family="Arial" font-size="24px" font-style="normal" font-weight="normal" text-decoration="none" x="400" y="180">UNREGISTERED</text><text fill="#eeeeee" stroke="none" font-family="Arial" font-size="24px" font-style="normal" font-weight="normal" text-decoration="none" x="400" y="210">UNREGISTERED</text><text fill="#eeeeee" stroke="none" font-family="Arial" font-size="24px" font-style="normal" font-weight="normal" text-decoration="none" x="400" y="240">UNREGISTERED</text><text fill="#eeeeee" stroke="none" font-family="Arial" font-size="24px" font-style="normal" font-weight="normal" text-decoration="none" x="400" y="270">UNREGISTERED</text><text fill="#eeeeee" stroke="none" font-family="Arial" font-size="24px" font-style="normal" font-weight="normal" text-decoration="none" x="400" y="300">UNREGISTERED</text><text fill="#eeeeee" stroke="none" font-family="Arial" font-size="24px" font-style="normal" font-weight="normal" text-decoration="none" x="400" y="330">UNREGISTERED</text><text fill="#eeeeee" stroke="none" font-family="Arial" font-size="24px" font-style="normal" font-weight="normal" text-decoration="none" x="400" y="360">UNREGISTERED</text><text fill="#eeeeee" stroke="none" font-family="Arial" font-size="24px" font-style="normal" font-weight="normal" text-decoration="none" x="400" y="390">UNREGISTERED</text><text fill="#eeeeee" stroke="none" font-family="Arial" font-size="24px" font-style="normal" font-weight="normal" text-decoration="none" x="600" y="0">UNREGISTERED</text><text fill="#eeeeee" stroke="none" font-family="Arial" font-size="24px" font-style="normal" font-weight="normal" text-decoration="none" x="600" y="30">UNREGISTERED</text><text fill="#eeeeee" stroke="none" font-family="Arial" font-size="24px" font-style="normal" font-weight="normal" text-decoration="none" x="600" y="60">UNREGISTERED</text><text fill="#eeeeee" stroke="none" font-family="Arial" font-size="24px" font-style="normal" font-weight="normal" text-decoration="none" x="600" y="90">UNREGISTERED</text><text fill="#eeeeee" stroke="none" font-family="Arial" font-size="24px" font-style="normal" font-weight="normal" text-decoration="none" x="600" y="120">UNREGISTERED</text><text fill="#eeeeee" stroke="none" font-family="Arial" font-size="24px" font-style="normal" font-weight="normal" text-decoration="none" x="600" y="150">UNREGISTERED</text><text fill="#eeeeee" stroke="none" font-family="Arial" font-size="24px" font-style="normal" font-weight="normal" text-decoration="none" x="600" y="180">UNREGISTERED</text><text fill="#eeeeee" stroke="none" font-family="Arial" font-size="24px" font-style="normal" font-weight="normal" text-decoration="none" x="600" y="210">UNREGISTERED</text><text fill="#eeeeee" stroke="none" font-family="Arial" font-size="24px" font-style="normal" font-weight="normal" text-decoration="none" x="600" y="240">UNREGISTERED</text><text fill="#eeeeee" stroke="none" font-family="Arial" font-size="24px" font-style="normal" font-weight="normal" text-decoration="none" x="600" y="270">UNREGISTERED</text><text fill="#eeeeee" stroke="none" font-family="Arial" font-size="24px" font-style="normal" font-weight="normal" text-decoration="none" x="600" y="300">UNREGISTERED</text><text fill="#eeeeee" stroke="none" font-family="Arial" font-size="24px" font-style="normal" font-weight="normal" text-decoration="none" x="600" y="330">UNREGISTERED</text><text fill="#eeeeee" stroke="none" font-family="Arial" font-size="24px" font-style="normal" font-weight="normal" text-decoration="none" x="600" y="360">UNREGISTERED</text><text fill="#eeeeee" stroke="none" font-family="Arial" font-size="24px" font-style="normal" font-weight="normal" text-decoration="none" x="600" y="390">UNREGISTERED</text><g transform="translate(-190,2) scale(1,1)"><path fill="#ffffff" stroke="none" d="M 241.3143172940341 47.3 C 241.3143172940341 43.82060576 244.19271901621593 41 247.74340820312503 41 C 251.29409739003412 41 254.17249911221595 43.82060576 254.17249911221595 47.3 C 254.17249911221595 50.779394239999995 251.29409739003412 53.6 247.74340820312503 53.6 C 244.19271901621593 53.6 241.3143172940341 50.779394239999995 241.3143172940341 47.3 Z"/></g><g transform="translate(-190,2) scale(1,1)"><path fill="none" stroke="#000000" d="M 241.3143172940341 47.3 C 241.3143172940341 43.82060576 244.19271901621593 41 247.74340820312503 41 C 251.29409739003412 41 254.17249911221595 43.82060576 254.17249911221595 47.3 C 254.17249911221595 50.779394239999995 251.29409739003412 53.6 247.74340820312503 53.6 C 244.19271901621593 53.6 241.3143172940341 50.779394239999995 241.3143172940341 47.3 Z" stroke-miterlimit="10"/></g><g transform="translate(-190,2) scale(1,1)"><path fill="none" stroke="#000000" d="M 247.74340820312503 53.6 L 247.74340820312503 66.4" stroke-miterlimit="10"/></g><g transform="translate(-190,2) scale(1,1)"><path fill="none" stroke="#000000" d="M 240.9361354758523 58.4 L 254.55068093039776 58.4" stroke-miterlimit="10"/></g><g transform="translate(-190,2) scale(1,1)"><path fill="none" stroke="#000000" d="M 247.74340820312503 66.4 L 238.28886274857956 79" stroke-miterlimit="10"/></g><g transform="translate(-190,2) scale(1,1)"><path fill="none" stroke="#000000" d="M 247.74340820312503 66.4 L 257.1979536576705 79" stroke-miterlimit="10"/></g><g transform="translate(-190,2) scale(1,1)"><g><path fill="none" stroke="none"/><text fill="#000000" stroke="none" font-family="Arial" font-size="13px" font-style="normal" font-weight="bold" text-decoration="none" x="223.895263671875" y="99.5">: Patient</text></g></g><g transform="translate(-190,2) scale(1,1)"><path fill="none" stroke="#000000" d="M 248.5 105 L 248.5 392" stroke-miterlimit="10" stroke-dasharray="3"/></g><g transform="translate(-190,2) scale(1,1)"><rect fill="#C0C0C0" stroke="none" x="367" y="47" width="158.17236328125" height="39" opacity="0.2"/></g><g transform="translate(-190,2) scale(1,1)"><rect fill="#ffffff" stroke="none" x="360" y="40" width="158.17236328125" height="39"/></g><g transform="translate(-190,2) scale(1,1)"><path fill="none" stroke="#000000" d="M 360 40 L 518.17236328125 40 L 518.17236328125 79 L 360 79 L 360 40 Z Z" stroke-miterlimit="10"/></g><g transform="translate(-190,2) scale(1,1)"><g><path fill="none" stroke="none"/><text fill="#000000" stroke="none" font-family="Arial" font-size="13px" font-style="normal" font-weight="bold" text-decoration="none" x="382.001708984375" y="59.5">RequestTestControl</text></g></g><g transform="translate(-190,2) scale(1,1)"><path fill="none" stroke="#000000" d="M 440.5 80 L 440.5 400" stroke-miterlimit="10" stroke-dasharray="3"/></g><g transform="translate(-190,2) scale(1,1)"><rect fill="#C0C0C0" stroke="none" x="871" y="307" width="99.15185546875" height="39" opacity="0.2"/></g><g transform="translate(-190,2) scale(1,1)"><rect fill="#ffffff" stroke="none" x="864" y="300" width="99.15185546875" height="39"/></g><g transform="translate(-190,2) scale(1,1)"><path fill="none" stroke="#000000" d="M 864 300 L 963.15185546875 300 L 963.15185546875 339 L 864 339 L 864 300 Z Z" stroke-miterlimit="10"/></g><g transform="translate(-190,2) scale(1,1)"><g><path fill="none" stroke="none"/><text fill="#000000" stroke="none" font-family="Arial" font-size="13px" font-style="normal" font-weight="bold" text-decoration="none" x="877.080078125" y="319.5">Appointment</text></g></g><g transform="translate(-190,2) scale(1,1)"><path fill="none" stroke="#000000" d="M 914.5 340 L 914.5 392" stroke-miterlimit="10" stroke-dasharray="3"/></g><g transform="translate(-190,2) scale(1,1)"><path fill="#ffffff" stroke="none" d="M 638.359971590909 47.3 C 638.359971590909 43.82060576 641.238373313091 41 644.7890625 41 C 648.339751686909 41 651.2181534090909 43.82060576 651.2181534090909 47.3 C 651.2181534090909 50.779394239999995 648.339751686909 53.6 644.7890625 53.6 C 641.238373313091 53.6 638.359971590909 50.779394239999995 638.359971590909 47.3 Z"/></g><g transform="translate(-190,2) scale(1,1)"><path fill="none" stroke="#000000" d="M 638.359971590909 47.3 C 638.359971590909 43.82060576 641.238373313091 41 644.7890625 41 C 648.339751686909 41 651.2181534090909 43.82060576 651.2181534090909 47.3 C 651.2181534090909 50.779394239999995 648.339751686909 53.6 644.7890625 53.6 C 641.238373313091 53.6 638.359971590909 50.779394239999995 638.359971590909 47.3 Z" stroke-miterlimit="10"/></g><g transform="translate(-190,2) scale(1,1)"><path fill="none" stroke="#000000" d="M 644.7890625 53.6 L 644.7890625 66.4" stroke-miterlimit="10"/></g><g transform="translate(-190,2) scale(1,1)"><path fill="none" stroke="#000000" d="M 637.9817897727272 58.4 L 651.5963352272727 58.4" stroke-miterlimit="10"/></g><g transform="translate(-190,2) scale(1,1)"><path fill="none" stroke="#000000" d="M 644.7890625 66.4 L 635.3345170454545 79" stroke-miterlimit="10"/></g><g transform="translate(-190,2) scale(1,1)"><path fill="none" stroke="#000000" d="M 644.7890625 66.4 L 654.2436079545454 79" stroke-miterlimit="10"/></g><g transform="translate(-190,2) scale(1,1)"><g><path fill="none" stroke="none"/><text fill="#000000" stroke="none" font-family="Arial" font-size="13px" font-style="normal" font-weight="bold" text-decoration="none" x="610.102294921875" y="99.5">: Laboratory</text></g></g><g transform="translate(-190,2) scale(1,1)"><path fill="none" stroke="#000000" d="M 645.5 105 L 645.5 248" stroke-miterlimit="10" stroke-dasharray="3"/></g><g transform="translate(-190,2) scale(1,1)"><g><path fill="none" stroke="none"/><text fill="#00b799" stroke="none" font-family="Arial" font-size="13px" font-style="normal" font-weight="normal" text-decoration="none" x="229" y="26">selectTimeSlot Sequence Diagram</text></g></g><g transform="translate(-190,2) scale(1,1)"><rect fill="#C0C0C0" stroke="none" x="719" y="47" width="96.05419921875" height="39" opacity="0.2"/></g><g transform="translate(-190,2) scale(1,1)"><rect fill="#ffffff" stroke="none" x="712" y="40" width="96.05419921875" height="39"/></g><g transform="translate(-190,2) scale(1,1)"><path fill="none" stroke="#000000" d="M 712 40 L 808.05419921875 40 L 808.05419921875 79 L 712 79 L 712 40 Z Z" stroke-miterlimit="10"/></g><g transform="translate(-190,2) scale(1,1)"><g><path fill="none" stroke="none"/><text fill="#000000" stroke="none" font-family="Arial" font-size="13px" font-style="normal" font-weight="bold" text-decoration="none" x="723.896240234375" y="59.5">TestRequest</text></g></g><g transform="translate(-190,2) scale(1,1)"><path fill="none" stroke="#000000" d="M 761.5 80 L 761.5 400" stroke-miterlimit="10" stroke-dasharray="3"/></g><g transform="translate(-190,2) scale(1,1)"><path fill="none" stroke="#000000" d="M 248 120 L 433 120" stroke-miterlimit="10"/></g><g transform="translate(-190,2) scale(1,1)"><path fill="#000000" stroke="none" d="M 422.83732514237585 124.20951775601598 L 433 120 L 422.83732514237585 115.79048224398402"/></g><g transform="translate(-190,2) scale(1,1)"><path fill="none" stroke="#000000" d="M 422.83732514237585 124.20951775601598 L 433 120 L 422.83732514237585 115.79048224398402 L 422.83732514237585 124.20951775601598" stroke-miterlimit="10"/></g><g transform="translate(-190,2) scale(1,1)"><g><path fill="none" stroke="none"/><text fill="#000000" stroke="none" font-family="Arial" font-size="13px" font-style="normal" font-weight="normal" text-decoration="none" x="293.5" y="116.5">selectTimeSlot()</text></g></g><g transform="translate(-190,2) scale(1,1)"><rect fill="#ffffff" stroke="none" x="433" y="120" width="13" height="28"/></g><g transform="translate(-190,2) scale(1,1)"><path fill="none" stroke="#000000" d="M 433 120 L 446 120 L 446 148 L 433 148 L 433 120 Z Z" stroke-miterlimit="10"/></g><g transform="translate(-190,2) scale(1,1)"><path fill="none" stroke="#000000" d="M 440 176 L 638 176" stroke-miterlimit="10"/></g><g transform="translate(-190,2) scale(1,1)"><path fill="#000000" stroke="none" d="M 627.8373251423759 180.209517756016 L 638 176 L 627.8373251423758 171.790482243984"/></g><g transform="translate(-190,2) scale(1,1)"><path fill="none" stroke="#000000" d="M 627.8373251423759 180.209517756016 L 638 176 L 627.8373251423758 171.790482243984 L 627.8373251423759 180.209517756016" stroke-miterlimit="10"/></g><g transform="translate(-190,2) scale(1,1)"><g><path fill="none" stroke="none"/><text fill="#000000" stroke="none" font-family="Arial" font-size="13px" font-style="normal" font-weight="normal" text-decoration="none" x="496.5" y="172.5">getTimeSlots()</text></g></g><g transform="translate(-190,2) scale(1,1)"><rect fill="#ffffff" stroke="none" x="638" y="176" width="13" height="28"/></g><g transform="translate(-190,2) scale(1,1)"><path fill="none" stroke="#000000" d="M 638 176 L 651 176 L 651 204 L 638 204 L 638 176 Z Z" stroke-miterlimit="10"/></g><g transform="translate(-190,2) scale(1,1)"><path fill="none" stroke="#000000" d="M 645 216 L 440 216" stroke-miterlimit="10" stroke-dasharray="3"/></g><g transform="translate(-190,2) scale(1,1)"><path fill="none" stroke="#000000" d="M 450.16267485762415 211.790482243984 L 440 216 L 450.16267485762415 220.209517756016" stroke-miterlimit="10"/></g><g transform="translate(-190,2) scale(1,1)"><g><path fill="none" stroke="none"/><text fill="#000000" stroke="none" font-family="Arial" font-size="13px" font-style="normal" font-weight="normal" text-decoration="none" x="491.5" y="211.5">List of Time Slots</text></g></g><g transform="translate(-190,2) scale(1,1)"><path fill="none" stroke="#000000" d="M 440 242 L 248 242" stroke-miterlimit="10" stroke-dasharray="3"/></g><g transform="translate(-190,2) scale(1,1)"><path fill="none" stroke="#000000" d="M 258.16267485762415 237.790482243984 L 248 242 L 258.16267485762415 246.209517756016" stroke-miterlimit="10"/></g><g transform="translate(-190,2) scale(1,1)"><g><path fill="none" stroke="none"/><text fill="#000000" stroke="none" font-family="Arial" font-size="13px" font-style="normal" font-weight="normal" text-decoration="none" x="293.5" y="235.5">List of Time Slots</text></g></g><g transform="translate(-190,2) scale(1,1)"><path fill="none" stroke="#000000" d="M 248 272 L 433 272" stroke-miterlimit="10"/></g><g transform="translate(-190,2) scale(1,1)"><path fill="#000000" stroke="none" d="M 422.83732514237585 276.209517756016 L 433 272 L 422.83732514237585 267.790482243984"/></g><g transform="translate(-190,2) scale(1,1)"><path fill="none" stroke="#000000" d="M 422.83732514237585 276.209517756016 L 433 272 L 422.83732514237585 267.790482243984 L 422.83732514237585 276.209517756016" stroke-miterlimit="10"/></g><g transform="translate(-190,2) scale(1,1)"><g><path fill="none" stroke="none"/><text fill="#000000" stroke="none" font-family="Arial" font-size="13px" font-style="normal" font-weight="normal" text-decoration="none" x="262.5" y="268.5">submitTimeSlot(date, time)</text></g></g><g transform="translate(-190,2) scale(1,1)"><rect fill="#ffffff" stroke="none" x="433" y="272" width="13" height="28"/></g><g transform="translate(-190,2) scale(1,1)"><path fill="none" stroke="#000000" d="M 433 272 L 446 272 L 446 300 L 433 300 L 433 272 Z Z" stroke-miterlimit="10"/></g><g transform="translate(-190,2) scale(1,1)"><path fill="none" stroke="#000000" d="M 446 296 L 754 296" stroke-miterlimit="10"/></g><g transform="translate(-190,2) scale(1,1)"><path fill="#000000" stroke="none" d="M 743.8373251423759 300.209517756016 L 754 296 L 743.8373251423758 291.790482243984"/></g><g transform="translate(-190,2) scale(1,1)"><path fill="none" stroke="#000000" d="M 743.8373251423759 300.209517756016 L 754 296 L 743.8373251423758 291.790482243984 L 743.8373251423759 300.209517756016" stroke-miterlimit="10"/></g><g transform="translate(-190,2) scale(1,1)"><g><path fill="none" stroke="none"/><text fill="#000000" stroke="none" font-family="Arial" font-size="13px" font-style="normal" font-weight="normal" text-decoration="none" x="547.114990234375" y="292.5">makeAppointment(date, time)</text></g></g><g transform="translate(-190,2) scale(1,1)"><rect fill="#ffffff" stroke="none" x="754" y="296" width="13" height="28"/></g><g transform="translate(-190,2) scale(1,1)"><path fill="none" stroke="#000000" d="M 754 296 L 767 296 L 767 324 L 754 324 L 754 296 Z Z" stroke-miterlimit="10"/></g><g transform="translate(-190,2) scale(1,1)"><path fill="none" stroke="#000000" d="M 767 320 L 864 320" stroke-miterlimit="10" stroke-dasharray="3"/></g><g transform="translate(-190,2) scale(1,1)"><path fill="none" stroke="#000000" d="M 853.8373251423759 324.209517756016 L 864 320 L 853.8373251423758 315.790482243984" stroke-miterlimit="10"/></g><g transform="translate(-190,2) scale(1,1)"><g><path fill="none" stroke="none"/><text fill="#000000" stroke="none" font-family="Arial" font-size="13px" font-style="normal" font-weight="normal" text-decoration="none" x="782.5" y="315.5">«create»</text></g></g></g></svg>