<svg version="1.1" xmlns="http://www.w3.org/2000/svg" xmlns:xlink="http://www.w3.org/1999/xlink" width="989.15185546875" height="558"><defs/><g><text fill="#eeeeee" stroke="none" font-family="Arial" font-size="24px" font-style="normal" font-weight="normal" text-decoration="none" x="0" y="0">UNREGISTERED</text><text fill="#eeeeee" stroke="none" font-family="Arial" font-size="24px" font-style="normal" font-weight="normal" text-decoration="none" x="0" y="30">UNREGISTERED</text><text fill="#eeeeee" stroke="none" font-family="Arial" font-size="24px" font-style="normal" font-weight="normal" text-decoration="none" x="0" y="60">UNREGISTERED</text><text fill="#eeeeee" stroke="none" font-family="Arial" font-size="24px" font-style="normal" font-weight="normal" text-decoration="none" x="0" y="90">UNREGISTERED</text><text fill="#eeeeee" stroke="none" font-family="Arial" font-size="24px" font-style="normal" font-weight="normal" text-decoration="none" x="0" y="120">UNREGISTERED</text><text fill="#eeeeee" stroke="none" font-family="Arial" font-size="24px" font-style="normal" font-weight="normal" text-decoration="none" x="0" y="150">UNREGISTERED</text><text fill="#eeeeee" stroke="none" font-family="Arial" font-size="24px" font-style="normal" font-weight="normal" text-decoration="none" x="0" y="180">UNREGISTERED</text><text fill="#eeeeee" stroke="none" font-family="Arial" font-size="24px" font-style="normal" font-weight="normal" text-decoration="none" x="0" y="210">UNREGISTERED</text><text fill="#eeeeee" stroke="none" font-family="Arial" font-size="24px" font-style="normal" font-weight="normal" text-decoration="none" x="0" y="240">UNREGISTERED</text><text fill="#eeeeee" stroke="none" font-family="Arial" font-size="24px" font-style="normal" font-weight="normal" text-decoration="none" x="0" y="270">UNREGISTERED</text><text fill="#eeeeee" stroke="none" font-family="Arial" font-size="24px" font-style="normal" font-weight="normal" text-decoration="none" x="0" y="300">UNREGISTERED</text><text fill="#eeeeee" stroke="none" font-family="Arial" font-size="24px" font-style="normal" font-weight="normal" text-decoration="none" x="0" y="330">UNREGISTERED</text><text fill="#eeeeee" stroke="none" font-family="Arial" font-size="24px" font-style="normal" font-weight="normal" text-decoration="none" x="0" y="360">UNREGISTERED</text><text fill="#eeeeee" stroke="none" font-family="Arial" font-size="24px" font-style="normal" font-weight="normal" text-decoration="none" x="0" y="390">UNREGISTERED</text><text fill="#eeeeee" stroke="none" font-family="Arial" font-size="24px" font-style="normal" font-weight="normal" text-decoration="none" x="0" y="420">UNREGISTERED</text><text fill="#eeeeee" stroke="none" font-family="Arial" font-size="24px" font-style="normal" font-weight="normal" text-decoration="none" x="0" y="450">UNREGISTERED</text><text fill="#eeeeee" stroke="none" font-family="Arial" font-size="24px" font-style="normal" font-weight="normal" text-decoration="none" x="0" y="480">UNREGISTERED</text><text fill="#eeeeee" stroke="none" font-family="Arial" font-size="24px" font-style="normal" font-weight="normal" text-decoration="none" x="0" y="510">UNREGISTERED</text><text fill="#eeeeee" stroke="none" font-family="Arial" font-size="24px" font-style="normal" font-weight="normal" text-decoration="none" x="0" y="540">UNREGISTERED</text><text fill="#eeeeee" stroke="none" font-family="Arial" font-size="24px" font-style="normal" font-weight="normal" text-decoration="none" x="200" y="0">UNREGISTERED</text><text fill="#eeeeee" stroke="none" font-family="Arial" font-size="24px" font-style="normal" font-weight="normal" text-decoration="none" x="200" y="30">UNREGISTERED</text><text fill="#eeeeee" stroke="none" font-family="Arial" font-size="24px" font-style="normal" font-weight="normal" text-decoration="none" x="200" y="60">UNREGISTERED</text><text fill="#eeeeee" stroke="none" font-family="Arial" font-size="24px" font-style="normal" font-weight="normal" text-decoration="none" x="200" y="90">UNREGISTERED</text><text fill="#eeeeee" stroke="none" font-family="Arial" font-size="24px" font-style="normal" font-weight="normal" text-decoration="none" x="200" y="120">UNREGISTERED</text><text fill="#eeeeee" stroke="none" font-family="Arial" font-size="24px" font-style="normal" font-weight="normal" text-decoration="none" x="200" y="150">UNREGISTERED</text><text fill="#eeeeee" stroke="none" font-family="Arial" font-size="24px" font-style="normal" font-weight="normal" text-decoration="none" x="200" y="180">UNREGISTERED</text><text fill="#eeeeee" stroke="none" font-family="Arial" font-size="24px" font-style="normal" font-weight="normal" text-decoration="none" x="200" y="210">UNREGISTERED</text><text fill="#eeeeee" stroke="none" font-family="Arial" font-size="24px" font-style="normal" font-weight="normal" text-decoration="none" x="200" y="240">UNREGISTERED</text><text fill="#eeeeee" stroke="none" font-family="Arial" font-size="24px" font-style="normal" font-weight="normal" text-decoration="none" x="200" y="270">UNREGISTERED</text><text fill="#eeeeee" stroke="none" font-family="Arial" font-size="24px" font-style="normal" font-weight="normal" text-decoration="none" x="200" y="300">UNREGISTERED</text><text fill="#eeeeee" stroke="none" font-family="Arial" font-size="24px" font-style="normal" font-weight="normal" text-decoration="none" x="200" y="330">UNREGISTERED</text><text fill="#eeeeee" stroke="none" font-family="Arial" font-size="24px" font-style="normal" font-weight="normal" text-decoration="none" x="200" y="360">UNREGISTERED</text><text fill="#eeeeee" stroke="none" font-family="Arial" font-size="24px" font-style="normal" font-weight="normal" text-decoration="none" x="200" y="390">UNREGISTERED</text><text fill="#eeeeee" stroke="none" font-family="Arial" font-size="24px" font-style="normal" font-weight="normal" text-decoration="none" x="200" y="420">UNREGISTERED</text><text fill="#eeeeee" stroke="none" font-family="Arial" font-size="24px" font-style="normal" font-weight="normal" text-decoration="none" x="200" y="450">UNREGISTERED</text><text fill="#eeeeee" stroke="none" font-family="Arial" font-size="24px" font-style="normal" font-weight="normal" text-decoration="none" x="200" y="480">UNREGISTERED</text><text fill="#eeeeee" stroke="none" font-family="Arial" font-size="24px" font-style="normal" font-weight="normal" text-decoration="none" x="200" y="510">UNREGISTERED</text><text fill="#eeeeee" stroke="none" font-family="Arial" font-size="24px" font-style="normal" font-weight="normal" text-decoration="none" x="200" y="540">UNREGISTERED</text><text fill="#eeeeee" stroke="none" font-family="Arial" font-size="24px" font-style="normal" font-weight="normal" text-decoration="none" x="400" y="0">UNREGISTERED</text><text fill="#eeeeee" stroke="none" font-family="Arial" font-size="24px" font-style="normal" font-weight="normal" text-decoration="none" x="400" y="30">UNREGISTERED</text><text fill="#eeeeee" stroke="none" font-family="Arial" font-size="24px" font-style="normal" font-weight="normal" text-decoration="none" x="400" y="60">UNREGISTERED</text><text fill="#eeeeee" stroke="none" font-family="Arial" font-size="24px" font-style="normal" font-weight="normal" text-decoration="none" x="400" y="90">UNREGISTERED</text><text fill="#eeeeee" stroke="none" font-family="Arial" font-size="24px" font-style="normal" font-weight="normal" text-decoration="none" x="400" y="120">UNREGISTERED</text><text fill="#eeeeee" stroke="none" font-family="Arial" font-size="24px" font-style="normal" font-weight="normal" text-decoration="none" x="400" y="150">UNREGISTERED</text><text fill="#eeeeee" stroke="none" font-family="Arial" font-size="24px" font-style="normal" font-weight="normal" text-decoration="none" x="400" y="180">UNREGISTERED</text><text fill="#eeeeee" stroke="none" font-family="Arial" font-size="24px" font-style="normal" font-weight="normal" text-decoration="none" x="400" y="210">UNREGISTERED</text><text fill="#eeeeee" stroke="none" font-family="Arial" font-size="24px" font-style="normal" font-weight="normal" text-decoration="none" x="400" y="240">UNREGISTERED</text><text fill="#eeeeee" stroke="none" font-family="Arial" font-size="24px" font-style="normal" font-weight="normal" text-decoration="none" x="400" y="270">UNREGISTERED</text><text fill="#eeeeee" stroke="none" font-family="Arial" font-size="24px" font-style="normal" font-weight="normal" text-decoration="none" x="400" y="300">UNREGISTERED</text><text fill="#eeeeee" stroke="none" font-family="Arial" font-size="24px" font-style="normal" font-weight="normal" text-decoration="none" x="400" y="330">UNREGISTERED</text><text fill="#eeeeee" stroke="none" font-family="Arial" font-size="24px" font-style="normal" font-weight="normal" text-decoration="none" x="400" y="360">UNREGISTERED</text><text fill="#eeeeee" stroke="none" font-family="Arial" font-size="24px" font-style="normal" font-weight="normal" text-decoration="none" x="400" y="390">UNREGISTERED</text><text fill="#eeeeee" stroke="none" font-family="Arial" font-size="24px" font-style="normal" font-weight="normal" text-decoration="none" x="400" y="420">UNREGISTERED</text><text fill="#eeeeee" stroke="none" font-family="Arial" font-size="24px" font-style="normal" font-weight="normal" text-decoration="none" x="400" y="450">UNREGISTERED</text><text fill="#eeeeee" stroke="none" font-family="Arial" font-size="24px" font-style="normal" font-weight="normal" text-decoration="none" x="400" y="480">UNREGISTERED</text><text fill="#eeeeee" stroke="none" font-family="Arial" font-size="24px" font-style="normal" font-weight="normal" text-decoration="none" x="400" y="510">UNREGISTERED</text><text fill="#eeeeee" stroke="none" font-family="Arial" font-size="24px" font-style="normal" font-weight="normal" text-decoration="none" x="400" y="540">UNREGISTERED</text><text fill="#eeeeee" stroke="none" font-family="Arial" font-size="24px" font-style="normal" font-weight="normal" text-decoration="none" x="600" y="0">UNREGISTERED</text><text fill="#eeeeee" stroke="none" font-family="Arial" font-size="24px" font-style="normal" font-weight="normal" text-decoration="none" x="600" y="30">UNREGISTERED</text><text fill="#eeeeee" stroke="none" font-family="Arial" font-size="24px" font-style="normal" font-weight="normal" text-decoration="none" x="600" y="60">UNREGISTERED</text><text fill="#eeeeee" stroke="none" font-family="Arial" font-size="24px" font-style="normal" font-weight="normal" text-decoration="none" x="600" y="90">UNREGISTERED</text><text fill="#eeeeee" stroke="none" font-family="Arial" font-size="24px" font-style="normal" font-weight="normal" text-decoration="none" x="600" y="120">UNREGISTERED</text><text fill="#eeeeee" stroke="none" font-family="Arial" font-size="24px" font-style="normal" font-weight="normal" text-decoration="none" x="600" y="150">UNREGISTERED</text><text fill="#eeeeee" stroke="none" font-family="Arial" font-size="24px" font-style="normal" font-weight="normal" text-decoration="none" x="600" y="180">UNREGISTERED</text><text fill="#eeeeee" stroke="none" font-family="Arial" font-size="24px" font-style="normal" font-weight="normal" text-decoration="none" x="600" y="210">UNREGISTERED</text><text fill="#eeeeee" stroke="none" font-family="Arial" font-size="24px" font-style="normal" font-weight="normal" text-decoration="none" x="600" y="240">UNREGISTERED</text><text fill="#eeeeee" stroke="none" font-family="Arial" font-size="24px" font-style="normal" font-weight="normal" text-decoration="none" x="600" y="270">UNREGISTERED</text><text fill="#eeeeee" stroke="none" font-family="Arial" font-size="24px" font-style="normal" font-weight="normal" text-decoration="none" x="600" y="300">UNREGISTERED</text><text fill="#eeeeee" stroke="none" font-family="Arial" font-size="24px" font-style="normal" font-weight="normal" text-decoration="none" x="600" y="330">UNREGISTERED</text><text fill="#eeeeee" stroke="none" font-family="Arial" font-size="24px" font-style="normal" font-weight="normal" text-decoration="none" x="600" y="360">UNREGISTERED</text><text fill="#eeeeee" stroke="none" font-family="Arial" font-size="24px" font-style="normal" font-weight="normal" text-decoration="none" x="600" y="390">UNREGISTERED</text><text fill="#eeeeee" stroke="none" font-family="Arial" font-size="24px" font-style="normal" font-weight="normal" text-decoration="none" x="600" y="420">UNREGISTERED</text><text fill="#eeeeee" stroke="none" font-family="Arial" font-size="24px" font-style="normal" font-weight="normal" text-decoration="none" x="600" y="450">UNREGISTERED</text><text fill="#eeeeee" stroke="none" font-family="Arial" font-size="24px" font-style="normal" font-weight="normal" text-decoration="none" x="600" y="480">UNREGISTERED</text><text fill="#eeeeee" stroke="none" font-family="Arial" font-size="24px" font-style="normal" font-weight="normal" text-decoration="none" x="600" y="510">UNREGISTERED</text><text fill="#eeeeee" stroke="none" font-family="Arial" font-size="24px" font-style="normal" font-weight="normal" text-decoration="none" x="600" y="540">UNREGISTERED</text><text fill="#eeeeee" stroke="none" font-family="Arial" font-size="24px" font-style="normal" font-weight="normal" text-decoration="none" x="800" y="0">UNREGISTERED</text><text fill="#eeeeee" stroke="none" font-family="Arial" font-size="24px" font-style="normal" font-weight="normal" text-decoration="none" x="800" y="30">UNREGISTERED</text><text fill="#eeeeee" stroke="none" font-family="Arial" font-size="24px" font-style="normal" font-weight="normal" text-decoration="none" x="800" y="60">UNREGISTERED</text><text fill="#eeeeee" stroke="none" font-family="Arial" font-size="24px" font-style="normal" font-weight="normal" text-decoration="none" x="800" y="90">UNREGISTERED</text><text fill="#eeeeee" stroke="none" font-family="Arial" font-size="24px" font-style="normal" font-weight="normal" text-decoration="none" x="800" y="120">UNREGISTERED</text><text fill="#eeeeee" stroke="none" font-family="Arial" font-size="24px" font-style="normal" font-weight="normal" text-decoration="none" x="800" y="150">UNREGISTERED</text><text fill="#eeeeee" stroke="none" font-family="Arial" font-size="24px" font-style="normal" font-weight="normal" text-decoration="none" x="800" y="180">UNREGISTERED</text><text fill="#eeeeee" stroke="none" font-family="Arial" font-size="24px" font-style="normal" font-weight="normal" text-decoration="none" x="800" y="210">UNREGISTERED</text><text fill="#eeeeee" stroke="none" font-family="Arial" font-size="24px" font-style="normal" font-weight="normal" text-decoration="none" x="800" y="240">UNREGISTERED</text><text fill="#eeeeee" stroke="none" font-family="Arial" font-size="24px" font-style="normal" font-weight="normal" text-decoration="none" x="800" y="270">UNREGISTERED</text><text fill="#eeeeee" stroke="none" font-family="Arial" font-size="24px" font-style="normal" font-weight="normal" text-decoration="none" x="800" y="300">UNREGISTERED</text><text fill="#eeeeee" stroke="none" font-family="Arial" font-size="24px" font-style="normal" font-weight="normal" text-decoration="none" x="800" y="330">UNREGISTERED</text><text fill="#eeeeee" stroke="none" font-family="Arial" font-size="24px" font-style="normal" font-weight="normal" text-decoration="none" x="800" y="360">UNREGISTERED</text><text fill="#eeeeee" stroke="none" font-family="Arial" font-size="24px" font-style="normal" font-weight="normal" text-decoration="none" x="800" y="390">UNREGISTERED</text><text fill="#eeeeee" stroke="none" font-family="Arial" font-size="24px" font-style="normal" font-weight="normal" text-decoration="none" x="800" y="420">UNREGISTERED</text><text fill="#eeeeee" stroke="none" font-family="Arial" font-size="24px" font-style="normal" font-weight="normal" text-decoration="none" x="800" y="450">UNREGISTERED</text><text fill="#eeeeee" stroke="none" font-family="Arial" font-size="24px" font-style="normal" font-weight="normal" text-decoration="none" x="800" y="480">UNREGISTERED</text><text fill="#eeeeee" stroke="none" font-family="Arial" font-size="24px" font-style="normal" font-weight="normal" text-decoration="none" x="800" y="510">UNREGISTERED</text><text fill="#eeeeee" stroke="none" font-family="Arial" font-size="24px" font-style="normal" font-weight="normal" text-decoration="none" x="800" y="540">UNREGISTERED</text><g transform="translate(-64,2) scale(1,1)"><path fill="#ffffff" stroke="none" d="M 115.3143172940341 47.3 C 115.3143172940341 43.82060576 118.1927190162159 41 121.743408203125 41 C 125.2940973900341 41 128.17249911221592 43.82060576 128.17249911221592 47.3 C 128.17249911221592 50.779394239999995 125.2940973900341 53.6 121.743408203125 53.6 C 118.1927190162159 53.6 115.3143172940341 50.779394239999995 115.3143172940341 47.3 Z"/></g><g transform="translate(-64,2) scale(1,1)"><path fill="none" stroke="#000000" d="M 115.3143172940341 47.3 C 115.3143172940341 43.82060576 118.1927190162159 41 121.743408203125 41 C 125.2940973900341 41 128.17249911221592 43.82060576 128.17249911221592 47.3 C 128.17249911221592 50.779394239999995 125.2940973900341 53.6 121.743408203125 53.6 C 118.1927190162159 53.6 115.3143172940341 50.779394239999995 115.3143172940341 47.3 Z" stroke-miterlimit="10"/></g><g transform="translate(-64,2) scale(1,1)"><path fill="none" stroke="#000000" d="M 121.743408203125 53.6 L 121.743408203125 66.4" stroke-miterlimit="10"/></g><g transform="translate(-64,2) scale(1,1)"><path fill="none" stroke="#000000" d="M 114.93613547585228 58.4 L 128.55068093039773 58.4" stroke-miterlimit="10"/></g><g transform="translate(-64,2) scale(1,1)"><path fill="none" stroke="#000000" d="M 121.743408203125 66.4 L 112.28886274857955 79" stroke-miterlimit="10"/></g><g transform="translate(-64,2) scale(1,1)"><path fill="none" stroke="#000000" d="M 121.743408203125 66.4 L 131.19795365767047 79" stroke-miterlimit="10"/></g><g transform="translate(-64,2) scale(1,1)"><g><path fill="none" stroke="none"/><text fill="#000000" stroke="none" font-family="Arial" font-size="13px" font-style="normal" font-weight="bold" text-decoration="none" x="97.895263671875" y="99.5">: Patient</text></g></g><g transform="translate(-64,2) scale(1,1)"><path fill="none" stroke="#000000" d="M 122.5 105 L 122.5 432" stroke-miterlimit="10" stroke-dasharray="3"/></g><g transform="translate(-64,2) scale(1,1)"><rect fill="#C0C0C0" stroke="none" x="191" y="47" width="153.83056640625" height="39" opacity="0.2"/></g><g transform="translate(-64,2) scale(1,1)"><rect fill="#ffffff" stroke="none" x="184" y="40" width="153.83056640625" height="39"/></g><g transform="translate(-64,2) scale(1,1)"><path fill="none" stroke="#000000" d="M 184 40 L 337.83056640625 40 L 337.83056640625 79 L 184 79 L 184 40 Z Z" stroke-miterlimit="10"/></g><g transform="translate(-64,2) scale(1,1)"><g><path fill="none" stroke="none"/><text fill="#000000" stroke="none" font-family="Arial" font-size="13px" font-style="normal" font-weight="bold" text-decoration="none" x="198.654296875" y="59.5">SelectTimeSlotButton</text></g></g><g transform="translate(-64,2) scale(1,1)"><path fill="none" stroke="#000000" d="M 261.5 80 L 261.5 208" stroke-miterlimit="10" stroke-dasharray="3"/></g><g transform="translate(-64,2) scale(1,1)"><rect fill="#C0C0C0" stroke="none" x="367" y="115" width="158.17236328125" height="39" opacity="0.2"/></g><g transform="translate(-64,2) scale(1,1)"><rect fill="#ffffff" stroke="none" x="360" y="108" width="158.17236328125" height="39"/></g><g transform="translate(-64,2) scale(1,1)"><path fill="none" stroke="#000000" d="M 360 108 L 518.17236328125 108 L 518.17236328125 147 L 360 147 L 360 108 Z Z" stroke-miterlimit="10"/></g><g transform="translate(-64,2) scale(1,1)"><g><path fill="none" stroke="none"/><text fill="#000000" stroke="none" font-family="Arial" font-size="13px" font-style="normal" font-weight="bold" text-decoration="none" x="382.001708984375" y="127.5">RequestTestControl</text></g></g><g transform="translate(-64,2) scale(1,1)"><path fill="none" stroke="#000000" d="M 440.5 148 L 440.5 546" stroke-miterlimit="10" stroke-dasharray="3"/></g><g transform="translate(-64,2) scale(1,1)"><rect fill="#C0C0C0" stroke="none" x="759" y="251" width="129.271484375" height="39" opacity="0.2"/></g><g transform="translate(-64,2) scale(1,1)"><rect fill="#ffffff" stroke="none" x="752" y="244" width="129.271484375" height="39"/></g><g transform="translate(-64,2) scale(1,1)"><path fill="none" stroke="#000000" d="M 752 244 L 881.271484375 244 L 881.271484375 283 L 752 283 L 752 244 Z Z" stroke-miterlimit="10"/></g><g transform="translate(-64,2) scale(1,1)"><g><path fill="none" stroke="none"/><text fill="#000000" stroke="none" font-family="Arial" font-size="13px" font-style="normal" font-weight="bold" text-decoration="none" x="765.952880859375" y="263.5">TimeSlotListForm</text></g></g><g transform="translate(-64,2) scale(1,1)"><path fill="none" stroke="#000000" d="M 817.5 284 L 817.5 546" stroke-miterlimit="10" stroke-dasharray="3"/></g><g transform="translate(-64,2) scale(1,1)"><rect fill="#C0C0C0" stroke="none" x="951" y="459" width="99.15185546875" height="39" opacity="0.2"/></g><g transform="translate(-64,2) scale(1,1)"><rect fill="#ffffff" stroke="none" x="944" y="452" width="99.15185546875" height="39"/></g><g transform="translate(-64,2) scale(1,1)"><path fill="none" stroke="#000000" d="M 944 452 L 1043.15185546875 452 L 1043.15185546875 491 L 944 491 L 944 452 Z Z" stroke-miterlimit="10"/></g><g transform="translate(-64,2) scale(1,1)"><g><path fill="none" stroke="none"/><text fill="#000000" stroke="none" font-family="Arial" font-size="13px" font-style="normal" font-weight="bold" text-decoration="none" x="957.080078125" y="471.5">Appointment</text></g></g><g transform="translate(-64,2) scale(1,1)"><path fill="none" stroke="#000000" d="M 994.5 492 L 994.5 541" stroke-miterlimit="10" stroke-dasharray="3"/></g><g transform="translate(-64,2) scale(1,1)"><path fill="#ffffff" stroke="none" d="M 638.359971590909 47.3 C 638.359971590909 43.82060576 641.238373313091 41 644.7890625 41 C 648.339751686909 41 651.2181534090909 43.82060576 651.2181534090909 47.3 C 651.2181534090909 50.779394239999995 648.339751686909 53.6 644.7890625 53.6 C 641.238373313091 53.6 638.359971590909 50.779394239999995 638.359971590909 47.3 Z"/></g><g transform="translate(-64,2) scale(1,1)"><path fill="none" stroke="#000000" d="M 638.359971590909 47.3 C 638.359971590909 43.82060576 641.238373313091 41 644.7890625 41 C 648.339751686909 41 651.2181534090909 43.82060576 651.2181534090909 47.3 C 651.2181534090909 50.779394239999995 648.339751686909 53.6 644.7890625 53.6 C 641.238373313091 53.6 638.359971590909 50.779394239999995 638.359971590909 47.3 Z" stroke-miterlimit="10"/></g><g transform="translate(-64,2) scale(1,1)"><path fill="none" stroke="#000000" d="M 644.7890625 53.6 L 644.7890625 66.4" stroke-miterlimit="10"/></g><g transform="translate(-64,2) scale(1,1)"><path fill="none" stroke="#000000" d="M 637.9817897727272 58.4 L 651.5963352272727 58.4" stroke-miterlimit="10"/></g><g transform="translate(-64,2) scale(1,1)"><path fill="none" stroke="#000000" d="M 644.7890625 66.4 L 635.3345170454545 79" stroke-miterlimit="10"/></g><g transform="translate(-64,2) scale(1,1)"><path fill="none" stroke="#000000" d="M 644.7890625 66.4 L 654.2436079545454 79" stroke-miterlimit="10"/></g><g transform="translate(-64,2) scale(1,1)"><g><path fill="none" stroke="none"/><text fill="#000000" stroke="none" font-family="Arial" font-size="13px" font-style="normal" font-weight="bold" text-decoration="none" x="610.102294921875" y="99.5">: Laboratory</text></g></g><g transform="translate(-64,2) scale(1,1)"><path fill="none" stroke="#000000" d="M 645.5 105 L 645.5 248" stroke-miterlimit="10" stroke-dasharray="3"/></g><g transform="translate(-64,2) scale(1,1)"><g><path fill="none" stroke="none"/><text fill="#00b799" stroke="none" font-family="Arial" font-size="13px" font-style="normal" font-weight="normal" text-decoration="none" x="117" y="26">selectTimeSlot Sequence Diagram</text></g></g><g transform="translate(-64,2) scale(1,1)"><path fill="none" stroke="#000000" d="M 122 112 L 254 112" stroke-miterlimit="10"/></g><g transform="translate(-64,2) scale(1,1)"><path fill="#000000" stroke="none" d="M 243.83732514237585 116.20951775601598 L 254 112 L 243.83732514237585 107.79048224398402"/></g><g transform="translate(-64,2) scale(1,1)"><path fill="none" stroke="#000000" d="M 243.83732514237585 116.20951775601598 L 254 112 L 243.83732514237585 107.79048224398402 L 243.83732514237585 116.20951775601598" stroke-miterlimit="10"/></g><g transform="translate(-64,2) scale(1,1)"><g><path fill="none" stroke="none"/><text fill="#000000" stroke="none" font-family="Arial" font-size="13px" font-style="normal" font-weight="normal" text-decoration="none" x="168.265869140625" y="108.5">press()</text></g></g><g transform="translate(-64,2) scale(1,1)"><rect fill="#ffffff" stroke="none" x="254" y="112" width="13" height="28"/></g><g transform="translate(-64,2) scale(1,1)"><path fill="none" stroke="#000000" d="M 254 112 L 267 112 L 267 140 L 254 140 L 254 112 Z Z" stroke-miterlimit="10"/></g><g transform="translate(-64,2) scale(1,1)"><path fill="none" stroke="#000000" d="M 267 128 L 360 128" stroke-miterlimit="10" stroke-dasharray="3"/></g><g transform="translate(-64,2) scale(1,1)"><path fill="none" stroke="#000000" d="M 349.83732514237585 132.209517756016 L 360 128 L 349.83732514237585 123.79048224398402" stroke-miterlimit="10"/></g><g transform="translate(-64,2) scale(1,1)"><g><path fill="none" stroke="none"/><text fill="#000000" stroke="none" font-family="Arial" font-size="13px" font-style="normal" font-weight="normal" text-decoration="none" x="286.5" y="122.5">«create»</text></g></g><g transform="translate(-64,2) scale(1,1)"><path fill="none" stroke="#000000" d="M 440 176 L 638 176" stroke-miterlimit="10"/></g><g transform="translate(-64,2) scale(1,1)"><path fill="#000000" stroke="none" d="M 627.8373251423759 180.209517756016 L 638 176 L 627.8373251423758 171.790482243984"/></g><g transform="translate(-64,2) scale(1,1)"><path fill="none" stroke="#000000" d="M 627.8373251423759 180.209517756016 L 638 176 L 627.8373251423758 171.790482243984 L 627.8373251423759 180.209517756016" stroke-miterlimit="10"/></g><g transform="translate(-64,2) scale(1,1)"><g><path fill="none" stroke="none"/><text fill="#000000" stroke="none" font-family="Arial" font-size="13px" font-style="normal" font-weight="normal" text-decoration="none" x="496.5" y="172.5">getTimeSlots()</text></g></g><g transform="translate(-64,2) scale(1,1)"><rect fill="#ffffff" stroke="none" x="638" y="176" width="13" height="28"/></g><g transform="translate(-64,2) scale(1,1)"><path fill="none" stroke="#000000" d="M 638 176 L 651 176 L 651 204 L 638 204 L 638 176 Z Z" stroke-miterlimit="10"/></g><g transform="translate(-64,2) scale(1,1)"><path fill="none" stroke="#000000" d="M 645 216 L 440 216" stroke-miterlimit="10" stroke-dasharray="3"/></g><g transform="translate(-64,2) scale(1,1)"><path fill="none" stroke="#000000" d="M 450.16267485762415 211.790482243984 L 440 216 L 450.16267485762415 220.209517756016" stroke-miterlimit="10"/></g><g transform="translate(-64,2) scale(1,1)"><g><path fill="none" stroke="none"/><text fill="#000000" stroke="none" font-family="Arial" font-size="13px" font-style="normal" font-weight="normal" text-decoration="none" x="491.5" y="211.5">List of Time Slots</text></g></g><g transform="translate(-64,2) scale(1,1)"><path fill="none" stroke="#000000" d="M 440 264 L 752 264" stroke-miterlimit="10" stroke-dasharray="3"/></g><g transform="translate(-64,2) scale(1,1)"><path fill="none" stroke="#000000" d="M 741.8373251423759 268.209517756016 L 752 264 L 741.8373251423758 259.790482243984" stroke-miterlimit="10"/></g><g transform="translate(-64,2) scale(1,1)"><g><path fill="none" stroke="none"/><text fill="#000000" stroke="none" font-family="Arial" font-size="13px" font-style="normal" font-weight="normal" text-decoration="none" x="502.5" y="259.5">«create»</text></g></g><g transform="translate(-64,2) scale(1,1)"><path fill="none" stroke="#000000" d="M 122 320 L 810 320" stroke-miterlimit="10"/></g><g transform="translate(-64,2) scale(1,1)"><path fill="#000000" stroke="none" d="M 799.8373251423759 324.209517756016 L 810 320 L 799.8373251423758 315.790482243984"/></g><g transform="translate(-64,2) scale(1,1)"><path fill="none" stroke="#000000" d="M 799.8373251423759 324.209517756016 L 810 320 L 799.8373251423758 315.790482243984 L 799.8373251423759 324.209517756016" stroke-miterlimit="10"/></g><g transform="translate(-64,2) scale(1,1)"><g><path fill="none" stroke="none"/><text fill="#000000" stroke="none" font-family="Arial" font-size="13px" font-style="normal" font-weight="normal" text-decoration="none" x="479.5" y="316.5">selectTimeSlot()</text></g></g><g transform="translate(-64,2) scale(1,1)"><rect fill="#ffffff" stroke="none" x="810" y="320" width="13" height="28"/></g><g transform="translate(-64,2) scale(1,1)"><path fill="none" stroke="#000000" d="M 810 320 L 823 320 L 823 348 L 810 348 L 810 320 Z Z" stroke-miterlimit="10"/></g><g transform="translate(-64,2) scale(1,1)"><path fill="none" stroke="#000000" d="M 122 368 L 810 368" stroke-miterlimit="10"/></g><g transform="translate(-64,2) scale(1,1)"><path fill="#000000" stroke="none" d="M 799.8373251423759 372.209517756016 L 810 368 L 799.8373251423758 363.790482243984"/></g><g transform="translate(-64,2) scale(1,1)"><path fill="none" stroke="#000000" d="M 799.8373251423759 372.209517756016 L 810 368 L 799.8373251423758 363.790482243984 L 799.8373251423759 372.209517756016" stroke-miterlimit="10"/></g><g transform="translate(-64,2) scale(1,1)"><g><path fill="none" stroke="none"/><text fill="#000000" stroke="none" font-family="Arial" font-size="13px" font-style="normal" font-weight="normal" text-decoration="none" x="502.015869140625" y="364.5">submit()</text></g></g><g transform="translate(-64,2) scale(1,1)"><rect fill="#ffffff" stroke="none" x="810" y="368" width="13" height="28"/></g><g transform="translate(-64,2) scale(1,1)"><path fill="none" stroke="#000000" d="M 810 368 L 823 368 L 823 396 L 810 396 L 810 368 Z Z" stroke-miterlimit="10"/></g><g transform="translate(-64,2) scale(1,1)"><path fill="none" stroke="#000000" d="M 817 427 L 446 427" stroke-miterlimit="10"/></g><g transform="translate(-64,2) scale(1,1)"><path fill="#000000" stroke="none" d="M 456.16267485762415 422.790482243984 L 446 427 L 456.16267485762415 431.209517756016"/></g><g transform="translate(-64,2) scale(1,1)"><path fill="none" stroke="#000000" d="M 456.16267485762415 422.790482243984 L 446 427 L 456.16267485762415 431.209517756016 L 456.16267485762415 422.790482243984" stroke-miterlimit="10"/></g><g transform="translate(-64,2) scale(1,1)"><g><path fill="none" stroke="none"/><text fill="#000000" stroke="none" font-family="Arial" font-size="13px" font-style="normal" font-weight="normal" text-decoration="none" x="575.5" y="419.5">submitTimeSlot()</text></g></g><g transform="translate(-64,2) scale(1,1)"><rect fill="#ffffff" stroke="none" x="433" y="427" width="13" height="28"/></g><g transform="translate(-64,2) scale(1,1)"><path fill="none" stroke="#000000" d="M 433 427 L 446 427 L 446 455 L 433 455 L 433 427 Z Z" stroke-miterlimit="10"/></g><g transform="translate(-64,2) scale(1,1)"><path fill="none" stroke="#000000" d="M 440 472 L 944 472" stroke-miterlimit="10" stroke-dasharray="3"/></g><g transform="translate(-64,2) scale(1,1)"><path fill="none" stroke="#000000" d="M 933.8373251423759 476.209517756016 L 944 472 L 933.8373251423758 467.790482243984" stroke-miterlimit="10"/></g><g transform="translate(-64,2) scale(1,1)"><g><path fill="none" stroke="none"/><text fill="#000000" stroke="none" font-family="Arial" font-size="13px" font-style="normal" font-weight="normal" text-decoration="none" x="846.5" y="468.5">«create»</text></g></g><g transform="translate(-64,2) scale(1,1)"><path fill="none" stroke="#000000" d="M 440 504 L 810 504" stroke-miterlimit="10"/></g><g transform="translate(-64,2) scale(1,1)"><path fill="#000000" stroke="none" d="M 799.8373251423759 508.209517756016 L 810 504 L 799.8373251423758 499.790482243984"/></g><g transform="translate(-64,2) scale(1,1)"><path fill="none" stroke="#000000" d="M 799.8373251423759 508.209517756016 L 810 504 L 799.8373251423758 499.790482243984 L 799.8373251423759 508.209517756016" stroke-miterlimit="10"/></g><g transform="translate(-64,2) scale(1,1)"><path fill="none" stroke="#000000" d="M 807 536 L 827 556" stroke-miterlimit="10"/></g><g transform="translate(-64,2) scale(1,1)"><path fill="none" stroke="#000000" d="M 827 536 L 807 556" stroke-miterlimit="10"/></g><g transform="translate(-64,2) scale(1,1)"><g><path fill="none" stroke="none"/><text fill="#000000" stroke="none" font-family="Arial" font-size="13px" font-style="normal" font-weight="normal" text-decoration="none" x="596.5" y="500.5">«destroy»</text></g></g><g transform="translate(-64,2) scale(1,1)"><rect fill="#ffffff" stroke="none" x="810" y="504" width="13" height="28"/></g><g transform="translate(-64,2) scale(1,1)"><path fill="none" stroke="#000000" d="M 810 504 L 823 504 L 823 532 L 810 532 L 810 504 Z Z" stroke-miterlimit="10"/></g></g></svg>