<svg version="1.1" xmlns="http://www.w3.org/2000/svg" xmlns:xlink="http://www.w3.org/1999/xlink" width="516" height="510"><defs/><g><text fill="#eeeeee" stroke="none" font-family="Arial" font-size="24px" font-style="normal" font-weight="normal" text-decoration="none" x="0" y="0">UNREGISTERED</text><text fill="#eeeeee" stroke="none" font-family="Arial" font-size="24px" font-style="normal" font-weight="normal" text-decoration="none" x="0" y="30">UNREGISTERED</text><text fill="#eeeeee" stroke="none" font-family="Arial" font-size="24px" font-style="normal" font-weight="normal" text-decoration="none" x="0" y="60">UNREGISTERED</text><text fill="#eeeeee" stroke="none" font-family="Arial" font-size="24px" font-style="normal" font-weight="normal" text-decoration="none" x="0" y="90">UNREGISTERED</text><text fill="#eeeeee" stroke="none" font-family="Arial" font-size="24px" font-style="normal" font-weight="normal" text-decoration="none" x="0" y="120">UNREGISTERED</text><text fill="#eeeeee" stroke="none" font-family="Arial" font-size="24px" font-style="normal" font-weight="normal" text-decoration="none" x="0" y="150">UNREGISTERED</text><text fill="#eeeeee" stroke="none" font-family="Arial" font-size="24px" font-style="normal" font-weight="normal" text-decoration="none" x="0" y="180">UNREGISTERED</text><text fill="#eeeeee" stroke="none" font-family="Arial" font-size="24px" font-style="normal" font-weight="normal" text-decoration="none" x="0" y="210">UNREGISTERED</text><text fill="#eeeeee" stroke="none" font-family="Arial" font-size="24px" font-style="normal" font-weight="normal" text-decoration="none" x="0" y="240">UNREGISTERED</text><text fill="#eeeeee" stroke="none" font-family="Arial" font-size="24px" font-style="normal" font-weight="normal" text-decoration="none" x="0" y="270">UNREGISTERED</text><text fill="#eeeeee" stroke="none" font-family="Arial" font-size="24px" font-style="normal" font-weight="normal" text-decoration="none" x="0" y="300">UNREGISTERED</text><text fill="#eeeeee" stroke="none" font-family="Arial" font-size="24px" font-style="normal" font-weight="normal" text-decoration="none" x="0" y="330">UNREGISTERED</text><text fill="#eeeeee" stroke="none" font-family="Arial" font-size="24px" font-style="normal" font-weight="normal" text-decoration="none" x="0" y="360">UNREGISTERED</text><text fill="#eeeeee" stroke="none" font-family="Arial" font-size="24px" font-style="normal" font-weight="normal" text-decoration="none" x="0" y="390">UNREGISTERED</text><text fill="#eeeeee" stroke="none" font-family="Arial" font-size="24px" font-style="normal" font-weight="normal" text-decoration="none" x="0" y="420">UNREGISTERED</text><text fill="#eeeeee" stroke="none" font-family="Arial" font-size="24px" font-style="normal" font-weight="normal" text-decoration="none" x="0" y="450">UNREGISTERED</text><text fill="#eeeeee" stroke="none" font-family="Arial" font-size="24px" font-style="normal" font-weight="normal" text-decoration="none" x="0" y="480">UNREGISTERED</text><text fill="#eeeeee" stroke="none" font-family="Arial" font-size="24px" font-style="normal" font-weight="normal" text-decoration="none" x="200" y="0">UNREGISTERED</text><text fill="#eeeeee" stroke="none" font-family="Arial" font-size="24px" font-style="normal" font-weight="normal" text-decoration="none" x="200" y="30">UNREGISTERED</text><text fill="#eeeeee" stroke="none" font-family="Arial" font-size="24px" font-style="normal" font-weight="normal" text-decoration="none" x="200" y="60">UNREGISTERED</text><text fill="#eeeeee" stroke="none" font-family="Arial" font-size="24px" font-style="normal" font-weight="normal" text-decoration="none" x="200" y="90">UNREGISTERED</text><text fill="#eeeeee" stroke="none" font-family="Arial" font-size="24px" font-style="normal" font-weight="normal" text-decoration="none" x="200" y="120">UNREGISTERED</text><text fill="#eeeeee" stroke="none" font-family="Arial" font-size="24px" font-style="normal" font-weight="normal" text-decoration="none" x="200" y="150">UNREGISTERED</text><text fill="#eeeeee" stroke="none" font-family="Arial" font-size="24px" font-style="normal" font-weight="normal" text-decoration="none" x="200" y="180">UNREGISTERED</text><text fill="#eeeeee" stroke="none" font-family="Arial" font-size="24px" font-style="normal" font-weight="normal" text-decoration="none" x="200" y="210">UNREGISTERED</text><text fill="#eeeeee" stroke="none" font-family="Arial" font-size="24px" font-style="normal" font-weight="normal" text-decoration="none" x="200" y="240">UNREGISTERED</text><text fill="#eeeeee" stroke="none" font-family="Arial" font-size="24px" font-style="normal" font-weight="normal" text-decoration="none" x="200" y="270">UNREGISTERED</text><text fill="#eeeeee" stroke="none" font-family="Arial" font-size="24px" font-style="normal" font-weight="normal" text-decoration="none" x="200" y="300">UNREGISTERED</text><text fill="#eeeeee" stroke="none" font-family="Arial" font-size="24px" font-style="normal" font-weight="normal" text-decoration="none" x="200" y="330">UNREGISTERED</text><text fill="#eeeeee" stroke="none" font-family="Arial" font-size="24px" font-style="normal" font-weight="normal" text-decoration="none" x="200" y="360">UNREGISTERED</text><text fill="#eeeeee" stroke="none" font-family="Arial" font-size="24px" font-style="normal" font-weight="normal" text-decoration="none" x="200" y="390">UNREGISTERED</text><text fill="#eeeeee" stroke="none" font-family="Arial" font-size="24px" font-style="normal" font-weight="normal" text-decoration="none" x="200" y="420">UNREGISTERED</text><text fill="#eeeeee" stroke="none" font-family="Arial" font-size="24px" font-style="normal" font-weight="normal" text-decoration="none" x="200" y="450">UNREGISTERED</text><text fill="#eeeeee" stroke="none" font-family="Arial" font-size="24px" font-style="normal" font-weight="normal" text-decoration="none" x="200" y="480">UNREGISTERED</text><text fill="#eeeeee" stroke="none" font-family="Arial" font-size="24px" font-style="normal" font-weight="normal" text-decoration="none" x="400" y="0">UNREGISTERED</text><text fill="#eeeeee" stroke="none" font-family="Arial" font-size="24px" font-style="normal" font-weight="normal" text-decoration="none" x="400" y="30">UNREGISTERED</text><text fill="#eeeeee" stroke="none" font-family="Arial" font-size="24px" font-style="normal" font-weight="normal" text-decoration="none" x="400" y="60">UNREGISTERED</text><text fill="#eeeeee" stroke="none" font-family="Arial" font-size="24px" font-style="normal" font-weight="normal" text-decoration="none" x="400" y="90">UNREGISTERED</text><text fill="#eeeeee" stroke="none" font-family="Arial" font-size="24px" font-style="normal" font-weight="normal" text-decoration="none" x="400" y="120">UNREGISTERED</text><text fill="#eeeeee" stroke="none" font-family="Arial" font-size="24px" font-style="normal" font-weight="normal" text-decoration="none" x="400" y="150">UNREGISTERED</text><text fill="#eeeeee" stroke="none" font-family="Arial" font-size="24px" font-style="normal" font-weight="normal" text-decoration="none" x="400" y="180">UNREGISTERED</text><text fill="#eeeeee" stroke="none" font-family="Arial" font-size="24px" font-style="normal" font-weight="normal" text-decoration="none" x="400" y="210">UNREGISTERED</text><text fill="#eeeeee" stroke="none" font-family="Arial" font-size="24px" font-style="normal" font-weight="normal" text-decoration="none" x="400" y="240">UNREGISTERED</text><text fill="#eeeeee" stroke="none" font-family="Arial" font-size="24px" font-style="normal" font-weight="normal" text-decoration="none" x="400" y="270">UNREGISTERED</text><text fill="#eeeeee" stroke="none" font-family="Arial" font-size="24px" font-style="normal" font-weight="normal" text-decoration="none" x="400" y="300">UNREGISTERED</text><text fill="#eeeeee" stroke="none" font-family="Arial" font-size="24px" font-style="normal" font-weight="normal" text-decoration="none" x="400" y="330">UNREGISTERED</text><text fill="#eeeeee" stroke="none" font-family="Arial" font-size="24px" font-style="normal" font-weight="normal" text-decoration="none" x="400" y="360">UNREGISTERED</text><text fill="#eeeeee" stroke="none" font-family="Arial" font-size="24px" font-style="normal" font-weight="normal" text-decoration="none" x="400" y="390">UNREGISTERED</text><text fill="#eeeeee" stroke="none" font-family="Arial" font-size="24px" font-style="normal" font-weight="normal" text-decoration="none" x="400" y="420">UNREGISTERED</text><text fill="#eeeeee" stroke="none" font-family="Arial" font-size="24px" font-style="normal" font-weight="normal" text-decoration="none" x="400" y="450">UNREGISTERED</text><text fill="#eeeeee" stroke="none" font-family="Arial" font-size="24px" font-style="normal" font-weight="normal" text-decoration="none" x="400" y="480">UNREGISTERED</text><g transform="translate(-30,2) scale(1,1)"><path fill="#ffffff" stroke="none" d="M 81.3143172940341 47.3 C 81.3143172940341 43.82060576 84.19271901621592 41 87.743408203125 41 C 91.29409739003408 41 94.1724991122159 43.82060576 94.1724991122159 47.3 C 94.1724991122159 50.779394239999995 91.29409739003408 53.6 87.743408203125 53.6 C 84.19271901621592 53.6 81.3143172940341 50.779394239999995 81.3143172940341 47.3 Z"/></g><g transform="translate(-30,2) scale(1,1)"><path fill="none" stroke="#000000" d="M 81.3143172940341 47.3 C 81.3143172940341 43.82060576 84.19271901621592 41 87.743408203125 41 C 91.29409739003408 41 94.1724991122159 43.82060576 94.1724991122159 47.3 C 94.1724991122159 50.779394239999995 91.29409739003408 53.6 87.743408203125 53.6 C 84.19271901621592 53.6 81.3143172940341 50.779394239999995 81.3143172940341 47.3 Z" stroke-miterlimit="10"/></g><g transform="translate(-30,2) scale(1,1)"><path fill="none" stroke="#000000" d="M 87.743408203125 53.6 L 87.743408203125 66.4" stroke-miterlimit="10"/></g><g transform="translate(-30,2) scale(1,1)"><path fill="none" stroke="#000000" d="M 80.93613547585227 58.4 L 94.55068093039773 58.4" stroke-miterlimit="10"/></g><g transform="translate(-30,2) scale(1,1)"><path fill="none" stroke="#000000" d="M 87.743408203125 66.4 L 78.28886274857955 79" stroke-miterlimit="10"/></g><g transform="translate(-30,2) scale(1,1)"><path fill="none" stroke="#000000" d="M 87.743408203125 66.4 L 97.19795365767045 79" stroke-miterlimit="10"/></g><g transform="translate(-30,2) scale(1,1)"><g><path fill="none" stroke="none"/><text fill="#000000" stroke="none" font-family="Arial" font-size="13px" font-style="normal" font-weight="bold" text-decoration="none" x="63.895263671875" y="99.5">: Patient</text></g></g><g transform="translate(-30,2) scale(1,1)"><path fill="none" stroke="#000000" d="M 88.5 105 L 88.5 298" stroke-miterlimit="10" stroke-dasharray="3"/></g><g transform="translate(-30,2) scale(1,1)"><rect fill="#C0C0C0" stroke="none" x="191" y="47" width="145.87060546875" height="39" opacity="0.2"/></g><g transform="translate(-30,2) scale(1,1)"><rect fill="#ffffff" stroke="none" x="184" y="40" width="145.87060546875" height="39"/></g><g transform="translate(-30,2) scale(1,1)"><path fill="none" stroke="#000000" d="M 184 40 L 329.87060546875 40 L 329.87060546875 79 L 184 79 L 184 40 Z Z" stroke-miterlimit="10"/></g><g transform="translate(-30,2) scale(1,1)"><g><path fill="none" stroke="none"/><text fill="#000000" stroke="none" font-family="Arial" font-size="13px" font-style="normal" font-weight="bold" text-decoration="none" x="199.850830078125" y="59.5">RequestTestControl</text></g></g><g transform="translate(-30,2) scale(1,1)"><path fill="none" stroke="#000000" d="M 257.5 80 L 257.5 498" stroke-miterlimit="10" stroke-dasharray="3"/></g><g transform="translate(-30,2) scale(1,1)"><rect fill="#C0C0C0" stroke="none" x="447" y="203" width="71.736328125" height="39" opacity="0.2"/></g><g transform="translate(-30,2) scale(1,1)"><rect fill="#ffffff" stroke="none" x="440" y="196" width="71.736328125" height="39"/></g><g transform="translate(-30,2) scale(1,1)"><path fill="none" stroke="#000000" d="M 440 196 L 511.736328125 196 L 511.736328125 235 L 440 235 L 440 196 Z Z" stroke-miterlimit="10"/></g><g transform="translate(-30,2) scale(1,1)"><g><path fill="none" stroke="none"/><text fill="#000000" stroke="none" font-family="Arial" font-size="13px" font-style="normal" font-weight="bold" text-decoration="none" x="463.947265625" y="215.5">Test</text></g></g><g transform="translate(-30,2) scale(1,1)"><path fill="none" stroke="#000000" d="M 476.5 236 L 476.5 285" stroke-miterlimit="10" stroke-dasharray="3"/></g><g transform="translate(-30,2) scale(1,1)"><g><path fill="none" stroke="none"/><text fill="#4c0099" stroke="none" font-family="Arial" font-size="13px" font-style="normal" font-weight="normal" text-decoration="none" x="85" y="26">sendTestList Sequence Diagram</text></g></g><g transform="translate(-30,2) scale(1,1)"><path fill="none" stroke="#000000" d="M 88 132 L 250 132" stroke-miterlimit="10"/></g><g transform="translate(-30,2) scale(1,1)"><path fill="#000000" stroke="none" d="M 239.83732514237585 136.209517756016 L 250 132 L 239.83732514237585 127.79048224398402"/></g><g transform="translate(-30,2) scale(1,1)"><path fill="none" stroke="#000000" d="M 239.83732514237585 136.209517756016 L 250 132 L 239.83732514237585 127.79048224398402 L 239.83732514237585 136.209517756016" stroke-miterlimit="10"/></g><g transform="translate(-30,2) scale(1,1)"><g><path fill="none" stroke="none"/><text fill="#000000" stroke="none" font-family="Arial" font-size="13px" font-style="normal" font-weight="normal" text-decoration="none" x="96.5" y="128.5">sendTestList(TestNames)</text></g></g><g transform="translate(-30,2) scale(1,1)"><rect fill="#ffffff" stroke="none" x="250" y="132" width="13" height="28"/></g><g transform="translate(-30,2) scale(1,1)"><path fill="none" stroke="#000000" d="M 250 132 L 263 132 L 263 160 L 250 160 L 250 132 Z Z" stroke-miterlimit="10"/></g><g transform="translate(-30,2) scale(1,1)"><path fill="none" stroke="#000000" d="M 257 216 L 440 216" stroke-miterlimit="10" stroke-dasharray="3"/></g><g transform="translate(-30,2) scale(1,1)"><path fill="none" stroke="#000000" d="M 429.83732514237585 220.209517756016 L 440 216 L 429.83732514237585 211.790482243984" stroke-miterlimit="10"/></g><g transform="translate(-30,2) scale(1,1)"><g><path fill="none" stroke="none"/><text fill="#000000" stroke="none" font-family="Arial" font-size="13px" font-style="normal" font-weight="normal" text-decoration="none" x="346.5" y="212.5">«create»</text></g></g><g transform="translate(-30,2) scale(1,1)"><path fill="none" stroke="#000000" d="M 224 176 L 536 176 L 536 241 L 224 241 L 224 176" stroke-miterlimit="10"/></g><g transform="translate(-30,2) scale(1,1)"><path fill="#ffffff" stroke="none" d="M 224 176 L 224 198 L 264.578125 198 L 275.578125 187 L 275.578125 176 L 224 176"/></g><g transform="translate(-30,2) scale(1,1)"><path fill="none" stroke="#000000" d="M 224 176 L 224 198 L 264.578125 198 L 275.578125 187 L 275.578125 176 L 224 176 L 224 176" stroke-miterlimit="10"/></g><g transform="translate(-30,2) scale(1,1)"><g><path fill="none" stroke="none"/><text fill="#000000" stroke="none" font-family="Arial" font-size="13px" font-style="normal" font-weight="bold" text-decoration="none" x="229" y="193.5">loop</text></g></g></g></svg>