<svg version="1.1" xmlns="http://www.w3.org/2000/svg" xmlns:xlink="http://www.w3.org/1999/xlink" width="875.736328125" height="618"><defs/><g><text fill="#eeeeee" stroke="none" font-family="Arial" font-size="24px" font-style="normal" font-weight="normal" text-decoration="none" x="0" y="0">UNREGISTERED</text><text fill="#eeeeee" stroke="none" font-family="Arial" font-size="24px" font-style="normal" font-weight="normal" text-decoration="none" x="0" y="30">UNREGISTERED</text><text fill="#eeeeee" stroke="none" font-family="Arial" font-size="24px" font-style="normal" font-weight="normal" text-decoration="none" x="0" y="60">UNREGISTERED</text><text fill="#eeeeee" stroke="none" font-family="Arial" font-size="24px" font-style="normal" font-weight="normal" text-decoration="none" x="0" y="90">UNREGISTERED</text><text fill="#eeeeee" stroke="none" font-family="Arial" font-size="24px" font-style="normal" font-weight="normal" text-decoration="none" x="0" y="120">UNREGISTERED</text><text fill="#eeeeee" stroke="none" font-family="Arial" font-size="24px" font-style="normal" font-weight="normal" text-decoration="none" x="0" y="150">UNREGISTERED</text><text fill="#eeeeee" stroke="none" font-family="Arial" font-size="24px" font-style="normal" font-weight="normal" text-decoration="none" x="0" y="180">UNREGISTERED</text><text fill="#eeeeee" stroke="none" font-family="Arial" font-size="24px" font-style="normal" font-weight="normal" text-decoration="none" x="0" y="210">UNREGISTERED</text><text fill="#eeeeee" stroke="none" font-family="Arial" font-size="24px" font-style="normal" font-weight="normal" text-decoration="none" x="0" y="240">UNREGISTERED</text><text fill="#eeeeee" stroke="none" font-family="Arial" font-size="24px" font-style="normal" font-weight="normal" text-decoration="none" x="0" y="270">UNREGISTERED</text><text fill="#eeeeee" stroke="none" font-family="Arial" font-size="24px" font-style="normal" font-weight="normal" text-decoration="none" x="0" y="300">UNREGISTERED</text><text fill="#eeeeee" stroke="none" font-family="Arial" font-size="24px" font-style="normal" font-weight="normal" text-decoration="none" x="0" y="330">UNREGISTERED</text><text fill="#eeeeee" stroke="none" font-family="Arial" font-size="24px" font-style="normal" font-weight="normal" text-decoration="none" x="0" y="360">UNREGISTERED</text><text fill="#eeeeee" stroke="none" font-family="Arial" font-size="24px" font-style="normal" font-weight="normal" text-decoration="none" x="0" y="390">UNREGISTERED</text><text fill="#eeeeee" stroke="none" font-family="Arial" font-size="24px" font-style="normal" font-weight="normal" text-decoration="none" x="0" y="420">UNREGISTERED</text><text fill="#eeeeee" stroke="none" font-family="Arial" font-size="24px" font-style="normal" font-weight="normal" text-decoration="none" x="0" y="450">UNREGISTERED</text><text fill="#eeeeee" stroke="none" font-family="Arial" font-size="24px" font-style="normal" font-weight="normal" text-decoration="none" x="0" y="480">UNREGISTERED</text><text fill="#eeeeee" stroke="none" font-family="Arial" font-size="24px" font-style="normal" font-weight="normal" text-decoration="none" x="0" y="510">UNREGISTERED</text><text fill="#eeeeee" stroke="none" font-family="Arial" font-size="24px" font-style="normal" font-weight="normal" text-decoration="none" x="0" y="540">UNREGISTERED</text><text fill="#eeeeee" stroke="none" font-family="Arial" font-size="24px" font-style="normal" font-weight="normal" text-decoration="none" x="0" y="570">UNREGISTERED</text><text fill="#eeeeee" stroke="none" font-family="Arial" font-size="24px" font-style="normal" font-weight="normal" text-decoration="none" x="0" y="600">UNREGISTERED</text><text fill="#eeeeee" stroke="none" font-family="Arial" font-size="24px" font-style="normal" font-weight="normal" text-decoration="none" x="200" y="0">UNREGISTERED</text><text fill="#eeeeee" stroke="none" font-family="Arial" font-size="24px" font-style="normal" font-weight="normal" text-decoration="none" x="200" y="30">UNREGISTERED</text><text fill="#eeeeee" stroke="none" font-family="Arial" font-size="24px" font-style="normal" font-weight="normal" text-decoration="none" x="200" y="60">UNREGISTERED</text><text fill="#eeeeee" stroke="none" font-family="Arial" font-size="24px" font-style="normal" font-weight="normal" text-decoration="none" x="200" y="90">UNREGISTERED</text><text fill="#eeeeee" stroke="none" font-family="Arial" font-size="24px" font-style="normal" font-weight="normal" text-decoration="none" x="200" y="120">UNREGISTERED</text><text fill="#eeeeee" stroke="none" font-family="Arial" font-size="24px" font-style="normal" font-weight="normal" text-decoration="none" x="200" y="150">UNREGISTERED</text><text fill="#eeeeee" stroke="none" font-family="Arial" font-size="24px" font-style="normal" font-weight="normal" text-decoration="none" x="200" y="180">UNREGISTERED</text><text fill="#eeeeee" stroke="none" font-family="Arial" font-size="24px" font-style="normal" font-weight="normal" text-decoration="none" x="200" y="210">UNREGISTERED</text><text fill="#eeeeee" stroke="none" font-family="Arial" font-size="24px" font-style="normal" font-weight="normal" text-decoration="none" x="200" y="240">UNREGISTERED</text><text fill="#eeeeee" stroke="none" font-family="Arial" font-size="24px" font-style="normal" font-weight="normal" text-decoration="none" x="200" y="270">UNREGISTERED</text><text fill="#eeeeee" stroke="none" font-family="Arial" font-size="24px" font-style="normal" font-weight="normal" text-decoration="none" x="200" y="300">UNREGISTERED</text><text fill="#eeeeee" stroke="none" font-family="Arial" font-size="24px" font-style="normal" font-weight="normal" text-decoration="none" x="200" y="330">UNREGISTERED</text><text fill="#eeeeee" stroke="none" font-family="Arial" font-size="24px" font-style="normal" font-weight="normal" text-decoration="none" x="200" y="360">UNREGISTERED</text><text fill="#eeeeee" stroke="none" font-family="Arial" font-size="24px" font-style="normal" font-weight="normal" text-decoration="none" x="200" y="390">UNREGISTERED</text><text fill="#eeeeee" stroke="none" font-family="Arial" font-size="24px" font-style="normal" font-weight="normal" text-decoration="none" x="200" y="420">UNREGISTERED</text><text fill="#eeeeee" stroke="none" font-family="Arial" font-size="24px" font-style="normal" font-weight="normal" text-decoration="none" x="200" y="450">UNREGISTERED</text><text fill="#eeeeee" stroke="none" font-family="Arial" font-size="24px" font-style="normal" font-weight="normal" text-decoration="none" x="200" y="480">UNREGISTERED</text><text fill="#eeeeee" stroke="none" font-family="Arial" font-size="24px" font-style="normal" font-weight="normal" text-decoration="none" x="200" y="510">UNREGISTERED</text><text fill="#eeeeee" stroke="none" font-family="Arial" font-size="24px" font-style="normal" font-weight="normal" text-decoration="none" x="200" y="540">UNREGISTERED</text><text fill="#eeeeee" stroke="none" font-family="Arial" font-size="24px" font-style="normal" font-weight="normal" text-decoration="none" x="200" y="570">UNREGISTERED</text><text fill="#eeeeee" stroke="none" font-family="Arial" font-size="24px" font-style="normal" font-weight="normal" text-decoration="none" x="200" y="600">UNREGISTERED</text><text fill="#eeeeee" stroke="none" font-family="Arial" font-size="24px" font-style="normal" font-weight="normal" text-decoration="none" x="400" y="0">UNREGISTERED</text><text fill="#eeeeee" stroke="none" font-family="Arial" font-size="24px" font-style="normal" font-weight="normal" text-decoration="none" x="400" y="30">UNREGISTERED</text><text fill="#eeeeee" stroke="none" font-family="Arial" font-size="24px" font-style="normal" font-weight="normal" text-decoration="none" x="400" y="60">UNREGISTERED</text><text fill="#eeeeee" stroke="none" font-family="Arial" font-size="24px" font-style="normal" font-weight="normal" text-decoration="none" x="400" y="90">UNREGISTERED</text><text fill="#eeeeee" stroke="none" font-family="Arial" font-size="24px" font-style="normal" font-weight="normal" text-decoration="none" x="400" y="120">UNREGISTERED</text><text fill="#eeeeee" stroke="none" font-family="Arial" font-size="24px" font-style="normal" font-weight="normal" text-decoration="none" x="400" y="150">UNREGISTERED</text><text fill="#eeeeee" stroke="none" font-family="Arial" font-size="24px" font-style="normal" font-weight="normal" text-decoration="none" x="400" y="180">UNREGISTERED</text><text fill="#eeeeee" stroke="none" font-family="Arial" font-size="24px" font-style="normal" font-weight="normal" text-decoration="none" x="400" y="210">UNREGISTERED</text><text fill="#eeeeee" stroke="none" font-family="Arial" font-size="24px" font-style="normal" font-weight="normal" text-decoration="none" x="400" y="240">UNREGISTERED</text><text fill="#eeeeee" stroke="none" font-family="Arial" font-size="24px" font-style="normal" font-weight="normal" text-decoration="none" x="400" y="270">UNREGISTERED</text><text fill="#eeeeee" stroke="none" font-family="Arial" font-size="24px" font-style="normal" font-weight="normal" text-decoration="none" x="400" y="300">UNREGISTERED</text><text fill="#eeeeee" stroke="none" font-family="Arial" font-size="24px" font-style="normal" font-weight="normal" text-decoration="none" x="400" y="330">UNREGISTERED</text><text fill="#eeeeee" stroke="none" font-family="Arial" font-size="24px" font-style="normal" font-weight="normal" text-decoration="none" x="400" y="360">UNREGISTERED</text><text fill="#eeeeee" stroke="none" font-family="Arial" font-size="24px" font-style="normal" font-weight="normal" text-decoration="none" x="400" y="390">UNREGISTERED</text><text fill="#eeeeee" stroke="none" font-family="Arial" font-size="24px" font-style="normal" font-weight="normal" text-decoration="none" x="400" y="420">UNREGISTERED</text><text fill="#eeeeee" stroke="none" font-family="Arial" font-size="24px" font-style="normal" font-weight="normal" text-decoration="none" x="400" y="450">UNREGISTERED</text><text fill="#eeeeee" stroke="none" font-family="Arial" font-size="24px" font-style="normal" font-weight="normal" text-decoration="none" x="400" y="480">UNREGISTERED</text><text fill="#eeeeee" stroke="none" font-family="Arial" font-size="24px" font-style="normal" font-weight="normal" text-decoration="none" x="400" y="510">UNREGISTERED</text><text fill="#eeeeee" stroke="none" font-family="Arial" font-size="24px" font-style="normal" font-weight="normal" text-decoration="none" x="400" y="540">UNREGISTERED</text><text fill="#eeeeee" stroke="none" font-family="Arial" font-size="24px" font-style="normal" font-weight="normal" text-decoration="none" x="400" y="570">UNREGISTERED</text><text fill="#eeeeee" stroke="none" font-family="Arial" font-size="24px" font-style="normal" font-weight="normal" text-decoration="none" x="400" y="600">UNREGISTERED</text><text fill="#eeeeee" stroke="none" font-family="Arial" font-size="24px" font-style="normal" font-weight="normal" text-decoration="none" x="600" y="0">UNREGISTERED</text><text fill="#eeeeee" stroke="none" font-family="Arial" font-size="24px" font-style="normal" font-weight="normal" text-decoration="none" x="600" y="30">UNREGISTERED</text><text fill="#eeeeee" stroke="none" font-family="Arial" font-size="24px" font-style="normal" font-weight="normal" text-decoration="none" x="600" y="60">UNREGISTERED</text><text fill="#eeeeee" stroke="none" font-family="Arial" font-size="24px" font-style="normal" font-weight="normal" text-decoration="none" x="600" y="90">UNREGISTERED</text><text fill="#eeeeee" stroke="none" font-family="Arial" font-size="24px" font-style="normal" font-weight="normal" text-decoration="none" x="600" y="120">UNREGISTERED</text><text fill="#eeeeee" stroke="none" font-family="Arial" font-size="24px" font-style="normal" font-weight="normal" text-decoration="none" x="600" y="150">UNREGISTERED</text><text fill="#eeeeee" stroke="none" font-family="Arial" font-size="24px" font-style="normal" font-weight="normal" text-decoration="none" x="600" y="180">UNREGISTERED</text><text fill="#eeeeee" stroke="none" font-family="Arial" font-size="24px" font-style="normal" font-weight="normal" text-decoration="none" x="600" y="210">UNREGISTERED</text><text fill="#eeeeee" stroke="none" font-family="Arial" font-size="24px" font-style="normal" font-weight="normal" text-decoration="none" x="600" y="240">UNREGISTERED</text><text fill="#eeeeee" stroke="none" font-family="Arial" font-size="24px" font-style="normal" font-weight="normal" text-decoration="none" x="600" y="270">UNREGISTERED</text><text fill="#eeeeee" stroke="none" font-family="Arial" font-size="24px" font-style="normal" font-weight="normal" text-decoration="none" x="600" y="300">UNREGISTERED</text><text fill="#eeeeee" stroke="none" font-family="Arial" font-size="24px" font-style="normal" font-weight="normal" text-decoration="none" x="600" y="330">UNREGISTERED</text><text fill="#eeeeee" stroke="none" font-family="Arial" font-size="24px" font-style="normal" font-weight="normal" text-decoration="none" x="600" y="360">UNREGISTERED</text><text fill="#eeeeee" stroke="none" font-family="Arial" font-size="24px" font-style="normal" font-weight="normal" text-decoration="none" x="600" y="390">UNREGISTERED</text><text fill="#eeeeee" stroke="none" font-family="Arial" font-size="24px" font-style="normal" font-weight="normal" text-decoration="none" x="600" y="420">UNREGISTERED</text><text fill="#eeeeee" stroke="none" font-family="Arial" font-size="24px" font-style="normal" font-weight="normal" text-decoration="none" x="600" y="450">UNREGISTERED</text><text fill="#eeeeee" stroke="none" font-family="Arial" font-size="24px" font-style="normal" font-weight="normal" text-decoration="none" x="600" y="480">UNREGISTERED</text><text fill="#eeeeee" stroke="none" font-family="Arial" font-size="24px" font-style="normal" font-weight="normal" text-decoration="none" x="600" y="510">UNREGISTERED</text><text fill="#eeeeee" stroke="none" font-family="Arial" font-size="24px" font-style="normal" font-weight="normal" text-decoration="none" x="600" y="540">UNREGISTERED</text><text fill="#eeeeee" stroke="none" font-family="Arial" font-size="24px" font-style="normal" font-weight="normal" text-decoration="none" x="600" y="570">UNREGISTERED</text><text fill="#eeeeee" stroke="none" font-family="Arial" font-size="24px" font-style="normal" font-weight="normal" text-decoration="none" x="600" y="600">UNREGISTERED</text><text fill="#eeeeee" stroke="none" font-family="Arial" font-size="24px" font-style="normal" font-weight="normal" text-decoration="none" x="800" y="0">UNREGISTERED</text><text fill="#eeeeee" stroke="none" font-family="Arial" font-size="24px" font-style="normal" font-weight="normal" text-decoration="none" x="800" y="30">UNREGISTERED</text><text fill="#eeeeee" stroke="none" font-family="Arial" font-size="24px" font-style="normal" font-weight="normal" text-decoration="none" x="800" y="60">UNREGISTERED</text><text fill="#eeeeee" stroke="none" font-family="Arial" font-size="24px" font-style="normal" font-weight="normal" text-decoration="none" x="800" y="90">UNREGISTERED</text><text fill="#eeeeee" stroke="none" font-family="Arial" font-size="24px" font-style="normal" font-weight="normal" text-decoration="none" x="800" y="120">UNREGISTERED</text><text fill="#eeeeee" stroke="none" font-family="Arial" font-size="24px" font-style="normal" font-weight="normal" text-decoration="none" x="800" y="150">UNREGISTERED</text><text fill="#eeeeee" stroke="none" font-family="Arial" font-size="24px" font-style="normal" font-weight="normal" text-decoration="none" x="800" y="180">UNREGISTERED</text><text fill="#eeeeee" stroke="none" font-family="Arial" font-size="24px" font-style="normal" font-weight="normal" text-decoration="none" x="800" y="210">UNREGISTERED</text><text fill="#eeeeee" stroke="none" font-family="Arial" font-size="24px" font-style="normal" font-weight="normal" text-decoration="none" x="800" y="240">UNREGISTERED</text><text fill="#eeeeee" stroke="none" font-family="Arial" font-size="24px" font-style="normal" font-weight="normal" text-decoration="none" x="800" y="270">UNREGISTERED</text><text fill="#eeeeee" stroke="none" font-family="Arial" font-size="24px" font-style="normal" font-weight="normal" text-decoration="none" x="800" y="300">UNREGISTERED</text><text fill="#eeeeee" stroke="none" font-family="Arial" font-size="24px" font-style="normal" font-weight="normal" text-decoration="none" x="800" y="330">UNREGISTERED</text><text fill="#eeeeee" stroke="none" font-family="Arial" font-size="24px" font-style="normal" font-weight="normal" text-decoration="none" x="800" y="360">UNREGISTERED</text><text fill="#eeeeee" stroke="none" font-family="Arial" font-size="24px" font-style="normal" font-weight="normal" text-decoration="none" x="800" y="390">UNREGISTERED</text><text fill="#eeeeee" stroke="none" font-family="Arial" font-size="24px" font-style="normal" font-weight="normal" text-decoration="none" x="800" y="420">UNREGISTERED</text><text fill="#eeeeee" stroke="none" font-family="Arial" font-size="24px" font-style="normal" font-weight="normal" text-decoration="none" x="800" y="450">UNREGISTERED</text><text fill="#eeeeee" stroke="none" font-family="Arial" font-size="24px" font-style="normal" font-weight="normal" text-decoration="none" x="800" y="480">UNREGISTERED</text><text fill="#eeeeee" stroke="none" font-family="Arial" font-size="24px" font-style="normal" font-weight="normal" text-decoration="none" x="800" y="510">UNREGISTERED</text><text fill="#eeeeee" stroke="none" font-family="Arial" font-size="24px" font-style="normal" font-weight="normal" text-decoration="none" x="800" y="540">UNREGISTERED</text><text fill="#eeeeee" stroke="none" font-family="Arial" font-size="24px" font-style="normal" font-weight="normal" text-decoration="none" x="800" y="570">UNREGISTERED</text><text fill="#eeeeee" stroke="none" font-family="Arial" font-size="24px" font-style="normal" font-weight="normal" text-decoration="none" x="800" y="600">UNREGISTERED</text><g transform="translate(-30,-6) scale(1,1)"><path fill="#ffffff" stroke="none" d="M 81.3143172940341 47.3 C 81.3143172940341 43.82060576 84.19271901621592 41 87.743408203125 41 C 91.29409739003408 41 94.1724991122159 43.82060576 94.1724991122159 47.3 C 94.1724991122159 50.779394239999995 91.29409739003408 53.6 87.743408203125 53.6 C 84.19271901621592 53.6 81.3143172940341 50.779394239999995 81.3143172940341 47.3 Z"/></g><g transform="translate(-30,-6) scale(1,1)"><path fill="none" stroke="#000000" d="M 81.3143172940341 47.3 C 81.3143172940341 43.82060576 84.19271901621592 41 87.743408203125 41 C 91.29409739003408 41 94.1724991122159 43.82060576 94.1724991122159 47.3 C 94.1724991122159 50.779394239999995 91.29409739003408 53.6 87.743408203125 53.6 C 84.19271901621592 53.6 81.3143172940341 50.779394239999995 81.3143172940341 47.3 Z" stroke-miterlimit="10"/></g><g transform="translate(-30,-6) scale(1,1)"><path fill="none" stroke="#000000" d="M 87.743408203125 53.6 L 87.743408203125 66.4" stroke-miterlimit="10"/></g><g transform="translate(-30,-6) scale(1,1)"><path fill="none" stroke="#000000" d="M 80.93613547585227 58.4 L 94.55068093039773 58.4" stroke-miterlimit="10"/></g><g transform="translate(-30,-6) scale(1,1)"><path fill="none" stroke="#000000" d="M 87.743408203125 66.4 L 78.28886274857955 79" stroke-miterlimit="10"/></g><g transform="translate(-30,-6) scale(1,1)"><path fill="none" stroke="#000000" d="M 87.743408203125 66.4 L 97.19795365767045 79" stroke-miterlimit="10"/></g><g transform="translate(-30,-6) scale(1,1)"><g><path fill="none" stroke="none"/><text fill="#000000" stroke="none" font-family="Arial" font-size="13px" font-style="normal" font-weight="bold" text-decoration="none" x="63.895263671875" y="99.5">: Patient</text></g></g><g transform="translate(-30,-6) scale(1,1)"><path fill="none" stroke="#000000" d="M 88.5 105 L 88.5 592" stroke-miterlimit="10" stroke-dasharray="3"/></g><g transform="translate(-30,-6) scale(1,1)"><rect fill="#C0C0C0" stroke="none" x="175" y="47" width="149.0126953125" height="39" opacity="0.2"/></g><g transform="translate(-30,-6) scale(1,1)"><rect fill="#ffffff" stroke="none" x="168" y="40" width="149.0126953125" height="39"/></g><g transform="translate(-30,-6) scale(1,1)"><path fill="none" stroke="#000000" d="M 168 40 L 317.0126953125 40 L 317.0126953125 79 L 168 79 L 168 40 Z Z" stroke-miterlimit="10"/></g><g transform="translate(-30,-6) scale(1,1)"><g><path fill="none" stroke="none"/><text fill="#000000" stroke="none" font-family="Arial" font-size="13px" font-style="normal" font-weight="bold" text-decoration="none" x="185.421875" y="59.5">RequestTestControl</text></g></g><g transform="translate(-30,-6) scale(1,1)"><path fill="none" stroke="#000000" d="M 243.5 80 L 243.5 614" stroke-miterlimit="10" stroke-dasharray="3"/></g><g transform="translate(-30,-6) scale(1,1)"><rect fill="#C0C0C0" stroke="none" x="351" y="179" width="103.51904296875" height="39" opacity="0.2"/></g><g transform="translate(-30,-6) scale(1,1)"><rect fill="#ffffff" stroke="none" x="344" y="172" width="103.51904296875" height="39"/></g><g transform="translate(-30,-6) scale(1,1)"><path fill="none" stroke="#000000" d="M 344 172 L 447.51904296875 172 L 447.51904296875 211 L 344 211 L 344 172 Z Z" stroke-miterlimit="10"/></g><g transform="translate(-30,-6) scale(1,1)"><g><path fill="none" stroke="none"/><text fill="#000000" stroke="none" font-family="Arial" font-size="13px" font-style="normal" font-weight="bold" text-decoration="none" x="356.75" y="191.5">AddressForm</text></g></g><g transform="translate(-30,-6) scale(1,1)"><path fill="none" stroke="#000000" d="M 396.5 212 L 396.5 598" stroke-miterlimit="10" stroke-dasharray="3"/></g><g transform="translate(-30,-6) scale(1,1)"><rect fill="#C0C0C0" stroke="none" x="495" y="47" width="151.20263671875" height="39" opacity="0.2"/></g><g transform="translate(-30,-6) scale(1,1)"><rect fill="#ffffff" stroke="none" x="488" y="40" width="151.20263671875" height="39"/></g><g transform="translate(-30,-6) scale(1,1)"><path fill="none" stroke="#000000" d="M 488 40 L 639.20263671875 40 L 639.20263671875 79 L 488 79 L 488 40 Z Z" stroke-miterlimit="10"/></g><g transform="translate(-30,-6) scale(1,1)"><g><path fill="none" stroke="none"/><text fill="#000000" stroke="none" font-family="Arial" font-size="13px" font-style="normal" font-weight="bold" text-decoration="none" x="501.08642578125" y="59.5">ManageSendAddress</text></g></g><g transform="translate(-30,-6) scale(1,1)"><path fill="none" stroke="#000000" d="M 564.5 80 L 564.5 536" stroke-miterlimit="10" stroke-dasharray="3"/></g><g transform="translate(-30,-6) scale(1,1)"><rect fill="#C0C0C0" stroke="none" x="831" y="467" width="71.736328125" height="39" opacity="0.2"/></g><g transform="translate(-30,-6) scale(1,1)"><rect fill="#ffffff" stroke="none" x="824" y="460" width="71.736328125" height="39"/></g><g transform="translate(-30,-6) scale(1,1)"><path fill="none" stroke="#000000" d="M 824 460 L 895.736328125 460 L 895.736328125 499 L 824 499 L 824 460 Z Z" stroke-miterlimit="10"/></g><g transform="translate(-30,-6) scale(1,1)"><g><path fill="none" stroke="none"/><text fill="#000000" stroke="none" font-family="Arial" font-size="13px" font-style="normal" font-weight="bold" text-decoration="none" x="843.608642578125" y="479.5">Place</text></g></g><g transform="translate(-30,-6) scale(1,1)"><path fill="none" stroke="#000000" d="M 860.5 500 L 860.5 549" stroke-miterlimit="10" stroke-dasharray="3"/></g><g transform="translate(-30,-6) scale(1,1)"><path fill="#ffffff" stroke="none" d="M 714.136338778409 47.3 C 714.136338778409 43.82060576 717.014740500591 41 720.5654296875 41 C 724.116118874409 41 726.9945205965909 43.82060576 726.9945205965909 47.3 C 726.9945205965909 50.779394239999995 724.116118874409 53.6 720.5654296875 53.6 C 717.014740500591 53.6 714.136338778409 50.779394239999995 714.136338778409 47.3 Z"/></g><g transform="translate(-30,-6) scale(1,1)"><path fill="none" stroke="#000000" d="M 714.136338778409 47.3 C 714.136338778409 43.82060576 717.014740500591 41 720.5654296875 41 C 724.116118874409 41 726.9945205965909 43.82060576 726.9945205965909 47.3 C 726.9945205965909 50.779394239999995 724.116118874409 53.6 720.5654296875 53.6 C 717.014740500591 53.6 714.136338778409 50.779394239999995 714.136338778409 47.3 Z" stroke-miterlimit="10"/></g><g transform="translate(-30,-6) scale(1,1)"><path fill="none" stroke="#000000" d="M 720.5654296875 53.6 L 720.5654296875 66.4" stroke-miterlimit="10"/></g><g transform="translate(-30,-6) scale(1,1)"><path fill="none" stroke="#000000" d="M 713.7581569602272 58.4 L 727.3727024147727 58.4" stroke-miterlimit="10"/></g><g transform="translate(-30,-6) scale(1,1)"><path fill="none" stroke="#000000" d="M 720.5654296875 66.4 L 711.1108842329545 79" stroke-miterlimit="10"/></g><g transform="translate(-30,-6) scale(1,1)"><path fill="none" stroke="#000000" d="M 720.5654296875 66.4 L 730.0199751420454 79" stroke-miterlimit="10"/></g><g transform="translate(-30,-6) scale(1,1)"><g><path fill="none" stroke="none"/><text fill="#000000" stroke="none" font-family="Arial" font-size="13px" font-style="normal" font-weight="bold" text-decoration="none" x="703.226806640625" y="99.5">: GPS</text></g></g><g transform="translate(-30,-6) scale(1,1)"><path fill="none" stroke="#000000" d="M 721.5 105 L 721.5 512" stroke-miterlimit="10" stroke-dasharray="3"/></g><g transform="translate(-30,-6) scale(1,1)"><g><path fill="none" stroke="none"/><text fill="#a22a2a" stroke="none" font-family="Arial" font-size="13px" font-style="normal" font-weight="normal" text-decoration="none" x="85" y="34">sendAddress Sequence Diagram</text></g></g><g transform="translate(-30,-6) scale(1,1)"><path fill="none" stroke="#000000" d="M 88 140 L 236 140" stroke-miterlimit="10"/></g><g transform="translate(-30,-6) scale(1,1)"><path fill="#000000" stroke="none" d="M 225.83732514237585 144.209517756016 L 236 140 L 225.83732514237585 135.790482243984"/></g><g transform="translate(-30,-6) scale(1,1)"><path fill="none" stroke="#000000" d="M 225.83732514237585 144.209517756016 L 236 140 L 225.83732514237585 135.790482243984 L 225.83732514237585 144.209517756016" stroke-miterlimit="10"/></g><g transform="translate(-30,-6) scale(1,1)"><g><path fill="none" stroke="none"/><text fill="#000000" stroke="none" font-family="Arial" font-size="13px" font-style="normal" font-weight="normal" text-decoration="none" x="119.5" y="136.5">sendAddress()</text></g></g><g transform="translate(-30,-6) scale(1,1)"><rect fill="#ffffff" stroke="none" x="236" y="140" width="13" height="28"/></g><g transform="translate(-30,-6) scale(1,1)"><path fill="none" stroke="#000000" d="M 236 140 L 249 140 L 249 168 L 236 168 L 236 140 Z Z" stroke-miterlimit="10"/></g><g transform="translate(-30,-6) scale(1,1)"><path fill="none" stroke="#000000" d="M 243 192 L 344 192" stroke-miterlimit="10" stroke-dasharray="3"/></g><g transform="translate(-30,-6) scale(1,1)"><path fill="none" stroke="#000000" d="M 333.83732514237585 196.209517756016 L 344 192 L 333.83732514237585 187.790482243984" stroke-miterlimit="10"/></g><g transform="translate(-30,-6) scale(1,1)"><g><path fill="none" stroke="none"/><text fill="#000000" stroke="none" font-family="Arial" font-size="13px" font-style="normal" font-weight="normal" text-decoration="none" x="270.5" y="187.5">«create»</text></g></g><g transform="translate(-30,-6) scale(1,1)"><path fill="none" stroke="#000000" d="M 88 233 L 389 233" stroke-miterlimit="10"/></g><g transform="translate(-30,-6) scale(1,1)"><path fill="#000000" stroke="none" d="M 378.83732514237585 237.209517756016 L 389 233 L 378.83732514237585 228.790482243984"/></g><g transform="translate(-30,-6) scale(1,1)"><path fill="none" stroke="#000000" d="M 378.83732514237585 237.209517756016 L 389 233 L 378.83732514237585 228.790482243984 L 378.83732514237585 237.209517756016" stroke-miterlimit="10"/></g><g transform="translate(-30,-6) scale(1,1)"><g><path fill="none" stroke="none"/><text fill="#000000" stroke="none" font-family="Arial" font-size="13px" font-style="normal" font-weight="normal" text-decoration="none" x="126.5" y="228.5">fillContents()</text></g></g><g transform="translate(-30,-6) scale(1,1)"><rect fill="#ffffff" stroke="none" x="389" y="233" width="13" height="28"/></g><g transform="translate(-30,-6) scale(1,1)"><path fill="none" stroke="#000000" d="M 389 233 L 402 233 L 402 261 L 389 261 L 389 233 Z Z" stroke-miterlimit="10"/></g><g transform="translate(-30,-6) scale(1,1)"><path fill="none" stroke="#000000" d="M 88 272 L 389 272" stroke-miterlimit="10"/></g><g transform="translate(-30,-6) scale(1,1)"><path fill="#000000" stroke="none" d="M 378.83732514237585 276.209517756016 L 389 272 L 378.83732514237585 267.790482243984"/></g><g transform="translate(-30,-6) scale(1,1)"><path fill="none" stroke="#000000" d="M 378.83732514237585 276.209517756016 L 389 272 L 378.83732514237585 267.790482243984 L 378.83732514237585 276.209517756016" stroke-miterlimit="10"/></g><g transform="translate(-30,-6) scale(1,1)"><g><path fill="none" stroke="none"/><text fill="#000000" stroke="none" font-family="Arial" font-size="13px" font-style="normal" font-weight="normal" text-decoration="none" x="134.015869140625" y="267.5">submit()</text></g></g><g transform="translate(-30,-6) scale(1,1)"><rect fill="#ffffff" stroke="none" x="389" y="272" width="13" height="28"/></g><g transform="translate(-30,-6) scale(1,1)"><path fill="none" stroke="#000000" d="M 389 272 L 402 272 L 402 300 L 389 300 L 389 272 Z Z" stroke-miterlimit="10"/></g><g transform="translate(-30,-6) scale(1,1)"><path fill="none" stroke="#000000" d="M 396 321 L 249 321" stroke-miterlimit="10"/></g><g transform="translate(-30,-6) scale(1,1)"><path fill="#000000" stroke="none" d="M 259.16267485762415 316.790482243984 L 249 321 L 259.16267485762415 325.209517756016"/></g><g transform="translate(-30,-6) scale(1,1)"><path fill="none" stroke="#000000" d="M 259.16267485762415 316.790482243984 L 249 321 L 259.16267485762415 325.209517756016 L 259.16267485762415 316.790482243984" stroke-miterlimit="10"/></g><g transform="translate(-30,-6) scale(1,1)"><g><path fill="none" stroke="none"/><text fill="#000000" stroke="none" font-family="Arial" font-size="13px" font-style="normal" font-weight="normal" text-decoration="none" x="272.5" y="315.5">submitAddress()</text></g></g><g transform="translate(-30,-6) scale(1,1)"><rect fill="#ffffff" stroke="none" x="236" y="321" width="13" height="28"/></g><g transform="translate(-30,-6) scale(1,1)"><path fill="none" stroke="#000000" d="M 236 321 L 249 321 L 249 349 L 236 349 L 236 321 Z Z" stroke-miterlimit="10"/></g><g transform="translate(-30,-6) scale(1,1)"><path fill="none" stroke="#000000" d="M 243 352 L 557 352" stroke-miterlimit="10"/></g><g transform="translate(-30,-6) scale(1,1)"><path fill="#000000" stroke="none" d="M 546.8373251423759 356.209517756016 L 557 352 L 546.8373251423758 347.790482243984"/></g><g transform="translate(-30,-6) scale(1,1)"><path fill="none" stroke="#000000" d="M 546.8373251423759 356.209517756016 L 557 352 L 546.8373251423758 347.790482243984 L 546.8373251423759 356.209517756016" stroke-miterlimit="10"/></g><g transform="translate(-30,-6) scale(1,1)"><g><path fill="none" stroke="none"/><text fill="#000000" stroke="none" font-family="Arial" font-size="13px" font-style="normal" font-weight="normal" text-decoration="none" x="399.5" y="348.5">submitAddressToGPS()</text></g></g><g transform="translate(-30,-6) scale(1,1)"><rect fill="#ffffff" stroke="none" x="557" y="352" width="13" height="28"/></g><g transform="translate(-30,-6) scale(1,1)"><path fill="none" stroke="#000000" d="M 557 352 L 570 352 L 570 380 L 557 380 L 557 352 Z Z" stroke-miterlimit="10"/></g><g transform="translate(-30,-6) scale(1,1)"><path fill="none" stroke="#000000" d="M 570 376 L 714 376" stroke-miterlimit="10"/></g><g transform="translate(-30,-6) scale(1,1)"><path fill="#000000" stroke="none" d="M 703.8373251423759 380.209517756016 L 714 376 L 703.8373251423758 371.790482243984"/></g><g transform="translate(-30,-6) scale(1,1)"><path fill="none" stroke="#000000" d="M 703.8373251423759 380.209517756016 L 714 376 L 703.8373251423758 371.790482243984 L 703.8373251423759 380.209517756016" stroke-miterlimit="10"/></g><g transform="translate(-30,-6) scale(1,1)"><g><path fill="none" stroke="none"/><text fill="#000000" stroke="none" font-family="Arial" font-size="13px" font-style="normal" font-weight="normal" text-decoration="none" x="574.5" y="371.5">sendAddress(address)</text></g></g><g transform="translate(-30,-6) scale(1,1)"><rect fill="#ffffff" stroke="none" x="714" y="376" width="13" height="28"/></g><g transform="translate(-30,-6) scale(1,1)"><path fill="none" stroke="#000000" d="M 714 376 L 727 376 L 727 404 L 714 404 L 714 376 Z Z" stroke-miterlimit="10"/></g><g transform="translate(-30,-6) scale(1,1)"><path fill="none" stroke="#000000" d="M 721 418 L 564 418" stroke-miterlimit="10" stroke-dasharray="3"/></g><g transform="translate(-30,-6) scale(1,1)"><path fill="none" stroke="#000000" d="M 574.1626748576241 413.790482243984 L 564 418 L 574.1626748576241 422.209517756016" stroke-miterlimit="10"/></g><g transform="translate(-30,-6) scale(1,1)"><g><path fill="none" stroke="none"/><text fill="#000000" stroke="none" font-family="Arial" font-size="13px" font-style="normal" font-weight="normal" text-decoration="none" x="630.5" y="411.5">OK</text></g></g><g transform="translate(-30,-6) scale(1,1)"><path fill="none" stroke="#000000" d="M 564 448 L 243 448" stroke-miterlimit="10" stroke-dasharray="3"/></g><g transform="translate(-30,-6) scale(1,1)"><path fill="none" stroke="#000000" d="M 253.16267485762415 443.790482243984 L 243 448 L 253.16267485762415 452.209517756016" stroke-miterlimit="10"/></g><g transform="translate(-30,-6) scale(1,1)"><g><path fill="none" stroke="none"/><text fill="#000000" stroke="none" font-family="Arial" font-size="13px" font-style="normal" font-weight="normal" text-decoration="none" x="446.5" y="440.5">OK</text></g></g><g transform="translate(-30,-6) scale(1,1)"><path fill="none" stroke="#000000" d="M 243 480 L 824 480" stroke-miterlimit="10" stroke-dasharray="3"/></g><g transform="translate(-30,-6) scale(1,1)"><path fill="none" stroke="#000000" d="M 813.8373251423759 484.209517756016 L 824 480 L 813.8373251423758 475.790482243984" stroke-miterlimit="10"/></g><g transform="translate(-30,-6) scale(1,1)"><g><path fill="none" stroke="none"/><text fill="#000000" stroke="none" font-family="Arial" font-size="13px" font-style="normal" font-weight="normal" text-decoration="none" x="742.5" y="476.5">«create»</text></g></g><g transform="translate(-30,-6) scale(1,1)"><path fill="none" stroke="#000000" d="M 243 532 L 389 532" stroke-miterlimit="10"/></g><g transform="translate(-30,-6) scale(1,1)"><path fill="#000000" stroke="none" d="M 378.83732514237585 536.209517756016 L 389 532 L 378.83732514237585 527.790482243984"/></g><g transform="translate(-30,-6) scale(1,1)"><path fill="none" stroke="#000000" d="M 378.83732514237585 536.209517756016 L 389 532 L 378.83732514237585 527.790482243984 L 378.83732514237585 536.209517756016" stroke-miterlimit="10"/></g><g transform="translate(-30,-6) scale(1,1)"><path fill="none" stroke="#000000" d="M 386 588 L 406 608" stroke-miterlimit="10"/></g><g transform="translate(-30,-6) scale(1,1)"><path fill="none" stroke="#000000" d="M 406 588 L 386 608" stroke-miterlimit="10"/></g><g transform="translate(-30,-6) scale(1,1)"><g><path fill="none" stroke="none"/><text fill="#000000" stroke="none" font-family="Arial" font-size="13px" font-style="normal" font-weight="normal" text-decoration="none" x="287.5" y="528.5">«destroy»</text></g></g><g transform="translate(-30,-6) scale(1,1)"><rect fill="#ffffff" stroke="none" x="389" y="532" width="13" height="28"/></g><g transform="translate(-30,-6) scale(1,1)"><path fill="none" stroke="#000000" d="M 389 532 L 402 532 L 402 560 L 389 560 L 389 532 Z Z" stroke-miterlimit="10"/></g></g></svg>