<svg version="1.1" xmlns="http://www.w3.org/2000/svg" xmlns:xlink="http://www.w3.org/1999/xlink" width="700" height="462"><defs/><g><text fill="#eeeeee" stroke="none" font-family="Arial" font-size="24px" font-style="normal" font-weight="normal" text-decoration="none" x="0" y="0">UNREGISTERED</text><text fill="#eeeeee" stroke="none" font-family="Arial" font-size="24px" font-style="normal" font-weight="normal" text-decoration="none" x="0" y="30">UNREGISTERED</text><text fill="#eeeeee" stroke="none" font-family="Arial" font-size="24px" font-style="normal" font-weight="normal" text-decoration="none" x="0" y="60">UNREGISTERED</text><text fill="#eeeeee" stroke="none" font-family="Arial" font-size="24px" font-style="normal" font-weight="normal" text-decoration="none" x="0" y="90">UNREGISTERED</text><text fill="#eeeeee" stroke="none" font-family="Arial" font-size="24px" font-style="normal" font-weight="normal" text-decoration="none" x="0" y="120">UNREGISTERED</text><text fill="#eeeeee" stroke="none" font-family="Arial" font-size="24px" font-style="normal" font-weight="normal" text-decoration="none" x="0" y="150">UNREGISTERED</text><text fill="#eeeeee" stroke="none" font-family="Arial" font-size="24px" font-style="normal" font-weight="normal" text-decoration="none" x="0" y="180">UNREGISTERED</text><text fill="#eeeeee" stroke="none" font-family="Arial" font-size="24px" font-style="normal" font-weight="normal" text-decoration="none" x="0" y="210">UNREGISTERED</text><text fill="#eeeeee" stroke="none" font-family="Arial" font-size="24px" font-style="normal" font-weight="normal" text-decoration="none" x="0" y="240">UNREGISTERED</text><text fill="#eeeeee" stroke="none" font-family="Arial" font-size="24px" font-style="normal" font-weight="normal" text-decoration="none" x="0" y="270">UNREGISTERED</text><text fill="#eeeeee" stroke="none" font-family="Arial" font-size="24px" font-style="normal" font-weight="normal" text-decoration="none" x="0" y="300">UNREGISTERED</text><text fill="#eeeeee" stroke="none" font-family="Arial" font-size="24px" font-style="normal" font-weight="normal" text-decoration="none" x="0" y="330">UNREGISTERED</text><text fill="#eeeeee" stroke="none" font-family="Arial" font-size="24px" font-style="normal" font-weight="normal" text-decoration="none" x="0" y="360">UNREGISTERED</text><text fill="#eeeeee" stroke="none" font-family="Arial" font-size="24px" font-style="normal" font-weight="normal" text-decoration="none" x="0" y="390">UNREGISTERED</text><text fill="#eeeeee" stroke="none" font-family="Arial" font-size="24px" font-style="normal" font-weight="normal" text-decoration="none" x="0" y="420">UNREGISTERED</text><text fill="#eeeeee" stroke="none" font-family="Arial" font-size="24px" font-style="normal" font-weight="normal" text-decoration="none" x="0" y="450">UNREGISTERED</text><text fill="#eeeeee" stroke="none" font-family="Arial" font-size="24px" font-style="normal" font-weight="normal" text-decoration="none" x="200" y="0">UNREGISTERED</text><text fill="#eeeeee" stroke="none" font-family="Arial" font-size="24px" font-style="normal" font-weight="normal" text-decoration="none" x="200" y="30">UNREGISTERED</text><text fill="#eeeeee" stroke="none" font-family="Arial" font-size="24px" font-style="normal" font-weight="normal" text-decoration="none" x="200" y="60">UNREGISTERED</text><text fill="#eeeeee" stroke="none" font-family="Arial" font-size="24px" font-style="normal" font-weight="normal" text-decoration="none" x="200" y="90">UNREGISTERED</text><text fill="#eeeeee" stroke="none" font-family="Arial" font-size="24px" font-style="normal" font-weight="normal" text-decoration="none" x="200" y="120">UNREGISTERED</text><text fill="#eeeeee" stroke="none" font-family="Arial" font-size="24px" font-style="normal" font-weight="normal" text-decoration="none" x="200" y="150">UNREGISTERED</text><text fill="#eeeeee" stroke="none" font-family="Arial" font-size="24px" font-style="normal" font-weight="normal" text-decoration="none" x="200" y="180">UNREGISTERED</text><text fill="#eeeeee" stroke="none" font-family="Arial" font-size="24px" font-style="normal" font-weight="normal" text-decoration="none" x="200" y="210">UNREGISTERED</text><text fill="#eeeeee" stroke="none" font-family="Arial" font-size="24px" font-style="normal" font-weight="normal" text-decoration="none" x="200" y="240">UNREGISTERED</text><text fill="#eeeeee" stroke="none" font-family="Arial" font-size="24px" font-style="normal" font-weight="normal" text-decoration="none" x="200" y="270">UNREGISTERED</text><text fill="#eeeeee" stroke="none" font-family="Arial" font-size="24px" font-style="normal" font-weight="normal" text-decoration="none" x="200" y="300">UNREGISTERED</text><text fill="#eeeeee" stroke="none" font-family="Arial" font-size="24px" font-style="normal" font-weight="normal" text-decoration="none" x="200" y="330">UNREGISTERED</text><text fill="#eeeeee" stroke="none" font-family="Arial" font-size="24px" font-style="normal" font-weight="normal" text-decoration="none" x="200" y="360">UNREGISTERED</text><text fill="#eeeeee" stroke="none" font-family="Arial" font-size="24px" font-style="normal" font-weight="normal" text-decoration="none" x="200" y="390">UNREGISTERED</text><text fill="#eeeeee" stroke="none" font-family="Arial" font-size="24px" font-style="normal" font-weight="normal" text-decoration="none" x="200" y="420">UNREGISTERED</text><text fill="#eeeeee" stroke="none" font-family="Arial" font-size="24px" font-style="normal" font-weight="normal" text-decoration="none" x="200" y="450">UNREGISTERED</text><text fill="#eeeeee" stroke="none" font-family="Arial" font-size="24px" font-style="normal" font-weight="normal" text-decoration="none" x="400" y="0">UNREGISTERED</text><text fill="#eeeeee" stroke="none" font-family="Arial" font-size="24px" font-style="normal" font-weight="normal" text-decoration="none" x="400" y="30">UNREGISTERED</text><text fill="#eeeeee" stroke="none" font-family="Arial" font-size="24px" font-style="normal" font-weight="normal" text-decoration="none" x="400" y="60">UNREGISTERED</text><text fill="#eeeeee" stroke="none" font-family="Arial" font-size="24px" font-style="normal" font-weight="normal" text-decoration="none" x="400" y="90">UNREGISTERED</text><text fill="#eeeeee" stroke="none" font-family="Arial" font-size="24px" font-style="normal" font-weight="normal" text-decoration="none" x="400" y="120">UNREGISTERED</text><text fill="#eeeeee" stroke="none" font-family="Arial" font-size="24px" font-style="normal" font-weight="normal" text-decoration="none" x="400" y="150">UNREGISTERED</text><text fill="#eeeeee" stroke="none" font-family="Arial" font-size="24px" font-style="normal" font-weight="normal" text-decoration="none" x="400" y="180">UNREGISTERED</text><text fill="#eeeeee" stroke="none" font-family="Arial" font-size="24px" font-style="normal" font-weight="normal" text-decoration="none" x="400" y="210">UNREGISTERED</text><text fill="#eeeeee" stroke="none" font-family="Arial" font-size="24px" font-style="normal" font-weight="normal" text-decoration="none" x="400" y="240">UNREGISTERED</text><text fill="#eeeeee" stroke="none" font-family="Arial" font-size="24px" font-style="normal" font-weight="normal" text-decoration="none" x="400" y="270">UNREGISTERED</text><text fill="#eeeeee" stroke="none" font-family="Arial" font-size="24px" font-style="normal" font-weight="normal" text-decoration="none" x="400" y="300">UNREGISTERED</text><text fill="#eeeeee" stroke="none" font-family="Arial" font-size="24px" font-style="normal" font-weight="normal" text-decoration="none" x="400" y="330">UNREGISTERED</text><text fill="#eeeeee" stroke="none" font-family="Arial" font-size="24px" font-style="normal" font-weight="normal" text-decoration="none" x="400" y="360">UNREGISTERED</text><text fill="#eeeeee" stroke="none" font-family="Arial" font-size="24px" font-style="normal" font-weight="normal" text-decoration="none" x="400" y="390">UNREGISTERED</text><text fill="#eeeeee" stroke="none" font-family="Arial" font-size="24px" font-style="normal" font-weight="normal" text-decoration="none" x="400" y="420">UNREGISTERED</text><text fill="#eeeeee" stroke="none" font-family="Arial" font-size="24px" font-style="normal" font-weight="normal" text-decoration="none" x="400" y="450">UNREGISTERED</text><text fill="#eeeeee" stroke="none" font-family="Arial" font-size="24px" font-style="normal" font-weight="normal" text-decoration="none" x="600" y="0">UNREGISTERED</text><text fill="#eeeeee" stroke="none" font-family="Arial" font-size="24px" font-style="normal" font-weight="normal" text-decoration="none" x="600" y="30">UNREGISTERED</text><text fill="#eeeeee" stroke="none" font-family="Arial" font-size="24px" font-style="normal" font-weight="normal" text-decoration="none" x="600" y="60">UNREGISTERED</text><text fill="#eeeeee" stroke="none" font-family="Arial" font-size="24px" font-style="normal" font-weight="normal" text-decoration="none" x="600" y="90">UNREGISTERED</text><text fill="#eeeeee" stroke="none" font-family="Arial" font-size="24px" font-style="normal" font-weight="normal" text-decoration="none" x="600" y="120">UNREGISTERED</text><text fill="#eeeeee" stroke="none" font-family="Arial" font-size="24px" font-style="normal" font-weight="normal" text-decoration="none" x="600" y="150">UNREGISTERED</text><text fill="#eeeeee" stroke="none" font-family="Arial" font-size="24px" font-style="normal" font-weight="normal" text-decoration="none" x="600" y="180">UNREGISTERED</text><text fill="#eeeeee" stroke="none" font-family="Arial" font-size="24px" font-style="normal" font-weight="normal" text-decoration="none" x="600" y="210">UNREGISTERED</text><text fill="#eeeeee" stroke="none" font-family="Arial" font-size="24px" font-style="normal" font-weight="normal" text-decoration="none" x="600" y="240">UNREGISTERED</text><text fill="#eeeeee" stroke="none" font-family="Arial" font-size="24px" font-style="normal" font-weight="normal" text-decoration="none" x="600" y="270">UNREGISTERED</text><text fill="#eeeeee" stroke="none" font-family="Arial" font-size="24px" font-style="normal" font-weight="normal" text-decoration="none" x="600" y="300">UNREGISTERED</text><text fill="#eeeeee" stroke="none" font-family="Arial" font-size="24px" font-style="normal" font-weight="normal" text-decoration="none" x="600" y="330">UNREGISTERED</text><text fill="#eeeeee" stroke="none" font-family="Arial" font-size="24px" font-style="normal" font-weight="normal" text-decoration="none" x="600" y="360">UNREGISTERED</text><text fill="#eeeeee" stroke="none" font-family="Arial" font-size="24px" font-style="normal" font-weight="normal" text-decoration="none" x="600" y="390">UNREGISTERED</text><text fill="#eeeeee" stroke="none" font-family="Arial" font-size="24px" font-style="normal" font-weight="normal" text-decoration="none" x="600" y="420">UNREGISTERED</text><text fill="#eeeeee" stroke="none" font-family="Arial" font-size="24px" font-style="normal" font-weight="normal" text-decoration="none" x="600" y="450">UNREGISTERED</text><g transform="translate(-54,-30) scale(1,1)"><path fill="#ffffff" stroke="none" d="M 105.3143172940341 47.3 C 105.3143172940341 43.82060576 108.19271901621592 41 111.743408203125 41 C 115.29409739003408 41 118.1724991122159 43.82060576 118.1724991122159 47.3 C 118.1724991122159 50.779394239999995 115.29409739003408 53.6 111.743408203125 53.6 C 108.19271901621592 53.6 105.3143172940341 50.779394239999995 105.3143172940341 47.3 Z"/></g><g transform="translate(-54,-30) scale(1,1)"><path fill="none" stroke="#000000" d="M 105.3143172940341 47.3 C 105.3143172940341 43.82060576 108.19271901621592 41 111.743408203125 41 C 115.29409739003408 41 118.1724991122159 43.82060576 118.1724991122159 47.3 C 118.1724991122159 50.779394239999995 115.29409739003408 53.6 111.743408203125 53.6 C 108.19271901621592 53.6 105.3143172940341 50.779394239999995 105.3143172940341 47.3 Z" stroke-miterlimit="10"/></g><g transform="translate(-54,-30) scale(1,1)"><path fill="none" stroke="#000000" d="M 111.743408203125 53.6 L 111.743408203125 66.4" stroke-miterlimit="10"/></g><g transform="translate(-54,-30) scale(1,1)"><path fill="none" stroke="#000000" d="M 104.93613547585227 58.4 L 118.55068093039773 58.4" stroke-miterlimit="10"/></g><g transform="translate(-54,-30) scale(1,1)"><path fill="none" stroke="#000000" d="M 111.743408203125 66.4 L 102.28886274857955 79" stroke-miterlimit="10"/></g><g transform="translate(-54,-30) scale(1,1)"><path fill="none" stroke="#000000" d="M 111.743408203125 66.4 L 121.19795365767045 79" stroke-miterlimit="10"/></g><g transform="translate(-54,-30) scale(1,1)"><g><path fill="none" stroke="none"/><text fill="#000000" stroke="none" font-family="Arial" font-size="13px" font-style="normal" font-weight="bold" text-decoration="none" x="97.727783203125" y="99.5">: بیمار</text></g></g><g transform="translate(-54,-30) scale(1,1)"><path fill="none" stroke="#000000" d="M 112.5 105 L 112.5 296" stroke-miterlimit="10" stroke-dasharray="3"/></g><g transform="translate(-54,-30) scale(1,1)"><rect fill="#C0C0C0" stroke="none" x="159" y="47" width="141.52880859375" height="39" opacity="0.2"/></g><g transform="translate(-54,-30) scale(1,1)"><rect fill="#ffffff" stroke="none" x="152" y="40" width="141.52880859375" height="39"/></g><g transform="translate(-54,-30) scale(1,1)"><path fill="none" stroke="#000000" d="M 152 40 L 293.52880859375 40 L 293.52880859375 79 L 152 79 L 152 40 Z Z" stroke-miterlimit="10"/></g><g transform="translate(-54,-30) scale(1,1)"><g><path fill="none" stroke="none"/><text fill="#000000" stroke="none" font-family="Arial" font-size="13px" font-style="normal" font-weight="bold" text-decoration="none" x="166.755859375" y="59.5">SendTestListButton</text></g></g><g transform="translate(-54,-30) scale(1,1)"><path fill="none" stroke="#000000" d="M 223.5 80 L 223.5 239" stroke-miterlimit="10" stroke-dasharray="3"/></g><g transform="translate(-54,-30) scale(1,1)"><rect fill="#C0C0C0" stroke="none" x="311" y="107" width="145.87060546875" height="39" opacity="0.2"/></g><g transform="translate(-54,-30) scale(1,1)"><rect fill="#ffffff" stroke="none" x="304" y="100" width="145.87060546875" height="39"/></g><g transform="translate(-54,-30) scale(1,1)"><path fill="none" stroke="#000000" d="M 304 100 L 449.87060546875 100 L 449.87060546875 139 L 304 139 L 304 100 Z Z" stroke-miterlimit="10"/></g><g transform="translate(-54,-30) scale(1,1)"><g><path fill="none" stroke="none"/><text fill="#000000" stroke="none" font-family="Arial" font-size="13px" font-style="normal" font-weight="bold" text-decoration="none" x="318.765380859375" y="119.5">SendTestListControl</text></g></g><g transform="translate(-54,-30) scale(1,1)"><path fill="none" stroke="#000000" d="M 377.5 140 L 377.5 482" stroke-miterlimit="10" stroke-dasharray="3"/></g><g transform="translate(-54,-30) scale(1,1)"><rect fill="#C0C0C0" stroke="none" x="511" y="155" width="100.376953125" height="39" opacity="0.2"/></g><g transform="translate(-54,-30) scale(1,1)"><rect fill="#ffffff" stroke="none" x="504" y="148" width="100.376953125" height="39"/></g><g transform="translate(-54,-30) scale(1,1)"><path fill="none" stroke="#000000" d="M 504 148 L 604.376953125 148 L 604.376953125 187 L 504 187 L 504 148 Z Z" stroke-miterlimit="10"/></g><g transform="translate(-54,-30) scale(1,1)"><g><path fill="none" stroke="none"/><text fill="#000000" stroke="none" font-family="Arial" font-size="13px" font-style="normal" font-weight="bold" text-decoration="none" x="516.988037109375" y="167.5">TestListForm</text></g></g><g transform="translate(-54,-30) scale(1,1)"><path fill="none" stroke="#000000" d="M 555.5 188 L 555.5 482" stroke-miterlimit="10" stroke-dasharray="3"/></g><g transform="translate(-54,-30) scale(1,1)"><rect fill="#C0C0C0" stroke="none" x="655" y="363" width="71.736328125" height="39" opacity="0.2"/></g><g transform="translate(-54,-30) scale(1,1)"><rect fill="#ffffff" stroke="none" x="648" y="356" width="71.736328125" height="39"/></g><g transform="translate(-54,-30) scale(1,1)"><path fill="none" stroke="#000000" d="M 648 356 L 719.736328125 356 L 719.736328125 395 L 648 395 L 648 356 Z Z" stroke-miterlimit="10"/></g><g transform="translate(-54,-30) scale(1,1)"><g><path fill="none" stroke="none"/><text fill="#000000" stroke="none" font-family="Arial" font-size="13px" font-style="normal" font-weight="bold" text-decoration="none" x="671.947265625" y="375.5">Test</text></g></g><g transform="translate(-54,-30) scale(1,1)"><path fill="none" stroke="#000000" d="M 684.5 396 L 684.5 445" stroke-miterlimit="10" stroke-dasharray="3"/></g><g transform="translate(-54,-30) scale(1,1)"><path fill="none" stroke="#000000" d="M 112 116 L 216 116" stroke-miterlimit="10"/></g><g transform="translate(-54,-30) scale(1,1)"><path fill="#000000" stroke="none" d="M 205.83732514237585 120.20951775601598 L 216 116 L 205.83732514237585 111.79048224398402"/></g><g transform="translate(-54,-30) scale(1,1)"><path fill="none" stroke="#000000" d="M 205.83732514237585 120.20951775601598 L 216 116 L 205.83732514237585 111.79048224398402 L 205.83732514237585 120.20951775601598" stroke-miterlimit="10"/></g><g transform="translate(-54,-30) scale(1,1)"><g><path fill="none" stroke="none"/><text fill="#000000" stroke="none" font-family="Arial" font-size="13px" font-style="normal" font-weight="normal" text-decoration="none" x="144.265869140625" y="112.5">press()</text></g></g><g transform="translate(-54,-30) scale(1,1)"><rect fill="#ffffff" stroke="none" x="216" y="116" width="13" height="28"/></g><g transform="translate(-54,-30) scale(1,1)"><path fill="none" stroke="#000000" d="M 216 116 L 229 116 L 229 144 L 216 144 L 216 116 Z Z" stroke-miterlimit="10"/></g><g transform="translate(-54,-30) scale(1,1)"><path fill="none" stroke="#000000" d="M 229 120 L 304 120" stroke-miterlimit="10" stroke-dasharray="3"/></g><g transform="translate(-54,-30) scale(1,1)"><path fill="none" stroke="#000000" d="M 293.83732514237585 124.20951775601598 L 304 120 L 293.83732514237585 115.79048224398402" stroke-miterlimit="10"/></g><g transform="translate(-54,-30) scale(1,1)"><g><path fill="none" stroke="none"/><text fill="#000000" stroke="none" font-family="Arial" font-size="13px" font-style="normal" font-weight="normal" text-decoration="none" x="234.5" y="115.5">«create»</text></g></g><g transform="translate(-54,-30) scale(1,1)"><path fill="none" stroke="#000000" d="M 377 168 L 504 168" stroke-miterlimit="10" stroke-dasharray="3"/></g><g transform="translate(-54,-30) scale(1,1)"><path fill="none" stroke="#000000" d="M 493.83732514237585 172.209517756016 L 504 168 L 493.83732514237585 163.790482243984" stroke-miterlimit="10"/></g><g transform="translate(-54,-30) scale(1,1)"><g><path fill="none" stroke="none"/><text fill="#000000" stroke="none" font-family="Arial" font-size="13px" font-style="normal" font-weight="normal" text-decoration="none" x="430.5" y="164.5">«create»</text></g></g><g transform="translate(-54,-30) scale(1,1)"><path fill="none" stroke="#000000" d="M 112 205 L 548 205" stroke-miterlimit="10"/></g><g transform="translate(-54,-30) scale(1,1)"><path fill="#000000" stroke="none" d="M 537.8373251423759 209.209517756016 L 548 205 L 537.8373251423758 200.790482243984"/></g><g transform="translate(-54,-30) scale(1,1)"><path fill="none" stroke="#000000" d="M 537.8373251423759 209.209517756016 L 548 205 L 537.8373251423758 200.790482243984 L 537.8373251423759 209.209517756016" stroke-miterlimit="10"/></g><g transform="translate(-54,-30) scale(1,1)"><g><path fill="none" stroke="none"/><text fill="#000000" stroke="none" font-family="Arial" font-size="13px" font-style="normal" font-weight="normal" text-decoration="none" x="293.5" y="201.5">fillContents()</text></g></g><g transform="translate(-54,-30) scale(1,1)"><rect fill="#ffffff" stroke="none" x="548" y="205" width="13" height="28"/></g><g transform="translate(-54,-30) scale(1,1)"><path fill="none" stroke="#000000" d="M 548 205 L 561 205 L 561 233 L 548 233 L 548 205 Z Z" stroke-miterlimit="10"/></g><g transform="translate(-54,-30) scale(1,1)"><path fill="none" stroke="#000000" d="M 112 256 L 548 256" stroke-miterlimit="10"/></g><g transform="translate(-54,-30) scale(1,1)"><path fill="#000000" stroke="none" d="M 537.8373251423759 260.209517756016 L 548 256 L 537.8373251423758 251.790482243984"/></g><g transform="translate(-54,-30) scale(1,1)"><path fill="none" stroke="#000000" d="M 537.8373251423759 260.209517756016 L 548 256 L 537.8373251423758 251.790482243984 L 537.8373251423759 260.209517756016" stroke-miterlimit="10"/></g><g transform="translate(-54,-30) scale(1,1)"><g><path fill="none" stroke="none"/><text fill="#000000" stroke="none" font-family="Arial" font-size="13px" font-style="normal" font-weight="normal" text-decoration="none" x="307.015869140625" y="252.5">submit()</text></g></g><g transform="translate(-54,-30) scale(1,1)"><rect fill="#ffffff" stroke="none" x="548" y="256" width="13" height="28"/></g><g transform="translate(-54,-30) scale(1,1)"><path fill="none" stroke="#000000" d="M 548 256 L 561 256 L 561 284 L 548 284 L 548 256 Z Z" stroke-miterlimit="10"/></g><g transform="translate(-54,-30) scale(1,1)"><path fill="none" stroke="#000000" d="M 555 304 L 383 304" stroke-miterlimit="10"/></g><g transform="translate(-54,-30) scale(1,1)"><path fill="#000000" stroke="none" d="M 393.16267485762415 299.790482243984 L 383 304 L 393.16267485762415 308.209517756016"/></g><g transform="translate(-54,-30) scale(1,1)"><path fill="none" stroke="#000000" d="M 393.16267485762415 299.790482243984 L 383 304 L 393.16267485762415 308.209517756016 L 393.16267485762415 299.790482243984" stroke-miterlimit="10"/></g><g transform="translate(-54,-30) scale(1,1)"><g><path fill="none" stroke="none"/><text fill="#000000" stroke="none" font-family="Arial" font-size="13px" font-style="normal" font-weight="normal" text-decoration="none" x="423.5" y="300.5">submitTestList()</text></g></g><g transform="translate(-54,-30) scale(1,1)"><rect fill="#ffffff" stroke="none" x="370" y="304" width="13" height="28"/></g><g transform="translate(-54,-30) scale(1,1)"><path fill="none" stroke="#000000" d="M 370 304 L 383 304 L 383 332 L 370 332 L 370 304 Z Z" stroke-miterlimit="10"/></g><g transform="translate(-54,-30) scale(1,1)"><path fill="none" stroke="#000000" d="M 377 376 L 648 376" stroke-miterlimit="10" stroke-dasharray="3"/></g><g transform="translate(-54,-30) scale(1,1)"><path fill="none" stroke="#000000" d="M 637.8373251423759 380.209517756016 L 648 376 L 637.8373251423758 371.790482243984" stroke-miterlimit="10"/></g><g transform="translate(-54,-30) scale(1,1)"><g><path fill="none" stroke="none"/><text fill="#000000" stroke="none" font-family="Arial" font-size="13px" font-style="normal" font-weight="normal" text-decoration="none" x="574.5" y="372.5">«create»</text></g></g><g transform="translate(-54,-30) scale(1,1)"><path fill="none" stroke="#000000" d="M 377 440 L 548 440" stroke-miterlimit="10"/></g><g transform="translate(-54,-30) scale(1,1)"><path fill="#000000" stroke="none" d="M 537.8373251423759 444.209517756016 L 548 440 L 537.8373251423758 435.790482243984"/></g><g transform="translate(-54,-30) scale(1,1)"><path fill="none" stroke="#000000" d="M 537.8373251423759 444.209517756016 L 548 440 L 537.8373251423758 435.790482243984 L 537.8373251423759 444.209517756016" stroke-miterlimit="10"/></g><g transform="translate(-54,-30) scale(1,1)"><path fill="none" stroke="#000000" d="M 545 472 L 565 492" stroke-miterlimit="10"/></g><g transform="translate(-54,-30) scale(1,1)"><path fill="none" stroke="#000000" d="M 565 472 L 545 492" stroke-miterlimit="10"/></g><g transform="translate(-54,-30) scale(1,1)"><g><path fill="none" stroke="none"/><text fill="#000000" stroke="none" font-family="Arial" font-size="13px" font-style="normal" font-weight="normal" text-decoration="none" x="433.5" y="436.5">«destroy»</text></g></g><g transform="translate(-54,-30) scale(1,1)"><rect fill="#ffffff" stroke="none" x="548" y="440" width="13" height="28"/></g><g transform="translate(-54,-30) scale(1,1)"><path fill="none" stroke="#000000" d="M 548 440 L 561 440 L 561 468 L 548 468 L 548 440 Z Z" stroke-miterlimit="10"/></g><g transform="translate(-54,-30) scale(1,1)"><path fill="none" stroke="#000000" d="M 352 344 L 744 344 L 744 409 L 352 409 L 352 344" stroke-miterlimit="10"/></g><g transform="translate(-54,-30) scale(1,1)"><path fill="#ffffff" stroke="none" d="M 352 344 L 352 366 L 392.578125 366 L 403.578125 355 L 403.578125 344 L 352 344"/></g><g transform="translate(-54,-30) scale(1,1)"><path fill="none" stroke="#000000" d="M 352 344 L 352 366 L 392.578125 366 L 403.578125 355 L 403.578125 344 L 352 344 L 352 344" stroke-miterlimit="10"/></g><g transform="translate(-54,-30) scale(1,1)"><g><path fill="none" stroke="none"/><text fill="#000000" stroke="none" font-family="Arial" font-size="13px" font-style="normal" font-weight="bold" text-decoration="none" x="357" y="361.5">loop</text></g></g></g></svg>