<svg version="1.1" xmlns="http://www.w3.org/2000/svg" xmlns:xlink="http://www.w3.org/1999/xlink" width="1024.4052734375" height="574"><defs/><g><text fill="#eeeeee" stroke="none" font-family="Arial" font-size="24px" font-style="normal" font-weight="normal" text-decoration="none" x="0" y="0">UNREGISTERED</text><text fill="#eeeeee" stroke="none" font-family="Arial" font-size="24px" font-style="normal" font-weight="normal" text-decoration="none" x="0" y="30">UNREGISTERED</text><text fill="#eeeeee" stroke="none" font-family="Arial" font-size="24px" font-style="normal" font-weight="normal" text-decoration="none" x="0" y="60">UNREGISTERED</text><text fill="#eeeeee" stroke="none" font-family="Arial" font-size="24px" font-style="normal" font-weight="normal" text-decoration="none" x="0" y="90">UNREGISTERED</text><text fill="#eeeeee" stroke="none" font-family="Arial" font-size="24px" font-style="normal" font-weight="normal" text-decoration="none" x="0" y="120">UNREGISTERED</text><text fill="#eeeeee" stroke="none" font-family="Arial" font-size="24px" font-style="normal" font-weight="normal" text-decoration="none" x="0" y="150">UNREGISTERED</text><text fill="#eeeeee" stroke="none" font-family="Arial" font-size="24px" font-style="normal" font-weight="normal" text-decoration="none" x="0" y="180">UNREGISTERED</text><text fill="#eeeeee" stroke="none" font-family="Arial" font-size="24px" font-style="normal" font-weight="normal" text-decoration="none" x="0" y="210">UNREGISTERED</text><text fill="#eeeeee" stroke="none" font-family="Arial" font-size="24px" font-style="normal" font-weight="normal" text-decoration="none" x="0" y="240">UNREGISTERED</text><text fill="#eeeeee" stroke="none" font-family="Arial" font-size="24px" font-style="normal" font-weight="normal" text-decoration="none" x="0" y="270">UNREGISTERED</text><text fill="#eeeeee" stroke="none" font-family="Arial" font-size="24px" font-style="normal" font-weight="normal" text-decoration="none" x="0" y="300">UNREGISTERED</text><text fill="#eeeeee" stroke="none" font-family="Arial" font-size="24px" font-style="normal" font-weight="normal" text-decoration="none" x="0" y="330">UNREGISTERED</text><text fill="#eeeeee" stroke="none" font-family="Arial" font-size="24px" font-style="normal" font-weight="normal" text-decoration="none" x="0" y="360">UNREGISTERED</text><text fill="#eeeeee" stroke="none" font-family="Arial" font-size="24px" font-style="normal" font-weight="normal" text-decoration="none" x="0" y="390">UNREGISTERED</text><text fill="#eeeeee" stroke="none" font-family="Arial" font-size="24px" font-style="normal" font-weight="normal" text-decoration="none" x="0" y="420">UNREGISTERED</text><text fill="#eeeeee" stroke="none" font-family="Arial" font-size="24px" font-style="normal" font-weight="normal" text-decoration="none" x="0" y="450">UNREGISTERED</text><text fill="#eeeeee" stroke="none" font-family="Arial" font-size="24px" font-style="normal" font-weight="normal" text-decoration="none" x="0" y="480">UNREGISTERED</text><text fill="#eeeeee" stroke="none" font-family="Arial" font-size="24px" font-style="normal" font-weight="normal" text-decoration="none" x="0" y="510">UNREGISTERED</text><text fill="#eeeeee" stroke="none" font-family="Arial" font-size="24px" font-style="normal" font-weight="normal" text-decoration="none" x="0" y="540">UNREGISTERED</text><text fill="#eeeeee" stroke="none" font-family="Arial" font-size="24px" font-style="normal" font-weight="normal" text-decoration="none" x="0" y="570">UNREGISTERED</text><text fill="#eeeeee" stroke="none" font-family="Arial" font-size="24px" font-style="normal" font-weight="normal" text-decoration="none" x="200" y="0">UNREGISTERED</text><text fill="#eeeeee" stroke="none" font-family="Arial" font-size="24px" font-style="normal" font-weight="normal" text-decoration="none" x="200" y="30">UNREGISTERED</text><text fill="#eeeeee" stroke="none" font-family="Arial" font-size="24px" font-style="normal" font-weight="normal" text-decoration="none" x="200" y="60">UNREGISTERED</text><text fill="#eeeeee" stroke="none" font-family="Arial" font-size="24px" font-style="normal" font-weight="normal" text-decoration="none" x="200" y="90">UNREGISTERED</text><text fill="#eeeeee" stroke="none" font-family="Arial" font-size="24px" font-style="normal" font-weight="normal" text-decoration="none" x="200" y="120">UNREGISTERED</text><text fill="#eeeeee" stroke="none" font-family="Arial" font-size="24px" font-style="normal" font-weight="normal" text-decoration="none" x="200" y="150">UNREGISTERED</text><text fill="#eeeeee" stroke="none" font-family="Arial" font-size="24px" font-style="normal" font-weight="normal" text-decoration="none" x="200" y="180">UNREGISTERED</text><text fill="#eeeeee" stroke="none" font-family="Arial" font-size="24px" font-style="normal" font-weight="normal" text-decoration="none" x="200" y="210">UNREGISTERED</text><text fill="#eeeeee" stroke="none" font-family="Arial" font-size="24px" font-style="normal" font-weight="normal" text-decoration="none" x="200" y="240">UNREGISTERED</text><text fill="#eeeeee" stroke="none" font-family="Arial" font-size="24px" font-style="normal" font-weight="normal" text-decoration="none" x="200" y="270">UNREGISTERED</text><text fill="#eeeeee" stroke="none" font-family="Arial" font-size="24px" font-style="normal" font-weight="normal" text-decoration="none" x="200" y="300">UNREGISTERED</text><text fill="#eeeeee" stroke="none" font-family="Arial" font-size="24px" font-style="normal" font-weight="normal" text-decoration="none" x="200" y="330">UNREGISTERED</text><text fill="#eeeeee" stroke="none" font-family="Arial" font-size="24px" font-style="normal" font-weight="normal" text-decoration="none" x="200" y="360">UNREGISTERED</text><text fill="#eeeeee" stroke="none" font-family="Arial" font-size="24px" font-style="normal" font-weight="normal" text-decoration="none" x="200" y="390">UNREGISTERED</text><text fill="#eeeeee" stroke="none" font-family="Arial" font-size="24px" font-style="normal" font-weight="normal" text-decoration="none" x="200" y="420">UNREGISTERED</text><text fill="#eeeeee" stroke="none" font-family="Arial" font-size="24px" font-style="normal" font-weight="normal" text-decoration="none" x="200" y="450">UNREGISTERED</text><text fill="#eeeeee" stroke="none" font-family="Arial" font-size="24px" font-style="normal" font-weight="normal" text-decoration="none" x="200" y="480">UNREGISTERED</text><text fill="#eeeeee" stroke="none" font-family="Arial" font-size="24px" font-style="normal" font-weight="normal" text-decoration="none" x="200" y="510">UNREGISTERED</text><text fill="#eeeeee" stroke="none" font-family="Arial" font-size="24px" font-style="normal" font-weight="normal" text-decoration="none" x="200" y="540">UNREGISTERED</text><text fill="#eeeeee" stroke="none" font-family="Arial" font-size="24px" font-style="normal" font-weight="normal" text-decoration="none" x="200" y="570">UNREGISTERED</text><text fill="#eeeeee" stroke="none" font-family="Arial" font-size="24px" font-style="normal" font-weight="normal" text-decoration="none" x="400" y="0">UNREGISTERED</text><text fill="#eeeeee" stroke="none" font-family="Arial" font-size="24px" font-style="normal" font-weight="normal" text-decoration="none" x="400" y="30">UNREGISTERED</text><text fill="#eeeeee" stroke="none" font-family="Arial" font-size="24px" font-style="normal" font-weight="normal" text-decoration="none" x="400" y="60">UNREGISTERED</text><text fill="#eeeeee" stroke="none" font-family="Arial" font-size="24px" font-style="normal" font-weight="normal" text-decoration="none" x="400" y="90">UNREGISTERED</text><text fill="#eeeeee" stroke="none" font-family="Arial" font-size="24px" font-style="normal" font-weight="normal" text-decoration="none" x="400" y="120">UNREGISTERED</text><text fill="#eeeeee" stroke="none" font-family="Arial" font-size="24px" font-style="normal" font-weight="normal" text-decoration="none" x="400" y="150">UNREGISTERED</text><text fill="#eeeeee" stroke="none" font-family="Arial" font-size="24px" font-style="normal" font-weight="normal" text-decoration="none" x="400" y="180">UNREGISTERED</text><text fill="#eeeeee" stroke="none" font-family="Arial" font-size="24px" font-style="normal" font-weight="normal" text-decoration="none" x="400" y="210">UNREGISTERED</text><text fill="#eeeeee" stroke="none" font-family="Arial" font-size="24px" font-style="normal" font-weight="normal" text-decoration="none" x="400" y="240">UNREGISTERED</text><text fill="#eeeeee" stroke="none" font-family="Arial" font-size="24px" font-style="normal" font-weight="normal" text-decoration="none" x="400" y="270">UNREGISTERED</text><text fill="#eeeeee" stroke="none" font-family="Arial" font-size="24px" font-style="normal" font-weight="normal" text-decoration="none" x="400" y="300">UNREGISTERED</text><text fill="#eeeeee" stroke="none" font-family="Arial" font-size="24px" font-style="normal" font-weight="normal" text-decoration="none" x="400" y="330">UNREGISTERED</text><text fill="#eeeeee" stroke="none" font-family="Arial" font-size="24px" font-style="normal" font-weight="normal" text-decoration="none" x="400" y="360">UNREGISTERED</text><text fill="#eeeeee" stroke="none" font-family="Arial" font-size="24px" font-style="normal" font-weight="normal" text-decoration="none" x="400" y="390">UNREGISTERED</text><text fill="#eeeeee" stroke="none" font-family="Arial" font-size="24px" font-style="normal" font-weight="normal" text-decoration="none" x="400" y="420">UNREGISTERED</text><text fill="#eeeeee" stroke="none" font-family="Arial" font-size="24px" font-style="normal" font-weight="normal" text-decoration="none" x="400" y="450">UNREGISTERED</text><text fill="#eeeeee" stroke="none" font-family="Arial" font-size="24px" font-style="normal" font-weight="normal" text-decoration="none" x="400" y="480">UNREGISTERED</text><text fill="#eeeeee" stroke="none" font-family="Arial" font-size="24px" font-style="normal" font-weight="normal" text-decoration="none" x="400" y="510">UNREGISTERED</text><text fill="#eeeeee" stroke="none" font-family="Arial" font-size="24px" font-style="normal" font-weight="normal" text-decoration="none" x="400" y="540">UNREGISTERED</text><text fill="#eeeeee" stroke="none" font-family="Arial" font-size="24px" font-style="normal" font-weight="normal" text-decoration="none" x="400" y="570">UNREGISTERED</text><text fill="#eeeeee" stroke="none" font-family="Arial" font-size="24px" font-style="normal" font-weight="normal" text-decoration="none" x="600" y="0">UNREGISTERED</text><text fill="#eeeeee" stroke="none" font-family="Arial" font-size="24px" font-style="normal" font-weight="normal" text-decoration="none" x="600" y="30">UNREGISTERED</text><text fill="#eeeeee" stroke="none" font-family="Arial" font-size="24px" font-style="normal" font-weight="normal" text-decoration="none" x="600" y="60">UNREGISTERED</text><text fill="#eeeeee" stroke="none" font-family="Arial" font-size="24px" font-style="normal" font-weight="normal" text-decoration="none" x="600" y="90">UNREGISTERED</text><text fill="#eeeeee" stroke="none" font-family="Arial" font-size="24px" font-style="normal" font-weight="normal" text-decoration="none" x="600" y="120">UNREGISTERED</text><text fill="#eeeeee" stroke="none" font-family="Arial" font-size="24px" font-style="normal" font-weight="normal" text-decoration="none" x="600" y="150">UNREGISTERED</text><text fill="#eeeeee" stroke="none" font-family="Arial" font-size="24px" font-style="normal" font-weight="normal" text-decoration="none" x="600" y="180">UNREGISTERED</text><text fill="#eeeeee" stroke="none" font-family="Arial" font-size="24px" font-style="normal" font-weight="normal" text-decoration="none" x="600" y="210">UNREGISTERED</text><text fill="#eeeeee" stroke="none" font-family="Arial" font-size="24px" font-style="normal" font-weight="normal" text-decoration="none" x="600" y="240">UNREGISTERED</text><text fill="#eeeeee" stroke="none" font-family="Arial" font-size="24px" font-style="normal" font-weight="normal" text-decoration="none" x="600" y="270">UNREGISTERED</text><text fill="#eeeeee" stroke="none" font-family="Arial" font-size="24px" font-style="normal" font-weight="normal" text-decoration="none" x="600" y="300">UNREGISTERED</text><text fill="#eeeeee" stroke="none" font-family="Arial" font-size="24px" font-style="normal" font-weight="normal" text-decoration="none" x="600" y="330">UNREGISTERED</text><text fill="#eeeeee" stroke="none" font-family="Arial" font-size="24px" font-style="normal" font-weight="normal" text-decoration="none" x="600" y="360">UNREGISTERED</text><text fill="#eeeeee" stroke="none" font-family="Arial" font-size="24px" font-style="normal" font-weight="normal" text-decoration="none" x="600" y="390">UNREGISTERED</text><text fill="#eeeeee" stroke="none" font-family="Arial" font-size="24px" font-style="normal" font-weight="normal" text-decoration="none" x="600" y="420">UNREGISTERED</text><text fill="#eeeeee" stroke="none" font-family="Arial" font-size="24px" font-style="normal" font-weight="normal" text-decoration="none" x="600" y="450">UNREGISTERED</text><text fill="#eeeeee" stroke="none" font-family="Arial" font-size="24px" font-style="normal" font-weight="normal" text-decoration="none" x="600" y="480">UNREGISTERED</text><text fill="#eeeeee" stroke="none" font-family="Arial" font-size="24px" font-style="normal" font-weight="normal" text-decoration="none" x="600" y="510">UNREGISTERED</text><text fill="#eeeeee" stroke="none" font-family="Arial" font-size="24px" font-style="normal" font-weight="normal" text-decoration="none" x="600" y="540">UNREGISTERED</text><text fill="#eeeeee" stroke="none" font-family="Arial" font-size="24px" font-style="normal" font-weight="normal" text-decoration="none" x="600" y="570">UNREGISTERED</text><text fill="#eeeeee" stroke="none" font-family="Arial" font-size="24px" font-style="normal" font-weight="normal" text-decoration="none" x="800" y="0">UNREGISTERED</text><text fill="#eeeeee" stroke="none" font-family="Arial" font-size="24px" font-style="normal" font-weight="normal" text-decoration="none" x="800" y="30">UNREGISTERED</text><text fill="#eeeeee" stroke="none" font-family="Arial" font-size="24px" font-style="normal" font-weight="normal" text-decoration="none" x="800" y="60">UNREGISTERED</text><text fill="#eeeeee" stroke="none" font-family="Arial" font-size="24px" font-style="normal" font-weight="normal" text-decoration="none" x="800" y="90">UNREGISTERED</text><text fill="#eeeeee" stroke="none" font-family="Arial" font-size="24px" font-style="normal" font-weight="normal" text-decoration="none" x="800" y="120">UNREGISTERED</text><text fill="#eeeeee" stroke="none" font-family="Arial" font-size="24px" font-style="normal" font-weight="normal" text-decoration="none" x="800" y="150">UNREGISTERED</text><text fill="#eeeeee" stroke="none" font-family="Arial" font-size="24px" font-style="normal" font-weight="normal" text-decoration="none" x="800" y="180">UNREGISTERED</text><text fill="#eeeeee" stroke="none" font-family="Arial" font-size="24px" font-style="normal" font-weight="normal" text-decoration="none" x="800" y="210">UNREGISTERED</text><text fill="#eeeeee" stroke="none" font-family="Arial" font-size="24px" font-style="normal" font-weight="normal" text-decoration="none" x="800" y="240">UNREGISTERED</text><text fill="#eeeeee" stroke="none" font-family="Arial" font-size="24px" font-style="normal" font-weight="normal" text-decoration="none" x="800" y="270">UNREGISTERED</text><text fill="#eeeeee" stroke="none" font-family="Arial" font-size="24px" font-style="normal" font-weight="normal" text-decoration="none" x="800" y="300">UNREGISTERED</text><text fill="#eeeeee" stroke="none" font-family="Arial" font-size="24px" font-style="normal" font-weight="normal" text-decoration="none" x="800" y="330">UNREGISTERED</text><text fill="#eeeeee" stroke="none" font-family="Arial" font-size="24px" font-style="normal" font-weight="normal" text-decoration="none" x="800" y="360">UNREGISTERED</text><text fill="#eeeeee" stroke="none" font-family="Arial" font-size="24px" font-style="normal" font-weight="normal" text-decoration="none" x="800" y="390">UNREGISTERED</text><text fill="#eeeeee" stroke="none" font-family="Arial" font-size="24px" font-style="normal" font-weight="normal" text-decoration="none" x="800" y="420">UNREGISTERED</text><text fill="#eeeeee" stroke="none" font-family="Arial" font-size="24px" font-style="normal" font-weight="normal" text-decoration="none" x="800" y="450">UNREGISTERED</text><text fill="#eeeeee" stroke="none" font-family="Arial" font-size="24px" font-style="normal" font-weight="normal" text-decoration="none" x="800" y="480">UNREGISTERED</text><text fill="#eeeeee" stroke="none" font-family="Arial" font-size="24px" font-style="normal" font-weight="normal" text-decoration="none" x="800" y="510">UNREGISTERED</text><text fill="#eeeeee" stroke="none" font-family="Arial" font-size="24px" font-style="normal" font-weight="normal" text-decoration="none" x="800" y="540">UNREGISTERED</text><text fill="#eeeeee" stroke="none" font-family="Arial" font-size="24px" font-style="normal" font-weight="normal" text-decoration="none" x="800" y="570">UNREGISTERED</text><text fill="#eeeeee" stroke="none" font-family="Arial" font-size="24px" font-style="normal" font-weight="normal" text-decoration="none" x="1000" y="0">UNREGISTERED</text><text fill="#eeeeee" stroke="none" font-family="Arial" font-size="24px" font-style="normal" font-weight="normal" text-decoration="none" x="1000" y="30">UNREGISTERED</text><text fill="#eeeeee" stroke="none" font-family="Arial" font-size="24px" font-style="normal" font-weight="normal" text-decoration="none" x="1000" y="60">UNREGISTERED</text><text fill="#eeeeee" stroke="none" font-family="Arial" font-size="24px" font-style="normal" font-weight="normal" text-decoration="none" x="1000" y="90">UNREGISTERED</text><text fill="#eeeeee" stroke="none" font-family="Arial" font-size="24px" font-style="normal" font-weight="normal" text-decoration="none" x="1000" y="120">UNREGISTERED</text><text fill="#eeeeee" stroke="none" font-family="Arial" font-size="24px" font-style="normal" font-weight="normal" text-decoration="none" x="1000" y="150">UNREGISTERED</text><text fill="#eeeeee" stroke="none" font-family="Arial" font-size="24px" font-style="normal" font-weight="normal" text-decoration="none" x="1000" y="180">UNREGISTERED</text><text fill="#eeeeee" stroke="none" font-family="Arial" font-size="24px" font-style="normal" font-weight="normal" text-decoration="none" x="1000" y="210">UNREGISTERED</text><text fill="#eeeeee" stroke="none" font-family="Arial" font-size="24px" font-style="normal" font-weight="normal" text-decoration="none" x="1000" y="240">UNREGISTERED</text><text fill="#eeeeee" stroke="none" font-family="Arial" font-size="24px" font-style="normal" font-weight="normal" text-decoration="none" x="1000" y="270">UNREGISTERED</text><text fill="#eeeeee" stroke="none" font-family="Arial" font-size="24px" font-style="normal" font-weight="normal" text-decoration="none" x="1000" y="300">UNREGISTERED</text><text fill="#eeeeee" stroke="none" font-family="Arial" font-size="24px" font-style="normal" font-weight="normal" text-decoration="none" x="1000" y="330">UNREGISTERED</text><text fill="#eeeeee" stroke="none" font-family="Arial" font-size="24px" font-style="normal" font-weight="normal" text-decoration="none" x="1000" y="360">UNREGISTERED</text><text fill="#eeeeee" stroke="none" font-family="Arial" font-size="24px" font-style="normal" font-weight="normal" text-decoration="none" x="1000" y="390">UNREGISTERED</text><text fill="#eeeeee" stroke="none" font-family="Arial" font-size="24px" font-style="normal" font-weight="normal" text-decoration="none" x="1000" y="420">UNREGISTERED</text><text fill="#eeeeee" stroke="none" font-family="Arial" font-size="24px" font-style="normal" font-weight="normal" text-decoration="none" x="1000" y="450">UNREGISTERED</text><text fill="#eeeeee" stroke="none" font-family="Arial" font-size="24px" font-style="normal" font-weight="normal" text-decoration="none" x="1000" y="480">UNREGISTERED</text><text fill="#eeeeee" stroke="none" font-family="Arial" font-size="24px" font-style="normal" font-weight="normal" text-decoration="none" x="1000" y="510">UNREGISTERED</text><text fill="#eeeeee" stroke="none" font-family="Arial" font-size="24px" font-style="normal" font-weight="normal" text-decoration="none" x="1000" y="540">UNREGISTERED</text><text fill="#eeeeee" stroke="none" font-family="Arial" font-size="24px" font-style="normal" font-weight="normal" text-decoration="none" x="1000" y="570">UNREGISTERED</text><g transform="translate(-60,-30) scale(1,1)"><path fill="#ffffff" stroke="none" d="M 111.3143172940341 47.3 C 111.3143172940341 43.82060576 114.19271901621592 41 117.743408203125 41 C 121.29409739003408 41 124.1724991122159 43.82060576 124.1724991122159 47.3 C 124.1724991122159 50.779394239999995 121.29409739003408 53.6 117.743408203125 53.6 C 114.19271901621592 53.6 111.3143172940341 50.779394239999995 111.3143172940341 47.3 Z"/></g><g transform="translate(-60,-30) scale(1,1)"><path fill="none" stroke="#000000" d="M 111.3143172940341 47.3 C 111.3143172940341 43.82060576 114.19271901621592 41 117.743408203125 41 C 121.29409739003408 41 124.1724991122159 43.82060576 124.1724991122159 47.3 C 124.1724991122159 50.779394239999995 121.29409739003408 53.6 117.743408203125 53.6 C 114.19271901621592 53.6 111.3143172940341 50.779394239999995 111.3143172940341 47.3 Z" stroke-miterlimit="10"/></g><g transform="translate(-60,-30) scale(1,1)"><path fill="none" stroke="#000000" d="M 117.743408203125 53.6 L 117.743408203125 66.4" stroke-miterlimit="10"/></g><g transform="translate(-60,-30) scale(1,1)"><path fill="none" stroke="#000000" d="M 110.93613547585227 58.4 L 124.55068093039773 58.4" stroke-miterlimit="10"/></g><g transform="translate(-60,-30) scale(1,1)"><path fill="none" stroke="#000000" d="M 117.743408203125 66.4 L 108.28886274857955 79" stroke-miterlimit="10"/></g><g transform="translate(-60,-30) scale(1,1)"><path fill="none" stroke="#000000" d="M 117.743408203125 66.4 L 127.19795365767045 79" stroke-miterlimit="10"/></g><g transform="translate(-60,-30) scale(1,1)"><g><path fill="none" stroke="none"/><text fill="#000000" stroke="none" font-family="Arial" font-size="13px" font-style="normal" font-weight="bold" text-decoration="none" x="103.727783203125" y="99.5">: بیمار</text></g></g><g transform="translate(-60,-30) scale(1,1)"><path fill="none" stroke="#000000" d="M 118.5 105 L 118.5 592" stroke-miterlimit="10" stroke-dasharray="3"/></g><g transform="translate(-60,-30) scale(1,1)"><rect fill="#C0C0C0" stroke="none" x="175" y="47" width="144.6708984375" height="39" opacity="0.2"/></g><g transform="translate(-60,-30) scale(1,1)"><rect fill="#ffffff" stroke="none" x="168" y="40" width="144.6708984375" height="39"/></g><g transform="translate(-60,-30) scale(1,1)"><path fill="none" stroke="#000000" d="M 168 40 L 312.6708984375 40 L 312.6708984375 79 L 168 79 L 168 40 Z Z" stroke-miterlimit="10"/></g><g transform="translate(-60,-30) scale(1,1)"><g><path fill="none" stroke="none"/><text fill="#000000" stroke="none" font-family="Arial" font-size="13px" font-style="normal" font-weight="bold" text-decoration="none" x="182.517822265625" y="59.5">SendAddressButton</text></g></g><g transform="translate(-60,-30) scale(1,1)"><path fill="none" stroke="#000000" d="M 241.5 80 L 241.5 184" stroke-miterlimit="10" stroke-dasharray="3"/></g><g transform="translate(-60,-30) scale(1,1)"><rect fill="#C0C0C0" stroke="none" x="343" y="107" width="149.0126953125" height="39" opacity="0.2"/></g><g transform="translate(-60,-30) scale(1,1)"><rect fill="#ffffff" stroke="none" x="336" y="100" width="149.0126953125" height="39"/></g><g transform="translate(-60,-30) scale(1,1)"><path fill="none" stroke="#000000" d="M 336 100 L 485.0126953125 100 L 485.0126953125 139 L 336 139 L 336 100 Z Z" stroke-miterlimit="10"/></g><g transform="translate(-60,-30) scale(1,1)"><g><path fill="none" stroke="none"/><text fill="#000000" stroke="none" font-family="Arial" font-size="13px" font-style="normal" font-weight="bold" text-decoration="none" x="350.52734375" y="119.5">SendAddressControl</text></g></g><g transform="translate(-60,-30) scale(1,1)"><path fill="none" stroke="#000000" d="M 411.5 140 L 411.5 594" stroke-miterlimit="10" stroke-dasharray="3"/></g><g transform="translate(-60,-30) scale(1,1)"><rect fill="#C0C0C0" stroke="none" x="519" y="155" width="103.51904296875" height="39" opacity="0.2"/></g><g transform="translate(-60,-30) scale(1,1)"><rect fill="#ffffff" stroke="none" x="512" y="148" width="103.51904296875" height="39"/></g><g transform="translate(-60,-30) scale(1,1)"><path fill="none" stroke="#000000" d="M 512 148 L 615.51904296875 148 L 615.51904296875 187 L 512 187 L 512 148 Z Z" stroke-miterlimit="10"/></g><g transform="translate(-60,-30) scale(1,1)"><g><path fill="none" stroke="none"/><text fill="#000000" stroke="none" font-family="Arial" font-size="13px" font-style="normal" font-weight="bold" text-decoration="none" x="524.75" y="167.5">AddressForm</text></g></g><g transform="translate(-60,-30) scale(1,1)"><path fill="none" stroke="#000000" d="M 564.5 188 L 564.5 594" stroke-miterlimit="10" stroke-dasharray="3"/></g><g transform="translate(-60,-30) scale(1,1)"><rect fill="#C0C0C0" stroke="none" x="847" y="47" width="103.73486328125" height="39" opacity="0.2"/></g><g transform="translate(-60,-30) scale(1,1)"><rect fill="#ffffff" stroke="none" x="840" y="40" width="103.73486328125" height="39"/></g><g transform="translate(-60,-30) scale(1,1)"><path fill="none" stroke="#000000" d="M 840 40 L 943.73486328125 40 L 943.73486328125 79 L 840 79 L 840 40 Z Z" stroke-miterlimit="10"/></g><g transform="translate(-60,-30) scale(1,1)"><g><path fill="none" stroke="none"/><text fill="#000000" stroke="none" font-family="Arial" font-size="13px" font-style="normal" font-weight="bold" text-decoration="none" x="850.85205078125" y="59.5">سامانه موقعیت یابی</text></g></g><g transform="translate(-60,-30) scale(1,1)"><path fill="none" stroke="#000000" d="M 892.5 80 L 892.5 520" stroke-miterlimit="10" stroke-dasharray="3"/></g><g transform="translate(-60,-30) scale(1,1)"><rect fill="#C0C0C0" stroke="none" x="663" y="47" width="151.20263671875" height="39" opacity="0.2"/></g><g transform="translate(-60,-30) scale(1,1)"><rect fill="#ffffff" stroke="none" x="656" y="40" width="151.20263671875" height="39"/></g><g transform="translate(-60,-30) scale(1,1)"><path fill="none" stroke="#000000" d="M 656 40 L 807.20263671875 40 L 807.20263671875 79 L 656 79 L 656 40 Z Z" stroke-miterlimit="10"/></g><g transform="translate(-60,-30) scale(1,1)"><g><path fill="none" stroke="none"/><text fill="#000000" stroke="none" font-family="Arial" font-size="13px" font-style="normal" font-weight="bold" text-decoration="none" x="669.08642578125" y="59.5">ManageSendAddress</text></g></g><g transform="translate(-60,-30) scale(1,1)"><path fill="none" stroke="#000000" d="M 732.5 80 L 732.5 536" stroke-miterlimit="10" stroke-dasharray="3"/></g><g transform="translate(-60,-30) scale(1,1)"><rect fill="#C0C0C0" stroke="none" x="999" y="499" width="71.736328125" height="39" opacity="0.2"/></g><g transform="translate(-60,-30) scale(1,1)"><rect fill="#ffffff" stroke="none" x="992" y="492" width="71.736328125" height="39"/></g><g transform="translate(-60,-30) scale(1,1)"><path fill="none" stroke="#000000" d="M 992 492 L 1063.736328125 492 L 1063.736328125 531 L 992 531 L 992 492 Z Z" stroke-miterlimit="10"/></g><g transform="translate(-60,-30) scale(1,1)"><g><path fill="none" stroke="none"/><text fill="#000000" stroke="none" font-family="Arial" font-size="13px" font-style="normal" font-weight="bold" text-decoration="none" x="1017.0517578125" y="511.5">مکان</text></g></g><g transform="translate(-60,-30) scale(1,1)"><path fill="none" stroke="#000000" d="M 1028.5 532 L 1028.5 581" stroke-miterlimit="10" stroke-dasharray="3"/></g><g transform="translate(-60,-30) scale(1,1)"><path fill="none" stroke="#000000" d="M 118 112 L 234 112" stroke-miterlimit="10"/></g><g transform="translate(-60,-30) scale(1,1)"><path fill="#000000" stroke="none" d="M 223.83732514237585 116.20951775601598 L 234 112 L 223.83732514237585 107.79048224398402"/></g><g transform="translate(-60,-30) scale(1,1)"><path fill="none" stroke="#000000" d="M 223.83732514237585 116.20951775601598 L 234 112 L 223.83732514237585 107.79048224398402 L 223.83732514237585 116.20951775601598" stroke-miterlimit="10"/></g><g transform="translate(-60,-30) scale(1,1)"><g><path fill="none" stroke="none"/><text fill="#000000" stroke="none" font-family="Arial" font-size="13px" font-style="normal" font-weight="normal" text-decoration="none" x="156.265869140625" y="108.5">press()</text></g></g><g transform="translate(-60,-30) scale(1,1)"><rect fill="#ffffff" stroke="none" x="234" y="112" width="13" height="28"/></g><g transform="translate(-60,-30) scale(1,1)"><path fill="none" stroke="#000000" d="M 234 112 L 247 112 L 247 140 L 234 140 L 234 112 Z Z" stroke-miterlimit="10"/></g><g transform="translate(-60,-30) scale(1,1)"><path fill="none" stroke="#000000" d="M 247 120 L 336 120" stroke-miterlimit="10" stroke-dasharray="3"/></g><g transform="translate(-60,-30) scale(1,1)"><path fill="none" stroke="#000000" d="M 325.83732514237585 124.20951775601598 L 336 120 L 325.83732514237585 115.79048224398402" stroke-miterlimit="10"/></g><g transform="translate(-60,-30) scale(1,1)"><g><path fill="none" stroke="none"/><text fill="#000000" stroke="none" font-family="Arial" font-size="13px" font-style="normal" font-weight="normal" text-decoration="none" x="266.5" y="116.5">«create»</text></g></g><g transform="translate(-60,-30) scale(1,1)"><path fill="none" stroke="#000000" d="M 411 168 L 512 168" stroke-miterlimit="10" stroke-dasharray="3"/></g><g transform="translate(-60,-30) scale(1,1)"><path fill="none" stroke="#000000" d="M 501.83732514237585 172.209517756016 L 512 168 L 501.83732514237585 163.790482243984" stroke-miterlimit="10"/></g><g transform="translate(-60,-30) scale(1,1)"><g><path fill="none" stroke="none"/><text fill="#000000" stroke="none" font-family="Arial" font-size="13px" font-style="normal" font-weight="normal" text-decoration="none" x="438.5" y="163.5">«create»</text></g></g><g transform="translate(-60,-30) scale(1,1)"><path fill="none" stroke="#000000" d="M 118 209 L 557 209" stroke-miterlimit="10"/></g><g transform="translate(-60,-30) scale(1,1)"><path fill="#000000" stroke="none" d="M 546.8373251423759 213.209517756016 L 557 209 L 546.8373251423758 204.790482243984"/></g><g transform="translate(-60,-30) scale(1,1)"><path fill="none" stroke="#000000" d="M 546.8373251423759 213.209517756016 L 557 209 L 546.8373251423758 204.790482243984 L 546.8373251423759 213.209517756016" stroke-miterlimit="10"/></g><g transform="translate(-60,-30) scale(1,1)"><g><path fill="none" stroke="none"/><text fill="#000000" stroke="none" font-family="Arial" font-size="13px" font-style="normal" font-weight="normal" text-decoration="none" x="300.5" y="205.5">fillContents()</text></g></g><g transform="translate(-60,-30) scale(1,1)"><rect fill="#ffffff" stroke="none" x="557" y="209" width="13" height="28"/></g><g transform="translate(-60,-30) scale(1,1)"><path fill="none" stroke="#000000" d="M 557 209 L 570 209 L 570 237 L 557 237 L 557 209 Z Z" stroke-miterlimit="10"/></g><g transform="translate(-60,-30) scale(1,1)"><path fill="none" stroke="#000000" d="M 118 248 L 557 248" stroke-miterlimit="10"/></g><g transform="translate(-60,-30) scale(1,1)"><path fill="#000000" stroke="none" d="M 546.8373251423759 252.209517756016 L 557 248 L 546.8373251423758 243.790482243984"/></g><g transform="translate(-60,-30) scale(1,1)"><path fill="none" stroke="#000000" d="M 546.8373251423759 252.209517756016 L 557 248 L 546.8373251423758 243.790482243984 L 546.8373251423759 252.209517756016" stroke-miterlimit="10"/></g><g transform="translate(-60,-30) scale(1,1)"><g><path fill="none" stroke="none"/><text fill="#000000" stroke="none" font-family="Arial" font-size="13px" font-style="normal" font-weight="normal" text-decoration="none" x="314.015869140625" y="244.5">submit()</text></g></g><g transform="translate(-60,-30) scale(1,1)"><rect fill="#ffffff" stroke="none" x="557" y="248" width="13" height="28"/></g><g transform="translate(-60,-30) scale(1,1)"><path fill="none" stroke="#000000" d="M 557 248 L 570 248 L 570 276 L 557 276 L 557 248 Z Z" stroke-miterlimit="10"/></g><g transform="translate(-60,-30) scale(1,1)"><path fill="none" stroke="#000000" d="M 564 297 L 417 297" stroke-miterlimit="10"/></g><g transform="translate(-60,-30) scale(1,1)"><path fill="#000000" stroke="none" d="M 427.16267485762415 292.790482243984 L 417 297 L 427.16267485762415 301.209517756016"/></g><g transform="translate(-60,-30) scale(1,1)"><path fill="none" stroke="#000000" d="M 427.16267485762415 292.790482243984 L 417 297 L 427.16267485762415 301.209517756016 L 427.16267485762415 292.790482243984" stroke-miterlimit="10"/></g><g transform="translate(-60,-30) scale(1,1)"><g><path fill="none" stroke="none"/><text fill="#000000" stroke="none" font-family="Arial" font-size="13px" font-style="normal" font-weight="normal" text-decoration="none" x="440.5" y="291.5">submitAddress()</text></g></g><g transform="translate(-60,-30) scale(1,1)"><rect fill="#ffffff" stroke="none" x="404" y="297" width="13" height="28"/></g><g transform="translate(-60,-30) scale(1,1)"><path fill="none" stroke="#000000" d="M 404 297 L 417 297 L 417 325 L 404 325 L 404 297 Z Z" stroke-miterlimit="10"/></g><g transform="translate(-60,-30) scale(1,1)"><path fill="none" stroke="#000000" d="M 411 328 L 725 328" stroke-miterlimit="10"/></g><g transform="translate(-60,-30) scale(1,1)"><path fill="#000000" stroke="none" d="M 714.8373251423759 332.209517756016 L 725 328 L 714.8373251423758 323.790482243984"/></g><g transform="translate(-60,-30) scale(1,1)"><path fill="none" stroke="#000000" d="M 714.8373251423759 332.209517756016 L 725 328 L 714.8373251423758 323.790482243984 L 714.8373251423759 332.209517756016" stroke-miterlimit="10"/></g><g transform="translate(-60,-30) scale(1,1)"><g><path fill="none" stroke="none"/><text fill="#000000" stroke="none" font-family="Arial" font-size="13px" font-style="normal" font-weight="normal" text-decoration="none" x="567.5" y="324.5">submitAddressToGPS()</text></g></g><g transform="translate(-60,-30) scale(1,1)"><rect fill="#ffffff" stroke="none" x="725" y="328" width="13" height="28"/></g><g transform="translate(-60,-30) scale(1,1)"><path fill="none" stroke="#000000" d="M 725 328 L 738 328 L 738 356 L 725 356 L 725 328 Z Z" stroke-miterlimit="10"/></g><g transform="translate(-60,-30) scale(1,1)"><path fill="none" stroke="#000000" d="M 738 336 L 885 336" stroke-miterlimit="10"/></g><g transform="translate(-60,-30) scale(1,1)"><path fill="#000000" stroke="none" d="M 874.8373251423759 340.209517756016 L 885 336 L 874.8373251423758 331.790482243984"/></g><g transform="translate(-60,-30) scale(1,1)"><path fill="none" stroke="#000000" d="M 874.8373251423759 340.209517756016 L 885 336 L 874.8373251423758 331.790482243984 L 874.8373251423759 340.209517756016" stroke-miterlimit="10"/></g><g transform="translate(-60,-30) scale(1,1)"><g><path fill="none" stroke="none"/><text fill="#000000" stroke="none" font-family="Arial" font-size="13px" font-style="normal" font-weight="normal" text-decoration="none" x="745.5" y="332.5">sendAddress(address)</text></g></g><g transform="translate(-60,-30) scale(1,1)"><rect fill="#ffffff" stroke="none" x="885" y="336" width="13" height="28"/></g><g transform="translate(-60,-30) scale(1,1)"><path fill="none" stroke="#000000" d="M 885 336 L 898 336 L 898 364 L 885 364 L 885 336 Z Z" stroke-miterlimit="10"/></g><g transform="translate(-60,-30) scale(1,1)"><path fill="none" stroke="#000000" d="M 892 392 L 922 392 L 922 412 L 898 412" stroke-miterlimit="10"/></g><g transform="translate(-60,-30) scale(1,1)"><path fill="#000000" stroke="none" d="M 908.1626748576241 407.790482243984 L 898 412 L 908.1626748576241 416.209517756016"/></g><g transform="translate(-60,-30) scale(1,1)"><path fill="none" stroke="#000000" d="M 908.1626748576241 407.790482243984 L 898 412 L 908.1626748576241 416.209517756016 L 908.1626748576241 407.790482243984" stroke-miterlimit="10"/></g><g transform="translate(-60,-30) scale(1,1)"><g><path fill="none" stroke="none"/><text fill="#000000" stroke="none" font-family="Arial" font-size="13px" font-style="normal" font-weight="normal" text-decoration="none" x="927.5" y="404.5">validateAddress(address)</text></g></g><g transform="translate(-60,-30) scale(1,1)"><rect fill="#ffffff" stroke="none" x="885" y="412" width="13" height="28"/></g><g transform="translate(-60,-30) scale(1,1)"><path fill="none" stroke="#000000" d="M 885 412 L 898 412 L 898 440 L 885 440 L 885 412 Z Z" stroke-miterlimit="10"/></g><g transform="translate(-60,-30) scale(1,1)"><path fill="none" stroke="#000000" d="M 892 465 L 732 465" stroke-miterlimit="10" stroke-dasharray="3"/></g><g transform="translate(-60,-30) scale(1,1)"><path fill="none" stroke="#000000" d="M 742.1626748576241 460.790482243984 L 732 465 L 742.1626748576241 469.209517756016" stroke-miterlimit="10"/></g><g transform="translate(-60,-30) scale(1,1)"><g><path fill="none" stroke="none"/><text fill="#000000" stroke="none" font-family="Arial" font-size="13px" font-style="normal" font-weight="normal" text-decoration="none" x="800.5" y="459.5">OK</text></g></g><g transform="translate(-60,-30) scale(1,1)"><path fill="none" stroke="#000000" d="M 732 482 L 411 482" stroke-miterlimit="10" stroke-dasharray="3"/></g><g transform="translate(-60,-30) scale(1,1)"><path fill="none" stroke="#000000" d="M 421.16267485762415 477.790482243984 L 411 482 L 421.16267485762415 486.209517756016" stroke-miterlimit="10"/></g><g transform="translate(-60,-30) scale(1,1)"><g><path fill="none" stroke="none"/><text fill="#000000" stroke="none" font-family="Arial" font-size="13px" font-style="normal" font-weight="normal" text-decoration="none" x="558.5" y="474.5">OK</text></g></g><g transform="translate(-60,-30) scale(1,1)"><path fill="none" stroke="#000000" d="M 411 512 L 992 512" stroke-miterlimit="10" stroke-dasharray="3"/></g><g transform="translate(-60,-30) scale(1,1)"><path fill="none" stroke="#000000" d="M 981.8373251423759 516.209517756016 L 992 512 L 981.8373251423758 507.790482243984" stroke-miterlimit="10"/></g><g transform="translate(-60,-30) scale(1,1)"><g><path fill="none" stroke="none"/><text fill="#000000" stroke="none" font-family="Arial" font-size="13px" font-style="normal" font-weight="normal" text-decoration="none" x="910.5" y="508.5">«create»</text></g></g><g transform="translate(-60,-30) scale(1,1)"><path fill="none" stroke="#000000" d="M 411 552 L 557 552" stroke-miterlimit="10"/></g><g transform="translate(-60,-30) scale(1,1)"><path fill="#000000" stroke="none" d="M 546.8373251423759 556.209517756016 L 557 552 L 546.8373251423758 547.790482243984"/></g><g transform="translate(-60,-30) scale(1,1)"><path fill="none" stroke="#000000" d="M 546.8373251423759 556.209517756016 L 557 552 L 546.8373251423758 547.790482243984 L 546.8373251423759 556.209517756016" stroke-miterlimit="10"/></g><g transform="translate(-60,-30) scale(1,1)"><path fill="none" stroke="#000000" d="M 554 584 L 574 604" stroke-miterlimit="10"/></g><g transform="translate(-60,-30) scale(1,1)"><path fill="none" stroke="#000000" d="M 574 584 L 554 604" stroke-miterlimit="10"/></g><g transform="translate(-60,-30) scale(1,1)"><g><path fill="none" stroke="none"/><text fill="#000000" stroke="none" font-family="Arial" font-size="13px" font-style="normal" font-weight="normal" text-decoration="none" x="455.5" y="548.5">«destroy»</text></g></g><g transform="translate(-60,-30) scale(1,1)"><rect fill="#ffffff" stroke="none" x="557" y="552" width="13" height="28"/></g><g transform="translate(-60,-30) scale(1,1)"><path fill="none" stroke="#000000" d="M 557 552 L 570 552 L 570 580 L 557 580 L 557 552 Z Z" stroke-miterlimit="10"/></g></g></svg>