<svg version="1.1" xmlns="http://www.w3.org/2000/svg" xmlns:xlink="http://www.w3.org/1999/xlink" width="1102.12451171875" height="398"><defs/><g><text fill="#eeeeee" stroke="none" font-family="Arial" font-size="24px" font-style="normal" font-weight="normal" text-decoration="none" x="0" y="0"></text><text fill="#eeeeee" stroke="none" font-family="Arial" font-size="24px" font-style="normal" font-weight="normal" text-decoration="none" x="0" y="30"></text><text fill="#eeeeee" stroke="none" font-family="Arial" font-size="24px" font-style="normal" font-weight="normal" text-decoration="none" x="0" y="60"></text><text fill="#eeeeee" stroke="none" font-family="Arial" font-size="24px" font-style="normal" font-weight="normal" text-decoration="none" x="0" y="90"></text><text fill="#eeeeee" stroke="none" font-family="Arial" font-size="24px" font-style="normal" font-weight="normal" text-decoration="none" x="0" y="120"></text><text fill="#eeeeee" stroke="none" font-family="Arial" font-size="24px" font-style="normal" font-weight="normal" text-decoration="none" x="0" y="150"></text><text fill="#eeeeee" stroke="none" font-family="Arial" font-size="24px" font-style="normal" font-weight="normal" text-decoration="none" x="0" y="180"></text><text fill="#eeeeee" stroke="none" font-family="Arial" font-size="24px" font-style="normal" font-weight="normal" text-decoration="none" x="0" y="210"></text><text fill="#eeeeee" stroke="none" font-family="Arial" font-size="24px" font-style="normal" font-weight="normal" text-decoration="none" x="0" y="240"></text><text fill="#eeeeee" stroke="none" font-family="Arial" font-size="24px" font-style="normal" font-weight="normal" text-decoration="none" x="0" y="270"></text><text fill="#eeeeee" stroke="none" font-family="Arial" font-size="24px" font-style="normal" font-weight="normal" text-decoration="none" x="0" y="300"></text><text fill="#eeeeee" stroke="none" font-family="Arial" font-size="24px" font-style="normal" font-weight="normal" text-decoration="none" x="0" y="330"></text><text fill="#eeeeee" stroke="none" font-family="Arial" font-size="24px" font-style="normal" font-weight="normal" text-decoration="none" x="0" y="360"></text><text fill="#eeeeee" stroke="none" font-family="Arial" font-size="24px" font-style="normal" font-weight="normal" text-decoration="none" x="0" y="390"></text><text fill="#eeeeee" stroke="none" font-family="Arial" font-size="24px" font-style="normal" font-weight="normal" text-decoration="none" x="200" y="0"></text><text fill="#eeeeee" stroke="none" font-family="Arial" font-size="24px" font-style="normal" font-weight="normal" text-decoration="none" x="200" y="30"></text><text fill="#eeeeee" stroke="none" font-family="Arial" font-size="24px" font-style="normal" font-weight="normal" text-decoration="none" x="200" y="60"></text><text fill="#eeeeee" stroke="none" font-family="Arial" font-size="24px" font-style="normal" font-weight="normal" text-decoration="none" x="200" y="90"></text><text fill="#eeeeee" stroke="none" font-family="Arial" font-size="24px" font-style="normal" font-weight="normal" text-decoration="none" x="200" y="120"></text><text fill="#eeeeee" stroke="none" font-family="Arial" font-size="24px" font-style="normal" font-weight="normal" text-decoration="none" x="200" y="150"></text><text fill="#eeeeee" stroke="none" font-family="Arial" font-size="24px" font-style="normal" font-weight="normal" text-decoration="none" x="200" y="180"></text><text fill="#eeeeee" stroke="none" font-family="Arial" font-size="24px" font-style="normal" font-weight="normal" text-decoration="none" x="200" y="210"></text><text fill="#eeeeee" stroke="none" font-family="Arial" font-size="24px" font-style="normal" font-weight="normal" text-decoration="none" x="200" y="240"></text><text fill="#eeeeee" stroke="none" font-family="Arial" font-size="24px" font-style="normal" font-weight="normal" text-decoration="none" x="200" y="270"></text><text fill="#eeeeee" stroke="none" font-family="Arial" font-size="24px" font-style="normal" font-weight="normal" text-decoration="none" x="200" y="300"></text><text fill="#eeeeee" stroke="none" font-family="Arial" font-size="24px" font-style="normal" font-weight="normal" text-decoration="none" x="200" y="330"></text><text fill="#eeeeee" stroke="none" font-family="Arial" font-size="24px" font-style="normal" font-weight="normal" text-decoration="none" x="200" y="360"></text><text fill="#eeeeee" stroke="none" font-family="Arial" font-size="24px" font-style="normal" font-weight="normal" text-decoration="none" x="200" y="390"></text><text fill="#eeeeee" stroke="none" font-family="Arial" font-size="24px" font-style="normal" font-weight="normal" text-decoration="none" x="400" y="0"></text><text fill="#eeeeee" stroke="none" font-family="Arial" font-size="24px" font-style="normal" font-weight="normal" text-decoration="none" x="400" y="30"></text><text fill="#eeeeee" stroke="none" font-family="Arial" font-size="24px" font-style="normal" font-weight="normal" text-decoration="none" x="400" y="60"></text><text fill="#eeeeee" stroke="none" font-family="Arial" font-size="24px" font-style="normal" font-weight="normal" text-decoration="none" x="400" y="90"></text><text fill="#eeeeee" stroke="none" font-family="Arial" font-size="24px" font-style="normal" font-weight="normal" text-decoration="none" x="400" y="120"></text><text fill="#eeeeee" stroke="none" font-family="Arial" font-size="24px" font-style="normal" font-weight="normal" text-decoration="none" x="400" y="150"></text><text fill="#eeeeee" stroke="none" font-family="Arial" font-size="24px" font-style="normal" font-weight="normal" text-decoration="none" x="400" y="180"></text><text fill="#eeeeee" stroke="none" font-family="Arial" font-size="24px" font-style="normal" font-weight="normal" text-decoration="none" x="400" y="210"></text><text fill="#eeeeee" stroke="none" font-family="Arial" font-size="24px" font-style="normal" font-weight="normal" text-decoration="none" x="400" y="240"></text><text fill="#eeeeee" stroke="none" font-family="Arial" font-size="24px" font-style="normal" font-weight="normal" text-decoration="none" x="400" y="270"></text><text fill="#eeeeee" stroke="none" font-family="Arial" font-size="24px" font-style="normal" font-weight="normal" text-decoration="none" x="400" y="300"></text><text fill="#eeeeee" stroke="none" font-family="Arial" font-size="24px" font-style="normal" font-weight="normal" text-decoration="none" x="400" y="330"></text><text fill="#eeeeee" stroke="none" font-family="Arial" font-size="24px" font-style="normal" font-weight="normal" text-decoration="none" x="400" y="360"></text><text fill="#eeeeee" stroke="none" font-family="Arial" font-size="24px" font-style="normal" font-weight="normal" text-decoration="none" x="400" y="390"></text><text fill="#eeeeee" stroke="none" font-family="Arial" font-size="24px" font-style="normal" font-weight="normal" text-decoration="none" x="600" y="0"></text><text fill="#eeeeee" stroke="none" font-family="Arial" font-size="24px" font-style="normal" font-weight="normal" text-decoration="none" x="600" y="30"></text><text fill="#eeeeee" stroke="none" font-family="Arial" font-size="24px" font-style="normal" font-weight="normal" text-decoration="none" x="600" y="60"></text><text fill="#eeeeee" stroke="none" font-family="Arial" font-size="24px" font-style="normal" font-weight="normal" text-decoration="none" x="600" y="90"></text><text fill="#eeeeee" stroke="none" font-family="Arial" font-size="24px" font-style="normal" font-weight="normal" text-decoration="none" x="600" y="120"></text><text fill="#eeeeee" stroke="none" font-family="Arial" font-size="24px" font-style="normal" font-weight="normal" text-decoration="none" x="600" y="150"></text><text fill="#eeeeee" stroke="none" font-family="Arial" font-size="24px" font-style="normal" font-weight="normal" text-decoration="none" x="600" y="180"></text><text fill="#eeeeee" stroke="none" font-family="Arial" font-size="24px" font-style="normal" font-weight="normal" text-decoration="none" x="600" y="210"></text><text fill="#eeeeee" stroke="none" font-family="Arial" font-size="24px" font-style="normal" font-weight="normal" text-decoration="none" x="600" y="240"></text><text fill="#eeeeee" stroke="none" font-family="Arial" font-size="24px" font-style="normal" font-weight="normal" text-decoration="none" x="600" y="270"></text><text fill="#eeeeee" stroke="none" font-family="Arial" font-size="24px" font-style="normal" font-weight="normal" text-decoration="none" x="600" y="300"></text><text fill="#eeeeee" stroke="none" font-family="Arial" font-size="24px" font-style="normal" font-weight="normal" text-decoration="none" x="600" y="330"></text><text fill="#eeeeee" stroke="none" font-family="Arial" font-size="24px" font-style="normal" font-weight="normal" text-decoration="none" x="600" y="360"></text><text fill="#eeeeee" stroke="none" font-family="Arial" font-size="24px" font-style="normal" font-weight="normal" text-decoration="none" x="600" y="390"></text><text fill="#eeeeee" stroke="none" font-family="Arial" font-size="24px" font-style="normal" font-weight="normal" text-decoration="none" x="800" y="0"></text><text fill="#eeeeee" stroke="none" font-family="Arial" font-size="24px" font-style="normal" font-weight="normal" text-decoration="none" x="800" y="30"></text><text fill="#eeeeee" stroke="none" font-family="Arial" font-size="24px" font-style="normal" font-weight="normal" text-decoration="none" x="800" y="60"></text><text fill="#eeeeee" stroke="none" font-family="Arial" font-size="24px" font-style="normal" font-weight="normal" text-decoration="none" x="800" y="90"></text><text fill="#eeeeee" stroke="none" font-family="Arial" font-size="24px" font-style="normal" font-weight="normal" text-decoration="none" x="800" y="120"></text><text fill="#eeeeee" stroke="none" font-family="Arial" font-size="24px" font-style="normal" font-weight="normal" text-decoration="none" x="800" y="150"></text><text fill="#eeeeee" stroke="none" font-family="Arial" font-size="24px" font-style="normal" font-weight="normal" text-decoration="none" x="800" y="180"></text><text fill="#eeeeee" stroke="none" font-family="Arial" font-size="24px" font-style="normal" font-weight="normal" text-decoration="none" x="800" y="210"></text><text fill="#eeeeee" stroke="none" font-family="Arial" font-size="24px" font-style="normal" font-weight="normal" text-decoration="none" x="800" y="240"></text><text fill="#eeeeee" stroke="none" font-family="Arial" font-size="24px" font-style="normal" font-weight="normal" text-decoration="none" x="800" y="270"></text><text fill="#eeeeee" stroke="none" font-family="Arial" font-size="24px" font-style="normal" font-weight="normal" text-decoration="none" x="800" y="300"></text><text fill="#eeeeee" stroke="none" font-family="Arial" font-size="24px" font-style="normal" font-weight="normal" text-decoration="none" x="800" y="330"></text><text fill="#eeeeee" stroke="none" font-family="Arial" font-size="24px" font-style="normal" font-weight="normal" text-decoration="none" x="800" y="360"></text><text fill="#eeeeee" stroke="none" font-family="Arial" font-size="24px" font-style="normal" font-weight="normal" text-decoration="none" x="800" y="390"></text><text fill="#eeeeee" stroke="none" font-family="Arial" font-size="24px" font-style="normal" font-weight="normal" text-decoration="none" x="1000" y="0"></text><text fill="#eeeeee" stroke="none" font-family="Arial" font-size="24px" font-style="normal" font-weight="normal" text-decoration="none" x="1000" y="30"></text><text fill="#eeeeee" stroke="none" font-family="Arial" font-size="24px" font-style="normal" font-weight="normal" text-decoration="none" x="1000" y="60"></text><text fill="#eeeeee" stroke="none" font-family="Arial" font-size="24px" font-style="normal" font-weight="normal" text-decoration="none" x="1000" y="90"></text><text fill="#eeeeee" stroke="none" font-family="Arial" font-size="24px" font-style="normal" font-weight="normal" text-decoration="none" x="1000" y="120"></text><text fill="#eeeeee" stroke="none" font-family="Arial" font-size="24px" font-style="normal" font-weight="normal" text-decoration="none" x="1000" y="150"></text><text fill="#eeeeee" stroke="none" font-family="Arial" font-size="24px" font-style="normal" font-weight="normal" text-decoration="none" x="1000" y="180"></text><text fill="#eeeeee" stroke="none" font-family="Arial" font-size="24px" font-style="normal" font-weight="normal" text-decoration="none" x="1000" y="210"></text><text fill="#eeeeee" stroke="none" font-family="Arial" font-size="24px" font-style="normal" font-weight="normal" text-decoration="none" x="1000" y="240"></text><text fill="#eeeeee" stroke="none" font-family="Arial" font-size="24px" font-style="normal" font-weight="normal" text-decoration="none" x="1000" y="270"></text><text fill="#eeeeee" stroke="none" font-family="Arial" font-size="24px" font-style="normal" font-weight="normal" text-decoration="none" x="1000" y="300"></text><text fill="#eeeeee" stroke="none" font-family="Arial" font-size="24px" font-style="normal" font-weight="normal" text-decoration="none" x="1000" y="330"></text><text fill="#eeeeee" stroke="none" font-family="Arial" font-size="24px" font-style="normal" font-weight="normal" text-decoration="none" x="1000" y="360"></text><text fill="#eeeeee" stroke="none" font-family="Arial" font-size="24px" font-style="normal" font-weight="normal" text-decoration="none" x="1000" y="390"></text><g transform="translate(-278,2) scale(1,1)"><path fill="#ffffff" stroke="none" d="M 333.0181747159091 47.3 C 333.0181747159091 43.82060576 335.8965764380909 41 339.447265625 41 C 342.9979548119091 41 345.876356534091 43.82060576 345.876356534091 47.3 C 345.876356534091 50.779394239999995 342.9979548119091 53.6 339.447265625 53.6 C 335.8965764380909 53.6 333.0181747159091 50.779394239999995 333.0181747159091 47.3 Z"/></g><g transform="translate(-278,2) scale(1,1)"><path fill="none" stroke="#000000" d="M 333.0181747159091 47.3 C 333.0181747159091 43.82060576 335.8965764380909 41 339.447265625 41 C 342.9979548119091 41 345.876356534091 43.82060576 345.876356534091 47.3 C 345.876356534091 50.779394239999995 342.9979548119091 53.6 339.447265625 53.6 C 335.8965764380909 53.6 333.0181747159091 50.779394239999995 333.0181747159091 47.3 Z" stroke-miterlimit="10"/></g><g transform="translate(-278,2) scale(1,1)"><path fill="none" stroke="#000000" d="M 339.447265625 53.6 L 339.447265625 66.4" stroke-miterlimit="10"/></g><g transform="translate(-278,2) scale(1,1)"><path fill="none" stroke="#000000" d="M 332.63999289772727 58.4 L 346.2545383522728 58.4" stroke-miterlimit="10"/></g><g transform="translate(-278,2) scale(1,1)"><path fill="none" stroke="#000000" d="M 339.447265625 66.4 L 329.99272017045456 79" stroke-miterlimit="10"/></g><g transform="translate(-278,2) scale(1,1)"><path fill="none" stroke="#000000" d="M 339.447265625 66.4 L 348.9018110795455 79" stroke-miterlimit="10"/></g><g transform="translate(-278,2) scale(1,1)"><g><path fill="none" stroke="none"/><text fill="#000000" stroke="none" font-family="Arial" font-size="13px" font-style="normal" font-weight="bold" text-decoration="none" x="296.083251953125" y="99.5">patient: Patient</text></g></g><g transform="translate(-278,2) scale(1,1)"><path fill="none" stroke="#000000" d="M 340.5 105 L 340.5 376" stroke-miterlimit="10" stroke-dasharray="3"/></g><g transform="translate(-278,2) scale(1,1)"><rect fill="#C0C0C0" stroke="none" x="535" y="47" width="144" height="39" opacity="0.2"/></g><g transform="translate(-278,2) scale(1,1)"><rect fill="#ffffff" stroke="none" x="528" y="40" width="144" height="39"/></g><g transform="translate(-278,2) scale(1,1)"><path fill="none" stroke="#000000" d="M 528 40 L 672 40 L 672 79 L 528 79 L 528 40 Z Z" stroke-miterlimit="10"/></g><g transform="translate(-278,2) scale(1,1)"><g><path fill="none" stroke="none"/><text fill="#000000" stroke="none" font-family="Arial" font-size="13px" font-style="normal" font-weight="bold" text-decoration="none" x="542.91552734375" y="59.5">RequestTestControl</text></g></g><g transform="translate(-278,2) scale(1,1)"><path fill="none" stroke="#000000" d="M 601.5 80 L 601.5 386" stroke-miterlimit="10" stroke-dasharray="3"/></g><g transform="translate(-278,2) scale(1,1)"><g><path fill="none" stroke="none"/><text fill="#ff7f00" stroke="none" font-family="Arial" font-size="13px" font-style="normal" font-weight="normal" text-decoration="none" x="309" y="26">allocatePhlebotomist Sequence Diagram</text></g></g><g transform="translate(-278,2) scale(1,1)"><rect fill="#C0C0C0" stroke="none" x="1231" y="47" width="146.12451171875" height="39" opacity="0.2"/></g><g transform="translate(-278,2) scale(1,1)"><rect fill="#ffffff" stroke="none" x="1224" y="40" width="146.12451171875" height="39"/></g><g transform="translate(-278,2) scale(1,1)"><path fill="none" stroke="#000000" d="M 1224 40 L 1370.12451171875 40 L 1370.12451171875 79 L 1224 79 L 1224 40 Z Z" stroke-miterlimit="10"/></g><g transform="translate(-278,2) scale(1,1)"><g><path fill="none" stroke="none"/><text fill="#000000" stroke="none" font-family="Arial" font-size="13px" font-style="normal" font-weight="bold" text-decoration="none" x="1238.53369140625" y="59.5">sampling : Sampling</text></g></g><g transform="translate(-278,2) scale(1,1)"><path fill="none" stroke="#000000" d="M 1298.5 80 L 1298.5 378" stroke-miterlimit="10" stroke-dasharray="3"/></g><g transform="translate(-278,2) scale(1,1)"><rect fill="#C0C0C0" stroke="none" x="783" y="47" width="194.49365234375" height="39" opacity="0.2"/></g><g transform="translate(-278,2) scale(1,1)"><rect fill="#ffffff" stroke="none" x="776" y="40" width="194.49365234375" height="39"/></g><g transform="translate(-278,2) scale(1,1)"><path fill="none" stroke="#000000" d="M 776 40 L 970.49365234375 40 L 970.49365234375 79 L 776 79 L 776 40 Z Z" stroke-miterlimit="10"/></g><g transform="translate(-278,2) scale(1,1)"><g><path fill="none" stroke="none"/><text fill="#000000" stroke="none" font-family="Arial" font-size="13px" font-style="normal" font-weight="bold" text-decoration="none" x="793.399658203125" y="59.5">phlebotomist : Phlebotomist</text></g></g><g transform="translate(-278,2) scale(1,1)"><path fill="none" stroke="#000000" d="M 874.5 80 L 874.5 322" stroke-miterlimit="10" stroke-dasharray="3"/></g><g transform="translate(-278,2) scale(1,1)"><rect fill="#C0C0C0" stroke="none" x="1007" y="47" width="174.0732421875" height="39" opacity="0.2"/></g><g transform="translate(-278,2) scale(1,1)"><rect fill="#ffffff" stroke="none" x="1000" y="40" width="174.0732421875" height="39"/></g><g transform="translate(-278,2) scale(1,1)"><path fill="none" stroke="#000000" d="M 1000 40 L 1174.0732421875 40 L 1174.0732421875 79 L 1000 79 L 1000 40 Z Z" stroke-miterlimit="10"/></g><g transform="translate(-278,2) scale(1,1)"><g><path fill="none" stroke="none"/><text fill="#000000" stroke="none" font-family="Arial" font-size="13px" font-style="normal" font-weight="bold" text-decoration="none" x="1014.416259765625" y="59.5">testReuest : TestRequest</text></g></g><g transform="translate(-278,2) scale(1,1)"><path fill="none" stroke="#000000" d="M 1088.5 80 L 1088.5 378" stroke-miterlimit="10" stroke-dasharray="3"/></g><g transform="translate(-278,2) scale(1,1)"><path fill="none" stroke="#000000" d="M 340 120 L 594 120" stroke-miterlimit="10"/></g><g transform="translate(-278,2) scale(1,1)"><path fill="#000000" stroke="none" d="M 583.8373251423759 124.20951775601598 L 594 120 L 583.8373251423758 115.79048224398402"/></g><g transform="translate(-278,2) scale(1,1)"><path fill="none" stroke="#000000" d="M 583.8373251423759 124.20951775601598 L 594 120 L 583.8373251423758 115.79048224398402 L 583.8373251423759 124.20951775601598" stroke-miterlimit="10"/></g><g transform="translate(-278,2) scale(1,1)"><g><path fill="none" stroke="none"/><text fill="#000000" stroke="none" font-family="Arial" font-size="13px" font-style="normal" font-weight="normal" text-decoration="none" x="402.5" y="116.5">allocatePhlebotomist()</text></g></g><g transform="translate(-278,2) scale(1,1)"><rect fill="#ffffff" stroke="none" x="594" y="120" width="13" height="216"/></g><g transform="translate(-278,2) scale(1,1)"><path fill="none" stroke="#000000" d="M 594 120 L 607 120 L 607 336 L 594 336 L 594 120 Z Z" stroke-miterlimit="10"/></g><g transform="translate(-278,2) scale(1,1)"><path fill="none" stroke="#000000" d="M 607 160 L 637 160 L 637 180 L 614 180" stroke-miterlimit="10"/></g><g transform="translate(-278,2) scale(1,1)"><path fill="#000000" stroke="none" d="M 624.1626748576241 175.790482243984 L 614 180 L 624.1626748576241 184.209517756016"/></g><g transform="translate(-278,2) scale(1,1)"><path fill="none" stroke="#000000" d="M 624.1626748576241 175.790482243984 L 614 180 L 624.1626748576241 184.209517756016 L 624.1626748576241 175.790482243984" stroke-miterlimit="10"/></g><g transform="translate(-278,2) scale(1,1)"><g><path fill="none" stroke="none"/><text fill="#000000" stroke="none" font-family="Arial" font-size="13px" font-style="normal" font-weight="normal" text-decoration="none" x="641.5" y="175.5">phID = selectPhlebotomist()</text></g></g><g transform="translate(-278,2) scale(1,1)"><rect fill="#ffffff" stroke="none" x="601" y="180" width="13" height="28"/></g><g transform="translate(-278,2) scale(1,1)"><path fill="none" stroke="#000000" d="M 601 180 L 614 180 L 614 208 L 601 208 L 601 180 Z Z" stroke-miterlimit="10"/></g><g transform="translate(-278,2) scale(1,1)"><path fill="none" stroke="#000000" d="M 607 248 L 867 248" stroke-miterlimit="10"/></g><g transform="translate(-278,2) scale(1,1)"><path fill="#000000" stroke="none" d="M 856.8373251423759 252.209517756016 L 867 248 L 856.8373251423758 243.790482243984"/></g><g transform="translate(-278,2) scale(1,1)"><path fill="none" stroke="#000000" d="M 856.8373251423759 252.209517756016 L 867 248 L 856.8373251423758 243.790482243984 L 856.8373251423759 252.209517756016" stroke-miterlimit="10"/></g><g transform="translate(-278,2) scale(1,1)"><g><path fill="none" stroke="none"/><text fill="#000000" stroke="none" font-family="Arial" font-size="13px" font-style="normal" font-weight="normal" text-decoration="none" x="667.5" y="243.5">isAvailable(date, time)</text></g></g><g transform="translate(-278,2) scale(1,1)"><rect fill="#ffffff" stroke="none" x="867" y="248" width="13" height="40"/></g><g transform="translate(-278,2) scale(1,1)"><path fill="none" stroke="#000000" d="M 867 248 L 880 248 L 880 288 L 867 288 L 867 248 Z Z" stroke-miterlimit="10"/></g><g transform="translate(-278,2) scale(1,1)"><path fill="none" stroke="#000000" d="M 867 280 L 607 280" stroke-miterlimit="10" stroke-dasharray="3"/></g><g transform="translate(-278,2) scale(1,1)"><path fill="none" stroke="#000000" d="M 617.1626748576241 275.790482243984 L 607 280 L 617.1626748576241 284.209517756016" stroke-miterlimit="10"/></g><g transform="translate(-278,2) scale(1,1)"><g><path fill="none" stroke="none"/><text fill="#000000" stroke="none" font-family="Arial" font-size="13px" font-style="normal" font-weight="normal" text-decoration="none" x="724.5" y="275.5">OK</text></g></g><g transform="translate(-278,2) scale(1,1)"><path fill="none" stroke="#000000" d="M 594 296 L 340 296" stroke-miterlimit="10" stroke-dasharray="3"/></g><g transform="translate(-278,2) scale(1,1)"><path fill="none" stroke="#000000" d="M 350.16267485762415 291.790482243984 L 340 296 L 350.16267485762415 300.209517756016" stroke-miterlimit="10"/></g><g transform="translate(-278,2) scale(1,1)"><g><path fill="none" stroke="none"/><text fill="#000000" stroke="none" font-family="Arial" font-size="13px" font-style="normal" font-weight="normal" text-decoration="none" x="368.807373046875" y="292.5">Phlebotomist successfully allocated</text></g></g><g transform="translate(-278,2) scale(1,1)"><path fill="none" stroke="#000000" d="M 607 320 L 1081 320" stroke-miterlimit="10"/></g><g transform="translate(-278,2) scale(1,1)"><path fill="#000000" stroke="none" d="M 1070.837325142376 324.209517756016 L 1081 320 L 1070.837325142376 315.790482243984"/></g><g transform="translate(-278,2) scale(1,1)"><path fill="none" stroke="#000000" d="M 1070.837325142376 324.209517756016 L 1081 320 L 1070.837325142376 315.790482243984 L 1070.837325142376 324.209517756016" stroke-miterlimit="10"/></g><g transform="translate(-278,2) scale(1,1)"><g><path fill="none" stroke="none"/><text fill="#000000" stroke="none" font-family="Arial" font-size="13px" font-style="normal" font-weight="normal" text-decoration="none" x="890.5" y="316.5">setSamplingPhlebotomist(phID)</text></g></g><g transform="translate(-278,2) scale(1,1)"><rect fill="#ffffff" stroke="none" x="1081" y="320" width="13" height="28"/></g><g transform="translate(-278,2) scale(1,1)"><path fill="none" stroke="#000000" d="M 1081 320 L 1094 320 L 1094 348 L 1081 348 L 1081 320 Z Z" stroke-miterlimit="10"/></g><g transform="translate(-278,2) scale(1,1)"><path fill="none" stroke="#000000" d="M 1094 336 L 1291 336" stroke-miterlimit="10"/></g><g transform="translate(-278,2) scale(1,1)"><path fill="#000000" stroke="none" d="M 1280.837325142376 340.209517756016 L 1291 336 L 1280.837325142376 331.790482243984"/></g><g transform="translate(-278,2) scale(1,1)"><path fill="none" stroke="#000000" d="M 1280.837325142376 340.209517756016 L 1291 336 L 1280.837325142376 331.790482243984 L 1280.837325142376 340.209517756016" stroke-miterlimit="10"/></g><g transform="translate(-278,2) scale(1,1)"><g><path fill="none" stroke="none"/><text fill="#000000" stroke="none" font-family="Arial" font-size="13px" font-style="normal" font-weight="normal" text-decoration="none" x="1127.6376953125" y="332.5">setPhlebotomist(phID)</text></g></g><g transform="translate(-278,2) scale(1,1)"><rect fill="#ffffff" stroke="none" x="1291" y="336" width="13" height="28"/></g><g transform="translate(-278,2) scale(1,1)"><path fill="none" stroke="#000000" d="M 1291 336 L 1304 336 L 1304 364 L 1291 364 L 1291 336 Z Z" stroke-miterlimit="10"/></g></g></svg>