<svg version="1.1" xmlns="http://www.w3.org/2000/svg" xmlns:xlink="http://www.w3.org/1999/xlink" width="652" height="644"><defs/><g><text fill="#eeeeee" stroke="none" font-family="Arial" font-size="24px" font-style="normal" font-weight="normal" text-decoration="none" x="0" y="0">UNREGISTERED</text><text fill="#eeeeee" stroke="none" font-family="Arial" font-size="24px" font-style="normal" font-weight="normal" text-decoration="none" x="0" y="30">UNREGISTERED</text><text fill="#eeeeee" stroke="none" font-family="Arial" font-size="24px" font-style="normal" font-weight="normal" text-decoration="none" x="0" y="60">UNREGISTERED</text><text fill="#eeeeee" stroke="none" font-family="Arial" font-size="24px" font-style="normal" font-weight="normal" text-decoration="none" x="0" y="90">UNREGISTERED</text><text fill="#eeeeee" stroke="none" font-family="Arial" font-size="24px" font-style="normal" font-weight="normal" text-decoration="none" x="0" y="120">UNREGISTERED</text><text fill="#eeeeee" stroke="none" font-family="Arial" font-size="24px" font-style="normal" font-weight="normal" text-decoration="none" x="0" y="150">UNREGISTERED</text><text fill="#eeeeee" stroke="none" font-family="Arial" font-size="24px" font-style="normal" font-weight="normal" text-decoration="none" x="0" y="180">UNREGISTERED</text><text fill="#eeeeee" stroke="none" font-family="Arial" font-size="24px" font-style="normal" font-weight="normal" text-decoration="none" x="0" y="210">UNREGISTERED</text><text fill="#eeeeee" stroke="none" font-family="Arial" font-size="24px" font-style="normal" font-weight="normal" text-decoration="none" x="0" y="240">UNREGISTERED</text><text fill="#eeeeee" stroke="none" font-family="Arial" font-size="24px" font-style="normal" font-weight="normal" text-decoration="none" x="0" y="270">UNREGISTERED</text><text fill="#eeeeee" stroke="none" font-family="Arial" font-size="24px" font-style="normal" font-weight="normal" text-decoration="none" x="0" y="300">UNREGISTERED</text><text fill="#eeeeee" stroke="none" font-family="Arial" font-size="24px" font-style="normal" font-weight="normal" text-decoration="none" x="0" y="330">UNREGISTERED</text><text fill="#eeeeee" stroke="none" font-family="Arial" font-size="24px" font-style="normal" font-weight="normal" text-decoration="none" x="0" y="360">UNREGISTERED</text><text fill="#eeeeee" stroke="none" font-family="Arial" font-size="24px" font-style="normal" font-weight="normal" text-decoration="none" x="0" y="390">UNREGISTERED</text><text fill="#eeeeee" stroke="none" font-family="Arial" font-size="24px" font-style="normal" font-weight="normal" text-decoration="none" x="0" y="420">UNREGISTERED</text><text fill="#eeeeee" stroke="none" font-family="Arial" font-size="24px" font-style="normal" font-weight="normal" text-decoration="none" x="0" y="450">UNREGISTERED</text><text fill="#eeeeee" stroke="none" font-family="Arial" font-size="24px" font-style="normal" font-weight="normal" text-decoration="none" x="0" y="480">UNREGISTERED</text><text fill="#eeeeee" stroke="none" font-family="Arial" font-size="24px" font-style="normal" font-weight="normal" text-decoration="none" x="0" y="510">UNREGISTERED</text><text fill="#eeeeee" stroke="none" font-family="Arial" font-size="24px" font-style="normal" font-weight="normal" text-decoration="none" x="0" y="540">UNREGISTERED</text><text fill="#eeeeee" stroke="none" font-family="Arial" font-size="24px" font-style="normal" font-weight="normal" text-decoration="none" x="0" y="570">UNREGISTERED</text><text fill="#eeeeee" stroke="none" font-family="Arial" font-size="24px" font-style="normal" font-weight="normal" text-decoration="none" x="0" y="600">UNREGISTERED</text><text fill="#eeeeee" stroke="none" font-family="Arial" font-size="24px" font-style="normal" font-weight="normal" text-decoration="none" x="0" y="630">UNREGISTERED</text><text fill="#eeeeee" stroke="none" font-family="Arial" font-size="24px" font-style="normal" font-weight="normal" text-decoration="none" x="200" y="0">UNREGISTERED</text><text fill="#eeeeee" stroke="none" font-family="Arial" font-size="24px" font-style="normal" font-weight="normal" text-decoration="none" x="200" y="30">UNREGISTERED</text><text fill="#eeeeee" stroke="none" font-family="Arial" font-size="24px" font-style="normal" font-weight="normal" text-decoration="none" x="200" y="60">UNREGISTERED</text><text fill="#eeeeee" stroke="none" font-family="Arial" font-size="24px" font-style="normal" font-weight="normal" text-decoration="none" x="200" y="90">UNREGISTERED</text><text fill="#eeeeee" stroke="none" font-family="Arial" font-size="24px" font-style="normal" font-weight="normal" text-decoration="none" x="200" y="120">UNREGISTERED</text><text fill="#eeeeee" stroke="none" font-family="Arial" font-size="24px" font-style="normal" font-weight="normal" text-decoration="none" x="200" y="150">UNREGISTERED</text><text fill="#eeeeee" stroke="none" font-family="Arial" font-size="24px" font-style="normal" font-weight="normal" text-decoration="none" x="200" y="180">UNREGISTERED</text><text fill="#eeeeee" stroke="none" font-family="Arial" font-size="24px" font-style="normal" font-weight="normal" text-decoration="none" x="200" y="210">UNREGISTERED</text><text fill="#eeeeee" stroke="none" font-family="Arial" font-size="24px" font-style="normal" font-weight="normal" text-decoration="none" x="200" y="240">UNREGISTERED</text><text fill="#eeeeee" stroke="none" font-family="Arial" font-size="24px" font-style="normal" font-weight="normal" text-decoration="none" x="200" y="270">UNREGISTERED</text><text fill="#eeeeee" stroke="none" font-family="Arial" font-size="24px" font-style="normal" font-weight="normal" text-decoration="none" x="200" y="300">UNREGISTERED</text><text fill="#eeeeee" stroke="none" font-family="Arial" font-size="24px" font-style="normal" font-weight="normal" text-decoration="none" x="200" y="330">UNREGISTERED</text><text fill="#eeeeee" stroke="none" font-family="Arial" font-size="24px" font-style="normal" font-weight="normal" text-decoration="none" x="200" y="360">UNREGISTERED</text><text fill="#eeeeee" stroke="none" font-family="Arial" font-size="24px" font-style="normal" font-weight="normal" text-decoration="none" x="200" y="390">UNREGISTERED</text><text fill="#eeeeee" stroke="none" font-family="Arial" font-size="24px" font-style="normal" font-weight="normal" text-decoration="none" x="200" y="420">UNREGISTERED</text><text fill="#eeeeee" stroke="none" font-family="Arial" font-size="24px" font-style="normal" font-weight="normal" text-decoration="none" x="200" y="450">UNREGISTERED</text><text fill="#eeeeee" stroke="none" font-family="Arial" font-size="24px" font-style="normal" font-weight="normal" text-decoration="none" x="200" y="480">UNREGISTERED</text><text fill="#eeeeee" stroke="none" font-family="Arial" font-size="24px" font-style="normal" font-weight="normal" text-decoration="none" x="200" y="510">UNREGISTERED</text><text fill="#eeeeee" stroke="none" font-family="Arial" font-size="24px" font-style="normal" font-weight="normal" text-decoration="none" x="200" y="540">UNREGISTERED</text><text fill="#eeeeee" stroke="none" font-family="Arial" font-size="24px" font-style="normal" font-weight="normal" text-decoration="none" x="200" y="570">UNREGISTERED</text><text fill="#eeeeee" stroke="none" font-family="Arial" font-size="24px" font-style="normal" font-weight="normal" text-decoration="none" x="200" y="600">UNREGISTERED</text><text fill="#eeeeee" stroke="none" font-family="Arial" font-size="24px" font-style="normal" font-weight="normal" text-decoration="none" x="200" y="630">UNREGISTERED</text><text fill="#eeeeee" stroke="none" font-family="Arial" font-size="24px" font-style="normal" font-weight="normal" text-decoration="none" x="400" y="0">UNREGISTERED</text><text fill="#eeeeee" stroke="none" font-family="Arial" font-size="24px" font-style="normal" font-weight="normal" text-decoration="none" x="400" y="30">UNREGISTERED</text><text fill="#eeeeee" stroke="none" font-family="Arial" font-size="24px" font-style="normal" font-weight="normal" text-decoration="none" x="400" y="60">UNREGISTERED</text><text fill="#eeeeee" stroke="none" font-family="Arial" font-size="24px" font-style="normal" font-weight="normal" text-decoration="none" x="400" y="90">UNREGISTERED</text><text fill="#eeeeee" stroke="none" font-family="Arial" font-size="24px" font-style="normal" font-weight="normal" text-decoration="none" x="400" y="120">UNREGISTERED</text><text fill="#eeeeee" stroke="none" font-family="Arial" font-size="24px" font-style="normal" font-weight="normal" text-decoration="none" x="400" y="150">UNREGISTERED</text><text fill="#eeeeee" stroke="none" font-family="Arial" font-size="24px" font-style="normal" font-weight="normal" text-decoration="none" x="400" y="180">UNREGISTERED</text><text fill="#eeeeee" stroke="none" font-family="Arial" font-size="24px" font-style="normal" font-weight="normal" text-decoration="none" x="400" y="210">UNREGISTERED</text><text fill="#eeeeee" stroke="none" font-family="Arial" font-size="24px" font-style="normal" font-weight="normal" text-decoration="none" x="400" y="240">UNREGISTERED</text><text fill="#eeeeee" stroke="none" font-family="Arial" font-size="24px" font-style="normal" font-weight="normal" text-decoration="none" x="400" y="270">UNREGISTERED</text><text fill="#eeeeee" stroke="none" font-family="Arial" font-size="24px" font-style="normal" font-weight="normal" text-decoration="none" x="400" y="300">UNREGISTERED</text><text fill="#eeeeee" stroke="none" font-family="Arial" font-size="24px" font-style="normal" font-weight="normal" text-decoration="none" x="400" y="330">UNREGISTERED</text><text fill="#eeeeee" stroke="none" font-family="Arial" font-size="24px" font-style="normal" font-weight="normal" text-decoration="none" x="400" y="360">UNREGISTERED</text><text fill="#eeeeee" stroke="none" font-family="Arial" font-size="24px" font-style="normal" font-weight="normal" text-decoration="none" x="400" y="390">UNREGISTERED</text><text fill="#eeeeee" stroke="none" font-family="Arial" font-size="24px" font-style="normal" font-weight="normal" text-decoration="none" x="400" y="420">UNREGISTERED</text><text fill="#eeeeee" stroke="none" font-family="Arial" font-size="24px" font-style="normal" font-weight="normal" text-decoration="none" x="400" y="450">UNREGISTERED</text><text fill="#eeeeee" stroke="none" font-family="Arial" font-size="24px" font-style="normal" font-weight="normal" text-decoration="none" x="400" y="480">UNREGISTERED</text><text fill="#eeeeee" stroke="none" font-family="Arial" font-size="24px" font-style="normal" font-weight="normal" text-decoration="none" x="400" y="510">UNREGISTERED</text><text fill="#eeeeee" stroke="none" font-family="Arial" font-size="24px" font-style="normal" font-weight="normal" text-decoration="none" x="400" y="540">UNREGISTERED</text><text fill="#eeeeee" stroke="none" font-family="Arial" font-size="24px" font-style="normal" font-weight="normal" text-decoration="none" x="400" y="570">UNREGISTERED</text><text fill="#eeeeee" stroke="none" font-family="Arial" font-size="24px" font-style="normal" font-weight="normal" text-decoration="none" x="400" y="600">UNREGISTERED</text><text fill="#eeeeee" stroke="none" font-family="Arial" font-size="24px" font-style="normal" font-weight="normal" text-decoration="none" x="400" y="630">UNREGISTERED</text><text fill="#eeeeee" stroke="none" font-family="Arial" font-size="24px" font-style="normal" font-weight="normal" text-decoration="none" x="600" y="0">UNREGISTERED</text><text fill="#eeeeee" stroke="none" font-family="Arial" font-size="24px" font-style="normal" font-weight="normal" text-decoration="none" x="600" y="30">UNREGISTERED</text><text fill="#eeeeee" stroke="none" font-family="Arial" font-size="24px" font-style="normal" font-weight="normal" text-decoration="none" x="600" y="60">UNREGISTERED</text><text fill="#eeeeee" stroke="none" font-family="Arial" font-size="24px" font-style="normal" font-weight="normal" text-decoration="none" x="600" y="90">UNREGISTERED</text><text fill="#eeeeee" stroke="none" font-family="Arial" font-size="24px" font-style="normal" font-weight="normal" text-decoration="none" x="600" y="120">UNREGISTERED</text><text fill="#eeeeee" stroke="none" font-family="Arial" font-size="24px" font-style="normal" font-weight="normal" text-decoration="none" x="600" y="150">UNREGISTERED</text><text fill="#eeeeee" stroke="none" font-family="Arial" font-size="24px" font-style="normal" font-weight="normal" text-decoration="none" x="600" y="180">UNREGISTERED</text><text fill="#eeeeee" stroke="none" font-family="Arial" font-size="24px" font-style="normal" font-weight="normal" text-decoration="none" x="600" y="210">UNREGISTERED</text><text fill="#eeeeee" stroke="none" font-family="Arial" font-size="24px" font-style="normal" font-weight="normal" text-decoration="none" x="600" y="240">UNREGISTERED</text><text fill="#eeeeee" stroke="none" font-family="Arial" font-size="24px" font-style="normal" font-weight="normal" text-decoration="none" x="600" y="270">UNREGISTERED</text><text fill="#eeeeee" stroke="none" font-family="Arial" font-size="24px" font-style="normal" font-weight="normal" text-decoration="none" x="600" y="300">UNREGISTERED</text><text fill="#eeeeee" stroke="none" font-family="Arial" font-size="24px" font-style="normal" font-weight="normal" text-decoration="none" x="600" y="330">UNREGISTERED</text><text fill="#eeeeee" stroke="none" font-family="Arial" font-size="24px" font-style="normal" font-weight="normal" text-decoration="none" x="600" y="360">UNREGISTERED</text><text fill="#eeeeee" stroke="none" font-family="Arial" font-size="24px" font-style="normal" font-weight="normal" text-decoration="none" x="600" y="390">UNREGISTERED</text><text fill="#eeeeee" stroke="none" font-family="Arial" font-size="24px" font-style="normal" font-weight="normal" text-decoration="none" x="600" y="420">UNREGISTERED</text><text fill="#eeeeee" stroke="none" font-family="Arial" font-size="24px" font-style="normal" font-weight="normal" text-decoration="none" x="600" y="450">UNREGISTERED</text><text fill="#eeeeee" stroke="none" font-family="Arial" font-size="24px" font-style="normal" font-weight="normal" text-decoration="none" x="600" y="480">UNREGISTERED</text><text fill="#eeeeee" stroke="none" font-family="Arial" font-size="24px" font-style="normal" font-weight="normal" text-decoration="none" x="600" y="510">UNREGISTERED</text><text fill="#eeeeee" stroke="none" font-family="Arial" font-size="24px" font-style="normal" font-weight="normal" text-decoration="none" x="600" y="540">UNREGISTERED</text><text fill="#eeeeee" stroke="none" font-family="Arial" font-size="24px" font-style="normal" font-weight="normal" text-decoration="none" x="600" y="570">UNREGISTERED</text><text fill="#eeeeee" stroke="none" font-family="Arial" font-size="24px" font-style="normal" font-weight="normal" text-decoration="none" x="600" y="600">UNREGISTERED</text><text fill="#eeeeee" stroke="none" font-family="Arial" font-size="24px" font-style="normal" font-weight="normal" text-decoration="none" x="600" y="630">UNREGISTERED</text><g transform="translate(-86,2) scale(1,1)"><path fill="#ffffff" stroke="none" d="M 190.0076766690341 47.3 C 190.0076766690341 43.82060576 192.8860783912159 41 196.436767578125 41 C 199.9874567650341 41 202.86585848721592 43.82060576 202.86585848721592 47.3 C 202.86585848721592 50.779394239999995 199.9874567650341 53.6 196.436767578125 53.6 C 192.8860783912159 53.6 190.0076766690341 50.779394239999995 190.0076766690341 47.3 Z"/></g><g transform="translate(-86,2) scale(1,1)"><path fill="none" stroke="#000000" d="M 190.0076766690341 47.3 C 190.0076766690341 43.82060576 192.8860783912159 41 196.436767578125 41 C 199.9874567650341 41 202.86585848721592 43.82060576 202.86585848721592 47.3 C 202.86585848721592 50.779394239999995 199.9874567650341 53.6 196.436767578125 53.6 C 192.8860783912159 53.6 190.0076766690341 50.779394239999995 190.0076766690341 47.3 Z" stroke-miterlimit="10"/></g><g transform="translate(-86,2) scale(1,1)"><path fill="none" stroke="#000000" d="M 196.436767578125 53.6 L 196.436767578125 66.4" stroke-miterlimit="10"/></g><g transform="translate(-86,2) scale(1,1)"><path fill="none" stroke="#000000" d="M 189.6294948508523 58.4 L 203.24404030539773 58.4" stroke-miterlimit="10"/></g><g transform="translate(-86,2) scale(1,1)"><path fill="none" stroke="#000000" d="M 196.436767578125 66.4 L 186.98222212357956 79" stroke-miterlimit="10"/></g><g transform="translate(-86,2) scale(1,1)"><path fill="none" stroke="#000000" d="M 196.436767578125 66.4 L 205.89131303267047 79" stroke-miterlimit="10"/></g><g transform="translate(-86,2) scale(1,1)"><g><path fill="none" stroke="none"/><text fill="#000000" stroke="none" font-family="Arial" font-size="13px" font-style="normal" font-weight="bold" text-decoration="none" x="137.187744140625" y="99.5">: PrescriptionReader</text></g></g><g transform="translate(-86,2) scale(1,1)"><path fill="none" stroke="#000000" d="M 197.5 105 L 197.5 632" stroke-miterlimit="10" stroke-dasharray="3"/></g><g transform="translate(-86,2) scale(1,1)"><path fill="#ffffff" stroke="none" d="M 96 124.5 C 96 120.6340064 99.1340064 117.5 103 117.5 C 106.8659936 117.5 110 120.6340064 110 124.5 C 110 128.3659936 106.8659936 131.5 103 131.5 C 99.1340064 131.5 96 128.3659936 96 124.5 Z"/></g><g transform="translate(-86,2) scale(1,1)"><rect fill="#C0C0C0" stroke="none" x="423" y="47" width="180.08447265625" height="39" opacity="0.2"/></g><g transform="translate(-86,2) scale(1,1)"><rect fill="#ffffff" stroke="none" x="416" y="40" width="180.08447265625" height="39"/></g><g transform="translate(-86,2) scale(1,1)"><path fill="none" stroke="#000000" d="M 416 40 L 596.08447265625 40 L 596.08447265625 79 L 416 79 L 416 40 Z Z" stroke-miterlimit="10"/></g><g transform="translate(-86,2) scale(1,1)"><g><path fill="none" stroke="none"/><text fill="#000000" stroke="none" font-family="Arial" font-size="13px" font-style="normal" font-weight="bold" text-decoration="none" x="432.345947265625" y="59.5">CheckPrescriptionControl</text></g></g><g transform="translate(-86,2) scale(1,1)"><path fill="none" stroke="#000000" d="M 507.5 80 L 507.5 630" stroke-miterlimit="10" stroke-dasharray="3"/></g><g transform="translate(-86,2) scale(1,1)"><g><path fill="none" stroke="none"/><text fill="#ad00ad" stroke="none" font-family="Arial" font-size="13px" font-style="normal" font-weight="normal" text-decoration="none" x="149" y="26">checkPrescription Sequence Diagram</text></g></g><g transform="translate(-86,2) scale(1,1)"><path fill="none" stroke="#000000" d="M 110 125 L 190 125" stroke-miterlimit="10"/></g><g transform="translate(-86,2) scale(1,1)"><path fill="#000000" stroke="none" d="M 179.83732514237585 129.209517756016 L 190 125 L 179.83732514237585 120.79048224398402"/></g><g transform="translate(-86,2) scale(1,1)"><path fill="none" stroke="#000000" d="M 179.83732514237585 129.209517756016 L 190 125 L 179.83732514237585 120.79048224398402 L 179.83732514237585 129.209517756016" stroke-miterlimit="10"/></g><g transform="translate(-86,2) scale(1,1)"><g><path fill="none" stroke="none"/><text fill="#000000" stroke="none" font-family="Arial" font-size="13px" font-style="normal" font-weight="normal" text-decoration="none" x="131.4599609375" y="121.5">login()</text></g></g><g transform="translate(-86,2) scale(1,1)"><rect fill="#ffffff" stroke="none" x="190" y="125" width="13" height="443"/></g><g transform="translate(-86,2) scale(1,1)"><path fill="none" stroke="#000000" d="M 190 125 L 203 125 L 203 568 L 190 568 L 190 125 Z Z" stroke-miterlimit="10"/></g><g transform="translate(-86,2) scale(1,1)"><path fill="none" stroke="#000000" d="M 203 136 L 500 136" stroke-miterlimit="10"/></g><g transform="translate(-86,2) scale(1,1)"><path fill="#000000" stroke="none" d="M 489.83732514237585 140.209517756016 L 500 136 L 489.83732514237585 131.790482243984"/></g><g transform="translate(-86,2) scale(1,1)"><path fill="none" stroke="#000000" d="M 489.83732514237585 140.209517756016 L 500 136 L 489.83732514237585 131.790482243984 L 489.83732514237585 140.209517756016" stroke-miterlimit="10"/></g><g transform="translate(-86,2) scale(1,1)"><g><path fill="none" stroke="none"/><text fill="#000000" stroke="none" font-family="Arial" font-size="13px" font-style="normal" font-weight="normal" text-decoration="none" x="295.5" y="132.5">checkPrescription()</text></g></g><g transform="translate(-86,2) scale(1,1)"><rect fill="#ffffff" stroke="none" x="500" y="136" width="13" height="440"/></g><g transform="translate(-86,2) scale(1,1)"><path fill="none" stroke="#000000" d="M 500 136 L 513 136 L 513 576 L 500 576 L 500 136 Z Z" stroke-miterlimit="10"/></g><g transform="translate(-86,2) scale(1,1)"><path fill="none" stroke="#000000" d="M 203 274 L 507 274" stroke-miterlimit="10"/></g><g transform="translate(-86,2) scale(1,1)"><path fill="#000000" stroke="none" d="M 496.83732514237585 278.209517756016 L 507 274 L 496.83732514237585 269.790482243984"/></g><g transform="translate(-86,2) scale(1,1)"><path fill="none" stroke="#000000" d="M 496.83732514237585 278.209517756016 L 507 274 L 496.83732514237585 269.790482243984 L 496.83732514237585 278.209517756016" stroke-miterlimit="10"/></g><g transform="translate(-86,2) scale(1,1)"><g><path fill="none" stroke="none"/><text fill="#000000" stroke="none" font-family="Arial" font-size="13px" font-style="normal" font-weight="normal" text-decoration="none" x="243.5" y="270.5">preID = selectUncheckedPrescription()</text></g></g><g transform="translate(-86,2) scale(1,1)"><rect fill="#ffffff" stroke="none" x="507" y="274" width="13" height="28"/></g><g transform="translate(-86,2) scale(1,1)"><path fill="none" stroke="#000000" d="M 507 274 L 520 274 L 520 302 L 507 302 L 507 274 Z Z" stroke-miterlimit="10"/></g><g transform="translate(-86,2) scale(1,1)"><path fill="none" stroke="#000000" d="M 203 320 L 233 320 L 233 340 L 210 340" stroke-miterlimit="10"/></g><g transform="translate(-86,2) scale(1,1)"><path fill="#000000" stroke="none" d="M 220.16267485762415 335.790482243984 L 210 340 L 220.16267485762415 344.209517756016"/></g><g transform="translate(-86,2) scale(1,1)"><path fill="none" stroke="#000000" d="M 220.16267485762415 335.790482243984 L 210 340 L 220.16267485762415 344.209517756016 L 220.16267485762415 335.790482243984" stroke-miterlimit="10"/></g><g transform="translate(-86,2) scale(1,1)"><g><path fill="none" stroke="none"/><text fill="#000000" stroke="none" font-family="Arial" font-size="13px" font-style="normal" font-weight="normal" text-decoration="none" x="245.5" y="332.5">checkPrescription(preID)</text></g></g><g transform="translate(-86,2) scale(1,1)"><rect fill="#ffffff" stroke="none" x="197" y="340" width="13" height="28"/></g><g transform="translate(-86,2) scale(1,1)"><path fill="none" stroke="#000000" d="M 197 340 L 210 340 L 210 368 L 197 368 L 197 340 Z Z" stroke-miterlimit="10"/></g><g transform="translate(-86,2) scale(1,1)"><path fill="none" stroke="#000000" d="M 203 408 L 507 408" stroke-miterlimit="10"/></g><g transform="translate(-86,2) scale(1,1)"><path fill="#000000" stroke="none" d="M 496.83732514237585 412.209517756016 L 507 408 L 496.83732514237585 403.790482243984"/></g><g transform="translate(-86,2) scale(1,1)"><path fill="none" stroke="#000000" d="M 496.83732514237585 412.209517756016 L 507 408 L 496.83732514237585 403.790482243984 L 496.83732514237585 412.209517756016" stroke-miterlimit="10"/></g><g transform="translate(-86,2) scale(1,1)"><g><path fill="none" stroke="none"/><text fill="#000000" stroke="none" font-family="Arial" font-size="13px" font-style="normal" font-weight="normal" text-decoration="none" x="267.89453125" y="404.5">submitTestNames(testNames)</text></g></g><g transform="translate(-86,2) scale(1,1)"><rect fill="#ffffff" stroke="none" x="507" y="408" width="13" height="28"/></g><g transform="translate(-86,2) scale(1,1)"><path fill="none" stroke="#000000" d="M 507 408 L 520 408 L 520 436 L 507 436 L 507 408 Z Z" stroke-miterlimit="10"/></g><g transform="translate(-86,2) scale(1,1)"><path fill="none" stroke="#000000" d="M 513 488 L 543 488 L 543 508 L 520 508" stroke-miterlimit="10"/></g><g transform="translate(-86,2) scale(1,1)"><path fill="#000000" stroke="none" d="M 530.1626748576241 503.790482243984 L 520 508 L 530.1626748576241 512.209517756016"/></g><g transform="translate(-86,2) scale(1,1)"><path fill="none" stroke="#000000" d="M 530.1626748576241 503.790482243984 L 520 508 L 530.1626748576241 512.209517756016 L 530.1626748576241 503.790482243984" stroke-miterlimit="10"/></g><g transform="translate(-86,2) scale(1,1)"><g><path fill="none" stroke="none"/><text fill="#000000" stroke="none" font-family="Arial" font-size="13px" font-style="normal" font-weight="normal" text-decoration="none" x="556.5" y="503.5">submitTestNamesToPatient()</text></g></g><g transform="translate(-86,2) scale(1,1)"><rect fill="#ffffff" stroke="none" x="507" y="508" width="13" height="28"/></g><g transform="translate(-86,2) scale(1,1)"><path fill="none" stroke="#000000" d="M 507 508 L 520 508 L 520 536 L 507 536 L 507 508 Z Z" stroke-miterlimit="10"/></g><g transform="translate(-86,2) scale(1,1)"><path fill="none" stroke="#000000" d="M 144 192 L 728 192 L 728 552 L 144 552 L 144 192" stroke-miterlimit="10"/></g><g transform="translate(-86,2) scale(1,1)"><path fill="#ffffff" stroke="none" d="M 144 192 L 144 214 L 532.88037109375 214 L 543.88037109375 203 L 543.88037109375 192 L 144 192"/></g><g transform="translate(-86,2) scale(1,1)"><path fill="none" stroke="#000000" d="M 144 192 L 144 214 L 532.88037109375 214 L 543.88037109375 203 L 543.88037109375 192 L 144 192 L 144 192" stroke-miterlimit="10"/></g><g transform="translate(-86,2) scale(1,1)"><g><path fill="none" stroke="none"/><text fill="#000000" stroke="none" font-family="Arial" font-size="13px" font-style="normal" font-weight="normal" text-decoration="none" x="179.578125" y="209.5">[The time for looking over prescription has not been finished]</text></g></g><g transform="translate(-86,2) scale(1,1)"><g><path fill="none" stroke="none"/><text fill="#000000" stroke="none" font-family="Arial" font-size="13px" font-style="normal" font-weight="bold" text-decoration="none" x="149" y="209.5">loop</text></g></g></g></svg>