<svg version="1.1" xmlns="http://www.w3.org/2000/svg" xmlns:xlink="http://www.w3.org/1999/xlink" width="778.8544921875" height="388"><defs/><g><text fill="#eeeeee" stroke="none" font-family="Arial" font-size="24px" font-style="normal" font-weight="normal" text-decoration="none" x="0" y="0"></text><text fill="#eeeeee" stroke="none" font-family="Arial" font-size="24px" font-style="normal" font-weight="normal" text-decoration="none" x="0" y="30"></text><text fill="#eeeeee" stroke="none" font-family="Arial" font-size="24px" font-style="normal" font-weight="normal" text-decoration="none" x="0" y="60"></text><text fill="#eeeeee" stroke="none" font-family="Arial" font-size="24px" font-style="normal" font-weight="normal" text-decoration="none" x="0" y="90"></text><text fill="#eeeeee" stroke="none" font-family="Arial" font-size="24px" font-style="normal" font-weight="normal" text-decoration="none" x="0" y="120"></text><text fill="#eeeeee" stroke="none" font-family="Arial" font-size="24px" font-style="normal" font-weight="normal" text-decoration="none" x="0" y="150"></text><text fill="#eeeeee" stroke="none" font-family="Arial" font-size="24px" font-style="normal" font-weight="normal" text-decoration="none" x="0" y="180"></text><text fill="#eeeeee" stroke="none" font-family="Arial" font-size="24px" font-style="normal" font-weight="normal" text-decoration="none" x="0" y="210"></text><text fill="#eeeeee" stroke="none" font-family="Arial" font-size="24px" font-style="normal" font-weight="normal" text-decoration="none" x="0" y="240"></text><text fill="#eeeeee" stroke="none" font-family="Arial" font-size="24px" font-style="normal" font-weight="normal" text-decoration="none" x="0" y="270"></text><text fill="#eeeeee" stroke="none" font-family="Arial" font-size="24px" font-style="normal" font-weight="normal" text-decoration="none" x="0" y="300"></text><text fill="#eeeeee" stroke="none" font-family="Arial" font-size="24px" font-style="normal" font-weight="normal" text-decoration="none" x="0" y="330"></text><text fill="#eeeeee" stroke="none" font-family="Arial" font-size="24px" font-style="normal" font-weight="normal" text-decoration="none" x="0" y="360"></text><text fill="#eeeeee" stroke="none" font-family="Arial" font-size="24px" font-style="normal" font-weight="normal" text-decoration="none" x="200" y="0"></text><text fill="#eeeeee" stroke="none" font-family="Arial" font-size="24px" font-style="normal" font-weight="normal" text-decoration="none" x="200" y="30"></text><text fill="#eeeeee" stroke="none" font-family="Arial" font-size="24px" font-style="normal" font-weight="normal" text-decoration="none" x="200" y="60"></text><text fill="#eeeeee" stroke="none" font-family="Arial" font-size="24px" font-style="normal" font-weight="normal" text-decoration="none" x="200" y="90"></text><text fill="#eeeeee" stroke="none" font-family="Arial" font-size="24px" font-style="normal" font-weight="normal" text-decoration="none" x="200" y="120"></text><text fill="#eeeeee" stroke="none" font-family="Arial" font-size="24px" font-style="normal" font-weight="normal" text-decoration="none" x="200" y="150"></text><text fill="#eeeeee" stroke="none" font-family="Arial" font-size="24px" font-style="normal" font-weight="normal" text-decoration="none" x="200" y="180"></text><text fill="#eeeeee" stroke="none" font-family="Arial" font-size="24px" font-style="normal" font-weight="normal" text-decoration="none" x="200" y="210"></text><text fill="#eeeeee" stroke="none" font-family="Arial" font-size="24px" font-style="normal" font-weight="normal" text-decoration="none" x="200" y="240"></text><text fill="#eeeeee" stroke="none" font-family="Arial" font-size="24px" font-style="normal" font-weight="normal" text-decoration="none" x="200" y="270"></text><text fill="#eeeeee" stroke="none" font-family="Arial" font-size="24px" font-style="normal" font-weight="normal" text-decoration="none" x="200" y="300"></text><text fill="#eeeeee" stroke="none" font-family="Arial" font-size="24px" font-style="normal" font-weight="normal" text-decoration="none" x="200" y="330"></text><text fill="#eeeeee" stroke="none" font-family="Arial" font-size="24px" font-style="normal" font-weight="normal" text-decoration="none" x="200" y="360"></text><text fill="#eeeeee" stroke="none" font-family="Arial" font-size="24px" font-style="normal" font-weight="normal" text-decoration="none" x="400" y="0"></text><text fill="#eeeeee" stroke="none" font-family="Arial" font-size="24px" font-style="normal" font-weight="normal" text-decoration="none" x="400" y="30"></text><text fill="#eeeeee" stroke="none" font-family="Arial" font-size="24px" font-style="normal" font-weight="normal" text-decoration="none" x="400" y="60"></text><text fill="#eeeeee" stroke="none" font-family="Arial" font-size="24px" font-style="normal" font-weight="normal" text-decoration="none" x="400" y="90"></text><text fill="#eeeeee" stroke="none" font-family="Arial" font-size="24px" font-style="normal" font-weight="normal" text-decoration="none" x="400" y="120"></text><text fill="#eeeeee" stroke="none" font-family="Arial" font-size="24px" font-style="normal" font-weight="normal" text-decoration="none" x="400" y="150"></text><text fill="#eeeeee" stroke="none" font-family="Arial" font-size="24px" font-style="normal" font-weight="normal" text-decoration="none" x="400" y="180"></text><text fill="#eeeeee" stroke="none" font-family="Arial" font-size="24px" font-style="normal" font-weight="normal" text-decoration="none" x="400" y="210"></text><text fill="#eeeeee" stroke="none" font-family="Arial" font-size="24px" font-style="normal" font-weight="normal" text-decoration="none" x="400" y="240"></text><text fill="#eeeeee" stroke="none" font-family="Arial" font-size="24px" font-style="normal" font-weight="normal" text-decoration="none" x="400" y="270"></text><text fill="#eeeeee" stroke="none" font-family="Arial" font-size="24px" font-style="normal" font-weight="normal" text-decoration="none" x="400" y="300"></text><text fill="#eeeeee" stroke="none" font-family="Arial" font-size="24px" font-style="normal" font-weight="normal" text-decoration="none" x="400" y="330"></text><text fill="#eeeeee" stroke="none" font-family="Arial" font-size="24px" font-style="normal" font-weight="normal" text-decoration="none" x="400" y="360"></text><text fill="#eeeeee" stroke="none" font-family="Arial" font-size="24px" font-style="normal" font-weight="normal" text-decoration="none" x="600" y="0"></text><text fill="#eeeeee" stroke="none" font-family="Arial" font-size="24px" font-style="normal" font-weight="normal" text-decoration="none" x="600" y="30"></text><text fill="#eeeeee" stroke="none" font-family="Arial" font-size="24px" font-style="normal" font-weight="normal" text-decoration="none" x="600" y="60"></text><text fill="#eeeeee" stroke="none" font-family="Arial" font-size="24px" font-style="normal" font-weight="normal" text-decoration="none" x="600" y="90"></text><text fill="#eeeeee" stroke="none" font-family="Arial" font-size="24px" font-style="normal" font-weight="normal" text-decoration="none" x="600" y="120"></text><text fill="#eeeeee" stroke="none" font-family="Arial" font-size="24px" font-style="normal" font-weight="normal" text-decoration="none" x="600" y="150"></text><text fill="#eeeeee" stroke="none" font-family="Arial" font-size="24px" font-style="normal" font-weight="normal" text-decoration="none" x="600" y="180"></text><text fill="#eeeeee" stroke="none" font-family="Arial" font-size="24px" font-style="normal" font-weight="normal" text-decoration="none" x="600" y="210"></text><text fill="#eeeeee" stroke="none" font-family="Arial" font-size="24px" font-style="normal" font-weight="normal" text-decoration="none" x="600" y="240"></text><text fill="#eeeeee" stroke="none" font-family="Arial" font-size="24px" font-style="normal" font-weight="normal" text-decoration="none" x="600" y="270"></text><text fill="#eeeeee" stroke="none" font-family="Arial" font-size="24px" font-style="normal" font-weight="normal" text-decoration="none" x="600" y="300"></text><text fill="#eeeeee" stroke="none" font-family="Arial" font-size="24px" font-style="normal" font-weight="normal" text-decoration="none" x="600" y="330"></text><text fill="#eeeeee" stroke="none" font-family="Arial" font-size="24px" font-style="normal" font-weight="normal" text-decoration="none" x="600" y="360"></text><g transform="translate(-278,2) scale(1,1)"><path fill="#ffffff" stroke="none" d="M 329.3143172940341 47.3 C 329.3143172940341 43.82060576 332.1927190162159 41 335.743408203125 41 C 339.2940973900341 41 342.172499112216 43.82060576 342.172499112216 47.3 C 342.172499112216 50.779394239999995 339.2940973900341 53.6 335.743408203125 53.6 C 332.1927190162159 53.6 329.3143172940341 50.779394239999995 329.3143172940341 47.3 Z"/></g><g transform="translate(-278,2) scale(1,1)"><path fill="none" stroke="#000000" d="M 329.3143172940341 47.3 C 329.3143172940341 43.82060576 332.1927190162159 41 335.743408203125 41 C 339.2940973900341 41 342.172499112216 43.82060576 342.172499112216 47.3 C 342.172499112216 50.779394239999995 339.2940973900341 53.6 335.743408203125 53.6 C 332.1927190162159 53.6 329.3143172940341 50.779394239999995 329.3143172940341 47.3 Z" stroke-miterlimit="10"/></g><g transform="translate(-278,2) scale(1,1)"><path fill="none" stroke="#000000" d="M 335.743408203125 53.6 L 335.743408203125 66.4" stroke-miterlimit="10"/></g><g transform="translate(-278,2) scale(1,1)"><path fill="none" stroke="#000000" d="M 328.93613547585227 58.4 L 342.5506809303978 58.4" stroke-miterlimit="10"/></g><g transform="translate(-278,2) scale(1,1)"><path fill="none" stroke="#000000" d="M 335.743408203125 66.4 L 326.28886274857956 79" stroke-miterlimit="10"/></g><g transform="translate(-278,2) scale(1,1)"><path fill="none" stroke="#000000" d="M 335.743408203125 66.4 L 345.1979536576705 79" stroke-miterlimit="10"/></g><g transform="translate(-278,2) scale(1,1)"><g><path fill="none" stroke="none"/><text fill="#000000" stroke="none" font-family="Arial" font-size="13px" font-style="normal" font-weight="bold" text-decoration="none" x="311.895263671875" y="99.5">: Patient</text></g></g><g transform="translate(-278,2) scale(1,1)"><path fill="none" stroke="#000000" d="M 336.5 105 L 336.5 320" stroke-miterlimit="10" stroke-dasharray="3"/></g><g transform="translate(-278,2) scale(1,1)"><rect fill="#C0C0C0" stroke="none" x="487" y="47" width="180.08447265625" height="39" opacity="0.2"/></g><g transform="translate(-278,2) scale(1,1)"><rect fill="#ffffff" stroke="none" x="480" y="40" width="180.08447265625" height="39"/></g><g transform="translate(-278,2) scale(1,1)"><path fill="none" stroke="#000000" d="M 480 40 L 660.08447265625 40 L 660.08447265625 79 L 480 79 L 480 40 Z Z" stroke-miterlimit="10"/></g><g transform="translate(-278,2) scale(1,1)"><g><path fill="none" stroke="none"/><text fill="#000000" stroke="none" font-family="Arial" font-size="13px" font-style="normal" font-weight="bold" text-decoration="none" x="496.345947265625" y="59.5">CheckPrescriptionControl</text></g></g><g transform="translate(-278,2) scale(1,1)"><path fill="none" stroke="#000000" d="M 571.5 80 L 571.5 368" stroke-miterlimit="10" stroke-dasharray="3"/></g><g transform="translate(-278,2) scale(1,1)"><rect fill="#C0C0C0" stroke="none" x="807" y="47" width="96.05419921875" height="39" opacity="0.2"/></g><g transform="translate(-278,2) scale(1,1)"><rect fill="#ffffff" stroke="none" x="800" y="40" width="96.05419921875" height="39"/></g><g transform="translate(-278,2) scale(1,1)"><path fill="none" stroke="#000000" d="M 800 40 L 896.05419921875 40 L 896.05419921875 79 L 800 79 L 800 40 Z Z" stroke-miterlimit="10"/></g><g transform="translate(-278,2) scale(1,1)"><g><path fill="none" stroke="none"/><text fill="#000000" stroke="none" font-family="Arial" font-size="13px" font-style="normal" font-weight="bold" text-decoration="none" x="811.896240234375" y="59.5">TestRequest</text></g></g><g transform="translate(-278,2) scale(1,1)"><path fill="none" stroke="#000000" d="M 849.5 80 L 849.5 376" stroke-miterlimit="10" stroke-dasharray="3"/></g><g transform="translate(-278,2) scale(1,1)"><rect fill="#C0C0C0" stroke="none" x="959" y="171" width="94.8544921875" height="39" opacity="0.2"/></g><g transform="translate(-278,2) scale(1,1)"><rect fill="#ffffff" stroke="none" x="952" y="164" width="94.8544921875" height="39"/></g><g transform="translate(-278,2) scale(1,1)"><path fill="none" stroke="#000000" d="M 952 164 L 1046.8544921875 164 L 1046.8544921875 203 L 952 203 L 952 164 Z Z" stroke-miterlimit="10"/></g><g transform="translate(-278,2) scale(1,1)"><g><path fill="none" stroke="none"/><text fill="#000000" stroke="none" font-family="Arial" font-size="13px" font-style="normal" font-weight="bold" text-decoration="none" x="965.108642578125" y="183.5">Prescription</text></g></g><g transform="translate(-278,2) scale(1,1)"><path fill="none" stroke="#000000" d="M 1000.5 204 L 1000.5 376" stroke-miterlimit="10" stroke-dasharray="3"/></g><g transform="translate(-278,2) scale(1,1)"><g><path fill="none" stroke="none"/><text fill="#ff82c0" stroke="none" font-family="Arial" font-size="13px" font-style="normal" font-weight="normal" text-decoration="none" x="325" y="26">getTestNames Sequence Diagram</text></g></g><g transform="translate(-278,2) scale(1,1)"><path fill="none" stroke="#000000" d="M 336 136 L 564 136" stroke-miterlimit="10"/></g><g transform="translate(-278,2) scale(1,1)"><path fill="#000000" stroke="none" d="M 553.8373251423759 140.209517756016 L 564 136 L 553.8373251423758 131.790482243984"/></g><g transform="translate(-278,2) scale(1,1)"><path fill="none" stroke="#000000" d="M 553.8373251423759 140.209517756016 L 564 136 L 553.8373251423758 131.790482243984 L 553.8373251423759 140.209517756016" stroke-miterlimit="10"/></g><g transform="translate(-278,2) scale(1,1)"><g><path fill="none" stroke="none"/><text fill="#000000" stroke="none" font-family="Arial" font-size="13px" font-style="normal" font-weight="normal" text-decoration="none" x="350.5" y="130.5">getTestNames(prescriptionImage)</text></g></g><g transform="translate(-278,2) scale(1,1)"><rect fill="#ffffff" stroke="none" x="564" y="136" width="13" height="28"/></g><g transform="translate(-278,2) scale(1,1)"><path fill="none" stroke="#000000" d="M 564 136 L 577 136 L 577 164 L 564 164 L 564 136 Z Z" stroke-miterlimit="10"/></g><g transform="translate(-278,2) scale(1,1)"><path fill="none" stroke="#000000" d="M 577 160 L 842 160" stroke-miterlimit="10"/></g><g transform="translate(-278,2) scale(1,1)"><path fill="#000000" stroke="none" d="M 831.8373251423759 164.209517756016 L 842 160 L 831.8373251423758 155.790482243984"/></g><g transform="translate(-278,2) scale(1,1)"><path fill="none" stroke="#000000" d="M 831.8373251423759 164.209517756016 L 842 160 L 831.8373251423758 155.790482243984 L 831.8373251423759 164.209517756016" stroke-miterlimit="10"/></g><g transform="translate(-278,2) scale(1,1)"><g><path fill="none" stroke="none"/><text fill="#000000" stroke="none" font-family="Arial" font-size="13px" font-style="normal" font-weight="normal" text-decoration="none" x="579.5" y="156.5">preID = makePrescription(prescriptionImage)</text></g></g><g transform="translate(-278,2) scale(1,1)"><rect fill="#ffffff" stroke="none" x="842" y="160" width="13" height="28"/></g><g transform="translate(-278,2) scale(1,1)"><path fill="none" stroke="#000000" d="M 842 160 L 855 160 L 855 188 L 842 188 L 842 160 Z Z" stroke-miterlimit="10"/></g><g transform="translate(-278,2) scale(1,1)"><path fill="none" stroke="#000000" d="M 855 184 L 952 184" stroke-miterlimit="10" stroke-dasharray="3"/></g><g transform="translate(-278,2) scale(1,1)"><path fill="none" stroke="#000000" d="M 941.8373251423759 188.209517756016 L 952 184 L 941.8373251423758 179.790482243984" stroke-miterlimit="10"/></g><g transform="translate(-278,2) scale(1,1)"><g><path fill="none" stroke="none"/><text fill="#000000" stroke="none" font-family="Arial" font-size="13px" font-style="normal" font-weight="normal" text-decoration="none" x="879.5" y="180.5">«create»</text></g></g><g transform="translate(-278,2) scale(1,1)"><path fill="none" stroke="#000000" d="M 571 288 L 601 288 L 601 308 L 577 308" stroke-miterlimit="10"/></g><g transform="translate(-278,2) scale(1,1)"><path fill="#000000" stroke="none" d="M 587.1626748576241 303.790482243984 L 577 308 L 587.1626748576241 312.209517756016"/></g><g transform="translate(-278,2) scale(1,1)"><path fill="none" stroke="#000000" d="M 587.1626748576241 303.790482243984 L 577 308 L 587.1626748576241 312.209517756016 L 587.1626748576241 303.790482243984" stroke-miterlimit="10"/></g><g transform="translate(-278,2) scale(1,1)"><g><path fill="none" stroke="none"/><text fill="#000000" stroke="none" font-family="Arial" font-size="13px" font-style="normal" font-weight="normal" text-decoration="none" x="604.5" y="303.5">addToUncheckedPrescription(preID)</text></g></g><g transform="translate(-278,2) scale(1,1)"><rect fill="#ffffff" stroke="none" x="564" y="308" width="13" height="28"/></g><g transform="translate(-278,2) scale(1,1)"><path fill="none" stroke="#000000" d="M 564 308 L 577 308 L 577 336 L 564 336 L 564 308 Z Z" stroke-miterlimit="10"/></g></g></svg>