<svg version="1.1" xmlns="http://www.w3.org/2000/svg" xmlns:xlink="http://www.w3.org/1999/xlink" width="968.8798828125" height="500"><defs/><g><text fill="#eeeeee" stroke="none" font-family="Arial" font-size="24px" font-style="normal" font-weight="normal" text-decoration="none" x="0" y="0">UNREGISTERED</text><text fill="#eeeeee" stroke="none" font-family="Arial" font-size="24px" font-style="normal" font-weight="normal" text-decoration="none" x="0" y="30">UNREGISTERED</text><text fill="#eeeeee" stroke="none" font-family="Arial" font-size="24px" font-style="normal" font-weight="normal" text-decoration="none" x="0" y="60">UNREGISTERED</text><text fill="#eeeeee" stroke="none" font-family="Arial" font-size="24px" font-style="normal" font-weight="normal" text-decoration="none" x="0" y="90">UNREGISTERED</text><text fill="#eeeeee" stroke="none" font-family="Arial" font-size="24px" font-style="normal" font-weight="normal" text-decoration="none" x="0" y="120">UNREGISTERED</text><text fill="#eeeeee" stroke="none" font-family="Arial" font-size="24px" font-style="normal" font-weight="normal" text-decoration="none" x="0" y="150">UNREGISTERED</text><text fill="#eeeeee" stroke="none" font-family="Arial" font-size="24px" font-style="normal" font-weight="normal" text-decoration="none" x="0" y="180">UNREGISTERED</text><text fill="#eeeeee" stroke="none" font-family="Arial" font-size="24px" font-style="normal" font-weight="normal" text-decoration="none" x="0" y="210">UNREGISTERED</text><text fill="#eeeeee" stroke="none" font-family="Arial" font-size="24px" font-style="normal" font-weight="normal" text-decoration="none" x="0" y="240">UNREGISTERED</text><text fill="#eeeeee" stroke="none" font-family="Arial" font-size="24px" font-style="normal" font-weight="normal" text-decoration="none" x="0" y="270">UNREGISTERED</text><text fill="#eeeeee" stroke="none" font-family="Arial" font-size="24px" font-style="normal" font-weight="normal" text-decoration="none" x="0" y="300">UNREGISTERED</text><text fill="#eeeeee" stroke="none" font-family="Arial" font-size="24px" font-style="normal" font-weight="normal" text-decoration="none" x="0" y="330">UNREGISTERED</text><text fill="#eeeeee" stroke="none" font-family="Arial" font-size="24px" font-style="normal" font-weight="normal" text-decoration="none" x="0" y="360">UNREGISTERED</text><text fill="#eeeeee" stroke="none" font-family="Arial" font-size="24px" font-style="normal" font-weight="normal" text-decoration="none" x="0" y="390">UNREGISTERED</text><text fill="#eeeeee" stroke="none" font-family="Arial" font-size="24px" font-style="normal" font-weight="normal" text-decoration="none" x="0" y="420">UNREGISTERED</text><text fill="#eeeeee" stroke="none" font-family="Arial" font-size="24px" font-style="normal" font-weight="normal" text-decoration="none" x="0" y="450">UNREGISTERED</text><text fill="#eeeeee" stroke="none" font-family="Arial" font-size="24px" font-style="normal" font-weight="normal" text-decoration="none" x="0" y="480">UNREGISTERED</text><text fill="#eeeeee" stroke="none" font-family="Arial" font-size="24px" font-style="normal" font-weight="normal" text-decoration="none" x="200" y="0">UNREGISTERED</text><text fill="#eeeeee" stroke="none" font-family="Arial" font-size="24px" font-style="normal" font-weight="normal" text-decoration="none" x="200" y="30">UNREGISTERED</text><text fill="#eeeeee" stroke="none" font-family="Arial" font-size="24px" font-style="normal" font-weight="normal" text-decoration="none" x="200" y="60">UNREGISTERED</text><text fill="#eeeeee" stroke="none" font-family="Arial" font-size="24px" font-style="normal" font-weight="normal" text-decoration="none" x="200" y="90">UNREGISTERED</text><text fill="#eeeeee" stroke="none" font-family="Arial" font-size="24px" font-style="normal" font-weight="normal" text-decoration="none" x="200" y="120">UNREGISTERED</text><text fill="#eeeeee" stroke="none" font-family="Arial" font-size="24px" font-style="normal" font-weight="normal" text-decoration="none" x="200" y="150">UNREGISTERED</text><text fill="#eeeeee" stroke="none" font-family="Arial" font-size="24px" font-style="normal" font-weight="normal" text-decoration="none" x="200" y="180">UNREGISTERED</text><text fill="#eeeeee" stroke="none" font-family="Arial" font-size="24px" font-style="normal" font-weight="normal" text-decoration="none" x="200" y="210">UNREGISTERED</text><text fill="#eeeeee" stroke="none" font-family="Arial" font-size="24px" font-style="normal" font-weight="normal" text-decoration="none" x="200" y="240">UNREGISTERED</text><text fill="#eeeeee" stroke="none" font-family="Arial" font-size="24px" font-style="normal" font-weight="normal" text-decoration="none" x="200" y="270">UNREGISTERED</text><text fill="#eeeeee" stroke="none" font-family="Arial" font-size="24px" font-style="normal" font-weight="normal" text-decoration="none" x="200" y="300">UNREGISTERED</text><text fill="#eeeeee" stroke="none" font-family="Arial" font-size="24px" font-style="normal" font-weight="normal" text-decoration="none" x="200" y="330">UNREGISTERED</text><text fill="#eeeeee" stroke="none" font-family="Arial" font-size="24px" font-style="normal" font-weight="normal" text-decoration="none" x="200" y="360">UNREGISTERED</text><text fill="#eeeeee" stroke="none" font-family="Arial" font-size="24px" font-style="normal" font-weight="normal" text-decoration="none" x="200" y="390">UNREGISTERED</text><text fill="#eeeeee" stroke="none" font-family="Arial" font-size="24px" font-style="normal" font-weight="normal" text-decoration="none" x="200" y="420">UNREGISTERED</text><text fill="#eeeeee" stroke="none" font-family="Arial" font-size="24px" font-style="normal" font-weight="normal" text-decoration="none" x="200" y="450">UNREGISTERED</text><text fill="#eeeeee" stroke="none" font-family="Arial" font-size="24px" font-style="normal" font-weight="normal" text-decoration="none" x="200" y="480">UNREGISTERED</text><text fill="#eeeeee" stroke="none" font-family="Arial" font-size="24px" font-style="normal" font-weight="normal" text-decoration="none" x="400" y="0">UNREGISTERED</text><text fill="#eeeeee" stroke="none" font-family="Arial" font-size="24px" font-style="normal" font-weight="normal" text-decoration="none" x="400" y="30">UNREGISTERED</text><text fill="#eeeeee" stroke="none" font-family="Arial" font-size="24px" font-style="normal" font-weight="normal" text-decoration="none" x="400" y="60">UNREGISTERED</text><text fill="#eeeeee" stroke="none" font-family="Arial" font-size="24px" font-style="normal" font-weight="normal" text-decoration="none" x="400" y="90">UNREGISTERED</text><text fill="#eeeeee" stroke="none" font-family="Arial" font-size="24px" font-style="normal" font-weight="normal" text-decoration="none" x="400" y="120">UNREGISTERED</text><text fill="#eeeeee" stroke="none" font-family="Arial" font-size="24px" font-style="normal" font-weight="normal" text-decoration="none" x="400" y="150">UNREGISTERED</text><text fill="#eeeeee" stroke="none" font-family="Arial" font-size="24px" font-style="normal" font-weight="normal" text-decoration="none" x="400" y="180">UNREGISTERED</text><text fill="#eeeeee" stroke="none" font-family="Arial" font-size="24px" font-style="normal" font-weight="normal" text-decoration="none" x="400" y="210">UNREGISTERED</text><text fill="#eeeeee" stroke="none" font-family="Arial" font-size="24px" font-style="normal" font-weight="normal" text-decoration="none" x="400" y="240">UNREGISTERED</text><text fill="#eeeeee" stroke="none" font-family="Arial" font-size="24px" font-style="normal" font-weight="normal" text-decoration="none" x="400" y="270">UNREGISTERED</text><text fill="#eeeeee" stroke="none" font-family="Arial" font-size="24px" font-style="normal" font-weight="normal" text-decoration="none" x="400" y="300">UNREGISTERED</text><text fill="#eeeeee" stroke="none" font-family="Arial" font-size="24px" font-style="normal" font-weight="normal" text-decoration="none" x="400" y="330">UNREGISTERED</text><text fill="#eeeeee" stroke="none" font-family="Arial" font-size="24px" font-style="normal" font-weight="normal" text-decoration="none" x="400" y="360">UNREGISTERED</text><text fill="#eeeeee" stroke="none" font-family="Arial" font-size="24px" font-style="normal" font-weight="normal" text-decoration="none" x="400" y="390">UNREGISTERED</text><text fill="#eeeeee" stroke="none" font-family="Arial" font-size="24px" font-style="normal" font-weight="normal" text-decoration="none" x="400" y="420">UNREGISTERED</text><text fill="#eeeeee" stroke="none" font-family="Arial" font-size="24px" font-style="normal" font-weight="normal" text-decoration="none" x="400" y="450">UNREGISTERED</text><text fill="#eeeeee" stroke="none" font-family="Arial" font-size="24px" font-style="normal" font-weight="normal" text-decoration="none" x="400" y="480">UNREGISTERED</text><text fill="#eeeeee" stroke="none" font-family="Arial" font-size="24px" font-style="normal" font-weight="normal" text-decoration="none" x="600" y="0">UNREGISTERED</text><text fill="#eeeeee" stroke="none" font-family="Arial" font-size="24px" font-style="normal" font-weight="normal" text-decoration="none" x="600" y="30">UNREGISTERED</text><text fill="#eeeeee" stroke="none" font-family="Arial" font-size="24px" font-style="normal" font-weight="normal" text-decoration="none" x="600" y="60">UNREGISTERED</text><text fill="#eeeeee" stroke="none" font-family="Arial" font-size="24px" font-style="normal" font-weight="normal" text-decoration="none" x="600" y="90">UNREGISTERED</text><text fill="#eeeeee" stroke="none" font-family="Arial" font-size="24px" font-style="normal" font-weight="normal" text-decoration="none" x="600" y="120">UNREGISTERED</text><text fill="#eeeeee" stroke="none" font-family="Arial" font-size="24px" font-style="normal" font-weight="normal" text-decoration="none" x="600" y="150">UNREGISTERED</text><text fill="#eeeeee" stroke="none" font-family="Arial" font-size="24px" font-style="normal" font-weight="normal" text-decoration="none" x="600" y="180">UNREGISTERED</text><text fill="#eeeeee" stroke="none" font-family="Arial" font-size="24px" font-style="normal" font-weight="normal" text-decoration="none" x="600" y="210">UNREGISTERED</text><text fill="#eeeeee" stroke="none" font-family="Arial" font-size="24px" font-style="normal" font-weight="normal" text-decoration="none" x="600" y="240">UNREGISTERED</text><text fill="#eeeeee" stroke="none" font-family="Arial" font-size="24px" font-style="normal" font-weight="normal" text-decoration="none" x="600" y="270">UNREGISTERED</text><text fill="#eeeeee" stroke="none" font-family="Arial" font-size="24px" font-style="normal" font-weight="normal" text-decoration="none" x="600" y="300">UNREGISTERED</text><text fill="#eeeeee" stroke="none" font-family="Arial" font-size="24px" font-style="normal" font-weight="normal" text-decoration="none" x="600" y="330">UNREGISTERED</text><text fill="#eeeeee" stroke="none" font-family="Arial" font-size="24px" font-style="normal" font-weight="normal" text-decoration="none" x="600" y="360">UNREGISTERED</text><text fill="#eeeeee" stroke="none" font-family="Arial" font-size="24px" font-style="normal" font-weight="normal" text-decoration="none" x="600" y="390">UNREGISTERED</text><text fill="#eeeeee" stroke="none" font-family="Arial" font-size="24px" font-style="normal" font-weight="normal" text-decoration="none" x="600" y="420">UNREGISTERED</text><text fill="#eeeeee" stroke="none" font-family="Arial" font-size="24px" font-style="normal" font-weight="normal" text-decoration="none" x="600" y="450">UNREGISTERED</text><text fill="#eeeeee" stroke="none" font-family="Arial" font-size="24px" font-style="normal" font-weight="normal" text-decoration="none" x="600" y="480">UNREGISTERED</text><text fill="#eeeeee" stroke="none" font-family="Arial" font-size="24px" font-style="normal" font-weight="normal" text-decoration="none" x="800" y="0">UNREGISTERED</text><text fill="#eeeeee" stroke="none" font-family="Arial" font-size="24px" font-style="normal" font-weight="normal" text-decoration="none" x="800" y="30">UNREGISTERED</text><text fill="#eeeeee" stroke="none" font-family="Arial" font-size="24px" font-style="normal" font-weight="normal" text-decoration="none" x="800" y="60">UNREGISTERED</text><text fill="#eeeeee" stroke="none" font-family="Arial" font-size="24px" font-style="normal" font-weight="normal" text-decoration="none" x="800" y="90">UNREGISTERED</text><text fill="#eeeeee" stroke="none" font-family="Arial" font-size="24px" font-style="normal" font-weight="normal" text-decoration="none" x="800" y="120">UNREGISTERED</text><text fill="#eeeeee" stroke="none" font-family="Arial" font-size="24px" font-style="normal" font-weight="normal" text-decoration="none" x="800" y="150">UNREGISTERED</text><text fill="#eeeeee" stroke="none" font-family="Arial" font-size="24px" font-style="normal" font-weight="normal" text-decoration="none" x="800" y="180">UNREGISTERED</text><text fill="#eeeeee" stroke="none" font-family="Arial" font-size="24px" font-style="normal" font-weight="normal" text-decoration="none" x="800" y="210">UNREGISTERED</text><text fill="#eeeeee" stroke="none" font-family="Arial" font-size="24px" font-style="normal" font-weight="normal" text-decoration="none" x="800" y="240">UNREGISTERED</text><text fill="#eeeeee" stroke="none" font-family="Arial" font-size="24px" font-style="normal" font-weight="normal" text-decoration="none" x="800" y="270">UNREGISTERED</text><text fill="#eeeeee" stroke="none" font-family="Arial" font-size="24px" font-style="normal" font-weight="normal" text-decoration="none" x="800" y="300">UNREGISTERED</text><text fill="#eeeeee" stroke="none" font-family="Arial" font-size="24px" font-style="normal" font-weight="normal" text-decoration="none" x="800" y="330">UNREGISTERED</text><text fill="#eeeeee" stroke="none" font-family="Arial" font-size="24px" font-style="normal" font-weight="normal" text-decoration="none" x="800" y="360">UNREGISTERED</text><text fill="#eeeeee" stroke="none" font-family="Arial" font-size="24px" font-style="normal" font-weight="normal" text-decoration="none" x="800" y="390">UNREGISTERED</text><text fill="#eeeeee" stroke="none" font-family="Arial" font-size="24px" font-style="normal" font-weight="normal" text-decoration="none" x="800" y="420">UNREGISTERED</text><text fill="#eeeeee" stroke="none" font-family="Arial" font-size="24px" font-style="normal" font-weight="normal" text-decoration="none" x="800" y="450">UNREGISTERED</text><text fill="#eeeeee" stroke="none" font-family="Arial" font-size="24px" font-style="normal" font-weight="normal" text-decoration="none" x="800" y="480">UNREGISTERED</text><g transform="translate(-214,2) scale(1,1)"><path fill="#ffffff" stroke="none" d="M 265.3143172940341 47.3 C 265.3143172940341 43.82060576 268.1927190162159 41 271.743408203125 41 C 275.2940973900341 41 278.172499112216 43.82060576 278.172499112216 47.3 C 278.172499112216 50.779394239999995 275.2940973900341 53.6 271.743408203125 53.6 C 268.1927190162159 53.6 265.3143172940341 50.779394239999995 265.3143172940341 47.3 Z"/></g><g transform="translate(-214,2) scale(1,1)"><path fill="none" stroke="#000000" d="M 265.3143172940341 47.3 C 265.3143172940341 43.82060576 268.1927190162159 41 271.743408203125 41 C 275.2940973900341 41 278.172499112216 43.82060576 278.172499112216 47.3 C 278.172499112216 50.779394239999995 275.2940973900341 53.6 271.743408203125 53.6 C 268.1927190162159 53.6 265.3143172940341 50.779394239999995 265.3143172940341 47.3 Z" stroke-miterlimit="10"/></g><g transform="translate(-214,2) scale(1,1)"><path fill="none" stroke="#000000" d="M 271.743408203125 53.6 L 271.743408203125 66.4" stroke-miterlimit="10"/></g><g transform="translate(-214,2) scale(1,1)"><path fill="none" stroke="#000000" d="M 264.93613547585227 58.4 L 278.5506809303978 58.4" stroke-miterlimit="10"/></g><g transform="translate(-214,2) scale(1,1)"><path fill="none" stroke="#000000" d="M 271.743408203125 66.4 L 262.28886274857956 79" stroke-miterlimit="10"/></g><g transform="translate(-214,2) scale(1,1)"><path fill="none" stroke="#000000" d="M 271.743408203125 66.4 L 281.1979536576705 79" stroke-miterlimit="10"/></g><g transform="translate(-214,2) scale(1,1)"><g><path fill="none" stroke="none"/><text fill="#000000" stroke="none" font-family="Arial" font-size="13px" font-style="normal" font-weight="bold" text-decoration="none" x="247.895263671875" y="99.5">: Patient</text></g></g><g transform="translate(-214,2) scale(1,1)"><path fill="none" stroke="#000000" d="M 272.5 105 L 272.5 430" stroke-miterlimit="10" stroke-dasharray="3"/></g><g transform="translate(-214,2) scale(1,1)"><rect fill="#C0C0C0" stroke="none" x="359" y="47" width="170.68994140625" height="39" opacity="0.2"/></g><g transform="translate(-214,2) scale(1,1)"><rect fill="#ffffff" stroke="none" x="352" y="40" width="170.68994140625" height="39"/></g><g transform="translate(-214,2) scale(1,1)"><path fill="none" stroke="#000000" d="M 352 40 L 522.68994140625 40 L 522.68994140625 79 L 352 79 L 352 40 Z Z" stroke-miterlimit="10"/></g><g transform="translate(-214,2) scale(1,1)"><g><path fill="none" stroke="none"/><text fill="#000000" stroke="none" font-family="Arial" font-size="13px" font-style="normal" font-weight="bold" text-decoration="none" x="366.530517578125" y="59.5">RequestPaymentControl</text></g></g><g transform="translate(-214,2) scale(1,1)"><path fill="none" stroke="#000000" d="M 438.5 80 L 438.5 464" stroke-miterlimit="10" stroke-dasharray="3"/></g><g transform="translate(-214,2) scale(1,1)"><g><path fill="none" stroke="none"/><text fill="#99004c" stroke="none" font-family="Arial" font-size="13px" font-style="normal" font-weight="normal" text-decoration="none" x="253" y="26">requestPayment Sequence Diagram</text></g></g><g transform="translate(-214,2) scale(1,1)"><rect fill="#C0C0C0" stroke="none" x="591" y="47" width="96.05419921875" height="39" opacity="0.2"/></g><g transform="translate(-214,2) scale(1,1)"><rect fill="#ffffff" stroke="none" x="584" y="40" width="96.05419921875" height="39"/></g><g transform="translate(-214,2) scale(1,1)"><path fill="none" stroke="#000000" d="M 584 40 L 680.05419921875 40 L 680.05419921875 79 L 584 79 L 584 40 Z Z" stroke-miterlimit="10"/></g><g transform="translate(-214,2) scale(1,1)"><g><path fill="none" stroke="none"/><text fill="#000000" stroke="none" font-family="Arial" font-size="13px" font-style="normal" font-weight="bold" text-decoration="none" x="595.896240234375" y="59.5">TestRequest</text></g></g><g transform="translate(-214,2) scale(1,1)"><path fill="none" stroke="#000000" d="M 633.5 80 L 633.5 434" stroke-miterlimit="10" stroke-dasharray="3"/></g><g transform="translate(-214,2) scale(1,1)"><rect fill="#C0C0C0" stroke="none" x="1007" y="47" width="172.8798828125" height="39" opacity="0.2"/></g><g transform="translate(-214,2) scale(1,1)"><rect fill="#ffffff" stroke="none" x="1000" y="40" width="172.8798828125" height="39"/></g><g transform="translate(-214,2) scale(1,1)"><path fill="none" stroke="#000000" d="M 1000 40 L 1172.8798828125 40 L 1172.8798828125 79 L 1000 79 L 1000 40 Z Z" stroke-miterlimit="10"/></g><g transform="translate(-214,2) scale(1,1)"><g><path fill="none" stroke="none"/><text fill="#000000" stroke="none" font-family="Arial" font-size="13px" font-style="normal" font-weight="bold" text-decoration="none" x="1013.089599609375" y="59.5">ManageRequestPayment</text></g></g><g transform="translate(-214,2) scale(1,1)"><path fill="none" stroke="#000000" d="M 1087.5 80 L 1087.5 488" stroke-miterlimit="10" stroke-dasharray="3"/></g><g transform="translate(-214,2) scale(1,1)"><rect fill="#C0C0C0" stroke="none" x="807" y="47" width="80.41357421875" height="39" opacity="0.2"/></g><g transform="translate(-214,2) scale(1,1)"><rect fill="#ffffff" stroke="none" x="800" y="40" width="80.41357421875" height="39"/></g><g transform="translate(-214,2) scale(1,1)"><path fill="none" stroke="#000000" d="M 800 40 L 880.41357421875 40 L 880.41357421875 79 L 800 79 L 800 40 Z Z" stroke-miterlimit="10"/></g><g transform="translate(-214,2) scale(1,1)"><g><path fill="none" stroke="none"/><text fill="#000000" stroke="none" font-family="Arial" font-size="13px" font-style="normal" font-weight="bold" text-decoration="none" x="811.661376953125" y="59.5">Insurance</text></g></g><g transform="translate(-214,2) scale(1,1)"><path fill="none" stroke="#000000" d="M 841.5 80 L 841.5 242" stroke-miterlimit="10" stroke-dasharray="3"/></g><g transform="translate(-214,2) scale(1,1)"><path fill="none" stroke="#000000" d="M 272 120 L 431 120" stroke-miterlimit="10"/></g><g transform="translate(-214,2) scale(1,1)"><path fill="#000000" stroke="none" d="M 420.83732514237585 124.20951775601598 L 431 120 L 420.83732514237585 115.79048224398402"/></g><g transform="translate(-214,2) scale(1,1)"><path fill="none" stroke="#000000" d="M 420.83732514237585 124.20951775601598 L 431 120 L 420.83732514237585 115.79048224398402 L 420.83732514237585 124.20951775601598" stroke-miterlimit="10"/></g><g transform="translate(-214,2) scale(1,1)"><g><path fill="none" stroke="none"/><text fill="#000000" stroke="none" font-family="Arial" font-size="13px" font-style="normal" font-weight="normal" text-decoration="none" x="299.5" y="116.5">requestPayment()</text></g></g><g transform="translate(-214,2) scale(1,1)"><rect fill="#ffffff" stroke="none" x="431" y="120" width="13" height="272"/></g><g transform="translate(-214,2) scale(1,1)"><path fill="none" stroke="#000000" d="M 431 120 L 444 120 L 444 392 L 431 392 L 431 120 Z Z" stroke-miterlimit="10"/></g><g transform="translate(-214,2) scale(1,1)"><path fill="none" stroke="#000000" d="M 444 128 L 626 128" stroke-miterlimit="10"/></g><g transform="translate(-214,2) scale(1,1)"><path fill="#000000" stroke="none" d="M 615.8373251423759 132.209517756016 L 626 128 L 615.8373251423758 123.79048224398402"/></g><g transform="translate(-214,2) scale(1,1)"><path fill="none" stroke="#000000" d="M 615.8373251423759 132.209517756016 L 626 128 L 615.8373251423758 123.79048224398402 L 615.8373251423759 132.209517756016" stroke-miterlimit="10"/></g><g transform="translate(-214,2) scale(1,1)"><g><path fill="none" stroke="none"/><text fill="#000000" stroke="none" font-family="Arial" font-size="13px" font-style="normal" font-weight="normal" text-decoration="none" x="471.5" y="124.5">price = getTotalPrice()</text></g></g><g transform="translate(-214,2) scale(1,1)"><rect fill="#ffffff" stroke="none" x="626" y="128" width="13" height="139"/></g><g transform="translate(-214,2) scale(1,1)"><path fill="none" stroke="#000000" d="M 626 128 L 639 128 L 639 267 L 626 267 L 626 128 Z Z" stroke-miterlimit="10"/></g><g transform="translate(-214,2) scale(1,1)"><path fill="none" stroke="#000000" d="M 639 136 L 834 136" stroke-miterlimit="10"/></g><g transform="translate(-214,2) scale(1,1)"><path fill="#000000" stroke="none" d="M 823.8373251423759 140.209517756016 L 834 136 L 823.8373251423758 131.790482243984"/></g><g transform="translate(-214,2) scale(1,1)"><path fill="none" stroke="#000000" d="M 823.8373251423759 140.209517756016 L 834 136 L 823.8373251423758 131.790482243984 L 823.8373251423759 140.209517756016" stroke-miterlimit="10"/></g><g transform="translate(-214,2) scale(1,1)"><g><path fill="none" stroke="none"/><text fill="#000000" stroke="none" font-family="Arial" font-size="13px" font-style="normal" font-weight="normal" text-decoration="none" x="703.5" y="132.5">isEnabled()</text></g></g><g transform="translate(-214,2) scale(1,1)"><rect fill="#ffffff" stroke="none" x="834" y="136" width="13" height="28"/></g><g transform="translate(-214,2) scale(1,1)"><path fill="none" stroke="#000000" d="M 834 136 L 847 136 L 847 164 L 834 164 L 834 136 Z Z" stroke-miterlimit="10"/></g><g transform="translate(-214,2) scale(1,1)"><path fill="none" stroke="#000000" d="M 834 160 L 639 160" stroke-miterlimit="10" stroke-dasharray="3"/></g><g transform="translate(-214,2) scale(1,1)"><path fill="none" stroke="#000000" d="M 649.1626748576241 155.790482243984 L 639 160 L 649.1626748576241 164.209517756016" stroke-miterlimit="10"/></g><g transform="translate(-214,2) scale(1,1)"><g><path fill="none" stroke="none"/><text fill="#000000" stroke="none" font-family="Arial" font-size="13px" font-style="normal" font-weight="normal" text-decoration="none" x="724.5" y="155.5">OK</text></g></g><g transform="translate(-214,2) scale(1,1)"><path fill="none" stroke="#000000" d="M 639 192 L 834 192" stroke-miterlimit="10"/></g><g transform="translate(-214,2) scale(1,1)"><path fill="#000000" stroke="none" d="M 823.8373251423759 196.209517756016 L 834 192 L 823.8373251423758 187.790482243984"/></g><g transform="translate(-214,2) scale(1,1)"><path fill="none" stroke="#000000" d="M 823.8373251423759 196.209517756016 L 834 192 L 823.8373251423758 187.790482243984 L 823.8373251423759 196.209517756016" stroke-miterlimit="10"/></g><g transform="translate(-214,2) scale(1,1)"><g><path fill="none" stroke="none"/><text fill="#000000" stroke="none" font-family="Arial" font-size="13px" font-style="normal" font-weight="normal" text-decoration="none" x="660.5" y="188.5">franchise = getFranchise()</text></g></g><g transform="translate(-214,2) scale(1,1)"><rect fill="#ffffff" stroke="none" x="834" y="192" width="13" height="28"/></g><g transform="translate(-214,2) scale(1,1)"><path fill="none" stroke="#000000" d="M 834 192 L 847 192 L 847 220 L 834 220 L 834 192 Z Z" stroke-miterlimit="10"/></g><g transform="translate(-214,2) scale(1,1)"><path fill="none" stroke="#000000" d="M 639 216 L 669 216 L 669 236 L 646 236" stroke-miterlimit="10"/></g><g transform="translate(-214,2) scale(1,1)"><path fill="#000000" stroke="none" d="M 656.1626748576241 231.790482243984 L 646 236 L 656.1626748576241 240.209517756016"/></g><g transform="translate(-214,2) scale(1,1)"><path fill="none" stroke="#000000" d="M 656.1626748576241 231.790482243984 L 646 236 L 656.1626748576241 240.209517756016 L 656.1626748576241 231.790482243984" stroke-miterlimit="10"/></g><g transform="translate(-214,2) scale(1,1)"><g><path fill="none" stroke="none"/><text fill="#000000" stroke="none" font-family="Arial" font-size="13px" font-style="normal" font-weight="normal" text-decoration="none" x="679.5" y="231.5">applyFranchise(franshise)</text></g></g><g transform="translate(-214,2) scale(1,1)"><rect fill="#ffffff" stroke="none" x="633" y="236" width="13" height="28"/></g><g transform="translate(-214,2) scale(1,1)"><path fill="none" stroke="#000000" d="M 633 236 L 646 236 L 646 264 L 633 264 L 633 236 Z Z" stroke-miterlimit="10"/></g><g transform="translate(-214,2) scale(1,1)"><path fill="none" stroke="#000000" d="M 431 272 L 272 272" stroke-miterlimit="10" stroke-dasharray="3"/></g><g transform="translate(-214,2) scale(1,1)"><path fill="none" stroke="#000000" d="M 282.16267485762415 267.790482243984 L 272 272 L 282.16267485762415 276.209517756016" stroke-miterlimit="10"/></g><g transform="translate(-214,2) scale(1,1)"><g><path fill="none" stroke="none"/><text fill="#000000" stroke="none" font-family="Arial" font-size="13px" font-style="normal" font-weight="normal" text-decoration="none" x="319.5" y="267.5">TotalPrice</text></g></g><g transform="translate(-214,2) scale(1,1)"><path fill="none" stroke="#000000" d="M 444 280 L 1080 280" stroke-miterlimit="10"/></g><g transform="translate(-214,2) scale(1,1)"><path fill="#000000" stroke="none" d="M 1069.837325142376 284.209517756016 L 1080 280 L 1069.837325142376 275.790482243984"/></g><g transform="translate(-214,2) scale(1,1)"><path fill="none" stroke="#000000" d="M 1069.837325142376 284.209517756016 L 1080 280 L 1069.837325142376 275.790482243984 L 1069.837325142376 284.209517756016" stroke-miterlimit="10"/></g><g transform="translate(-214,2) scale(1,1)"><g><path fill="none" stroke="none"/><text fill="#000000" stroke="none" font-family="Arial" font-size="13px" font-style="normal" font-weight="normal" text-decoration="none" x="847.180419921875" y="276.5">submitPriceToInternetBanking(price)</text></g></g><g transform="translate(-214,2) scale(1,1)"><rect fill="#ffffff" stroke="none" x="1080" y="280" width="13" height="28"/></g><g transform="translate(-214,2) scale(1,1)"><path fill="none" stroke="#000000" d="M 1080 280 L 1093 280 L 1093 308 L 1080 308 L 1080 280 Z Z" stroke-miterlimit="10"/></g><g transform="translate(-214,2) scale(1,1)"><path fill="none" stroke="#000000" d="M 444 320 L 1080 320" stroke-miterlimit="10"/></g><g transform="translate(-214,2) scale(1,1)"><path fill="#000000" stroke="none" d="M 1069.837325142376 324.209517756016 L 1080 320 L 1069.837325142376 315.790482243984"/></g><g transform="translate(-214,2) scale(1,1)"><path fill="none" stroke="#000000" d="M 1069.837325142376 324.209517756016 L 1080 320 L 1069.837325142376 315.790482243984 L 1069.837325142376 324.209517756016" stroke-miterlimit="10"/></g><g transform="translate(-214,2) scale(1,1)"><g><path fill="none" stroke="none"/><text fill="#000000" stroke="none" font-family="Arial" font-size="13px" font-style="normal" font-weight="normal" text-decoration="none" x="878.5" y="316.5">redirectToInternetBanking()</text></g></g><g transform="translate(-214,2) scale(1,1)"><rect fill="#ffffff" stroke="none" x="1080" y="320" width="13" height="32"/></g><g transform="translate(-214,2) scale(1,1)"><path fill="none" stroke="#000000" d="M 1080 320 L 1093 320 L 1093 352 L 1080 352 L 1080 320 Z Z" stroke-miterlimit="10"/></g><g transform="translate(-214,2) scale(1,1)"><path fill="none" stroke="#000000" d="M 1087 352 L 444 352" stroke-miterlimit="10" stroke-dasharray="3"/></g><g transform="translate(-214,2) scale(1,1)"><path fill="none" stroke="#000000" d="M 454.16267485762415 347.790482243984 L 444 352 L 454.16267485762415 356.209517756016" stroke-miterlimit="10"/></g><g transform="translate(-214,2) scale(1,1)"><g><path fill="none" stroke="none"/><text fill="#000000" stroke="none" font-family="Arial" font-size="13px" font-style="normal" font-weight="normal" text-decoration="none" x="894.5" y="348.5">Payment was Successful</text></g></g></g></svg>