<svg version="1.1" xmlns="http://www.w3.org/2000/svg" xmlns:xlink="http://www.w3.org/1999/xlink" width="1000.8798828125" height="500"><defs/><g><text fill="#eeeeee" stroke="none" font-family="Arial" font-size="24px" font-style="normal" font-weight="normal" text-decoration="none" x="0" y="0"></text><text fill="#eeeeee" stroke="none" font-family="Arial" font-size="24px" font-style="normal" font-weight="normal" text-decoration="none" x="0" y="30"></text><text fill="#eeeeee" stroke="none" font-family="Arial" font-size="24px" font-style="normal" font-weight="normal" text-decoration="none" x="0" y="60"></text><text fill="#eeeeee" stroke="none" font-family="Arial" font-size="24px" font-style="normal" font-weight="normal" text-decoration="none" x="0" y="90"></text><text fill="#eeeeee" stroke="none" font-family="Arial" font-size="24px" font-style="normal" font-weight="normal" text-decoration="none" x="0" y="120"></text><text fill="#eeeeee" stroke="none" font-family="Arial" font-size="24px" font-style="normal" font-weight="normal" text-decoration="none" x="0" y="150"></text><text fill="#eeeeee" stroke="none" font-family="Arial" font-size="24px" font-style="normal" font-weight="normal" text-decoration="none" x="0" y="180"></text><text fill="#eeeeee" stroke="none" font-family="Arial" font-size="24px" font-style="normal" font-weight="normal" text-decoration="none" x="0" y="210"></text><text fill="#eeeeee" stroke="none" font-family="Arial" font-size="24px" font-style="normal" font-weight="normal" text-decoration="none" x="0" y="240"></text><text fill="#eeeeee" stroke="none" font-family="Arial" font-size="24px" font-style="normal" font-weight="normal" text-decoration="none" x="0" y="270"></text><text fill="#eeeeee" stroke="none" font-family="Arial" font-size="24px" font-style="normal" font-weight="normal" text-decoration="none" x="0" y="300"></text><text fill="#eeeeee" stroke="none" font-family="Arial" font-size="24px" font-style="normal" font-weight="normal" text-decoration="none" x="0" y="330"></text><text fill="#eeeeee" stroke="none" font-family="Arial" font-size="24px" font-style="normal" font-weight="normal" text-decoration="none" x="0" y="360"></text><text fill="#eeeeee" stroke="none" font-family="Arial" font-size="24px" font-style="normal" font-weight="normal" text-decoration="none" x="0" y="390"></text><text fill="#eeeeee" stroke="none" font-family="Arial" font-size="24px" font-style="normal" font-weight="normal" text-decoration="none" x="0" y="420"></text><text fill="#eeeeee" stroke="none" font-family="Arial" font-size="24px" font-style="normal" font-weight="normal" text-decoration="none" x="0" y="450"></text><text fill="#eeeeee" stroke="none" font-family="Arial" font-size="24px" font-style="normal" font-weight="normal" text-decoration="none" x="0" y="480"></text><text fill="#eeeeee" stroke="none" font-family="Arial" font-size="24px" font-style="normal" font-weight="normal" text-decoration="none" x="200" y="0"></text><text fill="#eeeeee" stroke="none" font-family="Arial" font-size="24px" font-style="normal" font-weight="normal" text-decoration="none" x="200" y="30"></text><text fill="#eeeeee" stroke="none" font-family="Arial" font-size="24px" font-style="normal" font-weight="normal" text-decoration="none" x="200" y="60"></text><text fill="#eeeeee" stroke="none" font-family="Arial" font-size="24px" font-style="normal" font-weight="normal" text-decoration="none" x="200" y="90"></text><text fill="#eeeeee" stroke="none" font-family="Arial" font-size="24px" font-style="normal" font-weight="normal" text-decoration="none" x="200" y="120"></text><text fill="#eeeeee" stroke="none" font-family="Arial" font-size="24px" font-style="normal" font-weight="normal" text-decoration="none" x="200" y="150"></text><text fill="#eeeeee" stroke="none" font-family="Arial" font-size="24px" font-style="normal" font-weight="normal" text-decoration="none" x="200" y="180"></text><text fill="#eeeeee" stroke="none" font-family="Arial" font-size="24px" font-style="normal" font-weight="normal" text-decoration="none" x="200" y="210"></text><text fill="#eeeeee" stroke="none" font-family="Arial" font-size="24px" font-style="normal" font-weight="normal" text-decoration="none" x="200" y="240"></text><text fill="#eeeeee" stroke="none" font-family="Arial" font-size="24px" font-style="normal" font-weight="normal" text-decoration="none" x="200" y="270"></text><text fill="#eeeeee" stroke="none" font-family="Arial" font-size="24px" font-style="normal" font-weight="normal" text-decoration="none" x="200" y="300"></text><text fill="#eeeeee" stroke="none" font-family="Arial" font-size="24px" font-style="normal" font-weight="normal" text-decoration="none" x="200" y="330"></text><text fill="#eeeeee" stroke="none" font-family="Arial" font-size="24px" font-style="normal" font-weight="normal" text-decoration="none" x="200" y="360"></text><text fill="#eeeeee" stroke="none" font-family="Arial" font-size="24px" font-style="normal" font-weight="normal" text-decoration="none" x="200" y="390"></text><text fill="#eeeeee" stroke="none" font-family="Arial" font-size="24px" font-style="normal" font-weight="normal" text-decoration="none" x="200" y="420"></text><text fill="#eeeeee" stroke="none" font-family="Arial" font-size="24px" font-style="normal" font-weight="normal" text-decoration="none" x="200" y="450"></text><text fill="#eeeeee" stroke="none" font-family="Arial" font-size="24px" font-style="normal" font-weight="normal" text-decoration="none" x="200" y="480"></text><text fill="#eeeeee" stroke="none" font-family="Arial" font-size="24px" font-style="normal" font-weight="normal" text-decoration="none" x="400" y="0"></text><text fill="#eeeeee" stroke="none" font-family="Arial" font-size="24px" font-style="normal" font-weight="normal" text-decoration="none" x="400" y="30"></text><text fill="#eeeeee" stroke="none" font-family="Arial" font-size="24px" font-style="normal" font-weight="normal" text-decoration="none" x="400" y="60"></text><text fill="#eeeeee" stroke="none" font-family="Arial" font-size="24px" font-style="normal" font-weight="normal" text-decoration="none" x="400" y="90"></text><text fill="#eeeeee" stroke="none" font-family="Arial" font-size="24px" font-style="normal" font-weight="normal" text-decoration="none" x="400" y="120"></text><text fill="#eeeeee" stroke="none" font-family="Arial" font-size="24px" font-style="normal" font-weight="normal" text-decoration="none" x="400" y="150"></text><text fill="#eeeeee" stroke="none" font-family="Arial" font-size="24px" font-style="normal" font-weight="normal" text-decoration="none" x="400" y="180"></text><text fill="#eeeeee" stroke="none" font-family="Arial" font-size="24px" font-style="normal" font-weight="normal" text-decoration="none" x="400" y="210"></text><text fill="#eeeeee" stroke="none" font-family="Arial" font-size="24px" font-style="normal" font-weight="normal" text-decoration="none" x="400" y="240"></text><text fill="#eeeeee" stroke="none" font-family="Arial" font-size="24px" font-style="normal" font-weight="normal" text-decoration="none" x="400" y="270"></text><text fill="#eeeeee" stroke="none" font-family="Arial" font-size="24px" font-style="normal" font-weight="normal" text-decoration="none" x="400" y="300"></text><text fill="#eeeeee" stroke="none" font-family="Arial" font-size="24px" font-style="normal" font-weight="normal" text-decoration="none" x="400" y="330"></text><text fill="#eeeeee" stroke="none" font-family="Arial" font-size="24px" font-style="normal" font-weight="normal" text-decoration="none" x="400" y="360"></text><text fill="#eeeeee" stroke="none" font-family="Arial" font-size="24px" font-style="normal" font-weight="normal" text-decoration="none" x="400" y="390"></text><text fill="#eeeeee" stroke="none" font-family="Arial" font-size="24px" font-style="normal" font-weight="normal" text-decoration="none" x="400" y="420"></text><text fill="#eeeeee" stroke="none" font-family="Arial" font-size="24px" font-style="normal" font-weight="normal" text-decoration="none" x="400" y="450"></text><text fill="#eeeeee" stroke="none" font-family="Arial" font-size="24px" font-style="normal" font-weight="normal" text-decoration="none" x="400" y="480"></text><text fill="#eeeeee" stroke="none" font-family="Arial" font-size="24px" font-style="normal" font-weight="normal" text-decoration="none" x="600" y="0"></text><text fill="#eeeeee" stroke="none" font-family="Arial" font-size="24px" font-style="normal" font-weight="normal" text-decoration="none" x="600" y="30"></text><text fill="#eeeeee" stroke="none" font-family="Arial" font-size="24px" font-style="normal" font-weight="normal" text-decoration="none" x="600" y="60"></text><text fill="#eeeeee" stroke="none" font-family="Arial" font-size="24px" font-style="normal" font-weight="normal" text-decoration="none" x="600" y="90"></text><text fill="#eeeeee" stroke="none" font-family="Arial" font-size="24px" font-style="normal" font-weight="normal" text-decoration="none" x="600" y="120"></text><text fill="#eeeeee" stroke="none" font-family="Arial" font-size="24px" font-style="normal" font-weight="normal" text-decoration="none" x="600" y="150"></text><text fill="#eeeeee" stroke="none" font-family="Arial" font-size="24px" font-style="normal" font-weight="normal" text-decoration="none" x="600" y="180"></text><text fill="#eeeeee" stroke="none" font-family="Arial" font-size="24px" font-style="normal" font-weight="normal" text-decoration="none" x="600" y="210"></text><text fill="#eeeeee" stroke="none" font-family="Arial" font-size="24px" font-style="normal" font-weight="normal" text-decoration="none" x="600" y="240"></text><text fill="#eeeeee" stroke="none" font-family="Arial" font-size="24px" font-style="normal" font-weight="normal" text-decoration="none" x="600" y="270"></text><text fill="#eeeeee" stroke="none" font-family="Arial" font-size="24px" font-style="normal" font-weight="normal" text-decoration="none" x="600" y="300"></text><text fill="#eeeeee" stroke="none" font-family="Arial" font-size="24px" font-style="normal" font-weight="normal" text-decoration="none" x="600" y="330"></text><text fill="#eeeeee" stroke="none" font-family="Arial" font-size="24px" font-style="normal" font-weight="normal" text-decoration="none" x="600" y="360"></text><text fill="#eeeeee" stroke="none" font-family="Arial" font-size="24px" font-style="normal" font-weight="normal" text-decoration="none" x="600" y="390"></text><text fill="#eeeeee" stroke="none" font-family="Arial" font-size="24px" font-style="normal" font-weight="normal" text-decoration="none" x="600" y="420"></text><text fill="#eeeeee" stroke="none" font-family="Arial" font-size="24px" font-style="normal" font-weight="normal" text-decoration="none" x="600" y="450"></text><text fill="#eeeeee" stroke="none" font-family="Arial" font-size="24px" font-style="normal" font-weight="normal" text-decoration="none" x="600" y="480"></text><text fill="#eeeeee" stroke="none" font-family="Arial" font-size="24px" font-style="normal" font-weight="normal" text-decoration="none" x="800" y="0"></text><text fill="#eeeeee" stroke="none" font-family="Arial" font-size="24px" font-style="normal" font-weight="normal" text-decoration="none" x="800" y="30"></text><text fill="#eeeeee" stroke="none" font-family="Arial" font-size="24px" font-style="normal" font-weight="normal" text-decoration="none" x="800" y="60"></text><text fill="#eeeeee" stroke="none" font-family="Arial" font-size="24px" font-style="normal" font-weight="normal" text-decoration="none" x="800" y="90"></text><text fill="#eeeeee" stroke="none" font-family="Arial" font-size="24px" font-style="normal" font-weight="normal" text-decoration="none" x="800" y="120"></text><text fill="#eeeeee" stroke="none" font-family="Arial" font-size="24px" font-style="normal" font-weight="normal" text-decoration="none" x="800" y="150"></text><text fill="#eeeeee" stroke="none" font-family="Arial" font-size="24px" font-style="normal" font-weight="normal" text-decoration="none" x="800" y="180"></text><text fill="#eeeeee" stroke="none" font-family="Arial" font-size="24px" font-style="normal" font-weight="normal" text-decoration="none" x="800" y="210"></text><text fill="#eeeeee" stroke="none" font-family="Arial" font-size="24px" font-style="normal" font-weight="normal" text-decoration="none" x="800" y="240"></text><text fill="#eeeeee" stroke="none" font-family="Arial" font-size="24px" font-style="normal" font-weight="normal" text-decoration="none" x="800" y="270"></text><text fill="#eeeeee" stroke="none" font-family="Arial" font-size="24px" font-style="normal" font-weight="normal" text-decoration="none" x="800" y="300"></text><text fill="#eeeeee" stroke="none" font-family="Arial" font-size="24px" font-style="normal" font-weight="normal" text-decoration="none" x="800" y="330"></text><text fill="#eeeeee" stroke="none" font-family="Arial" font-size="24px" font-style="normal" font-weight="normal" text-decoration="none" x="800" y="360"></text><text fill="#eeeeee" stroke="none" font-family="Arial" font-size="24px" font-style="normal" font-weight="normal" text-decoration="none" x="800" y="390"></text><text fill="#eeeeee" stroke="none" font-family="Arial" font-size="24px" font-style="normal" font-weight="normal" text-decoration="none" x="800" y="420"></text><text fill="#eeeeee" stroke="none" font-family="Arial" font-size="24px" font-style="normal" font-weight="normal" text-decoration="none" x="800" y="450"></text><text fill="#eeeeee" stroke="none" font-family="Arial" font-size="24px" font-style="normal" font-weight="normal" text-decoration="none" x="800" y="480"></text><text fill="#eeeeee" stroke="none" font-family="Arial" font-size="24px" font-style="normal" font-weight="normal" text-decoration="none" x="1000" y="0"></text><text fill="#eeeeee" stroke="none" font-family="Arial" font-size="24px" font-style="normal" font-weight="normal" text-decoration="none" x="1000" y="30"></text><text fill="#eeeeee" stroke="none" font-family="Arial" font-size="24px" font-style="normal" font-weight="normal" text-decoration="none" x="1000" y="60"></text><text fill="#eeeeee" stroke="none" font-family="Arial" font-size="24px" font-style="normal" font-weight="normal" text-decoration="none" x="1000" y="90"></text><text fill="#eeeeee" stroke="none" font-family="Arial" font-size="24px" font-style="normal" font-weight="normal" text-decoration="none" x="1000" y="120"></text><text fill="#eeeeee" stroke="none" font-family="Arial" font-size="24px" font-style="normal" font-weight="normal" text-decoration="none" x="1000" y="150"></text><text fill="#eeeeee" stroke="none" font-family="Arial" font-size="24px" font-style="normal" font-weight="normal" text-decoration="none" x="1000" y="180"></text><text fill="#eeeeee" stroke="none" font-family="Arial" font-size="24px" font-style="normal" font-weight="normal" text-decoration="none" x="1000" y="210"></text><text fill="#eeeeee" stroke="none" font-family="Arial" font-size="24px" font-style="normal" font-weight="normal" text-decoration="none" x="1000" y="240"></text><text fill="#eeeeee" stroke="none" font-family="Arial" font-size="24px" font-style="normal" font-weight="normal" text-decoration="none" x="1000" y="270"></text><text fill="#eeeeee" stroke="none" font-family="Arial" font-size="24px" font-style="normal" font-weight="normal" text-decoration="none" x="1000" y="300"></text><text fill="#eeeeee" stroke="none" font-family="Arial" font-size="24px" font-style="normal" font-weight="normal" text-decoration="none" x="1000" y="330"></text><text fill="#eeeeee" stroke="none" font-family="Arial" font-size="24px" font-style="normal" font-weight="normal" text-decoration="none" x="1000" y="360"></text><text fill="#eeeeee" stroke="none" font-family="Arial" font-size="24px" font-style="normal" font-weight="normal" text-decoration="none" x="1000" y="390"></text><text fill="#eeeeee" stroke="none" font-family="Arial" font-size="24px" font-style="normal" font-weight="normal" text-decoration="none" x="1000" y="420"></text><text fill="#eeeeee" stroke="none" font-family="Arial" font-size="24px" font-style="normal" font-weight="normal" text-decoration="none" x="1000" y="450"></text><text fill="#eeeeee" stroke="none" font-family="Arial" font-size="24px" font-style="normal" font-weight="normal" text-decoration="none" x="1000" y="480"></text><g transform="translate(-182,2) scale(1,1)"><path fill="#ffffff" stroke="none" d="M 237.0181747159091 47.3 C 237.0181747159091 43.82060576 239.8965764380909 41 243.447265625 41 C 246.9979548119091 41 249.87635653409092 43.82060576 249.87635653409092 47.3 C 249.87635653409092 50.779394239999995 246.9979548119091 53.6 243.447265625 53.6 C 239.8965764380909 53.6 237.0181747159091 50.779394239999995 237.0181747159091 47.3 Z"/></g><g transform="translate(-182,2) scale(1,1)"><path fill="none" stroke="#000000" d="M 237.0181747159091 47.3 C 237.0181747159091 43.82060576 239.8965764380909 41 243.447265625 41 C 246.9979548119091 41 249.87635653409092 43.82060576 249.87635653409092 47.3 C 249.87635653409092 50.779394239999995 246.9979548119091 53.6 243.447265625 53.6 C 239.8965764380909 53.6 237.0181747159091 50.779394239999995 237.0181747159091 47.3 Z" stroke-miterlimit="10"/></g><g transform="translate(-182,2) scale(1,1)"><path fill="none" stroke="#000000" d="M 243.447265625 53.6 L 243.447265625 66.4" stroke-miterlimit="10"/></g><g transform="translate(-182,2) scale(1,1)"><path fill="none" stroke="#000000" d="M 236.6399928977273 58.4 L 250.25453835227273 58.4" stroke-miterlimit="10"/></g><g transform="translate(-182,2) scale(1,1)"><path fill="none" stroke="#000000" d="M 243.447265625 66.4 L 233.99272017045456 79" stroke-miterlimit="10"/></g><g transform="translate(-182,2) scale(1,1)"><path fill="none" stroke="#000000" d="M 243.447265625 66.4 L 252.90181107954547 79" stroke-miterlimit="10"/></g><g transform="translate(-182,2) scale(1,1)"><g><path fill="none" stroke="none"/><text fill="#000000" stroke="none" font-family="Arial" font-size="13px" font-style="normal" font-weight="bold" text-decoration="none" x="200.083251953125" y="99.5">patient: Patient</text></g></g><g transform="translate(-182,2) scale(1,1)"><path fill="none" stroke="#000000" d="M 244.5 105 L 244.5 446" stroke-miterlimit="10" stroke-dasharray="3"/></g><g transform="translate(-182,2) scale(1,1)"><rect fill="#C0C0C0" stroke="none" x="368.73486328125" y="47" width="142.26513671875" height="39" opacity="0.2"/></g><g transform="translate(-182,2) scale(1,1)"><rect fill="#ffffff" stroke="none" x="361.73486328125" y="40" width="142.26513671875" height="39"/></g><g transform="translate(-182,2) scale(1,1)"><path fill="none" stroke="#000000" d="M 361.73486328125 40 L 504 40 L 504 79 L 361.73486328125 79 L 361.73486328125 40 Z Z" stroke-miterlimit="10"/></g><g transform="translate(-182,2) scale(1,1)"><g><path fill="none" stroke="none"/><text fill="#000000" stroke="none" font-family="Arial" font-size="13px" font-style="normal" font-weight="bold" text-decoration="none" x="375.782958984375" y="59.5">RequestTestControl</text></g></g><g transform="translate(-182,2) scale(1,1)"><path fill="none" stroke="#000000" d="M 433.5 80 L 433.5 465" stroke-miterlimit="10" stroke-dasharray="3"/></g><g transform="translate(-182,2) scale(1,1)"><g><path fill="none" stroke="none"/><text fill="#99004c" stroke="none" font-family="Arial" font-size="13px" font-style="normal" font-weight="normal" text-decoration="none" x="213" y="26">requestPayment Sequence Diagram</text></g></g><g transform="translate(-182,2) scale(1,1)"><rect fill="#C0C0C0" stroke="none" x="591" y="47" width="182.01416015625" height="39" opacity="0.2"/></g><g transform="translate(-182,2) scale(1,1)"><rect fill="#ffffff" stroke="none" x="584" y="40" width="182.01416015625" height="39"/></g><g transform="translate(-182,2) scale(1,1)"><path fill="none" stroke="#000000" d="M 584 40 L 766.01416015625 40 L 766.01416015625 79 L 584 79 L 584 40 Z Z" stroke-miterlimit="10"/></g><g transform="translate(-182,2) scale(1,1)"><g><path fill="none" stroke="none"/><text fill="#000000" stroke="none" font-family="Arial" font-size="13px" font-style="normal" font-weight="bold" text-decoration="none" x="598.771728515625" y="59.5">testRequest : TestRequest</text></g></g><g transform="translate(-182,2) scale(1,1)"><path fill="none" stroke="#000000" d="M 676.5 80 L 676.5 434" stroke-miterlimit="10" stroke-dasharray="3"/></g><g transform="translate(-182,2) scale(1,1)"><rect fill="#C0C0C0" stroke="none" x="1007" y="47" width="172.8798828125" height="39" opacity="0.2"/></g><g transform="translate(-182,2) scale(1,1)"><rect fill="#ffffff" stroke="none" x="1000" y="40" width="172.8798828125" height="39"/></g><g transform="translate(-182,2) scale(1,1)"><path fill="none" stroke="#000000" d="M 1000 40 L 1172.8798828125 40 L 1172.8798828125 79 L 1000 79 L 1000 40 Z Z" stroke-miterlimit="10"/></g><g transform="translate(-182,2) scale(1,1)"><g><path fill="none" stroke="none"/><text fill="#000000" stroke="none" font-family="Arial" font-size="13px" font-style="normal" font-weight="bold" text-decoration="none" x="1015.62548828125" y="59.5">RequestPaymentControl</text></g></g><g transform="translate(-182,2) scale(1,1)"><path fill="none" stroke="#000000" d="M 1087.5 80 L 1087.5 488" stroke-miterlimit="10" stroke-dasharray="3"/></g><g transform="translate(-182,2) scale(1,1)"><rect fill="#C0C0C0" stroke="none" x="823" y="47" width="153.3798828125" height="39" opacity="0.2"/></g><g transform="translate(-182,2) scale(1,1)"><rect fill="#ffffff" stroke="none" x="816" y="40" width="153.3798828125" height="39"/></g><g transform="translate(-182,2) scale(1,1)"><path fill="none" stroke="#000000" d="M 816 40 L 969.3798828125 40 L 969.3798828125 79 L 816 79 L 816 40 Z Z" stroke-miterlimit="10"/></g><g transform="translate(-182,2) scale(1,1)"><g><path fill="none" stroke="none"/><text fill="#000000" stroke="none" font-family="Arial" font-size="13px" font-style="normal" font-weight="bold" text-decoration="none" x="830.543212890625" y="59.5">insurance : Insurance</text></g></g><g transform="translate(-182,2) scale(1,1)"><path fill="none" stroke="#000000" d="M 893.5 80 L 893.5 242" stroke-miterlimit="10" stroke-dasharray="3"/></g><g transform="translate(-182,2) scale(1,1)"><path fill="none" stroke="#000000" d="M 244 120 L 426 120" stroke-miterlimit="10"/></g><g transform="translate(-182,2) scale(1,1)"><path fill="#000000" stroke="none" d="M 415.83732514237585 124.20951775601598 L 426 120 L 415.83732514237585 115.79048224398402"/></g><g transform="translate(-182,2) scale(1,1)"><path fill="none" stroke="#000000" d="M 415.83732514237585 124.20951775601598 L 426 120 L 415.83732514237585 115.79048224398402 L 415.83732514237585 124.20951775601598" stroke-miterlimit="10"/></g><g transform="translate(-182,2) scale(1,1)"><g><path fill="none" stroke="none"/><text fill="#000000" stroke="none" font-family="Arial" font-size="13px" font-style="normal" font-weight="normal" text-decoration="none" x="283.5" y="116.5">requestPayment()</text></g></g><g transform="translate(-182,2) scale(1,1)"><rect fill="#ffffff" stroke="none" x="426" y="120" width="13" height="272"/></g><g transform="translate(-182,2) scale(1,1)"><path fill="none" stroke="#000000" d="M 426 120 L 439 120 L 439 392 L 426 392 L 426 120 Z Z" stroke-miterlimit="10"/></g><g transform="translate(-182,2) scale(1,1)"><path fill="none" stroke="#000000" d="M 439 128 L 669 128" stroke-miterlimit="10"/></g><g transform="translate(-182,2) scale(1,1)"><path fill="#000000" stroke="none" d="M 658.8373251423759 132.209517756016 L 669 128 L 658.8373251423758 123.79048224398402"/></g><g transform="translate(-182,2) scale(1,1)"><path fill="none" stroke="#000000" d="M 658.8373251423759 132.209517756016 L 669 128 L 658.8373251423758 123.79048224398402 L 658.8373251423759 132.209517756016" stroke-miterlimit="10"/></g><g transform="translate(-182,2) scale(1,1)"><g><path fill="none" stroke="none"/><text fill="#000000" stroke="none" font-family="Arial" font-size="13px" font-style="normal" font-weight="normal" text-decoration="none" x="490.5" y="124.5">price = getTotalPrice()</text></g></g><g transform="translate(-182,2) scale(1,1)"><rect fill="#ffffff" stroke="none" x="669" y="128" width="13" height="139"/></g><g transform="translate(-182,2) scale(1,1)"><path fill="none" stroke="#000000" d="M 669 128 L 682 128 L 682 267 L 669 267 L 669 128 Z Z" stroke-miterlimit="10"/></g><g transform="translate(-182,2) scale(1,1)"><path fill="none" stroke="#000000" d="M 682 136 L 886 136" stroke-miterlimit="10"/></g><g transform="translate(-182,2) scale(1,1)"><path fill="#000000" stroke="none" d="M 875.8373251423759 140.209517756016 L 886 136 L 875.8373251423758 131.790482243984"/></g><g transform="translate(-182,2) scale(1,1)"><path fill="none" stroke="#000000" d="M 875.8373251423759 140.209517756016 L 886 136 L 875.8373251423758 131.790482243984 L 875.8373251423759 140.209517756016" stroke-miterlimit="10"/></g><g transform="translate(-182,2) scale(1,1)"><g><path fill="none" stroke="none"/><text fill="#000000" stroke="none" font-family="Arial" font-size="13px" font-style="normal" font-weight="normal" text-decoration="none" x="751.5" y="132.5">isEnabled()</text></g></g><g transform="translate(-182,2) scale(1,1)"><rect fill="#ffffff" stroke="none" x="886" y="136" width="13" height="28"/></g><g transform="translate(-182,2) scale(1,1)"><path fill="none" stroke="#000000" d="M 886 136 L 899 136 L 899 164 L 886 164 L 886 136 Z Z" stroke-miterlimit="10"/></g><g transform="translate(-182,2) scale(1,1)"><path fill="none" stroke="#000000" d="M 886 160 L 682 160" stroke-miterlimit="10" stroke-dasharray="3"/></g><g transform="translate(-182,2) scale(1,1)"><path fill="none" stroke="#000000" d="M 692.1626748576241 155.790482243984 L 682 160 L 692.1626748576241 164.209517756016" stroke-miterlimit="10"/></g><g transform="translate(-182,2) scale(1,1)"><g><path fill="none" stroke="none"/><text fill="#000000" stroke="none" font-family="Arial" font-size="13px" font-style="normal" font-weight="normal" text-decoration="none" x="772.5" y="155.5">OK</text></g></g><g transform="translate(-182,2) scale(1,1)"><path fill="none" stroke="#000000" d="M 682 192 L 886 192" stroke-miterlimit="10"/></g><g transform="translate(-182,2) scale(1,1)"><path fill="#000000" stroke="none" d="M 875.8373251423759 196.209517756016 L 886 192 L 875.8373251423758 187.790482243984"/></g><g transform="translate(-182,2) scale(1,1)"><path fill="none" stroke="#000000" d="M 875.8373251423759 196.209517756016 L 886 192 L 875.8373251423758 187.790482243984 L 875.8373251423759 196.209517756016" stroke-miterlimit="10"/></g><g transform="translate(-182,2) scale(1,1)"><g><path fill="none" stroke="none"/><text fill="#000000" stroke="none" font-family="Arial" font-size="13px" font-style="normal" font-weight="normal" text-decoration="none" x="708.5" y="188.5">franchise = getFranchise()</text></g></g><g transform="translate(-182,2) scale(1,1)"><rect fill="#ffffff" stroke="none" x="886" y="192" width="13" height="28"/></g><g transform="translate(-182,2) scale(1,1)"><path fill="none" stroke="#000000" d="M 886 192 L 899 192 L 899 220 L 886 220 L 886 192 Z Z" stroke-miterlimit="10"/></g><g transform="translate(-182,2) scale(1,1)"><path fill="none" stroke="#000000" d="M 682 216 L 712 216 L 712 236 L 689 236" stroke-miterlimit="10"/></g><g transform="translate(-182,2) scale(1,1)"><path fill="#000000" stroke="none" d="M 699.1626748576241 231.790482243984 L 689 236 L 699.1626748576241 240.209517756016"/></g><g transform="translate(-182,2) scale(1,1)"><path fill="none" stroke="#000000" d="M 699.1626748576241 231.790482243984 L 689 236 L 699.1626748576241 240.209517756016 L 699.1626748576241 231.790482243984" stroke-miterlimit="10"/></g><g transform="translate(-182,2) scale(1,1)"><g><path fill="none" stroke="none"/><text fill="#000000" stroke="none" font-family="Arial" font-size="13px" font-style="normal" font-weight="normal" text-decoration="none" x="722.5" y="231.5">applyFranchise(franshise)</text></g></g><g transform="translate(-182,2) scale(1,1)"><rect fill="#ffffff" stroke="none" x="676" y="236" width="13" height="28"/></g><g transform="translate(-182,2) scale(1,1)"><path fill="none" stroke="#000000" d="M 676 236 L 689 236 L 689 264 L 676 264 L 676 236 Z Z" stroke-miterlimit="10"/></g><g transform="translate(-182,2) scale(1,1)"><path fill="none" stroke="#000000" d="M 426 264 L 244 264" stroke-miterlimit="10" stroke-dasharray="3"/></g><g transform="translate(-182,2) scale(1,1)"><path fill="none" stroke="#000000" d="M 254.16267485762415 259.790482243984 L 244 264 L 254.16267485762415 268.209517756016" stroke-miterlimit="10"/></g><g transform="translate(-182,2) scale(1,1)"><g><path fill="none" stroke="none"/><text fill="#000000" stroke="none" font-family="Arial" font-size="13px" font-style="normal" font-weight="normal" text-decoration="none" x="301.5" y="259.5">Total Price</text></g></g><g transform="translate(-182,2) scale(1,1)"><path fill="none" stroke="#000000" d="M 439 280 L 1080 280" stroke-miterlimit="10"/></g><g transform="translate(-182,2) scale(1,1)"><path fill="#000000" stroke="none" d="M 1069.837325142376 284.209517756016 L 1080 280 L 1069.837325142376 275.790482243984"/></g><g transform="translate(-182,2) scale(1,1)"><path fill="none" stroke="#000000" d="M 1069.837325142376 284.209517756016 L 1080 280 L 1069.837325142376 275.790482243984 L 1069.837325142376 284.209517756016" stroke-miterlimit="10"/></g><g transform="translate(-182,2) scale(1,1)"><g><path fill="none" stroke="none"/><text fill="#000000" stroke="none" font-family="Arial" font-size="13px" font-style="normal" font-weight="normal" text-decoration="none" x="847.43359375" y="276.5">submitPriceToOnlineBanking(price)</text></g></g><g transform="translate(-182,2) scale(1,1)"><rect fill="#ffffff" stroke="none" x="1080" y="280" width="13" height="28"/></g><g transform="translate(-182,2) scale(1,1)"><path fill="none" stroke="#000000" d="M 1080 280 L 1093 280 L 1093 308 L 1080 308 L 1080 280 Z Z" stroke-miterlimit="10"/></g><g transform="translate(-182,2) scale(1,1)"><path fill="none" stroke="#000000" d="M 439 320 L 1080 320" stroke-miterlimit="10"/></g><g transform="translate(-182,2) scale(1,1)"><path fill="#000000" stroke="none" d="M 1069.837325142376 324.209517756016 L 1080 320 L 1069.837325142376 315.790482243984"/></g><g transform="translate(-182,2) scale(1,1)"><path fill="none" stroke="#000000" d="M 1069.837325142376 324.209517756016 L 1080 320 L 1069.837325142376 315.790482243984 L 1069.837325142376 324.209517756016" stroke-miterlimit="10"/></g><g transform="translate(-182,2) scale(1,1)"><g><path fill="none" stroke="none"/><text fill="#000000" stroke="none" font-family="Arial" font-size="13px" font-style="normal" font-weight="normal" text-decoration="none" x="878.753173828125" y="316.5">redirectToOnlineBanking()</text></g></g><g transform="translate(-182,2) scale(1,1)"><rect fill="#ffffff" stroke="none" x="1080" y="320" width="13" height="32"/></g><g transform="translate(-182,2) scale(1,1)"><path fill="none" stroke="#000000" d="M 1080 320 L 1093 320 L 1093 352 L 1080 352 L 1080 320 Z Z" stroke-miterlimit="10"/></g><g transform="translate(-182,2) scale(1,1)"><path fill="none" stroke="#000000" d="M 1087 352 L 439 352" stroke-miterlimit="10" stroke-dasharray="3"/></g><g transform="translate(-182,2) scale(1,1)"><path fill="none" stroke="#000000" d="M 449.16267485762415 347.790482243984 L 439 352 L 449.16267485762415 356.209517756016" stroke-miterlimit="10"/></g><g transform="translate(-182,2) scale(1,1)"><g><path fill="none" stroke="none"/><text fill="#000000" stroke="none" font-family="Arial" font-size="13px" font-style="normal" font-weight="normal" text-decoration="none" x="892.5" y="348.5">Payment was Successful</text></g></g></g></svg>