<svg version="1.1" xmlns="http://www.w3.org/2000/svg" xmlns:xlink="http://www.w3.org/1999/xlink" width="753.50634765625" height="452"><defs/><g><text fill="#eeeeee" stroke="none" font-family="Arial" font-size="24px" font-style="normal" font-weight="normal" text-decoration="none" x="0" y="0">UNREGISTERED</text><text fill="#eeeeee" stroke="none" font-family="Arial" font-size="24px" font-style="normal" font-weight="normal" text-decoration="none" x="0" y="30">UNREGISTERED</text><text fill="#eeeeee" stroke="none" font-family="Arial" font-size="24px" font-style="normal" font-weight="normal" text-decoration="none" x="0" y="60">UNREGISTERED</text><text fill="#eeeeee" stroke="none" font-family="Arial" font-size="24px" font-style="normal" font-weight="normal" text-decoration="none" x="0" y="90">UNREGISTERED</text><text fill="#eeeeee" stroke="none" font-family="Arial" font-size="24px" font-style="normal" font-weight="normal" text-decoration="none" x="0" y="120">UNREGISTERED</text><text fill="#eeeeee" stroke="none" font-family="Arial" font-size="24px" font-style="normal" font-weight="normal" text-decoration="none" x="0" y="150">UNREGISTERED</text><text fill="#eeeeee" stroke="none" font-family="Arial" font-size="24px" font-style="normal" font-weight="normal" text-decoration="none" x="0" y="180">UNREGISTERED</text><text fill="#eeeeee" stroke="none" font-family="Arial" font-size="24px" font-style="normal" font-weight="normal" text-decoration="none" x="0" y="210">UNREGISTERED</text><text fill="#eeeeee" stroke="none" font-family="Arial" font-size="24px" font-style="normal" font-weight="normal" text-decoration="none" x="0" y="240">UNREGISTERED</text><text fill="#eeeeee" stroke="none" font-family="Arial" font-size="24px" font-style="normal" font-weight="normal" text-decoration="none" x="0" y="270">UNREGISTERED</text><text fill="#eeeeee" stroke="none" font-family="Arial" font-size="24px" font-style="normal" font-weight="normal" text-decoration="none" x="0" y="300">UNREGISTERED</text><text fill="#eeeeee" stroke="none" font-family="Arial" font-size="24px" font-style="normal" font-weight="normal" text-decoration="none" x="0" y="330">UNREGISTERED</text><text fill="#eeeeee" stroke="none" font-family="Arial" font-size="24px" font-style="normal" font-weight="normal" text-decoration="none" x="0" y="360">UNREGISTERED</text><text fill="#eeeeee" stroke="none" font-family="Arial" font-size="24px" font-style="normal" font-weight="normal" text-decoration="none" x="0" y="390">UNREGISTERED</text><text fill="#eeeeee" stroke="none" font-family="Arial" font-size="24px" font-style="normal" font-weight="normal" text-decoration="none" x="0" y="420">UNREGISTERED</text><text fill="#eeeeee" stroke="none" font-family="Arial" font-size="24px" font-style="normal" font-weight="normal" text-decoration="none" x="0" y="450">UNREGISTERED</text><text fill="#eeeeee" stroke="none" font-family="Arial" font-size="24px" font-style="normal" font-weight="normal" text-decoration="none" x="200" y="0">UNREGISTERED</text><text fill="#eeeeee" stroke="none" font-family="Arial" font-size="24px" font-style="normal" font-weight="normal" text-decoration="none" x="200" y="30">UNREGISTERED</text><text fill="#eeeeee" stroke="none" font-family="Arial" font-size="24px" font-style="normal" font-weight="normal" text-decoration="none" x="200" y="60">UNREGISTERED</text><text fill="#eeeeee" stroke="none" font-family="Arial" font-size="24px" font-style="normal" font-weight="normal" text-decoration="none" x="200" y="90">UNREGISTERED</text><text fill="#eeeeee" stroke="none" font-family="Arial" font-size="24px" font-style="normal" font-weight="normal" text-decoration="none" x="200" y="120">UNREGISTERED</text><text fill="#eeeeee" stroke="none" font-family="Arial" font-size="24px" font-style="normal" font-weight="normal" text-decoration="none" x="200" y="150">UNREGISTERED</text><text fill="#eeeeee" stroke="none" font-family="Arial" font-size="24px" font-style="normal" font-weight="normal" text-decoration="none" x="200" y="180">UNREGISTERED</text><text fill="#eeeeee" stroke="none" font-family="Arial" font-size="24px" font-style="normal" font-weight="normal" text-decoration="none" x="200" y="210">UNREGISTERED</text><text fill="#eeeeee" stroke="none" font-family="Arial" font-size="24px" font-style="normal" font-weight="normal" text-decoration="none" x="200" y="240">UNREGISTERED</text><text fill="#eeeeee" stroke="none" font-family="Arial" font-size="24px" font-style="normal" font-weight="normal" text-decoration="none" x="200" y="270">UNREGISTERED</text><text fill="#eeeeee" stroke="none" font-family="Arial" font-size="24px" font-style="normal" font-weight="normal" text-decoration="none" x="200" y="300">UNREGISTERED</text><text fill="#eeeeee" stroke="none" font-family="Arial" font-size="24px" font-style="normal" font-weight="normal" text-decoration="none" x="200" y="330">UNREGISTERED</text><text fill="#eeeeee" stroke="none" font-family="Arial" font-size="24px" font-style="normal" font-weight="normal" text-decoration="none" x="200" y="360">UNREGISTERED</text><text fill="#eeeeee" stroke="none" font-family="Arial" font-size="24px" font-style="normal" font-weight="normal" text-decoration="none" x="200" y="390">UNREGISTERED</text><text fill="#eeeeee" stroke="none" font-family="Arial" font-size="24px" font-style="normal" font-weight="normal" text-decoration="none" x="200" y="420">UNREGISTERED</text><text fill="#eeeeee" stroke="none" font-family="Arial" font-size="24px" font-style="normal" font-weight="normal" text-decoration="none" x="200" y="450">UNREGISTERED</text><text fill="#eeeeee" stroke="none" font-family="Arial" font-size="24px" font-style="normal" font-weight="normal" text-decoration="none" x="400" y="0">UNREGISTERED</text><text fill="#eeeeee" stroke="none" font-family="Arial" font-size="24px" font-style="normal" font-weight="normal" text-decoration="none" x="400" y="30">UNREGISTERED</text><text fill="#eeeeee" stroke="none" font-family="Arial" font-size="24px" font-style="normal" font-weight="normal" text-decoration="none" x="400" y="60">UNREGISTERED</text><text fill="#eeeeee" stroke="none" font-family="Arial" font-size="24px" font-style="normal" font-weight="normal" text-decoration="none" x="400" y="90">UNREGISTERED</text><text fill="#eeeeee" stroke="none" font-family="Arial" font-size="24px" font-style="normal" font-weight="normal" text-decoration="none" x="400" y="120">UNREGISTERED</text><text fill="#eeeeee" stroke="none" font-family="Arial" font-size="24px" font-style="normal" font-weight="normal" text-decoration="none" x="400" y="150">UNREGISTERED</text><text fill="#eeeeee" stroke="none" font-family="Arial" font-size="24px" font-style="normal" font-weight="normal" text-decoration="none" x="400" y="180">UNREGISTERED</text><text fill="#eeeeee" stroke="none" font-family="Arial" font-size="24px" font-style="normal" font-weight="normal" text-decoration="none" x="400" y="210">UNREGISTERED</text><text fill="#eeeeee" stroke="none" font-family="Arial" font-size="24px" font-style="normal" font-weight="normal" text-decoration="none" x="400" y="240">UNREGISTERED</text><text fill="#eeeeee" stroke="none" font-family="Arial" font-size="24px" font-style="normal" font-weight="normal" text-decoration="none" x="400" y="270">UNREGISTERED</text><text fill="#eeeeee" stroke="none" font-family="Arial" font-size="24px" font-style="normal" font-weight="normal" text-decoration="none" x="400" y="300">UNREGISTERED</text><text fill="#eeeeee" stroke="none" font-family="Arial" font-size="24px" font-style="normal" font-weight="normal" text-decoration="none" x="400" y="330">UNREGISTERED</text><text fill="#eeeeee" stroke="none" font-family="Arial" font-size="24px" font-style="normal" font-weight="normal" text-decoration="none" x="400" y="360">UNREGISTERED</text><text fill="#eeeeee" stroke="none" font-family="Arial" font-size="24px" font-style="normal" font-weight="normal" text-decoration="none" x="400" y="390">UNREGISTERED</text><text fill="#eeeeee" stroke="none" font-family="Arial" font-size="24px" font-style="normal" font-weight="normal" text-decoration="none" x="400" y="420">UNREGISTERED</text><text fill="#eeeeee" stroke="none" font-family="Arial" font-size="24px" font-style="normal" font-weight="normal" text-decoration="none" x="400" y="450">UNREGISTERED</text><text fill="#eeeeee" stroke="none" font-family="Arial" font-size="24px" font-style="normal" font-weight="normal" text-decoration="none" x="600" y="0">UNREGISTERED</text><text fill="#eeeeee" stroke="none" font-family="Arial" font-size="24px" font-style="normal" font-weight="normal" text-decoration="none" x="600" y="30">UNREGISTERED</text><text fill="#eeeeee" stroke="none" font-family="Arial" font-size="24px" font-style="normal" font-weight="normal" text-decoration="none" x="600" y="60">UNREGISTERED</text><text fill="#eeeeee" stroke="none" font-family="Arial" font-size="24px" font-style="normal" font-weight="normal" text-decoration="none" x="600" y="90">UNREGISTERED</text><text fill="#eeeeee" stroke="none" font-family="Arial" font-size="24px" font-style="normal" font-weight="normal" text-decoration="none" x="600" y="120">UNREGISTERED</text><text fill="#eeeeee" stroke="none" font-family="Arial" font-size="24px" font-style="normal" font-weight="normal" text-decoration="none" x="600" y="150">UNREGISTERED</text><text fill="#eeeeee" stroke="none" font-family="Arial" font-size="24px" font-style="normal" font-weight="normal" text-decoration="none" x="600" y="180">UNREGISTERED</text><text fill="#eeeeee" stroke="none" font-family="Arial" font-size="24px" font-style="normal" font-weight="normal" text-decoration="none" x="600" y="210">UNREGISTERED</text><text fill="#eeeeee" stroke="none" font-family="Arial" font-size="24px" font-style="normal" font-weight="normal" text-decoration="none" x="600" y="240">UNREGISTERED</text><text fill="#eeeeee" stroke="none" font-family="Arial" font-size="24px" font-style="normal" font-weight="normal" text-decoration="none" x="600" y="270">UNREGISTERED</text><text fill="#eeeeee" stroke="none" font-family="Arial" font-size="24px" font-style="normal" font-weight="normal" text-decoration="none" x="600" y="300">UNREGISTERED</text><text fill="#eeeeee" stroke="none" font-family="Arial" font-size="24px" font-style="normal" font-weight="normal" text-decoration="none" x="600" y="330">UNREGISTERED</text><text fill="#eeeeee" stroke="none" font-family="Arial" font-size="24px" font-style="normal" font-weight="normal" text-decoration="none" x="600" y="360">UNREGISTERED</text><text fill="#eeeeee" stroke="none" font-family="Arial" font-size="24px" font-style="normal" font-weight="normal" text-decoration="none" x="600" y="390">UNREGISTERED</text><text fill="#eeeeee" stroke="none" font-family="Arial" font-size="24px" font-style="normal" font-weight="normal" text-decoration="none" x="600" y="420">UNREGISTERED</text><text fill="#eeeeee" stroke="none" font-family="Arial" font-size="24px" font-style="normal" font-weight="normal" text-decoration="none" x="600" y="450">UNREGISTERED</text><g transform="translate(-214,2) scale(1,1)"><path fill="#ffffff" stroke="none" d="M 265.3143172940341 47.3 C 265.3143172940341 43.82060576 268.1927190162159 41 271.743408203125 41 C 275.2940973900341 41 278.172499112216 43.82060576 278.172499112216 47.3 C 278.172499112216 50.779394239999995 275.2940973900341 53.6 271.743408203125 53.6 C 268.1927190162159 53.6 265.3143172940341 50.779394239999995 265.3143172940341 47.3 Z"/></g><g transform="translate(-214,2) scale(1,1)"><path fill="none" stroke="#000000" d="M 265.3143172940341 47.3 C 265.3143172940341 43.82060576 268.1927190162159 41 271.743408203125 41 C 275.2940973900341 41 278.172499112216 43.82060576 278.172499112216 47.3 C 278.172499112216 50.779394239999995 275.2940973900341 53.6 271.743408203125 53.6 C 268.1927190162159 53.6 265.3143172940341 50.779394239999995 265.3143172940341 47.3 Z" stroke-miterlimit="10"/></g><g transform="translate(-214,2) scale(1,1)"><path fill="none" stroke="#000000" d="M 271.743408203125 53.6 L 271.743408203125 66.4" stroke-miterlimit="10"/></g><g transform="translate(-214,2) scale(1,1)"><path fill="none" stroke="#000000" d="M 264.93613547585227 58.4 L 278.5506809303978 58.4" stroke-miterlimit="10"/></g><g transform="translate(-214,2) scale(1,1)"><path fill="none" stroke="#000000" d="M 271.743408203125 66.4 L 262.28886274857956 79" stroke-miterlimit="10"/></g><g transform="translate(-214,2) scale(1,1)"><path fill="none" stroke="#000000" d="M 271.743408203125 66.4 L 281.1979536576705 79" stroke-miterlimit="10"/></g><g transform="translate(-214,2) scale(1,1)"><g><path fill="none" stroke="none"/><text fill="#000000" stroke="none" font-family="Arial" font-size="13px" font-style="normal" font-weight="bold" text-decoration="none" x="247.895263671875" y="99.5">: Patient</text></g></g><g transform="translate(-214,2) scale(1,1)"><path fill="none" stroke="#000000" d="M 272.5 105 L 272.5 368" stroke-miterlimit="10" stroke-dasharray="3"/></g><g transform="translate(-214,2) scale(1,1)"><rect fill="#C0C0C0" stroke="none" x="359" y="47" width="170.68994140625" height="39" opacity="0.2"/></g><g transform="translate(-214,2) scale(1,1)"><rect fill="#ffffff" stroke="none" x="352" y="40" width="170.68994140625" height="39"/></g><g transform="translate(-214,2) scale(1,1)"><path fill="none" stroke="#000000" d="M 352 40 L 522.68994140625 40 L 522.68994140625 79 L 352 79 L 352 40 Z Z" stroke-miterlimit="10"/></g><g transform="translate(-214,2) scale(1,1)"><g><path fill="none" stroke="none"/><text fill="#000000" stroke="none" font-family="Arial" font-size="13px" font-style="normal" font-weight="bold" text-decoration="none" x="366.530517578125" y="59.5">RequestPaymentControl</text></g></g><g transform="translate(-214,2) scale(1,1)"><path fill="none" stroke="#000000" d="M 438.5 80 L 438.5 378" stroke-miterlimit="10" stroke-dasharray="3"/></g><g transform="translate(-214,2) scale(1,1)"><path fill="#ffffff" stroke="none" d="M 616.770860262784 47.3 C 616.770860262784 43.82060576 619.649261984966 41 623.199951171875 41 C 626.750640358784 41 629.6290420809659 43.82060576 629.6290420809659 47.3 C 629.6290420809659 50.779394239999995 626.750640358784 53.6 623.199951171875 53.6 C 619.649261984966 53.6 616.770860262784 50.779394239999995 616.770860262784 47.3 Z"/></g><g transform="translate(-214,2) scale(1,1)"><path fill="none" stroke="#000000" d="M 616.770860262784 47.3 C 616.770860262784 43.82060576 619.649261984966 41 623.199951171875 41 C 626.750640358784 41 629.6290420809659 43.82060576 629.6290420809659 47.3 C 629.6290420809659 50.779394239999995 626.750640358784 53.6 623.199951171875 53.6 C 619.649261984966 53.6 616.770860262784 50.779394239999995 616.770860262784 47.3 Z" stroke-miterlimit="10"/></g><g transform="translate(-214,2) scale(1,1)"><path fill="none" stroke="#000000" d="M 623.199951171875 53.6 L 623.199951171875 66.4" stroke-miterlimit="10"/></g><g transform="translate(-214,2) scale(1,1)"><path fill="none" stroke="#000000" d="M 616.3926784446022 58.4 L 630.0072238991477 58.4" stroke-miterlimit="10"/></g><g transform="translate(-214,2) scale(1,1)"><path fill="none" stroke="#000000" d="M 623.199951171875 66.4 L 613.7454057173295 79" stroke-miterlimit="10"/></g><g transform="translate(-214,2) scale(1,1)"><path fill="none" stroke="#000000" d="M 623.199951171875 66.4 L 632.6544966264204 79" stroke-miterlimit="10"/></g><g transform="translate(-214,2) scale(1,1)"><g><path fill="none" stroke="none"/><text fill="#000000" stroke="none" font-family="Arial" font-size="13px" font-style="normal" font-weight="bold" text-decoration="none" x="574.056396484375" y="99.5">: InternetBanking</text></g></g><g transform="translate(-214,2) scale(1,1)"><path fill="none" stroke="#000000" d="M 624.5 105 L 624.5 440" stroke-miterlimit="10" stroke-dasharray="3"/></g><g transform="translate(-214,2) scale(1,1)"><rect fill="#C0C0C0" stroke="none" x="887" y="347" width="77.50634765625" height="39" opacity="0.2"/></g><g transform="translate(-214,2) scale(1,1)"><rect fill="#ffffff" stroke="none" x="880" y="340" width="77.50634765625" height="39"/></g><g transform="translate(-214,2) scale(1,1)"><path fill="none" stroke="#000000" d="M 880 340 L 957.50634765625 340 L 957.50634765625 379 L 880 379 L 880 340 Z Z" stroke-miterlimit="10"/></g><g transform="translate(-214,2) scale(1,1)"><g><path fill="none" stroke="none"/><text fill="#000000" stroke="none" font-family="Arial" font-size="13px" font-style="normal" font-weight="bold" text-decoration="none" x="891.655029296875" y="359.5">Sampling</text></g></g><g transform="translate(-214,2) scale(1,1)"><path fill="none" stroke="#000000" d="M 919.5 380 L 919.5 429" stroke-miterlimit="10" stroke-dasharray="3"/></g><g transform="translate(-214,2) scale(1,1)"><g><path fill="none" stroke="none"/><text fill="#99004c" stroke="none" font-family="Arial" font-size="13px" font-style="normal" font-weight="normal" text-decoration="none" x="253" y="26">requestPayment Sequence Diagram</text></g></g><g transform="translate(-214,2) scale(1,1)"><rect fill="#C0C0C0" stroke="none" x="727" y="47" width="96.05419921875" height="39" opacity="0.2"/></g><g transform="translate(-214,2) scale(1,1)"><rect fill="#ffffff" stroke="none" x="720" y="40" width="96.05419921875" height="39"/></g><g transform="translate(-214,2) scale(1,1)"><path fill="none" stroke="#000000" d="M 720 40 L 816.05419921875 40 L 816.05419921875 79 L 720 79 L 720 40 Z Z" stroke-miterlimit="10"/></g><g transform="translate(-214,2) scale(1,1)"><g><path fill="none" stroke="none"/><text fill="#000000" stroke="none" font-family="Arial" font-size="13px" font-style="normal" font-weight="bold" text-decoration="none" x="731.896240234375" y="59.5">TestRequest</text></g></g><g transform="translate(-214,2) scale(1,1)"><path fill="none" stroke="#000000" d="M 769.5 80 L 769.5 378" stroke-miterlimit="10" stroke-dasharray="3"/></g><g transform="translate(-214,2) scale(1,1)"><path fill="none" stroke="#000000" d="M 272 129 L 431 129" stroke-miterlimit="10"/></g><g transform="translate(-214,2) scale(1,1)"><path fill="#000000" stroke="none" d="M 420.83732514237585 133.209517756016 L 431 129 L 420.83732514237585 124.79048224398402"/></g><g transform="translate(-214,2) scale(1,1)"><path fill="none" stroke="#000000" d="M 420.83732514237585 133.209517756016 L 431 129 L 420.83732514237585 124.79048224398402 L 420.83732514237585 133.209517756016" stroke-miterlimit="10"/></g><g transform="translate(-214,2) scale(1,1)"><g><path fill="none" stroke="none"/><text fill="#000000" stroke="none" font-family="Arial" font-size="13px" font-style="normal" font-weight="normal" text-decoration="none" x="299.5" y="125.5">requestPayment()</text></g></g><g transform="translate(-214,2) scale(1,1)"><rect fill="#ffffff" stroke="none" x="431" y="129" width="13" height="223"/></g><g transform="translate(-214,2) scale(1,1)"><path fill="none" stroke="#000000" d="M 431 129 L 444 129 L 444 352 L 431 352 L 431 129 Z Z" stroke-miterlimit="10"/></g><g transform="translate(-214,2) scale(1,1)"><path fill="none" stroke="#000000" d="M 444 202 L 617 202" stroke-miterlimit="10"/></g><g transform="translate(-214,2) scale(1,1)"><path fill="#000000" stroke="none" d="M 606.8373251423759 206.209517756016 L 617 202 L 606.8373251423758 197.790482243984"/></g><g transform="translate(-214,2) scale(1,1)"><path fill="none" stroke="#000000" d="M 606.8373251423759 206.209517756016 L 617 202 L 606.8373251423758 197.790482243984 L 606.8373251423759 206.209517756016" stroke-miterlimit="10"/></g><g transform="translate(-214,2) scale(1,1)"><g><path fill="none" stroke="none"/><text fill="#000000" stroke="none" font-family="Arial" font-size="13px" font-style="normal" font-weight="normal" text-decoration="none" x="468.591796875" y="198.5">sendTotalPrice(price)</text></g></g><g transform="translate(-214,2) scale(1,1)"><rect fill="#ffffff" stroke="none" x="617" y="202" width="13" height="28"/></g><g transform="translate(-214,2) scale(1,1)"><path fill="none" stroke="#000000" d="M 617 202 L 630 202 L 630 230 L 617 230 L 617 202 Z Z" stroke-miterlimit="10"/></g><g transform="translate(-214,2) scale(1,1)"><path fill="none" stroke="#000000" d="M 444 256 L 617 256" stroke-miterlimit="10"/></g><g transform="translate(-214,2) scale(1,1)"><path fill="#000000" stroke="none" d="M 606.8373251423759 260.209517756016 L 617 256 L 606.8373251423758 251.790482243984"/></g><g transform="translate(-214,2) scale(1,1)"><path fill="none" stroke="#000000" d="M 606.8373251423759 260.209517756016 L 617 256 L 606.8373251423758 251.790482243984 L 606.8373251423759 260.209517756016" stroke-miterlimit="10"/></g><g transform="translate(-214,2) scale(1,1)"><g><path fill="none" stroke="none"/><text fill="#000000" stroke="none" font-family="Arial" font-size="13px" font-style="normal" font-weight="normal" text-decoration="none" x="451.5" y="252.5">redirectToInternetBanking()</text></g></g><g transform="translate(-214,2) scale(1,1)"><rect fill="#ffffff" stroke="none" x="617" y="256" width="13" height="48"/></g><g transform="translate(-214,2) scale(1,1)"><path fill="none" stroke="#000000" d="M 617 256 L 630 256 L 630 304 L 617 304 L 617 256 Z Z" stroke-miterlimit="10"/></g><g transform="translate(-214,2) scale(1,1)"><path fill="none" stroke="#000000" d="M 624 304 L 444 304" stroke-miterlimit="10" stroke-dasharray="3"/></g><g transform="translate(-214,2) scale(1,1)"><path fill="none" stroke="#000000" d="M 454.16267485762415 299.790482243984 L 444 304 L 454.16267485762415 308.209517756016" stroke-miterlimit="10"/></g><g transform="translate(-214,2) scale(1,1)"><g><path fill="none" stroke="none"/><text fill="#000000" stroke="none" font-family="Arial" font-size="13px" font-style="normal" font-weight="normal" text-decoration="none" x="457.5" y="299.5">Payment was Successful</text></g></g><g transform="translate(-214,2) scale(1,1)"><path fill="none" stroke="#000000" d="M 444 336 L 762 336" stroke-miterlimit="10"/></g><g transform="translate(-214,2) scale(1,1)"><path fill="#000000" stroke="none" d="M 751.8373251423759 340.209517756016 L 762 336 L 751.8373251423758 331.790482243984"/></g><g transform="translate(-214,2) scale(1,1)"><path fill="none" stroke="#000000" d="M 751.8373251423759 340.209517756016 L 762 336 L 751.8373251423758 331.790482243984 L 751.8373251423759 340.209517756016" stroke-miterlimit="10"/></g><g transform="translate(-214,2) scale(1,1)"><g><path fill="none" stroke="none"/><text fill="#000000" stroke="none" font-family="Arial" font-size="13px" font-style="normal" font-weight="normal" text-decoration="none" x="641.5" y="332.5">makeSampling()</text></g></g><g transform="translate(-214,2) scale(1,1)"><rect fill="#ffffff" stroke="none" x="762" y="336" width="13" height="28"/></g><g transform="translate(-214,2) scale(1,1)"><path fill="none" stroke="#000000" d="M 762 336 L 775 336 L 775 364 L 762 364 L 762 336 Z Z" stroke-miterlimit="10"/></g><g transform="translate(-214,2) scale(1,1)"><path fill="none" stroke="#000000" d="M 775 360 L 880 360" stroke-miterlimit="10" stroke-dasharray="3"/></g><g transform="translate(-214,2) scale(1,1)"><path fill="none" stroke="#000000" d="M 869.8373251423759 364.209517756016 L 880 360 L 869.8373251423758 355.790482243984" stroke-miterlimit="10"/></g><g transform="translate(-214,2) scale(1,1)"><g><path fill="none" stroke="none"/><text fill="#000000" stroke="none" font-family="Arial" font-size="13px" font-style="normal" font-weight="normal" text-decoration="none" x="802.5" y="356.5">«create»</text></g></g></g></svg>