<svg version="1.1" xmlns="http://www.w3.org/2000/svg" xmlns:xlink="http://www.w3.org/1999/xlink" width="988.41357421875" height="404"><defs/><g><text fill="#eeeeee" stroke="none" font-family="Arial" font-size="24px" font-style="normal" font-weight="normal" text-decoration="none" x="0" y="0"></text><text fill="#eeeeee" stroke="none" font-family="Arial" font-size="24px" font-style="normal" font-weight="normal" text-decoration="none" x="0" y="30"></text><text fill="#eeeeee" stroke="none" font-family="Arial" font-size="24px" font-style="normal" font-weight="normal" text-decoration="none" x="0" y="60"></text><text fill="#eeeeee" stroke="none" font-family="Arial" font-size="24px" font-style="normal" font-weight="normal" text-decoration="none" x="0" y="90"></text><text fill="#eeeeee" stroke="none" font-family="Arial" font-size="24px" font-style="normal" font-weight="normal" text-decoration="none" x="0" y="120"></text><text fill="#eeeeee" stroke="none" font-family="Arial" font-size="24px" font-style="normal" font-weight="normal" text-decoration="none" x="0" y="150"></text><text fill="#eeeeee" stroke="none" font-family="Arial" font-size="24px" font-style="normal" font-weight="normal" text-decoration="none" x="0" y="180"></text><text fill="#eeeeee" stroke="none" font-family="Arial" font-size="24px" font-style="normal" font-weight="normal" text-decoration="none" x="0" y="210"></text><text fill="#eeeeee" stroke="none" font-family="Arial" font-size="24px" font-style="normal" font-weight="normal" text-decoration="none" x="0" y="240"></text><text fill="#eeeeee" stroke="none" font-family="Arial" font-size="24px" font-style="normal" font-weight="normal" text-decoration="none" x="0" y="270"></text><text fill="#eeeeee" stroke="none" font-family="Arial" font-size="24px" font-style="normal" font-weight="normal" text-decoration="none" x="0" y="300"></text><text fill="#eeeeee" stroke="none" font-family="Arial" font-size="24px" font-style="normal" font-weight="normal" text-decoration="none" x="0" y="330"></text><text fill="#eeeeee" stroke="none" font-family="Arial" font-size="24px" font-style="normal" font-weight="normal" text-decoration="none" x="0" y="360"></text><text fill="#eeeeee" stroke="none" font-family="Arial" font-size="24px" font-style="normal" font-weight="normal" text-decoration="none" x="0" y="390"></text><text fill="#eeeeee" stroke="none" font-family="Arial" font-size="24px" font-style="normal" font-weight="normal" text-decoration="none" x="200" y="0"></text><text fill="#eeeeee" stroke="none" font-family="Arial" font-size="24px" font-style="normal" font-weight="normal" text-decoration="none" x="200" y="30"></text><text fill="#eeeeee" stroke="none" font-family="Arial" font-size="24px" font-style="normal" font-weight="normal" text-decoration="none" x="200" y="60"></text><text fill="#eeeeee" stroke="none" font-family="Arial" font-size="24px" font-style="normal" font-weight="normal" text-decoration="none" x="200" y="90"></text><text fill="#eeeeee" stroke="none" font-family="Arial" font-size="24px" font-style="normal" font-weight="normal" text-decoration="none" x="200" y="120"></text><text fill="#eeeeee" stroke="none" font-family="Arial" font-size="24px" font-style="normal" font-weight="normal" text-decoration="none" x="200" y="150"></text><text fill="#eeeeee" stroke="none" font-family="Arial" font-size="24px" font-style="normal" font-weight="normal" text-decoration="none" x="200" y="180"></text><text fill="#eeeeee" stroke="none" font-family="Arial" font-size="24px" font-style="normal" font-weight="normal" text-decoration="none" x="200" y="210"></text><text fill="#eeeeee" stroke="none" font-family="Arial" font-size="24px" font-style="normal" font-weight="normal" text-decoration="none" x="200" y="240"></text><text fill="#eeeeee" stroke="none" font-family="Arial" font-size="24px" font-style="normal" font-weight="normal" text-decoration="none" x="200" y="270"></text><text fill="#eeeeee" stroke="none" font-family="Arial" font-size="24px" font-style="normal" font-weight="normal" text-decoration="none" x="200" y="300"></text><text fill="#eeeeee" stroke="none" font-family="Arial" font-size="24px" font-style="normal" font-weight="normal" text-decoration="none" x="200" y="330"></text><text fill="#eeeeee" stroke="none" font-family="Arial" font-size="24px" font-style="normal" font-weight="normal" text-decoration="none" x="200" y="360"></text><text fill="#eeeeee" stroke="none" font-family="Arial" font-size="24px" font-style="normal" font-weight="normal" text-decoration="none" x="200" y="390"></text><text fill="#eeeeee" stroke="none" font-family="Arial" font-size="24px" font-style="normal" font-weight="normal" text-decoration="none" x="400" y="0"></text><text fill="#eeeeee" stroke="none" font-family="Arial" font-size="24px" font-style="normal" font-weight="normal" text-decoration="none" x="400" y="30"></text><text fill="#eeeeee" stroke="none" font-family="Arial" font-size="24px" font-style="normal" font-weight="normal" text-decoration="none" x="400" y="60"></text><text fill="#eeeeee" stroke="none" font-family="Arial" font-size="24px" font-style="normal" font-weight="normal" text-decoration="none" x="400" y="90"></text><text fill="#eeeeee" stroke="none" font-family="Arial" font-size="24px" font-style="normal" font-weight="normal" text-decoration="none" x="400" y="120"></text><text fill="#eeeeee" stroke="none" font-family="Arial" font-size="24px" font-style="normal" font-weight="normal" text-decoration="none" x="400" y="150"></text><text fill="#eeeeee" stroke="none" font-family="Arial" font-size="24px" font-style="normal" font-weight="normal" text-decoration="none" x="400" y="180"></text><text fill="#eeeeee" stroke="none" font-family="Arial" font-size="24px" font-style="normal" font-weight="normal" text-decoration="none" x="400" y="210"></text><text fill="#eeeeee" stroke="none" font-family="Arial" font-size="24px" font-style="normal" font-weight="normal" text-decoration="none" x="400" y="240"></text><text fill="#eeeeee" stroke="none" font-family="Arial" font-size="24px" font-style="normal" font-weight="normal" text-decoration="none" x="400" y="270"></text><text fill="#eeeeee" stroke="none" font-family="Arial" font-size="24px" font-style="normal" font-weight="normal" text-decoration="none" x="400" y="300"></text><text fill="#eeeeee" stroke="none" font-family="Arial" font-size="24px" font-style="normal" font-weight="normal" text-decoration="none" x="400" y="330"></text><text fill="#eeeeee" stroke="none" font-family="Arial" font-size="24px" font-style="normal" font-weight="normal" text-decoration="none" x="400" y="360"></text><text fill="#eeeeee" stroke="none" font-family="Arial" font-size="24px" font-style="normal" font-weight="normal" text-decoration="none" x="400" y="390"></text><text fill="#eeeeee" stroke="none" font-family="Arial" font-size="24px" font-style="normal" font-weight="normal" text-decoration="none" x="600" y="0"></text><text fill="#eeeeee" stroke="none" font-family="Arial" font-size="24px" font-style="normal" font-weight="normal" text-decoration="none" x="600" y="30"></text><text fill="#eeeeee" stroke="none" font-family="Arial" font-size="24px" font-style="normal" font-weight="normal" text-decoration="none" x="600" y="60"></text><text fill="#eeeeee" stroke="none" font-family="Arial" font-size="24px" font-style="normal" font-weight="normal" text-decoration="none" x="600" y="90"></text><text fill="#eeeeee" stroke="none" font-family="Arial" font-size="24px" font-style="normal" font-weight="normal" text-decoration="none" x="600" y="120"></text><text fill="#eeeeee" stroke="none" font-family="Arial" font-size="24px" font-style="normal" font-weight="normal" text-decoration="none" x="600" y="150"></text><text fill="#eeeeee" stroke="none" font-family="Arial" font-size="24px" font-style="normal" font-weight="normal" text-decoration="none" x="600" y="180"></text><text fill="#eeeeee" stroke="none" font-family="Arial" font-size="24px" font-style="normal" font-weight="normal" text-decoration="none" x="600" y="210"></text><text fill="#eeeeee" stroke="none" font-family="Arial" font-size="24px" font-style="normal" font-weight="normal" text-decoration="none" x="600" y="240"></text><text fill="#eeeeee" stroke="none" font-family="Arial" font-size="24px" font-style="normal" font-weight="normal" text-decoration="none" x="600" y="270"></text><text fill="#eeeeee" stroke="none" font-family="Arial" font-size="24px" font-style="normal" font-weight="normal" text-decoration="none" x="600" y="300"></text><text fill="#eeeeee" stroke="none" font-family="Arial" font-size="24px" font-style="normal" font-weight="normal" text-decoration="none" x="600" y="330"></text><text fill="#eeeeee" stroke="none" font-family="Arial" font-size="24px" font-style="normal" font-weight="normal" text-decoration="none" x="600" y="360"></text><text fill="#eeeeee" stroke="none" font-family="Arial" font-size="24px" font-style="normal" font-weight="normal" text-decoration="none" x="600" y="390"></text><text fill="#eeeeee" stroke="none" font-family="Arial" font-size="24px" font-style="normal" font-weight="normal" text-decoration="none" x="800" y="0"></text><text fill="#eeeeee" stroke="none" font-family="Arial" font-size="24px" font-style="normal" font-weight="normal" text-decoration="none" x="800" y="30"></text><text fill="#eeeeee" stroke="none" font-family="Arial" font-size="24px" font-style="normal" font-weight="normal" text-decoration="none" x="800" y="60"></text><text fill="#eeeeee" stroke="none" font-family="Arial" font-size="24px" font-style="normal" font-weight="normal" text-decoration="none" x="800" y="90"></text><text fill="#eeeeee" stroke="none" font-family="Arial" font-size="24px" font-style="normal" font-weight="normal" text-decoration="none" x="800" y="120"></text><text fill="#eeeeee" stroke="none" font-family="Arial" font-size="24px" font-style="normal" font-weight="normal" text-decoration="none" x="800" y="150"></text><text fill="#eeeeee" stroke="none" font-family="Arial" font-size="24px" font-style="normal" font-weight="normal" text-decoration="none" x="800" y="180"></text><text fill="#eeeeee" stroke="none" font-family="Arial" font-size="24px" font-style="normal" font-weight="normal" text-decoration="none" x="800" y="210"></text><text fill="#eeeeee" stroke="none" font-family="Arial" font-size="24px" font-style="normal" font-weight="normal" text-decoration="none" x="800" y="240"></text><text fill="#eeeeee" stroke="none" font-family="Arial" font-size="24px" font-style="normal" font-weight="normal" text-decoration="none" x="800" y="270"></text><text fill="#eeeeee" stroke="none" font-family="Arial" font-size="24px" font-style="normal" font-weight="normal" text-decoration="none" x="800" y="300"></text><text fill="#eeeeee" stroke="none" font-family="Arial" font-size="24px" font-style="normal" font-weight="normal" text-decoration="none" x="800" y="330"></text><text fill="#eeeeee" stroke="none" font-family="Arial" font-size="24px" font-style="normal" font-weight="normal" text-decoration="none" x="800" y="360"></text><text fill="#eeeeee" stroke="none" font-family="Arial" font-size="24px" font-style="normal" font-weight="normal" text-decoration="none" x="800" y="390"></text><g transform="translate(-198,10) scale(1,1)"><path fill="#ffffff" stroke="none" d="M 249.3143172940341 47.3 C 249.3143172940341 43.82060576 252.19271901621596 41 255.74340820312506 41 C 259.29409739003415 41 262.172499112216 43.82060576 262.172499112216 47.3 C 262.172499112216 50.779394239999995 259.29409739003415 53.6 255.74340820312506 53.6 C 252.19271901621596 53.6 249.3143172940341 50.779394239999995 249.3143172940341 47.3 Z"/></g><g transform="translate(-198,10) scale(1,1)"><path fill="none" stroke="#000000" d="M 249.3143172940341 47.3 C 249.3143172940341 43.82060576 252.19271901621596 41 255.74340820312506 41 C 259.29409739003415 41 262.172499112216 43.82060576 262.172499112216 47.3 C 262.172499112216 50.779394239999995 259.29409739003415 53.6 255.74340820312506 53.6 C 252.19271901621596 53.6 249.3143172940341 50.779394239999995 249.3143172940341 47.3 Z" stroke-miterlimit="10"/></g><g transform="translate(-198,10) scale(1,1)"><path fill="none" stroke="#000000" d="M 255.74340820312503 53.6 L 255.74340820312503 66.4" stroke-miterlimit="10"/></g><g transform="translate(-198,10) scale(1,1)"><path fill="none" stroke="#000000" d="M 248.9361354758523 58.4 L 262.5506809303978 58.4" stroke-miterlimit="10"/></g><g transform="translate(-198,10) scale(1,1)"><path fill="none" stroke="#000000" d="M 255.74340820312503 66.4 L 246.28886274857956 79" stroke-miterlimit="10"/></g><g transform="translate(-198,10) scale(1,1)"><path fill="none" stroke="#000000" d="M 255.74340820312503 66.4 L 265.1979536576705 79" stroke-miterlimit="10"/></g><g transform="translate(-198,10) scale(1,1)"><g><path fill="none" stroke="none"/><text fill="#000000" stroke="none" font-family="Arial" font-size="13px" font-style="normal" font-weight="bold" text-decoration="none" x="231.895263671875" y="99.5">: Patient</text></g></g><g transform="translate(-198,10) scale(1,1)"><path fill="none" stroke="#000000" d="M 256.5 105 L 256.5 376" stroke-miterlimit="10" stroke-dasharray="3"/></g><g transform="translate(-198,10) scale(1,1)"><rect fill="#C0C0C0" stroke="none" x="431" y="47" width="177.91357421875" height="39" opacity="0.2"/></g><g transform="translate(-198,10) scale(1,1)"><rect fill="#ffffff" stroke="none" x="424" y="40" width="177.91357421875" height="39"/></g><g transform="translate(-198,10) scale(1,1)"><path fill="none" stroke="#000000" d="M 424 40 L 601.91357421875 40 L 601.91357421875 79 L 424 79 L 424 40 Z Z" stroke-miterlimit="10"/></g><g transform="translate(-198,10) scale(1,1)"><g><path fill="none" stroke="none"/><text fill="#000000" stroke="none" font-family="Arial" font-size="13px" font-style="normal" font-weight="bold" text-decoration="none" x="439.247802734375" y="59.5">RequestInsuranceControl</text></g></g><g transform="translate(-198,10) scale(1,1)"><path fill="none" stroke="#000000" d="M 513.5 80 L 513.5 384" stroke-miterlimit="10" stroke-dasharray="3"/></g><g transform="translate(-198,10) scale(1,1)"><rect fill="#C0C0C0" stroke="none" x="687" y="47" width="175.025390625" height="39" opacity="0.2"/></g><g transform="translate(-198,10) scale(1,1)"><rect fill="#ffffff" stroke="none" x="680" y="40" width="175.025390625" height="39"/></g><g transform="translate(-198,10) scale(1,1)"><path fill="none" stroke="#000000" d="M 680 40 L 855.025390625 40 L 855.025390625 79 L 680 79 L 680 40 Z Z" stroke-miterlimit="10"/></g><g transform="translate(-198,10) scale(1,1)"><g><path fill="none" stroke="none"/><text fill="#000000" stroke="none" font-family="Arial" font-size="13px" font-style="normal" font-weight="bold" text-decoration="none" x="694.524169921875" y="59.5">ManageInsuranceControl</text></g></g><g transform="translate(-198,10) scale(1,1)"><path fill="none" stroke="#000000" d="M 768.5 80 L 768.5 376" stroke-miterlimit="10" stroke-dasharray="3"/></g><g transform="translate(-198,10) scale(1,1)"><rect fill="#C0C0C0" stroke="none" x="1103" y="299" width="80.41357421875" height="39" opacity="0.2"/></g><g transform="translate(-198,10) scale(1,1)"><rect fill="#ffffff" stroke="none" x="1096" y="292" width="80.41357421875" height="39"/></g><g transform="translate(-198,10) scale(1,1)"><path fill="none" stroke="#000000" d="M 1096 292 L 1176.41357421875 292 L 1176.41357421875 331 L 1096 331 L 1096 292 Z Z" stroke-miterlimit="10"/></g><g transform="translate(-198,10) scale(1,1)"><g><path fill="none" stroke="none"/><text fill="#000000" stroke="none" font-family="Arial" font-size="13px" font-style="normal" font-weight="bold" text-decoration="none" x="1107.661376953125" y="311.5">Insurance</text></g></g><g transform="translate(-198,10) scale(1,1)"><path fill="none" stroke="#000000" d="M 1137.5 332 L 1137.5 381" stroke-miterlimit="10" stroke-dasharray="3"/></g><g transform="translate(-198,10) scale(1,1)"><path fill="#ffffff" stroke="none" d="M 964.781358309659 47.3 C 964.781358309659 43.82060576 967.659760031841 41 971.21044921875 41 C 974.761138405659 41 977.6395401278409 43.82060576 977.6395401278409 47.3 C 977.6395401278409 50.779394239999995 974.761138405659 53.6 971.21044921875 53.6 C 967.659760031841 53.6 964.781358309659 50.779394239999995 964.781358309659 47.3 Z"/></g><g transform="translate(-198,10) scale(1,1)"><path fill="none" stroke="#000000" d="M 964.781358309659 47.3 C 964.781358309659 43.82060576 967.659760031841 41 971.21044921875 41 C 974.761138405659 41 977.6395401278409 43.82060576 977.6395401278409 47.3 C 977.6395401278409 50.779394239999995 974.761138405659 53.6 971.21044921875 53.6 C 967.659760031841 53.6 964.781358309659 50.779394239999995 964.781358309659 47.3 Z" stroke-miterlimit="10"/></g><g transform="translate(-198,10) scale(1,1)"><path fill="none" stroke="#000000" d="M 971.21044921875 53.6 L 971.21044921875 66.4" stroke-miterlimit="10"/></g><g transform="translate(-198,10) scale(1,1)"><path fill="none" stroke="#000000" d="M 964.4031764914772 58.4 L 978.0177219460227 58.4" stroke-miterlimit="10"/></g><g transform="translate(-198,10) scale(1,1)"><path fill="none" stroke="#000000" d="M 971.21044921875 66.4 L 961.7559037642045 79" stroke-miterlimit="10"/></g><g transform="translate(-198,10) scale(1,1)"><path fill="none" stroke="#000000" d="M 971.21044921875 66.4 L 980.6649946732954 79" stroke-miterlimit="10"/></g><g transform="translate(-198,10) scale(1,1)"><g><path fill="none" stroke="none"/><text fill="#000000" stroke="none" font-family="Arial" font-size="13px" font-style="normal" font-weight="bold" text-decoration="none" x="928.576416015625" y="99.5">: InsuranceAPI</text></g></g><g transform="translate(-198,10) scale(1,1)"><path fill="none" stroke="#000000" d="M 972.5 105 L 972.5 376" stroke-miterlimit="10" stroke-dasharray="3"/></g><g transform="translate(-198,10) scale(1,1)"><g><path fill="none" stroke="none"/><text fill="#5b005b" stroke="none" font-family="Arial" font-size="13px" font-style="normal" font-weight="normal" text-decoration="none" x="261" y="18">requestInsurance Sequence Diagram</text></g></g><g transform="translate(-198,10) scale(1,1)"><path fill="none" stroke="#000000" d="M 256 129 L 506 129" stroke-miterlimit="10"/></g><g transform="translate(-198,10) scale(1,1)"><path fill="#000000" stroke="none" d="M 495.83732514237585 133.209517756016 L 506 129 L 495.83732514237585 124.79048224398402"/></g><g transform="translate(-198,10) scale(1,1)"><path fill="none" stroke="#000000" d="M 495.83732514237585 133.209517756016 L 506 129 L 495.83732514237585 124.79048224398402 L 495.83732514237585 133.209517756016" stroke-miterlimit="10"/></g><g transform="translate(-198,10) scale(1,1)"><g><path fill="none" stroke="none"/><text fill="#000000" stroke="none" font-family="Arial" font-size="13px" font-style="normal" font-weight="normal" text-decoration="none" x="265.5" y="125.5">requestInsurance(IID, sinsuranceName)</text></g></g><g transform="translate(-198,10) scale(1,1)"><rect fill="#ffffff" stroke="none" x="506" y="129" width="13" height="28"/></g><g transform="translate(-198,10) scale(1,1)"><path fill="none" stroke="#000000" d="M 506 129 L 519 129 L 519 157 L 506 157 L 506 129 Z Z" stroke-miterlimit="10"/></g><g transform="translate(-198,10) scale(1,1)"><path fill="none" stroke="#000000" d="M 519 152 L 761 152" stroke-miterlimit="10"/></g><g transform="translate(-198,10) scale(1,1)"><path fill="#000000" stroke="none" d="M 750.8373251423759 156.209517756016 L 761 152 L 750.8373251423758 147.790482243984"/></g><g transform="translate(-198,10) scale(1,1)"><path fill="none" stroke="#000000" d="M 750.8373251423759 156.209517756016 L 761 152 L 750.8373251423758 147.790482243984 L 750.8373251423759 156.209517756016" stroke-miterlimit="10"/></g><g transform="translate(-198,10) scale(1,1)"><g><path fill="none" stroke="none"/><text fill="#000000" stroke="none" font-family="Arial" font-size="13px" font-style="normal" font-weight="normal" text-decoration="none" x="551.5" y="148.5">submitRequestToInsuranceAPI()</text></g></g><g transform="translate(-198,10) scale(1,1)"><rect fill="#ffffff" stroke="none" x="761" y="152" width="13" height="56"/></g><g transform="translate(-198,10) scale(1,1)"><path fill="none" stroke="#000000" d="M 761 152 L 774 152 L 774 208 L 761 208 L 761 152 Z Z" stroke-miterlimit="10"/></g><g transform="translate(-198,10) scale(1,1)"><path fill="none" stroke="#000000" d="M 774 200 L 965 200" stroke-miterlimit="10"/></g><g transform="translate(-198,10) scale(1,1)"><path fill="#000000" stroke="none" d="M 954.8373251423759 204.209517756016 L 965 200 L 954.8373251423758 195.790482243984"/></g><g transform="translate(-198,10) scale(1,1)"><path fill="none" stroke="#000000" d="M 954.8373251423759 204.209517756016 L 965 200 L 954.8373251423758 195.790482243984 L 954.8373251423759 204.209517756016" stroke-miterlimit="10"/></g><g transform="translate(-198,10) scale(1,1)"><g><path fill="none" stroke="none"/><text fill="#000000" stroke="none" font-family="Arial" font-size="13px" font-style="normal" font-weight="normal" text-decoration="none" x="846.015869140625" y="196.5">submit()</text></g></g><g transform="translate(-198,10) scale(1,1)"><rect fill="#ffffff" stroke="none" x="965" y="200" width="13" height="28"/></g><g transform="translate(-198,10) scale(1,1)"><path fill="none" stroke="#000000" d="M 965 200 L 978 200 L 978 228 L 965 228 L 965 200 Z Z" stroke-miterlimit="10"/></g><g transform="translate(-198,10) scale(1,1)"><path fill="none" stroke="#000000" d="M 972 240 L 768 240" stroke-miterlimit="10" stroke-dasharray="3"/></g><g transform="translate(-198,10) scale(1,1)"><path fill="none" stroke="#000000" d="M 778.1626748576241 235.790482243984 L 768 240 L 778.1626748576241 244.209517756016" stroke-miterlimit="10"/></g><g transform="translate(-198,10) scale(1,1)"><g><path fill="none" stroke="none"/><text fill="#000000" stroke="none" font-family="Arial" font-size="13px" font-style="normal" font-weight="normal" text-decoration="none" x="822.5" y="235.5">insurance reply</text></g></g><g transform="translate(-198,10) scale(1,1)"><path fill="none" stroke="#000000" d="M 768 256 L 513 256" stroke-miterlimit="10" stroke-dasharray="3"/></g><g transform="translate(-198,10) scale(1,1)"><path fill="none" stroke="#000000" d="M 523.1626748576241 251.790482243984 L 513 256 L 523.1626748576241 260.209517756016" stroke-miterlimit="10"/></g><g transform="translate(-198,10) scale(1,1)"><g><path fill="none" stroke="none"/><text fill="#000000" stroke="none" font-family="Arial" font-size="13px" font-style="normal" font-weight="normal" text-decoration="none" x="590.5" y="251.5">insurance reply</text></g></g><g transform="translate(-198,10) scale(1,1)"><path fill="none" stroke="#000000" d="M 513 272 L 256 272" stroke-miterlimit="10" stroke-dasharray="3"/></g><g transform="translate(-198,10) scale(1,1)"><path fill="none" stroke="#000000" d="M 266.16267485762415 267.790482243984 L 256 272 L 266.16267485762415 276.209517756016" stroke-miterlimit="10"/></g><g transform="translate(-198,10) scale(1,1)"><g><path fill="none" stroke="none"/><text fill="#000000" stroke="none" font-family="Arial" font-size="13px" font-style="normal" font-weight="normal" text-decoration="none" x="337.5" y="267.5">insurance reply</text></g></g><g transform="translate(-198,10) scale(1,1)"><path fill="none" stroke="#000000" d="M 513 312 L 1096 312" stroke-miterlimit="10" stroke-dasharray="3"/></g><g transform="translate(-198,10) scale(1,1)"><path fill="none" stroke="#000000" d="M 1085.837325142376 316.209517756016 L 1096 312 L 1085.837325142376 307.790482243984" stroke-miterlimit="10"/></g><g transform="translate(-198,10) scale(1,1)"><g><path fill="none" stroke="none"/><text fill="#000000" stroke="none" font-family="Arial" font-size="13px" font-style="normal" font-weight="normal" text-decoration="none" x="998.5" y="308.5">«create»</text></g></g></g></svg>