<svg version="1.1" xmlns="http://www.w3.org/2000/svg" xmlns:xlink="http://www.w3.org/1999/xlink" width="1004.41357421875" height="372"><defs/><g><text fill="#eeeeee" stroke="none" font-family="Arial" font-size="24px" font-style="normal" font-weight="normal" text-decoration="none" x="0" y="0"></text><text fill="#eeeeee" stroke="none" font-family="Arial" font-size="24px" font-style="normal" font-weight="normal" text-decoration="none" x="0" y="30"></text><text fill="#eeeeee" stroke="none" font-family="Arial" font-size="24px" font-style="normal" font-weight="normal" text-decoration="none" x="0" y="60"></text><text fill="#eeeeee" stroke="none" font-family="Arial" font-size="24px" font-style="normal" font-weight="normal" text-decoration="none" x="0" y="90"></text><text fill="#eeeeee" stroke="none" font-family="Arial" font-size="24px" font-style="normal" font-weight="normal" text-decoration="none" x="0" y="120"></text><text fill="#eeeeee" stroke="none" font-family="Arial" font-size="24px" font-style="normal" font-weight="normal" text-decoration="none" x="0" y="150"></text><text fill="#eeeeee" stroke="none" font-family="Arial" font-size="24px" font-style="normal" font-weight="normal" text-decoration="none" x="0" y="180"></text><text fill="#eeeeee" stroke="none" font-family="Arial" font-size="24px" font-style="normal" font-weight="normal" text-decoration="none" x="0" y="210"></text><text fill="#eeeeee" stroke="none" font-family="Arial" font-size="24px" font-style="normal" font-weight="normal" text-decoration="none" x="0" y="240"></text><text fill="#eeeeee" stroke="none" font-family="Arial" font-size="24px" font-style="normal" font-weight="normal" text-decoration="none" x="0" y="270"></text><text fill="#eeeeee" stroke="none" font-family="Arial" font-size="24px" font-style="normal" font-weight="normal" text-decoration="none" x="0" y="300"></text><text fill="#eeeeee" stroke="none" font-family="Arial" font-size="24px" font-style="normal" font-weight="normal" text-decoration="none" x="0" y="330"></text><text fill="#eeeeee" stroke="none" font-family="Arial" font-size="24px" font-style="normal" font-weight="normal" text-decoration="none" x="0" y="360"></text><text fill="#eeeeee" stroke="none" font-family="Arial" font-size="24px" font-style="normal" font-weight="normal" text-decoration="none" x="200" y="0"></text><text fill="#eeeeee" stroke="none" font-family="Arial" font-size="24px" font-style="normal" font-weight="normal" text-decoration="none" x="200" y="30"></text><text fill="#eeeeee" stroke="none" font-family="Arial" font-size="24px" font-style="normal" font-weight="normal" text-decoration="none" x="200" y="60"></text><text fill="#eeeeee" stroke="none" font-family="Arial" font-size="24px" font-style="normal" font-weight="normal" text-decoration="none" x="200" y="90"></text><text fill="#eeeeee" stroke="none" font-family="Arial" font-size="24px" font-style="normal" font-weight="normal" text-decoration="none" x="200" y="120"></text><text fill="#eeeeee" stroke="none" font-family="Arial" font-size="24px" font-style="normal" font-weight="normal" text-decoration="none" x="200" y="150"></text><text fill="#eeeeee" stroke="none" font-family="Arial" font-size="24px" font-style="normal" font-weight="normal" text-decoration="none" x="200" y="180"></text><text fill="#eeeeee" stroke="none" font-family="Arial" font-size="24px" font-style="normal" font-weight="normal" text-decoration="none" x="200" y="210"></text><text fill="#eeeeee" stroke="none" font-family="Arial" font-size="24px" font-style="normal" font-weight="normal" text-decoration="none" x="200" y="240"></text><text fill="#eeeeee" stroke="none" font-family="Arial" font-size="24px" font-style="normal" font-weight="normal" text-decoration="none" x="200" y="270"></text><text fill="#eeeeee" stroke="none" font-family="Arial" font-size="24px" font-style="normal" font-weight="normal" text-decoration="none" x="200" y="300"></text><text fill="#eeeeee" stroke="none" font-family="Arial" font-size="24px" font-style="normal" font-weight="normal" text-decoration="none" x="200" y="330"></text><text fill="#eeeeee" stroke="none" font-family="Arial" font-size="24px" font-style="normal" font-weight="normal" text-decoration="none" x="200" y="360"></text><text fill="#eeeeee" stroke="none" font-family="Arial" font-size="24px" font-style="normal" font-weight="normal" text-decoration="none" x="400" y="0"></text><text fill="#eeeeee" stroke="none" font-family="Arial" font-size="24px" font-style="normal" font-weight="normal" text-decoration="none" x="400" y="30"></text><text fill="#eeeeee" stroke="none" font-family="Arial" font-size="24px" font-style="normal" font-weight="normal" text-decoration="none" x="400" y="60"></text><text fill="#eeeeee" stroke="none" font-family="Arial" font-size="24px" font-style="normal" font-weight="normal" text-decoration="none" x="400" y="90"></text><text fill="#eeeeee" stroke="none" font-family="Arial" font-size="24px" font-style="normal" font-weight="normal" text-decoration="none" x="400" y="120"></text><text fill="#eeeeee" stroke="none" font-family="Arial" font-size="24px" font-style="normal" font-weight="normal" text-decoration="none" x="400" y="150"></text><text fill="#eeeeee" stroke="none" font-family="Arial" font-size="24px" font-style="normal" font-weight="normal" text-decoration="none" x="400" y="180"></text><text fill="#eeeeee" stroke="none" font-family="Arial" font-size="24px" font-style="normal" font-weight="normal" text-decoration="none" x="400" y="210"></text><text fill="#eeeeee" stroke="none" font-family="Arial" font-size="24px" font-style="normal" font-weight="normal" text-decoration="none" x="400" y="240"></text><text fill="#eeeeee" stroke="none" font-family="Arial" font-size="24px" font-style="normal" font-weight="normal" text-decoration="none" x="400" y="270"></text><text fill="#eeeeee" stroke="none" font-family="Arial" font-size="24px" font-style="normal" font-weight="normal" text-decoration="none" x="400" y="300"></text><text fill="#eeeeee" stroke="none" font-family="Arial" font-size="24px" font-style="normal" font-weight="normal" text-decoration="none" x="400" y="330"></text><text fill="#eeeeee" stroke="none" font-family="Arial" font-size="24px" font-style="normal" font-weight="normal" text-decoration="none" x="400" y="360"></text><text fill="#eeeeee" stroke="none" font-family="Arial" font-size="24px" font-style="normal" font-weight="normal" text-decoration="none" x="600" y="0"></text><text fill="#eeeeee" stroke="none" font-family="Arial" font-size="24px" font-style="normal" font-weight="normal" text-decoration="none" x="600" y="30"></text><text fill="#eeeeee" stroke="none" font-family="Arial" font-size="24px" font-style="normal" font-weight="normal" text-decoration="none" x="600" y="60"></text><text fill="#eeeeee" stroke="none" font-family="Arial" font-size="24px" font-style="normal" font-weight="normal" text-decoration="none" x="600" y="90"></text><text fill="#eeeeee" stroke="none" font-family="Arial" font-size="24px" font-style="normal" font-weight="normal" text-decoration="none" x="600" y="120"></text><text fill="#eeeeee" stroke="none" font-family="Arial" font-size="24px" font-style="normal" font-weight="normal" text-decoration="none" x="600" y="150"></text><text fill="#eeeeee" stroke="none" font-family="Arial" font-size="24px" font-style="normal" font-weight="normal" text-decoration="none" x="600" y="180"></text><text fill="#eeeeee" stroke="none" font-family="Arial" font-size="24px" font-style="normal" font-weight="normal" text-decoration="none" x="600" y="210"></text><text fill="#eeeeee" stroke="none" font-family="Arial" font-size="24px" font-style="normal" font-weight="normal" text-decoration="none" x="600" y="240"></text><text fill="#eeeeee" stroke="none" font-family="Arial" font-size="24px" font-style="normal" font-weight="normal" text-decoration="none" x="600" y="270"></text><text fill="#eeeeee" stroke="none" font-family="Arial" font-size="24px" font-style="normal" font-weight="normal" text-decoration="none" x="600" y="300"></text><text fill="#eeeeee" stroke="none" font-family="Arial" font-size="24px" font-style="normal" font-weight="normal" text-decoration="none" x="600" y="330"></text><text fill="#eeeeee" stroke="none" font-family="Arial" font-size="24px" font-style="normal" font-weight="normal" text-decoration="none" x="600" y="360"></text><text fill="#eeeeee" stroke="none" font-family="Arial" font-size="24px" font-style="normal" font-weight="normal" text-decoration="none" x="800" y="0"></text><text fill="#eeeeee" stroke="none" font-family="Arial" font-size="24px" font-style="normal" font-weight="normal" text-decoration="none" x="800" y="30"></text><text fill="#eeeeee" stroke="none" font-family="Arial" font-size="24px" font-style="normal" font-weight="normal" text-decoration="none" x="800" y="60"></text><text fill="#eeeeee" stroke="none" font-family="Arial" font-size="24px" font-style="normal" font-weight="normal" text-decoration="none" x="800" y="90"></text><text fill="#eeeeee" stroke="none" font-family="Arial" font-size="24px" font-style="normal" font-weight="normal" text-decoration="none" x="800" y="120"></text><text fill="#eeeeee" stroke="none" font-family="Arial" font-size="24px" font-style="normal" font-weight="normal" text-decoration="none" x="800" y="150"></text><text fill="#eeeeee" stroke="none" font-family="Arial" font-size="24px" font-style="normal" font-weight="normal" text-decoration="none" x="800" y="180"></text><text fill="#eeeeee" stroke="none" font-family="Arial" font-size="24px" font-style="normal" font-weight="normal" text-decoration="none" x="800" y="210"></text><text fill="#eeeeee" stroke="none" font-family="Arial" font-size="24px" font-style="normal" font-weight="normal" text-decoration="none" x="800" y="240"></text><text fill="#eeeeee" stroke="none" font-family="Arial" font-size="24px" font-style="normal" font-weight="normal" text-decoration="none" x="800" y="270"></text><text fill="#eeeeee" stroke="none" font-family="Arial" font-size="24px" font-style="normal" font-weight="normal" text-decoration="none" x="800" y="300"></text><text fill="#eeeeee" stroke="none" font-family="Arial" font-size="24px" font-style="normal" font-weight="normal" text-decoration="none" x="800" y="330"></text><text fill="#eeeeee" stroke="none" font-family="Arial" font-size="24px" font-style="normal" font-weight="normal" text-decoration="none" x="800" y="360"></text><text fill="#eeeeee" stroke="none" font-family="Arial" font-size="24px" font-style="normal" font-weight="normal" text-decoration="none" x="1000" y="0"></text><text fill="#eeeeee" stroke="none" font-family="Arial" font-size="24px" font-style="normal" font-weight="normal" text-decoration="none" x="1000" y="30"></text><text fill="#eeeeee" stroke="none" font-family="Arial" font-size="24px" font-style="normal" font-weight="normal" text-decoration="none" x="1000" y="60"></text><text fill="#eeeeee" stroke="none" font-family="Arial" font-size="24px" font-style="normal" font-weight="normal" text-decoration="none" x="1000" y="90"></text><text fill="#eeeeee" stroke="none" font-family="Arial" font-size="24px" font-style="normal" font-weight="normal" text-decoration="none" x="1000" y="120"></text><text fill="#eeeeee" stroke="none" font-family="Arial" font-size="24px" font-style="normal" font-weight="normal" text-decoration="none" x="1000" y="150"></text><text fill="#eeeeee" stroke="none" font-family="Arial" font-size="24px" font-style="normal" font-weight="normal" text-decoration="none" x="1000" y="180"></text><text fill="#eeeeee" stroke="none" font-family="Arial" font-size="24px" font-style="normal" font-weight="normal" text-decoration="none" x="1000" y="210"></text><text fill="#eeeeee" stroke="none" font-family="Arial" font-size="24px" font-style="normal" font-weight="normal" text-decoration="none" x="1000" y="240"></text><text fill="#eeeeee" stroke="none" font-family="Arial" font-size="24px" font-style="normal" font-weight="normal" text-decoration="none" x="1000" y="270"></text><text fill="#eeeeee" stroke="none" font-family="Arial" font-size="24px" font-style="normal" font-weight="normal" text-decoration="none" x="1000" y="300"></text><text fill="#eeeeee" stroke="none" font-family="Arial" font-size="24px" font-style="normal" font-weight="normal" text-decoration="none" x="1000" y="330"></text><text fill="#eeeeee" stroke="none" font-family="Arial" font-size="24px" font-style="normal" font-weight="normal" text-decoration="none" x="1000" y="360"></text><g transform="translate(-198,10) scale(1,1)"><path fill="#ffffff" stroke="none" d="M 249.3143172940341 47.3 C 249.3143172940341 43.82060576 252.19271901621596 41 255.74340820312506 41 C 259.29409739003415 41 262.172499112216 43.82060576 262.172499112216 47.3 C 262.172499112216 50.779394239999995 259.29409739003415 53.6 255.74340820312506 53.6 C 252.19271901621596 53.6 249.3143172940341 50.779394239999995 249.3143172940341 47.3 Z"/></g><g transform="translate(-198,10) scale(1,1)"><path fill="none" stroke="#000000" d="M 249.3143172940341 47.3 C 249.3143172940341 43.82060576 252.19271901621596 41 255.74340820312506 41 C 259.29409739003415 41 262.172499112216 43.82060576 262.172499112216 47.3 C 262.172499112216 50.779394239999995 259.29409739003415 53.6 255.74340820312506 53.6 C 252.19271901621596 53.6 249.3143172940341 50.779394239999995 249.3143172940341 47.3 Z" stroke-miterlimit="10"/></g><g transform="translate(-198,10) scale(1,1)"><path fill="none" stroke="#000000" d="M 255.74340820312503 53.6 L 255.74340820312503 66.4" stroke-miterlimit="10"/></g><g transform="translate(-198,10) scale(1,1)"><path fill="none" stroke="#000000" d="M 248.9361354758523 58.4 L 262.5506809303978 58.4" stroke-miterlimit="10"/></g><g transform="translate(-198,10) scale(1,1)"><path fill="none" stroke="#000000" d="M 255.74340820312503 66.4 L 246.28886274857956 79" stroke-miterlimit="10"/></g><g transform="translate(-198,10) scale(1,1)"><path fill="none" stroke="#000000" d="M 255.74340820312503 66.4 L 265.1979536576705 79" stroke-miterlimit="10"/></g><g transform="translate(-198,10) scale(1,1)"><g><path fill="none" stroke="none"/><text fill="#000000" stroke="none" font-family="Arial" font-size="13px" font-style="normal" font-weight="bold" text-decoration="none" x="231.895263671875" y="99.5">: Patient</text></g></g><g transform="translate(-198,10) scale(1,1)"><path fill="none" stroke="#000000" d="M 256.5 105 L 256.5 336" stroke-miterlimit="10" stroke-dasharray="3"/></g><g transform="translate(-198,10) scale(1,1)"><rect fill="#C0C0C0" stroke="none" x="431" y="47" width="177.91357421875" height="39" opacity="0.2"/></g><g transform="translate(-198,10) scale(1,1)"><rect fill="#ffffff" stroke="none" x="424" y="40" width="177.91357421875" height="39"/></g><g transform="translate(-198,10) scale(1,1)"><path fill="none" stroke="#000000" d="M 424 40 L 601.91357421875 40 L 601.91357421875 79 L 424 79 L 424 40 Z Z" stroke-miterlimit="10"/></g><g transform="translate(-198,10) scale(1,1)"><g><path fill="none" stroke="none"/><text fill="#000000" stroke="none" font-family="Arial" font-size="13px" font-style="normal" font-weight="bold" text-decoration="none" x="455.872314453125" y="59.5">RequestTestControl</text></g></g><g transform="translate(-198,10) scale(1,1)"><path fill="none" stroke="#000000" d="M 513.5 80 L 513.5 352" stroke-miterlimit="10" stroke-dasharray="3"/></g><g transform="translate(-198,10) scale(1,1)"><rect fill="#C0C0C0" stroke="none" x="767" y="47" width="177.91357421875" height="39" opacity="0.2"/></g><g transform="translate(-198,10) scale(1,1)"><rect fill="#ffffff" stroke="none" x="760" y="40" width="177.91357421875" height="39"/></g><g transform="translate(-198,10) scale(1,1)"><path fill="none" stroke="#000000" d="M 760 40 L 937.91357421875 40 L 937.91357421875 79 L 760 79 L 760 40 Z Z" stroke-miterlimit="10"/></g><g transform="translate(-198,10) scale(1,1)"><g><path fill="none" stroke="none"/><text fill="#000000" stroke="none" font-family="Arial" font-size="13px" font-style="normal" font-weight="bold" text-decoration="none" x="775.247802734375" y="59.5">RequestInsuranceControl</text></g></g><g transform="translate(-198,10) scale(1,1)"><path fill="none" stroke="#000000" d="M 849.5 80 L 849.5 240" stroke-miterlimit="10" stroke-dasharray="3"/></g><g transform="translate(-198,10) scale(1,1)"><rect fill="#C0C0C0" stroke="none" x="1119" y="235" width="80.41357421875" height="39" opacity="0.2"/></g><g transform="translate(-198,10) scale(1,1)"><rect fill="#ffffff" stroke="none" x="1112" y="228" width="80.41357421875" height="39"/></g><g transform="translate(-198,10) scale(1,1)"><path fill="none" stroke="#000000" d="M 1112 228 L 1192.41357421875 228 L 1192.41357421875 267 L 1112 267 L 1112 228 Z Z" stroke-miterlimit="10"/></g><g transform="translate(-198,10) scale(1,1)"><g><path fill="none" stroke="none"/><text fill="#000000" stroke="none" font-family="Arial" font-size="13px" font-style="normal" font-weight="bold" text-decoration="none" x="1123.661376953125" y="247.5">Insurance</text></g></g><g transform="translate(-198,10) scale(1,1)"><path fill="none" stroke="#000000" d="M 1153.5 268 L 1153.5 344" stroke-miterlimit="10" stroke-dasharray="3"/></g><g transform="translate(-198,10) scale(1,1)"><g><path fill="none" stroke="none"/><text fill="#5b005b" stroke="none" font-family="Arial" font-size="13px" font-style="normal" font-weight="normal" text-decoration="none" x="261" y="18">requestInsurance Sequence Diagram</text></g></g><g transform="translate(-198,10) scale(1,1)"><rect fill="#C0C0C0" stroke="none" x="975" y="47" width="96.05419921875" height="39" opacity="0.2"/></g><g transform="translate(-198,10) scale(1,1)"><rect fill="#ffffff" stroke="none" x="968" y="40" width="96.05419921875" height="39"/></g><g transform="translate(-198,10) scale(1,1)"><path fill="none" stroke="#000000" d="M 968 40 L 1064.05419921875 40 L 1064.05419921875 79 L 968 79 L 968 40 Z Z" stroke-miterlimit="10"/></g><g transform="translate(-198,10) scale(1,1)"><g><path fill="none" stroke="none"/><text fill="#000000" stroke="none" font-family="Arial" font-size="13px" font-style="normal" font-weight="bold" text-decoration="none" x="979.896240234375" y="59.5">TestRequest</text></g></g><g transform="translate(-198,10) scale(1,1)"><path fill="none" stroke="#000000" d="M 1017.5 80 L 1017.5 282" stroke-miterlimit="10" stroke-dasharray="3"/></g><g transform="translate(-198,10) scale(1,1)"><path fill="none" stroke="#000000" d="M 256 129 L 506 129" stroke-miterlimit="10"/></g><g transform="translate(-198,10) scale(1,1)"><path fill="#000000" stroke="none" d="M 495.83732514237585 133.209517756016 L 506 129 L 495.83732514237585 124.79048224398402"/></g><g transform="translate(-198,10) scale(1,1)"><path fill="none" stroke="#000000" d="M 495.83732514237585 133.209517756016 L 506 129 L 495.83732514237585 124.79048224398402 L 495.83732514237585 133.209517756016" stroke-miterlimit="10"/></g><g transform="translate(-198,10) scale(1,1)"><g><path fill="none" stroke="none"/><text fill="#000000" stroke="none" font-family="Arial" font-size="13px" font-style="normal" font-weight="normal" text-decoration="none" x="268.75" y="125.5">requestInsurance(IID, insuranceName)</text></g></g><g transform="translate(-198,10) scale(1,1)"><rect fill="#ffffff" stroke="none" x="506" y="129" width="13" height="167"/></g><g transform="translate(-198,10) scale(1,1)"><path fill="none" stroke="#000000" d="M 506 129 L 519 129 L 519 296 L 506 296 L 506 129 Z Z" stroke-miterlimit="10"/></g><g transform="translate(-198,10) scale(1,1)"><path fill="none" stroke="#000000" d="M 519 152 L 842 152" stroke-miterlimit="10"/></g><g transform="translate(-198,10) scale(1,1)"><path fill="#000000" stroke="none" d="M 831.8373251423759 156.209517756016 L 842 152 L 831.8373251423758 147.790482243984"/></g><g transform="translate(-198,10) scale(1,1)"><path fill="none" stroke="#000000" d="M 831.8373251423759 156.209517756016 L 842 152 L 831.8373251423758 147.790482243984 L 831.8373251423759 156.209517756016" stroke-miterlimit="10"/></g><g transform="translate(-198,10) scale(1,1)"><g><path fill="none" stroke="none"/><text fill="#000000" stroke="none" font-family="Arial" font-size="13px" font-style="normal" font-weight="normal" text-decoration="none" x="533.5" y="148.5">submitRequestToInsuranceAPI(IID, insuranceName)</text></g></g><g transform="translate(-198,10) scale(1,1)"><rect fill="#ffffff" stroke="none" x="842" y="152" width="13" height="40"/></g><g transform="translate(-198,10) scale(1,1)"><path fill="none" stroke="#000000" d="M 842 152 L 855 152 L 855 192 L 842 192 L 842 152 Z Z" stroke-miterlimit="10"/></g><g transform="translate(-198,10) scale(1,1)"><path fill="none" stroke="#000000" d="M 849 192 L 519 192" stroke-miterlimit="10" stroke-dasharray="3"/></g><g transform="translate(-198,10) scale(1,1)"><path fill="none" stroke="#000000" d="M 529.1626748576241 187.790482243984 L 519 192 L 529.1626748576241 196.209517756016" stroke-miterlimit="10"/></g><g transform="translate(-198,10) scale(1,1)"><g><path fill="none" stroke="none"/><text fill="#000000" stroke="none" font-family="Arial" font-size="13px" font-style="normal" font-weight="normal" text-decoration="none" x="634.5" y="187.5">insurance reply</text></g></g><g transform="translate(-198,10) scale(1,1)"><path fill="none" stroke="#000000" d="M 506 216 L 256 216" stroke-miterlimit="10" stroke-dasharray="3"/></g><g transform="translate(-198,10) scale(1,1)"><path fill="none" stroke="#000000" d="M 266.16267485762415 211.790482243984 L 256 216 L 266.16267485762415 220.209517756016" stroke-miterlimit="10"/></g><g transform="translate(-198,10) scale(1,1)"><g><path fill="none" stroke="none"/><text fill="#000000" stroke="none" font-family="Arial" font-size="13px" font-style="normal" font-weight="normal" text-decoration="none" x="334.5" y="211.5">insurance reply</text></g></g><g transform="translate(-198,10) scale(1,1)"><path fill="none" stroke="#000000" d="M 519 232 L 1010 232" stroke-miterlimit="10"/></g><g transform="translate(-198,10) scale(1,1)"><path fill="#000000" stroke="none" d="M 999.8373251423759 236.209517756016 L 1010 232 L 999.8373251423758 227.790482243984"/></g><g transform="translate(-198,10) scale(1,1)"><path fill="none" stroke="#000000" d="M 999.8373251423759 236.209517756016 L 1010 232 L 999.8373251423758 227.790482243984 L 999.8373251423759 236.209517756016" stroke-miterlimit="10"/></g><g transform="translate(-198,10) scale(1,1)"><g><path fill="none" stroke="none"/><text fill="#000000" stroke="none" font-family="Arial" font-size="13px" font-style="normal" font-weight="normal" text-decoration="none" x="536.5" y="227.5">makeInsurance(IID, insuranceName, franchise)</text></g></g><g transform="translate(-198,10) scale(1,1)"><rect fill="#ffffff" stroke="none" x="1010" y="232" width="13" height="28"/></g><g transform="translate(-198,10) scale(1,1)"><path fill="none" stroke="#000000" d="M 1010 232 L 1023 232 L 1023 260 L 1010 260 L 1010 232 Z Z" stroke-miterlimit="10"/></g><g transform="translate(-198,10) scale(1,1)"><path fill="none" stroke="#000000" d="M 1023 248 L 1112 248" stroke-miterlimit="10" stroke-dasharray="3"/></g><g transform="translate(-198,10) scale(1,1)"><path fill="none" stroke="#000000" d="M 1101.837325142376 252.209517756016 L 1112 248 L 1101.837325142376 243.790482243984" stroke-miterlimit="10"/></g><g transform="translate(-198,10) scale(1,1)"><g><path fill="none" stroke="none"/><text fill="#000000" stroke="none" font-family="Arial" font-size="13px" font-style="normal" font-weight="normal" text-decoration="none" x="1038.5" y="243.5">«create»</text></g></g></g></svg>