<svg version="1.1" xmlns="http://www.w3.org/2000/svg" xmlns:xlink="http://www.w3.org/1999/xlink" width="812.41357421875" height="419"><defs/><g><text fill="#eeeeee" stroke="none" font-family="Arial" font-size="24px" font-style="normal" font-weight="normal" text-decoration="none" x="0" y="0">UNREGISTERED</text><text fill="#eeeeee" stroke="none" font-family="Arial" font-size="24px" font-style="normal" font-weight="normal" text-decoration="none" x="0" y="30">UNREGISTERED</text><text fill="#eeeeee" stroke="none" font-family="Arial" font-size="24px" font-style="normal" font-weight="normal" text-decoration="none" x="0" y="60">UNREGISTERED</text><text fill="#eeeeee" stroke="none" font-family="Arial" font-size="24px" font-style="normal" font-weight="normal" text-decoration="none" x="0" y="90">UNREGISTERED</text><text fill="#eeeeee" stroke="none" font-family="Arial" font-size="24px" font-style="normal" font-weight="normal" text-decoration="none" x="0" y="120">UNREGISTERED</text><text fill="#eeeeee" stroke="none" font-family="Arial" font-size="24px" font-style="normal" font-weight="normal" text-decoration="none" x="0" y="150">UNREGISTERED</text><text fill="#eeeeee" stroke="none" font-family="Arial" font-size="24px" font-style="normal" font-weight="normal" text-decoration="none" x="0" y="180">UNREGISTERED</text><text fill="#eeeeee" stroke="none" font-family="Arial" font-size="24px" font-style="normal" font-weight="normal" text-decoration="none" x="0" y="210">UNREGISTERED</text><text fill="#eeeeee" stroke="none" font-family="Arial" font-size="24px" font-style="normal" font-weight="normal" text-decoration="none" x="0" y="240">UNREGISTERED</text><text fill="#eeeeee" stroke="none" font-family="Arial" font-size="24px" font-style="normal" font-weight="normal" text-decoration="none" x="0" y="270">UNREGISTERED</text><text fill="#eeeeee" stroke="none" font-family="Arial" font-size="24px" font-style="normal" font-weight="normal" text-decoration="none" x="0" y="300">UNREGISTERED</text><text fill="#eeeeee" stroke="none" font-family="Arial" font-size="24px" font-style="normal" font-weight="normal" text-decoration="none" x="0" y="330">UNREGISTERED</text><text fill="#eeeeee" stroke="none" font-family="Arial" font-size="24px" font-style="normal" font-weight="normal" text-decoration="none" x="0" y="360">UNREGISTERED</text><text fill="#eeeeee" stroke="none" font-family="Arial" font-size="24px" font-style="normal" font-weight="normal" text-decoration="none" x="0" y="390">UNREGISTERED</text><text fill="#eeeeee" stroke="none" font-family="Arial" font-size="24px" font-style="normal" font-weight="normal" text-decoration="none" x="200" y="0">UNREGISTERED</text><text fill="#eeeeee" stroke="none" font-family="Arial" font-size="24px" font-style="normal" font-weight="normal" text-decoration="none" x="200" y="30">UNREGISTERED</text><text fill="#eeeeee" stroke="none" font-family="Arial" font-size="24px" font-style="normal" font-weight="normal" text-decoration="none" x="200" y="60">UNREGISTERED</text><text fill="#eeeeee" stroke="none" font-family="Arial" font-size="24px" font-style="normal" font-weight="normal" text-decoration="none" x="200" y="90">UNREGISTERED</text><text fill="#eeeeee" stroke="none" font-family="Arial" font-size="24px" font-style="normal" font-weight="normal" text-decoration="none" x="200" y="120">UNREGISTERED</text><text fill="#eeeeee" stroke="none" font-family="Arial" font-size="24px" font-style="normal" font-weight="normal" text-decoration="none" x="200" y="150">UNREGISTERED</text><text fill="#eeeeee" stroke="none" font-family="Arial" font-size="24px" font-style="normal" font-weight="normal" text-decoration="none" x="200" y="180">UNREGISTERED</text><text fill="#eeeeee" stroke="none" font-family="Arial" font-size="24px" font-style="normal" font-weight="normal" text-decoration="none" x="200" y="210">UNREGISTERED</text><text fill="#eeeeee" stroke="none" font-family="Arial" font-size="24px" font-style="normal" font-weight="normal" text-decoration="none" x="200" y="240">UNREGISTERED</text><text fill="#eeeeee" stroke="none" font-family="Arial" font-size="24px" font-style="normal" font-weight="normal" text-decoration="none" x="200" y="270">UNREGISTERED</text><text fill="#eeeeee" stroke="none" font-family="Arial" font-size="24px" font-style="normal" font-weight="normal" text-decoration="none" x="200" y="300">UNREGISTERED</text><text fill="#eeeeee" stroke="none" font-family="Arial" font-size="24px" font-style="normal" font-weight="normal" text-decoration="none" x="200" y="330">UNREGISTERED</text><text fill="#eeeeee" stroke="none" font-family="Arial" font-size="24px" font-style="normal" font-weight="normal" text-decoration="none" x="200" y="360">UNREGISTERED</text><text fill="#eeeeee" stroke="none" font-family="Arial" font-size="24px" font-style="normal" font-weight="normal" text-decoration="none" x="200" y="390">UNREGISTERED</text><text fill="#eeeeee" stroke="none" font-family="Arial" font-size="24px" font-style="normal" font-weight="normal" text-decoration="none" x="400" y="0">UNREGISTERED</text><text fill="#eeeeee" stroke="none" font-family="Arial" font-size="24px" font-style="normal" font-weight="normal" text-decoration="none" x="400" y="30">UNREGISTERED</text><text fill="#eeeeee" stroke="none" font-family="Arial" font-size="24px" font-style="normal" font-weight="normal" text-decoration="none" x="400" y="60">UNREGISTERED</text><text fill="#eeeeee" stroke="none" font-family="Arial" font-size="24px" font-style="normal" font-weight="normal" text-decoration="none" x="400" y="90">UNREGISTERED</text><text fill="#eeeeee" stroke="none" font-family="Arial" font-size="24px" font-style="normal" font-weight="normal" text-decoration="none" x="400" y="120">UNREGISTERED</text><text fill="#eeeeee" stroke="none" font-family="Arial" font-size="24px" font-style="normal" font-weight="normal" text-decoration="none" x="400" y="150">UNREGISTERED</text><text fill="#eeeeee" stroke="none" font-family="Arial" font-size="24px" font-style="normal" font-weight="normal" text-decoration="none" x="400" y="180">UNREGISTERED</text><text fill="#eeeeee" stroke="none" font-family="Arial" font-size="24px" font-style="normal" font-weight="normal" text-decoration="none" x="400" y="210">UNREGISTERED</text><text fill="#eeeeee" stroke="none" font-family="Arial" font-size="24px" font-style="normal" font-weight="normal" text-decoration="none" x="400" y="240">UNREGISTERED</text><text fill="#eeeeee" stroke="none" font-family="Arial" font-size="24px" font-style="normal" font-weight="normal" text-decoration="none" x="400" y="270">UNREGISTERED</text><text fill="#eeeeee" stroke="none" font-family="Arial" font-size="24px" font-style="normal" font-weight="normal" text-decoration="none" x="400" y="300">UNREGISTERED</text><text fill="#eeeeee" stroke="none" font-family="Arial" font-size="24px" font-style="normal" font-weight="normal" text-decoration="none" x="400" y="330">UNREGISTERED</text><text fill="#eeeeee" stroke="none" font-family="Arial" font-size="24px" font-style="normal" font-weight="normal" text-decoration="none" x="400" y="360">UNREGISTERED</text><text fill="#eeeeee" stroke="none" font-family="Arial" font-size="24px" font-style="normal" font-weight="normal" text-decoration="none" x="400" y="390">UNREGISTERED</text><text fill="#eeeeee" stroke="none" font-family="Arial" font-size="24px" font-style="normal" font-weight="normal" text-decoration="none" x="600" y="0">UNREGISTERED</text><text fill="#eeeeee" stroke="none" font-family="Arial" font-size="24px" font-style="normal" font-weight="normal" text-decoration="none" x="600" y="30">UNREGISTERED</text><text fill="#eeeeee" stroke="none" font-family="Arial" font-size="24px" font-style="normal" font-weight="normal" text-decoration="none" x="600" y="60">UNREGISTERED</text><text fill="#eeeeee" stroke="none" font-family="Arial" font-size="24px" font-style="normal" font-weight="normal" text-decoration="none" x="600" y="90">UNREGISTERED</text><text fill="#eeeeee" stroke="none" font-family="Arial" font-size="24px" font-style="normal" font-weight="normal" text-decoration="none" x="600" y="120">UNREGISTERED</text><text fill="#eeeeee" stroke="none" font-family="Arial" font-size="24px" font-style="normal" font-weight="normal" text-decoration="none" x="600" y="150">UNREGISTERED</text><text fill="#eeeeee" stroke="none" font-family="Arial" font-size="24px" font-style="normal" font-weight="normal" text-decoration="none" x="600" y="180">UNREGISTERED</text><text fill="#eeeeee" stroke="none" font-family="Arial" font-size="24px" font-style="normal" font-weight="normal" text-decoration="none" x="600" y="210">UNREGISTERED</text><text fill="#eeeeee" stroke="none" font-family="Arial" font-size="24px" font-style="normal" font-weight="normal" text-decoration="none" x="600" y="240">UNREGISTERED</text><text fill="#eeeeee" stroke="none" font-family="Arial" font-size="24px" font-style="normal" font-weight="normal" text-decoration="none" x="600" y="270">UNREGISTERED</text><text fill="#eeeeee" stroke="none" font-family="Arial" font-size="24px" font-style="normal" font-weight="normal" text-decoration="none" x="600" y="300">UNREGISTERED</text><text fill="#eeeeee" stroke="none" font-family="Arial" font-size="24px" font-style="normal" font-weight="normal" text-decoration="none" x="600" y="330">UNREGISTERED</text><text fill="#eeeeee" stroke="none" font-family="Arial" font-size="24px" font-style="normal" font-weight="normal" text-decoration="none" x="600" y="360">UNREGISTERED</text><text fill="#eeeeee" stroke="none" font-family="Arial" font-size="24px" font-style="normal" font-weight="normal" text-decoration="none" x="600" y="390">UNREGISTERED</text><text fill="#eeeeee" stroke="none" font-family="Arial" font-size="24px" font-style="normal" font-weight="normal" text-decoration="none" x="800" y="0">UNREGISTERED</text><text fill="#eeeeee" stroke="none" font-family="Arial" font-size="24px" font-style="normal" font-weight="normal" text-decoration="none" x="800" y="30">UNREGISTERED</text><text fill="#eeeeee" stroke="none" font-family="Arial" font-size="24px" font-style="normal" font-weight="normal" text-decoration="none" x="800" y="60">UNREGISTERED</text><text fill="#eeeeee" stroke="none" font-family="Arial" font-size="24px" font-style="normal" font-weight="normal" text-decoration="none" x="800" y="90">UNREGISTERED</text><text fill="#eeeeee" stroke="none" font-family="Arial" font-size="24px" font-style="normal" font-weight="normal" text-decoration="none" x="800" y="120">UNREGISTERED</text><text fill="#eeeeee" stroke="none" font-family="Arial" font-size="24px" font-style="normal" font-weight="normal" text-decoration="none" x="800" y="150">UNREGISTERED</text><text fill="#eeeeee" stroke="none" font-family="Arial" font-size="24px" font-style="normal" font-weight="normal" text-decoration="none" x="800" y="180">UNREGISTERED</text><text fill="#eeeeee" stroke="none" font-family="Arial" font-size="24px" font-style="normal" font-weight="normal" text-decoration="none" x="800" y="210">UNREGISTERED</text><text fill="#eeeeee" stroke="none" font-family="Arial" font-size="24px" font-style="normal" font-weight="normal" text-decoration="none" x="800" y="240">UNREGISTERED</text><text fill="#eeeeee" stroke="none" font-family="Arial" font-size="24px" font-style="normal" font-weight="normal" text-decoration="none" x="800" y="270">UNREGISTERED</text><text fill="#eeeeee" stroke="none" font-family="Arial" font-size="24px" font-style="normal" font-weight="normal" text-decoration="none" x="800" y="300">UNREGISTERED</text><text fill="#eeeeee" stroke="none" font-family="Arial" font-size="24px" font-style="normal" font-weight="normal" text-decoration="none" x="800" y="330">UNREGISTERED</text><text fill="#eeeeee" stroke="none" font-family="Arial" font-size="24px" font-style="normal" font-weight="normal" text-decoration="none" x="800" y="360">UNREGISTERED</text><text fill="#eeeeee" stroke="none" font-family="Arial" font-size="24px" font-style="normal" font-weight="normal" text-decoration="none" x="800" y="390">UNREGISTERED</text><g transform="translate(-198,10) scale(1,1)"><path fill="#ffffff" stroke="none" d="M 249.3143172940341 47.3 C 249.3143172940341 43.82060576 252.19271901621596 41 255.74340820312506 41 C 259.29409739003415 41 262.172499112216 43.82060576 262.172499112216 47.3 C 262.172499112216 50.779394239999995 259.29409739003415 53.6 255.74340820312506 53.6 C 252.19271901621596 53.6 249.3143172940341 50.779394239999995 249.3143172940341 47.3 Z"/></g><g transform="translate(-198,10) scale(1,1)"><path fill="none" stroke="#000000" d="M 249.3143172940341 47.3 C 249.3143172940341 43.82060576 252.19271901621596 41 255.74340820312506 41 C 259.29409739003415 41 262.172499112216 43.82060576 262.172499112216 47.3 C 262.172499112216 50.779394239999995 259.29409739003415 53.6 255.74340820312506 53.6 C 252.19271901621596 53.6 249.3143172940341 50.779394239999995 249.3143172940341 47.3 Z" stroke-miterlimit="10"/></g><g transform="translate(-198,10) scale(1,1)"><path fill="none" stroke="#000000" d="M 255.74340820312503 53.6 L 255.74340820312503 66.4" stroke-miterlimit="10"/></g><g transform="translate(-198,10) scale(1,1)"><path fill="none" stroke="#000000" d="M 248.9361354758523 58.4 L 262.5506809303978 58.4" stroke-miterlimit="10"/></g><g transform="translate(-198,10) scale(1,1)"><path fill="none" stroke="#000000" d="M 255.74340820312503 66.4 L 246.28886274857956 79" stroke-miterlimit="10"/></g><g transform="translate(-198,10) scale(1,1)"><path fill="none" stroke="#000000" d="M 255.74340820312503 66.4 L 265.1979536576705 79" stroke-miterlimit="10"/></g><g transform="translate(-198,10) scale(1,1)"><g><path fill="none" stroke="none"/><text fill="#000000" stroke="none" font-family="Arial" font-size="13px" font-style="normal" font-weight="bold" text-decoration="none" x="231.895263671875" y="99.5">: Patient</text></g></g><g transform="translate(-198,10) scale(1,1)"><path fill="none" stroke="#000000" d="M 256.5 105 L 256.5 376" stroke-miterlimit="10" stroke-dasharray="3"/></g><g transform="translate(-198,10) scale(1,1)"><rect fill="#C0C0C0" stroke="none" x="431" y="47" width="177.91357421875" height="39" opacity="0.2"/></g><g transform="translate(-198,10) scale(1,1)"><rect fill="#ffffff" stroke="none" x="424" y="40" width="177.91357421875" height="39"/></g><g transform="translate(-198,10) scale(1,1)"><path fill="none" stroke="#000000" d="M 424 40 L 601.91357421875 40 L 601.91357421875 79 L 424 79 L 424 40 Z Z" stroke-miterlimit="10"/></g><g transform="translate(-198,10) scale(1,1)"><g><path fill="none" stroke="none"/><text fill="#000000" stroke="none" font-family="Arial" font-size="13px" font-style="normal" font-weight="bold" text-decoration="none" x="439.247802734375" y="59.5">RequestInsuranceControl</text></g></g><g transform="translate(-198,10) scale(1,1)"><path fill="none" stroke="#000000" d="M 513.5 80 L 513.5 399" stroke-miterlimit="10" stroke-dasharray="3"/></g><g transform="translate(-198,10) scale(1,1)"><rect fill="#C0C0C0" stroke="none" x="767" y="47" width="175.025390625" height="39" opacity="0.2"/></g><g transform="translate(-198,10) scale(1,1)"><rect fill="#ffffff" stroke="none" x="760" y="40" width="175.025390625" height="39"/></g><g transform="translate(-198,10) scale(1,1)"><path fill="none" stroke="#000000" d="M 760 40 L 935.025390625 40 L 935.025390625 79 L 760 79 L 760 40 Z Z" stroke-miterlimit="10"/></g><g transform="translate(-198,10) scale(1,1)"><g><path fill="none" stroke="none"/><text fill="#000000" stroke="none" font-family="Arial" font-size="13px" font-style="normal" font-weight="bold" text-decoration="none" x="774.524169921875" y="59.5">ManageInsuranceControl</text></g></g><g transform="translate(-198,10) scale(1,1)"><path fill="none" stroke="#000000" d="M 848.5 80 L 848.5 240" stroke-miterlimit="10" stroke-dasharray="3"/></g><g transform="translate(-198,10) scale(1,1)"><rect fill="#C0C0C0" stroke="none" x="927" y="243" width="80.41357421875" height="39" opacity="0.2"/></g><g transform="translate(-198,10) scale(1,1)"><rect fill="#ffffff" stroke="none" x="920" y="236" width="80.41357421875" height="39"/></g><g transform="translate(-198,10) scale(1,1)"><path fill="none" stroke="#000000" d="M 920 236 L 1000.41357421875 236 L 1000.41357421875 275 L 920 275 L 920 236 Z Z" stroke-miterlimit="10"/></g><g transform="translate(-198,10) scale(1,1)"><g><path fill="none" stroke="none"/><text fill="#000000" stroke="none" font-family="Arial" font-size="13px" font-style="normal" font-weight="bold" text-decoration="none" x="931.661376953125" y="255.5">Insurance</text></g></g><g transform="translate(-198,10) scale(1,1)"><path fill="none" stroke="#000000" d="M 961.5 276 L 961.5 343" stroke-miterlimit="10" stroke-dasharray="3"/></g><g transform="translate(-198,10) scale(1,1)"><g><path fill="none" stroke="none"/><text fill="#5b005b" stroke="none" font-family="Arial" font-size="13px" font-style="normal" font-weight="normal" text-decoration="none" x="261" y="18">requestInsurance Sequence Diagram</text></g></g><g transform="translate(-198,10) scale(1,1)"><path fill="none" stroke="#000000" d="M 256 129 L 506 129" stroke-miterlimit="10"/></g><g transform="translate(-198,10) scale(1,1)"><path fill="#000000" stroke="none" d="M 495.83732514237585 133.209517756016 L 506 129 L 495.83732514237585 124.79048224398402"/></g><g transform="translate(-198,10) scale(1,1)"><path fill="none" stroke="#000000" d="M 495.83732514237585 133.209517756016 L 506 129 L 495.83732514237585 124.79048224398402 L 495.83732514237585 133.209517756016" stroke-miterlimit="10"/></g><g transform="translate(-198,10) scale(1,1)"><g><path fill="none" stroke="none"/><text fill="#000000" stroke="none" font-family="Arial" font-size="13px" font-style="normal" font-weight="normal" text-decoration="none" x="268.75" y="125.5">requestInsurance(IID, insuranceName)</text></g></g><g transform="translate(-198,10) scale(1,1)"><rect fill="#ffffff" stroke="none" x="506" y="129" width="13" height="231"/></g><g transform="translate(-198,10) scale(1,1)"><path fill="none" stroke="#000000" d="M 506 129 L 519 129 L 519 360 L 506 360 L 506 129 Z Z" stroke-miterlimit="10"/></g><g transform="translate(-198,10) scale(1,1)"><path fill="none" stroke="#000000" d="M 519 152 L 841 152" stroke-miterlimit="10"/></g><g transform="translate(-198,10) scale(1,1)"><path fill="#000000" stroke="none" d="M 830.8373251423759 156.209517756016 L 841 152 L 830.8373251423758 147.790482243984"/></g><g transform="translate(-198,10) scale(1,1)"><path fill="none" stroke="#000000" d="M 830.8373251423759 156.209517756016 L 841 152 L 830.8373251423758 147.790482243984 L 830.8373251423759 156.209517756016" stroke-miterlimit="10"/></g><g transform="translate(-198,10) scale(1,1)"><g><path fill="none" stroke="none"/><text fill="#000000" stroke="none" font-family="Arial" font-size="13px" font-style="normal" font-weight="normal" text-decoration="none" x="533.5" y="148.5">submitRequestToInsuranceAPI(IID, insuranceName)</text></g></g><g transform="translate(-198,10) scale(1,1)"><rect fill="#ffffff" stroke="none" x="841" y="152" width="13" height="40"/></g><g transform="translate(-198,10) scale(1,1)"><path fill="none" stroke="#000000" d="M 841 152 L 854 152 L 854 192 L 841 192 L 841 152 Z Z" stroke-miterlimit="10"/></g><g transform="translate(-198,10) scale(1,1)"><path fill="none" stroke="#000000" d="M 848 192 L 519 192" stroke-miterlimit="10" stroke-dasharray="3"/></g><g transform="translate(-198,10) scale(1,1)"><path fill="none" stroke="#000000" d="M 529.1626748576241 187.790482243984 L 519 192 L 529.1626748576241 196.209517756016" stroke-miterlimit="10"/></g><g transform="translate(-198,10) scale(1,1)"><g><path fill="none" stroke="none"/><text fill="#000000" stroke="none" font-family="Arial" font-size="13px" font-style="normal" font-weight="normal" text-decoration="none" x="633.5" y="187.5">insurance reply</text></g></g><g transform="translate(-198,10) scale(1,1)"><path fill="none" stroke="#000000" d="M 506 216 L 256 216" stroke-miterlimit="10" stroke-dasharray="3"/></g><g transform="translate(-198,10) scale(1,1)"><path fill="none" stroke="#000000" d="M 266.16267485762415 211.790482243984 L 256 216 L 266.16267485762415 220.209517756016" stroke-miterlimit="10"/></g><g transform="translate(-198,10) scale(1,1)"><g><path fill="none" stroke="none"/><text fill="#000000" stroke="none" font-family="Arial" font-size="13px" font-style="normal" font-weight="normal" text-decoration="none" x="334.5" y="211.5">insurance reply</text></g></g><g transform="translate(-198,10) scale(1,1)"><path fill="none" stroke="#000000" d="M 519 256 L 920 256" stroke-miterlimit="10" stroke-dasharray="3"/></g><g transform="translate(-198,10) scale(1,1)"><path fill="none" stroke="#000000" d="M 909.8373251423759 260.209517756016 L 920 256 L 909.8373251423758 251.790482243984" stroke-miterlimit="10"/></g><g transform="translate(-198,10) scale(1,1)"><g><path fill="none" stroke="none"/><text fill="#000000" stroke="none" font-family="Arial" font-size="13px" font-style="normal" font-weight="normal" text-decoration="none" x="637.5" y="251.5">«create»</text></g></g></g></svg>