<svg version="1.1" xmlns="http://www.w3.org/2000/svg" xmlns:xlink="http://www.w3.org/1999/xlink" width="994.90087890625" height="556"><defs/><g><text fill="#eeeeee" stroke="none" font-family="Arial" font-size="24px" font-style="normal" font-weight="normal" text-decoration="none" x="0" y="0"></text><text fill="#eeeeee" stroke="none" font-family="Arial" font-size="24px" font-style="normal" font-weight="normal" text-decoration="none" x="0" y="30"></text><text fill="#eeeeee" stroke="none" font-family="Arial" font-size="24px" font-style="normal" font-weight="normal" text-decoration="none" x="0" y="60"></text><text fill="#eeeeee" stroke="none" font-family="Arial" font-size="24px" font-style="normal" font-weight="normal" text-decoration="none" x="0" y="90"></text><text fill="#eeeeee" stroke="none" font-family="Arial" font-size="24px" font-style="normal" font-weight="normal" text-decoration="none" x="0" y="120"></text><text fill="#eeeeee" stroke="none" font-family="Arial" font-size="24px" font-style="normal" font-weight="normal" text-decoration="none" x="0" y="150"></text><text fill="#eeeeee" stroke="none" font-family="Arial" font-size="24px" font-style="normal" font-weight="normal" text-decoration="none" x="0" y="180"></text><text fill="#eeeeee" stroke="none" font-family="Arial" font-size="24px" font-style="normal" font-weight="normal" text-decoration="none" x="0" y="210"></text><text fill="#eeeeee" stroke="none" font-family="Arial" font-size="24px" font-style="normal" font-weight="normal" text-decoration="none" x="0" y="240"></text><text fill="#eeeeee" stroke="none" font-family="Arial" font-size="24px" font-style="normal" font-weight="normal" text-decoration="none" x="0" y="270"></text><text fill="#eeeeee" stroke="none" font-family="Arial" font-size="24px" font-style="normal" font-weight="normal" text-decoration="none" x="0" y="300"></text><text fill="#eeeeee" stroke="none" font-family="Arial" font-size="24px" font-style="normal" font-weight="normal" text-decoration="none" x="0" y="330"></text><text fill="#eeeeee" stroke="none" font-family="Arial" font-size="24px" font-style="normal" font-weight="normal" text-decoration="none" x="0" y="360"></text><text fill="#eeeeee" stroke="none" font-family="Arial" font-size="24px" font-style="normal" font-weight="normal" text-decoration="none" x="0" y="390"></text><text fill="#eeeeee" stroke="none" font-family="Arial" font-size="24px" font-style="normal" font-weight="normal" text-decoration="none" x="0" y="420"></text><text fill="#eeeeee" stroke="none" font-family="Arial" font-size="24px" font-style="normal" font-weight="normal" text-decoration="none" x="0" y="450"></text><text fill="#eeeeee" stroke="none" font-family="Arial" font-size="24px" font-style="normal" font-weight="normal" text-decoration="none" x="0" y="480"></text><text fill="#eeeeee" stroke="none" font-family="Arial" font-size="24px" font-style="normal" font-weight="normal" text-decoration="none" x="0" y="510"></text><text fill="#eeeeee" stroke="none" font-family="Arial" font-size="24px" font-style="normal" font-weight="normal" text-decoration="none" x="0" y="540"></text><text fill="#eeeeee" stroke="none" font-family="Arial" font-size="24px" font-style="normal" font-weight="normal" text-decoration="none" x="200" y="0"></text><text fill="#eeeeee" stroke="none" font-family="Arial" font-size="24px" font-style="normal" font-weight="normal" text-decoration="none" x="200" y="30"></text><text fill="#eeeeee" stroke="none" font-family="Arial" font-size="24px" font-style="normal" font-weight="normal" text-decoration="none" x="200" y="60"></text><text fill="#eeeeee" stroke="none" font-family="Arial" font-size="24px" font-style="normal" font-weight="normal" text-decoration="none" x="200" y="90"></text><text fill="#eeeeee" stroke="none" font-family="Arial" font-size="24px" font-style="normal" font-weight="normal" text-decoration="none" x="200" y="120"></text><text fill="#eeeeee" stroke="none" font-family="Arial" font-size="24px" font-style="normal" font-weight="normal" text-decoration="none" x="200" y="150"></text><text fill="#eeeeee" stroke="none" font-family="Arial" font-size="24px" font-style="normal" font-weight="normal" text-decoration="none" x="200" y="180"></text><text fill="#eeeeee" stroke="none" font-family="Arial" font-size="24px" font-style="normal" font-weight="normal" text-decoration="none" x="200" y="210"></text><text fill="#eeeeee" stroke="none" font-family="Arial" font-size="24px" font-style="normal" font-weight="normal" text-decoration="none" x="200" y="240"></text><text fill="#eeeeee" stroke="none" font-family="Arial" font-size="24px" font-style="normal" font-weight="normal" text-decoration="none" x="200" y="270"></text><text fill="#eeeeee" stroke="none" font-family="Arial" font-size="24px" font-style="normal" font-weight="normal" text-decoration="none" x="200" y="300"></text><text fill="#eeeeee" stroke="none" font-family="Arial" font-size="24px" font-style="normal" font-weight="normal" text-decoration="none" x="200" y="330"></text><text fill="#eeeeee" stroke="none" font-family="Arial" font-size="24px" font-style="normal" font-weight="normal" text-decoration="none" x="200" y="360"></text><text fill="#eeeeee" stroke="none" font-family="Arial" font-size="24px" font-style="normal" font-weight="normal" text-decoration="none" x="200" y="390"></text><text fill="#eeeeee" stroke="none" font-family="Arial" font-size="24px" font-style="normal" font-weight="normal" text-decoration="none" x="200" y="420"></text><text fill="#eeeeee" stroke="none" font-family="Arial" font-size="24px" font-style="normal" font-weight="normal" text-decoration="none" x="200" y="450"></text><text fill="#eeeeee" stroke="none" font-family="Arial" font-size="24px" font-style="normal" font-weight="normal" text-decoration="none" x="200" y="480"></text><text fill="#eeeeee" stroke="none" font-family="Arial" font-size="24px" font-style="normal" font-weight="normal" text-decoration="none" x="200" y="510"></text><text fill="#eeeeee" stroke="none" font-family="Arial" font-size="24px" font-style="normal" font-weight="normal" text-decoration="none" x="200" y="540"></text><text fill="#eeeeee" stroke="none" font-family="Arial" font-size="24px" font-style="normal" font-weight="normal" text-decoration="none" x="400" y="0"></text><text fill="#eeeeee" stroke="none" font-family="Arial" font-size="24px" font-style="normal" font-weight="normal" text-decoration="none" x="400" y="30"></text><text fill="#eeeeee" stroke="none" font-family="Arial" font-size="24px" font-style="normal" font-weight="normal" text-decoration="none" x="400" y="60"></text><text fill="#eeeeee" stroke="none" font-family="Arial" font-size="24px" font-style="normal" font-weight="normal" text-decoration="none" x="400" y="90"></text><text fill="#eeeeee" stroke="none" font-family="Arial" font-size="24px" font-style="normal" font-weight="normal" text-decoration="none" x="400" y="120"></text><text fill="#eeeeee" stroke="none" font-family="Arial" font-size="24px" font-style="normal" font-weight="normal" text-decoration="none" x="400" y="150"></text><text fill="#eeeeee" stroke="none" font-family="Arial" font-size="24px" font-style="normal" font-weight="normal" text-decoration="none" x="400" y="180"></text><text fill="#eeeeee" stroke="none" font-family="Arial" font-size="24px" font-style="normal" font-weight="normal" text-decoration="none" x="400" y="210"></text><text fill="#eeeeee" stroke="none" font-family="Arial" font-size="24px" font-style="normal" font-weight="normal" text-decoration="none" x="400" y="240"></text><text fill="#eeeeee" stroke="none" font-family="Arial" font-size="24px" font-style="normal" font-weight="normal" text-decoration="none" x="400" y="270"></text><text fill="#eeeeee" stroke="none" font-family="Arial" font-size="24px" font-style="normal" font-weight="normal" text-decoration="none" x="400" y="300"></text><text fill="#eeeeee" stroke="none" font-family="Arial" font-size="24px" font-style="normal" font-weight="normal" text-decoration="none" x="400" y="330"></text><text fill="#eeeeee" stroke="none" font-family="Arial" font-size="24px" font-style="normal" font-weight="normal" text-decoration="none" x="400" y="360"></text><text fill="#eeeeee" stroke="none" font-family="Arial" font-size="24px" font-style="normal" font-weight="normal" text-decoration="none" x="400" y="390"></text><text fill="#eeeeee" stroke="none" font-family="Arial" font-size="24px" font-style="normal" font-weight="normal" text-decoration="none" x="400" y="420"></text><text fill="#eeeeee" stroke="none" font-family="Arial" font-size="24px" font-style="normal" font-weight="normal" text-decoration="none" x="400" y="450"></text><text fill="#eeeeee" stroke="none" font-family="Arial" font-size="24px" font-style="normal" font-weight="normal" text-decoration="none" x="400" y="480"></text><text fill="#eeeeee" stroke="none" font-family="Arial" font-size="24px" font-style="normal" font-weight="normal" text-decoration="none" x="400" y="510"></text><text fill="#eeeeee" stroke="none" font-family="Arial" font-size="24px" font-style="normal" font-weight="normal" text-decoration="none" x="400" y="540"></text><text fill="#eeeeee" stroke="none" font-family="Arial" font-size="24px" font-style="normal" font-weight="normal" text-decoration="none" x="600" y="0"></text><text fill="#eeeeee" stroke="none" font-family="Arial" font-size="24px" font-style="normal" font-weight="normal" text-decoration="none" x="600" y="30"></text><text fill="#eeeeee" stroke="none" font-family="Arial" font-size="24px" font-style="normal" font-weight="normal" text-decoration="none" x="600" y="60"></text><text fill="#eeeeee" stroke="none" font-family="Arial" font-size="24px" font-style="normal" font-weight="normal" text-decoration="none" x="600" y="90"></text><text fill="#eeeeee" stroke="none" font-family="Arial" font-size="24px" font-style="normal" font-weight="normal" text-decoration="none" x="600" y="120"></text><text fill="#eeeeee" stroke="none" font-family="Arial" font-size="24px" font-style="normal" font-weight="normal" text-decoration="none" x="600" y="150"></text><text fill="#eeeeee" stroke="none" font-family="Arial" font-size="24px" font-style="normal" font-weight="normal" text-decoration="none" x="600" y="180"></text><text fill="#eeeeee" stroke="none" font-family="Arial" font-size="24px" font-style="normal" font-weight="normal" text-decoration="none" x="600" y="210"></text><text fill="#eeeeee" stroke="none" font-family="Arial" font-size="24px" font-style="normal" font-weight="normal" text-decoration="none" x="600" y="240"></text><text fill="#eeeeee" stroke="none" font-family="Arial" font-size="24px" font-style="normal" font-weight="normal" text-decoration="none" x="600" y="270"></text><text fill="#eeeeee" stroke="none" font-family="Arial" font-size="24px" font-style="normal" font-weight="normal" text-decoration="none" x="600" y="300"></text><text fill="#eeeeee" stroke="none" font-family="Arial" font-size="24px" font-style="normal" font-weight="normal" text-decoration="none" x="600" y="330"></text><text fill="#eeeeee" stroke="none" font-family="Arial" font-size="24px" font-style="normal" font-weight="normal" text-decoration="none" x="600" y="360"></text><text fill="#eeeeee" stroke="none" font-family="Arial" font-size="24px" font-style="normal" font-weight="normal" text-decoration="none" x="600" y="390"></text><text fill="#eeeeee" stroke="none" font-family="Arial" font-size="24px" font-style="normal" font-weight="normal" text-decoration="none" x="600" y="420"></text><text fill="#eeeeee" stroke="none" font-family="Arial" font-size="24px" font-style="normal" font-weight="normal" text-decoration="none" x="600" y="450"></text><text fill="#eeeeee" stroke="none" font-family="Arial" font-size="24px" font-style="normal" font-weight="normal" text-decoration="none" x="600" y="480"></text><text fill="#eeeeee" stroke="none" font-family="Arial" font-size="24px" font-style="normal" font-weight="normal" text-decoration="none" x="600" y="510"></text><text fill="#eeeeee" stroke="none" font-family="Arial" font-size="24px" font-style="normal" font-weight="normal" text-decoration="none" x="600" y="540"></text><text fill="#eeeeee" stroke="none" font-family="Arial" font-size="24px" font-style="normal" font-weight="normal" text-decoration="none" x="800" y="0"></text><text fill="#eeeeee" stroke="none" font-family="Arial" font-size="24px" font-style="normal" font-weight="normal" text-decoration="none" x="800" y="30"></text><text fill="#eeeeee" stroke="none" font-family="Arial" font-size="24px" font-style="normal" font-weight="normal" text-decoration="none" x="800" y="60"></text><text fill="#eeeeee" stroke="none" font-family="Arial" font-size="24px" font-style="normal" font-weight="normal" text-decoration="none" x="800" y="90"></text><text fill="#eeeeee" stroke="none" font-family="Arial" font-size="24px" font-style="normal" font-weight="normal" text-decoration="none" x="800" y="120"></text><text fill="#eeeeee" stroke="none" font-family="Arial" font-size="24px" font-style="normal" font-weight="normal" text-decoration="none" x="800" y="150"></text><text fill="#eeeeee" stroke="none" font-family="Arial" font-size="24px" font-style="normal" font-weight="normal" text-decoration="none" x="800" y="180"></text><text fill="#eeeeee" stroke="none" font-family="Arial" font-size="24px" font-style="normal" font-weight="normal" text-decoration="none" x="800" y="210"></text><text fill="#eeeeee" stroke="none" font-family="Arial" font-size="24px" font-style="normal" font-weight="normal" text-decoration="none" x="800" y="240"></text><text fill="#eeeeee" stroke="none" font-family="Arial" font-size="24px" font-style="normal" font-weight="normal" text-decoration="none" x="800" y="270"></text><text fill="#eeeeee" stroke="none" font-family="Arial" font-size="24px" font-style="normal" font-weight="normal" text-decoration="none" x="800" y="300"></text><text fill="#eeeeee" stroke="none" font-family="Arial" font-size="24px" font-style="normal" font-weight="normal" text-decoration="none" x="800" y="330"></text><text fill="#eeeeee" stroke="none" font-family="Arial" font-size="24px" font-style="normal" font-weight="normal" text-decoration="none" x="800" y="360"></text><text fill="#eeeeee" stroke="none" font-family="Arial" font-size="24px" font-style="normal" font-weight="normal" text-decoration="none" x="800" y="390"></text><text fill="#eeeeee" stroke="none" font-family="Arial" font-size="24px" font-style="normal" font-weight="normal" text-decoration="none" x="800" y="420"></text><text fill="#eeeeee" stroke="none" font-family="Arial" font-size="24px" font-style="normal" font-weight="normal" text-decoration="none" x="800" y="450"></text><text fill="#eeeeee" stroke="none" font-family="Arial" font-size="24px" font-style="normal" font-weight="normal" text-decoration="none" x="800" y="480"></text><text fill="#eeeeee" stroke="none" font-family="Arial" font-size="24px" font-style="normal" font-weight="normal" text-decoration="none" x="800" y="510"></text><text fill="#eeeeee" stroke="none" font-family="Arial" font-size="24px" font-style="normal" font-weight="normal" text-decoration="none" x="800" y="540"></text><g transform="translate(-150,2) scale(1,1)"><path fill="#ffffff" stroke="none" d="M 205.0181747159091 47.3 C 205.0181747159091 43.82060576 207.8965764380909 41 211.447265625 41 C 214.9979548119091 41 217.87635653409092 43.82060576 217.87635653409092 47.3 C 217.87635653409092 50.779394239999995 214.9979548119091 53.6 211.447265625 53.6 C 207.8965764380909 53.6 205.0181747159091 50.779394239999995 205.0181747159091 47.3 Z"/></g><g transform="translate(-150,2) scale(1,1)"><path fill="none" stroke="#000000" d="M 205.0181747159091 47.3 C 205.0181747159091 43.82060576 207.8965764380909 41 211.447265625 41 C 214.9979548119091 41 217.87635653409092 43.82060576 217.87635653409092 47.3 C 217.87635653409092 50.779394239999995 214.9979548119091 53.6 211.447265625 53.6 C 207.8965764380909 53.6 205.0181747159091 50.779394239999995 205.0181747159091 47.3 Z" stroke-miterlimit="10"/></g><g transform="translate(-150,2) scale(1,1)"><path fill="none" stroke="#000000" d="M 211.447265625 53.6 L 211.447265625 66.4" stroke-miterlimit="10"/></g><g transform="translate(-150,2) scale(1,1)"><path fill="none" stroke="#000000" d="M 204.6399928977273 58.4 L 218.25453835227273 58.4" stroke-miterlimit="10"/></g><g transform="translate(-150,2) scale(1,1)"><path fill="none" stroke="#000000" d="M 211.447265625 66.4 L 201.99272017045456 79" stroke-miterlimit="10"/></g><g transform="translate(-150,2) scale(1,1)"><path fill="none" stroke="#000000" d="M 211.447265625 66.4 L 220.90181107954547 79" stroke-miterlimit="10"/></g><g transform="translate(-150,2) scale(1,1)"><g><path fill="none" stroke="none"/><text fill="#000000" stroke="none" font-family="Arial" font-size="13px" font-style="normal" font-weight="bold" text-decoration="none" x="168.083251953125" y="99.5">patient: Patient</text></g></g><g transform="translate(-150,2) scale(1,1)"><path fill="none" stroke="#000000" d="M 212.5 105 L 212.5 502" stroke-miterlimit="10" stroke-dasharray="3"/></g><g transform="translate(-150,2) scale(1,1)"><rect fill="#C0C0C0" stroke="none" x="319" y="47" width="142.26513671875" height="39" opacity="0.2"/></g><g transform="translate(-150,2) scale(1,1)"><rect fill="#ffffff" stroke="none" x="312" y="40" width="142.26513671875" height="39"/></g><g transform="translate(-150,2) scale(1,1)"><path fill="none" stroke="#000000" d="M 312 40 L 454.26513671875 40 L 454.26513671875 79 L 312 79 L 312 40 Z Z" stroke-miterlimit="10"/></g><g transform="translate(-150,2) scale(1,1)"><g><path fill="none" stroke="none"/><text fill="#000000" stroke="none" font-family="Arial" font-size="13px" font-style="normal" font-weight="bold" text-decoration="none" x="326.048095703125" y="59.5">RequestTestControl</text></g></g><g transform="translate(-150,2) scale(1,1)"><path fill="none" stroke="#000000" d="M 384.5 80 L 384.5 544" stroke-miterlimit="10" stroke-dasharray="3"/></g><g transform="translate(-150,2) scale(1,1)"><g><path fill="none" stroke="none"/><text fill="#59b200" stroke="none" font-family="Arial" font-size="13px" font-style="normal" font-weight="normal" text-decoration="none" x="165" y="26">selectLab Sequence Diagram</text></g></g><g transform="translate(-150,2) scale(1,1)"><rect fill="#C0C0C0" stroke="none" x="599" y="47" width="182.01416015625" height="39" opacity="0.2"/></g><g transform="translate(-150,2) scale(1,1)"><rect fill="#ffffff" stroke="none" x="592" y="40" width="182.01416015625" height="39"/></g><g transform="translate(-150,2) scale(1,1)"><path fill="none" stroke="#000000" d="M 592 40 L 774.01416015625 40 L 774.01416015625 79 L 592 79 L 592 40 Z Z" stroke-miterlimit="10"/></g><g transform="translate(-150,2) scale(1,1)"><g><path fill="none" stroke="none"/><text fill="#000000" stroke="none" font-family="Arial" font-size="13px" font-style="normal" font-weight="bold" text-decoration="none" x="606.771728515625" y="59.5">testRequest : TestRequest</text></g></g><g transform="translate(-150,2) scale(1,1)"><path fill="none" stroke="#000000" d="M 684.5 80 L 684.5 494" stroke-miterlimit="10" stroke-dasharray="3"/></g><g transform="translate(-150,2) scale(1,1)"><rect fill="#C0C0C0" stroke="none" x="1055" y="47" width="86.90087890625" height="39" opacity="0.2"/></g><g transform="translate(-150,2) scale(1,1)"><rect fill="#ffffff" stroke="none" x="1048" y="40" width="86.90087890625" height="39"/></g><g transform="translate(-150,2) scale(1,1)"><path fill="none" stroke="#000000" d="M 1048 40 L 1134.90087890625 40 L 1134.90087890625 79 L 1048 79 L 1048 40 Z Z" stroke-miterlimit="10"/></g><g transform="translate(-150,2) scale(1,1)"><g><path fill="none" stroke="none"/><text fill="#000000" stroke="none" font-family="Arial" font-size="13px" font-style="normal" font-weight="bold" text-decoration="none" x="1060.37548828125" y="59.5">Laboratory</text></g></g><g transform="translate(-150,2) scale(1,1)"><path fill="none" stroke="#000000" d="M 1092.5 80 L 1092.5 448" stroke-miterlimit="10" stroke-dasharray="3"/></g><g transform="translate(-150,2) scale(1,1)"><rect fill="#C0C0C0" stroke="none" x="863" y="47" width="153.3798828125" height="39" opacity="0.2"/></g><g transform="translate(-150,2) scale(1,1)"><rect fill="#ffffff" stroke="none" x="856" y="40" width="153.3798828125" height="39"/></g><g transform="translate(-150,2) scale(1,1)"><path fill="none" stroke="#000000" d="M 856 40 L 1009.3798828125 40 L 1009.3798828125 79 L 856 79 L 856 40 Z Z" stroke-miterlimit="10"/></g><g transform="translate(-150,2) scale(1,1)"><g><path fill="none" stroke="none"/><text fill="#000000" stroke="none" font-family="Arial" font-size="13px" font-style="normal" font-weight="bold" text-decoration="none" x="870.543212890625" y="59.5">insurance : Insurance</text></g></g><g transform="translate(-150,2) scale(1,1)"><path fill="none" stroke="#000000" d="M 933.5 80 L 933.5 490" stroke-miterlimit="10" stroke-dasharray="3"/></g><g transform="translate(-150,2) scale(1,1)"><path fill="none" stroke="#000000" d="M 212 120 L 377 120" stroke-miterlimit="10"/></g><g transform="translate(-150,2) scale(1,1)"><path fill="#000000" stroke="none" d="M 366.83732514237585 124.20951775601598 L 377 120 L 366.83732514237585 115.79048224398402"/></g><g transform="translate(-150,2) scale(1,1)"><path fill="none" stroke="#000000" d="M 366.83732514237585 124.20951775601598 L 377 120 L 366.83732514237585 115.79048224398402 L 366.83732514237585 124.20951775601598" stroke-miterlimit="10"/></g><g transform="translate(-150,2) scale(1,1)"><g><path fill="none" stroke="none"/><text fill="#000000" stroke="none" font-family="Arial" font-size="13px" font-style="normal" font-weight="normal" text-decoration="none" x="261.6708984375" y="116.5">selectLab()</text></g></g><g transform="translate(-150,2) scale(1,1)"><rect fill="#ffffff" stroke="none" x="377" y="120" width="13" height="384"/></g><g transform="translate(-150,2) scale(1,1)"><path fill="none" stroke="#000000" d="M 377 120 L 390 120 L 390 504 L 377 504 L 377 120 Z Z" stroke-miterlimit="10"/></g><g transform="translate(-150,2) scale(1,1)"><path fill="none" stroke="#000000" d="M 390 137 L 677 137" stroke-miterlimit="10"/></g><g transform="translate(-150,2) scale(1,1)"><path fill="#000000" stroke="none" d="M 666.8373251423759 141.209517756016 L 677 137 L 666.8373251423758 132.790482243984"/></g><g transform="translate(-150,2) scale(1,1)"><path fill="none" stroke="#000000" d="M 666.8373251423759 141.209517756016 L 677 137 L 666.8373251423758 132.790482243984 L 666.8373251423759 141.209517756016" stroke-miterlimit="10"/></g><g transform="translate(-150,2) scale(1,1)"><g><path fill="none" stroke="none"/><text fill="#000000" stroke="none" font-family="Arial" font-size="13px" font-style="normal" font-weight="normal" text-decoration="none" x="420.5" y="133.5">insuranceName = getInsuranceName()</text></g></g><g transform="translate(-150,2) scale(1,1)"><rect fill="#ffffff" stroke="none" x="677" y="137" width="13" height="55"/></g><g transform="translate(-150,2) scale(1,1)"><path fill="none" stroke="#000000" d="M 677 137 L 690 137 L 690 192 L 677 192 L 677 137 Z Z" stroke-miterlimit="10"/></g><g transform="translate(-150,2) scale(1,1)"><path fill="none" stroke="#000000" d="M 690 155 L 926 155" stroke-miterlimit="10"/></g><g transform="translate(-150,2) scale(1,1)"><path fill="#000000" stroke="none" d="M 915.8373251423759 159.209517756016 L 926 155 L 915.8373251423758 150.790482243984"/></g><g transform="translate(-150,2) scale(1,1)"><path fill="none" stroke="#000000" d="M 915.8373251423759 159.209517756016 L 926 155 L 915.8373251423758 150.790482243984 L 915.8373251423759 159.209517756016" stroke-miterlimit="10"/></g><g transform="translate(-150,2) scale(1,1)"><g><path fill="none" stroke="none"/><text fill="#000000" stroke="none" font-family="Arial" font-size="13px" font-style="normal" font-weight="normal" text-decoration="none" x="724.5" y="151.5">insuranceName = getName()</text></g></g><g transform="translate(-150,2) scale(1,1)"><rect fill="#ffffff" stroke="none" x="926" y="155" width="13" height="28"/></g><g transform="translate(-150,2) scale(1,1)"><path fill="none" stroke="#000000" d="M 926 155 L 939 155 L 939 183 L 926 183 L 926 155 Z Z" stroke-miterlimit="10"/></g><g transform="translate(-150,2) scale(1,1)"><path fill="none" stroke="#000000" d="M 377 184 L 212 184" stroke-miterlimit="10" stroke-dasharray="3"/></g><g transform="translate(-150,2) scale(1,1)"><path fill="none" stroke="#000000" d="M 222.16267485762415 179.790482243984 L 212 184 L 222.16267485762415 188.209517756016" stroke-miterlimit="10"/></g><g transform="translate(-150,2) scale(1,1)"><g><path fill="none" stroke="none"/><text fill="#000000" stroke="none" font-family="Arial" font-size="13px" font-style="normal" font-weight="normal" text-decoration="none" x="224.5" y="179.5">List of  Supporting Labs</text></g></g><g transform="translate(-150,2) scale(1,1)"><path fill="none" stroke="#000000" d="M 212 240 L 384 240" stroke-miterlimit="10"/></g><g transform="translate(-150,2) scale(1,1)"><path fill="#000000" stroke="none" d="M 373.83732514237585 244.209517756016 L 384 240 L 373.83732514237585 235.790482243984"/></g><g transform="translate(-150,2) scale(1,1)"><path fill="none" stroke="#000000" d="M 373.83732514237585 244.209517756016 L 384 240 L 373.83732514237585 235.790482243984 L 373.83732514237585 244.209517756016" stroke-miterlimit="10"/></g><g transform="translate(-150,2) scale(1,1)"><g><path fill="none" stroke="none"/><text fill="#000000" stroke="none" font-family="Arial" font-size="13px" font-style="normal" font-weight="normal" text-decoration="none" x="231.5" y="236.5">sendFilter(filterparams)</text></g></g><g transform="translate(-150,2) scale(1,1)"><rect fill="#ffffff" stroke="none" x="384" y="240" width="13" height="48"/></g><g transform="translate(-150,2) scale(1,1)"><path fill="none" stroke="#000000" d="M 384 240 L 397 240 L 397 288 L 384 288 L 384 240 Z Z" stroke-miterlimit="10"/></g><g transform="translate(-150,2) scale(1,1)"><path fill="none" stroke="#000000" d="M 384 280 L 212 280" stroke-miterlimit="10" stroke-dasharray="3"/></g><g transform="translate(-150,2) scale(1,1)"><path fill="none" stroke="#000000" d="M 222.16267485762415 275.790482243984 L 212 280 L 222.16267485762415 284.209517756016" stroke-miterlimit="10"/></g><g transform="translate(-150,2) scale(1,1)"><g><path fill="none" stroke="none"/><text fill="#000000" stroke="none" font-family="Arial" font-size="13px" font-style="normal" font-weight="normal" text-decoration="none" x="238.5" y="275.5">List of  Filtered Labs</text></g></g><g transform="translate(-150,2) scale(1,1)"><path fill="none" stroke="#000000" d="M 212 328 L 384 328" stroke-miterlimit="10"/></g><g transform="translate(-150,2) scale(1,1)"><path fill="#000000" stroke="none" d="M 373.83732514237585 332.209517756016 L 384 328 L 373.83732514237585 323.790482243984"/></g><g transform="translate(-150,2) scale(1,1)"><path fill="none" stroke="#000000" d="M 373.83732514237585 332.209517756016 L 384 328 L 373.83732514237585 323.790482243984 L 373.83732514237585 332.209517756016" stroke-miterlimit="10"/></g><g transform="translate(-150,2) scale(1,1)"><g><path fill="none" stroke="none"/><text fill="#000000" stroke="none" font-family="Arial" font-size="13px" font-style="normal" font-weight="normal" text-decoration="none" x="253.5" y="324.5">submitLab(LID)</text></g></g><g transform="translate(-150,2) scale(1,1)"><rect fill="#ffffff" stroke="none" x="384" y="328" width="13" height="28"/></g><g transform="translate(-150,2) scale(1,1)"><path fill="none" stroke="#000000" d="M 384 328 L 397 328 L 397 356 L 384 356 L 384 328 Z Z" stroke-miterlimit="10"/></g><g transform="translate(-150,2) scale(1,1)"><path fill="none" stroke="#000000" d="M 397 336 L 677 336" stroke-miterlimit="10"/></g><g transform="translate(-150,2) scale(1,1)"><path fill="#000000" stroke="none" d="M 666.8373251423759 340.209517756016 L 677 336 L 666.8373251423758 331.790482243984"/></g><g transform="translate(-150,2) scale(1,1)"><path fill="none" stroke="#000000" d="M 666.8373251423759 340.209517756016 L 677 336 L 666.8373251423758 331.790482243984 L 666.8373251423759 340.209517756016" stroke-miterlimit="10"/></g><g transform="translate(-150,2) scale(1,1)"><g><path fill="none" stroke="none"/><text fill="#000000" stroke="none" font-family="Arial" font-size="13px" font-style="normal" font-weight="normal" text-decoration="none" x="503.5" y="332.5">setLab(LID)</text></g></g><g transform="translate(-150,2) scale(1,1)"><rect fill="#ffffff" stroke="none" x="677" y="336" width="13" height="28"/></g><g transform="translate(-150,2) scale(1,1)"><path fill="none" stroke="#000000" d="M 677 336 L 690 336 L 690 364 L 677 364 L 677 336 Z Z" stroke-miterlimit="10"/></g><g transform="translate(-150,2) scale(1,1)"><path fill="none" stroke="#000000" d="M 390 376 L 1085 376" stroke-miterlimit="10"/></g><g transform="translate(-150,2) scale(1,1)"><path fill="#000000" stroke="none" d="M 1074.837325142376 380.209517756016 L 1085 376 L 1074.837325142376 371.790482243984"/></g><g transform="translate(-150,2) scale(1,1)"><path fill="none" stroke="#000000" d="M 1074.837325142376 380.209517756016 L 1085 376 L 1074.837325142376 371.790482243984 L 1074.837325142376 380.209517756016" stroke-miterlimit="10"/></g><g transform="translate(-150,2) scale(1,1)"><g><path fill="none" stroke="none"/><text fill="#000000" stroke="none" font-family="Arial" font-size="13px" font-style="normal" font-weight="normal" text-decoration="none" x="867.009521484375" y="372.5">supportInsurance(insuranceName)</text></g></g><g transform="translate(-150,2) scale(1,1)"><rect fill="#ffffff" stroke="none" x="1085" y="376" width="13" height="28"/></g><g transform="translate(-150,2) scale(1,1)"><path fill="none" stroke="#000000" d="M 1085 376 L 1098 376 L 1098 404 L 1085 404 L 1085 376 Z Z" stroke-miterlimit="10"/></g><g transform="translate(-150,2) scale(1,1)"><path fill="none" stroke="#000000" d="M 1092 408 L 684 408" stroke-miterlimit="10" stroke-dasharray="3"/></g><g transform="translate(-150,2) scale(1,1)"><path fill="none" stroke="#000000" d="M 694.1626748576241 403.790482243984 L 684 408 L 694.1626748576241 412.209517756016" stroke-miterlimit="10"/></g><g transform="translate(-150,2) scale(1,1)"><g><path fill="none" stroke="none"/><text fill="#000000" stroke="none" font-family="Arial" font-size="13px" font-style="normal" font-weight="normal" text-decoration="none" x="964.5" y="404.5">OK</text></g></g><g transform="translate(-150,2) scale(1,1)"><path fill="none" stroke="#000000" d="M 390 424 L 677 424" stroke-miterlimit="10"/></g><g transform="translate(-150,2) scale(1,1)"><path fill="#000000" stroke="none" d="M 666.8373251423759 428.209517756016 L 677 424 L 666.8373251423758 419.790482243984"/></g><g transform="translate(-150,2) scale(1,1)"><path fill="none" stroke="#000000" d="M 666.8373251423759 428.209517756016 L 677 424 L 666.8373251423758 419.790482243984 L 666.8373251423759 428.209517756016" stroke-miterlimit="10"/></g><g transform="translate(-150,2) scale(1,1)"><g><path fill="none" stroke="none"/><text fill="#000000" stroke="none" font-family="Arial" font-size="13px" font-style="normal" font-weight="normal" text-decoration="none" x="480.5" y="420.5">enableInsurance()</text></g></g><g transform="translate(-150,2) scale(1,1)"><rect fill="#ffffff" stroke="none" x="677" y="424" width="13" height="56"/></g><g transform="translate(-150,2) scale(1,1)"><path fill="none" stroke="#000000" d="M 677 424 L 690 424 L 690 480 L 677 480 L 677 424 Z Z" stroke-miterlimit="10"/></g><g transform="translate(-150,2) scale(1,1)"><path fill="none" stroke="#000000" d="M 690 448 L 926 448" stroke-miterlimit="10"/></g><g transform="translate(-150,2) scale(1,1)"><path fill="#000000" stroke="none" d="M 915.8373251423759 452.209517756016 L 926 448 L 915.8373251423758 443.790482243984"/></g><g transform="translate(-150,2) scale(1,1)"><path fill="none" stroke="#000000" d="M 915.8373251423759 452.209517756016 L 926 448 L 915.8373251423758 443.790482243984 L 915.8373251423759 452.209517756016" stroke-miterlimit="10"/></g><g transform="translate(-150,2) scale(1,1)"><g><path fill="none" stroke="none"/><text fill="#000000" stroke="none" font-family="Arial" font-size="13px" font-style="normal" font-weight="normal" text-decoration="none" x="784.641357421875" y="444.5">enable()</text></g></g><g transform="translate(-150,2) scale(1,1)"><rect fill="#ffffff" stroke="none" x="926" y="448" width="13" height="28"/></g><g transform="translate(-150,2) scale(1,1)"><path fill="none" stroke="#000000" d="M 926 448 L 939 448 L 939 476 L 926 476 L 926 448 Z Z" stroke-miterlimit="10"/></g></g></svg>