<svg version="1.1" xmlns="http://www.w3.org/2000/svg" xmlns:xlink="http://www.w3.org/1999/xlink" width="1000.6982421875" height="412"><defs/><g><text fill="#eeeeee" stroke="none" font-family="Arial" font-size="24px" font-style="normal" font-weight="normal" text-decoration="none" x="0" y="0"></text><text fill="#eeeeee" stroke="none" font-family="Arial" font-size="24px" font-style="normal" font-weight="normal" text-decoration="none" x="0" y="30"></text><text fill="#eeeeee" stroke="none" font-family="Arial" font-size="24px" font-style="normal" font-weight="normal" text-decoration="none" x="0" y="60"></text><text fill="#eeeeee" stroke="none" font-family="Arial" font-size="24px" font-style="normal" font-weight="normal" text-decoration="none" x="0" y="90"></text><text fill="#eeeeee" stroke="none" font-family="Arial" font-size="24px" font-style="normal" font-weight="normal" text-decoration="none" x="0" y="120"></text><text fill="#eeeeee" stroke="none" font-family="Arial" font-size="24px" font-style="normal" font-weight="normal" text-decoration="none" x="0" y="150"></text><text fill="#eeeeee" stroke="none" font-family="Arial" font-size="24px" font-style="normal" font-weight="normal" text-decoration="none" x="0" y="180"></text><text fill="#eeeeee" stroke="none" font-family="Arial" font-size="24px" font-style="normal" font-weight="normal" text-decoration="none" x="0" y="210"></text><text fill="#eeeeee" stroke="none" font-family="Arial" font-size="24px" font-style="normal" font-weight="normal" text-decoration="none" x="0" y="240"></text><text fill="#eeeeee" stroke="none" font-family="Arial" font-size="24px" font-style="normal" font-weight="normal" text-decoration="none" x="0" y="270"></text><text fill="#eeeeee" stroke="none" font-family="Arial" font-size="24px" font-style="normal" font-weight="normal" text-decoration="none" x="0" y="300"></text><text fill="#eeeeee" stroke="none" font-family="Arial" font-size="24px" font-style="normal" font-weight="normal" text-decoration="none" x="0" y="330"></text><text fill="#eeeeee" stroke="none" font-family="Arial" font-size="24px" font-style="normal" font-weight="normal" text-decoration="none" x="0" y="360"></text><text fill="#eeeeee" stroke="none" font-family="Arial" font-size="24px" font-style="normal" font-weight="normal" text-decoration="none" x="0" y="390"></text><text fill="#eeeeee" stroke="none" font-family="Arial" font-size="24px" font-style="normal" font-weight="normal" text-decoration="none" x="200" y="0"></text><text fill="#eeeeee" stroke="none" font-family="Arial" font-size="24px" font-style="normal" font-weight="normal" text-decoration="none" x="200" y="30"></text><text fill="#eeeeee" stroke="none" font-family="Arial" font-size="24px" font-style="normal" font-weight="normal" text-decoration="none" x="200" y="60"></text><text fill="#eeeeee" stroke="none" font-family="Arial" font-size="24px" font-style="normal" font-weight="normal" text-decoration="none" x="200" y="90"></text><text fill="#eeeeee" stroke="none" font-family="Arial" font-size="24px" font-style="normal" font-weight="normal" text-decoration="none" x="200" y="120"></text><text fill="#eeeeee" stroke="none" font-family="Arial" font-size="24px" font-style="normal" font-weight="normal" text-decoration="none" x="200" y="150"></text><text fill="#eeeeee" stroke="none" font-family="Arial" font-size="24px" font-style="normal" font-weight="normal" text-decoration="none" x="200" y="180"></text><text fill="#eeeeee" stroke="none" font-family="Arial" font-size="24px" font-style="normal" font-weight="normal" text-decoration="none" x="200" y="210"></text><text fill="#eeeeee" stroke="none" font-family="Arial" font-size="24px" font-style="normal" font-weight="normal" text-decoration="none" x="200" y="240"></text><text fill="#eeeeee" stroke="none" font-family="Arial" font-size="24px" font-style="normal" font-weight="normal" text-decoration="none" x="200" y="270"></text><text fill="#eeeeee" stroke="none" font-family="Arial" font-size="24px" font-style="normal" font-weight="normal" text-decoration="none" x="200" y="300"></text><text fill="#eeeeee" stroke="none" font-family="Arial" font-size="24px" font-style="normal" font-weight="normal" text-decoration="none" x="200" y="330"></text><text fill="#eeeeee" stroke="none" font-family="Arial" font-size="24px" font-style="normal" font-weight="normal" text-decoration="none" x="200" y="360"></text><text fill="#eeeeee" stroke="none" font-family="Arial" font-size="24px" font-style="normal" font-weight="normal" text-decoration="none" x="200" y="390"></text><text fill="#eeeeee" stroke="none" font-family="Arial" font-size="24px" font-style="normal" font-weight="normal" text-decoration="none" x="400" y="0"></text><text fill="#eeeeee" stroke="none" font-family="Arial" font-size="24px" font-style="normal" font-weight="normal" text-decoration="none" x="400" y="30"></text><text fill="#eeeeee" stroke="none" font-family="Arial" font-size="24px" font-style="normal" font-weight="normal" text-decoration="none" x="400" y="60"></text><text fill="#eeeeee" stroke="none" font-family="Arial" font-size="24px" font-style="normal" font-weight="normal" text-decoration="none" x="400" y="90"></text><text fill="#eeeeee" stroke="none" font-family="Arial" font-size="24px" font-style="normal" font-weight="normal" text-decoration="none" x="400" y="120"></text><text fill="#eeeeee" stroke="none" font-family="Arial" font-size="24px" font-style="normal" font-weight="normal" text-decoration="none" x="400" y="150"></text><text fill="#eeeeee" stroke="none" font-family="Arial" font-size="24px" font-style="normal" font-weight="normal" text-decoration="none" x="400" y="180"></text><text fill="#eeeeee" stroke="none" font-family="Arial" font-size="24px" font-style="normal" font-weight="normal" text-decoration="none" x="400" y="210"></text><text fill="#eeeeee" stroke="none" font-family="Arial" font-size="24px" font-style="normal" font-weight="normal" text-decoration="none" x="400" y="240"></text><text fill="#eeeeee" stroke="none" font-family="Arial" font-size="24px" font-style="normal" font-weight="normal" text-decoration="none" x="400" y="270"></text><text fill="#eeeeee" stroke="none" font-family="Arial" font-size="24px" font-style="normal" font-weight="normal" text-decoration="none" x="400" y="300"></text><text fill="#eeeeee" stroke="none" font-family="Arial" font-size="24px" font-style="normal" font-weight="normal" text-decoration="none" x="400" y="330"></text><text fill="#eeeeee" stroke="none" font-family="Arial" font-size="24px" font-style="normal" font-weight="normal" text-decoration="none" x="400" y="360"></text><text fill="#eeeeee" stroke="none" font-family="Arial" font-size="24px" font-style="normal" font-weight="normal" text-decoration="none" x="400" y="390"></text><text fill="#eeeeee" stroke="none" font-family="Arial" font-size="24px" font-style="normal" font-weight="normal" text-decoration="none" x="600" y="0"></text><text fill="#eeeeee" stroke="none" font-family="Arial" font-size="24px" font-style="normal" font-weight="normal" text-decoration="none" x="600" y="30"></text><text fill="#eeeeee" stroke="none" font-family="Arial" font-size="24px" font-style="normal" font-weight="normal" text-decoration="none" x="600" y="60"></text><text fill="#eeeeee" stroke="none" font-family="Arial" font-size="24px" font-style="normal" font-weight="normal" text-decoration="none" x="600" y="90"></text><text fill="#eeeeee" stroke="none" font-family="Arial" font-size="24px" font-style="normal" font-weight="normal" text-decoration="none" x="600" y="120"></text><text fill="#eeeeee" stroke="none" font-family="Arial" font-size="24px" font-style="normal" font-weight="normal" text-decoration="none" x="600" y="150"></text><text fill="#eeeeee" stroke="none" font-family="Arial" font-size="24px" font-style="normal" font-weight="normal" text-decoration="none" x="600" y="180"></text><text fill="#eeeeee" stroke="none" font-family="Arial" font-size="24px" font-style="normal" font-weight="normal" text-decoration="none" x="600" y="210"></text><text fill="#eeeeee" stroke="none" font-family="Arial" font-size="24px" font-style="normal" font-weight="normal" text-decoration="none" x="600" y="240"></text><text fill="#eeeeee" stroke="none" font-family="Arial" font-size="24px" font-style="normal" font-weight="normal" text-decoration="none" x="600" y="270"></text><text fill="#eeeeee" stroke="none" font-family="Arial" font-size="24px" font-style="normal" font-weight="normal" text-decoration="none" x="600" y="300"></text><text fill="#eeeeee" stroke="none" font-family="Arial" font-size="24px" font-style="normal" font-weight="normal" text-decoration="none" x="600" y="330"></text><text fill="#eeeeee" stroke="none" font-family="Arial" font-size="24px" font-style="normal" font-weight="normal" text-decoration="none" x="600" y="360"></text><text fill="#eeeeee" stroke="none" font-family="Arial" font-size="24px" font-style="normal" font-weight="normal" text-decoration="none" x="600" y="390"></text><text fill="#eeeeee" stroke="none" font-family="Arial" font-size="24px" font-style="normal" font-weight="normal" text-decoration="none" x="800" y="0"></text><text fill="#eeeeee" stroke="none" font-family="Arial" font-size="24px" font-style="normal" font-weight="normal" text-decoration="none" x="800" y="30"></text><text fill="#eeeeee" stroke="none" font-family="Arial" font-size="24px" font-style="normal" font-weight="normal" text-decoration="none" x="800" y="60"></text><text fill="#eeeeee" stroke="none" font-family="Arial" font-size="24px" font-style="normal" font-weight="normal" text-decoration="none" x="800" y="90"></text><text fill="#eeeeee" stroke="none" font-family="Arial" font-size="24px" font-style="normal" font-weight="normal" text-decoration="none" x="800" y="120"></text><text fill="#eeeeee" stroke="none" font-family="Arial" font-size="24px" font-style="normal" font-weight="normal" text-decoration="none" x="800" y="150"></text><text fill="#eeeeee" stroke="none" font-family="Arial" font-size="24px" font-style="normal" font-weight="normal" text-decoration="none" x="800" y="180"></text><text fill="#eeeeee" stroke="none" font-family="Arial" font-size="24px" font-style="normal" font-weight="normal" text-decoration="none" x="800" y="210"></text><text fill="#eeeeee" stroke="none" font-family="Arial" font-size="24px" font-style="normal" font-weight="normal" text-decoration="none" x="800" y="240"></text><text fill="#eeeeee" stroke="none" font-family="Arial" font-size="24px" font-style="normal" font-weight="normal" text-decoration="none" x="800" y="270"></text><text fill="#eeeeee" stroke="none" font-family="Arial" font-size="24px" font-style="normal" font-weight="normal" text-decoration="none" x="800" y="300"></text><text fill="#eeeeee" stroke="none" font-family="Arial" font-size="24px" font-style="normal" font-weight="normal" text-decoration="none" x="800" y="330"></text><text fill="#eeeeee" stroke="none" font-family="Arial" font-size="24px" font-style="normal" font-weight="normal" text-decoration="none" x="800" y="360"></text><text fill="#eeeeee" stroke="none" font-family="Arial" font-size="24px" font-style="normal" font-weight="normal" text-decoration="none" x="800" y="390"></text><text fill="#eeeeee" stroke="none" font-family="Arial" font-size="24px" font-style="normal" font-weight="normal" text-decoration="none" x="1000" y="0"></text><text fill="#eeeeee" stroke="none" font-family="Arial" font-size="24px" font-style="normal" font-weight="normal" text-decoration="none" x="1000" y="30"></text><text fill="#eeeeee" stroke="none" font-family="Arial" font-size="24px" font-style="normal" font-weight="normal" text-decoration="none" x="1000" y="60"></text><text fill="#eeeeee" stroke="none" font-family="Arial" font-size="24px" font-style="normal" font-weight="normal" text-decoration="none" x="1000" y="90"></text><text fill="#eeeeee" stroke="none" font-family="Arial" font-size="24px" font-style="normal" font-weight="normal" text-decoration="none" x="1000" y="120"></text><text fill="#eeeeee" stroke="none" font-family="Arial" font-size="24px" font-style="normal" font-weight="normal" text-decoration="none" x="1000" y="150"></text><text fill="#eeeeee" stroke="none" font-family="Arial" font-size="24px" font-style="normal" font-weight="normal" text-decoration="none" x="1000" y="180"></text><text fill="#eeeeee" stroke="none" font-family="Arial" font-size="24px" font-style="normal" font-weight="normal" text-decoration="none" x="1000" y="210"></text><text fill="#eeeeee" stroke="none" font-family="Arial" font-size="24px" font-style="normal" font-weight="normal" text-decoration="none" x="1000" y="240"></text><text fill="#eeeeee" stroke="none" font-family="Arial" font-size="24px" font-style="normal" font-weight="normal" text-decoration="none" x="1000" y="270"></text><text fill="#eeeeee" stroke="none" font-family="Arial" font-size="24px" font-style="normal" font-weight="normal" text-decoration="none" x="1000" y="300"></text><text fill="#eeeeee" stroke="none" font-family="Arial" font-size="24px" font-style="normal" font-weight="normal" text-decoration="none" x="1000" y="330"></text><text fill="#eeeeee" stroke="none" font-family="Arial" font-size="24px" font-style="normal" font-weight="normal" text-decoration="none" x="1000" y="360"></text><text fill="#eeeeee" stroke="none" font-family="Arial" font-size="24px" font-style="normal" font-weight="normal" text-decoration="none" x="1000" y="390"></text><g transform="translate(-182,2) scale(1,1)"><path fill="#ffffff" stroke="none" d="M 245.0181747159091 47.3 C 245.0181747159091 43.82060576 247.89657643809096 41 251.44726562500006 41 C 254.99795481190915 41 257.876356534091 43.82060576 257.876356534091 47.3 C 257.876356534091 50.779394239999995 254.99795481190915 53.6 251.44726562500006 53.6 C 247.89657643809096 53.6 245.0181747159091 50.779394239999995 245.0181747159091 47.3 Z"/></g><g transform="translate(-182,2) scale(1,1)"><path fill="none" stroke="#000000" d="M 245.0181747159091 47.3 C 245.0181747159091 43.82060576 247.89657643809096 41 251.44726562500006 41 C 254.99795481190915 41 257.876356534091 43.82060576 257.876356534091 47.3 C 257.876356534091 50.779394239999995 254.99795481190915 53.6 251.44726562500006 53.6 C 247.89657643809096 53.6 245.0181747159091 50.779394239999995 245.0181747159091 47.3 Z" stroke-miterlimit="10"/></g><g transform="translate(-182,2) scale(1,1)"><path fill="none" stroke="#000000" d="M 251.44726562500003 53.6 L 251.44726562500003 66.4" stroke-miterlimit="10"/></g><g transform="translate(-182,2) scale(1,1)"><path fill="none" stroke="#000000" d="M 244.6399928977273 58.4 L 258.2545383522728 58.4" stroke-miterlimit="10"/></g><g transform="translate(-182,2) scale(1,1)"><path fill="none" stroke="#000000" d="M 251.44726562500003 66.4 L 241.99272017045456 79" stroke-miterlimit="10"/></g><g transform="translate(-182,2) scale(1,1)"><path fill="none" stroke="#000000" d="M 251.44726562500003 66.4 L 260.9018110795455 79" stroke-miterlimit="10"/></g><g transform="translate(-182,2) scale(1,1)"><g><path fill="none" stroke="none"/><text fill="#000000" stroke="none" font-family="Arial" font-size="13px" font-style="normal" font-weight="bold" text-decoration="none" x="208.083251953125" y="99.5">patient: Patient</text></g></g><g transform="translate(-182,2) scale(1,1)"><path fill="none" stroke="#000000" d="M 252.5 105 L 252.5 392" stroke-miterlimit="10" stroke-dasharray="3"/></g><g transform="translate(-182,2) scale(1,1)"><rect fill="#C0C0C0" stroke="none" x="367" y="47" width="158.17236328125" height="39" opacity="0.2"/></g><g transform="translate(-182,2) scale(1,1)"><rect fill="#ffffff" stroke="none" x="360" y="40" width="158.17236328125" height="39"/></g><g transform="translate(-182,2) scale(1,1)"><path fill="none" stroke="#000000" d="M 360 40 L 518.17236328125 40 L 518.17236328125 79 L 360 79 L 360 40 Z Z" stroke-miterlimit="10"/></g><g transform="translate(-182,2) scale(1,1)"><g><path fill="none" stroke="none"/><text fill="#000000" stroke="none" font-family="Arial" font-size="13px" font-style="normal" font-weight="bold" text-decoration="none" x="382.001708984375" y="59.5">RequestTestControl</text></g></g><g transform="translate(-182,2) scale(1,1)"><path fill="none" stroke="#000000" d="M 440.5 80 L 440.5 400" stroke-miterlimit="10" stroke-dasharray="3"/></g><g transform="translate(-182,2) scale(1,1)"><rect fill="#C0C0C0" stroke="none" x="991" y="307" width="188.6982421875" height="39" opacity="0.2"/></g><g transform="translate(-182,2) scale(1,1)"><rect fill="#ffffff" stroke="none" x="984" y="300" width="188.6982421875" height="39"/></g><g transform="translate(-182,2) scale(1,1)"><path fill="none" stroke="#000000" d="M 984 300 L 1172.6982421875 300 L 1172.6982421875 339 L 984 339 L 984 300 Z Z" stroke-miterlimit="10"/></g><g transform="translate(-182,2) scale(1,1)"><g><path fill="none" stroke="none"/><text fill="#000000" stroke="none" font-family="Arial" font-size="13px" font-style="normal" font-weight="bold" text-decoration="none" x="1000.66015625" y="319.5">appointment : Appointment</text></g></g><g transform="translate(-182,2) scale(1,1)"><path fill="none" stroke="#000000" d="M 1079.5 340 L 1079.5 392" stroke-miterlimit="10" stroke-dasharray="3"/></g><g transform="translate(-182,2) scale(1,1)"><g><path fill="none" stroke="none"/><text fill="#00b799" stroke="none" font-family="Arial" font-size="13px" font-style="normal" font-weight="normal" text-decoration="none" x="197" y="26">selectTimeSlot Sequence Diagram</text></g></g><g transform="translate(-182,2) scale(1,1)"><rect fill="#C0C0C0" stroke="none" x="607" y="47" width="182.01416015625" height="39" opacity="0.2"/></g><g transform="translate(-182,2) scale(1,1)"><rect fill="#ffffff" stroke="none" x="600" y="40" width="182.01416015625" height="39"/></g><g transform="translate(-182,2) scale(1,1)"><path fill="none" stroke="#000000" d="M 600 40 L 782.01416015625 40 L 782.01416015625 79 L 600 79 L 600 40 Z Z" stroke-miterlimit="10"/></g><g transform="translate(-182,2) scale(1,1)"><g><path fill="none" stroke="none"/><text fill="#000000" stroke="none" font-family="Arial" font-size="13px" font-style="normal" font-weight="bold" text-decoration="none" x="614.771728515625" y="59.5">testRequest : TestRequest</text></g></g><g transform="translate(-182,2) scale(1,1)"><path fill="none" stroke="#000000" d="M 692.5 80 L 692.5 400" stroke-miterlimit="10" stroke-dasharray="3"/></g><g transform="translate(-182,2) scale(1,1)"><rect fill="#C0C0C0" stroke="none" x="831" y="47" width="162.025390625" height="39" opacity="0.2"/></g><g transform="translate(-182,2) scale(1,1)"><rect fill="#ffffff" stroke="none" x="824" y="40" width="162.025390625" height="39"/></g><g transform="translate(-182,2) scale(1,1)"><path fill="none" stroke="#000000" d="M 824 40 L 986.025390625 40 L 986.025390625 79 L 824 79 L 824 40 Z Z" stroke-miterlimit="10"/></g><g transform="translate(-182,2) scale(1,1)"><g><path fill="none" stroke="none"/><text fill="#000000" stroke="none" font-family="Arial" font-size="13px" font-style="normal" font-weight="bold" text-decoration="none" x="839.615966796875" y="59.5">laboratory : Laboratory</text></g></g><g transform="translate(-182,2) scale(1,1)"><path fill="none" stroke="#000000" d="M 906.5 80 L 906.5 323" stroke-miterlimit="10" stroke-dasharray="3"/></g><g transform="translate(-182,2) scale(1,1)"><path fill="none" stroke="#000000" d="M 252 120 L 433 120" stroke-miterlimit="10"/></g><g transform="translate(-182,2) scale(1,1)"><path fill="#000000" stroke="none" d="M 422.83732514237585 124.20951775601598 L 433 120 L 422.83732514237585 115.79048224398402"/></g><g transform="translate(-182,2) scale(1,1)"><path fill="none" stroke="#000000" d="M 422.83732514237585 124.20951775601598 L 433 120 L 422.83732514237585 115.79048224398402 L 422.83732514237585 124.20951775601598" stroke-miterlimit="10"/></g><g transform="translate(-182,2) scale(1,1)"><g><path fill="none" stroke="none"/><text fill="#000000" stroke="none" font-family="Arial" font-size="13px" font-style="normal" font-weight="normal" text-decoration="none" x="295.5" y="116.5">selectTimeSlot()</text></g></g><g transform="translate(-182,2) scale(1,1)"><rect fill="#ffffff" stroke="none" x="433" y="120" width="13" height="224"/></g><g transform="translate(-182,2) scale(1,1)"><path fill="none" stroke="#000000" d="M 433 120 L 446 120 L 446 344 L 433 344 L 433 120 Z Z" stroke-miterlimit="10"/></g><g transform="translate(-182,2) scale(1,1)"><path fill="none" stroke="#000000" d="M 446 136 L 685 136" stroke-miterlimit="10"/></g><g transform="translate(-182,2) scale(1,1)"><path fill="#000000" stroke="none" d="M 674.8373251423759 140.209517756016 L 685 136 L 674.8373251423758 131.790482243984"/></g><g transform="translate(-182,2) scale(1,1)"><path fill="none" stroke="#000000" d="M 674.8373251423759 140.209517756016 L 685 136 L 674.8373251423758 131.790482243984 L 674.8373251423759 140.209517756016" stroke-miterlimit="10"/></g><g transform="translate(-182,2) scale(1,1)"><g><path fill="none" stroke="none"/><text fill="#000000" stroke="none" font-family="Arial" font-size="13px" font-style="normal" font-weight="normal" text-decoration="none" x="516.5" y="132.5">LID = getLabID()</text></g></g><g transform="translate(-182,2) scale(1,1)"><rect fill="#ffffff" stroke="none" x="685" y="136" width="13" height="28"/></g><g transform="translate(-182,2) scale(1,1)"><path fill="none" stroke="#000000" d="M 685 136 L 698 136 L 698 164 L 685 164 L 685 136 Z Z" stroke-miterlimit="10"/></g><g transform="translate(-182,2) scale(1,1)"><path fill="none" stroke="#000000" d="M 446 176 L 899 176" stroke-miterlimit="10"/></g><g transform="translate(-182,2) scale(1,1)"><path fill="#000000" stroke="none" d="M 888.8373251423759 180.209517756016 L 899 176 L 888.8373251423758 171.790482243984"/></g><g transform="translate(-182,2) scale(1,1)"><path fill="none" stroke="#000000" d="M 888.8373251423759 180.209517756016 L 899 176 L 888.8373251423758 171.790482243984 L 888.8373251423759 180.209517756016" stroke-miterlimit="10"/></g><g transform="translate(-182,2) scale(1,1)"><g><path fill="none" stroke="none"/><text fill="#000000" stroke="none" font-family="Arial" font-size="13px" font-style="normal" font-weight="normal" text-decoration="none" x="735.5" y="172.5">getTimeSlots()</text></g></g><g transform="translate(-182,2) scale(1,1)"><rect fill="#ffffff" stroke="none" x="899" y="176" width="13" height="40"/></g><g transform="translate(-182,2) scale(1,1)"><path fill="none" stroke="#000000" d="M 899 176 L 912 176 L 912 216 L 899 216 L 899 176 Z Z" stroke-miterlimit="10"/></g><g transform="translate(-182,2) scale(1,1)"><path fill="none" stroke="#000000" d="M 906 216 L 446 216" stroke-miterlimit="10" stroke-dasharray="3"/></g><g transform="translate(-182,2) scale(1,1)"><path fill="none" stroke="#000000" d="M 456.16267485762415 211.790482243984 L 446 216 L 456.16267485762415 220.209517756016" stroke-miterlimit="10"/></g><g transform="translate(-182,2) scale(1,1)"><g><path fill="none" stroke="none"/><text fill="#000000" stroke="none" font-family="Arial" font-size="13px" font-style="normal" font-weight="normal" text-decoration="none" x="713.5" y="212.5">List of Time Slots</text></g></g><g transform="translate(-182,2) scale(1,1)"><path fill="none" stroke="#000000" d="M 433 232 L 252 232" stroke-miterlimit="10" stroke-dasharray="3"/></g><g transform="translate(-182,2) scale(1,1)"><path fill="none" stroke="#000000" d="M 262.16267485762415 227.790482243984 L 252 232 L 262.16267485762415 236.209517756016" stroke-miterlimit="10"/></g><g transform="translate(-182,2) scale(1,1)"><g><path fill="none" stroke="none"/><text fill="#000000" stroke="none" font-family="Arial" font-size="13px" font-style="normal" font-weight="normal" text-decoration="none" x="291.5" y="225.5">List of Time Slots</text></g></g><g transform="translate(-182,2) scale(1,1)"><path fill="none" stroke="#000000" d="M 252 272 L 440 272" stroke-miterlimit="10"/></g><g transform="translate(-182,2) scale(1,1)"><path fill="#000000" stroke="none" d="M 429.83732514237585 276.209517756016 L 440 272 L 429.83732514237585 267.790482243984"/></g><g transform="translate(-182,2) scale(1,1)"><path fill="none" stroke="#000000" d="M 429.83732514237585 276.209517756016 L 440 272 L 429.83732514237585 267.790482243984 L 429.83732514237585 276.209517756016" stroke-miterlimit="10"/></g><g transform="translate(-182,2) scale(1,1)"><g><path fill="none" stroke="none"/><text fill="#000000" stroke="none" font-family="Arial" font-size="13px" font-style="normal" font-weight="normal" text-decoration="none" x="268.5" y="268.5">submitTimeSlot(date, time)</text></g></g><g transform="translate(-182,2) scale(1,1)"><rect fill="#ffffff" stroke="none" x="440" y="272" width="13" height="28"/></g><g transform="translate(-182,2) scale(1,1)"><path fill="none" stroke="#000000" d="M 440 272 L 453 272 L 453 300 L 440 300 L 440 272 Z Z" stroke-miterlimit="10"/></g><g transform="translate(-182,2) scale(1,1)"><path fill="none" stroke="#000000" d="M 453 296 L 685 296" stroke-miterlimit="10"/></g><g transform="translate(-182,2) scale(1,1)"><path fill="#000000" stroke="none" d="M 674.8373251423759 300.209517756016 L 685 296 L 674.8373251423758 291.790482243984"/></g><g transform="translate(-182,2) scale(1,1)"><path fill="none" stroke="#000000" d="M 674.8373251423759 300.209517756016 L 685 296 L 674.8373251423758 291.790482243984 L 674.8373251423759 300.209517756016" stroke-miterlimit="10"/></g><g transform="translate(-182,2) scale(1,1)"><g><path fill="none" stroke="none"/><text fill="#000000" stroke="none" font-family="Arial" font-size="13px" font-style="normal" font-weight="normal" text-decoration="none" x="484.114990234375" y="292.5">makeAppointment(date, time)</text></g></g><g transform="translate(-182,2) scale(1,1)"><rect fill="#ffffff" stroke="none" x="685" y="296" width="13" height="28"/></g><g transform="translate(-182,2) scale(1,1)"><path fill="none" stroke="#000000" d="M 685 296 L 698 296 L 698 324 L 685 324 L 685 296 Z Z" stroke-miterlimit="10"/></g><g transform="translate(-182,2) scale(1,1)"><path fill="none" stroke="#000000" d="M 698 320 L 984 320" stroke-miterlimit="10" stroke-dasharray="3"/></g><g transform="translate(-182,2) scale(1,1)"><path fill="none" stroke="#000000" d="M 973.8373251423759 324.209517756016 L 984 320 L 973.8373251423758 315.790482243984" stroke-miterlimit="10"/></g><g transform="translate(-182,2) scale(1,1)"><g><path fill="none" stroke="none"/><text fill="#000000" stroke="none" font-family="Arial" font-size="13px" font-style="normal" font-weight="normal" text-decoration="none" x="918.5" y="316.5">«create»</text></g></g></g></svg>