<svg version="1.1" xmlns="http://www.w3.org/2000/svg" xmlns:xlink="http://www.w3.org/1999/xlink" width="839.15185546875" height="412"><defs/><g><text fill="#eeeeee" stroke="none" font-family="Arial" font-size="24px" font-style="normal" font-weight="normal" text-decoration="none" x="0" y="0">UNREGISTERED</text><text fill="#eeeeee" stroke="none" font-family="Arial" font-size="24px" font-style="normal" font-weight="normal" text-decoration="none" x="0" y="30">UNREGISTERED</text><text fill="#eeeeee" stroke="none" font-family="Arial" font-size="24px" font-style="normal" font-weight="normal" text-decoration="none" x="0" y="60">UNREGISTERED</text><text fill="#eeeeee" stroke="none" font-family="Arial" font-size="24px" font-style="normal" font-weight="normal" text-decoration="none" x="0" y="90">UNREGISTERED</text><text fill="#eeeeee" stroke="none" font-family="Arial" font-size="24px" font-style="normal" font-weight="normal" text-decoration="none" x="0" y="120">UNREGISTERED</text><text fill="#eeeeee" stroke="none" font-family="Arial" font-size="24px" font-style="normal" font-weight="normal" text-decoration="none" x="0" y="150">UNREGISTERED</text><text fill="#eeeeee" stroke="none" font-family="Arial" font-size="24px" font-style="normal" font-weight="normal" text-decoration="none" x="0" y="180">UNREGISTERED</text><text fill="#eeeeee" stroke="none" font-family="Arial" font-size="24px" font-style="normal" font-weight="normal" text-decoration="none" x="0" y="210">UNREGISTERED</text><text fill="#eeeeee" stroke="none" font-family="Arial" font-size="24px" font-style="normal" font-weight="normal" text-decoration="none" x="0" y="240">UNREGISTERED</text><text fill="#eeeeee" stroke="none" font-family="Arial" font-size="24px" font-style="normal" font-weight="normal" text-decoration="none" x="0" y="270">UNREGISTERED</text><text fill="#eeeeee" stroke="none" font-family="Arial" font-size="24px" font-style="normal" font-weight="normal" text-decoration="none" x="0" y="300">UNREGISTERED</text><text fill="#eeeeee" stroke="none" font-family="Arial" font-size="24px" font-style="normal" font-weight="normal" text-decoration="none" x="0" y="330">UNREGISTERED</text><text fill="#eeeeee" stroke="none" font-family="Arial" font-size="24px" font-style="normal" font-weight="normal" text-decoration="none" x="0" y="360">UNREGISTERED</text><text fill="#eeeeee" stroke="none" font-family="Arial" font-size="24px" font-style="normal" font-weight="normal" text-decoration="none" x="0" y="390">UNREGISTERED</text><text fill="#eeeeee" stroke="none" font-family="Arial" font-size="24px" font-style="normal" font-weight="normal" text-decoration="none" x="200" y="0">UNREGISTERED</text><text fill="#eeeeee" stroke="none" font-family="Arial" font-size="24px" font-style="normal" font-weight="normal" text-decoration="none" x="200" y="30">UNREGISTERED</text><text fill="#eeeeee" stroke="none" font-family="Arial" font-size="24px" font-style="normal" font-weight="normal" text-decoration="none" x="200" y="60">UNREGISTERED</text><text fill="#eeeeee" stroke="none" font-family="Arial" font-size="24px" font-style="normal" font-weight="normal" text-decoration="none" x="200" y="90">UNREGISTERED</text><text fill="#eeeeee" stroke="none" font-family="Arial" font-size="24px" font-style="normal" font-weight="normal" text-decoration="none" x="200" y="120">UNREGISTERED</text><text fill="#eeeeee" stroke="none" font-family="Arial" font-size="24px" font-style="normal" font-weight="normal" text-decoration="none" x="200" y="150">UNREGISTERED</text><text fill="#eeeeee" stroke="none" font-family="Arial" font-size="24px" font-style="normal" font-weight="normal" text-decoration="none" x="200" y="180">UNREGISTERED</text><text fill="#eeeeee" stroke="none" font-family="Arial" font-size="24px" font-style="normal" font-weight="normal" text-decoration="none" x="200" y="210">UNREGISTERED</text><text fill="#eeeeee" stroke="none" font-family="Arial" font-size="24px" font-style="normal" font-weight="normal" text-decoration="none" x="200" y="240">UNREGISTERED</text><text fill="#eeeeee" stroke="none" font-family="Arial" font-size="24px" font-style="normal" font-weight="normal" text-decoration="none" x="200" y="270">UNREGISTERED</text><text fill="#eeeeee" stroke="none" font-family="Arial" font-size="24px" font-style="normal" font-weight="normal" text-decoration="none" x="200" y="300">UNREGISTERED</text><text fill="#eeeeee" stroke="none" font-family="Arial" font-size="24px" font-style="normal" font-weight="normal" text-decoration="none" x="200" y="330">UNREGISTERED</text><text fill="#eeeeee" stroke="none" font-family="Arial" font-size="24px" font-style="normal" font-weight="normal" text-decoration="none" x="200" y="360">UNREGISTERED</text><text fill="#eeeeee" stroke="none" font-family="Arial" font-size="24px" font-style="normal" font-weight="normal" text-decoration="none" x="200" y="390">UNREGISTERED</text><text fill="#eeeeee" stroke="none" font-family="Arial" font-size="24px" font-style="normal" font-weight="normal" text-decoration="none" x="400" y="0">UNREGISTERED</text><text fill="#eeeeee" stroke="none" font-family="Arial" font-size="24px" font-style="normal" font-weight="normal" text-decoration="none" x="400" y="30">UNREGISTERED</text><text fill="#eeeeee" stroke="none" font-family="Arial" font-size="24px" font-style="normal" font-weight="normal" text-decoration="none" x="400" y="60">UNREGISTERED</text><text fill="#eeeeee" stroke="none" font-family="Arial" font-size="24px" font-style="normal" font-weight="normal" text-decoration="none" x="400" y="90">UNREGISTERED</text><text fill="#eeeeee" stroke="none" font-family="Arial" font-size="24px" font-style="normal" font-weight="normal" text-decoration="none" x="400" y="120">UNREGISTERED</text><text fill="#eeeeee" stroke="none" font-family="Arial" font-size="24px" font-style="normal" font-weight="normal" text-decoration="none" x="400" y="150">UNREGISTERED</text><text fill="#eeeeee" stroke="none" font-family="Arial" font-size="24px" font-style="normal" font-weight="normal" text-decoration="none" x="400" y="180">UNREGISTERED</text><text fill="#eeeeee" stroke="none" font-family="Arial" font-size="24px" font-style="normal" font-weight="normal" text-decoration="none" x="400" y="210">UNREGISTERED</text><text fill="#eeeeee" stroke="none" font-family="Arial" font-size="24px" font-style="normal" font-weight="normal" text-decoration="none" x="400" y="240">UNREGISTERED</text><text fill="#eeeeee" stroke="none" font-family="Arial" font-size="24px" font-style="normal" font-weight="normal" text-decoration="none" x="400" y="270">UNREGISTERED</text><text fill="#eeeeee" stroke="none" font-family="Arial" font-size="24px" font-style="normal" font-weight="normal" text-decoration="none" x="400" y="300">UNREGISTERED</text><text fill="#eeeeee" stroke="none" font-family="Arial" font-size="24px" font-style="normal" font-weight="normal" text-decoration="none" x="400" y="330">UNREGISTERED</text><text fill="#eeeeee" stroke="none" font-family="Arial" font-size="24px" font-style="normal" font-weight="normal" text-decoration="none" x="400" y="360">UNREGISTERED</text><text fill="#eeeeee" stroke="none" font-family="Arial" font-size="24px" font-style="normal" font-weight="normal" text-decoration="none" x="400" y="390">UNREGISTERED</text><text fill="#eeeeee" stroke="none" font-family="Arial" font-size="24px" font-style="normal" font-weight="normal" text-decoration="none" x="600" y="0">UNREGISTERED</text><text fill="#eeeeee" stroke="none" font-family="Arial" font-size="24px" font-style="normal" font-weight="normal" text-decoration="none" x="600" y="30">UNREGISTERED</text><text fill="#eeeeee" stroke="none" font-family="Arial" font-size="24px" font-style="normal" font-weight="normal" text-decoration="none" x="600" y="60">UNREGISTERED</text><text fill="#eeeeee" stroke="none" font-family="Arial" font-size="24px" font-style="normal" font-weight="normal" text-decoration="none" x="600" y="90">UNREGISTERED</text><text fill="#eeeeee" stroke="none" font-family="Arial" font-size="24px" font-style="normal" font-weight="normal" text-decoration="none" x="600" y="120">UNREGISTERED</text><text fill="#eeeeee" stroke="none" font-family="Arial" font-size="24px" font-style="normal" font-weight="normal" text-decoration="none" x="600" y="150">UNREGISTERED</text><text fill="#eeeeee" stroke="none" font-family="Arial" font-size="24px" font-style="normal" font-weight="normal" text-decoration="none" x="600" y="180">UNREGISTERED</text><text fill="#eeeeee" stroke="none" font-family="Arial" font-size="24px" font-style="normal" font-weight="normal" text-decoration="none" x="600" y="210">UNREGISTERED</text><text fill="#eeeeee" stroke="none" font-family="Arial" font-size="24px" font-style="normal" font-weight="normal" text-decoration="none" x="600" y="240">UNREGISTERED</text><text fill="#eeeeee" stroke="none" font-family="Arial" font-size="24px" font-style="normal" font-weight="normal" text-decoration="none" x="600" y="270">UNREGISTERED</text><text fill="#eeeeee" stroke="none" font-family="Arial" font-size="24px" font-style="normal" font-weight="normal" text-decoration="none" x="600" y="300">UNREGISTERED</text><text fill="#eeeeee" stroke="none" font-family="Arial" font-size="24px" font-style="normal" font-weight="normal" text-decoration="none" x="600" y="330">UNREGISTERED</text><text fill="#eeeeee" stroke="none" font-family="Arial" font-size="24px" font-style="normal" font-weight="normal" text-decoration="none" x="600" y="360">UNREGISTERED</text><text fill="#eeeeee" stroke="none" font-family="Arial" font-size="24px" font-style="normal" font-weight="normal" text-decoration="none" x="600" y="390">UNREGISTERED</text><text fill="#eeeeee" stroke="none" font-family="Arial" font-size="24px" font-style="normal" font-weight="normal" text-decoration="none" x="800" y="0">UNREGISTERED</text><text fill="#eeeeee" stroke="none" font-family="Arial" font-size="24px" font-style="normal" font-weight="normal" text-decoration="none" x="800" y="30">UNREGISTERED</text><text fill="#eeeeee" stroke="none" font-family="Arial" font-size="24px" font-style="normal" font-weight="normal" text-decoration="none" x="800" y="60">UNREGISTERED</text><text fill="#eeeeee" stroke="none" font-family="Arial" font-size="24px" font-style="normal" font-weight="normal" text-decoration="none" x="800" y="90">UNREGISTERED</text><text fill="#eeeeee" stroke="none" font-family="Arial" font-size="24px" font-style="normal" font-weight="normal" text-decoration="none" x="800" y="120">UNREGISTERED</text><text fill="#eeeeee" stroke="none" font-family="Arial" font-size="24px" font-style="normal" font-weight="normal" text-decoration="none" x="800" y="150">UNREGISTERED</text><text fill="#eeeeee" stroke="none" font-family="Arial" font-size="24px" font-style="normal" font-weight="normal" text-decoration="none" x="800" y="180">UNREGISTERED</text><text fill="#eeeeee" stroke="none" font-family="Arial" font-size="24px" font-style="normal" font-weight="normal" text-decoration="none" x="800" y="210">UNREGISTERED</text><text fill="#eeeeee" stroke="none" font-family="Arial" font-size="24px" font-style="normal" font-weight="normal" text-decoration="none" x="800" y="240">UNREGISTERED</text><text fill="#eeeeee" stroke="none" font-family="Arial" font-size="24px" font-style="normal" font-weight="normal" text-decoration="none" x="800" y="270">UNREGISTERED</text><text fill="#eeeeee" stroke="none" font-family="Arial" font-size="24px" font-style="normal" font-weight="normal" text-decoration="none" x="800" y="300">UNREGISTERED</text><text fill="#eeeeee" stroke="none" font-family="Arial" font-size="24px" font-style="normal" font-weight="normal" text-decoration="none" x="800" y="330">UNREGISTERED</text><text fill="#eeeeee" stroke="none" font-family="Arial" font-size="24px" font-style="normal" font-weight="normal" text-decoration="none" x="800" y="360">UNREGISTERED</text><text fill="#eeeeee" stroke="none" font-family="Arial" font-size="24px" font-style="normal" font-weight="normal" text-decoration="none" x="800" y="390">UNREGISTERED</text><g transform="translate(-190,2) scale(1,1)"><path fill="#ffffff" stroke="none" d="M 241.3143172940341 47.3 C 241.3143172940341 43.82060576 244.19271901621593 41 247.74340820312503 41 C 251.29409739003412 41 254.17249911221595 43.82060576 254.17249911221595 47.3 C 254.17249911221595 50.779394239999995 251.29409739003412 53.6 247.74340820312503 53.6 C 244.19271901621593 53.6 241.3143172940341 50.779394239999995 241.3143172940341 47.3 Z"/></g><g transform="translate(-190,2) scale(1,1)"><path fill="none" stroke="#000000" d="M 241.3143172940341 47.3 C 241.3143172940341 43.82060576 244.19271901621593 41 247.74340820312503 41 C 251.29409739003412 41 254.17249911221595 43.82060576 254.17249911221595 47.3 C 254.17249911221595 50.779394239999995 251.29409739003412 53.6 247.74340820312503 53.6 C 244.19271901621593 53.6 241.3143172940341 50.779394239999995 241.3143172940341 47.3 Z" stroke-miterlimit="10"/></g><g transform="translate(-190,2) scale(1,1)"><path fill="none" stroke="#000000" d="M 247.74340820312503 53.6 L 247.74340820312503 66.4" stroke-miterlimit="10"/></g><g transform="translate(-190,2) scale(1,1)"><path fill="none" stroke="#000000" d="M 240.9361354758523 58.4 L 254.55068093039776 58.4" stroke-miterlimit="10"/></g><g transform="translate(-190,2) scale(1,1)"><path fill="none" stroke="#000000" d="M 247.74340820312503 66.4 L 238.28886274857956 79" stroke-miterlimit="10"/></g><g transform="translate(-190,2) scale(1,1)"><path fill="none" stroke="#000000" d="M 247.74340820312503 66.4 L 257.1979536576705 79" stroke-miterlimit="10"/></g><g transform="translate(-190,2) scale(1,1)"><g><path fill="none" stroke="none"/><text fill="#000000" stroke="none" font-family="Arial" font-size="13px" font-style="normal" font-weight="bold" text-decoration="none" x="223.895263671875" y="99.5">: Patient</text></g></g><g transform="translate(-190,2) scale(1,1)"><path fill="none" stroke="#000000" d="M 248.5 105 L 248.5 392" stroke-miterlimit="10" stroke-dasharray="3"/></g><g transform="translate(-190,2) scale(1,1)"><rect fill="#C0C0C0" stroke="none" x="367" y="47" width="158.17236328125" height="39" opacity="0.2"/></g><g transform="translate(-190,2) scale(1,1)"><rect fill="#ffffff" stroke="none" x="360" y="40" width="158.17236328125" height="39"/></g><g transform="translate(-190,2) scale(1,1)"><path fill="none" stroke="#000000" d="M 360 40 L 518.17236328125 40 L 518.17236328125 79 L 360 79 L 360 40 Z Z" stroke-miterlimit="10"/></g><g transform="translate(-190,2) scale(1,1)"><g><path fill="none" stroke="none"/><text fill="#000000" stroke="none" font-family="Arial" font-size="13px" font-style="normal" font-weight="bold" text-decoration="none" x="382.001708984375" y="59.5">RequestTestControl</text></g></g><g transform="translate(-190,2) scale(1,1)"><path fill="none" stroke="#000000" d="M 440.5 80 L 440.5 400" stroke-miterlimit="10" stroke-dasharray="3"/></g><g transform="translate(-190,2) scale(1,1)"><rect fill="#C0C0C0" stroke="none" x="927" y="307" width="99.15185546875" height="39" opacity="0.2"/></g><g transform="translate(-190,2) scale(1,1)"><rect fill="#ffffff" stroke="none" x="920" y="300" width="99.15185546875" height="39"/></g><g transform="translate(-190,2) scale(1,1)"><path fill="none" stroke="#000000" d="M 920 300 L 1019.15185546875 300 L 1019.15185546875 339 L 920 339 L 920 300 Z Z" stroke-miterlimit="10"/></g><g transform="translate(-190,2) scale(1,1)"><g><path fill="none" stroke="none"/><text fill="#000000" stroke="none" font-family="Arial" font-size="13px" font-style="normal" font-weight="bold" text-decoration="none" x="933.080078125" y="319.5">Appointment</text></g></g><g transform="translate(-190,2) scale(1,1)"><path fill="none" stroke="#000000" d="M 970.5 340 L 970.5 392" stroke-miterlimit="10" stroke-dasharray="3"/></g><g transform="translate(-190,2) scale(1,1)"><g><path fill="none" stroke="none"/><text fill="#00b799" stroke="none" font-family="Arial" font-size="13px" font-style="normal" font-weight="normal" text-decoration="none" x="229" y="26">selectTimeSlot Sequence Diagram</text></g></g><g transform="translate(-190,2) scale(1,1)"><rect fill="#C0C0C0" stroke="none" x="607" y="47" width="96.05419921875" height="39" opacity="0.2"/></g><g transform="translate(-190,2) scale(1,1)"><rect fill="#ffffff" stroke="none" x="600" y="40" width="96.05419921875" height="39"/></g><g transform="translate(-190,2) scale(1,1)"><path fill="none" stroke="#000000" d="M 600 40 L 696.05419921875 40 L 696.05419921875 79 L 600 79 L 600 40 Z Z" stroke-miterlimit="10"/></g><g transform="translate(-190,2) scale(1,1)"><g><path fill="none" stroke="none"/><text fill="#000000" stroke="none" font-family="Arial" font-size="13px" font-style="normal" font-weight="bold" text-decoration="none" x="611.896240234375" y="59.5">TestRequest</text></g></g><g transform="translate(-190,2) scale(1,1)"><path fill="none" stroke="#000000" d="M 649.5 80 L 649.5 400" stroke-miterlimit="10" stroke-dasharray="3"/></g><g transform="translate(-190,2) scale(1,1)"><rect fill="#C0C0C0" stroke="none" x="783" y="47" width="86.90087890625" height="39" opacity="0.2"/></g><g transform="translate(-190,2) scale(1,1)"><rect fill="#ffffff" stroke="none" x="776" y="40" width="86.90087890625" height="39"/></g><g transform="translate(-190,2) scale(1,1)"><path fill="none" stroke="#000000" d="M 776 40 L 862.90087890625 40 L 862.90087890625 79 L 776 79 L 776 40 Z Z" stroke-miterlimit="10"/></g><g transform="translate(-190,2) scale(1,1)"><g><path fill="none" stroke="none"/><text fill="#000000" stroke="none" font-family="Arial" font-size="13px" font-style="normal" font-weight="bold" text-decoration="none" x="788.37548828125" y="59.5">Laboratory</text></g></g><g transform="translate(-190,2) scale(1,1)"><path fill="none" stroke="#000000" d="M 820.5 80 L 820.5 323" stroke-miterlimit="10" stroke-dasharray="3"/></g><g transform="translate(-190,2) scale(1,1)"><path fill="none" stroke="#000000" d="M 248 120 L 433 120" stroke-miterlimit="10"/></g><g transform="translate(-190,2) scale(1,1)"><path fill="#000000" stroke="none" d="M 422.83732514237585 124.20951775601598 L 433 120 L 422.83732514237585 115.79048224398402"/></g><g transform="translate(-190,2) scale(1,1)"><path fill="none" stroke="#000000" d="M 422.83732514237585 124.20951775601598 L 433 120 L 422.83732514237585 115.79048224398402 L 422.83732514237585 124.20951775601598" stroke-miterlimit="10"/></g><g transform="translate(-190,2) scale(1,1)"><g><path fill="none" stroke="none"/><text fill="#000000" stroke="none" font-family="Arial" font-size="13px" font-style="normal" font-weight="normal" text-decoration="none" x="293.5" y="116.5">selectTimeSlot()</text></g></g><g transform="translate(-190,2) scale(1,1)"><rect fill="#ffffff" stroke="none" x="433" y="120" width="13" height="224"/></g><g transform="translate(-190,2) scale(1,1)"><path fill="none" stroke="#000000" d="M 433 120 L 446 120 L 446 344 L 433 344 L 433 120 Z Z" stroke-miterlimit="10"/></g><g transform="translate(-190,2) scale(1,1)"><path fill="none" stroke="#000000" d="M 446 136 L 642 136" stroke-miterlimit="10"/></g><g transform="translate(-190,2) scale(1,1)"><path fill="#000000" stroke="none" d="M 631.8373251423759 140.209517756016 L 642 136 L 631.8373251423758 131.790482243984"/></g><g transform="translate(-190,2) scale(1,1)"><path fill="none" stroke="#000000" d="M 631.8373251423759 140.209517756016 L 642 136 L 631.8373251423758 131.790482243984 L 631.8373251423759 140.209517756016" stroke-miterlimit="10"/></g><g transform="translate(-190,2) scale(1,1)"><g><path fill="none" stroke="none"/><text fill="#000000" stroke="none" font-family="Arial" font-size="13px" font-style="normal" font-weight="normal" text-decoration="none" x="495.5" y="132.5">LID = getLabID()</text></g></g><g transform="translate(-190,2) scale(1,1)"><rect fill="#ffffff" stroke="none" x="642" y="136" width="13" height="28"/></g><g transform="translate(-190,2) scale(1,1)"><path fill="none" stroke="#000000" d="M 642 136 L 655 136 L 655 164 L 642 164 L 642 136 Z Z" stroke-miterlimit="10"/></g><g transform="translate(-190,2) scale(1,1)"><path fill="none" stroke="#000000" d="M 446 176 L 813 176" stroke-miterlimit="10"/></g><g transform="translate(-190,2) scale(1,1)"><path fill="#000000" stroke="none" d="M 802.8373251423759 180.209517756016 L 813 176 L 802.8373251423758 171.790482243984"/></g><g transform="translate(-190,2) scale(1,1)"><path fill="none" stroke="#000000" d="M 802.8373251423759 180.209517756016 L 813 176 L 802.8373251423758 171.790482243984 L 802.8373251423759 180.209517756016" stroke-miterlimit="10"/></g><g transform="translate(-190,2) scale(1,1)"><g><path fill="none" stroke="none"/><text fill="#000000" stroke="none" font-family="Arial" font-size="13px" font-style="normal" font-weight="normal" text-decoration="none" x="692.5" y="172.5">getTimeSlots()</text></g></g><g transform="translate(-190,2) scale(1,1)"><rect fill="#ffffff" stroke="none" x="813" y="176" width="13" height="40"/></g><g transform="translate(-190,2) scale(1,1)"><path fill="none" stroke="#000000" d="M 813 176 L 826 176 L 826 216 L 813 216 L 813 176 Z Z" stroke-miterlimit="10"/></g><g transform="translate(-190,2) scale(1,1)"><path fill="none" stroke="#000000" d="M 820 216 L 446 216" stroke-miterlimit="10" stroke-dasharray="3"/></g><g transform="translate(-190,2) scale(1,1)"><path fill="none" stroke="#000000" d="M 456.16267485762415 211.790482243984 L 446 216 L 456.16267485762415 220.209517756016" stroke-miterlimit="10"/></g><g transform="translate(-190,2) scale(1,1)"><g><path fill="none" stroke="none"/><text fill="#000000" stroke="none" font-family="Arial" font-size="13px" font-style="normal" font-weight="normal" text-decoration="none" x="670.5" y="212.5">List of Time Slots</text></g></g><g transform="translate(-190,2) scale(1,1)"><path fill="none" stroke="#000000" d="M 433 232 L 248 232" stroke-miterlimit="10" stroke-dasharray="3"/></g><g transform="translate(-190,2) scale(1,1)"><path fill="none" stroke="#000000" d="M 258.16267485762415 227.790482243984 L 248 232 L 258.16267485762415 236.209517756016" stroke-miterlimit="10"/></g><g transform="translate(-190,2) scale(1,1)"><g><path fill="none" stroke="none"/><text fill="#000000" stroke="none" font-family="Arial" font-size="13px" font-style="normal" font-weight="normal" text-decoration="none" x="289.5" y="225.5">List of Time Slots</text></g></g><g transform="translate(-190,2) scale(1,1)"><path fill="none" stroke="#000000" d="M 248 272 L 440 272" stroke-miterlimit="10"/></g><g transform="translate(-190,2) scale(1,1)"><path fill="#000000" stroke="none" d="M 429.83732514237585 276.209517756016 L 440 272 L 429.83732514237585 267.790482243984"/></g><g transform="translate(-190,2) scale(1,1)"><path fill="none" stroke="#000000" d="M 429.83732514237585 276.209517756016 L 440 272 L 429.83732514237585 267.790482243984 L 429.83732514237585 276.209517756016" stroke-miterlimit="10"/></g><g transform="translate(-190,2) scale(1,1)"><g><path fill="none" stroke="none"/><text fill="#000000" stroke="none" font-family="Arial" font-size="13px" font-style="normal" font-weight="normal" text-decoration="none" x="266.5" y="268.5">submitTimeSlot(date, time)</text></g></g><g transform="translate(-190,2) scale(1,1)"><rect fill="#ffffff" stroke="none" x="440" y="272" width="13" height="28"/></g><g transform="translate(-190,2) scale(1,1)"><path fill="none" stroke="#000000" d="M 440 272 L 453 272 L 453 300 L 440 300 L 440 272 Z Z" stroke-miterlimit="10"/></g><g transform="translate(-190,2) scale(1,1)"><path fill="none" stroke="#000000" d="M 453 296 L 642 296" stroke-miterlimit="10"/></g><g transform="translate(-190,2) scale(1,1)"><path fill="#000000" stroke="none" d="M 631.8373251423759 300.209517756016 L 642 296 L 631.8373251423758 291.790482243984"/></g><g transform="translate(-190,2) scale(1,1)"><path fill="none" stroke="#000000" d="M 631.8373251423759 300.209517756016 L 642 296 L 631.8373251423758 291.790482243984 L 631.8373251423759 300.209517756016" stroke-miterlimit="10"/></g><g transform="translate(-190,2) scale(1,1)"><g><path fill="none" stroke="none"/><text fill="#000000" stroke="none" font-family="Arial" font-size="13px" font-style="normal" font-weight="normal" text-decoration="none" x="462.114990234375" y="292.5">makeAppointment(date, time)</text></g></g><g transform="translate(-190,2) scale(1,1)"><rect fill="#ffffff" stroke="none" x="642" y="296" width="13" height="28"/></g><g transform="translate(-190,2) scale(1,1)"><path fill="none" stroke="#000000" d="M 642 296 L 655 296 L 655 324 L 642 324 L 642 296 Z Z" stroke-miterlimit="10"/></g><g transform="translate(-190,2) scale(1,1)"><path fill="none" stroke="#000000" d="M 655 320 L 920 320" stroke-miterlimit="10" stroke-dasharray="3"/></g><g transform="translate(-190,2) scale(1,1)"><path fill="none" stroke="#000000" d="M 909.8373251423759 324.209517756016 L 920 320 L 909.8373251423758 315.790482243984" stroke-miterlimit="10"/></g><g transform="translate(-190,2) scale(1,1)"><g><path fill="none" stroke="none"/><text fill="#000000" stroke="none" font-family="Arial" font-size="13px" font-style="normal" font-weight="normal" text-decoration="none" x="838.5" y="316.5">«create»</text></g></g></g></svg>