<svg version="1.1" xmlns="http://www.w3.org/2000/svg" xmlns:xlink="http://www.w3.org/1999/xlink" width="436.05419921875" height="492"><defs/><g><text fill="#eeeeee" stroke="none" font-family="Arial" font-size="24px" font-style="normal" font-weight="normal" text-decoration="none" x="0" y="0">UNREGISTERED</text><text fill="#eeeeee" stroke="none" font-family="Arial" font-size="24px" font-style="normal" font-weight="normal" text-decoration="none" x="0" y="30">UNREGISTERED</text><text fill="#eeeeee" stroke="none" font-family="Arial" font-size="24px" font-style="normal" font-weight="normal" text-decoration="none" x="0" y="60">UNREGISTERED</text><text fill="#eeeeee" stroke="none" font-family="Arial" font-size="24px" font-style="normal" font-weight="normal" text-decoration="none" x="0" y="90">UNREGISTERED</text><text fill="#eeeeee" stroke="none" font-family="Arial" font-size="24px" font-style="normal" font-weight="normal" text-decoration="none" x="0" y="120">UNREGISTERED</text><text fill="#eeeeee" stroke="none" font-family="Arial" font-size="24px" font-style="normal" font-weight="normal" text-decoration="none" x="0" y="150">UNREGISTERED</text><text fill="#eeeeee" stroke="none" font-family="Arial" font-size="24px" font-style="normal" font-weight="normal" text-decoration="none" x="0" y="180">UNREGISTERED</text><text fill="#eeeeee" stroke="none" font-family="Arial" font-size="24px" font-style="normal" font-weight="normal" text-decoration="none" x="0" y="210">UNREGISTERED</text><text fill="#eeeeee" stroke="none" font-family="Arial" font-size="24px" font-style="normal" font-weight="normal" text-decoration="none" x="0" y="240">UNREGISTERED</text><text fill="#eeeeee" stroke="none" font-family="Arial" font-size="24px" font-style="normal" font-weight="normal" text-decoration="none" x="0" y="270">UNREGISTERED</text><text fill="#eeeeee" stroke="none" font-family="Arial" font-size="24px" font-style="normal" font-weight="normal" text-decoration="none" x="0" y="300">UNREGISTERED</text><text fill="#eeeeee" stroke="none" font-family="Arial" font-size="24px" font-style="normal" font-weight="normal" text-decoration="none" x="0" y="330">UNREGISTERED</text><text fill="#eeeeee" stroke="none" font-family="Arial" font-size="24px" font-style="normal" font-weight="normal" text-decoration="none" x="0" y="360">UNREGISTERED</text><text fill="#eeeeee" stroke="none" font-family="Arial" font-size="24px" font-style="normal" font-weight="normal" text-decoration="none" x="0" y="390">UNREGISTERED</text><text fill="#eeeeee" stroke="none" font-family="Arial" font-size="24px" font-style="normal" font-weight="normal" text-decoration="none" x="0" y="420">UNREGISTERED</text><text fill="#eeeeee" stroke="none" font-family="Arial" font-size="24px" font-style="normal" font-weight="normal" text-decoration="none" x="0" y="450">UNREGISTERED</text><text fill="#eeeeee" stroke="none" font-family="Arial" font-size="24px" font-style="normal" font-weight="normal" text-decoration="none" x="0" y="480">UNREGISTERED</text><text fill="#eeeeee" stroke="none" font-family="Arial" font-size="24px" font-style="normal" font-weight="normal" text-decoration="none" x="200" y="0">UNREGISTERED</text><text fill="#eeeeee" stroke="none" font-family="Arial" font-size="24px" font-style="normal" font-weight="normal" text-decoration="none" x="200" y="30">UNREGISTERED</text><text fill="#eeeeee" stroke="none" font-family="Arial" font-size="24px" font-style="normal" font-weight="normal" text-decoration="none" x="200" y="60">UNREGISTERED</text><text fill="#eeeeee" stroke="none" font-family="Arial" font-size="24px" font-style="normal" font-weight="normal" text-decoration="none" x="200" y="90">UNREGISTERED</text><text fill="#eeeeee" stroke="none" font-family="Arial" font-size="24px" font-style="normal" font-weight="normal" text-decoration="none" x="200" y="120">UNREGISTERED</text><text fill="#eeeeee" stroke="none" font-family="Arial" font-size="24px" font-style="normal" font-weight="normal" text-decoration="none" x="200" y="150">UNREGISTERED</text><text fill="#eeeeee" stroke="none" font-family="Arial" font-size="24px" font-style="normal" font-weight="normal" text-decoration="none" x="200" y="180">UNREGISTERED</text><text fill="#eeeeee" stroke="none" font-family="Arial" font-size="24px" font-style="normal" font-weight="normal" text-decoration="none" x="200" y="210">UNREGISTERED</text><text fill="#eeeeee" stroke="none" font-family="Arial" font-size="24px" font-style="normal" font-weight="normal" text-decoration="none" x="200" y="240">UNREGISTERED</text><text fill="#eeeeee" stroke="none" font-family="Arial" font-size="24px" font-style="normal" font-weight="normal" text-decoration="none" x="200" y="270">UNREGISTERED</text><text fill="#eeeeee" stroke="none" font-family="Arial" font-size="24px" font-style="normal" font-weight="normal" text-decoration="none" x="200" y="300">UNREGISTERED</text><text fill="#eeeeee" stroke="none" font-family="Arial" font-size="24px" font-style="normal" font-weight="normal" text-decoration="none" x="200" y="330">UNREGISTERED</text><text fill="#eeeeee" stroke="none" font-family="Arial" font-size="24px" font-style="normal" font-weight="normal" text-decoration="none" x="200" y="360">UNREGISTERED</text><text fill="#eeeeee" stroke="none" font-family="Arial" font-size="24px" font-style="normal" font-weight="normal" text-decoration="none" x="200" y="390">UNREGISTERED</text><text fill="#eeeeee" stroke="none" font-family="Arial" font-size="24px" font-style="normal" font-weight="normal" text-decoration="none" x="200" y="420">UNREGISTERED</text><text fill="#eeeeee" stroke="none" font-family="Arial" font-size="24px" font-style="normal" font-weight="normal" text-decoration="none" x="200" y="450">UNREGISTERED</text><text fill="#eeeeee" stroke="none" font-family="Arial" font-size="24px" font-style="normal" font-weight="normal" text-decoration="none" x="200" y="480">UNREGISTERED</text><text fill="#eeeeee" stroke="none" font-family="Arial" font-size="24px" font-style="normal" font-weight="normal" text-decoration="none" x="400" y="0">UNREGISTERED</text><text fill="#eeeeee" stroke="none" font-family="Arial" font-size="24px" font-style="normal" font-weight="normal" text-decoration="none" x="400" y="30">UNREGISTERED</text><text fill="#eeeeee" stroke="none" font-family="Arial" font-size="24px" font-style="normal" font-weight="normal" text-decoration="none" x="400" y="60">UNREGISTERED</text><text fill="#eeeeee" stroke="none" font-family="Arial" font-size="24px" font-style="normal" font-weight="normal" text-decoration="none" x="400" y="90">UNREGISTERED</text><text fill="#eeeeee" stroke="none" font-family="Arial" font-size="24px" font-style="normal" font-weight="normal" text-decoration="none" x="400" y="120">UNREGISTERED</text><text fill="#eeeeee" stroke="none" font-family="Arial" font-size="24px" font-style="normal" font-weight="normal" text-decoration="none" x="400" y="150">UNREGISTERED</text><text fill="#eeeeee" stroke="none" font-family="Arial" font-size="24px" font-style="normal" font-weight="normal" text-decoration="none" x="400" y="180">UNREGISTERED</text><text fill="#eeeeee" stroke="none" font-family="Arial" font-size="24px" font-style="normal" font-weight="normal" text-decoration="none" x="400" y="210">UNREGISTERED</text><text fill="#eeeeee" stroke="none" font-family="Arial" font-size="24px" font-style="normal" font-weight="normal" text-decoration="none" x="400" y="240">UNREGISTERED</text><text fill="#eeeeee" stroke="none" font-family="Arial" font-size="24px" font-style="normal" font-weight="normal" text-decoration="none" x="400" y="270">UNREGISTERED</text><text fill="#eeeeee" stroke="none" font-family="Arial" font-size="24px" font-style="normal" font-weight="normal" text-decoration="none" x="400" y="300">UNREGISTERED</text><text fill="#eeeeee" stroke="none" font-family="Arial" font-size="24px" font-style="normal" font-weight="normal" text-decoration="none" x="400" y="330">UNREGISTERED</text><text fill="#eeeeee" stroke="none" font-family="Arial" font-size="24px" font-style="normal" font-weight="normal" text-decoration="none" x="400" y="360">UNREGISTERED</text><text fill="#eeeeee" stroke="none" font-family="Arial" font-size="24px" font-style="normal" font-weight="normal" text-decoration="none" x="400" y="390">UNREGISTERED</text><text fill="#eeeeee" stroke="none" font-family="Arial" font-size="24px" font-style="normal" font-weight="normal" text-decoration="none" x="400" y="420">UNREGISTERED</text><text fill="#eeeeee" stroke="none" font-family="Arial" font-size="24px" font-style="normal" font-weight="normal" text-decoration="none" x="400" y="450">UNREGISTERED</text><text fill="#eeeeee" stroke="none" font-family="Arial" font-size="24px" font-style="normal" font-weight="normal" text-decoration="none" x="400" y="480">UNREGISTERED</text><g transform="translate(-158,2) scale(1,1)"><path fill="#ffffff" stroke="none" d="M 209.3143172940341 47.3 C 209.3143172940341 43.82060576 212.1927190162159 41 215.743408203125 41 C 219.2940973900341 41 222.17249911221592 43.82060576 222.17249911221592 47.3 C 222.17249911221592 50.779394239999995 219.2940973900341 53.6 215.743408203125 53.6 C 212.1927190162159 53.6 209.3143172940341 50.779394239999995 209.3143172940341 47.3 Z"/></g><g transform="translate(-158,2) scale(1,1)"><path fill="none" stroke="#000000" d="M 209.3143172940341 47.3 C 209.3143172940341 43.82060576 212.1927190162159 41 215.743408203125 41 C 219.2940973900341 41 222.17249911221592 43.82060576 222.17249911221592 47.3 C 222.17249911221592 50.779394239999995 219.2940973900341 53.6 215.743408203125 53.6 C 212.1927190162159 53.6 209.3143172940341 50.779394239999995 209.3143172940341 47.3 Z" stroke-miterlimit="10"/></g><g transform="translate(-158,2) scale(1,1)"><path fill="none" stroke="#000000" d="M 215.743408203125 53.6 L 215.743408203125 66.4" stroke-miterlimit="10"/></g><g transform="translate(-158,2) scale(1,1)"><path fill="none" stroke="#000000" d="M 208.9361354758523 58.4 L 222.55068093039773 58.4" stroke-miterlimit="10"/></g><g transform="translate(-158,2) scale(1,1)"><path fill="none" stroke="#000000" d="M 215.743408203125 66.4 L 206.28886274857956 79" stroke-miterlimit="10"/></g><g transform="translate(-158,2) scale(1,1)"><path fill="none" stroke="#000000" d="M 215.743408203125 66.4 L 225.19795365767047 79" stroke-miterlimit="10"/></g><g transform="translate(-158,2) scale(1,1)"><g><path fill="none" stroke="none"/><text fill="#000000" stroke="none" font-family="Arial" font-size="13px" font-style="normal" font-weight="bold" text-decoration="none" x="191.895263671875" y="99.5">: Patient</text></g></g><g transform="translate(-158,2) scale(1,1)"><path fill="none" stroke="#000000" d="M 216.5 105 L 216.5 480" stroke-miterlimit="10" stroke-dasharray="3"/></g><g transform="translate(-158,2) scale(1,1)"><rect fill="#C0C0C0" stroke="none" x="319" y="47" width="142.26513671875" height="39" opacity="0.2"/></g><g transform="translate(-158,2) scale(1,1)"><rect fill="#ffffff" stroke="none" x="312" y="40" width="142.26513671875" height="39"/></g><g transform="translate(-158,2) scale(1,1)"><path fill="none" stroke="#000000" d="M 312 40 L 454.26513671875 40 L 454.26513671875 79 L 312 79 L 312 40 Z Z" stroke-miterlimit="10"/></g><g transform="translate(-158,2) scale(1,1)"><g><path fill="none" stroke="none"/><text fill="#000000" stroke="none" font-family="Arial" font-size="13px" font-style="normal" font-weight="bold" text-decoration="none" x="326.048095703125" y="59.5">RequestTestControl</text></g></g><g transform="translate(-158,2) scale(1,1)"><path fill="none" stroke="#000000" d="M 384.5 80 L 384.5 464" stroke-miterlimit="10" stroke-dasharray="3"/></g><g transform="translate(-158,2) scale(1,1)"><g><path fill="none" stroke="none"/><text fill="#59b200" stroke="none" font-family="Arial" font-size="13px" font-style="normal" font-weight="normal" text-decoration="none" x="213" y="26">selectLab Sequence Diagram</text></g></g><g transform="translate(-158,2) scale(1,1)"><rect fill="#C0C0C0" stroke="none" x="495" y="47" width="96.05419921875" height="39" opacity="0.2"/></g><g transform="translate(-158,2) scale(1,1)"><rect fill="#ffffff" stroke="none" x="488" y="40" width="96.05419921875" height="39"/></g><g transform="translate(-158,2) scale(1,1)"><path fill="none" stroke="#000000" d="M 488 40 L 584.05419921875 40 L 584.05419921875 79 L 488 79 L 488 40 Z Z" stroke-miterlimit="10"/></g><g transform="translate(-158,2) scale(1,1)"><g><path fill="none" stroke="none"/><text fill="#000000" stroke="none" font-family="Arial" font-size="13px" font-style="normal" font-weight="bold" text-decoration="none" x="499.896240234375" y="59.5">TestRequest</text></g></g><g transform="translate(-158,2) scale(1,1)"><path fill="none" stroke="#000000" d="M 537.5 80 L 537.5 464" stroke-miterlimit="10" stroke-dasharray="3"/></g><g transform="translate(-158,2) scale(1,1)"><path fill="none" stroke="#000000" d="M 216 120 L 377 120" stroke-miterlimit="10"/></g><g transform="translate(-158,2) scale(1,1)"><path fill="#000000" stroke="none" d="M 366.83732514237585 124.20951775601598 L 377 120 L 366.83732514237585 115.79048224398402"/></g><g transform="translate(-158,2) scale(1,1)"><path fill="none" stroke="#000000" d="M 366.83732514237585 124.20951775601598 L 377 120 L 366.83732514237585 115.79048224398402 L 366.83732514237585 124.20951775601598" stroke-miterlimit="10"/></g><g transform="translate(-158,2) scale(1,1)"><g><path fill="none" stroke="none"/><text fill="#000000" stroke="none" font-family="Arial" font-size="13px" font-style="normal" font-weight="normal" text-decoration="none" x="263.6708984375" y="116.5">selectLab()</text></g></g><g transform="translate(-158,2) scale(1,1)"><rect fill="#ffffff" stroke="none" x="377" y="120" width="13" height="264"/></g><g transform="translate(-158,2) scale(1,1)"><path fill="none" stroke="#000000" d="M 377 120 L 390 120 L 390 384 L 377 384 L 377 120 Z Z" stroke-miterlimit="10"/></g><g transform="translate(-158,2) scale(1,1)"><path fill="none" stroke="#000000" d="M 377 168 L 216 168" stroke-miterlimit="10" stroke-dasharray="3"/></g><g transform="translate(-158,2) scale(1,1)"><path fill="none" stroke="#000000" d="M 226.16267485762415 163.790482243984 L 216 168 L 226.16267485762415 172.209517756016" stroke-miterlimit="10"/></g><g transform="translate(-158,2) scale(1,1)"><g><path fill="none" stroke="none"/><text fill="#000000" stroke="none" font-family="Arial" font-size="13px" font-style="normal" font-weight="normal" text-decoration="none" x="226.5" y="163.5">List of  Supporting Labs</text></g></g><g transform="translate(-158,2) scale(1,1)"><path fill="none" stroke="#000000" d="M 216 216 L 384 216" stroke-miterlimit="10"/></g><g transform="translate(-158,2) scale(1,1)"><path fill="#000000" stroke="none" d="M 373.83732514237585 220.209517756016 L 384 216 L 373.83732514237585 211.790482243984"/></g><g transform="translate(-158,2) scale(1,1)"><path fill="none" stroke="#000000" d="M 373.83732514237585 220.209517756016 L 384 216 L 373.83732514237585 211.790482243984 L 373.83732514237585 220.209517756016" stroke-miterlimit="10"/></g><g transform="translate(-158,2) scale(1,1)"><g><path fill="none" stroke="none"/><text fill="#000000" stroke="none" font-family="Arial" font-size="13px" font-style="normal" font-weight="normal" text-decoration="none" x="233.5" y="212.5">sendFilter(filterparams)</text></g></g><g transform="translate(-158,2) scale(1,1)"><rect fill="#ffffff" stroke="none" x="384" y="216" width="13" height="48"/></g><g transform="translate(-158,2) scale(1,1)"><path fill="none" stroke="#000000" d="M 384 216 L 397 216 L 397 264 L 384 264 L 384 216 Z Z" stroke-miterlimit="10"/></g><g transform="translate(-158,2) scale(1,1)"><path fill="none" stroke="#000000" d="M 377 264 L 216 264" stroke-miterlimit="10" stroke-dasharray="3"/></g><g transform="translate(-158,2) scale(1,1)"><path fill="none" stroke="#000000" d="M 226.16267485762415 259.790482243984 L 216 264 L 226.16267485762415 268.209517756016" stroke-miterlimit="10"/></g><g transform="translate(-158,2) scale(1,1)"><g><path fill="none" stroke="none"/><text fill="#000000" stroke="none" font-family="Arial" font-size="13px" font-style="normal" font-weight="normal" text-decoration="none" x="236.5" y="259.5">List of  Filtered Labs</text></g></g><g transform="translate(-158,2) scale(1,1)"><path fill="none" stroke="#000000" d="M 216 320 L 384 320" stroke-miterlimit="10"/></g><g transform="translate(-158,2) scale(1,1)"><path fill="#000000" stroke="none" d="M 373.83732514237585 324.209517756016 L 384 320 L 373.83732514237585 315.790482243984"/></g><g transform="translate(-158,2) scale(1,1)"><path fill="none" stroke="#000000" d="M 373.83732514237585 324.209517756016 L 384 320 L 373.83732514237585 315.790482243984 L 373.83732514237585 324.209517756016" stroke-miterlimit="10"/></g><g transform="translate(-158,2) scale(1,1)"><g><path fill="none" stroke="none"/><text fill="#000000" stroke="none" font-family="Arial" font-size="13px" font-style="normal" font-weight="normal" text-decoration="none" x="255.5" y="316.5">submitLab(LID)</text></g></g><g transform="translate(-158,2) scale(1,1)"><rect fill="#ffffff" stroke="none" x="384" y="320" width="13" height="28"/></g><g transform="translate(-158,2) scale(1,1)"><path fill="none" stroke="#000000" d="M 384 320 L 397 320 L 397 348 L 384 348 L 384 320 Z Z" stroke-miterlimit="10"/></g><g transform="translate(-158,2) scale(1,1)"><path fill="none" stroke="#000000" d="M 397 336 L 530 336" stroke-miterlimit="10"/></g><g transform="translate(-158,2) scale(1,1)"><path fill="#000000" stroke="none" d="M 519.8373251423759 340.209517756016 L 530 336 L 519.8373251423758 331.790482243984"/></g><g transform="translate(-158,2) scale(1,1)"><path fill="none" stroke="#000000" d="M 519.8373251423759 340.209517756016 L 530 336 L 519.8373251423758 331.790482243984 L 519.8373251423759 340.209517756016" stroke-miterlimit="10"/></g><g transform="translate(-158,2) scale(1,1)"><g><path fill="none" stroke="none"/><text fill="#000000" stroke="none" font-family="Arial" font-size="13px" font-style="normal" font-weight="normal" text-decoration="none" x="429.5" y="332.5">setLab(LID)</text></g></g><g transform="translate(-158,2) scale(1,1)"><rect fill="#ffffff" stroke="none" x="530" y="336" width="13" height="28"/></g><g transform="translate(-158,2) scale(1,1)"><path fill="none" stroke="#000000" d="M 530 336 L 543 336 L 543 364 L 530 364 L 530 336 Z Z" stroke-miterlimit="10"/></g></g></svg>