<svg version="1.1" xmlns="http://www.w3.org/2000/svg" xmlns:xlink="http://www.w3.org/1999/xlink" width="986.90087890625" height="556"><defs/><g><text fill="#eeeeee" stroke="none" font-family="Arial" font-size="24px" font-style="normal" font-weight="normal" text-decoration="none" x="0" y="0">UNREGISTERED</text><text fill="#eeeeee" stroke="none" font-family="Arial" font-size="24px" font-style="normal" font-weight="normal" text-decoration="none" x="0" y="30">UNREGISTERED</text><text fill="#eeeeee" stroke="none" font-family="Arial" font-size="24px" font-style="normal" font-weight="normal" text-decoration="none" x="0" y="60">UNREGISTERED</text><text fill="#eeeeee" stroke="none" font-family="Arial" font-size="24px" font-style="normal" font-weight="normal" text-decoration="none" x="0" y="90">UNREGISTERED</text><text fill="#eeeeee" stroke="none" font-family="Arial" font-size="24px" font-style="normal" font-weight="normal" text-decoration="none" x="0" y="120">UNREGISTERED</text><text fill="#eeeeee" stroke="none" font-family="Arial" font-size="24px" font-style="normal" font-weight="normal" text-decoration="none" x="0" y="150">UNREGISTERED</text><text fill="#eeeeee" stroke="none" font-family="Arial" font-size="24px" font-style="normal" font-weight="normal" text-decoration="none" x="0" y="180">UNREGISTERED</text><text fill="#eeeeee" stroke="none" font-family="Arial" font-size="24px" font-style="normal" font-weight="normal" text-decoration="none" x="0" y="210">UNREGISTERED</text><text fill="#eeeeee" stroke="none" font-family="Arial" font-size="24px" font-style="normal" font-weight="normal" text-decoration="none" x="0" y="240">UNREGISTERED</text><text fill="#eeeeee" stroke="none" font-family="Arial" font-size="24px" font-style="normal" font-weight="normal" text-decoration="none" x="0" y="270">UNREGISTERED</text><text fill="#eeeeee" stroke="none" font-family="Arial" font-size="24px" font-style="normal" font-weight="normal" text-decoration="none" x="0" y="300">UNREGISTERED</text><text fill="#eeeeee" stroke="none" font-family="Arial" font-size="24px" font-style="normal" font-weight="normal" text-decoration="none" x="0" y="330">UNREGISTERED</text><text fill="#eeeeee" stroke="none" font-family="Arial" font-size="24px" font-style="normal" font-weight="normal" text-decoration="none" x="0" y="360">UNREGISTERED</text><text fill="#eeeeee" stroke="none" font-family="Arial" font-size="24px" font-style="normal" font-weight="normal" text-decoration="none" x="0" y="390">UNREGISTERED</text><text fill="#eeeeee" stroke="none" font-family="Arial" font-size="24px" font-style="normal" font-weight="normal" text-decoration="none" x="0" y="420">UNREGISTERED</text><text fill="#eeeeee" stroke="none" font-family="Arial" font-size="24px" font-style="normal" font-weight="normal" text-decoration="none" x="0" y="450">UNREGISTERED</text><text fill="#eeeeee" stroke="none" font-family="Arial" font-size="24px" font-style="normal" font-weight="normal" text-decoration="none" x="0" y="480">UNREGISTERED</text><text fill="#eeeeee" stroke="none" font-family="Arial" font-size="24px" font-style="normal" font-weight="normal" text-decoration="none" x="0" y="510">UNREGISTERED</text><text fill="#eeeeee" stroke="none" font-family="Arial" font-size="24px" font-style="normal" font-weight="normal" text-decoration="none" x="0" y="540">UNREGISTERED</text><text fill="#eeeeee" stroke="none" font-family="Arial" font-size="24px" font-style="normal" font-weight="normal" text-decoration="none" x="200" y="0">UNREGISTERED</text><text fill="#eeeeee" stroke="none" font-family="Arial" font-size="24px" font-style="normal" font-weight="normal" text-decoration="none" x="200" y="30">UNREGISTERED</text><text fill="#eeeeee" stroke="none" font-family="Arial" font-size="24px" font-style="normal" font-weight="normal" text-decoration="none" x="200" y="60">UNREGISTERED</text><text fill="#eeeeee" stroke="none" font-family="Arial" font-size="24px" font-style="normal" font-weight="normal" text-decoration="none" x="200" y="90">UNREGISTERED</text><text fill="#eeeeee" stroke="none" font-family="Arial" font-size="24px" font-style="normal" font-weight="normal" text-decoration="none" x="200" y="120">UNREGISTERED</text><text fill="#eeeeee" stroke="none" font-family="Arial" font-size="24px" font-style="normal" font-weight="normal" text-decoration="none" x="200" y="150">UNREGISTERED</text><text fill="#eeeeee" stroke="none" font-family="Arial" font-size="24px" font-style="normal" font-weight="normal" text-decoration="none" x="200" y="180">UNREGISTERED</text><text fill="#eeeeee" stroke="none" font-family="Arial" font-size="24px" font-style="normal" font-weight="normal" text-decoration="none" x="200" y="210">UNREGISTERED</text><text fill="#eeeeee" stroke="none" font-family="Arial" font-size="24px" font-style="normal" font-weight="normal" text-decoration="none" x="200" y="240">UNREGISTERED</text><text fill="#eeeeee" stroke="none" font-family="Arial" font-size="24px" font-style="normal" font-weight="normal" text-decoration="none" x="200" y="270">UNREGISTERED</text><text fill="#eeeeee" stroke="none" font-family="Arial" font-size="24px" font-style="normal" font-weight="normal" text-decoration="none" x="200" y="300">UNREGISTERED</text><text fill="#eeeeee" stroke="none" font-family="Arial" font-size="24px" font-style="normal" font-weight="normal" text-decoration="none" x="200" y="330">UNREGISTERED</text><text fill="#eeeeee" stroke="none" font-family="Arial" font-size="24px" font-style="normal" font-weight="normal" text-decoration="none" x="200" y="360">UNREGISTERED</text><text fill="#eeeeee" stroke="none" font-family="Arial" font-size="24px" font-style="normal" font-weight="normal" text-decoration="none" x="200" y="390">UNREGISTERED</text><text fill="#eeeeee" stroke="none" font-family="Arial" font-size="24px" font-style="normal" font-weight="normal" text-decoration="none" x="200" y="420">UNREGISTERED</text><text fill="#eeeeee" stroke="none" font-family="Arial" font-size="24px" font-style="normal" font-weight="normal" text-decoration="none" x="200" y="450">UNREGISTERED</text><text fill="#eeeeee" stroke="none" font-family="Arial" font-size="24px" font-style="normal" font-weight="normal" text-decoration="none" x="200" y="480">UNREGISTERED</text><text fill="#eeeeee" stroke="none" font-family="Arial" font-size="24px" font-style="normal" font-weight="normal" text-decoration="none" x="200" y="510">UNREGISTERED</text><text fill="#eeeeee" stroke="none" font-family="Arial" font-size="24px" font-style="normal" font-weight="normal" text-decoration="none" x="200" y="540">UNREGISTERED</text><text fill="#eeeeee" stroke="none" font-family="Arial" font-size="24px" font-style="normal" font-weight="normal" text-decoration="none" x="400" y="0">UNREGISTERED</text><text fill="#eeeeee" stroke="none" font-family="Arial" font-size="24px" font-style="normal" font-weight="normal" text-decoration="none" x="400" y="30">UNREGISTERED</text><text fill="#eeeeee" stroke="none" font-family="Arial" font-size="24px" font-style="normal" font-weight="normal" text-decoration="none" x="400" y="60">UNREGISTERED</text><text fill="#eeeeee" stroke="none" font-family="Arial" font-size="24px" font-style="normal" font-weight="normal" text-decoration="none" x="400" y="90">UNREGISTERED</text><text fill="#eeeeee" stroke="none" font-family="Arial" font-size="24px" font-style="normal" font-weight="normal" text-decoration="none" x="400" y="120">UNREGISTERED</text><text fill="#eeeeee" stroke="none" font-family="Arial" font-size="24px" font-style="normal" font-weight="normal" text-decoration="none" x="400" y="150">UNREGISTERED</text><text fill="#eeeeee" stroke="none" font-family="Arial" font-size="24px" font-style="normal" font-weight="normal" text-decoration="none" x="400" y="180">UNREGISTERED</text><text fill="#eeeeee" stroke="none" font-family="Arial" font-size="24px" font-style="normal" font-weight="normal" text-decoration="none" x="400" y="210">UNREGISTERED</text><text fill="#eeeeee" stroke="none" font-family="Arial" font-size="24px" font-style="normal" font-weight="normal" text-decoration="none" x="400" y="240">UNREGISTERED</text><text fill="#eeeeee" stroke="none" font-family="Arial" font-size="24px" font-style="normal" font-weight="normal" text-decoration="none" x="400" y="270">UNREGISTERED</text><text fill="#eeeeee" stroke="none" font-family="Arial" font-size="24px" font-style="normal" font-weight="normal" text-decoration="none" x="400" y="300">UNREGISTERED</text><text fill="#eeeeee" stroke="none" font-family="Arial" font-size="24px" font-style="normal" font-weight="normal" text-decoration="none" x="400" y="330">UNREGISTERED</text><text fill="#eeeeee" stroke="none" font-family="Arial" font-size="24px" font-style="normal" font-weight="normal" text-decoration="none" x="400" y="360">UNREGISTERED</text><text fill="#eeeeee" stroke="none" font-family="Arial" font-size="24px" font-style="normal" font-weight="normal" text-decoration="none" x="400" y="390">UNREGISTERED</text><text fill="#eeeeee" stroke="none" font-family="Arial" font-size="24px" font-style="normal" font-weight="normal" text-decoration="none" x="400" y="420">UNREGISTERED</text><text fill="#eeeeee" stroke="none" font-family="Arial" font-size="24px" font-style="normal" font-weight="normal" text-decoration="none" x="400" y="450">UNREGISTERED</text><text fill="#eeeeee" stroke="none" font-family="Arial" font-size="24px" font-style="normal" font-weight="normal" text-decoration="none" x="400" y="480">UNREGISTERED</text><text fill="#eeeeee" stroke="none" font-family="Arial" font-size="24px" font-style="normal" font-weight="normal" text-decoration="none" x="400" y="510">UNREGISTERED</text><text fill="#eeeeee" stroke="none" font-family="Arial" font-size="24px" font-style="normal" font-weight="normal" text-decoration="none" x="400" y="540">UNREGISTERED</text><text fill="#eeeeee" stroke="none" font-family="Arial" font-size="24px" font-style="normal" font-weight="normal" text-decoration="none" x="600" y="0">UNREGISTERED</text><text fill="#eeeeee" stroke="none" font-family="Arial" font-size="24px" font-style="normal" font-weight="normal" text-decoration="none" x="600" y="30">UNREGISTERED</text><text fill="#eeeeee" stroke="none" font-family="Arial" font-size="24px" font-style="normal" font-weight="normal" text-decoration="none" x="600" y="60">UNREGISTERED</text><text fill="#eeeeee" stroke="none" font-family="Arial" font-size="24px" font-style="normal" font-weight="normal" text-decoration="none" x="600" y="90">UNREGISTERED</text><text fill="#eeeeee" stroke="none" font-family="Arial" font-size="24px" font-style="normal" font-weight="normal" text-decoration="none" x="600" y="120">UNREGISTERED</text><text fill="#eeeeee" stroke="none" font-family="Arial" font-size="24px" font-style="normal" font-weight="normal" text-decoration="none" x="600" y="150">UNREGISTERED</text><text fill="#eeeeee" stroke="none" font-family="Arial" font-size="24px" font-style="normal" font-weight="normal" text-decoration="none" x="600" y="180">UNREGISTERED</text><text fill="#eeeeee" stroke="none" font-family="Arial" font-size="24px" font-style="normal" font-weight="normal" text-decoration="none" x="600" y="210">UNREGISTERED</text><text fill="#eeeeee" stroke="none" font-family="Arial" font-size="24px" font-style="normal" font-weight="normal" text-decoration="none" x="600" y="240">UNREGISTERED</text><text fill="#eeeeee" stroke="none" font-family="Arial" font-size="24px" font-style="normal" font-weight="normal" text-decoration="none" x="600" y="270">UNREGISTERED</text><text fill="#eeeeee" stroke="none" font-family="Arial" font-size="24px" font-style="normal" font-weight="normal" text-decoration="none" x="600" y="300">UNREGISTERED</text><text fill="#eeeeee" stroke="none" font-family="Arial" font-size="24px" font-style="normal" font-weight="normal" text-decoration="none" x="600" y="330">UNREGISTERED</text><text fill="#eeeeee" stroke="none" font-family="Arial" font-size="24px" font-style="normal" font-weight="normal" text-decoration="none" x="600" y="360">UNREGISTERED</text><text fill="#eeeeee" stroke="none" font-family="Arial" font-size="24px" font-style="normal" font-weight="normal" text-decoration="none" x="600" y="390">UNREGISTERED</text><text fill="#eeeeee" stroke="none" font-family="Arial" font-size="24px" font-style="normal" font-weight="normal" text-decoration="none" x="600" y="420">UNREGISTERED</text><text fill="#eeeeee" stroke="none" font-family="Arial" font-size="24px" font-style="normal" font-weight="normal" text-decoration="none" x="600" y="450">UNREGISTERED</text><text fill="#eeeeee" stroke="none" font-family="Arial" font-size="24px" font-style="normal" font-weight="normal" text-decoration="none" x="600" y="480">UNREGISTERED</text><text fill="#eeeeee" stroke="none" font-family="Arial" font-size="24px" font-style="normal" font-weight="normal" text-decoration="none" x="600" y="510">UNREGISTERED</text><text fill="#eeeeee" stroke="none" font-family="Arial" font-size="24px" font-style="normal" font-weight="normal" text-decoration="none" x="600" y="540">UNREGISTERED</text><text fill="#eeeeee" stroke="none" font-family="Arial" font-size="24px" font-style="normal" font-weight="normal" text-decoration="none" x="800" y="0">UNREGISTERED</text><text fill="#eeeeee" stroke="none" font-family="Arial" font-size="24px" font-style="normal" font-weight="normal" text-decoration="none" x="800" y="30">UNREGISTERED</text><text fill="#eeeeee" stroke="none" font-family="Arial" font-size="24px" font-style="normal" font-weight="normal" text-decoration="none" x="800" y="60">UNREGISTERED</text><text fill="#eeeeee" stroke="none" font-family="Arial" font-size="24px" font-style="normal" font-weight="normal" text-decoration="none" x="800" y="90">UNREGISTERED</text><text fill="#eeeeee" stroke="none" font-family="Arial" font-size="24px" font-style="normal" font-weight="normal" text-decoration="none" x="800" y="120">UNREGISTERED</text><text fill="#eeeeee" stroke="none" font-family="Arial" font-size="24px" font-style="normal" font-weight="normal" text-decoration="none" x="800" y="150">UNREGISTERED</text><text fill="#eeeeee" stroke="none" font-family="Arial" font-size="24px" font-style="normal" font-weight="normal" text-decoration="none" x="800" y="180">UNREGISTERED</text><text fill="#eeeeee" stroke="none" font-family="Arial" font-size="24px" font-style="normal" font-weight="normal" text-decoration="none" x="800" y="210">UNREGISTERED</text><text fill="#eeeeee" stroke="none" font-family="Arial" font-size="24px" font-style="normal" font-weight="normal" text-decoration="none" x="800" y="240">UNREGISTERED</text><text fill="#eeeeee" stroke="none" font-family="Arial" font-size="24px" font-style="normal" font-weight="normal" text-decoration="none" x="800" y="270">UNREGISTERED</text><text fill="#eeeeee" stroke="none" font-family="Arial" font-size="24px" font-style="normal" font-weight="normal" text-decoration="none" x="800" y="300">UNREGISTERED</text><text fill="#eeeeee" stroke="none" font-family="Arial" font-size="24px" font-style="normal" font-weight="normal" text-decoration="none" x="800" y="330">UNREGISTERED</text><text fill="#eeeeee" stroke="none" font-family="Arial" font-size="24px" font-style="normal" font-weight="normal" text-decoration="none" x="800" y="360">UNREGISTERED</text><text fill="#eeeeee" stroke="none" font-family="Arial" font-size="24px" font-style="normal" font-weight="normal" text-decoration="none" x="800" y="390">UNREGISTERED</text><text fill="#eeeeee" stroke="none" font-family="Arial" font-size="24px" font-style="normal" font-weight="normal" text-decoration="none" x="800" y="420">UNREGISTERED</text><text fill="#eeeeee" stroke="none" font-family="Arial" font-size="24px" font-style="normal" font-weight="normal" text-decoration="none" x="800" y="450">UNREGISTERED</text><text fill="#eeeeee" stroke="none" font-family="Arial" font-size="24px" font-style="normal" font-weight="normal" text-decoration="none" x="800" y="480">UNREGISTERED</text><text fill="#eeeeee" stroke="none" font-family="Arial" font-size="24px" font-style="normal" font-weight="normal" text-decoration="none" x="800" y="510">UNREGISTERED</text><text fill="#eeeeee" stroke="none" font-family="Arial" font-size="24px" font-style="normal" font-weight="normal" text-decoration="none" x="800" y="540">UNREGISTERED</text><g transform="translate(-158,2) scale(1,1)"><path fill="#ffffff" stroke="none" d="M 209.3143172940341 47.3 C 209.3143172940341 43.82060576 212.1927190162159 41 215.743408203125 41 C 219.2940973900341 41 222.17249911221592 43.82060576 222.17249911221592 47.3 C 222.17249911221592 50.779394239999995 219.2940973900341 53.6 215.743408203125 53.6 C 212.1927190162159 53.6 209.3143172940341 50.779394239999995 209.3143172940341 47.3 Z"/></g><g transform="translate(-158,2) scale(1,1)"><path fill="none" stroke="#000000" d="M 209.3143172940341 47.3 C 209.3143172940341 43.82060576 212.1927190162159 41 215.743408203125 41 C 219.2940973900341 41 222.17249911221592 43.82060576 222.17249911221592 47.3 C 222.17249911221592 50.779394239999995 219.2940973900341 53.6 215.743408203125 53.6 C 212.1927190162159 53.6 209.3143172940341 50.779394239999995 209.3143172940341 47.3 Z" stroke-miterlimit="10"/></g><g transform="translate(-158,2) scale(1,1)"><path fill="none" stroke="#000000" d="M 215.743408203125 53.6 L 215.743408203125 66.4" stroke-miterlimit="10"/></g><g transform="translate(-158,2) scale(1,1)"><path fill="none" stroke="#000000" d="M 208.9361354758523 58.4 L 222.55068093039773 58.4" stroke-miterlimit="10"/></g><g transform="translate(-158,2) scale(1,1)"><path fill="none" stroke="#000000" d="M 215.743408203125 66.4 L 206.28886274857956 79" stroke-miterlimit="10"/></g><g transform="translate(-158,2) scale(1,1)"><path fill="none" stroke="#000000" d="M 215.743408203125 66.4 L 225.19795365767047 79" stroke-miterlimit="10"/></g><g transform="translate(-158,2) scale(1,1)"><g><path fill="none" stroke="none"/><text fill="#000000" stroke="none" font-family="Arial" font-size="13px" font-style="normal" font-weight="bold" text-decoration="none" x="191.895263671875" y="99.5">: Patient</text></g></g><g transform="translate(-158,2) scale(1,1)"><path fill="none" stroke="#000000" d="M 216.5 105 L 216.5 502" stroke-miterlimit="10" stroke-dasharray="3"/></g><g transform="translate(-158,2) scale(1,1)"><rect fill="#C0C0C0" stroke="none" x="319" y="47" width="142.26513671875" height="39" opacity="0.2"/></g><g transform="translate(-158,2) scale(1,1)"><rect fill="#ffffff" stroke="none" x="312" y="40" width="142.26513671875" height="39"/></g><g transform="translate(-158,2) scale(1,1)"><path fill="none" stroke="#000000" d="M 312 40 L 454.26513671875 40 L 454.26513671875 79 L 312 79 L 312 40 Z Z" stroke-miterlimit="10"/></g><g transform="translate(-158,2) scale(1,1)"><g><path fill="none" stroke="none"/><text fill="#000000" stroke="none" font-family="Arial" font-size="13px" font-style="normal" font-weight="bold" text-decoration="none" x="326.048095703125" y="59.5">RequestTestControl</text></g></g><g transform="translate(-158,2) scale(1,1)"><path fill="none" stroke="#000000" d="M 384.5 80 L 384.5 544" stroke-miterlimit="10" stroke-dasharray="3"/></g><g transform="translate(-158,2) scale(1,1)"><g><path fill="none" stroke="none"/><text fill="#59b200" stroke="none" font-family="Arial" font-size="13px" font-style="normal" font-weight="normal" text-decoration="none" x="213" y="26">selectLab Sequence Diagram</text></g></g><g transform="translate(-158,2) scale(1,1)"><rect fill="#C0C0C0" stroke="none" x="599" y="47" width="96.05419921875" height="39" opacity="0.2"/></g><g transform="translate(-158,2) scale(1,1)"><rect fill="#ffffff" stroke="none" x="592" y="40" width="96.05419921875" height="39"/></g><g transform="translate(-158,2) scale(1,1)"><path fill="none" stroke="#000000" d="M 592 40 L 688.05419921875 40 L 688.05419921875 79 L 592 79 L 592 40 Z Z" stroke-miterlimit="10"/></g><g transform="translate(-158,2) scale(1,1)"><g><path fill="none" stroke="none"/><text fill="#000000" stroke="none" font-family="Arial" font-size="13px" font-style="normal" font-weight="bold" text-decoration="none" x="603.896240234375" y="59.5">TestRequest</text></g></g><g transform="translate(-158,2) scale(1,1)"><path fill="none" stroke="#000000" d="M 641.5 80 L 641.5 494" stroke-miterlimit="10" stroke-dasharray="3"/></g><g transform="translate(-158,2) scale(1,1)"><rect fill="#C0C0C0" stroke="none" x="1055" y="47" width="86.90087890625" height="39" opacity="0.2"/></g><g transform="translate(-158,2) scale(1,1)"><rect fill="#ffffff" stroke="none" x="1048" y="40" width="86.90087890625" height="39"/></g><g transform="translate(-158,2) scale(1,1)"><path fill="none" stroke="#000000" d="M 1048 40 L 1134.90087890625 40 L 1134.90087890625 79 L 1048 79 L 1048 40 Z Z" stroke-miterlimit="10"/></g><g transform="translate(-158,2) scale(1,1)"><g><path fill="none" stroke="none"/><text fill="#000000" stroke="none" font-family="Arial" font-size="13px" font-style="normal" font-weight="bold" text-decoration="none" x="1060.37548828125" y="59.5">Laboratory</text></g></g><g transform="translate(-158,2) scale(1,1)"><path fill="none" stroke="#000000" d="M 1092.5 80 L 1092.5 448" stroke-miterlimit="10" stroke-dasharray="3"/></g><g transform="translate(-158,2) scale(1,1)"><rect fill="#C0C0C0" stroke="none" x="815" y="47" width="80.41357421875" height="39" opacity="0.2"/></g><g transform="translate(-158,2) scale(1,1)"><rect fill="#ffffff" stroke="none" x="808" y="40" width="80.41357421875" height="39"/></g><g transform="translate(-158,2) scale(1,1)"><path fill="none" stroke="#000000" d="M 808 40 L 888.41357421875 40 L 888.41357421875 79 L 808 79 L 808 40 Z Z" stroke-miterlimit="10"/></g><g transform="translate(-158,2) scale(1,1)"><g><path fill="none" stroke="none"/><text fill="#000000" stroke="none" font-family="Arial" font-size="13px" font-style="normal" font-weight="bold" text-decoration="none" x="819.661376953125" y="59.5">Insurance</text></g></g><g transform="translate(-158,2) scale(1,1)"><path fill="none" stroke="#000000" d="M 849.5 80 L 849.5 490" stroke-miterlimit="10" stroke-dasharray="3"/></g><g transform="translate(-158,2) scale(1,1)"><path fill="none" stroke="#000000" d="M 216 120 L 377 120" stroke-miterlimit="10"/></g><g transform="translate(-158,2) scale(1,1)"><path fill="#000000" stroke="none" d="M 366.83732514237585 124.20951775601598 L 377 120 L 366.83732514237585 115.79048224398402"/></g><g transform="translate(-158,2) scale(1,1)"><path fill="none" stroke="#000000" d="M 366.83732514237585 124.20951775601598 L 377 120 L 366.83732514237585 115.79048224398402 L 366.83732514237585 124.20951775601598" stroke-miterlimit="10"/></g><g transform="translate(-158,2) scale(1,1)"><g><path fill="none" stroke="none"/><text fill="#000000" stroke="none" font-family="Arial" font-size="13px" font-style="normal" font-weight="normal" text-decoration="none" x="263.6708984375" y="116.5">selectLab()</text></g></g><g transform="translate(-158,2) scale(1,1)"><rect fill="#ffffff" stroke="none" x="377" y="120" width="13" height="384"/></g><g transform="translate(-158,2) scale(1,1)"><path fill="none" stroke="#000000" d="M 377 120 L 390 120 L 390 504 L 377 504 L 377 120 Z Z" stroke-miterlimit="10"/></g><g transform="translate(-158,2) scale(1,1)"><path fill="none" stroke="#000000" d="M 390 137 L 634 137" stroke-miterlimit="10"/></g><g transform="translate(-158,2) scale(1,1)"><path fill="#000000" stroke="none" d="M 623.8373251423759 141.209517756016 L 634 137 L 623.8373251423758 132.790482243984"/></g><g transform="translate(-158,2) scale(1,1)"><path fill="none" stroke="#000000" d="M 623.8373251423759 141.209517756016 L 634 137 L 623.8373251423758 132.790482243984 L 623.8373251423759 141.209517756016" stroke-miterlimit="10"/></g><g transform="translate(-158,2) scale(1,1)"><g><path fill="none" stroke="none"/><text fill="#000000" stroke="none" font-family="Arial" font-size="13px" font-style="normal" font-weight="normal" text-decoration="none" x="399.5" y="133.5">insuranceName = getInsuranceName()</text></g></g><g transform="translate(-158,2) scale(1,1)"><rect fill="#ffffff" stroke="none" x="634" y="137" width="13" height="55"/></g><g transform="translate(-158,2) scale(1,1)"><path fill="none" stroke="#000000" d="M 634 137 L 647 137 L 647 192 L 634 192 L 634 137 Z Z" stroke-miterlimit="10"/></g><g transform="translate(-158,2) scale(1,1)"><path fill="none" stroke="#000000" d="M 647 155 L 842 155" stroke-miterlimit="10"/></g><g transform="translate(-158,2) scale(1,1)"><path fill="#000000" stroke="none" d="M 831.8373251423759 159.209517756016 L 842 155 L 831.8373251423758 150.790482243984"/></g><g transform="translate(-158,2) scale(1,1)"><path fill="none" stroke="#000000" d="M 831.8373251423759 159.209517756016 L 842 155 L 831.8373251423758 150.790482243984 L 831.8373251423759 159.209517756016" stroke-miterlimit="10"/></g><g transform="translate(-158,2) scale(1,1)"><g><path fill="none" stroke="none"/><text fill="#000000" stroke="none" font-family="Arial" font-size="13px" font-style="normal" font-weight="normal" text-decoration="none" x="660.5" y="151.5">insuranceName = getName()</text></g></g><g transform="translate(-158,2) scale(1,1)"><rect fill="#ffffff" stroke="none" x="842" y="155" width="13" height="28"/></g><g transform="translate(-158,2) scale(1,1)"><path fill="none" stroke="#000000" d="M 842 155 L 855 155 L 855 183 L 842 183 L 842 155 Z Z" stroke-miterlimit="10"/></g><g transform="translate(-158,2) scale(1,1)"><path fill="none" stroke="#000000" d="M 377 184 L 216 184" stroke-miterlimit="10" stroke-dasharray="3"/></g><g transform="translate(-158,2) scale(1,1)"><path fill="none" stroke="#000000" d="M 226.16267485762415 179.790482243984 L 216 184 L 226.16267485762415 188.209517756016" stroke-miterlimit="10"/></g><g transform="translate(-158,2) scale(1,1)"><g><path fill="none" stroke="none"/><text fill="#000000" stroke="none" font-family="Arial" font-size="13px" font-style="normal" font-weight="normal" text-decoration="none" x="226.5" y="179.5">List of  Supporting Labs</text></g></g><g transform="translate(-158,2) scale(1,1)"><path fill="none" stroke="#000000" d="M 216 240 L 384 240" stroke-miterlimit="10"/></g><g transform="translate(-158,2) scale(1,1)"><path fill="#000000" stroke="none" d="M 373.83732514237585 244.209517756016 L 384 240 L 373.83732514237585 235.790482243984"/></g><g transform="translate(-158,2) scale(1,1)"><path fill="none" stroke="#000000" d="M 373.83732514237585 244.209517756016 L 384 240 L 373.83732514237585 235.790482243984 L 373.83732514237585 244.209517756016" stroke-miterlimit="10"/></g><g transform="translate(-158,2) scale(1,1)"><g><path fill="none" stroke="none"/><text fill="#000000" stroke="none" font-family="Arial" font-size="13px" font-style="normal" font-weight="normal" text-decoration="none" x="233.5" y="236.5">sendFilter(filterparams)</text></g></g><g transform="translate(-158,2) scale(1,1)"><rect fill="#ffffff" stroke="none" x="384" y="240" width="13" height="48"/></g><g transform="translate(-158,2) scale(1,1)"><path fill="none" stroke="#000000" d="M 384 240 L 397 240 L 397 288 L 384 288 L 384 240 Z Z" stroke-miterlimit="10"/></g><g transform="translate(-158,2) scale(1,1)"><path fill="none" stroke="#000000" d="M 384 280 L 216 280" stroke-miterlimit="10" stroke-dasharray="3"/></g><g transform="translate(-158,2) scale(1,1)"><path fill="none" stroke="#000000" d="M 226.16267485762415 275.790482243984 L 216 280 L 226.16267485762415 284.209517756016" stroke-miterlimit="10"/></g><g transform="translate(-158,2) scale(1,1)"><g><path fill="none" stroke="none"/><text fill="#000000" stroke="none" font-family="Arial" font-size="13px" font-style="normal" font-weight="normal" text-decoration="none" x="240.5" y="275.5">List of  Filtered Labs</text></g></g><g transform="translate(-158,2) scale(1,1)"><path fill="none" stroke="#000000" d="M 216 328 L 384 328" stroke-miterlimit="10"/></g><g transform="translate(-158,2) scale(1,1)"><path fill="#000000" stroke="none" d="M 373.83732514237585 332.209517756016 L 384 328 L 373.83732514237585 323.790482243984"/></g><g transform="translate(-158,2) scale(1,1)"><path fill="none" stroke="#000000" d="M 373.83732514237585 332.209517756016 L 384 328 L 373.83732514237585 323.790482243984 L 373.83732514237585 332.209517756016" stroke-miterlimit="10"/></g><g transform="translate(-158,2) scale(1,1)"><g><path fill="none" stroke="none"/><text fill="#000000" stroke="none" font-family="Arial" font-size="13px" font-style="normal" font-weight="normal" text-decoration="none" x="255.5" y="324.5">submitLab(LID)</text></g></g><g transform="translate(-158,2) scale(1,1)"><rect fill="#ffffff" stroke="none" x="384" y="328" width="13" height="28"/></g><g transform="translate(-158,2) scale(1,1)"><path fill="none" stroke="#000000" d="M 384 328 L 397 328 L 397 356 L 384 356 L 384 328 Z Z" stroke-miterlimit="10"/></g><g transform="translate(-158,2) scale(1,1)"><path fill="none" stroke="#000000" d="M 397 336 L 634 336" stroke-miterlimit="10"/></g><g transform="translate(-158,2) scale(1,1)"><path fill="#000000" stroke="none" d="M 623.8373251423759 340.209517756016 L 634 336 L 623.8373251423758 331.790482243984"/></g><g transform="translate(-158,2) scale(1,1)"><path fill="none" stroke="#000000" d="M 623.8373251423759 340.209517756016 L 634 336 L 623.8373251423758 331.790482243984 L 623.8373251423759 340.209517756016" stroke-miterlimit="10"/></g><g transform="translate(-158,2) scale(1,1)"><g><path fill="none" stroke="none"/><text fill="#000000" stroke="none" font-family="Arial" font-size="13px" font-style="normal" font-weight="normal" text-decoration="none" x="481.5" y="332.5">setLab(LID)</text></g></g><g transform="translate(-158,2) scale(1,1)"><rect fill="#ffffff" stroke="none" x="634" y="336" width="13" height="28"/></g><g transform="translate(-158,2) scale(1,1)"><path fill="none" stroke="#000000" d="M 634 336 L 647 336 L 647 364 L 634 364 L 634 336 Z Z" stroke-miterlimit="10"/></g><g transform="translate(-158,2) scale(1,1)"><path fill="none" stroke="#000000" d="M 390 376 L 1085 376" stroke-miterlimit="10"/></g><g transform="translate(-158,2) scale(1,1)"><path fill="#000000" stroke="none" d="M 1074.837325142376 380.209517756016 L 1085 376 L 1074.837325142376 371.790482243984"/></g><g transform="translate(-158,2) scale(1,1)"><path fill="none" stroke="#000000" d="M 1074.837325142376 380.209517756016 L 1085 376 L 1074.837325142376 371.790482243984 L 1074.837325142376 380.209517756016" stroke-miterlimit="10"/></g><g transform="translate(-158,2) scale(1,1)"><g><path fill="none" stroke="none"/><text fill="#000000" stroke="none" font-family="Arial" font-size="13px" font-style="normal" font-weight="normal" text-decoration="none" x="867.009521484375" y="372.5">supportInsurance(insuranceName)</text></g></g><g transform="translate(-158,2) scale(1,1)"><rect fill="#ffffff" stroke="none" x="1085" y="376" width="13" height="28"/></g><g transform="translate(-158,2) scale(1,1)"><path fill="none" stroke="#000000" d="M 1085 376 L 1098 376 L 1098 404 L 1085 404 L 1085 376 Z Z" stroke-miterlimit="10"/></g><g transform="translate(-158,2) scale(1,1)"><path fill="none" stroke="#000000" d="M 1092 408 L 641 408" stroke-miterlimit="10" stroke-dasharray="3"/></g><g transform="translate(-158,2) scale(1,1)"><path fill="none" stroke="#000000" d="M 651.1626748576241 403.790482243984 L 641 408 L 651.1626748576241 412.209517756016" stroke-miterlimit="10"/></g><g transform="translate(-158,2) scale(1,1)"><g><path fill="none" stroke="none"/><text fill="#000000" stroke="none" font-family="Arial" font-size="13px" font-style="normal" font-weight="normal" text-decoration="none" x="942.5" y="404.5">OK</text></g></g><g transform="translate(-158,2) scale(1,1)"><path fill="none" stroke="#000000" d="M 390 424 L 634 424" stroke-miterlimit="10"/></g><g transform="translate(-158,2) scale(1,1)"><path fill="#000000" stroke="none" d="M 623.8373251423759 428.209517756016 L 634 424 L 623.8373251423758 419.790482243984"/></g><g transform="translate(-158,2) scale(1,1)"><path fill="none" stroke="#000000" d="M 623.8373251423759 428.209517756016 L 634 424 L 623.8373251423758 419.790482243984 L 623.8373251423759 428.209517756016" stroke-miterlimit="10"/></g><g transform="translate(-158,2) scale(1,1)"><g><path fill="none" stroke="none"/><text fill="#000000" stroke="none" font-family="Arial" font-size="13px" font-style="normal" font-weight="normal" text-decoration="none" x="459.5" y="420.5">enableInsurance()</text></g></g><g transform="translate(-158,2) scale(1,1)"><rect fill="#ffffff" stroke="none" x="634" y="424" width="13" height="56"/></g><g transform="translate(-158,2) scale(1,1)"><path fill="none" stroke="#000000" d="M 634 424 L 647 424 L 647 480 L 634 480 L 634 424 Z Z" stroke-miterlimit="10"/></g><g transform="translate(-158,2) scale(1,1)"><path fill="none" stroke="#000000" d="M 647 448 L 842 448" stroke-miterlimit="10"/></g><g transform="translate(-158,2) scale(1,1)"><path fill="#000000" stroke="none" d="M 831.8373251423759 452.209517756016 L 842 448 L 831.8373251423758 443.790482243984"/></g><g transform="translate(-158,2) scale(1,1)"><path fill="none" stroke="#000000" d="M 831.8373251423759 452.209517756016 L 842 448 L 831.8373251423758 443.790482243984 L 831.8373251423759 452.209517756016" stroke-miterlimit="10"/></g><g transform="translate(-158,2) scale(1,1)"><g><path fill="none" stroke="none"/><text fill="#000000" stroke="none" font-family="Arial" font-size="13px" font-style="normal" font-weight="normal" text-decoration="none" x="720.641357421875" y="444.5">enable()</text></g></g><g transform="translate(-158,2) scale(1,1)"><rect fill="#ffffff" stroke="none" x="842" y="448" width="13" height="28"/></g><g transform="translate(-158,2) scale(1,1)"><path fill="none" stroke="#000000" d="M 842 448 L 855 448 L 855 476 L 842 476 L 842 448 Z Z" stroke-miterlimit="10"/></g></g></svg>