<svg version="1.1" xmlns="http://www.w3.org/2000/svg" xmlns:xlink="http://www.w3.org/1999/xlink" width="772" height="452"><defs/><g><text fill="#eeeeee" stroke="none" font-family="Arial" font-size="24px" font-style="normal" font-weight="normal" text-decoration="none" x="0" y="0">UNREGISTERED</text><text fill="#eeeeee" stroke="none" font-family="Arial" font-size="24px" font-style="normal" font-weight="normal" text-decoration="none" x="0" y="30">UNREGISTERED</text><text fill="#eeeeee" stroke="none" font-family="Arial" font-size="24px" font-style="normal" font-weight="normal" text-decoration="none" x="0" y="60">UNREGISTERED</text><text fill="#eeeeee" stroke="none" font-family="Arial" font-size="24px" font-style="normal" font-weight="normal" text-decoration="none" x="0" y="90">UNREGISTERED</text><text fill="#eeeeee" stroke="none" font-family="Arial" font-size="24px" font-style="normal" font-weight="normal" text-decoration="none" x="0" y="120">UNREGISTERED</text><text fill="#eeeeee" stroke="none" font-family="Arial" font-size="24px" font-style="normal" font-weight="normal" text-decoration="none" x="0" y="150">UNREGISTERED</text><text fill="#eeeeee" stroke="none" font-family="Arial" font-size="24px" font-style="normal" font-weight="normal" text-decoration="none" x="0" y="180">UNREGISTERED</text><text fill="#eeeeee" stroke="none" font-family="Arial" font-size="24px" font-style="normal" font-weight="normal" text-decoration="none" x="0" y="210">UNREGISTERED</text><text fill="#eeeeee" stroke="none" font-family="Arial" font-size="24px" font-style="normal" font-weight="normal" text-decoration="none" x="0" y="240">UNREGISTERED</text><text fill="#eeeeee" stroke="none" font-family="Arial" font-size="24px" font-style="normal" font-weight="normal" text-decoration="none" x="0" y="270">UNREGISTERED</text><text fill="#eeeeee" stroke="none" font-family="Arial" font-size="24px" font-style="normal" font-weight="normal" text-decoration="none" x="0" y="300">UNREGISTERED</text><text fill="#eeeeee" stroke="none" font-family="Arial" font-size="24px" font-style="normal" font-weight="normal" text-decoration="none" x="0" y="330">UNREGISTERED</text><text fill="#eeeeee" stroke="none" font-family="Arial" font-size="24px" font-style="normal" font-weight="normal" text-decoration="none" x="0" y="360">UNREGISTERED</text><text fill="#eeeeee" stroke="none" font-family="Arial" font-size="24px" font-style="normal" font-weight="normal" text-decoration="none" x="0" y="390">UNREGISTERED</text><text fill="#eeeeee" stroke="none" font-family="Arial" font-size="24px" font-style="normal" font-weight="normal" text-decoration="none" x="0" y="420">UNREGISTERED</text><text fill="#eeeeee" stroke="none" font-family="Arial" font-size="24px" font-style="normal" font-weight="normal" text-decoration="none" x="0" y="450">UNREGISTERED</text><text fill="#eeeeee" stroke="none" font-family="Arial" font-size="24px" font-style="normal" font-weight="normal" text-decoration="none" x="200" y="0">UNREGISTERED</text><text fill="#eeeeee" stroke="none" font-family="Arial" font-size="24px" font-style="normal" font-weight="normal" text-decoration="none" x="200" y="30">UNREGISTERED</text><text fill="#eeeeee" stroke="none" font-family="Arial" font-size="24px" font-style="normal" font-weight="normal" text-decoration="none" x="200" y="60">UNREGISTERED</text><text fill="#eeeeee" stroke="none" font-family="Arial" font-size="24px" font-style="normal" font-weight="normal" text-decoration="none" x="200" y="90">UNREGISTERED</text><text fill="#eeeeee" stroke="none" font-family="Arial" font-size="24px" font-style="normal" font-weight="normal" text-decoration="none" x="200" y="120">UNREGISTERED</text><text fill="#eeeeee" stroke="none" font-family="Arial" font-size="24px" font-style="normal" font-weight="normal" text-decoration="none" x="200" y="150">UNREGISTERED</text><text fill="#eeeeee" stroke="none" font-family="Arial" font-size="24px" font-style="normal" font-weight="normal" text-decoration="none" x="200" y="180">UNREGISTERED</text><text fill="#eeeeee" stroke="none" font-family="Arial" font-size="24px" font-style="normal" font-weight="normal" text-decoration="none" x="200" y="210">UNREGISTERED</text><text fill="#eeeeee" stroke="none" font-family="Arial" font-size="24px" font-style="normal" font-weight="normal" text-decoration="none" x="200" y="240">UNREGISTERED</text><text fill="#eeeeee" stroke="none" font-family="Arial" font-size="24px" font-style="normal" font-weight="normal" text-decoration="none" x="200" y="270">UNREGISTERED</text><text fill="#eeeeee" stroke="none" font-family="Arial" font-size="24px" font-style="normal" font-weight="normal" text-decoration="none" x="200" y="300">UNREGISTERED</text><text fill="#eeeeee" stroke="none" font-family="Arial" font-size="24px" font-style="normal" font-weight="normal" text-decoration="none" x="200" y="330">UNREGISTERED</text><text fill="#eeeeee" stroke="none" font-family="Arial" font-size="24px" font-style="normal" font-weight="normal" text-decoration="none" x="200" y="360">UNREGISTERED</text><text fill="#eeeeee" stroke="none" font-family="Arial" font-size="24px" font-style="normal" font-weight="normal" text-decoration="none" x="200" y="390">UNREGISTERED</text><text fill="#eeeeee" stroke="none" font-family="Arial" font-size="24px" font-style="normal" font-weight="normal" text-decoration="none" x="200" y="420">UNREGISTERED</text><text fill="#eeeeee" stroke="none" font-family="Arial" font-size="24px" font-style="normal" font-weight="normal" text-decoration="none" x="200" y="450">UNREGISTERED</text><text fill="#eeeeee" stroke="none" font-family="Arial" font-size="24px" font-style="normal" font-weight="normal" text-decoration="none" x="400" y="0">UNREGISTERED</text><text fill="#eeeeee" stroke="none" font-family="Arial" font-size="24px" font-style="normal" font-weight="normal" text-decoration="none" x="400" y="30">UNREGISTERED</text><text fill="#eeeeee" stroke="none" font-family="Arial" font-size="24px" font-style="normal" font-weight="normal" text-decoration="none" x="400" y="60">UNREGISTERED</text><text fill="#eeeeee" stroke="none" font-family="Arial" font-size="24px" font-style="normal" font-weight="normal" text-decoration="none" x="400" y="90">UNREGISTERED</text><text fill="#eeeeee" stroke="none" font-family="Arial" font-size="24px" font-style="normal" font-weight="normal" text-decoration="none" x="400" y="120">UNREGISTERED</text><text fill="#eeeeee" stroke="none" font-family="Arial" font-size="24px" font-style="normal" font-weight="normal" text-decoration="none" x="400" y="150">UNREGISTERED</text><text fill="#eeeeee" stroke="none" font-family="Arial" font-size="24px" font-style="normal" font-weight="normal" text-decoration="none" x="400" y="180">UNREGISTERED</text><text fill="#eeeeee" stroke="none" font-family="Arial" font-size="24px" font-style="normal" font-weight="normal" text-decoration="none" x="400" y="210">UNREGISTERED</text><text fill="#eeeeee" stroke="none" font-family="Arial" font-size="24px" font-style="normal" font-weight="normal" text-decoration="none" x="400" y="240">UNREGISTERED</text><text fill="#eeeeee" stroke="none" font-family="Arial" font-size="24px" font-style="normal" font-weight="normal" text-decoration="none" x="400" y="270">UNREGISTERED</text><text fill="#eeeeee" stroke="none" font-family="Arial" font-size="24px" font-style="normal" font-weight="normal" text-decoration="none" x="400" y="300">UNREGISTERED</text><text fill="#eeeeee" stroke="none" font-family="Arial" font-size="24px" font-style="normal" font-weight="normal" text-decoration="none" x="400" y="330">UNREGISTERED</text><text fill="#eeeeee" stroke="none" font-family="Arial" font-size="24px" font-style="normal" font-weight="normal" text-decoration="none" x="400" y="360">UNREGISTERED</text><text fill="#eeeeee" stroke="none" font-family="Arial" font-size="24px" font-style="normal" font-weight="normal" text-decoration="none" x="400" y="390">UNREGISTERED</text><text fill="#eeeeee" stroke="none" font-family="Arial" font-size="24px" font-style="normal" font-weight="normal" text-decoration="none" x="400" y="420">UNREGISTERED</text><text fill="#eeeeee" stroke="none" font-family="Arial" font-size="24px" font-style="normal" font-weight="normal" text-decoration="none" x="400" y="450">UNREGISTERED</text><text fill="#eeeeee" stroke="none" font-family="Arial" font-size="24px" font-style="normal" font-weight="normal" text-decoration="none" x="600" y="0">UNREGISTERED</text><text fill="#eeeeee" stroke="none" font-family="Arial" font-size="24px" font-style="normal" font-weight="normal" text-decoration="none" x="600" y="30">UNREGISTERED</text><text fill="#eeeeee" stroke="none" font-family="Arial" font-size="24px" font-style="normal" font-weight="normal" text-decoration="none" x="600" y="60">UNREGISTERED</text><text fill="#eeeeee" stroke="none" font-family="Arial" font-size="24px" font-style="normal" font-weight="normal" text-decoration="none" x="600" y="90">UNREGISTERED</text><text fill="#eeeeee" stroke="none" font-family="Arial" font-size="24px" font-style="normal" font-weight="normal" text-decoration="none" x="600" y="120">UNREGISTERED</text><text fill="#eeeeee" stroke="none" font-family="Arial" font-size="24px" font-style="normal" font-weight="normal" text-decoration="none" x="600" y="150">UNREGISTERED</text><text fill="#eeeeee" stroke="none" font-family="Arial" font-size="24px" font-style="normal" font-weight="normal" text-decoration="none" x="600" y="180">UNREGISTERED</text><text fill="#eeeeee" stroke="none" font-family="Arial" font-size="24px" font-style="normal" font-weight="normal" text-decoration="none" x="600" y="210">UNREGISTERED</text><text fill="#eeeeee" stroke="none" font-family="Arial" font-size="24px" font-style="normal" font-weight="normal" text-decoration="none" x="600" y="240">UNREGISTERED</text><text fill="#eeeeee" stroke="none" font-family="Arial" font-size="24px" font-style="normal" font-weight="normal" text-decoration="none" x="600" y="270">UNREGISTERED</text><text fill="#eeeeee" stroke="none" font-family="Arial" font-size="24px" font-style="normal" font-weight="normal" text-decoration="none" x="600" y="300">UNREGISTERED</text><text fill="#eeeeee" stroke="none" font-family="Arial" font-size="24px" font-style="normal" font-weight="normal" text-decoration="none" x="600" y="330">UNREGISTERED</text><text fill="#eeeeee" stroke="none" font-family="Arial" font-size="24px" font-style="normal" font-weight="normal" text-decoration="none" x="600" y="360">UNREGISTERED</text><text fill="#eeeeee" stroke="none" font-family="Arial" font-size="24px" font-style="normal" font-weight="normal" text-decoration="none" x="600" y="390">UNREGISTERED</text><text fill="#eeeeee" stroke="none" font-family="Arial" font-size="24px" font-style="normal" font-weight="normal" text-decoration="none" x="600" y="420">UNREGISTERED</text><text fill="#eeeeee" stroke="none" font-family="Arial" font-size="24px" font-style="normal" font-weight="normal" text-decoration="none" x="600" y="450">UNREGISTERED</text><g transform="translate(-30,2) scale(1,1)"><path fill="#ffffff" stroke="none" d="M 81.3143172940341 47.3 C 81.3143172940341 43.82060576 84.19271901621592 41 87.743408203125 41 C 91.29409739003408 41 94.1724991122159 43.82060576 94.1724991122159 47.3 C 94.1724991122159 50.779394239999995 91.29409739003408 53.6 87.743408203125 53.6 C 84.19271901621592 53.6 81.3143172940341 50.779394239999995 81.3143172940341 47.3 Z"/></g><g transform="translate(-30,2) scale(1,1)"><path fill="none" stroke="#000000" d="M 81.3143172940341 47.3 C 81.3143172940341 43.82060576 84.19271901621592 41 87.743408203125 41 C 91.29409739003408 41 94.1724991122159 43.82060576 94.1724991122159 47.3 C 94.1724991122159 50.779394239999995 91.29409739003408 53.6 87.743408203125 53.6 C 84.19271901621592 53.6 81.3143172940341 50.779394239999995 81.3143172940341 47.3 Z" stroke-miterlimit="10"/></g><g transform="translate(-30,2) scale(1,1)"><path fill="none" stroke="#000000" d="M 87.743408203125 53.6 L 87.743408203125 66.4" stroke-miterlimit="10"/></g><g transform="translate(-30,2) scale(1,1)"><path fill="none" stroke="#000000" d="M 80.93613547585227 58.4 L 94.55068093039773 58.4" stroke-miterlimit="10"/></g><g transform="translate(-30,2) scale(1,1)"><path fill="none" stroke="#000000" d="M 87.743408203125 66.4 L 78.28886274857955 79" stroke-miterlimit="10"/></g><g transform="translate(-30,2) scale(1,1)"><path fill="none" stroke="#000000" d="M 87.743408203125 66.4 L 97.19795365767045 79" stroke-miterlimit="10"/></g><g transform="translate(-30,2) scale(1,1)"><g><path fill="none" stroke="none"/><text fill="#000000" stroke="none" font-family="Arial" font-size="13px" font-style="normal" font-weight="bold" text-decoration="none" x="63.895263671875" y="99.5">: Patient</text></g></g><g transform="translate(-30,2) scale(1,1)"><path fill="none" stroke="#000000" d="M 88.5 105 L 88.5 414" stroke-miterlimit="10" stroke-dasharray="3"/></g><g transform="translate(-30,2) scale(1,1)"><rect fill="#C0C0C0" stroke="none" x="223" y="47" width="145.87060546875" height="39" opacity="0.2"/></g><g transform="translate(-30,2) scale(1,1)"><rect fill="#ffffff" stroke="none" x="216" y="40" width="145.87060546875" height="39"/></g><g transform="translate(-30,2) scale(1,1)"><path fill="none" stroke="#000000" d="M 216 40 L 361.87060546875 40 L 361.87060546875 79 L 216 79 L 216 40 Z Z" stroke-miterlimit="10"/></g><g transform="translate(-30,2) scale(1,1)"><g><path fill="none" stroke="none"/><text fill="#000000" stroke="none" font-family="Arial" font-size="13px" font-style="normal" font-weight="bold" text-decoration="none" x="231.850830078125" y="59.5">RequestTestControl</text></g></g><g transform="translate(-30,2) scale(1,1)"><path fill="none" stroke="#000000" d="M 289.5 80 L 289.5 440" stroke-miterlimit="10" stroke-dasharray="3"/></g><g transform="translate(-30,2) scale(1,1)"><rect fill="#C0C0C0" stroke="none" x="711" y="275" width="71.736328125" height="39" opacity="0.2"/></g><g transform="translate(-30,2) scale(1,1)"><rect fill="#ffffff" stroke="none" x="704" y="268" width="71.736328125" height="39"/></g><g transform="translate(-30,2) scale(1,1)"><path fill="none" stroke="#000000" d="M 704 268 L 775.736328125 268 L 775.736328125 307 L 704 307 L 704 268 Z Z" stroke-miterlimit="10"/></g><g transform="translate(-30,2) scale(1,1)"><g><path fill="none" stroke="none"/><text fill="#000000" stroke="none" font-family="Arial" font-size="13px" font-style="normal" font-weight="bold" text-decoration="none" x="727.947265625" y="287.5">Test</text></g></g><g transform="translate(-30,2) scale(1,1)"><path fill="none" stroke="#000000" d="M 740.5 308 L 740.5 408" stroke-miterlimit="10" stroke-dasharray="3"/></g><g transform="translate(-30,2) scale(1,1)"><g><path fill="none" stroke="none"/><text fill="#4c0099" stroke="none" font-family="Arial" font-size="13px" font-style="normal" font-weight="normal" text-decoration="none" x="85" y="26">sendTestList Sequence Diagram</text></g></g><g transform="translate(-30,2) scale(1,1)"><rect fill="#C0C0C0" stroke="none" x="415" y="47" width="96.05419921875" height="39" opacity="0.2"/></g><g transform="translate(-30,2) scale(1,1)"><rect fill="#ffffff" stroke="none" x="408" y="40" width="96.05419921875" height="39"/></g><g transform="translate(-30,2) scale(1,1)"><path fill="none" stroke="#000000" d="M 408 40 L 504.05419921875 40 L 504.05419921875 79 L 408 79 L 408 40 Z Z" stroke-miterlimit="10"/></g><g transform="translate(-30,2) scale(1,1)"><g><path fill="none" stroke="none"/><text fill="#000000" stroke="none" font-family="Arial" font-size="13px" font-style="normal" font-weight="bold" text-decoration="none" x="419.896240234375" y="59.5">TestRequest</text></g></g><g transform="translate(-30,2) scale(1,1)"><path fill="none" stroke="#000000" d="M 457.5 80 L 457.5 409" stroke-miterlimit="10" stroke-dasharray="3"/></g><g transform="translate(-30,2) scale(1,1)"><path fill="none" stroke="#000000" d="M 88 132 L 282 132" stroke-miterlimit="10"/></g><g transform="translate(-30,2) scale(1,1)"><path fill="#000000" stroke="none" d="M 271.83732514237585 136.209517756016 L 282 132 L 271.83732514237585 127.79048224398402"/></g><g transform="translate(-30,2) scale(1,1)"><path fill="none" stroke="#000000" d="M 271.83732514237585 136.209517756016 L 282 132 L 271.83732514237585 127.79048224398402 L 271.83732514237585 136.209517756016" stroke-miterlimit="10"/></g><g transform="translate(-30,2) scale(1,1)"><g><path fill="none" stroke="none"/><text fill="#000000" stroke="none" font-family="Arial" font-size="13px" font-style="normal" font-weight="normal" text-decoration="none" x="113.944091796875" y="128.5">sendTestList(testNames)</text></g></g><g transform="translate(-30,2) scale(1,1)"><rect fill="#ffffff" stroke="none" x="282" y="132" width="13" height="284"/></g><g transform="translate(-30,2) scale(1,1)"><path fill="none" stroke="#000000" d="M 282 132 L 295 132 L 295 416 L 282 416 L 282 132 Z Z" stroke-miterlimit="10"/></g><g transform="translate(-30,2) scale(1,1)"><path fill="none" stroke="#000000" d="M 295 216 L 450 216" stroke-miterlimit="10"/></g><g transform="translate(-30,2) scale(1,1)"><path fill="#000000" stroke="none" d="M 439.83732514237585 220.209517756016 L 450 216 L 439.83732514237585 211.790482243984"/></g><g transform="translate(-30,2) scale(1,1)"><path fill="none" stroke="#000000" d="M 439.83732514237585 220.209517756016 L 450 216 L 439.83732514237585 211.790482243984 L 439.83732514237585 220.209517756016" stroke-miterlimit="10"/></g><g transform="translate(-30,2) scale(1,1)"><g><path fill="none" stroke="none"/><text fill="#000000" stroke="none" font-family="Arial" font-size="13px" font-style="normal" font-weight="normal" text-decoration="none" x="312.53271484375" y="212.5">makeTest(testName)</text></g></g><g transform="translate(-30,2) scale(1,1)"><rect fill="#ffffff" stroke="none" x="450" y="216" width="13" height="80"/></g><g transform="translate(-30,2) scale(1,1)"><path fill="none" stroke="#000000" d="M 450 216 L 463 216 L 463 296 L 450 296 L 450 216 Z Z" stroke-miterlimit="10"/></g><g transform="translate(-30,2) scale(1,1)"><path fill="none" stroke="#000000" d="M 463 224 L 493 224 L 493 244 L 470 244" stroke-miterlimit="10"/></g><g transform="translate(-30,2) scale(1,1)"><path fill="#000000" stroke="none" d="M 480.16267485762415 239.790482243984 L 470 244 L 480.16267485762415 248.209517756016"/></g><g transform="translate(-30,2) scale(1,1)"><path fill="none" stroke="#000000" d="M 480.16267485762415 239.790482243984 L 470 244 L 480.16267485762415 248.209517756016 L 480.16267485762415 239.790482243984" stroke-miterlimit="10"/></g><g transform="translate(-30,2) scale(1,1)"><g><path fill="none" stroke="none"/><text fill="#000000" stroke="none" font-family="Arial" font-size="13px" font-style="normal" font-weight="normal" text-decoration="none" x="500.5" y="244.5">testPrice = getTestPrice(testName)</text></g></g><g transform="translate(-30,2) scale(1,1)"><rect fill="#ffffff" stroke="none" x="457" y="244" width="13" height="28"/></g><g transform="translate(-30,2) scale(1,1)"><path fill="none" stroke="#000000" d="M 457 244 L 470 244 L 470 272 L 457 272 L 457 244 Z Z" stroke-miterlimit="10"/></g><g transform="translate(-30,2) scale(1,1)"><path fill="none" stroke="#000000" d="M 463 288 L 704 288" stroke-miterlimit="10" stroke-dasharray="3"/></g><g transform="translate(-30,2) scale(1,1)"><path fill="none" stroke="#000000" d="M 693.8373251423759 292.209517756016 L 704 288 L 693.8373251423758 283.790482243984" stroke-miterlimit="10"/></g><g transform="translate(-30,2) scale(1,1)"><g><path fill="none" stroke="none"/><text fill="#000000" stroke="none" font-family="Arial" font-size="13px" font-style="normal" font-weight="normal" text-decoration="none" x="554.5" y="283.5">«create»</text></g></g><g transform="translate(-30,2) scale(1,1)"><path fill="none" stroke="#000000" d="M 457 328 L 487 328 L 487 348 L 463 348" stroke-miterlimit="10"/></g><g transform="translate(-30,2) scale(1,1)"><path fill="#000000" stroke="none" d="M 473.16267485762415 343.790482243984 L 463 348 L 473.16267485762415 352.209517756016"/></g><g transform="translate(-30,2) scale(1,1)"><path fill="none" stroke="#000000" d="M 473.16267485762415 343.790482243984 L 463 348 L 473.16267485762415 352.209517756016 L 473.16267485762415 343.790482243984" stroke-miterlimit="10"/></g><g transform="translate(-30,2) scale(1,1)"><g><path fill="none" stroke="none"/><text fill="#000000" stroke="none" font-family="Arial" font-size="13px" font-style="normal" font-weight="normal" text-decoration="none" x="504.6708984375" y="343.5">addToTotalPrice(testPrice)</text></g></g><g transform="translate(-30,2) scale(1,1)"><rect fill="#ffffff" stroke="none" x="450" y="348" width="13" height="28"/></g><g transform="translate(-30,2) scale(1,1)"><path fill="none" stroke="#000000" d="M 450 348 L 463 348 L 463 376 L 450 376 L 450 348 Z Z" stroke-miterlimit="10"/></g><g transform="translate(-30,2) scale(1,1)"><path fill="none" stroke="#000000" d="M 264 176 L 792 176 L 792 400 L 264 400 L 264 176" stroke-miterlimit="10"/></g><g transform="translate(-30,2) scale(1,1)"><path fill="#ffffff" stroke="none" d="M 264 176 L 264 198 L 304.578125 198 L 315.578125 187 L 315.578125 176 L 264 176"/></g><g transform="translate(-30,2) scale(1,1)"><path fill="none" stroke="#000000" d="M 264 176 L 264 198 L 304.578125 198 L 315.578125 187 L 315.578125 176 L 264 176 L 264 176" stroke-miterlimit="10"/></g><g transform="translate(-30,2) scale(1,1)"><g><path fill="none" stroke="none"/><text fill="#000000" stroke="none" font-family="Arial" font-size="13px" font-style="normal" font-weight="bold" text-decoration="none" x="269" y="193.5">loop</text></g></g></g></svg>