<svg version="1.1" xmlns="http://www.w3.org/2000/svg" xmlns:xlink="http://www.w3.org/1999/xlink" width="628" height="332"><defs/><g><text fill="#eeeeee" stroke="none" font-family="Arial" font-size="24px" font-style="normal" font-weight="normal" text-decoration="none" x="0" y="0"></text><text fill="#eeeeee" stroke="none" font-family="Arial" font-size="24px" font-style="normal" font-weight="normal" text-decoration="none" x="0" y="30"></text><text fill="#eeeeee" stroke="none" font-family="Arial" font-size="24px" font-style="normal" font-weight="normal" text-decoration="none" x="0" y="60"></text><text fill="#eeeeee" stroke="none" font-family="Arial" font-size="24px" font-style="normal" font-weight="normal" text-decoration="none" x="0" y="90"></text><text fill="#eeeeee" stroke="none" font-family="Arial" font-size="24px" font-style="normal" font-weight="normal" text-decoration="none" x="0" y="120"></text><text fill="#eeeeee" stroke="none" font-family="Arial" font-size="24px" font-style="normal" font-weight="normal" text-decoration="none" x="0" y="150"></text><text fill="#eeeeee" stroke="none" font-family="Arial" font-size="24px" font-style="normal" font-weight="normal" text-decoration="none" x="0" y="180"></text><text fill="#eeeeee" stroke="none" font-family="Arial" font-size="24px" font-style="normal" font-weight="normal" text-decoration="none" x="0" y="210"></text><text fill="#eeeeee" stroke="none" font-family="Arial" font-size="24px" font-style="normal" font-weight="normal" text-decoration="none" x="0" y="240"></text><text fill="#eeeeee" stroke="none" font-family="Arial" font-size="24px" font-style="normal" font-weight="normal" text-decoration="none" x="0" y="270"></text><text fill="#eeeeee" stroke="none" font-family="Arial" font-size="24px" font-style="normal" font-weight="normal" text-decoration="none" x="0" y="300"></text><text fill="#eeeeee" stroke="none" font-family="Arial" font-size="24px" font-style="normal" font-weight="normal" text-decoration="none" x="0" y="330"></text><text fill="#eeeeee" stroke="none" font-family="Arial" font-size="24px" font-style="normal" font-weight="normal" text-decoration="none" x="200" y="0"></text><text fill="#eeeeee" stroke="none" font-family="Arial" font-size="24px" font-style="normal" font-weight="normal" text-decoration="none" x="200" y="30"></text><text fill="#eeeeee" stroke="none" font-family="Arial" font-size="24px" font-style="normal" font-weight="normal" text-decoration="none" x="200" y="60"></text><text fill="#eeeeee" stroke="none" font-family="Arial" font-size="24px" font-style="normal" font-weight="normal" text-decoration="none" x="200" y="90"></text><text fill="#eeeeee" stroke="none" font-family="Arial" font-size="24px" font-style="normal" font-weight="normal" text-decoration="none" x="200" y="120"></text><text fill="#eeeeee" stroke="none" font-family="Arial" font-size="24px" font-style="normal" font-weight="normal" text-decoration="none" x="200" y="150"></text><text fill="#eeeeee" stroke="none" font-family="Arial" font-size="24px" font-style="normal" font-weight="normal" text-decoration="none" x="200" y="180"></text><text fill="#eeeeee" stroke="none" font-family="Arial" font-size="24px" font-style="normal" font-weight="normal" text-decoration="none" x="200" y="210"></text><text fill="#eeeeee" stroke="none" font-family="Arial" font-size="24px" font-style="normal" font-weight="normal" text-decoration="none" x="200" y="240"></text><text fill="#eeeeee" stroke="none" font-family="Arial" font-size="24px" font-style="normal" font-weight="normal" text-decoration="none" x="200" y="270"></text><text fill="#eeeeee" stroke="none" font-family="Arial" font-size="24px" font-style="normal" font-weight="normal" text-decoration="none" x="200" y="300"></text><text fill="#eeeeee" stroke="none" font-family="Arial" font-size="24px" font-style="normal" font-weight="normal" text-decoration="none" x="200" y="330"></text><text fill="#eeeeee" stroke="none" font-family="Arial" font-size="24px" font-style="normal" font-weight="normal" text-decoration="none" x="400" y="0"></text><text fill="#eeeeee" stroke="none" font-family="Arial" font-size="24px" font-style="normal" font-weight="normal" text-decoration="none" x="400" y="30"></text><text fill="#eeeeee" stroke="none" font-family="Arial" font-size="24px" font-style="normal" font-weight="normal" text-decoration="none" x="400" y="60"></text><text fill="#eeeeee" stroke="none" font-family="Arial" font-size="24px" font-style="normal" font-weight="normal" text-decoration="none" x="400" y="90"></text><text fill="#eeeeee" stroke="none" font-family="Arial" font-size="24px" font-style="normal" font-weight="normal" text-decoration="none" x="400" y="120"></text><text fill="#eeeeee" stroke="none" font-family="Arial" font-size="24px" font-style="normal" font-weight="normal" text-decoration="none" x="400" y="150"></text><text fill="#eeeeee" stroke="none" font-family="Arial" font-size="24px" font-style="normal" font-weight="normal" text-decoration="none" x="400" y="180"></text><text fill="#eeeeee" stroke="none" font-family="Arial" font-size="24px" font-style="normal" font-weight="normal" text-decoration="none" x="400" y="210"></text><text fill="#eeeeee" stroke="none" font-family="Arial" font-size="24px" font-style="normal" font-weight="normal" text-decoration="none" x="400" y="240"></text><text fill="#eeeeee" stroke="none" font-family="Arial" font-size="24px" font-style="normal" font-weight="normal" text-decoration="none" x="400" y="270"></text><text fill="#eeeeee" stroke="none" font-family="Arial" font-size="24px" font-style="normal" font-weight="normal" text-decoration="none" x="400" y="300"></text><text fill="#eeeeee" stroke="none" font-family="Arial" font-size="24px" font-style="normal" font-weight="normal" text-decoration="none" x="400" y="330"></text><text fill="#eeeeee" stroke="none" font-family="Arial" font-size="24px" font-style="normal" font-weight="normal" text-decoration="none" x="600" y="0"></text><text fill="#eeeeee" stroke="none" font-family="Arial" font-size="24px" font-style="normal" font-weight="normal" text-decoration="none" x="600" y="30"></text><text fill="#eeeeee" stroke="none" font-family="Arial" font-size="24px" font-style="normal" font-weight="normal" text-decoration="none" x="600" y="60"></text><text fill="#eeeeee" stroke="none" font-family="Arial" font-size="24px" font-style="normal" font-weight="normal" text-decoration="none" x="600" y="90"></text><text fill="#eeeeee" stroke="none" font-family="Arial" font-size="24px" font-style="normal" font-weight="normal" text-decoration="none" x="600" y="120"></text><text fill="#eeeeee" stroke="none" font-family="Arial" font-size="24px" font-style="normal" font-weight="normal" text-decoration="none" x="600" y="150"></text><text fill="#eeeeee" stroke="none" font-family="Arial" font-size="24px" font-style="normal" font-weight="normal" text-decoration="none" x="600" y="180"></text><text fill="#eeeeee" stroke="none" font-family="Arial" font-size="24px" font-style="normal" font-weight="normal" text-decoration="none" x="600" y="210"></text><text fill="#eeeeee" stroke="none" font-family="Arial" font-size="24px" font-style="normal" font-weight="normal" text-decoration="none" x="600" y="240"></text><text fill="#eeeeee" stroke="none" font-family="Arial" font-size="24px" font-style="normal" font-weight="normal" text-decoration="none" x="600" y="270"></text><text fill="#eeeeee" stroke="none" font-family="Arial" font-size="24px" font-style="normal" font-weight="normal" text-decoration="none" x="600" y="300"></text><text fill="#eeeeee" stroke="none" font-family="Arial" font-size="24px" font-style="normal" font-weight="normal" text-decoration="none" x="600" y="330"></text><g transform="translate(-30,2) scale(1,1)"><path fill="#ffffff" stroke="none" d="M 81.3143172940341 47.3 C 81.3143172940341 43.82060576 84.19271901621592 41 87.743408203125 41 C 91.29409739003408 41 94.1724991122159 43.82060576 94.1724991122159 47.3 C 94.1724991122159 50.779394239999995 91.29409739003408 53.6 87.743408203125 53.6 C 84.19271901621592 53.6 81.3143172940341 50.779394239999995 81.3143172940341 47.3 Z"/></g><g transform="translate(-30,2) scale(1,1)"><path fill="none" stroke="#000000" d="M 81.3143172940341 47.3 C 81.3143172940341 43.82060576 84.19271901621592 41 87.743408203125 41 C 91.29409739003408 41 94.1724991122159 43.82060576 94.1724991122159 47.3 C 94.1724991122159 50.779394239999995 91.29409739003408 53.6 87.743408203125 53.6 C 84.19271901621592 53.6 81.3143172940341 50.779394239999995 81.3143172940341 47.3 Z" stroke-miterlimit="10"/></g><g transform="translate(-30,2) scale(1,1)"><path fill="none" stroke="#000000" d="M 87.743408203125 53.6 L 87.743408203125 66.4" stroke-miterlimit="10"/></g><g transform="translate(-30,2) scale(1,1)"><path fill="none" stroke="#000000" d="M 80.93613547585227 58.4 L 94.55068093039773 58.4" stroke-miterlimit="10"/></g><g transform="translate(-30,2) scale(1,1)"><path fill="none" stroke="#000000" d="M 87.743408203125 66.4 L 78.28886274857955 79" stroke-miterlimit="10"/></g><g transform="translate(-30,2) scale(1,1)"><path fill="none" stroke="#000000" d="M 87.743408203125 66.4 L 97.19795365767045 79" stroke-miterlimit="10"/></g><g transform="translate(-30,2) scale(1,1)"><g><path fill="none" stroke="none"/><text fill="#000000" stroke="none" font-family="Arial" font-size="13px" font-style="normal" font-weight="bold" text-decoration="none" x="63.895263671875" y="99.5">: Patient</text></g></g><g transform="translate(-30,2) scale(1,1)"><path fill="none" stroke="#000000" d="M 88.5 105 L 88.5 298" stroke-miterlimit="10" stroke-dasharray="3"/></g><g transform="translate(-30,2) scale(1,1)"><rect fill="#C0C0C0" stroke="none" x="223" y="47" width="145.87060546875" height="39" opacity="0.2"/></g><g transform="translate(-30,2) scale(1,1)"><rect fill="#ffffff" stroke="none" x="216" y="40" width="145.87060546875" height="39"/></g><g transform="translate(-30,2) scale(1,1)"><path fill="none" stroke="#000000" d="M 216 40 L 361.87060546875 40 L 361.87060546875 79 L 216 79 L 216 40 Z Z" stroke-miterlimit="10"/></g><g transform="translate(-30,2) scale(1,1)"><g><path fill="none" stroke="none"/><text fill="#000000" stroke="none" font-family="Arial" font-size="13px" font-style="normal" font-weight="bold" text-decoration="none" x="231.850830078125" y="59.5">RequestTestControl</text></g></g><g transform="translate(-30,2) scale(1,1)"><path fill="none" stroke="#000000" d="M 289.5 80 L 289.5 320" stroke-miterlimit="10" stroke-dasharray="3"/></g><g transform="translate(-30,2) scale(1,1)"><rect fill="#C0C0C0" stroke="none" x="559" y="227" width="71.736328125" height="39" opacity="0.2"/></g><g transform="translate(-30,2) scale(1,1)"><rect fill="#ffffff" stroke="none" x="552" y="220" width="71.736328125" height="39"/></g><g transform="translate(-30,2) scale(1,1)"><path fill="none" stroke="#000000" d="M 552 220 L 623.736328125 220 L 623.736328125 259 L 552 259 L 552 220 Z Z" stroke-miterlimit="10"/></g><g transform="translate(-30,2) scale(1,1)"><g><path fill="none" stroke="none"/><text fill="#000000" stroke="none" font-family="Arial" font-size="13px" font-style="normal" font-weight="bold" text-decoration="none" x="575.947265625" y="239.5">Test</text></g></g><g transform="translate(-30,2) scale(1,1)"><path fill="none" stroke="#000000" d="M 588.5 260 L 588.5 312" stroke-miterlimit="10" stroke-dasharray="3"/></g><g transform="translate(-30,2) scale(1,1)"><g><path fill="none" stroke="none"/><text fill="#4c0099" stroke="none" font-family="Arial" font-size="13px" font-style="normal" font-weight="normal" text-decoration="none" x="85" y="26">sendTestList Sequence Diagram</text></g></g><g transform="translate(-30,2) scale(1,1)"><rect fill="#C0C0C0" stroke="none" x="415" y="47" width="96.05419921875" height="39" opacity="0.2"/></g><g transform="translate(-30,2) scale(1,1)"><rect fill="#ffffff" stroke="none" x="408" y="40" width="96.05419921875" height="39"/></g><g transform="translate(-30,2) scale(1,1)"><path fill="none" stroke="#000000" d="M 408 40 L 504.05419921875 40 L 504.05419921875 79 L 408 79 L 408 40 Z Z" stroke-miterlimit="10"/></g><g transform="translate(-30,2) scale(1,1)"><g><path fill="none" stroke="none"/><text fill="#000000" stroke="none" font-family="Arial" font-size="13px" font-style="normal" font-weight="bold" text-decoration="none" x="419.896240234375" y="59.5">TestRequest</text></g></g><g transform="translate(-30,2) scale(1,1)"><path fill="none" stroke="#000000" d="M 457.5 80 L 457.5 258" stroke-miterlimit="10" stroke-dasharray="3"/></g><g transform="translate(-30,2) scale(1,1)"><path fill="none" stroke="#000000" d="M 88 132 L 282 132" stroke-miterlimit="10"/></g><g transform="translate(-30,2) scale(1,1)"><path fill="#000000" stroke="none" d="M 271.83732514237585 136.209517756016 L 282 132 L 271.83732514237585 127.79048224398402"/></g><g transform="translate(-30,2) scale(1,1)"><path fill="none" stroke="#000000" d="M 271.83732514237585 136.209517756016 L 282 132 L 271.83732514237585 127.79048224398402 L 271.83732514237585 136.209517756016" stroke-miterlimit="10"/></g><g transform="translate(-30,2) scale(1,1)"><g><path fill="none" stroke="none"/><text fill="#000000" stroke="none" font-family="Arial" font-size="13px" font-style="normal" font-weight="normal" text-decoration="none" x="113.944091796875" y="128.5">sendTestList(testNames)</text></g></g><g transform="translate(-30,2) scale(1,1)"><rect fill="#ffffff" stroke="none" x="282" y="132" width="13" height="28"/></g><g transform="translate(-30,2) scale(1,1)"><path fill="none" stroke="#000000" d="M 282 132 L 295 132 L 295 160 L 282 160 L 282 132 Z Z" stroke-miterlimit="10"/></g><g transform="translate(-30,2) scale(1,1)"><path fill="none" stroke="#000000" d="M 289 216 L 450 216" stroke-miterlimit="10"/></g><g transform="translate(-30,2) scale(1,1)"><path fill="#000000" stroke="none" d="M 439.83732514237585 220.209517756016 L 450 216 L 439.83732514237585 211.790482243984"/></g><g transform="translate(-30,2) scale(1,1)"><path fill="none" stroke="#000000" d="M 439.83732514237585 220.209517756016 L 450 216 L 439.83732514237585 211.790482243984 L 439.83732514237585 220.209517756016" stroke-miterlimit="10"/></g><g transform="translate(-30,2) scale(1,1)"><g><path fill="none" stroke="none"/><text fill="#000000" stroke="none" font-family="Arial" font-size="13px" font-style="normal" font-weight="normal" text-decoration="none" x="309.53271484375" y="212.5">makeTest(testName)</text></g></g><g transform="translate(-30,2) scale(1,1)"><rect fill="#ffffff" stroke="none" x="450" y="216" width="13" height="28"/></g><g transform="translate(-30,2) scale(1,1)"><path fill="none" stroke="#000000" d="M 450 216 L 463 216 L 463 244 L 450 244 L 450 216 Z Z" stroke-miterlimit="10"/></g><g transform="translate(-30,2) scale(1,1)"><path fill="none" stroke="#000000" d="M 463 240 L 552 240" stroke-miterlimit="10" stroke-dasharray="3"/></g><g transform="translate(-30,2) scale(1,1)"><path fill="none" stroke="#000000" d="M 541.8373251423759 244.209517756016 L 552 240 L 541.8373251423758 235.790482243984" stroke-miterlimit="10"/></g><g transform="translate(-30,2) scale(1,1)"><g><path fill="none" stroke="none"/><text fill="#000000" stroke="none" font-family="Arial" font-size="13px" font-style="normal" font-weight="normal" text-decoration="none" x="480.5" y="235.5">«create»</text></g></g><g transform="translate(-30,2) scale(1,1)"><path fill="none" stroke="#000000" d="M 240 176 L 648 176 L 648 288 L 240 288 L 240 176" stroke-miterlimit="10"/></g><g transform="translate(-30,2) scale(1,1)"><path fill="#ffffff" stroke="none" d="M 240 176 L 240 198 L 280.578125 198 L 291.578125 187 L 291.578125 176 L 240 176"/></g><g transform="translate(-30,2) scale(1,1)"><path fill="none" stroke="#000000" d="M 240 176 L 240 198 L 280.578125 198 L 291.578125 187 L 291.578125 176 L 240 176 L 240 176" stroke-miterlimit="10"/></g><g transform="translate(-30,2) scale(1,1)"><g><path fill="none" stroke="none"/><text fill="#000000" stroke="none" font-family="Arial" font-size="13px" font-style="normal" font-weight="bold" text-decoration="none" x="245" y="193.5">loop</text></g></g></g></svg>