<svg version="1.1" xmlns="http://www.w3.org/2000/svg" xmlns:xlink="http://www.w3.org/1999/xlink" width="924" height="593"><defs/><g><text fill="#eeeeee" stroke="none" font-family="Arial" font-size="24px" font-style="normal" font-weight="normal" text-decoration="none" x="0" y="0">UNREGISTERED</text><text fill="#eeeeee" stroke="none" font-family="Arial" font-size="24px" font-style="normal" font-weight="normal" text-decoration="none" x="0" y="30">UNREGISTERED</text><text fill="#eeeeee" stroke="none" font-family="Arial" font-size="24px" font-style="normal" font-weight="normal" text-decoration="none" x="0" y="60">UNREGISTERED</text><text fill="#eeeeee" stroke="none" font-family="Arial" font-size="24px" font-style="normal" font-weight="normal" text-decoration="none" x="0" y="90">UNREGISTERED</text><text fill="#eeeeee" stroke="none" font-family="Arial" font-size="24px" font-style="normal" font-weight="normal" text-decoration="none" x="0" y="120">UNREGISTERED</text><text fill="#eeeeee" stroke="none" font-family="Arial" font-size="24px" font-style="normal" font-weight="normal" text-decoration="none" x="0" y="150">UNREGISTERED</text><text fill="#eeeeee" stroke="none" font-family="Arial" font-size="24px" font-style="normal" font-weight="normal" text-decoration="none" x="0" y="180">UNREGISTERED</text><text fill="#eeeeee" stroke="none" font-family="Arial" font-size="24px" font-style="normal" font-weight="normal" text-decoration="none" x="0" y="210">UNREGISTERED</text><text fill="#eeeeee" stroke="none" font-family="Arial" font-size="24px" font-style="normal" font-weight="normal" text-decoration="none" x="0" y="240">UNREGISTERED</text><text fill="#eeeeee" stroke="none" font-family="Arial" font-size="24px" font-style="normal" font-weight="normal" text-decoration="none" x="0" y="270">UNREGISTERED</text><text fill="#eeeeee" stroke="none" font-family="Arial" font-size="24px" font-style="normal" font-weight="normal" text-decoration="none" x="0" y="300">UNREGISTERED</text><text fill="#eeeeee" stroke="none" font-family="Arial" font-size="24px" font-style="normal" font-weight="normal" text-decoration="none" x="0" y="330">UNREGISTERED</text><text fill="#eeeeee" stroke="none" font-family="Arial" font-size="24px" font-style="normal" font-weight="normal" text-decoration="none" x="0" y="360">UNREGISTERED</text><text fill="#eeeeee" stroke="none" font-family="Arial" font-size="24px" font-style="normal" font-weight="normal" text-decoration="none" x="0" y="390">UNREGISTERED</text><text fill="#eeeeee" stroke="none" font-family="Arial" font-size="24px" font-style="normal" font-weight="normal" text-decoration="none" x="0" y="420">UNREGISTERED</text><text fill="#eeeeee" stroke="none" font-family="Arial" font-size="24px" font-style="normal" font-weight="normal" text-decoration="none" x="0" y="450">UNREGISTERED</text><text fill="#eeeeee" stroke="none" font-family="Arial" font-size="24px" font-style="normal" font-weight="normal" text-decoration="none" x="0" y="480">UNREGISTERED</text><text fill="#eeeeee" stroke="none" font-family="Arial" font-size="24px" font-style="normal" font-weight="normal" text-decoration="none" x="0" y="510">UNREGISTERED</text><text fill="#eeeeee" stroke="none" font-family="Arial" font-size="24px" font-style="normal" font-weight="normal" text-decoration="none" x="0" y="540">UNREGISTERED</text><text fill="#eeeeee" stroke="none" font-family="Arial" font-size="24px" font-style="normal" font-weight="normal" text-decoration="none" x="0" y="570">UNREGISTERED</text><text fill="#eeeeee" stroke="none" font-family="Arial" font-size="24px" font-style="normal" font-weight="normal" text-decoration="none" x="200" y="0">UNREGISTERED</text><text fill="#eeeeee" stroke="none" font-family="Arial" font-size="24px" font-style="normal" font-weight="normal" text-decoration="none" x="200" y="30">UNREGISTERED</text><text fill="#eeeeee" stroke="none" font-family="Arial" font-size="24px" font-style="normal" font-weight="normal" text-decoration="none" x="200" y="60">UNREGISTERED</text><text fill="#eeeeee" stroke="none" font-family="Arial" font-size="24px" font-style="normal" font-weight="normal" text-decoration="none" x="200" y="90">UNREGISTERED</text><text fill="#eeeeee" stroke="none" font-family="Arial" font-size="24px" font-style="normal" font-weight="normal" text-decoration="none" x="200" y="120">UNREGISTERED</text><text fill="#eeeeee" stroke="none" font-family="Arial" font-size="24px" font-style="normal" font-weight="normal" text-decoration="none" x="200" y="150">UNREGISTERED</text><text fill="#eeeeee" stroke="none" font-family="Arial" font-size="24px" font-style="normal" font-weight="normal" text-decoration="none" x="200" y="180">UNREGISTERED</text><text fill="#eeeeee" stroke="none" font-family="Arial" font-size="24px" font-style="normal" font-weight="normal" text-decoration="none" x="200" y="210">UNREGISTERED</text><text fill="#eeeeee" stroke="none" font-family="Arial" font-size="24px" font-style="normal" font-weight="normal" text-decoration="none" x="200" y="240">UNREGISTERED</text><text fill="#eeeeee" stroke="none" font-family="Arial" font-size="24px" font-style="normal" font-weight="normal" text-decoration="none" x="200" y="270">UNREGISTERED</text><text fill="#eeeeee" stroke="none" font-family="Arial" font-size="24px" font-style="normal" font-weight="normal" text-decoration="none" x="200" y="300">UNREGISTERED</text><text fill="#eeeeee" stroke="none" font-family="Arial" font-size="24px" font-style="normal" font-weight="normal" text-decoration="none" x="200" y="330">UNREGISTERED</text><text fill="#eeeeee" stroke="none" font-family="Arial" font-size="24px" font-style="normal" font-weight="normal" text-decoration="none" x="200" y="360">UNREGISTERED</text><text fill="#eeeeee" stroke="none" font-family="Arial" font-size="24px" font-style="normal" font-weight="normal" text-decoration="none" x="200" y="390">UNREGISTERED</text><text fill="#eeeeee" stroke="none" font-family="Arial" font-size="24px" font-style="normal" font-weight="normal" text-decoration="none" x="200" y="420">UNREGISTERED</text><text fill="#eeeeee" stroke="none" font-family="Arial" font-size="24px" font-style="normal" font-weight="normal" text-decoration="none" x="200" y="450">UNREGISTERED</text><text fill="#eeeeee" stroke="none" font-family="Arial" font-size="24px" font-style="normal" font-weight="normal" text-decoration="none" x="200" y="480">UNREGISTERED</text><text fill="#eeeeee" stroke="none" font-family="Arial" font-size="24px" font-style="normal" font-weight="normal" text-decoration="none" x="200" y="510">UNREGISTERED</text><text fill="#eeeeee" stroke="none" font-family="Arial" font-size="24px" font-style="normal" font-weight="normal" text-decoration="none" x="200" y="540">UNREGISTERED</text><text fill="#eeeeee" stroke="none" font-family="Arial" font-size="24px" font-style="normal" font-weight="normal" text-decoration="none" x="200" y="570">UNREGISTERED</text><text fill="#eeeeee" stroke="none" font-family="Arial" font-size="24px" font-style="normal" font-weight="normal" text-decoration="none" x="400" y="0">UNREGISTERED</text><text fill="#eeeeee" stroke="none" font-family="Arial" font-size="24px" font-style="normal" font-weight="normal" text-decoration="none" x="400" y="30">UNREGISTERED</text><text fill="#eeeeee" stroke="none" font-family="Arial" font-size="24px" font-style="normal" font-weight="normal" text-decoration="none" x="400" y="60">UNREGISTERED</text><text fill="#eeeeee" stroke="none" font-family="Arial" font-size="24px" font-style="normal" font-weight="normal" text-decoration="none" x="400" y="90">UNREGISTERED</text><text fill="#eeeeee" stroke="none" font-family="Arial" font-size="24px" font-style="normal" font-weight="normal" text-decoration="none" x="400" y="120">UNREGISTERED</text><text fill="#eeeeee" stroke="none" font-family="Arial" font-size="24px" font-style="normal" font-weight="normal" text-decoration="none" x="400" y="150">UNREGISTERED</text><text fill="#eeeeee" stroke="none" font-family="Arial" font-size="24px" font-style="normal" font-weight="normal" text-decoration="none" x="400" y="180">UNREGISTERED</text><text fill="#eeeeee" stroke="none" font-family="Arial" font-size="24px" font-style="normal" font-weight="normal" text-decoration="none" x="400" y="210">UNREGISTERED</text><text fill="#eeeeee" stroke="none" font-family="Arial" font-size="24px" font-style="normal" font-weight="normal" text-decoration="none" x="400" y="240">UNREGISTERED</text><text fill="#eeeeee" stroke="none" font-family="Arial" font-size="24px" font-style="normal" font-weight="normal" text-decoration="none" x="400" y="270">UNREGISTERED</text><text fill="#eeeeee" stroke="none" font-family="Arial" font-size="24px" font-style="normal" font-weight="normal" text-decoration="none" x="400" y="300">UNREGISTERED</text><text fill="#eeeeee" stroke="none" font-family="Arial" font-size="24px" font-style="normal" font-weight="normal" text-decoration="none" x="400" y="330">UNREGISTERED</text><text fill="#eeeeee" stroke="none" font-family="Arial" font-size="24px" font-style="normal" font-weight="normal" text-decoration="none" x="400" y="360">UNREGISTERED</text><text fill="#eeeeee" stroke="none" font-family="Arial" font-size="24px" font-style="normal" font-weight="normal" text-decoration="none" x="400" y="390">UNREGISTERED</text><text fill="#eeeeee" stroke="none" font-family="Arial" font-size="24px" font-style="normal" font-weight="normal" text-decoration="none" x="400" y="420">UNREGISTERED</text><text fill="#eeeeee" stroke="none" font-family="Arial" font-size="24px" font-style="normal" font-weight="normal" text-decoration="none" x="400" y="450">UNREGISTERED</text><text fill="#eeeeee" stroke="none" font-family="Arial" font-size="24px" font-style="normal" font-weight="normal" text-decoration="none" x="400" y="480">UNREGISTERED</text><text fill="#eeeeee" stroke="none" font-family="Arial" font-size="24px" font-style="normal" font-weight="normal" text-decoration="none" x="400" y="510">UNREGISTERED</text><text fill="#eeeeee" stroke="none" font-family="Arial" font-size="24px" font-style="normal" font-weight="normal" text-decoration="none" x="400" y="540">UNREGISTERED</text><text fill="#eeeeee" stroke="none" font-family="Arial" font-size="24px" font-style="normal" font-weight="normal" text-decoration="none" x="400" y="570">UNREGISTERED</text><text fill="#eeeeee" stroke="none" font-family="Arial" font-size="24px" font-style="normal" font-weight="normal" text-decoration="none" x="600" y="0">UNREGISTERED</text><text fill="#eeeeee" stroke="none" font-family="Arial" font-size="24px" font-style="normal" font-weight="normal" text-decoration="none" x="600" y="30">UNREGISTERED</text><text fill="#eeeeee" stroke="none" font-family="Arial" font-size="24px" font-style="normal" font-weight="normal" text-decoration="none" x="600" y="60">UNREGISTERED</text><text fill="#eeeeee" stroke="none" font-family="Arial" font-size="24px" font-style="normal" font-weight="normal" text-decoration="none" x="600" y="90">UNREGISTERED</text><text fill="#eeeeee" stroke="none" font-family="Arial" font-size="24px" font-style="normal" font-weight="normal" text-decoration="none" x="600" y="120">UNREGISTERED</text><text fill="#eeeeee" stroke="none" font-family="Arial" font-size="24px" font-style="normal" font-weight="normal" text-decoration="none" x="600" y="150">UNREGISTERED</text><text fill="#eeeeee" stroke="none" font-family="Arial" font-size="24px" font-style="normal" font-weight="normal" text-decoration="none" x="600" y="180">UNREGISTERED</text><text fill="#eeeeee" stroke="none" font-family="Arial" font-size="24px" font-style="normal" font-weight="normal" text-decoration="none" x="600" y="210">UNREGISTERED</text><text fill="#eeeeee" stroke="none" font-family="Arial" font-size="24px" font-style="normal" font-weight="normal" text-decoration="none" x="600" y="240">UNREGISTERED</text><text fill="#eeeeee" stroke="none" font-family="Arial" font-size="24px" font-style="normal" font-weight="normal" text-decoration="none" x="600" y="270">UNREGISTERED</text><text fill="#eeeeee" stroke="none" font-family="Arial" font-size="24px" font-style="normal" font-weight="normal" text-decoration="none" x="600" y="300">UNREGISTERED</text><text fill="#eeeeee" stroke="none" font-family="Arial" font-size="24px" font-style="normal" font-weight="normal" text-decoration="none" x="600" y="330">UNREGISTERED</text><text fill="#eeeeee" stroke="none" font-family="Arial" font-size="24px" font-style="normal" font-weight="normal" text-decoration="none" x="600" y="360">UNREGISTERED</text><text fill="#eeeeee" stroke="none" font-family="Arial" font-size="24px" font-style="normal" font-weight="normal" text-decoration="none" x="600" y="390">UNREGISTERED</text><text fill="#eeeeee" stroke="none" font-family="Arial" font-size="24px" font-style="normal" font-weight="normal" text-decoration="none" x="600" y="420">UNREGISTERED</text><text fill="#eeeeee" stroke="none" font-family="Arial" font-size="24px" font-style="normal" font-weight="normal" text-decoration="none" x="600" y="450">UNREGISTERED</text><text fill="#eeeeee" stroke="none" font-family="Arial" font-size="24px" font-style="normal" font-weight="normal" text-decoration="none" x="600" y="480">UNREGISTERED</text><text fill="#eeeeee" stroke="none" font-family="Arial" font-size="24px" font-style="normal" font-weight="normal" text-decoration="none" x="600" y="510">UNREGISTERED</text><text fill="#eeeeee" stroke="none" font-family="Arial" font-size="24px" font-style="normal" font-weight="normal" text-decoration="none" x="600" y="540">UNREGISTERED</text><text fill="#eeeeee" stroke="none" font-family="Arial" font-size="24px" font-style="normal" font-weight="normal" text-decoration="none" x="600" y="570">UNREGISTERED</text><text fill="#eeeeee" stroke="none" font-family="Arial" font-size="24px" font-style="normal" font-weight="normal" text-decoration="none" x="800" y="0">UNREGISTERED</text><text fill="#eeeeee" stroke="none" font-family="Arial" font-size="24px" font-style="normal" font-weight="normal" text-decoration="none" x="800" y="30">UNREGISTERED</text><text fill="#eeeeee" stroke="none" font-family="Arial" font-size="24px" font-style="normal" font-weight="normal" text-decoration="none" x="800" y="60">UNREGISTERED</text><text fill="#eeeeee" stroke="none" font-family="Arial" font-size="24px" font-style="normal" font-weight="normal" text-decoration="none" x="800" y="90">UNREGISTERED</text><text fill="#eeeeee" stroke="none" font-family="Arial" font-size="24px" font-style="normal" font-weight="normal" text-decoration="none" x="800" y="120">UNREGISTERED</text><text fill="#eeeeee" stroke="none" font-family="Arial" font-size="24px" font-style="normal" font-weight="normal" text-decoration="none" x="800" y="150">UNREGISTERED</text><text fill="#eeeeee" stroke="none" font-family="Arial" font-size="24px" font-style="normal" font-weight="normal" text-decoration="none" x="800" y="180">UNREGISTERED</text><text fill="#eeeeee" stroke="none" font-family="Arial" font-size="24px" font-style="normal" font-weight="normal" text-decoration="none" x="800" y="210">UNREGISTERED</text><text fill="#eeeeee" stroke="none" font-family="Arial" font-size="24px" font-style="normal" font-weight="normal" text-decoration="none" x="800" y="240">UNREGISTERED</text><text fill="#eeeeee" stroke="none" font-family="Arial" font-size="24px" font-style="normal" font-weight="normal" text-decoration="none" x="800" y="270">UNREGISTERED</text><text fill="#eeeeee" stroke="none" font-family="Arial" font-size="24px" font-style="normal" font-weight="normal" text-decoration="none" x="800" y="300">UNREGISTERED</text><text fill="#eeeeee" stroke="none" font-family="Arial" font-size="24px" font-style="normal" font-weight="normal" text-decoration="none" x="800" y="330">UNREGISTERED</text><text fill="#eeeeee" stroke="none" font-family="Arial" font-size="24px" font-style="normal" font-weight="normal" text-decoration="none" x="800" y="360">UNREGISTERED</text><text fill="#eeeeee" stroke="none" font-family="Arial" font-size="24px" font-style="normal" font-weight="normal" text-decoration="none" x="800" y="390">UNREGISTERED</text><text fill="#eeeeee" stroke="none" font-family="Arial" font-size="24px" font-style="normal" font-weight="normal" text-decoration="none" x="800" y="420">UNREGISTERED</text><text fill="#eeeeee" stroke="none" font-family="Arial" font-size="24px" font-style="normal" font-weight="normal" text-decoration="none" x="800" y="450">UNREGISTERED</text><text fill="#eeeeee" stroke="none" font-family="Arial" font-size="24px" font-style="normal" font-weight="normal" text-decoration="none" x="800" y="480">UNREGISTERED</text><text fill="#eeeeee" stroke="none" font-family="Arial" font-size="24px" font-style="normal" font-weight="normal" text-decoration="none" x="800" y="510">UNREGISTERED</text><text fill="#eeeeee" stroke="none" font-family="Arial" font-size="24px" font-style="normal" font-weight="normal" text-decoration="none" x="800" y="540">UNREGISTERED</text><text fill="#eeeeee" stroke="none" font-family="Arial" font-size="24px" font-style="normal" font-weight="normal" text-decoration="none" x="800" y="570">UNREGISTERED</text><g transform="translate(-30,2) scale(1,1)"><path fill="#ffffff" stroke="none" d="M 81.3143172940341 47.3 C 81.3143172940341 43.82060576 84.19271901621592 41 87.743408203125 41 C 91.29409739003408 41 94.1724991122159 43.82060576 94.1724991122159 47.3 C 94.1724991122159 50.779394239999995 91.29409739003408 53.6 87.743408203125 53.6 C 84.19271901621592 53.6 81.3143172940341 50.779394239999995 81.3143172940341 47.3 Z"/></g><g transform="translate(-30,2) scale(1,1)"><path fill="none" stroke="#000000" d="M 81.3143172940341 47.3 C 81.3143172940341 43.82060576 84.19271901621592 41 87.743408203125 41 C 91.29409739003408 41 94.1724991122159 43.82060576 94.1724991122159 47.3 C 94.1724991122159 50.779394239999995 91.29409739003408 53.6 87.743408203125 53.6 C 84.19271901621592 53.6 81.3143172940341 50.779394239999995 81.3143172940341 47.3 Z" stroke-miterlimit="10"/></g><g transform="translate(-30,2) scale(1,1)"><path fill="none" stroke="#000000" d="M 87.743408203125 53.6 L 87.743408203125 66.4" stroke-miterlimit="10"/></g><g transform="translate(-30,2) scale(1,1)"><path fill="none" stroke="#000000" d="M 80.93613547585227 58.4 L 94.55068093039773 58.4" stroke-miterlimit="10"/></g><g transform="translate(-30,2) scale(1,1)"><path fill="none" stroke="#000000" d="M 87.743408203125 66.4 L 78.28886274857955 79" stroke-miterlimit="10"/></g><g transform="translate(-30,2) scale(1,1)"><path fill="none" stroke="#000000" d="M 87.743408203125 66.4 L 97.19795365767045 79" stroke-miterlimit="10"/></g><g transform="translate(-30,2) scale(1,1)"><g><path fill="none" stroke="none"/><text fill="#000000" stroke="none" font-family="Arial" font-size="13px" font-style="normal" font-weight="bold" text-decoration="none" x="63.895263671875" y="99.5">: Patient</text></g></g><g transform="translate(-30,2) scale(1,1)"><path fill="none" stroke="#000000" d="M 88.5 105 L 88.5 430" stroke-miterlimit="10" stroke-dasharray="3"/></g><g transform="translate(-30,2) scale(1,1)"><rect fill="#C0C0C0" stroke="none" x="223" y="47" width="145.87060546875" height="39" opacity="0.2"/></g><g transform="translate(-30,2) scale(1,1)"><rect fill="#ffffff" stroke="none" x="216" y="40" width="145.87060546875" height="39"/></g><g transform="translate(-30,2) scale(1,1)"><path fill="none" stroke="#000000" d="M 216 40 L 361.87060546875 40 L 361.87060546875 79 L 216 79 L 216 40 Z Z" stroke-miterlimit="10"/></g><g transform="translate(-30,2) scale(1,1)"><g><path fill="none" stroke="none"/><text fill="#000000" stroke="none" font-family="Arial" font-size="13px" font-style="normal" font-weight="bold" text-decoration="none" x="231.850830078125" y="59.5">RequestTestControl</text></g></g><g transform="translate(-30,2) scale(1,1)"><path fill="none" stroke="#000000" d="M 289.5 80 L 289.5 464" stroke-miterlimit="10" stroke-dasharray="3"/></g><g transform="translate(-30,2) scale(1,1)"><rect fill="#C0C0C0" stroke="none" x="847" y="307" width="71.736328125" height="39" opacity="0.2"/></g><g transform="translate(-30,2) scale(1,1)"><rect fill="#ffffff" stroke="none" x="840" y="300" width="71.736328125" height="39"/></g><g transform="translate(-30,2) scale(1,1)"><path fill="none" stroke="#000000" d="M 840 300 L 911.736328125 300 L 911.736328125 339 L 840 339 L 840 300 Z Z" stroke-miterlimit="10"/></g><g transform="translate(-30,2) scale(1,1)"><g><path fill="none" stroke="none"/><text fill="#000000" stroke="none" font-family="Arial" font-size="13px" font-style="normal" font-weight="bold" text-decoration="none" x="863.947265625" y="319.5">Test</text></g></g><g transform="translate(-30,2) scale(1,1)"><path fill="none" stroke="#000000" d="M 876.5 340 L 876.5 503" stroke-miterlimit="10" stroke-dasharray="3"/></g><g transform="translate(-30,2) scale(1,1)"><g><path fill="none" stroke="none"/><text fill="#4c0099" stroke="none" font-family="Arial" font-size="13px" font-style="normal" font-weight="normal" text-decoration="none" x="85" y="26">sendTestList Sequence Diagram</text></g></g><g transform="translate(-30,2) scale(1,1)"><rect fill="#C0C0C0" stroke="none" x="695" y="139" width="96.05419921875" height="39" opacity="0.2"/></g><g transform="translate(-30,2) scale(1,1)"><rect fill="#ffffff" stroke="none" x="688" y="132" width="96.05419921875" height="39"/></g><g transform="translate(-30,2) scale(1,1)"><path fill="none" stroke="#000000" d="M 688 132 L 784.05419921875 132 L 784.05419921875 171 L 688 171 L 688 132 Z Z" stroke-miterlimit="10"/></g><g transform="translate(-30,2) scale(1,1)"><g><path fill="none" stroke="none"/><text fill="#000000" stroke="none" font-family="Arial" font-size="13px" font-style="normal" font-weight="bold" text-decoration="none" x="708.928955078125" y="151.5">Sampling</text></g></g><g transform="translate(-30,2) scale(1,1)"><path fill="none" stroke="#000000" d="M 737.5 172 L 737.5 581" stroke-miterlimit="10" stroke-dasharray="3"/></g><g transform="translate(-30,2) scale(1,1)"><rect fill="#C0C0C0" stroke="none" x="407" y="47" width="96.05419921875" height="39" opacity="0.2"/></g><g transform="translate(-30,2) scale(1,1)"><rect fill="#ffffff" stroke="none" x="400" y="40" width="96.05419921875" height="39"/></g><g transform="translate(-30,2) scale(1,1)"><path fill="none" stroke="#000000" d="M 400 40 L 496.05419921875 40 L 496.05419921875 79 L 400 79 L 400 40 Z Z" stroke-miterlimit="10"/></g><g transform="translate(-30,2) scale(1,1)"><g><path fill="none" stroke="none"/><text fill="#000000" stroke="none" font-family="Arial" font-size="13px" font-style="normal" font-weight="bold" text-decoration="none" x="411.896240234375" y="59.5">TestRequest</text></g></g><g transform="translate(-30,2) scale(1,1)"><path fill="none" stroke="#000000" d="M 449.5 80 L 449.5 525" stroke-miterlimit="10" stroke-dasharray="3"/></g><g transform="translate(-30,2) scale(1,1)"><path fill="none" stroke="#000000" d="M 88 132 L 282 132" stroke-miterlimit="10"/></g><g transform="translate(-30,2) scale(1,1)"><path fill="#000000" stroke="none" d="M 271.83732514237585 136.209517756016 L 282 132 L 271.83732514237585 127.79048224398402"/></g><g transform="translate(-30,2) scale(1,1)"><path fill="none" stroke="#000000" d="M 271.83732514237585 136.209517756016 L 282 132 L 271.83732514237585 127.79048224398402 L 271.83732514237585 136.209517756016" stroke-miterlimit="10"/></g><g transform="translate(-30,2) scale(1,1)"><g><path fill="none" stroke="none"/><text fill="#000000" stroke="none" font-family="Arial" font-size="13px" font-style="normal" font-weight="normal" text-decoration="none" x="113.944091796875" y="128.5">sendTestList(testNames)</text></g></g><g transform="translate(-30,2) scale(1,1)"><rect fill="#ffffff" stroke="none" x="282" y="132" width="13" height="300"/></g><g transform="translate(-30,2) scale(1,1)"><path fill="none" stroke="#000000" d="M 282 132 L 295 132 L 295 432 L 282 432 L 282 132 Z Z" stroke-miterlimit="10"/></g><g transform="translate(-30,2) scale(1,1)"><path fill="none" stroke="#000000" d="M 449 152 L 688 152" stroke-miterlimit="10" stroke-dasharray="3"/></g><g transform="translate(-30,2) scale(1,1)"><path fill="none" stroke="#000000" d="M 677.8373251423759 156.209517756016 L 688 152 L 677.8373251423758 147.790482243984" stroke-miterlimit="10"/></g><g transform="translate(-30,2) scale(1,1)"><g><path fill="none" stroke="none"/><text fill="#000000" stroke="none" font-family="Arial" font-size="13px" font-style="normal" font-weight="normal" text-decoration="none" x="558.5" y="148.5">«create»</text></g></g><g transform="translate(-30,2) scale(1,1)"><path fill="none" stroke="#000000" d="M 295 224 L 442 224" stroke-miterlimit="10"/></g><g transform="translate(-30,2) scale(1,1)"><path fill="#000000" stroke="none" d="M 431.83732514237585 228.209517756016 L 442 224 L 431.83732514237585 219.790482243984"/></g><g transform="translate(-30,2) scale(1,1)"><path fill="none" stroke="#000000" d="M 431.83732514237585 228.209517756016 L 442 224 L 431.83732514237585 219.790482243984 L 431.83732514237585 228.209517756016" stroke-miterlimit="10"/></g><g transform="translate(-30,2) scale(1,1)"><g><path fill="none" stroke="none"/><text fill="#000000" stroke="none" font-family="Arial" font-size="13px" font-style="normal" font-weight="normal" text-decoration="none" x="306.53271484375" y="219.5">makeTest(testName)</text></g></g><g transform="translate(-30,2) scale(1,1)"><rect fill="#ffffff" stroke="none" x="442" y="224" width="13" height="171"/></g><g transform="translate(-30,2) scale(1,1)"><path fill="none" stroke="#000000" d="M 442 224 L 455 224 L 455 395 L 442 395 L 442 224 Z Z" stroke-miterlimit="10"/></g><g transform="translate(-30,2) scale(1,1)"><path fill="none" stroke="#000000" d="M 455 240 L 485 240 L 485 260 L 462 260" stroke-miterlimit="10"/></g><g transform="translate(-30,2) scale(1,1)"><path fill="#000000" stroke="none" d="M 472.16267485762415 255.790482243984 L 462 260 L 472.16267485762415 264.209517756016"/></g><g transform="translate(-30,2) scale(1,1)"><path fill="none" stroke="#000000" d="M 472.16267485762415 255.790482243984 L 462 260 L 472.16267485762415 264.209517756016 L 472.16267485762415 255.790482243984" stroke-miterlimit="10"/></g><g transform="translate(-30,2) scale(1,1)"><g><path fill="none" stroke="none"/><text fill="#000000" stroke="none" font-family="Arial" font-size="13px" font-style="normal" font-weight="normal" text-decoration="none" x="487.5" y="255.5">testPrice = getTestPrice(testName)</text></g></g><g transform="translate(-30,2) scale(1,1)"><rect fill="#ffffff" stroke="none" x="449" y="260" width="13" height="28"/></g><g transform="translate(-30,2) scale(1,1)"><path fill="none" stroke="#000000" d="M 449 260 L 462 260 L 462 288 L 449 288 L 449 260 Z Z" stroke-miterlimit="10"/></g><g transform="translate(-30,2) scale(1,1)"><path fill="none" stroke="#000000" d="M 455 304 L 730 304" stroke-miterlimit="10"/></g><g transform="translate(-30,2) scale(1,1)"><path fill="#000000" stroke="none" d="M 719.8373251423759 308.209517756016 L 730 304 L 719.8373251423758 299.790482243984"/></g><g transform="translate(-30,2) scale(1,1)"><path fill="none" stroke="#000000" d="M 719.8373251423759 308.209517756016 L 730 304 L 719.8373251423758 299.790482243984 L 719.8373251423759 308.209517756016" stroke-miterlimit="10"/></g><g transform="translate(-30,2) scale(1,1)"><g><path fill="none" stroke="none"/><text fill="#000000" stroke="none" font-family="Arial" font-size="13px" font-style="normal" font-weight="normal" text-decoration="none" x="503.5" y="300.5">makeTest(testName, testPrice)</text></g></g><g transform="translate(-30,2) scale(1,1)"><rect fill="#ffffff" stroke="none" x="730" y="304" width="13" height="28"/></g><g transform="translate(-30,2) scale(1,1)"><path fill="none" stroke="#000000" d="M 730 304 L 743 304 L 743 332 L 730 332 L 730 304 Z Z" stroke-miterlimit="10"/></g><g transform="translate(-30,2) scale(1,1)"><path fill="none" stroke="#000000" d="M 743 320 L 840 320" stroke-miterlimit="10" stroke-dasharray="3"/></g><g transform="translate(-30,2) scale(1,1)"><path fill="none" stroke="#000000" d="M 829.8373251423759 324.209517756016 L 840 320 L 829.8373251423758 315.790482243984" stroke-miterlimit="10"/></g><g transform="translate(-30,2) scale(1,1)"><g><path fill="none" stroke="none"/><text fill="#000000" stroke="none" font-family="Arial" font-size="13px" font-style="normal" font-weight="normal" text-decoration="none" x="762.5" y="315.5">«create»</text></g></g><g transform="translate(-30,2) scale(1,1)"><path fill="none" stroke="#000000" d="M 455 328 L 485 328 L 485 348 L 462 348" stroke-miterlimit="10"/></g><g transform="translate(-30,2) scale(1,1)"><path fill="#000000" stroke="none" d="M 472.16267485762415 343.790482243984 L 462 348 L 472.16267485762415 352.209517756016"/></g><g transform="translate(-30,2) scale(1,1)"><path fill="none" stroke="#000000" d="M 472.16267485762415 343.790482243984 L 462 348 L 472.16267485762415 352.209517756016 L 472.16267485762415 343.790482243984" stroke-miterlimit="10"/></g><g transform="translate(-30,2) scale(1,1)"><g><path fill="none" stroke="none"/><text fill="#000000" stroke="none" font-family="Arial" font-size="13px" font-style="normal" font-weight="normal" text-decoration="none" x="487.5" y="343.5">addToTotalPrice(testPrice)</text></g></g><g transform="translate(-30,2) scale(1,1)"><rect fill="#ffffff" stroke="none" x="449" y="348" width="13" height="28"/></g><g transform="translate(-30,2) scale(1,1)"><path fill="none" stroke="#000000" d="M 449 348 L 462 348 L 462 376 L 449 376 L 449 348 Z Z" stroke-miterlimit="10"/></g><g transform="translate(-30,2) scale(1,1)"><path fill="none" stroke="#000000" d="M 232 192 L 944 192 L 944 416 L 232 416 L 232 192" stroke-miterlimit="10"/></g><g transform="translate(-30,2) scale(1,1)"><path fill="#ffffff" stroke="none" d="M 232 192 L 232 214 L 272.578125 214 L 283.578125 203 L 283.578125 192 L 232 192"/></g><g transform="translate(-30,2) scale(1,1)"><path fill="none" stroke="#000000" d="M 232 192 L 232 214 L 272.578125 214 L 283.578125 203 L 283.578125 192 L 232 192 L 232 192" stroke-miterlimit="10"/></g><g transform="translate(-30,2) scale(1,1)"><g><path fill="none" stroke="none"/><text fill="#000000" stroke="none" font-family="Arial" font-size="13px" font-style="normal" font-weight="bold" text-decoration="none" x="237" y="209.5">loop</text></g></g></g></svg>